<?xml version="1.0" encoding="utf-8"?>
<!-- Generator: Adobe Illustrator 16.0.0, SVG Export Plug-In . SVG Version: 6.00 Build 0)  -->
<!DOCTYPE svg PUBLIC "-//W3C//DTD SVG 1.1//EN" "http://www.w3.org/Graphics/SVG/1.1/DTD/svg11.dtd">
<svg version="1.1" id="Layer_1" xmlns="http://www.w3.org/2000/svg" xmlns:xlink="http://www.w3.org/1999/xlink" x="0px" y="0px"
	 width="250px" height="100px" viewBox="115 0 250 100" enable-background="new 115 0 250 100" xml:space="preserve">
<g id="Layer_1_1_">
</g>
<path fill="#818181" d="M142.622,20.093v-2.15c0-0.323,0.015-0.571,0.044-0.75c0.031-0.176,0.098-0.35,0.205-0.522
	c0.107-0.172,0.277-0.288,0.514-0.355c0.237-0.065,0.554-0.098,0.948-0.098h2.147v-4.303h-3.437c-1.989,0-3.417,0.472-4.285,1.414
	c-0.866,0.946-1.302,2.337-1.302,4.174v2.589h-2.574v4.302h2.574v12.478h5.166V24.393h3.436l0.456-4.3H142.622z"/>
<path fill="#818181" d="M203.091,16.668c-0.983,0.421-1.966,0.684-2.945,0.792c1.106-0.667,1.857-1.605,2.249-2.819
	c-1.018,0.599-2.097,1.013-3.249,1.236c-1.013-1.078-2.258-1.619-3.737-1.619c-1.417,0-2.621,0.499-3.622,1.496
	c-0.994,0.999-1.495,2.205-1.495,3.618c0,0.381,0.041,0.771,0.125,1.172c-2.088-0.106-4.046-0.631-5.882-1.575
	c-1.831-0.944-3.385-2.205-4.661-3.776c-0.465,0.792-0.699,1.653-0.699,2.581c0,0.877,0.206,1.689,0.618,2.438
	c0.413,0.75,0.963,1.355,1.666,1.82c-0.825-0.031-1.595-0.247-2.314-0.648v0.063c0,1.233,0.389,2.317,1.162,3.253
	c0.779,0.933,1.754,1.522,2.94,1.765c-0.444,0.113-0.895,0.174-1.347,0.174c-0.294,0-0.62-0.026-0.965-0.08
	c0.327,1.027,0.928,1.867,1.806,2.524c0.879,0.663,1.867,1,2.977,1.025c-1.858,1.453-3.975,2.184-6.35,2.184
	c-0.455,0-0.867-0.019-1.234-0.067c2.374,1.535,4.993,2.303,7.851,2.303c1.82,0,3.523-0.287,5.119-0.862
	c1.593-0.575,2.956-1.346,4.083-2.313c1.131-0.964,2.104-2.072,2.924-3.33c0.818-1.26,1.427-2.571,1.829-3.935
	c0.401-1.372,0.604-2.737,0.604-4.109c0-0.297-0.008-0.518-0.018-0.668C201.529,18.581,202.386,17.7,203.091,16.668z"/>
<g>
	<path fill="#818181" d="M242.405,27.806c-0.267-0.348-0.557-0.684-0.877-0.995c-0.318-0.298-0.638-0.573-0.96-0.83
		c-0.319-0.246-0.612-0.489-0.879-0.714c-0.26-0.235-0.477-0.478-0.645-0.726c-0.161-0.247-0.246-0.502-0.246-0.759
		c0-0.363,0.118-0.703,0.343-1.018c0.23-0.31,0.51-0.615,0.84-0.915c0.33-0.293,0.658-0.613,0.989-0.965
		c0.33-0.351,0.61-0.813,0.84-1.387c0.23-0.574,0.349-1.232,0.349-1.974c0-0.877-0.195-1.721-0.586-2.534
		c-0.395-0.807-0.944-1.439-1.651-1.889h2.022l2.031-1.186h-6.554c-0.928,0-1.864,0.099-2.804,0.302
		c-1.39,0.309-2.56,1.015-3.51,2.122c-0.95,1.106-1.423,2.355-1.423,3.755c0,1.483,0.532,2.714,1.596,3.692
		c1.062,0.978,2.341,1.467,3.83,1.467c0.302,0,0.654-0.026,1.053-0.076c-0.021,0.082-0.057,0.19-0.106,0.325
		c-0.05,0.134-0.089,0.244-0.122,0.32c-0.026,0.082-0.05,0.179-0.073,0.293c-0.022,0.118-0.034,0.232-0.034,0.354
		c0,0.658,0.325,1.407,0.962,2.237c-0.758,0.022-1.51,0.081-2.246,0.2c-0.742,0.117-1.52,0.292-2.326,0.539
		c-0.812,0.243-1.536,0.603-2.178,1.067c-0.637,0.466-1.115,1.021-1.44,1.657c-0.368,0.738-0.552,1.417-0.552,2.026
		c0,0.674,0.148,1.272,0.451,1.824c0.297,0.542,0.683,0.983,1.156,1.335c0.466,0.343,1.012,0.636,1.625,0.862
		c0.613,0.239,1.222,0.408,1.829,0.507c0.607,0.098,1.204,0.148,1.792,0.148c2.681,0,4.778-0.656,6.299-1.968
		c1.402-1.219,2.099-2.619,2.099-4.223c0-0.578-0.078-1.102-0.247-1.604C242.891,28.585,242.672,28.165,242.405,27.806z
		 M236.626,22.356c-0.51,0-0.997-0.13-1.459-0.39c-0.456-0.263-0.851-0.599-1.169-1.013s-0.599-0.884-0.84-1.406
		c-0.237-0.517-0.417-1.038-0.53-1.555c-0.118-0.522-0.172-1.019-0.172-1.485c0-0.961,0.251-1.787,0.762-2.475
		c0.512-0.692,1.231-1.034,2.164-1.034c0.661,0,1.256,0.205,1.792,0.611c0.537,0.412,0.954,0.929,1.257,1.561
		c0.305,0.632,0.539,1.28,0.707,1.959c0.162,0.673,0.245,1.31,0.245,1.914c0,0.999-0.218,1.803-0.65,2.404
		C238.298,22.054,237.592,22.356,236.626,22.356z M240.771,33.613c-0.277,0.478-0.647,0.844-1.121,1.111
		c-0.466,0.268-0.973,0.461-1.503,0.586c-0.536,0.125-1.103,0.179-1.689,0.179c-0.637,0-1.277-0.075-1.903-0.222
		c-0.63-0.149-1.232-0.375-1.812-0.684c-0.574-0.298-1.037-0.727-1.393-1.263c-0.355-0.535-0.534-1.132-0.534-1.815
		c0-0.602,0.135-1.137,0.409-1.606c0.27-0.466,0.612-0.849,1.036-1.122c0.417-0.285,0.906-0.51,1.467-0.699
		c0.559-0.176,1.099-0.301,1.621-0.371c0.521-0.071,1.048-0.101,1.593-0.101c0.33,0,0.576,0.006,0.747,0.028
		c0.061,0.032,0.21,0.144,0.46,0.316c0.243,0.168,0.407,0.287,0.491,0.342c0.085,0.053,0.241,0.173,0.463,0.341
		c0.229,0.17,0.389,0.295,0.483,0.386c0.097,0.082,0.232,0.207,0.414,0.387c0.177,0.162,0.31,0.307,0.395,0.44
		c0.085,0.123,0.191,0.274,0.316,0.449c0.124,0.186,0.209,0.358,0.264,0.524c0.05,0.16,0.099,0.344,0.14,0.539
		c0.046,0.196,0.067,0.395,0.067,0.607C241.186,32.601,241.049,33.147,240.771,33.613z"/>
	<polygon fill="#818181" points="249.166,15.753 249.166,11.914 247.243,11.914 247.243,15.753 243.404,15.753 243.404,17.676 
		247.243,17.676 247.243,21.515 249.166,21.515 249.166,17.676 253.005,17.676 253.005,15.753 	"/>
</g>
<path fill="#FFFFFF" d="M142.622,70.206v-2.149c0-0.324,0.015-0.572,0.044-0.75c0.031-0.176,0.098-0.35,0.205-0.522
	s0.277-0.288,0.514-0.356c0.237-0.065,0.554-0.098,0.948-0.098h2.147v-4.303h-3.437c-1.989,0-3.417,0.472-4.285,1.414
	c-0.866,0.946-1.302,2.337-1.302,4.176v2.587h-2.574v4.302h2.574v12.479h5.166V74.507h3.436l0.456-4.301H142.622z"/>
<path fill="#FFFFFF" d="M203.091,66.782c-0.983,0.423-1.966,0.685-2.945,0.792c1.106-0.667,1.857-1.606,2.249-2.819
	c-1.018,0.599-2.097,1.013-3.249,1.236c-1.013-1.078-2.258-1.619-3.737-1.619c-1.417,0-2.621,0.499-3.622,1.496
	c-0.994,0.998-1.495,2.204-1.495,3.617c0,0.382,0.041,0.772,0.125,1.174c-2.088-0.107-4.046-0.631-5.882-1.576
	c-1.831-0.944-3.385-2.204-4.661-3.776c-0.465,0.791-0.699,1.653-0.699,2.581c0,0.878,0.206,1.688,0.618,2.439
	c0.413,0.749,0.963,1.355,1.666,1.82c-0.825-0.031-1.595-0.249-2.314-0.648v0.062c0,1.234,0.389,2.318,1.162,3.255
	c0.779,0.933,1.754,1.522,2.94,1.766c-0.444,0.113-0.895,0.174-1.347,0.174c-0.294,0-0.62-0.026-0.965-0.082
	c0.327,1.029,0.928,1.868,1.806,2.525c0.879,0.663,1.867,1.001,2.977,1.026c-1.858,1.454-3.975,2.183-6.35,2.183
	c-0.455,0-0.867-0.018-1.234-0.068c2.374,1.535,4.993,2.304,7.851,2.304c1.82,0,3.523-0.288,5.119-0.863
	c1.593-0.575,2.956-1.346,4.083-2.312c1.131-0.965,2.104-2.073,2.924-3.331c0.818-1.259,1.427-2.571,1.829-3.935
	c0.401-1.37,0.604-2.737,0.604-4.108c0-0.297-0.008-0.518-0.018-0.668C201.529,68.695,202.386,67.814,203.091,66.782z"/>
<g>
	<path fill="#FFFFFF" d="M242.405,77.92c-0.267-0.347-0.557-0.682-0.877-0.993c-0.318-0.299-0.638-0.573-0.96-0.831
		c-0.319-0.247-0.612-0.489-0.879-0.713c-0.26-0.237-0.477-0.479-0.645-0.727c-0.161-0.247-0.246-0.501-0.246-0.76
		c0-0.363,0.118-0.703,0.343-1.018c0.23-0.31,0.51-0.615,0.84-0.916c0.33-0.292,0.658-0.612,0.989-0.964
		c0.33-0.352,0.61-0.813,0.84-1.387c0.23-0.574,0.349-1.231,0.349-1.974c0-0.877-0.195-1.722-0.586-2.534
		c-0.395-0.808-0.944-1.438-1.651-1.89h2.022l2.031-1.185h-6.554c-0.928,0-1.864,0.099-2.804,0.303
		c-1.39,0.309-2.56,1.015-3.51,2.122c-0.95,1.106-1.423,2.355-1.423,3.755c0,1.484,0.532,2.713,1.596,3.692
		c1.062,0.978,2.341,1.467,3.83,1.467c0.302,0,0.654-0.027,1.053-0.075c-0.021,0.081-0.057,0.189-0.106,0.324
		c-0.05,0.134-0.089,0.244-0.122,0.32c-0.026,0.081-0.05,0.179-0.073,0.291c-0.022,0.12-0.034,0.234-0.034,0.354
		c0,0.659,0.325,1.408,0.962,2.238c-0.758,0.021-1.51,0.081-2.246,0.2c-0.742,0.117-1.52,0.292-2.326,0.538
		c-0.812,0.243-1.536,0.603-2.178,1.067c-0.637,0.465-1.115,1.021-1.44,1.657c-0.368,0.738-0.552,1.417-0.552,2.026
		c0,0.674,0.148,1.271,0.451,1.824c0.297,0.543,0.683,0.984,1.156,1.335c0.466,0.344,1.012,0.636,1.625,0.862
		c0.613,0.239,1.222,0.408,1.829,0.507c0.607,0.098,1.204,0.147,1.792,0.147c2.681,0,4.778-0.656,6.299-1.968
		c1.402-1.219,2.099-2.619,2.099-4.223c0-0.578-0.078-1.102-0.247-1.603C242.891,78.7,242.672,78.28,242.405,77.92z M236.626,72.471
		c-0.51,0-0.997-0.131-1.459-0.39c-0.456-0.263-0.851-0.598-1.169-1.013c-0.319-0.415-0.599-0.885-0.84-1.407
		c-0.237-0.516-0.417-1.038-0.53-1.555c-0.118-0.521-0.172-1.019-0.172-1.484c0-0.962,0.251-1.787,0.762-2.474
		c0.512-0.693,1.231-1.034,2.164-1.034c0.661,0,1.256,0.205,1.792,0.611c0.537,0.411,0.954,0.928,1.257,1.561
		c0.305,0.632,0.539,1.281,0.707,1.958c0.162,0.673,0.245,1.311,0.245,1.914c0,1-0.218,1.803-0.65,2.405
		C238.298,72.168,237.592,72.471,236.626,72.471z M240.771,83.727c-0.277,0.479-0.647,0.845-1.121,1.112
		c-0.466,0.268-0.973,0.462-1.503,0.586c-0.536,0.124-1.103,0.179-1.689,0.179c-0.637,0-1.277-0.075-1.903-0.222
		c-0.63-0.149-1.232-0.375-1.812-0.685c-0.574-0.298-1.037-0.727-1.393-1.263c-0.355-0.535-0.534-1.132-0.534-1.815
		c0-0.602,0.135-1.138,0.409-1.606c0.27-0.466,0.612-0.849,1.036-1.121c0.417-0.285,0.906-0.51,1.467-0.699
		c0.559-0.175,1.099-0.3,1.621-0.371c0.521-0.071,1.048-0.102,1.593-0.102c0.33,0,0.576,0.007,0.747,0.028
		c0.061,0.032,0.21,0.144,0.46,0.317c0.243,0.167,0.407,0.287,0.491,0.341c0.085,0.053,0.241,0.173,0.463,0.341
		c0.229,0.17,0.389,0.296,0.483,0.386c0.097,0.081,0.232,0.207,0.414,0.387c0.177,0.162,0.31,0.307,0.395,0.441
		c0.085,0.122,0.191,0.274,0.316,0.448c0.124,0.186,0.209,0.358,0.264,0.524c0.05,0.161,0.099,0.345,0.14,0.54
		c0.046,0.194,0.067,0.395,0.067,0.607C241.186,82.716,241.049,83.261,240.771,83.727z"/>
	<polygon fill="#FFFFFF" points="249.166,65.868 249.166,62.029 247.243,62.029 247.243,65.868 243.404,65.868 243.404,67.791 
		247.243,67.791 247.243,71.631 249.166,71.631 249.166,67.791 253.005,67.791 253.005,65.868 	"/>
</g>
<g>
	<path fill="#818181" d="M345.988,18.791c-0.516,0-0.935-0.419-0.935-0.934V15.99c0-0.515,0.419-0.934,0.935-0.934h1.866
		c0.516,0,0.935,0.419,0.935,0.934v1.867c0,0.514-0.419,0.934-0.935,0.934H345.988z"/>
	<path fill="#818181" d="M339.452,20.833c-0.678,0-1.304,0.199-1.843,0.525c0.169-0.052,0.344-0.087,0.527-0.087
		c0.997,0,1.805,0.808,1.805,1.806c0,0.995-0.808,1.805-1.805,1.805s-1.805-0.809-1.805-1.805c0-0.186,0.036-0.36,0.087-0.528
		c-0.328,0.539-0.526,1.165-0.526,1.843c0,1.967,1.592,3.561,3.561,3.561c1.965,0,3.56-1.592,3.56-3.561
		S341.418,20.833,339.452,20.833z"/>
	<g>
		<path fill="#818181" d="M339.452,18.791c3.094,0,5.602,2.508,5.602,5.602c0,3.095-2.51,5.602-5.602,5.602
			c-3.094,0-5.602-2.507-5.602-5.602C333.851,21.298,336.358,18.791,339.452,18.791 M339.452,16.923c-4.118,0-7.47,3.351-7.47,7.469
			c0,4.119,3.352,7.469,7.47,7.469s7.47-3.351,7.47-7.469C346.922,20.274,343.57,16.923,339.452,16.923L339.452,16.923z"/>
	</g>
	<path fill="#818181" d="M347.038,12.255h-15.172c-2.515,0-4.552,2.038-4.552,4.552v15.172c0,2.514,2.037,4.552,4.552,4.552h15.172
		c2.515,0,4.552-2.038,4.552-4.552V16.807C351.59,14.292,349.553,12.255,347.038,12.255z M349.722,20.658h-6.103
		c0.89,0.993,1.435,2.298,1.435,3.735c0,3.095-2.51,5.602-5.602,5.602c-3.094,0-5.602-2.507-5.602-5.602
		c0-1.437,0.545-2.743,1.435-3.735h-6.104v-3.851c0-1.48,1.204-2.684,2.685-2.684h15.172c1.48,0,2.684,1.204,2.684,2.684V20.658z"/>
</g>
<g>
	<path fill="#FFFFFF" d="M345.988,68.905c-0.516,0-0.935-0.419-0.935-0.934v-1.867c0-0.515,0.419-0.934,0.935-0.934h1.866
		c0.516,0,0.935,0.419,0.935,0.934v1.867c0,0.514-0.419,0.934-0.935,0.934H345.988z"/>
	<path fill="#FFFFFF" d="M339.452,70.948c-0.678,0-1.304,0.199-1.843,0.525c0.169-0.052,0.344-0.087,0.527-0.087
		c0.997,0,1.805,0.808,1.805,1.806c0,0.995-0.808,1.805-1.805,1.805s-1.805-0.809-1.805-1.805c0-0.186,0.036-0.36,0.087-0.528
		c-0.328,0.539-0.526,1.165-0.526,1.843c0,1.967,1.592,3.561,3.561,3.561c1.965,0,3.56-1.592,3.56-3.561
		S341.418,70.948,339.452,70.948z"/>
	<g>
		<path fill="#FFFFFF" d="M339.452,68.905c3.094,0,5.602,2.508,5.602,5.602c0,3.095-2.51,5.602-5.602,5.602
			c-3.094,0-5.602-2.507-5.602-5.602C333.851,71.413,336.358,68.905,339.452,68.905 M339.452,67.038c-4.118,0-7.47,3.351-7.47,7.469
			c0,4.119,3.352,7.469,7.47,7.469s7.47-3.351,7.47-7.469C346.922,70.389,343.57,67.038,339.452,67.038L339.452,67.038z"/>
	</g>
	<path fill="#FFFFFF" d="M347.038,62.37h-15.172c-2.515,0-4.552,2.038-4.552,4.552v15.172c0,2.514,2.037,4.552,4.552,4.552h15.172
		c2.515,0,4.552-2.038,4.552-4.552V66.921C351.59,64.407,349.553,62.37,347.038,62.37z M349.722,70.772h-6.103
		c0.89,0.993,1.435,2.298,1.435,3.735c0,3.095-2.51,5.602-5.602,5.602c-3.094,0-5.602-2.507-5.602-5.602
		c0-1.437,0.545-2.743,1.435-3.735h-6.104v-3.851c0-1.48,1.204-2.684,2.685-2.684h15.172c1.48,0,2.684,1.204,2.684,2.684V70.772z"/>
</g>
<g>
	<path id="LinkedIn" fill="#818181" d="M303.232,27.157v9.458h-5.483v-8.824c0-2.217-0.793-3.729-2.777-3.729
		c-1.516,0-2.417,1.02-2.813,2.006c-0.145,0.352-0.182,0.843-0.182,1.336v9.211h-5.485c0,0,0.074-14.946,0-16.494h5.484v2.338
		c-0.011,0.018-0.025,0.037-0.036,0.054h0.036v-0.054c0.729-1.122,2.03-2.725,4.943-2.725
		C300.527,19.733,303.232,22.091,303.232,27.157z M280.754,12.17c-1.876,0-3.104,1.23-3.104,2.849c0,1.583,1.191,2.851,3.031,2.851
		h0.036c1.913,0,3.103-1.268,3.103-2.851C283.784,13.4,282.631,12.17,280.754,12.17z M277.977,36.615h5.482V20.121h-5.482V36.615z"
		/>
</g>
<g>
	<path id="LinkedIn_1_" fill="#FFFFFF" d="M303.232,77.271v9.458h-5.483v-8.824c0-2.217-0.793-3.729-2.777-3.729
		c-1.516,0-2.417,1.02-2.813,2.006c-0.145,0.352-0.182,0.843-0.182,1.336v9.211h-5.485c0,0,0.074-14.946,0-16.494h5.484v2.338
		c-0.011,0.018-0.025,0.037-0.036,0.054h0.036v-0.054c0.729-1.122,2.03-2.725,4.943-2.725
		C300.527,69.848,303.232,72.206,303.232,77.271z M280.754,62.285c-1.876,0-3.104,1.23-3.104,2.849c0,1.583,1.191,2.851,3.031,2.851
		h0.036c1.913,0,3.103-1.268,3.103-2.851C283.784,63.515,282.631,62.285,280.754,62.285z M277.977,86.729h5.482V70.235h-5.482
		V86.729z"/>
</g>
</svg>
