<?xml version="1.0" encoding="utf-8"?>
<!-- Generator: Adobe Illustrator 16.0.0, SVG Export Plug-In . SVG Version: 6.00 Build 0)  -->
<!DOCTYPE svg PUBLIC "-//W3C//DTD SVG 1.1//EN" "http://www.w3.org/Graphics/SVG/1.1/DTD/svg11.dtd">
<svg version="1.1" id="Layer_1" xmlns="http://www.w3.org/2000/svg" xmlns:xlink="http://www.w3.org/1999/xlink" x="0px" y="0px"
	 width="80px" height="80px" viewBox="0 0 80 80" enable-background="new 0 0 80 80" xml:space="preserve">
<g class="dog">
	<path fill="#333333" d="M70.993,42.972c-3.763-2.705-8.701-6.232-10.348-7.055s-3.527-3.998-3.527-3.998s1.074-5.045-0.705-6.349
		c-1.779-1.305-5.188-3.289-5.938-5.821c-0.941-3.175-2.211-3.223-4.905-4.207c-2.735-1-9.793-0.32-9.793-0.32
		c-0.059-1.469-0.607-1.248-4.586-0.999c-2.821,0.176-6.349,2.822-7.76,3.938c-1.411,1.118-6.999,3.527-5.353,4.938
		c0,0,2.413,2.07,1.825,2.881c-0.587,0.811-7.789,8.937-14.598,20.753c-0.568,0.983-1.251,1.885-2.007,2.725
		c3.285,14.245,14.649,25.4,29.015,28.362c0.441-6.118,1.365-13.014,1.523-16.743c0.279-6.518,4.939-12.228,4.939-12.228
		s15.638,5.35,19.048,5.114c3.41-0.234,5.88-1.352,5.88-1.352S72.521,46.381,70.993,42.972z"/>
</g>
<g class="circle">
	<path fill="#333333" d="M40,2.625c20.608,0,37.375,16.766,37.375,37.375c0,20.608-16.767,37.375-37.375,37.375
		C19.391,77.375,2.625,60.608,2.625,40C2.625,19.391,19.391,2.625,40,2.625 M40,0.625C18.254,0.625,0.625,18.254,0.625,40
		c0,21.747,17.629,39.375,39.375,39.375c21.747,0,39.375-17.628,39.375-39.375C79.375,18.254,61.747,0.625,40,0.625L40,0.625z"/>
</g>
</svg>
