<?xml version="1.0" encoding="utf-8"?>
<!-- Generator: Adobe Illustrator 16.0.0, SVG Export Plug-In . SVG Version: 6.00 Build 0)  -->
<!DOCTYPE svg PUBLIC "-//W3C//DTD SVG 1.1//EN" "http://www.w3.org/Graphics/SVG/1.1/DTD/svg11.dtd">
<svg version="1.1" id="Layer_1" xmlns="http://www.w3.org/2000/svg" xmlns:xlink="http://www.w3.org/1999/xlink" x="0px" y="0px"
	 width="255px" height="44px" viewBox="0 0 255 44" enable-background="new 0 0 255 44" xml:space="preserve">
<g class="text">
	<path fill="#333333" d="M2.5,9.979h6.257v22.468h4.525l0.983,0.115v-2.674l5.313-2.479v10.703H2.5V9.979z"/>
	<path fill="#333333" d="M23.435,9.979h6.414v28.134h-6.414V9.979z"/>
	<path fill="#333333" d="M45.826,38.544c-2.154,0-3.982-0.367-5.491-1.101c-1.508-0.735-2.741-1.744-3.697-3.03
		c-0.959-1.284-1.661-2.813-2.106-4.585c-0.447-1.771-0.669-3.703-0.669-5.805c0-2.097,0.222-4.032,0.669-5.803
		c0.445-1.771,1.147-3.292,2.106-4.564c0.956-1.272,2.189-2.263,3.697-2.972c1.509-0.706,3.337-1.062,5.491-1.062
		c2.148,0,3.979,0.355,5.487,1.062c1.51,0.709,2.741,1.699,3.699,2.972c0.958,1.273,1.652,2.794,2.085,4.564
		c0.434,1.771,0.651,3.707,0.651,5.803c0,2.102-0.218,4.033-0.651,5.805c-0.433,1.771-1.127,3.301-2.085,4.585
		c-0.958,1.286-2.189,2.295-3.699,3.03C49.806,38.177,47.975,38.544,45.826,38.544z M45.826,33.035c1.808,0,3.114-0.746,3.913-2.242
		c0.8-1.495,1.201-3.751,1.201-6.77c0-3.017-0.388-5.231-1.16-6.648c-0.775-1.417-2.079-2.125-3.917-2.125
		c-1.863,0-3.194,0.708-3.993,2.125c-0.801,1.417-1.2,3.633-1.2,6.648c0,3.019,0.399,5.273,1.2,6.77
		C42.669,32.289,43.988,33.035,45.826,33.035z"/>
	<path fill="#333333" d="M63.061,14.896h-3.739l2.558-4.917h6.452l9.327,15.423l0.236,0.668V9.979h6.138v28.134h-5.234
		l-9.442-15.545l-0.197-0.589v16.134h-6.098L63.061,14.896L63.061,14.896z"/>
	<path fill="#333333" d="M123.63,9.979h6.452v10.623h8.381V9.979h6.455v28.134h-6.455V26.109c-0.156,0.029-0.301,0.055-0.432,0.078
		l-0.473,0.08h-6.609l-0.867-0.158v12.002h-6.452V9.979L123.63,9.979z"/>
	<path fill="#333333" d="M160.973,38.544c-2.152,0-3.981-0.367-5.49-1.101c-1.51-0.735-2.741-1.744-3.698-3.03
		c-0.957-1.284-1.66-2.813-2.104-4.585c-0.445-1.771-0.668-3.703-0.668-5.805c0-2.097,0.223-4.032,0.668-5.803
		c0.444-1.771,1.147-3.292,2.104-4.564c0.957-1.272,2.188-2.263,3.698-2.972c1.509-0.706,3.338-1.062,5.49-1.062
		c2.148,0,3.98,0.355,5.488,1.062c1.508,0.709,2.74,1.699,3.699,2.972c0.957,1.272,1.652,2.794,2.086,4.564
		c0.432,1.771,0.648,3.707,0.648,5.803c0,2.102-0.217,4.033-0.648,5.805c-0.434,1.771-1.129,3.301-2.086,4.585
		c-0.959,1.286-2.191,2.295-3.699,3.03C164.953,38.177,163.121,38.544,160.973,38.544z M160.973,33.035
		c1.81,0,3.113-0.746,3.914-2.242c0.801-1.495,1.201-3.751,1.201-6.77c0-3.017-0.389-5.231-1.162-6.648s-2.078-2.125-3.914-2.125
		c-1.863,0-3.193,0.708-3.994,2.125s-1.199,3.633-1.199,6.648c0,3.019,0.398,5.273,1.199,6.77S159.135,33.035,160.973,33.035z"/>
	<path fill="#333333" d="M176.711,9.979h6.453v15.029c0,1.471,0.064,2.71,0.197,3.721c0.131,1.008,0.354,1.823,0.67,2.438
		c0.314,0.618,0.746,1.057,1.297,1.32c0.553,0.263,1.246,0.392,2.088,0.392c0.863,0,1.572-0.129,2.123-0.392
		c0.551-0.264,0.984-0.696,1.299-1.301c0.314-0.604,0.537-1.41,0.668-2.42c0.133-1.01,0.197-2.262,0.197-3.759V9.979h6.453v16.21
		c0,1.941-0.164,3.674-0.49,5.194c-0.33,1.521-0.9,2.812-1.713,3.876c-0.812,1.062-1.908,1.875-3.285,2.439
		c-1.377,0.562-3.129,0.845-5.252,0.845c-2.102,0-3.84-0.282-5.217-0.845c-1.375-0.564-2.473-1.379-3.285-2.439
		c-0.812-1.062-1.383-2.355-1.711-3.876s-0.492-3.253-0.492-5.194V9.979z"/>
	<path fill="#333333" d="M204.332,14.896h-3.734l2.557-4.917h6.453l9.326,15.423l0.236,0.668V9.979h6.137v28.134h-5.231
		l-9.443-15.545l-0.196-0.589v16.134h-6.103L204.332,14.896L204.332,14.896z"/>
	<path fill="#333333" d="M229.715,10.214c1.234-0.157,2.467-0.283,3.699-0.376c1.232-0.09,2.559-0.136,3.975-0.136
		c4.935,0,8.682,1.201,11.254,3.6c2.572,2.401,3.857,6.079,3.857,11.037c0,4.935-1.312,8.534-3.936,10.804
		s-6.506,3.401-11.648,3.401c-1.258,0-2.465-0.038-3.619-0.114c-1.156-0.082-2.348-0.199-3.582-0.355V10.214z M236.168,32.8
		c1.287,0.132,2.506,0.132,3.66,0c1.154-0.131,2.17-0.498,3.051-1.101c0.877-0.605,1.572-1.504,2.084-2.695
		c0.514-1.195,0.768-2.79,0.768-4.783c0-1.757-0.201-3.2-0.608-4.326c-0.408-1.128-0.957-2.028-1.651-2.697
		c-0.695-0.668-1.496-1.134-2.4-1.396c-0.906-0.263-1.857-0.396-2.854-0.396c-0.288,0-0.608,0-0.963,0s-0.717,0.026-1.084,0.078
		L236.168,32.8L236.168,32.8z"/>
</g>
<g class="lion">
	<path fill="#333333" d="M118.28,10.02c0,0-6.08,0.22-7.252,0.768c-1.172,0.55-2.089,6.483-2.089,6.483s0.88-2.088,2.563-4.065
		C113.188,11.228,118.28,10.02,118.28,10.02z"/>
	<path fill="#333333" d="M89.382,10.02c0,0,6.08,0.22,7.251,0.768c1.175,0.55,2.088,6.483,2.088,6.483s-0.877-2.088-2.562-4.065
		C94.477,11.228,89.382,10.02,89.382,10.02z"/>
	<path fill="#333333" d="M103.831,29.096c0,0-0.904,2.598-1.438,3.381c-0.531,0.78-10.978,5.561-10.978,5.561
		s10.099-3.076,12.415-3.076s12.416,3.076,12.416,3.076s-10.486-4.825-10.979-5.561C104.755,31.709,103.831,29.096,103.831,29.096z"
		/>
	<polygon fill="#333333" points="103.072,42.636 104.591,42.636 103.831,38.036 	"/>
	<polygon fill="#333333" points="104.871,1.364 102.79,1.364 103.831,11.008 	"/>
	<path fill="#333333" d="M109.167,20.697c0.051-0.058,0.087-0.094,0.087-0.094S109.221,20.639,109.167,20.697z"/>
	<path fill="#333333" d="M103.831,26.938c0.216,0,0.409-0.099,0.562-0.252c1.276-2.115,4.245-5.408,4.774-5.989
		c-0.428,0.464-2.47,2.616-3.555,2.616c-1.215,0-2.433,0-3.562,0c-1.132,0-3.641-2.709-3.641-2.709s3.427,3.737,4.842,6.066
		C103.407,26.832,103.606,26.938,103.831,26.938z"/>
</g>
</svg>
