<?xml version="1.0" standalone="no"?>
<!DOCTYPE svg PUBLIC "-//W3C//DTD SVG 20010904//EN"
 "http://www.w3.org/TR/2001/REC-SVG-20010904/DTD/svg10.dtd">
<svg version="1.0" xmlns="http://www.w3.org/2000/svg"
 width="260.000000pt" height="260.000000pt" viewBox="0 0 260.000000 260.000000"
 preserveAspectRatio="xMidYMid meet">
<metadata>
Created by potrace 1.11, written by Peter Selinger 2001-2013
</metadata>
<g transform="translate(0.000000,260.000000) scale(0.100000,-0.100000)"
fill="#000000" stroke="none">
<path d="M0 1300 l0 -1300 1300 0 1300 0 0 1300 0 1300 -1300 0 -1300 0 0
-1300z m690 175 l0 -674 165 -3 164 -3 157 73 c86 39 159 72 160 72 2 0 4
-108 4 -240 l0 -240 -515 0 -515 0 0 845 0 845 190 0 190 0 0 -675z m710 355
l0 -320 255 0 255 0 0 320 0 320 195 0 195 0 0 -845 0 -845 -195 0 -195 0 0
360 0 360 -254 0 -253 0 -187 -85 c-103 -47 -191 -85 -197 -85 -5 0 -9 220 -9
570 l0 570 195 0 195 0 0 -320z"/>
</g>
</svg>
