<?xml version="1.0" encoding="utf-8"?>
<!-- Generator: Adobe Illustrator 22.1.0, SVG Export Plug-In . SVG Version: 6.00 Build 0)  -->
<svg version="1.1" id="Layer_1" xmlns="http://www.w3.org/2000/svg" xmlns:xlink="http://www.w3.org/1999/xlink" x="0px" y="0px"
	 viewBox="0 0 305 54" style="enable-background:new 0 0 305 54;" xml:space="preserve">
<style type="text/css">
	.st0{fill:#404041;}
</style>
<g>
	<path class="st0" d="M294,43.6c-2.6-0.2-3.4-2.5-3.4-4.6c0-2.1,0.8-4.4,3.5-4.4c2.8,0,3.5,2.2,3.5,4.5c0,1.1,0.3,2.8,1.7,2.8h1.2
		v-7.3h1.7v9.1c-1,0-1.9,0-2.9,0c-2.6,0-3.4-2.4-3.4-4.6c0-1-0.3-2.7-1.8-2.7c-1.4,0-1.9,1.2-1.9,2.6c0,1.3,0.5,2.8,1.8,2.8V43.6z"
		/>
	<path class="st0" d="M290.8,24.9h7.4v-1.4h1.7v1.4h2.3v1.8h-2.3V33l-1.6,0.2l-7.5-6.3V24.9z M298.2,26.7h-5.3l5.3,4.5V26.7z"/>
	<path class="st0" d="M302.2,21.3l-9.7-5v6h-1.7v-8.4l1-0.1l10.4,5.4V21.3z"/>
	<path class="st0" d="M302.2,12.2l-9.7-5v6h-1.7V4.8l1-0.1l10.4,5.4V12.2z"/>
	<path class="st0" d="M290.8,2.9V1.1l3.4,1.2v1.4L290.8,2.9z"/>
	<path class="st0" d="M2.8,8.2h24.7v4H7.1v11h19.5v4.1H7.1v11.9h21.1v4.2H2.8V8.2z"/>
	<path class="st0" d="M39.8,39.2h19.1v4.1H35.4V8.2h4.4V39.2z"/>
	<path class="st0" d="M64.5,8.2h24.7v4H68.8v11h19.5v4.1H68.8v11.9h21.1v4.2H64.5V8.2z"/>
	<path class="st0" d="M98.3,8.2l12,30l12.1-30h4.8l-14.5,35.2h-4.7L93.4,8.2H98.3z"/>
	<polygon class="st0" points="138.4,0.3 115.7,53.7 120.4,53.7 143.2,0.3 	"/>
	<path class="st0" d="M153,8.2l15.7,35.1H164l-3.5-7.7h-20l-3.4,7.7h-4.8l15.7-35.1H153z M150.6,12.6l-8.3,18.9h16.6L150.6,12.6z"/>
	<path class="st0" d="M167.2,12.1V8.2h28.3v3.9h-12v31.2h-4.3V12.1H167.2z"/>
	<path class="st0" d="M201,8.2h4.4v35.1H201V8.2z"/>
	<path class="st0" d="M239.8,11.9c-2.4-2.4-5.7-3.7-9.5-3.7c-7.9,0-13.5,5.7-13.5,13.7c0,6.6,4.2,13.7,13.5,13.7
		c9.2,0,13.4-6.9,13.4-13.7C243.7,18,242.3,14.3,239.8,11.9z M230.3,31.6c-6.5,0-9.4-4.9-9.4-9.7c0-4.9,2.9-9.9,9.4-9.9
		c6.4,0.1,9.3,5,9.3,9.9C239.6,26.7,236.7,31.6,230.3,31.6z"/>
	<path class="st0" d="M258.2,8.2L279.7,35V8.2h4.3v35.1h-3l-21.5-26.8v26.8h-4.3V8.2H258.2z"/>
	<rect x="216.9" y="38.9" class="st0" width="27.5" height="4.3"/>
</g>
</svg>
