<?xml version="1.0" encoding="iso-8859-1"?>
<!-- Generator: Adobe Illustrator 22.1.0, SVG Export Plug-In . SVG Version: 6.00 Build 0)  -->
<svg version="1.1" id="Layer_1" xmlns="http://www.w3.org/2000/svg" xmlns:xlink="http://www.w3.org/1999/xlink" x="0px" y="0px"
	 viewBox="0 0 300 76" style="enable-background:new 0 0 300 76;" xml:space="preserve">
<g>
	<g>
		<g>
			<defs>
				<path id="SVGID_1_" d="M62.215,37.835c0,7.537-3.42,14.276-8.793,18.748c-4.227,3.517-9.66,5.632-15.587,5.632
					c-13.464,0-24.38-10.915-24.38-24.38c0-13.465,10.916-24.381,24.38-24.381C51.299,13.454,62.215,24.37,62.215,37.835z"/>
			</defs>
			<clipPath id="SVGID_2_">
				<use xlink:href="#SVGID_1_"  style="overflow:visible;"/>
			</clipPath>
			<path style="clip-path:url(#SVGID_2_);fill:#0D7DBB;" d="M12.619,42.253l-0.98-1.89l8.12-4.211
				c0.254-0.131,0.551-0.156,0.823-0.066l10.734,3.53l11.002-14.694c0.327-0.437,0.931-0.556,1.399-0.275l10.971,6.561l7.008-3.329
				l0.913,1.923l-7.523,3.574c-0.32,0.153-0.698,0.135-1.003-0.048l-10.636-6.361L32.562,41.504
				c-0.274,0.366-0.752,0.515-1.185,0.373l-11.035-3.629L12.619,42.253z"/>
		</g>
		<g>
			<defs>
				<path id="SVGID_3_" d="M62.215,37.835c0,7.537-3.42,14.276-8.793,18.748c-4.227,3.517-9.66,5.632-15.587,5.632
					c-13.464,0-24.38-10.915-24.38-24.38c0-13.465,10.916-24.381,24.38-24.381C51.299,13.454,62.215,24.37,62.215,37.835z"/>
			</defs>
			<clipPath id="SVGID_4_">
				<use xlink:href="#SVGID_3_"  style="overflow:visible;"/>
			</clipPath>
			<g style="clip-path:url(#SVGID_4_);">
				<polygon style="fill:#6AAFD5;" points="23.936,59.996 17.239,51.981 17.239,42.457 23.936,42.457 				"/>
				<polygon style="fill:#6AAFD5;" points="35.332,63.809 28.635,60.675 28.635,45.279 35.332,45.279 				"/>
				<polygon style="fill:#6AAFD5;" points="46.728,62.21 40.03,63.54 40.03,35.622 46.728,35.622 				"/>
				<polygon style="fill:#6AAFD5;" points="58.123,52.591 51.426,60.175 51.426,37.899 58.123,37.899 				"/>
			</g>
		</g>
		<path style="fill:#043B59;" d="M37.835,12.129c14.196,0,25.706,11.509,25.706,25.706c0,7.947-3.606,15.052-9.271,19.767
			c-4.457,3.708-10.185,5.938-16.434,5.938c-14.196,0-25.706-11.508-25.706-25.705C12.129,23.638,23.638,12.129,37.835,12.129
			 M37.835,10C22.487,10,10,22.487,10,37.835c0,15.348,12.487,27.834,27.835,27.834c6.493,0,12.813-2.284,17.796-6.43
			c6.38-5.31,10.039-13.111,10.039-21.404C65.67,22.487,53.183,10,37.835,10L37.835,10z"/>
	</g>
	<g>
		<g>
			<path style="fill:#043B59;" d="M82.273,32.525v0.555h-2.159v-0.671c0-1.838-0.7-2.917-2.334-2.917
				c-1.634,0-2.334,1.079-2.334,2.888c0,4.581,6.856,5.018,6.856,10.766c0,3.092-1.488,5.105-4.609,5.105
				c-3.122,0-4.581-2.013-4.581-5.105v-1.167h2.13v1.284c0,1.838,0.759,2.917,2.392,2.917c1.634,0,2.393-1.079,2.393-2.917
				c0-4.551-6.827-4.989-6.827-10.736c0-3.151,1.459-5.106,4.522-5.106C80.814,27.419,82.273,29.432,82.273,32.525z"/>
			<path style="fill:#043B59;" d="M88.719,48.046V29.695h-3.764v-2.071h9.803v2.071h-3.763v18.351H88.719z"/>
			<path style="fill:#043B59;" d="M97.615,32.554c0-3.122,1.546-5.135,4.668-5.135c3.151,0,4.697,2.013,4.697,5.135v10.561
				c0,3.093-1.546,5.135-4.697,5.135c-3.122,0-4.668-2.042-4.668-5.135V32.554z M99.862,43.232c0,1.867,0.788,2.947,2.421,2.947
				c1.663,0,2.422-1.079,2.422-2.947V32.438c0-1.838-0.759-2.947-2.422-2.947c-1.634,0-2.421,1.109-2.421,2.947V43.232z"/>
			<path style="fill:#043B59;" d="M119.611,32.554v1.838h-2.159v-1.954c0-1.838-0.729-2.947-2.393-2.947
				c-1.634,0-2.392,1.109-2.392,2.947v10.794c0,1.838,0.759,2.947,2.392,2.947c1.663,0,2.393-1.109,2.393-2.947v-2.655h2.159v2.538
				c0,3.093-1.459,5.135-4.609,5.135c-3.122,0-4.581-2.042-4.581-5.135V32.554c0-3.092,1.459-5.135,4.581-5.135
				C118.153,27.419,119.611,29.462,119.611,32.554z"/>
			<path style="fill:#043B59;" d="M126.612,39.177l-1.196,2.013v6.856h-2.275V27.624h2.275v9.861l5.426-9.861h2.305l-5.164,9.307
				l5.339,11.115h-2.334L126.612,39.177z"/>
			<path style="fill:#043B59;" d="M145.486,48.046V29.695h-3.764v-2.071h9.803v2.071h-3.763v18.351H145.486z"/>
			<path style="fill:#043B59;" d="M159.108,27.624c3.209,0,4.551,1.634,4.551,4.668v1.663c0,2.247-0.788,3.647-2.538,4.201
				c1.867,0.555,2.567,2.072,2.567,4.26v3.18c0,0.904,0.029,1.75,0.409,2.451h-2.305c-0.263-0.584-0.379-1.109-0.379-2.48v-3.209
				c0-2.304-1.079-3.034-2.976-3.034h-1.604v8.723h-2.276V27.624H159.108z M158.525,37.251c1.809,0,2.888-0.584,2.888-2.801v-1.955
				c0-1.838-0.671-2.801-2.363-2.801h-2.217v7.556H158.525z"/>
			<path style="fill:#043B59;" d="M169.814,43.932l-0.788,4.113h-2.1l3.909-20.422h3.297l3.909,20.422h-2.275l-0.788-4.113H169.814z
				 M170.105,41.978h4.551l-2.305-11.787L170.105,41.978z"/>
			<path style="fill:#043B59;" d="M186.062,27.624c3.18,0,4.639,1.925,4.639,5.076v10.299c0,3.122-1.459,5.047-4.639,5.047h-4.784
				V27.624H186.062z M186.033,45.974c1.634,0,2.422-1.021,2.422-2.888V32.583c0-1.867-0.788-2.888-2.451-2.888h-2.451v16.279
				H186.033z"/>
			<path style="fill:#043B59;" d="M201.553,36.668v2.042h-4.989v7.264h6.127v2.071h-8.402V27.624h8.402v2.071h-6.127v6.973H201.553z
				"/>
			<path style="fill:#043B59;" d="M210.799,27.624c3.21,0,4.551,1.634,4.551,4.668v1.663c0,2.247-0.788,3.647-2.538,4.201
				c1.867,0.555,2.567,2.072,2.567,4.26v3.18c0,0.904,0.029,1.75,0.408,2.451h-2.305c-0.263-0.584-0.379-1.109-0.379-2.48v-3.209
				c0-2.304-1.08-3.034-2.976-3.034h-1.605v8.723h-2.275V27.624H210.799z M210.215,37.251c1.809,0,2.889-0.584,2.889-2.801v-1.955
				c0-1.838-0.671-2.801-2.363-2.801h-2.217v7.556H210.215z"/>
			<path style="fill:#043B59;" d="M228.04,32.525v0.555h-2.159v-0.671c0-1.838-0.7-2.917-2.334-2.917
				c-1.634,0-2.334,1.079-2.334,2.888c0,4.581,6.856,5.018,6.856,10.766c0,3.092-1.488,5.105-4.61,5.105
				c-3.122,0-4.58-2.013-4.58-5.105v-1.167h2.13v1.284c0,1.838,0.758,2.917,2.392,2.917c1.634,0,2.393-1.079,2.393-2.917
				c0-4.551-6.827-4.989-6.827-10.736c0-3.151,1.459-5.106,4.522-5.106C226.581,27.419,228.04,29.432,228.04,32.525z"/>
			<path style="fill:#043B59;" d="M242.274,27.624c3.18,0,4.639,1.925,4.639,5.076v10.299c0,3.122-1.459,5.047-4.639,5.047h-4.784
				V27.624H242.274z M242.245,45.974c1.634,0,2.422-1.021,2.422-2.888V32.583c0-1.867-0.788-2.888-2.451-2.888h-2.451v16.279
				H242.245z"/>
			<path style="fill:#043B59;" d="M252.776,43.932l-0.787,4.113h-2.101l3.909-20.422h3.297l3.91,20.422h-2.276l-0.787-4.113H252.776
				z M253.068,41.978h4.551l-2.305-11.787L253.068,41.978z"/>
			<path style="fill:#043B59;" d="M266.516,27.624v20.422h-2.275V27.624H266.516z"/>
			<path style="fill:#043B59;" d="M270.308,48.046V27.624h2.275v18.351h5.835v2.071H270.308z"/>
			<path style="fill:#043B59;" d="M283.406,40.723l-4.318-13.099h2.363l3.18,10.036l3.21-10.036H290l-4.347,13.099v7.323h-2.247
				V40.723z"/>
		</g>
	</g>
</g>
</svg>
