<?xml version="1.0" encoding="utf-8"?>
<!-- Generator: Adobe Illustrator 22.1.0, SVG Export Plug-In . SVG Version: 6.00 Build 0)  -->
<svg version="1.1" id="Layer_1" xmlns="http://www.w3.org/2000/svg" xmlns:xlink="http://www.w3.org/1999/xlink" x="0px" y="0px"
	 viewBox="0 0 269.9 150.7" style="enable-background:new 0 0 269.9 150.7;" xml:space="preserve">
<style type="text/css">
	.st0{fill:#383838;}
</style>
<g>
	<polygon class="st0" points="40.1,131.7 36.3,131.7 36.3,124.8 34.6,124.8 34.6,140.2 36.3,140.2 36.3,133.2 40.1,133.2 
		40.1,140.2 41.8,140.2 41.8,124.8 40.1,124.8 	"/>
	<path class="st0" d="M50.2,124.6c-2.3,0-3.5,1.5-3.5,3.9v7.9c0,2.3,1.2,3.9,3.5,3.9c2.4,0,3.5-1.5,3.5-3.9v-7.9
		C53.7,126.2,52.5,124.6,50.2,124.6z M52,136.5c0,1.4-0.6,2.2-1.8,2.2c-1.2,0-1.8-0.8-1.8-2.2v-8.1c0-1.4,0.6-2.2,1.8-2.2
		c1.2,0,1.8,0.8,1.8,2.2V136.5z"/>
	<path class="st0" d="M65.4,135.9c0-1.6-0.5-2.8-1.9-3.2c1.3-0.4,1.9-1.5,1.9-3.2v-1.2c0-2.3-1-3.5-3.4-3.5h-3.4v15.3h1.7v-6.6h1.2
		c1.4,0,2.2,0.5,2.2,2.3v2.4c0,1,0.1,1.4,0.3,1.9h1.7c-0.3-0.5-0.3-1.2-0.3-1.8V135.9z M61.5,132h-1.3v-5.7h1.7
		c1.3,0,1.8,0.7,1.8,2.1v1.5C63.7,131.6,62.9,132,61.5,132z"/>
	<polygon class="st0" points="69.8,126.4 72.6,126.4 72.6,140.2 74.3,140.2 74.3,126.4 77.1,126.4 77.1,124.8 69.8,124.8 	"/>
	<rect x="81.7" y="124.8" class="st0" width="1.7" height="15.3"/>
	<path class="st0" d="M91.7,124.6c-2.3,0-3.4,1.5-3.4,3.9v7.9c0,2.3,1.1,3.9,3.4,3.9c2.4,0,3.5-1.5,3.5-3.9v-1.9h-1.6v2
		c0,1.4-0.5,2.2-1.8,2.2c-1.2,0-1.8-0.8-1.8-2.2v-8.1c0-1.4,0.6-2.2,1.8-2.2c1.2,0,1.8,0.8,1.8,2.2v1.5h1.6v-1.4
		C95.1,126.2,94,124.6,91.7,124.6z"/>
	<path class="st0" d="M105.1,136.5c0,1.4-0.5,2.2-1.8,2.2c-1.2,0-1.8-0.8-1.8-2.2v-11.7h-1.7v11.6c0,2.3,1.1,3.9,3.4,3.9
		c2.4,0,3.4-1.6,3.4-3.9v-11.6h-1.6V136.5z"/>
	<polygon class="st0" points="113.3,124.8 111.6,124.8 111.6,140.2 117.7,140.2 117.7,138.6 113.3,138.6 	"/>
	<polygon class="st0" points="120.5,126.4 123.4,126.4 123.4,140.2 125.1,140.2 125.1,126.4 127.9,126.4 127.9,124.8 120.5,124.8 	
		"/>
	<path class="st0" d="M137.7,136.5c0,1.4-0.5,2.2-1.8,2.2c-1.2,0-1.8-0.8-1.8-2.2v-11.7h-1.7v11.6c0,2.3,1.1,3.9,3.4,3.9
		c2.4,0,3.4-1.6,3.4-3.9v-11.6h-1.6V136.5z"/>
	<path class="st0" d="M151,135.9c0-1.6-0.5-2.8-1.9-3.2c1.3-0.4,1.9-1.5,1.9-3.2v-1.2c0-2.3-1-3.5-3.4-3.5h-3.4v15.3h1.7v-6.6h1.2
		c1.4,0,2.2,0.5,2.2,2.3v2.4c0,1,0.1,1.4,0.3,1.9h1.7c-0.3-0.5-0.3-1.2-0.3-1.8V135.9z M147.1,132h-1.3v-5.7h1.7
		c1.3,0,1.8,0.7,1.8,2.1v1.5C149.3,131.6,148.5,132,147.1,132z"/>
	<path class="st0" d="M158.7,124.8l-2.9,15.3h1.6l0.6-3.1h3.9l0.6,3.1h1.7l-2.9-15.3H158.7z M158.2,135.6l1.7-8.9l1.7,8.9H158.2z"/>
	<polygon class="st0" points="170.5,124.8 168.8,124.8 168.8,140.2 174.9,140.2 174.9,138.6 170.5,138.6 	"/>
	<polygon class="st0" points="185.6,126.4 188.4,126.4 188.4,140.2 190.1,140.2 190.1,126.4 192.9,126.4 192.9,124.8 185.6,124.8 	
		"/>
	<path class="st0" d="M204.4,135.9c0-1.6-0.5-2.8-1.9-3.2c1.3-0.4,1.9-1.5,1.9-3.2v-1.2c0-2.3-1-3.5-3.4-3.5h-3.4v15.3h1.7v-6.6h1.2
		c1.4,0,2.2,0.5,2.2,2.3v2.4c0,1,0.1,1.4,0.3,1.9h1.7c-0.3-0.5-0.3-1.2-0.3-1.8V135.9z M200.5,132h-1.3v-5.7h1.7
		c1.3,0,1.8,0.7,1.8,2.1v1.5C202.6,131.6,201.8,132,200.5,132z"/>
	<path class="st0" d="M214.4,136.5c0,1.4-0.5,2.2-1.8,2.2c-1.2,0-1.8-0.8-1.8-2.2v-11.7h-1.7v11.6c0,2.3,1.1,3.9,3.4,3.9
		c2.4,0,3.4-1.6,3.4-3.9v-11.6h-1.6V136.5z"/>
	<path class="st0" d="M222.5,128.4c0-1.4,0.5-2.2,1.8-2.2c1.2,0,1.8,0.8,1.8,2.2v0.5h1.6v-0.4c0-2.3-1.1-3.8-3.4-3.8
		c-2.3,0-3.4,1.5-3.4,3.8c0,4.3,5.1,4.6,5.1,8.1c0,1.4-0.6,2.2-1.8,2.2c-1.2,0-1.8-0.8-1.8-2.2v-1h-1.6v0.9c0,2.3,1.1,3.8,3.4,3.8
		c2.3,0,3.5-1.5,3.5-3.8C227.6,132.1,222.5,131.8,222.5,128.4z"/>
	<polygon class="st0" points="231.9,126.4 234.7,126.4 234.7,140.2 236.4,140.2 236.4,126.4 239.2,126.4 239.2,124.8 231.9,124.8 	
		"/>
	<path class="st0" d="M17,88.9c0-2.4,1-3.3,2.6-3.3s2.6,0.9,2.6,3.3v1.4h5v-1.1c0-5.4-2.6-8.5-7.8-8.5s-7.8,3.1-7.8,8.5
		c0,9.6,10.3,10.9,10.3,17.8c0,2.4-1.1,3.3-2.7,3.3s-2.7-0.9-2.7-3.3v-2.4h-5v2.1c0,5.4,2.7,8.5,7.9,8.5s7.9-3.1,7.9-8.5
		C27.4,97.1,17,95.8,17,88.9z"/>
	<polygon class="st0" points="47.8,81.1 31.4,81.1 31.4,85.9 37,85.9 37,114.8 42.2,114.8 42.2,85.9 47.8,85.9 	"/>
	<path class="st0" d="M54.7,81.1l-5.4,33.7h4.9l0.9-6.1h6.5l0.9,6.1h5.3l-5.4-33.7H54.7z M55.8,104.1l2.5-17l2.5,17H55.8z"/>
	<polygon class="st0" points="89.2,81.1 84.5,81.1 84.5,101.3 79.1,81.1 72.5,81.1 72.5,114.8 77.2,114.8 77.2,90.4 83.8,114.8 
		89.2,114.8 	"/>
	<polygon class="st0" points="100,81.1 94.7,81.1 94.7,114.8 108.7,114.8 108.7,110 100,110 	"/>
	<polygon class="st0" points="127.7,85.9 127.7,81.1 113.3,81.1 113.3,114.8 127.7,114.8 127.7,110 118.6,110 118.6,100.1 
		125.8,100.1 125.8,95.3 118.6,95.3 118.6,85.9 	"/>
	<polygon class="st0" points="145.5,81.1 141.5,96.5 137.5,81.1 131.9,81.1 138.6,103.6 138.6,114.8 143.9,114.8 143.9,103.6 
		150.6,81.1 	"/>
	<path class="st0" d="M169.6,88.9c0-2.4,1-3.3,2.6-3.3s2.6,0.9,2.6,3.3v1.4h5v-1.1c0-5.4-2.6-8.5-7.8-8.5s-7.8,3.1-7.8,8.5
		c0,9.6,10.3,10.9,10.3,17.8c0,2.4-1.1,3.3-2.7,3.3s-2.7-0.9-2.7-3.3v-2.4h-5v2.1c0,5.4,2.7,8.5,7.9,8.5s7.9-3.1,7.9-8.5
		C179.9,97.1,169.6,95.8,169.6,88.9z"/>
	<polygon class="st0" points="196.1,105 192.2,81.1 184.8,81.1 184.8,114.8 189.4,114.8 189.4,91 193.4,114.8 198.4,114.8 202,90.6 
		202,114.8 207,114.8 207,81.1 199.7,81.1 	"/>
	<rect x="212.5" y="81.1" class="st0" width="5.3" height="33.7"/>
	<polygon class="st0" points="233.2,114.8 233.2,85.9 238.7,85.9 238.7,81.1 222.4,81.1 222.4,85.9 227.9,85.9 227.9,114.8 	"/>
	<polygon class="st0" points="254.6,81.1 254.6,95.5 248.6,95.5 248.6,81.1 243.3,81.1 243.3,114.8 248.6,114.8 248.6,100.4 
		254.6,100.4 254.6,114.8 260,114.8 260,81.1 	"/>
	<rect x="133.7" y="37.9" class="st0" width="3" height="9.5"/>
	<path class="st0" d="M58.5,60.1c0.7-0.4,1.4-0.8,2.2-1.3v0c7.6-4.4,15.3-8.5,22.8-8.5c6.4,0,13,3.1,19.6,6.7
		c0.4-0.2,0.8-0.5,1.2-0.7c0.7-0.4,1.3-0.8,2-1.1c-6.9-3.9-14-7.5-21.3-7.9V41h-3v6.4c-8.5,0.5-16.8,5.3-24.8,9.9
		c-0.2,0.1-0.4,0.2-0.6,0.3c-0.7,0.4-1.4,0.8-2.1,1.2c-7.6,4.4-15.3,8.5-22.7,8.5v3C40.9,70.4,49.8,65.2,58.5,60.1
		C58.5,60.1,58.5,60.1,58.5,60.1z"/>
	<path class="st0" d="M135.2,50.3c6.4,0,13.1,3.1,19.7,6.7c0.4-0.2,0.8-0.5,1.2-0.7c0.6-0.4,1.3-0.7,1.9-1.1
		c-7.4-4.2-15.1-7.9-22.8-7.9c-8.9,0-17.5,4.8-25.9,9.7v0c-0.3,0.2-0.6,0.4-1,0.6c-0.7,0.4-1.4,0.8-2.1,1.2c0,0,0,0,0,0
		c-7.5,4.4-15.3,8.5-22.7,8.5c-6.4,0-13.1-3.1-19.6-6.7c-0.4,0.2-0.8,0.5-1.2,0.7c-0.7,0.4-1.3,0.8-1.9,1.1c7.4,4.2,15,7.9,22.8,7.9
		c9.2,0,18.2-5.2,26.8-10.3c0.7-0.4,1.4-0.8,2-1.2C119.9,54.5,127.7,50.3,135.2,50.3z"/>
	<path class="st0" d="M135.1,67.5c-6.4,0-13-3.1-19.6-6.7c-0.4,0.2-0.8,0.5-1.3,0.7c-0.6,0.4-1.3,0.7-1.9,1.1
		c7.4,4.2,14.9,7.9,22.7,7.9c8.9,0,17.6-4.8,26-9.7c0,0,0.1,0,0.1-0.1c0.3-0.2,0.6-0.4,0.9-0.5c0,0,0,0,0.1,0c0.7-0.4,1.3-0.8,2-1.1
		c7.6-4.4,15.4-8.5,22.8-8.5c6.3,0,12.8,3,19.3,6.6c1.1,0.6,2.2,1.2,3.3,1.9v0c0.7,0.4,1.4,0.8,2.2,1.3c0,0,0,0,0.1,0
		c8.6,5,17.6,10.3,26.7,10.3v-3c-7.4,0-15.1-4.2-22.7-8.5c-0.7-0.4-1.4-0.8-2.1-1.2c-0.2-0.1-0.4-0.2-0.6-0.3
		c-1.4-0.8-2.8-1.6-4.3-2.4c-0.8-0.5-3.2-1.8-3.2-1.8c-5.6-2.9-11.3-5.3-17.1-5.7v-6.8h-3v6.8c-8.3,0.5-16.5,5.1-24.4,9.7l0,0
		c-0.3,0.2-0.6,0.4-0.9,0.5c-0.7,0.4-1.5,0.8-2.2,1.3l0,0C150.4,63.3,142.6,67.5,135.1,67.5z"/>
	<path class="st0" d="M206.5,60.7c-6.5,3.6-13.1,6.7-19.5,6.7c-6.3,0-13-3.1-19.5-6.7c-0.4,0.3-0.9,0.5-1.3,0.8
		c-0.6,0.4-1.2,0.7-1.8,1.1c7.4,4.2,15,7.9,22.7,7.9c7.7,0,15.3-3.7,22.6-7.9c-0.7-0.4-1.3-0.8-2-1.2
		C207.3,61.2,206.9,60.9,206.5,60.7z"/>
	<path class="st0" d="M121,29.6c4.9,4.9,12.4,5.9,14.2,5.9s9.3-1,14.2-5.9c4.9-4.9,5.9-13.7,5.9-14l0.2-1.9l-1.9,0.2
		c-0.3,0-6.9,0.8-11.8,4.1c-1.1-5.9-5.2-11-5.5-11.3l-1.2-1.4L134,6.8c-0.2,0.3-4.3,5.4-5.5,11.3c-4.9-3.3-11.5-4.1-11.8-4.1
		l-1.9-0.2l0.2,1.9C115.1,15.9,116.1,24.7,121,29.6z M147.3,27.5c-3.1,3.1-7.7,4.4-10.3,4.8c0.5-2.6,1.8-7.5,4.7-10.4
		c2.9-2.9,7.6-4.2,10.3-4.7C151.4,19.9,150.1,24.6,147.3,27.5z M135.2,10.3c1.4,2.2,3.7,6.2,3.9,10.1c-1.8,2.1-3.1,4.7-3.9,7
		c-0.8-2.4-2.1-5-3.9-7C131.5,16.5,133.7,12.5,135.2,10.3z M128.6,21.9c2.9,2.9,4.2,7.7,4.7,10.4c-2.6-0.4-7.2-1.7-10.3-4.8
		c-2.9-2.9-4.2-7.6-4.7-10.3C121,17.8,125.8,19.1,128.6,21.9z"/>
	<path class="st0" d="M175.5,33.6c4,4,10.2,4.8,11.6,4.8s7.6-0.8,11.6-4.8c4-4,4.8-11.2,4.8-11.5l0.2-1.8l-1.9,0.2
		c-0.3,0-5.3,0.6-9.3,3.1c-1-4.6-4.2-8.6-4.4-8.8l-1.2-1.4l-1.2,1.4c-0.2,0.2-3.3,4.2-4.4,8.8c-4-2.5-9-3.1-9.3-3.1l-1.8-0.2
		l0.2,1.8C170.7,22.4,171.5,29.6,175.5,33.6z M196.6,31.5c-2.3,2.3-5.6,3.3-7.7,3.7c0.5-2.1,1.5-5.6,3.6-7.8
		c2.1-2.1,5.5-3.1,7.7-3.6C199.7,26,198.7,29.4,196.6,31.5z M187.1,18.4c1.1,1.8,2.7,4.7,2.8,7.5c-1.3,1.5-2.2,3.2-2.8,4.9
		c-0.6-1.7-1.6-3.4-2.8-4.9C184.4,23.1,186,20.2,187.1,18.4z M181.6,27.4c2.1,2.1,3.2,5.6,3.6,7.8c-2.1-0.4-5.4-1.4-7.7-3.7
		c-2.1-2.1-3.1-5.5-3.6-7.7C176.1,24.3,179.5,25.3,181.6,27.4z"/>
	<path class="st0" d="M71.7,33.6c4,4,10.2,4.8,11.6,4.8S91,37.6,95,33.6c4-4,4.8-11.2,4.8-11.5l0.2-1.8l-1.8,0.2
		c-0.3,0-5.3,0.6-9.3,3.1c-1-4.6-4.2-8.6-4.4-8.8l-1.2-1.4l-1.2,1.4C82,15,78.9,19,77.8,23.6c-4-2.5-9-3.1-9.3-3.1l-1.9-0.2l0.2,1.8
		C66.9,22.4,67.7,29.6,71.7,33.6z M92.9,31.5c-2.3,2.3-5.6,3.3-7.7,3.7c0.5-2.1,1.5-5.6,3.6-7.8c2.1-2.1,5.5-3.1,7.7-3.6
		C96,26,95,29.4,92.9,31.5z M83.4,18.4c1.1,1.8,2.7,4.7,2.8,7.5c-1.3,1.5-2.2,3.2-2.8,4.9c-0.6-1.7-1.6-3.4-2.8-4.9
		C80.7,23.1,82.2,20.2,83.4,18.4z M77.9,27.4c2.1,2.1,3.2,5.6,3.6,7.8c-2.1-0.4-5.4-1.4-7.7-3.7c-2.1-2.1-3.1-5.5-3.6-7.7
		C72.4,24.3,75.8,25.3,77.9,27.4z"/>
</g>
</svg>
