<?xml version="1.0" encoding="iso-8859-1"?>
<!-- Generator: Adobe Illustrator 22.1.0, SVG Export Plug-In . SVG Version: 6.00 Build 0)  -->
<svg version="1.1" id="Layer_1" xmlns="http://www.w3.org/2000/svg" xmlns:xlink="http://www.w3.org/1999/xlink" x="0px" y="0px"
	 viewBox="0 0 300 57" style="enable-background:new 0 0 300 57;" xml:space="preserve">
<g>
	<polygon style="fill:#A9AAAA;" points="65.969,42.246 47.036,51.705 28.167,42.229 47.084,32.788 	"/>
	<polygon style="fill:#A9AAAA;" points="46.724,14.755 27.792,24.212 8.924,14.737 27.842,5.295 	"/>
	<polygon style="fill:#CCCCCC;" points="27.792,24.181 28.037,42.459 9.153,32.95 8.924,14.737 	"/>
	<polygon style="fill:#ED2555;" points="84.428,14.755 65.494,24.212 46.624,14.737 65.542,5.295 	"/>
	<polygon style="fill:#CCCCCC;" points="65.493,24.181 65.739,42.459 46.856,32.95 46.624,14.737 	"/>
	<path style="fill:#292B2B;" d="M97.912,27.505h6.996v4.009c0,3.899-3.097,6.996-7.024,6.996c-3.097,0-5.226-1.825-6.166-3.539
		c-0.636-1.161-0.857-1.742-0.857-6.47c0-4.728,0.221-5.309,0.857-6.47c0.94-1.714,3.069-3.539,6.166-3.539
		c3.733,0,6.305,2.627,6.913,5.834h-3.152c-0.47-1.521-1.88-2.848-3.761-2.848c-1.41,0-2.433,0.664-3.042,1.438
		c-0.774,0.995-0.996,1.548-0.996,5.586c0,4.037,0.221,4.59,0.996,5.586c0.608,0.774,1.631,1.438,3.042,1.438
		c2.267,0,4.037-1.714,4.037-4.175v-1.023h-4.01V27.505z"/>
	<path style="fill:#292B2B;" d="M119.867,33.947h-7.466l-1.521,4.397h-3.152l7.162-19.688h2.489l7.162,19.688h-3.152L119.867,33.947
		z M119.009,31.293l-2.848-8.6h-0.055l-2.848,8.6H119.009z"/>
	<path style="fill:#292B2B;" d="M128.022,18.656h2.82l5.641,12.83l5.53-12.83h2.82v19.688h-2.986V26.067h-0.055l-4.12,9.457h-2.489
		l-4.12-9.457h-0.055v12.277h-2.986V18.656z"/>
	<path style="fill:#292B2B;" d="M150.364,18.656h12.581v2.82h-9.595v5.613h8.185v2.655h-8.185v5.779h9.595v2.82h-12.581V18.656z"/>
	<path style="fill:#ED2555;" d="M175.387,33.56c1.493,1.189,3.484,1.963,5.586,1.963c2.433,0,3.899-1.106,3.899-2.738
		c0-1.383-0.802-2.433-2.572-2.655c-0.885-0.111-1.576-0.221-2.599-0.36c-3.401-0.47-5.226-2.682-5.226-5.53
		c0-3.373,2.35-5.752,6.415-5.752c2.433,0,4.59,0.857,6.388,2.046l-1.659,2.461c-1.438-0.912-3.125-1.521-4.867-1.521
		c-1.825,0-3.291,0.94-3.291,2.82c0,1.106,0.802,2.212,2.793,2.516c0.525,0.083,1.272,0.194,2.212,0.304
		c3.678,0.442,5.392,2.986,5.392,5.669c0,3.622-2.682,5.724-6.913,5.724c-2.903,0-5.447-0.885-7.521-2.71L175.387,33.56z"/>
	<path style="fill:#ED2555;" d="M195.737,21.311h-5.392v-2.655h13.771v2.655h-5.392v17.033h-2.986V21.311z"/>
	<path style="fill:#ED2555;" d="M207.6,18.656h12.581v2.82h-9.595v5.613h8.185v2.655h-8.185v5.779h9.595v2.82H207.6V18.656z"/>
	<path style="fill:#ED2555;" d="M224.356,18.656h7.134c1.548,0,2.903,0.194,4.424,1.383c1.189,0.912,2.129,2.572,2.129,4.701
		c0,2.793-2.129,5.918-6.166,5.918h-4.535v7.687h-2.986V18.656z M227.342,27.836h4.424c2.212,0,3.291-1.632,3.291-3.18
		c0-1.327-0.525-2.129-1.272-2.627c-0.664-0.442-1.272-0.553-2.129-0.553h-4.314V27.836z"/>
	<path style="fill:#ED2555;" d="M242.135,18.656h7.134c1.548,0,2.903,0.194,4.424,1.383c1.189,0.912,2.129,2.572,2.129,4.701
		c0,2.793-2.129,5.918-6.166,5.918h-4.535v7.687h-2.986V18.656z M245.121,27.836h4.424c2.212,0,3.29-1.632,3.29-3.18
		c0-1.327-0.525-2.129-1.272-2.627c-0.664-0.442-1.272-0.553-2.129-0.553h-4.314V27.836z"/>
	<path style="fill:#ED2555;" d="M259.913,18.656h12.582v2.82h-9.595v5.613h8.185v2.655h-8.185v5.779h9.595v2.82h-12.582V18.656z"/>
	<path style="fill:#ED2555;" d="M276.67,18.656h7.687c1.659,0,2.959,0.387,4.009,1.3c1.106,0.94,1.963,2.433,1.963,4.203
		c0,2.544-1.438,4.618-3.816,5.447l4.562,8.738h-3.539l-4.065-8.406h-3.816v8.406h-2.986V18.656z M279.656,27.283h4.507
		c2.24,0,3.346-1.466,3.346-3.125c0-1.023-0.387-1.797-0.995-2.24c-0.553-0.415-1.161-0.608-2.184-0.608h-4.673V27.283z"/>
</g>
</svg>
