<?xml version="1.0" encoding="iso-8859-1"?>
<!-- Generator: Adobe Illustrator 22.1.0, SVG Export Plug-In . SVG Version: 6.00 Build 0)  -->
<svg version="1.1" id="Layer_1" xmlns="http://www.w3.org/2000/svg" xmlns:xlink="http://www.w3.org/1999/xlink" x="0px" y="0px"
	 viewBox="0 0 300 100" style="enable-background:new 0 0 300 100;" xml:space="preserve">
<g>
	
		<linearGradient id="SVGID_1_" gradientUnits="userSpaceOnUse" x1="32.8904" y1="322.8205" x2="32.8904" y2="354.2404" gradientTransform="matrix(1 0.0014 -0.0014 1 0.2752 -318.0458)">
		<stop  offset="0" style="stop-color:#37C4EE"/>
		<stop  offset="1" style="stop-color:#0574AC"/>
	</linearGradient>
	<path style="fill:url(#SVGID_1_);" d="M39.169,17.038c-0.004,0.044-0.009,0.085-0.011,0.126c0.005,0.066,0.011,0.124,0.011,0.186
		c0,1.249-1.017,2.264-2.267,2.263c-1.254-0.002-2.261-1.018-2.257-2.268c0-0.106,0.009-0.208,0.022-0.312
		c0.02-1.905,0.992-4.536,0.96-5.848c-0.09-3.484-2.037-4.669-3.545-5.644c0.715,5.226-4.355,7.404-7.536,10.85
		c-2.372,2.581-5.041,5.904-5.02,10.434c0.02,4.953,3.202,7.815,7.293,9.407c0.533-0.228-1.119-1.23-1.669-2.089
		c-1.833-2.873-0.036-7.224,2.517-7.936c-0.145,0.192-0.209,0.39-0.225,0.601c-0.086,0.205-0.133,0.424-0.133,0.655
		c0,1.068,0.976,1.929,2.19,1.931c1.04,0,1.912-0.638,2.13-1.5c0.002,0,0.008-0.004,0.008-0.008c0-0.008,0.003-0.015,0.003-0.022
		c0.002-0.005,0.002-0.005,0.002-0.01c0.714-2.596-5.805-6.907-1.039-9.158c0.501,4.288,5.179,4.438,7.93,7.322
		c2.934,3.074,2.554,8.636-1.689,10.227c4.529-1.434,9.056-4.496,8.996-10.011C45.791,21.781,42.675,18.89,39.169,17.038z"/>
	
		<linearGradient id="SVGID_2_" gradientUnits="userSpaceOnUse" x1="32.8952" y1="348.8546" x2="32.9551" y2="391.3323" gradientTransform="matrix(1 0.0014 -0.0014 1 0.2752 -318.0458)">
		<stop  offset="0" style="stop-color:#F27239"/>
		<stop  offset="1" style="stop-color:#D34827"/>
	</linearGradient>
	<path style="fill:url(#SVGID_2_);" d="M56.431,32.403c2.033,0.003,3.684-1.644,3.684-3.678c0.004-2.035-1.641-3.681-3.675-3.683
		c-2.034-0.003-3.682,1.638-3.685,3.673C52.752,30.75,54.397,32.402,56.431,32.403z M54.755,50.38
		c0.853-5.184,2.368-6.108,3.335-11.082c0.866-4.452-6.018-7.353-10.995-8.376c-0.258,0.692-0.576,1.346-0.95,1.951
		c1.74,0.486,4.052,1.217,4.049,2.226c-0.001,1.571-9.132,4.55-17.526,4.54c-8.396-0.014-17.518-3.017-17.517-4.59
		c0.003-0.948,2.045-1.65,3.735-2.124c-0.324-0.627-0.601-1.295-0.803-2.004c-4.962,1.042-11.68,3.9-10.837,8.306
		c0.954,4.98,2.465,5.904,3.304,11.093c1.166,7.238,0.251,12.346-4.935,18.867l1.623,0.001c6.634-5.032,9.411-9.568,9.748-10.148
		c4.641,4.55,10.314,7.987,14.537,10.182l2.207,0.001c4.222-2.18,9.91-5.603,14.563-10.141c0.333,0.582,3.095,5.125,9.718,10.177
		l1.623,0.003C54.469,62.728,53.566,57.614,54.755,50.38z M32.63,67.649c-10.704-9.203-16.951-22.08-17.447-27.73
		c0.027-0.001,0.056-0.001,0.081-0.001c4.277,1.323,10.479,2.166,17.401,2.182h0.003c6.923,0.005,13.121-0.82,17.406-2.134
		c0.028,0,0.053,0,0.078,0.003C49.642,45.616,43.358,58.477,32.63,67.649z M8.928,32.335c2.031,0.003,3.68-1.642,3.682-3.677
		c0.003-2.036-1.641-3.681-3.673-3.682c-2.033-0.004-3.685,1.637-3.688,3.672C5.247,30.683,6.895,32.334,8.928,32.335z"/>
	<g>
		<g>
			<path style="fill:#EC5A25;" d="M77.805,37.941c0,1.413-1.034,2.521-2.67,2.521c-1.564,0-2.595-1.108-2.595-2.521
				c0-1.448,1.069-2.554,2.626-2.554C76.772,35.387,77.765,36.493,77.805,37.941z M72.807,61.71V43.132h4.731V61.71H72.807z"/>
			<path style="fill:#EC5A25;" d="M83.372,48.661c0-2.135-0.041-3.926-0.152-5.529h4.048l0.189,2.744h0.114
				c0.916-1.448,2.598-3.163,5.721-3.163c2.438,0,4.346,1.372,5.147,3.433h0.08c0.65-1.03,1.413-1.791,2.286-2.328
				c1.03-0.724,2.216-1.105,3.74-1.105c3.088,0,6.216,2.1,6.216,8.049V61.71h-4.576V51.448c0-3.092-1.072-4.922-3.324-4.922
				c-1.598,0-2.782,1.145-3.272,2.477c-0.119,0.46-0.23,1.034-0.23,1.566v11.14h-4.582V50.95c0-2.594-1.03-4.424-3.203-4.424
				c-1.756,0-2.94,1.371-3.353,2.671c-0.197,0.457-0.268,0.988-0.268,1.528V61.71h-4.581C83.372,61.71,83.372,48.661,83.372,48.661z
				"/>
			<path style="fill:#EC5A25;" d="M116.515,49.31c0-2.44-0.072-4.423-0.147-6.178h4.118l0.225,2.861h0.079
				c1.369-2.1,3.546-3.28,6.37-3.28c4.271,0,7.818,3.66,7.818,9.457c0,6.717-4.235,9.959-8.469,9.959
				c-2.325,0-4.274-0.99-5.224-2.477h-0.078v9.611h-4.694V49.31H116.515z M121.209,53.93c0,0.456,0.036,0.874,0.154,1.293
				c0.457,1.909,2.135,3.28,4.118,3.28c2.971,0,4.728-2.479,4.728-6.141c0-3.279-1.597-5.95-4.617-5.95
				c-1.941,0-3.74,1.414-4.195,3.469c-0.11,0.385-0.188,0.804-0.188,1.186V53.93z"/>
			<path style="fill:#EC5A25;" d="M154.048,57.245c0,1.678,0.078,3.319,0.267,4.465h-4.233l-0.305-2.059h-0.119
				c-1.141,1.448-3.082,2.477-5.487,2.477c-3.735,0-5.836-2.708-5.836-5.53c0-4.693,4.159-7.057,11.021-7.02v-0.307
				c0-1.222-0.492-3.236-3.773-3.236c-1.833,0-3.741,0.569-4.999,1.371l-0.915-3.051c1.369-0.842,3.778-1.642,6.712-1.642
				c5.959,0,7.669,3.776,7.669,7.818v6.714C154.05,57.245,154.048,57.245,154.048,57.245z M149.469,52.629
				c-3.314-0.074-6.485,0.651-6.485,3.474c0,1.832,1.186,2.668,2.677,2.668c1.859,0,3.24-1.218,3.664-2.555
				c0.109-0.343,0.145-0.722,0.145-1.026v-2.561C149.47,52.629,149.469,52.629,149.469,52.629z"/>
			<path style="fill:#EC5A25;" d="M173.467,61.138c-1,0.456-2.935,0.99-5.265,0.99c-5.804,0-9.575-3.738-9.575-9.5
				c0-5.569,3.81-9.916,10.335-9.916c1.72,0,3.474,0.381,4.54,0.875l-0.846,3.508c-0.756-0.337-1.866-0.722-3.541-0.722
				c-3.589,0-5.719,2.631-5.684,6.028c0,3.815,2.48,5.99,5.684,5.99c1.64,0,2.785-0.346,3.702-0.72L173.467,61.138z"/>
			<path style="fill:#EC5A25;" d="M183.686,38.365v4.767h4.464v3.505h-4.464v8.205c0,2.251,0.61,3.436,2.403,3.436
				c0.87,0,1.295-0.078,1.833-0.233l0.073,3.59c-0.69,0.266-1.906,0.494-3.396,0.494c-1.717,0-3.171-0.611-4.047-1.564
				c-0.994-1.067-1.446-2.748-1.446-5.185v-8.742h-2.67v-3.505h2.67V39.7L183.686,38.365z"/>
			<path style="fill:#EC5A25;" d="M205.693,60.907c-0.806,0.383-2.705,1.186-5.376,1.186c-5.264,0-8.779-3.854-8.779-9.345
				c0-5.841,3.963-9.772,9.418-9.772c2.258,0,4.124,0.651,4.814,1.147l-0.652,1.487c-0.883-0.531-2.29-1.067-4.307-1.067
				c-4.924,0-7.439,3.738-7.439,8.05c0,4.808,3.018,7.935,7.247,7.935c2.172,0,3.59-0.611,4.571-1.07L205.693,60.907z"/>
			<path style="fill:#EC5A25;" d="M221.484,57.363c0,1.448,0.032,2.932,0.266,4.347h-1.678l-0.266-2.635h-0.077
				c-0.913,1.412-2.941,3.054-5.877,3.054c-3.702,0-5.377-2.596-5.377-5.036c0-4.234,3.703-6.785,11.173-6.713v-0.499
				c0-1.79-0.338-5.414-4.691-5.375c-1.606,0-3.28,0.418-4.61,1.369l-0.578-1.334c1.683-1.104,3.74-1.566,5.382-1.566
				c5.299,0,6.333,3.972,6.333,7.21L221.484,57.363L221.484,57.363z M219.647,51.905c-4.003-0.115-9.264,0.495-9.264,4.881
				c0,2.634,1.758,3.814,3.658,3.814c3.049,0,4.811-1.865,5.426-3.659c0.145-0.38,0.181-0.8,0.181-1.109L219.647,51.905
				L219.647,51.905z"/>
			<path style="fill:#EC5A25;" d="M227.353,48.892c0-1.833-0.037-3.703-0.152-5.494h1.683l0.072,3.696h0.115
				c0.802-2.321,2.714-4.119,5.19-4.119c0.265,0,0.537,0.041,0.763,0.079v1.72c-0.273-0.039-0.528-0.039-0.876-0.039
				c-2.52,0-4.313,2.171-4.814,5.112c-0.104,0.533-0.148,1.143-0.148,1.753v10.11h-1.834L227.353,48.892L227.353,48.892z"/>
			<path style="fill:#EC5A25;" d="M238.915,34.588h1.826v12.243h0.08c1.219-2.364,3.467-3.855,6.713-3.855
				c4.611,0,7.816,3.894,7.816,9.387c0,6.524-4.156,9.766-8.162,9.766c-2.975,0-5.113-1.222-6.558-3.703h-0.079l-0.154,3.285h-1.632
				c0.107-1.298,0.151-2.899,0.151-4.275L238.915,34.588L238.915,34.588z M240.741,54.652c0,0.419,0.036,0.877,0.155,1.332
				c0.802,2.787,3.162,4.617,6.027,4.617c4.191,0,6.597-3.431,6.597-8.2c0-4.195-2.285-7.894-6.449-7.894
				c-2.668,0-5.219,1.828-6.106,4.88c-0.114,0.461-0.224,0.953-0.224,1.604L240.741,54.652L240.741,54.652z"/>
			<path style="fill:#EC5A25;" d="M266.87,62.128c-4.734,0-8.401-3.703-8.401-9.421c0-6.258,4.128-9.731,8.67-9.731
				c5.074,0,8.508,3.816,8.508,9.425c0,6.792-4.695,9.728-8.745,9.728h-0.032V62.128z M266.983,60.6
				c3.817,0,6.832-3.431,6.832-8.124c0-3.358-1.872-7.97-6.723-7.97c-4.684,0-6.79,4.155-6.79,8.086
				c0,4.577,2.904,8.008,6.645,8.008C266.947,60.6,266.983,60.6,266.983,60.6z"/>
			<path style="fill:#EC5A25;" d="M280.297,47.785c0-1.678-0.041-2.936-0.15-4.386h1.711l0.118,3.28h0.071
				c0.998-2.06,3.322-3.702,6.299-3.702c1.748,0,6.406,0.881,6.406,7.75V61.71h-1.833V50.876c0-3.356-1.298-6.37-5.068-6.37
				c-2.562,0-4.771,1.828-5.494,4.232c-0.116,0.419-0.226,1.029-0.226,1.6V61.71h-1.834L280.297,47.785L280.297,47.785z"/>
		</g>
	</g>
</g>
</svg>
