<?xml version="1.0" encoding="iso-8859-1"?>
<!-- Generator: Adobe Illustrator 22.1.0, SVG Export Plug-In . SVG Version: 6.00 Build 0)  -->
<svg version="1.1" id="Layer_1" xmlns="http://www.w3.org/2000/svg" xmlns:xlink="http://www.w3.org/1999/xlink" x="0px" y="0px"
	 viewBox="0 0 300 114" style="enable-background:new 0 0 300 114;" xml:space="preserve">
<g>
	<path style="fill:#14BAC1;" d="M39.831,88.619l-7.822-16.656h-4.877v16.656H8.727V31.106h26.686c7.851,0,13.496,1.656,16.932,4.969
		c3.434,3.313,5.152,8.742,5.152,16.288c0,7.914-2.362,13.375-7.086,16.38L59.8,88.619H39.831z M27.132,58.62h7.454
		c1.348,0,2.284-0.276,2.806-0.828c0.52-0.553,0.783-1.565,0.783-3.037v-4.602c0-1.472-0.264-2.484-0.783-3.037
		c-0.522-0.552-1.458-0.828-2.806-0.828h-7.454C27.132,46.288,27.132,58.62,27.132,58.62z"/>
	<path style="fill:#14BAC1;" d="M84.644,31.106v57.513H66.242V31.106H84.644z"/>
	<path style="fill:#14BAC1;" d="M112.804,74.448c3.128,0,5.612-0.153,7.454-0.461v-5.061l-8.284-0.736
		c-4.784-0.429-8.602-1.303-11.456-2.623c-2.852-1.319-4.921-3.205-6.211-5.659c-1.29-2.453-1.933-5.644-1.933-9.571
		c0-5.153,0.737-9.217,2.211-12.193c1.47-2.975,3.847-5.121,7.13-6.442c3.283-1.318,7.807-1.978,13.574-1.978
		c7.545,0,14.755,0.92,21.625,2.76l-2.302,14.724c-3.19-0.675-5.887-1.15-8.098-1.426c-2.207-0.276-4.477-0.414-6.808-0.414
		c-3.128,0-5.645,0.153-7.545,0.46v4.97l6.624,0.644c7.485,0.736,12.899,2.593,16.242,5.567c3.343,2.977,5.015,7.407,5.015,13.298
		c0,6.809-1.962,11.795-5.887,14.954c-3.93,3.16-10.126,4.739-18.59,4.739c-8.714,0-16.719-1.104-24.018-3.313l2.575-15.183
		C100.258,73.467,106.484,74.448,112.804,74.448z"/>
	<path style="fill:#14BAC1;" d="M165.346,73.436h21.625v15.183h-40.027V31.106h40.489l-2.3,15.183h-19.787v6.901h18.406v13.343
		h-18.406V73.436z"/>
	<g>
		<path style="fill:#14BAC1;" d="M286.118,36.013c-3.436-3.313-9.079-4.969-16.932-4.969h-26.225v57.513h18.404V74.662h9.201
			c7.055,0,12.271-1.824,15.645-5.475c3.374-3.649,5.061-9.278,5.061-16.886C291.273,44.755,289.555,39.326,286.118,36.013z
			 M271.947,57.454c0,1.473-0.26,2.485-0.781,3.037c-0.522,0.553-1.458,0.828-2.806,0.828h-6.994V46.227h6.994
			c1.348,0,2.284,0.276,2.806,0.828c0.522,0.553,0.781,1.565,0.781,3.037V57.454z"/>
		<path style="fill:#14BAC1;" d="M215.205,5.94l-25.104,25.104h18.018v43.158h7.363c2.759,0,4.586-0.322,5.474-0.967
			c0.888-0.644,1.334-1.947,1.334-3.91V31.044h18.018L215.205,5.94z"/>
	</g>
</g>
</svg>
