<?xml version="1.0" encoding="iso-8859-1"?>
<!-- Generator: Adobe Illustrator 22.1.0, SVG Export Plug-In . SVG Version: 6.00 Build 0)  -->
<svg version="1.1" id="Layer_1" xmlns="http://www.w3.org/2000/svg" xmlns:xlink="http://www.w3.org/1999/xlink" x="0px" y="0px"
	 viewBox="0 0 300 100" style="enable-background:new 0 0 300 100;" xml:space="preserve">
<g>
	<g>
		<g>
			<linearGradient id="SVGID_1_" gradientUnits="userSpaceOnUse" x1="25.5575" y1="43.3357" x2="40.9247" y2="43.3357">
				<stop  offset="0" style="stop-color:#58595B"/>
				<stop  offset="1" style="stop-color:#404041"/>
			</linearGradient>
			<path style="fill:url(#SVGID_1_);" d="M37.755,37.12c3.435,2.495,4.196,7.299,1.702,10.731c-2.492,3.433-7.298,4.195-10.731,1.7
				c-3.434-2.493-4.195-7.297-1.701-10.73C29.52,35.386,34.324,34.626,37.755,37.12z"/>
			<linearGradient id="SVGID_2_" gradientUnits="userSpaceOnUse" x1="14.769" y1="32.7476" x2="42.5424" y2="32.7476">
				<stop  offset="0" style="stop-color:#58595B"/>
				<stop  offset="1" style="stop-color:#404041"/>
			</linearGradient>
			<path style="fill:url(#SVGID_2_);" d="M22.962,51.205c0.368,0.239,0.73,0.474,1.083,0.707l-1.159-3.563
				c-1.617-4.974,0.524-11.557,4.754-14.634c0,0,3.029-2.673,3.96-3.532c3.85-3.548,7.483-6.899,8.546-9.69
				c0.352-0.929,0.634-1.864,0.91-2.77c0.423-1.399,0.842-2.777,1.487-4.14c-1.16,1.092-4.511,4.159-8.868,7.324
				c-4.464,3.245-8.506,5.517-9.803,6.224l-3.728,2.708c-1.91,1.386-3.466,3.371-4.558,5.625l-0.287,1.042
				C13.065,44.811,18.326,48.21,22.962,51.205z"/>
		</g>
		<g>
			<linearGradient id="SVGID_3_" gradientUnits="userSpaceOnUse" x1="16.0015" y1="69.9436" x2="47.1245" y2="69.9436">
				<stop  offset="0" style="stop-color:#FBB041"/>
				<stop  offset="1" style="stop-color:#C88D31"/>
			</linearGradient>
			<path style="fill:url(#SVGID_3_);" d="M46.136,82.957c0.333-0.272,0.663-0.539,0.989-0.8H43.38
				c-5.23,0-10.832-4.069-12.445-9.043c0,0-1.765-4.159-2.293-5.308c-2.184-4.759-4.249-9.249-6.576-11.123
				c-0.772-0.622-1.576-1.18-2.355-1.722c-1.281-0.894-2.546-1.781-3.71-2.922c0.583,1.213,2.57,5.504,4.318,10.89
				c2.065,6.35,2.967,11.673,2.978,11.732l1.359,4.187c0.731,2.247,2.141,4.338,3.946,6.074l1.181,0.774
				C36.993,90.392,41.85,86.44,46.136,82.957z"/>
			<linearGradient id="SVGID_4_" gradientUnits="userSpaceOnUse" x1="33.9296" y1="70.6465" x2="49.2968" y2="70.6465">
				<stop  offset="0" style="stop-color:#FBB041"/>
				<stop  offset="1" style="stop-color:#C88D31"/>
			</linearGradient>
			<path style="fill:url(#SVGID_4_);" d="M37.097,64.43c3.434-2.492,8.239-1.732,10.729,1.701c2.498,3.432,1.737,8.235-1.697,10.732
				c-3.432,2.493-8.24,1.733-10.734-1.699C32.904,71.729,33.665,66.925,37.097,64.43z"/>
		</g>
		<g>
			<linearGradient id="SVGID_5_" gradientUnits="userSpaceOnUse" x1="71.9037" y1="43.6145" x2="87.2714" y2="43.6145">
				<stop  offset="0" style="stop-color:#D02033"/>
				<stop  offset="1" style="stop-color:#991B25"/>
			</linearGradient>
			<path style="fill:url(#SVGID_5_);" d="M79.586,51.297c-4.241,0.002-7.68-3.441-7.682-7.682c0-4.242,3.438-7.681,7.682-7.682
				c4.244,0,7.685,3.437,7.686,7.682C87.271,47.858,83.83,51.298,79.586,51.297z"/>
			<linearGradient id="SVGID_6_" gradientUnits="userSpaceOnUse" x1="81.5116" y1="51.752" x2="98.4589" y2="51.752">
				<stop  offset="0" style="stop-color:#D02033"/>
				<stop  offset="1" style="stop-color:#991B25"/>
			</linearGradient>
			<path style="fill:url(#SVGID_6_);" d="M82.798,30.997c-0.433,0.025-0.862,0.049-1.286,0.067l3.648,2.65
				c4.232,3.073,6.37,9.657,4.754,14.633c0,0-0.92,4.044-1.17,5.285c-1.029,5.131-1.999,9.981-1.217,12.862
				c0.262,0.958,0.583,1.882,0.891,2.777c0.384,1.103,0.756,2.199,1.035,3.352c0.418-2.047,1.279-5.864,2.673-10.157
				c1.794-5.519,3.839-9.894,4.363-10.979l1.328-4.092c0.798-2.453,0.824-5.23,0.238-7.909l-0.415-1.099
				C94.565,30.356,88.314,30.698,82.798,30.997z"/>
		</g>
		<g>
			<linearGradient id="SVGID_7_" gradientUnits="userSpaceOnUse" x1="45.2972" y1="16.9393" x2="86.7528" y2="16.9393">
				<stop  offset="0" style="stop-color:#1E75BB"/>
				<stop  offset="1" style="stop-color:#165F99"/>
			</linearGradient>
			<path style="fill:url(#SVGID_7_);" d="M45.63,19.653c-0.112,0.417-0.222,0.828-0.333,1.234l3.412-2.477
				c4.231-3.074,11.155-3.074,15.386-0.002c0,0,3.249,1.881,4.353,2.5c4.563,2.565,8.873,4.986,11.858,5.134
				c0.99,0.047,1.965,0.026,2.911,0.008c1.178-0.024,2.346-0.035,3.535,0.054c-1.845-1.048-5.136-3.016-8.708-5.61
				c-4.313-3.135-7.639-6.172-8.827-7.289l-3.861-2.804c-1.988-1.445-4.469-2.313-7.059-2.626l-1.054,0.05
				C48.653,8.264,47.048,14.314,45.63,19.653z"/>
			<linearGradient id="SVGID_8_" gradientUnits="userSpaceOnUse" x1="48.9301" y1="26.7176" x2="64.3001" y2="26.7176">
				<stop  offset="0" style="stop-color:#1E75BB"/>
				<stop  offset="1" style="stop-color:#165F99"/>
			</linearGradient>
			<path style="fill:url(#SVGID_8_);" d="M63.923,29.093c-1.314,4.034-5.646,6.243-9.682,4.931c-4.035-1.31-6.244-5.643-4.932-9.681
				c1.312-4.036,5.643-6.243,9.679-4.932C63.025,20.721,65.231,25.058,63.923,29.093z"/>
		</g>
		<g>
			<linearGradient id="SVGID_9_" gradientUnits="userSpaceOnUse" x1="62.4374" y1="71.0698" x2="77.8072" y2="71.0698">
				<stop  offset="0" style="stop-color:#009348"/>
				<stop  offset="1" style="stop-color:#096C37"/>
			</linearGradient>
			<path style="fill:url(#SVGID_9_);" d="M62.814,73.442c-1.309-4.035,0.9-8.368,4.934-9.679c4.036-1.312,8.369,0.897,9.681,4.931
				c1.311,4.035-0.896,8.371-4.931,9.682C68.46,79.689,64.128,77.479,62.814,73.442z"/>
			<linearGradient id="SVGID_10_" gradientUnits="userSpaceOnUse" x1="45.0199" y1="79.4584" x2="85.6183" y2="79.4584">
				<stop  offset="0" style="stop-color:#009348"/>
				<stop  offset="1" style="stop-color:#096C37"/>
			</linearGradient>
			<path style="fill:url(#SVGID_10_);" d="M83.585,70.397c-0.153-0.398-0.306-0.791-0.451-1.179l-1.266,3.894
				c-1.617,4.974-7.218,9.044-12.445,9.044c0,0-4.488,0.38-5.749,0.53c-5.196,0.605-10.109,1.181-12.608,2.816
				c-0.831,0.543-1.608,1.135-2.364,1.705c-1.177,0.891-2.342,1.766-3.682,2.492h0.656c1.919-0.23,6.071-0.647,10.94-0.647
				c4.871,0,9.025,0.417,10.942,0.647h5.104c2.622,0,5.314-0.86,7.714-2.288l0.767-0.615C87.832,81.388,85.573,75.548,83.585,70.397
				z"/>
		</g>
	</g>
	<g>
		<path style="fill:#595959;" d="M120.529,74.142c0-0.559,0.48-1.042,1.041-1.042h0.241c0.455,0,0.777,0.24,0.99,0.558l6.688,10.063
			l6.688-10.063c0.215-0.345,0.562-0.558,0.991-0.558h0.241c0.558,0,1.041,0.483,1.041,1.042v16.826c0,0.59-0.483,1.071-1.041,1.071
			c-0.588,0-1.073-0.512-1.073-1.071V77.004l-5.991,8.801c-0.242,0.346-0.509,0.536-0.882,0.536c-0.376,0-0.67-0.19-0.911-0.536
			l-5.965-8.774v13.964c0,0.589-0.456,1.044-1.043,1.044c-0.562,0-1.016-0.455-1.016-1.044V74.142z"/>
		<path style="fill:#595959;" d="M146.872,90.514l7.597-16.613c0.268-0.587,0.669-0.939,1.34-0.939h0.103
			c0.644,0,1.072,0.351,1.311,0.939l7.6,16.587c0.08,0.186,0.132,0.374,0.132,0.535c0,0.561-0.454,1.016-1.015,1.016
			c-0.509,0-0.856-0.346-1.043-0.775l-1.955-4.308h-10.275l-1.95,4.36c-0.188,0.455-0.538,0.723-1.017,0.723
			c-0.538,0-0.963-0.428-0.963-0.964C146.738,90.915,146.766,90.73,146.872,90.514z M160.115,85.029l-4.306-9.577l-4.308,9.577
			H160.115z"/>
		<path style="fill:#595959;" d="M173.269,74.142c0-0.559,0.482-1.042,1.041-1.042h0.297c0.48,0,0.779,0.24,1.072,0.612l11.37,14.5
			V74.088c0-0.56,0.455-1.044,1.044-1.044c0.558,0,1.016,0.484,1.016,1.044v16.907c0,0.563-0.403,0.991-0.965,0.991h-0.107
			c-0.454,0-0.778-0.27-1.098-0.646l-11.611-14.843v14.498c0,0.563-0.454,1.044-1.042,1.044c-0.562,0-1.017-0.481-1.017-1.044
			V74.142z"/>
		<path style="fill:#595959;" d="M197.53,90.514l7.595-16.613c0.269-0.587,0.669-0.939,1.339-0.939h0.104
			c0.642,0,1.071,0.351,1.313,0.939l7.599,16.587c0.078,0.186,0.132,0.374,0.132,0.535c0,0.561-0.454,1.016-1.018,1.016
			c-0.508,0-0.854-0.346-1.044-0.775l-1.951-4.308h-10.274l-1.949,4.36c-0.19,0.455-0.541,0.723-1.019,0.723
			c-0.536,0-0.964-0.428-0.964-0.964C197.393,90.915,197.421,90.73,197.53,90.514z M210.768,85.029l-4.304-9.577l-4.308,9.577
			H210.768z"/>
		<path style="fill:#595959;" d="M222.135,82.594V82.54c0-5.133,3.771-9.682,9.388-9.682c2.838,0,4.681,0.749,6.397,2.007
			c0.237,0.187,0.424,0.48,0.424,0.856c0,0.59-0.481,1.073-1.043,1.073c-0.238,0-0.454-0.113-0.667-0.272
			c-1.338-1.016-2.838-1.711-5.194-1.711c-4.143,0-7.115,3.507-7.115,7.68v0.051c0,4.468,2.862,7.786,7.415,7.786
			c2.137,0,4.116-0.828,5.403-1.87v-4.661h-5.032c-0.507,0-0.935-0.425-0.935-0.933c0-0.537,0.428-0.965,0.935-0.965h6.019
			c0.563,0,1.046,0.483,1.046,1.07v5.698c0,0.509-0.241,0.967-0.723,1.288c-1.714,1.255-4.015,2.272-6.795,2.272
			C225.771,92.225,222.135,87.946,222.135,82.594z"/>
		<path style="fill:#595959;" d="M248.209,90.833V74.251c0-0.593,0.482-1.072,1.045-1.072h11.64c0.535,0,0.961,0.427,0.961,0.962
			c0,0.535-0.426,0.961-0.961,0.961h-10.57v6.396h9.365c0.535,0,0.961,0.451,0.961,0.963c0,0.533-0.426,0.963-0.961,0.963h-9.365
			v6.552h10.699c0.537,0,0.965,0.428,0.965,0.962c0,0.538-0.428,0.966-0.965,0.966h-11.768
			C248.691,91.906,248.209,91.423,248.209,90.833z"/>
		<path style="fill:#595959;" d="M270.409,74.251c0-0.593,0.48-1.072,1.045-1.072h7.006c2.303,0,4.148,0.696,5.327,1.873
			c0.909,0.908,1.444,2.221,1.444,3.69v0.057c0,3.072-2.086,4.865-5.003,5.428l4.654,5.995c0.215,0.237,0.349,0.476,0.349,0.772
			c0,0.563-0.535,1.044-1.071,1.044c-0.428,0-0.75-0.241-0.991-0.561l-5.27-6.851h-5.379v6.342c0,0.59-0.48,1.071-1.067,1.071
			c-0.564,0-1.045-0.481-1.045-1.071V74.251z M278.276,82.727c2.81,0,4.815-1.444,4.815-3.851v-0.052
			c0-2.303-1.767-3.691-4.787-3.691h-5.782v7.594H278.276z"/>
	</g>
	<g>
		<linearGradient id="SVGID_11_" gradientUnits="userSpaceOnUse" x1="129.5634" y1="24.0754" x2="129.5634" y2="69.6914">
			<stop  offset="0" style="stop-color:#262626"/>
			<stop  offset="1" style="stop-color:#0D0D0D"/>
		</linearGradient>
		<path style="fill:url(#SVGID_11_);" d="M127.317,30.583h-11.394c-1.123,0-2.077-0.901-2.077-2.023
			c0-1.122,0.954-2.077,2.077-2.077h27.281c1.123,0,2.078,0.956,2.078,2.077c0,1.121-0.955,2.023-2.078,2.023H131.81v33.23
			c0,1.235-1.011,2.247-2.247,2.247c-1.234,0-2.245-1.012-2.245-2.247V30.583z"/>
		<linearGradient id="SVGID_12_" gradientUnits="userSpaceOnUse" x1="171.9649" y1="24.0753" x2="171.9649" y2="69.692">
			<stop  offset="0" style="stop-color:#262626"/>
			<stop  offset="1" style="stop-color:#0D0D0D"/>
		</linearGradient>
		<path style="fill:url(#SVGID_12_);" d="M157.51,63.533V28.727c0-1.234,1.011-2.245,2.19-2.245h24.42
			c1.121,0,2.021,0.899,2.021,2.021c0,1.121-0.9,2.019-2.021,2.019h-22.172v13.418h19.644c1.124,0,2.022,0.955,2.022,2.022
			c0,1.12-0.898,2.02-2.022,2.02h-19.644v13.754H184.4c1.122,0,2.019,0.899,2.019,2.017c0,1.125-0.898,2.025-2.019,2.025H159.7
			C158.521,65.779,157.51,64.768,157.51,63.533z"/>
		<linearGradient id="SVGID_13_" gradientUnits="userSpaceOnUse" x1="215.7424" y1="24.0757" x2="215.7424" y2="69.6915">
			<stop  offset="0" style="stop-color:#262626"/>
			<stop  offset="1" style="stop-color:#0D0D0D"/>
		</linearGradient>
		<path style="fill:url(#SVGID_13_);" d="M196.909,62.857l15.945-34.862c0.56-1.231,1.403-1.961,2.804-1.961h0.225
			c1.348,0,2.245,0.73,2.752,1.961L234.578,62.8c0.165,0.394,0.277,0.79,0.277,1.124c0,1.181-0.952,2.136-2.129,2.136
			c-1.068,0-1.798-0.732-2.191-1.629l-4.098-9.037h-21.558l-4.096,9.151c-0.393,0.952-1.123,1.516-2.133,1.516
			c-1.121,0-2.021-0.9-2.021-2.02C196.63,63.7,196.685,63.31,196.909,62.857z M224.697,51.35l-9.04-20.097l-9.035,20.097H224.697z"
			/>
		<linearGradient id="SVGID_14_" gradientUnits="userSpaceOnUse" x1="266.3391" y1="24.0752" x2="266.3391" y2="69.6916">
			<stop  offset="0" style="stop-color:#262626"/>
			<stop  offset="1" style="stop-color:#0D0D0D"/>
		</linearGradient>
		<path style="fill:url(#SVGID_14_);" d="M247.532,28.504c0-1.179,1.013-2.189,2.192-2.189h0.504c0.957,0,1.632,0.505,2.076,1.179
			l14.036,21.106l14.036-21.106c0.445-0.729,1.178-1.179,2.074-1.179h0.506c1.178,0,2.189,1.01,2.189,2.189v35.309
			c0,1.235-1.011,2.247-2.189,2.247c-1.235,0-2.247-1.068-2.247-2.247V34.511l-12.572,18.467c-0.508,0.731-1.068,1.124-1.852,1.124
			c-0.788,0-1.406-0.393-1.908-1.124L251.86,34.566v29.302c0,1.237-0.958,2.192-2.193,2.192c-1.179,0-2.134-0.955-2.134-2.192
			V28.504z"/>
	</g>
</g>
<g>
</g>
<g>
</g>
<g>
</g>
<g>
</g>
<g>
</g>
<g>
</g>
<g>
</g>
<g>
</g>
<g>
</g>
<g>
</g>
<g>
</g>
<g>
</g>
<g>
</g>
<g>
</g>
<g>
</g>
</svg>
