<?xml version="1.0" encoding="iso-8859-1"?>
<!-- Generator: Adobe Illustrator 22.1.0, SVG Export Plug-In . SVG Version: 6.00 Build 0)  -->
<svg version="1.1" id="Layer_1" xmlns="http://www.w3.org/2000/svg" xmlns:xlink="http://www.w3.org/1999/xlink" x="0px" y="0px"
	 viewBox="0 0 300 145" style="enable-background:new 0 0 300 145;" xml:space="preserve">
<g>
	<g>
		<path style="fill:#72868D;" d="M23.775,125.874h-9.264l-1.842,4.8h-2.595l7.813-19.757h2.595l7.757,19.757h-2.679L23.775,125.874z
			 M15.208,123.948h7.869l-3.935-10.688L15.208,123.948z"/>
		<path style="fill:#72868D;" d="M35.858,128.831l1.256-1.563c0.8,0.633,1.627,1.089,2.483,1.367
			c0.855,0.279,1.823,0.418,2.902,0.418c1.34,0,2.423-0.311,3.251-0.935c0.827-0.623,1.242-1.53,1.242-2.721
			c0-0.837-0.195-1.516-0.586-2.037c-0.391-0.521-0.93-0.939-1.619-1.256c-0.688-0.316-1.6-0.623-2.734-0.921
			c-1.842-0.483-3.219-1.139-4.13-1.967c-0.912-0.827-1.367-1.986-1.367-3.474c0-1.656,0.619-2.948,1.856-3.879
			c1.237-0.93,2.814-1.395,4.73-1.395c1.209,0,2.302,0.158,3.279,0.474c0.977,0.317,1.883,0.781,2.721,1.395l-1.116,1.619
			c-0.781-0.502-1.558-0.875-2.33-1.116c-0.772-0.242-1.623-0.363-2.553-0.363c-1.247,0-2.251,0.265-3.014,0.795
			c-0.763,0.53-1.144,1.298-1.144,2.302c0,1.004,0.349,1.763,1.046,2.274c0.698,0.512,1.837,0.972,3.418,1.381
			c1.99,0.521,3.497,1.228,4.52,2.121c1.023,0.893,1.535,2.214,1.535,3.962c0,1.265-0.312,2.335-0.935,3.209
			c-0.623,0.875-1.465,1.531-2.525,1.967c-1.06,0.437-2.251,0.656-3.572,0.656C39.904,131.148,37.699,130.376,35.858,128.831z"/>
		<path style="fill:#72868D;" d="M51.562,126.794c0-1.842,0.665-3.12,1.995-3.837c1.33-0.716,3.335-1.074,6.013-1.074
			c0.651,0,1.144,0.01,1.479,0.028v-0.809c0-1.06-0.289-1.851-0.865-2.372c-0.577-0.521-1.461-0.781-2.651-0.781
			c-1.507,0-2.93,0.4-4.269,1.2l-0.837-1.591c1.6-0.986,3.349-1.479,5.246-1.479c1.991,0,3.447,0.465,4.367,1.395
			c0.921,0.93,1.381,2.344,1.381,4.241v5.804c0,1.024,0.065,2.075,0.195,3.153h-2.177c-0.13-0.818-0.195-1.46-0.195-1.925h-0.084
			c-0.521,0.763-1.176,1.339-1.967,1.73c-0.791,0.391-1.81,0.586-3.056,0.586c-1.377,0-2.483-0.368-3.321-1.102
			C51.981,129.227,51.562,128.171,51.562,126.794z M61.05,125.427v-1.841l-1.256-0.028c-1.396,0-2.507,0.094-3.335,0.279
			c-0.828,0.186-1.442,0.502-1.842,0.949c-0.4,0.446-0.6,1.07-0.6,1.869c0,0.819,0.242,1.447,0.726,1.884
			c0.483,0.437,1.153,0.656,2.009,0.656c0.893,0,1.665-0.191,2.316-0.572c0.651-0.381,1.144-0.86,1.479-1.437
			C60.882,126.609,61.05,126.023,61.05,125.427z"/>
		<path style="fill:#72868D;" d="M69.647,110.916v19.757h-2.372v-19.757H69.647z"/>
		<path style="fill:#72868D;" d="M85.79,124.422H75.242c0.093,1.451,0.53,2.605,1.311,3.46c0.781,0.856,1.898,1.283,3.349,1.283
			c0.855,0,1.623-0.116,2.302-0.349c0.679-0.233,1.363-0.581,2.051-1.047l1.06,1.535c-0.8,0.577-1.651,1.014-2.553,1.312
			c-0.903,0.298-1.902,0.447-3,0.447c-2.177,0-3.875-0.688-5.093-2.065c-1.219-1.377-1.828-3.209-1.828-5.498
			c0-1.469,0.26-2.763,0.781-3.879c0.521-1.116,1.279-1.986,2.274-2.609s2.191-0.935,3.586-0.935c2.065,0,3.642,0.67,4.73,2.009
			c1.088,1.339,1.632,3.116,1.632,5.33C85.845,123.865,85.827,124.199,85.79,124.422z M83.529,122.581
			c-0.037-1.413-0.4-2.548-1.088-3.404c-0.689-0.855-1.684-1.284-2.986-1.284c-1.321,0-2.344,0.442-3.069,1.325
			c-0.726,0.884-1.116,2.005-1.172,3.363H83.529z"/>
		<path style="fill:#72868D;" d="M97.828,117.586l-1.06,1.479c-1.098-0.763-2.288-1.144-3.572-1.144
			c-0.893,0-1.591,0.172-2.093,0.516c-0.502,0.345-0.754,0.833-0.754,1.465c0,0.465,0.102,0.846,0.307,1.144
			c0.204,0.298,0.548,0.549,1.033,0.753c0.483,0.205,1.19,0.419,2.121,0.642c1.451,0.354,2.525,0.87,3.223,1.549
			c0.697,0.679,1.046,1.567,1.046,2.665c0,1.395-0.521,2.479-1.563,3.251c-1.042,0.772-2.326,1.158-3.851,1.158
			c-2.047,0-3.758-0.548-5.134-1.646l1.088-1.479c0.632,0.428,1.256,0.744,1.869,0.949c0.614,0.205,1.312,0.307,2.093,0.307
			c0.949,0,1.698-0.205,2.246-0.614c0.549-0.409,0.823-0.995,0.823-1.758c0-0.502-0.103-0.907-0.307-1.214
			c-0.205-0.307-0.544-0.562-1.018-0.767c-0.475-0.205-1.186-0.428-2.135-0.67c-1.47-0.372-2.539-0.874-3.209-1.507
			c-0.67-0.632-1.005-1.507-1.005-2.623c0-1.209,0.47-2.172,1.409-2.888c0.939-0.716,2.181-1.074,3.725-1.074
			C94.935,116.079,96.507,116.581,97.828,117.586z"/>
		<path style="fill:#72868D;" d="M109.391,110.889l-0.53,1.702c-0.596-0.13-1.172-0.186-1.73-0.168
			c-1.749,0.019-2.623,0.977-2.623,2.874v1.172h3.572v1.814h-3.572v12.39h-2.372v-12.39h-2.484v-1.507l2.484-0.307v-1.228
			c0-1.507,0.4-2.665,1.2-3.474c0.8-0.809,1.99-1.223,3.572-1.242C107.819,110.526,108.647,110.647,109.391,110.889z"/>
		<path style="fill:#72868D;" d="M123.427,123.53c0,1.47-0.284,2.777-0.851,3.92c-0.567,1.144-1.386,2.033-2.456,2.665
			c-1.07,0.632-2.349,0.949-3.837,0.949c-1.47,0-2.744-0.321-3.823-0.963c-1.079-0.641-1.898-1.53-2.456-2.665
			c-0.558-1.134-0.837-2.437-0.837-3.907c0-2.27,0.623-4.079,1.87-5.428c1.246-1.348,2.995-2.023,5.246-2.023
			c1.507,0,2.795,0.311,3.865,0.935c1.069,0.623,1.883,1.493,2.442,2.609C123.148,120.739,123.427,122.041,123.427,123.53z
			 M111.623,123.53c0,1.693,0.386,3.055,1.158,4.088c0.772,1.032,1.939,1.549,3.502,1.549c1.581,0,2.763-0.516,3.544-1.549
			c0.781-1.033,1.172-2.395,1.172-4.088s-0.391-3.042-1.172-4.047c-0.781-1.004-1.963-1.507-3.544-1.507
			c-1.581,0-2.754,0.502-3.516,1.507C112.004,120.488,111.623,121.837,111.623,123.53z"/>
		<path style="fill:#72868D;" d="M126.513,119.651c0-1.042-0.065-2.102-0.195-3.181h2.261c0.093,0.632,0.158,1.386,0.195,2.26h0.056
			c0.818-1.767,2.306-2.651,4.464-2.651c0.149,0,0.419,0.028,0.809,0.084l-0.139,2.037c-0.186-0.037-0.474-0.056-0.865-0.056
			c-1.358,0-2.4,0.456-3.125,1.367c-0.726,0.912-1.089,2.093-1.089,3.544v7.618h-2.372V119.651z"/>
		<path style="fill:#72868D;" d="M142.073,116.079c0.893,0,1.744,0.135,2.553,0.405c0.809,0.27,1.53,0.647,2.162,1.13l-0.949,1.646
			c-1.079-0.8-2.335-1.2-3.767-1.2c-1.526,0-2.679,0.498-3.46,1.493c-0.781,0.995-1.172,2.33-1.172,4.004
			c0,1.637,0.39,2.963,1.172,3.976c0.781,1.014,1.926,1.521,3.432,1.521c1.284,0,2.558-0.4,3.823-1.2l0.865,1.675
			c-1.414,1.023-3.033,1.535-4.855,1.535c-1.6,0-2.912-0.359-3.935-1.074c-1.023-0.716-1.763-1.642-2.218-2.777
			c-0.456-1.135-0.684-2.353-0.684-3.656c0-2.269,0.623-4.083,1.87-5.441C138.156,116.758,139.878,116.079,142.073,116.079z"/>
		<path style="fill:#72868D;" d="M160.998,124.422H150.45c0.093,1.451,0.53,2.605,1.311,3.46c0.781,0.856,1.898,1.283,3.349,1.283
			c0.855,0,1.623-0.116,2.302-0.349c0.679-0.233,1.363-0.581,2.051-1.047l1.06,1.535c-0.8,0.577-1.651,1.014-2.553,1.312
			c-0.903,0.298-1.902,0.447-3,0.447c-2.177,0-3.875-0.688-5.093-2.065c-1.219-1.377-1.828-3.209-1.828-5.498
			c0-1.469,0.26-2.763,0.781-3.879c0.521-1.116,1.279-1.986,2.274-2.609c0.995-0.623,2.191-0.935,3.586-0.935
			c2.065,0,3.642,0.67,4.73,2.009c1.088,1.339,1.632,3.116,1.632,5.33C161.054,123.865,161.035,124.199,160.998,124.422z
			 M158.738,122.581c-0.037-1.413-0.4-2.548-1.088-3.404c-0.689-0.855-1.684-1.284-2.986-1.284c-1.321,0-2.344,0.442-3.069,1.325
			c-0.726,0.884-1.116,2.005-1.172,3.363H158.738z"/>
		<path style="fill:#72868D;" d="M186.922,112.842l-1.451,1.591c-0.689-0.614-1.475-1.084-2.358-1.409
			c-0.884-0.325-1.819-0.488-2.804-0.488c-2.419,0-4.242,0.753-5.469,2.26c-1.228,1.507-1.842,3.498-1.842,5.972
			c0,2.456,0.614,4.437,1.842,5.944c1.228,1.507,3.032,2.26,5.414,2.26c1.06,0,2.065-0.2,3.013-0.6
			c0.949-0.4,1.776-0.944,2.484-1.633l1.507,1.646c-0.856,0.856-1.893,1.531-3.111,2.023c-1.219,0.492-2.544,0.739-3.977,0.739
			c-2.065,0-3.828-0.437-5.288-1.312c-1.461-0.874-2.567-2.093-3.321-3.655c-0.754-1.563-1.13-3.367-1.13-5.414
			c0-2.046,0.376-3.851,1.13-5.414c0.753-1.563,1.865-2.777,3.334-3.642c1.47-0.865,3.246-1.297,5.33-1.297
			c1.321,0,2.558,0.209,3.712,0.628C185.089,111.461,186.084,112.061,186.922,112.842z"/>
		<path style="fill:#72868D;" d="M202.891,123.53c0,1.47-0.284,2.777-0.851,3.92c-0.567,1.144-1.386,2.033-2.456,2.665
			c-1.07,0.632-2.349,0.949-3.837,0.949c-1.47,0-2.744-0.321-3.823-0.963c-1.079-0.641-1.898-1.53-2.456-2.665
			c-0.558-1.134-0.837-2.437-0.837-3.907c0-2.27,0.623-4.079,1.87-5.428c1.246-1.348,2.995-2.023,5.246-2.023
			c1.507,0,2.795,0.311,3.865,0.935c1.069,0.623,1.883,1.493,2.442,2.609C202.612,120.739,202.891,122.041,202.891,123.53z
			 M191.087,123.53c0,1.693,0.386,3.055,1.158,4.088c0.772,1.032,1.939,1.549,3.502,1.549c1.581,0,2.763-0.516,3.544-1.549
			c0.781-1.033,1.172-2.395,1.172-4.088s-0.391-3.042-1.172-4.047c-0.781-1.004-1.963-1.507-3.544-1.507
			c-1.581,0-2.754,0.502-3.516,1.507C191.468,120.488,191.087,121.837,191.087,123.53z"/>
		<path style="fill:#72868D;" d="M205.977,119.651c0-1.042-0.065-2.102-0.195-3.181h2.261c0.093,0.502,0.158,1.172,0.195,2.009
			h0.056c0.446-0.707,1.074-1.283,1.883-1.73s1.744-0.67,2.805-0.67c1.209,0,2.195,0.256,2.958,0.767
			c0.763,0.512,1.321,1.214,1.675,2.107h0.056c0.483-0.893,1.144-1.595,1.981-2.107c0.837-0.511,1.842-0.767,3.013-0.767
			c1.172,0,2.149,0.256,2.93,0.767c0.781,0.512,1.357,1.182,1.73,2.009c0.372,0.828,0.558,1.735,0.558,2.721v9.097h-2.372v-8.762
			c0-1.098-0.265-2.018-0.795-2.763c-0.53-0.744-1.381-1.116-2.553-1.116c-0.856,0-1.591,0.224-2.205,0.67
			c-0.614,0.447-1.079,1.042-1.395,1.786c-0.317,0.744-0.474,1.544-0.474,2.4v7.785h-2.372v-8.818c0-1.079-0.27-1.986-0.809-2.721
			c-0.54-0.735-1.386-1.102-2.54-1.102c-1.228,0-2.204,0.433-2.93,1.298c-0.726,0.865-1.089,1.93-1.089,3.195v8.148h-2.372V119.651z
			"/>
		<path style="fill:#72868D;" d="M245.295,123.557c0,1.414-0.26,2.689-0.781,3.823c-0.521,1.135-1.28,2.033-2.274,2.693
			c-0.995,0.66-2.163,0.991-3.502,0.991c-1.805,0-3.358-0.586-4.66-1.758v8.176h-2.372v-17.831c0-1.042-0.065-2.102-0.195-3.181
			h2.261c0.093,0.614,0.158,1.339,0.195,2.177h0.056c0.465-0.781,1.116-1.405,1.953-1.87c0.837-0.465,1.86-0.697,3.07-0.697
			c1.357,0,2.502,0.33,3.432,0.991c0.93,0.661,1.632,1.553,2.107,2.679C245.058,120.874,245.295,122.144,245.295,123.557z
			 M242.84,123.557c0-1.711-0.376-3.069-1.13-4.074c-0.753-1.004-1.8-1.507-3.139-1.507c-0.875,0-1.656,0.205-2.344,0.614
			c-0.688,0.409-1.219,0.967-1.591,1.674c-0.373,0.707-0.558,1.479-0.558,2.316v4.716c0.651,0.651,1.298,1.126,1.94,1.423
			c0.642,0.298,1.381,0.447,2.218,0.447c1.488,0,2.627-0.516,3.418-1.549C242.444,126.585,242.84,125.232,242.84,123.557z"/>
		<path style="fill:#72868D;" d="M247.396,126.794c0-1.842,0.665-3.12,1.995-3.837c1.33-0.716,3.335-1.074,6.013-1.074
			c0.651,0,1.144,0.01,1.479,0.028v-0.809c0-1.06-0.289-1.851-0.865-2.372c-0.577-0.521-1.461-0.781-2.651-0.781
			c-1.507,0-2.93,0.4-4.269,1.2l-0.837-1.591c1.6-0.986,3.349-1.479,5.246-1.479c1.991,0,3.447,0.465,4.367,1.395
			c0.921,0.93,1.381,2.344,1.381,4.241v5.804c0,1.024,0.065,2.075,0.195,3.153h-2.177c-0.13-0.818-0.195-1.46-0.195-1.925h-0.084
			c-0.521,0.763-1.176,1.339-1.967,1.73c-0.791,0.391-1.81,0.586-3.056,0.586c-1.377,0-2.483-0.368-3.321-1.102
			C247.815,129.227,247.396,128.171,247.396,126.794z M256.884,125.427v-1.841l-1.256-0.028c-1.396,0-2.507,0.094-3.335,0.279
			c-0.828,0.186-1.442,0.502-1.842,0.949c-0.4,0.446-0.6,1.07-0.6,1.869c0,0.819,0.242,1.447,0.726,1.884
			c0.483,0.437,1.153,0.656,2.009,0.656c0.893,0,1.665-0.191,2.316-0.572c0.651-0.381,1.144-0.86,1.479-1.437
			C256.717,126.609,256.884,126.023,256.884,125.427z"/>
		<path style="fill:#72868D;" d="M263.073,119.651c0-1.042-0.065-2.102-0.195-3.181h2.261c0.093,0.502,0.158,1.172,0.195,2.009
			h0.056c0.465-0.726,1.116-1.307,1.953-1.744c0.837-0.437,1.832-0.656,2.986-0.656c1.786,0,3.112,0.516,3.977,1.549
			c0.865,1.033,1.297,2.321,1.297,3.865v9.181h-2.372v-8.706c0-1.134-0.279-2.069-0.837-2.805c-0.558-0.735-1.461-1.102-2.707-1.102
			c-1.284,0-2.312,0.423-3.084,1.27c-0.772,0.847-1.158,1.911-1.158,3.195v8.148h-2.372V119.651z"/>
		<path style="fill:#72868D;" d="M283.787,134.133c-0.465,1.284-1.042,2.223-1.73,2.819c-0.688,0.595-1.6,0.893-2.734,0.893
			c-0.726,0-1.386-0.112-1.981-0.335l0.474-1.758c0.409,0.112,0.809,0.168,1.2,0.168c0.688,0,1.223-0.195,1.605-0.586
			c0.381-0.391,0.711-0.977,0.991-1.758l0.976-2.819l-5.525-14.287h2.567l4.13,11.692h0.056l3.795-11.692h2.427L283.787,134.133z"/>
	</g>
	<g>
		<polygon style="fill:#3F3F3F;" points="43.249,49.391 30.719,32.107 12.238,32.107 34.043,62.163 9.962,95.53 28.14,95.53 
			43.154,74.729 43.278,74.891 43.278,49.359 		"/>
		<polygon style="fill:#249ED9;" points="78.759,62.504 106.084,32.107 86.096,32.107 62.664,58.249 62.664,7.626 46.753,7.626 
			46.753,95.53 62.664,95.53 62.664,66.293 89.59,95.53 109.344,95.53 		"/>
		<path style="fill:#3F3F3F;" d="M116.775,32.228h13.64v7.987c1.477-3.149,3.44-5.541,5.889-7.17c2.447-1.634,5.128-2.45,8.044-2.45
			c2.06,0,4.216,0.545,6.471,1.633l-4.956,13.698c-1.865-0.933-3.4-1.399-4.603-1.399c-2.45,0-4.519,1.516-6.208,4.547
			c-1.691,3.031-2.537,8.977-2.537,17.838l0.058,3.088v25.649h-15.796V32.228z"/>
		<path style="fill:#3F3F3F;" d="M158.63,32.228h16.087v30.543c0,5.948,0.406,10.076,1.227,12.389
			c0.82,2.311,2.132,4.109,3.943,5.389c1.812,1.286,4.042,1.924,6.691,1.924c2.646,0,4.896-0.631,6.747-1.894
			c1.853-1.262,3.225-3.119,4.124-5.568c0.661-1.824,0.992-5.73,0.992-11.715V32.228h15.916v26.871
			c0,11.075-0.877,18.652-2.627,22.735c-2.136,4.973-5.285,8.791-9.441,11.452c-4.159,2.662-9.441,3.995-15.855,3.995
			c-6.959,0-12.582-1.558-16.875-4.664c-4.295-3.107-7.316-7.441-9.064-12.998c-1.246-3.848-1.865-10.844-1.865-20.989V32.228z"/>
		<path style="fill:#3F3F3F;" d="M224.614,32.228h18.477l12.535,17.284L268.1,32.228h18.165l-21.531,29.845l24.348,33.575h-18.48
			L255.52,74.843l-15.006,20.804h-18.174l24.073-33.361L224.614,32.228z"/>
	</g>
</g>
</svg>
