<?xml version="1.0" encoding="iso-8859-1"?>
<!-- Generator: Adobe Illustrator 22.1.0, SVG Export Plug-In . SVG Version: 6.00 Build 0)  -->
<svg version="1.1" id="Layer_1" xmlns="http://www.w3.org/2000/svg" xmlns:xlink="http://www.w3.org/1999/xlink" x="0px" y="0px"
	 viewBox="0 0 300 300" style="enable-background:new 0 0 300 300;" xml:space="preserve">
<g>
	<g>
		<path d="M62.696,109.871c-3.739-5.598-11.109-15.436-12.869-17.84c-0.516-0.666-1.058-1.294-1.453-1.665
			c0.099-0.148,0.383-0.492,0.728-1.01c0.394-0.591,0.556-0.911,0.63-1.021l1.921,0.642c2.735,0.705,18.08,5.081,21.665,5.872
			c2.994,0.557,3.264,0.472,5.188-1.769c0.16,0,0.542,0.309,0.542,0.468c-0.654,0.899-2.086,2.881-2.849,4.026
			c-0.987,1.477-2.283,3.497-2.801,4.433c-0.099-0.013-0.529-0.248-0.59-0.394c0.357-0.776,0.703-1.454,0.839-2.057
			c0.112-0.726-0.184-0.925-0.726-1.072c-1.86-0.655-6.478-1.818-8.879-2.461c-0.024,0.037-0.332,0.099-0.383,0.172
			c-0.284,0.345-0.827,1.157-2.16,3.152c-1.506,2.253-1.776,2.66-2.011,3.091c-0.074,0.111-0.024,0.357,0.062,0.468
			c1.416,1.961,4.342,6.054,5.266,6.83c0.579,0.492,1.145,0.925,2.193-0.084c0.407-0.369,0.766-0.664,1.356-1.39
			c0.123-0.024,0.518,0.346,0.542,0.468c-0.543,0.813-1.839,2.511-2.924,4.136c-1.136,1.699-1.74,2.844-2.209,3.547
			c-0.111,0.086-0.591-0.234-0.59-0.394C64.529,113.285,64.542,112.706,62.696,109.871z M51.737,92.612
			c1.28,1.763,5.205,6.843,6.459,8.482c0.148,0.099,0.209,0.086,0.319,0c0.259-0.309,0.827-1.157,2.011-2.929
			c0.593-0.887,1.506-2.253,1.641-2.536c0.024-0.037-0.037-0.186-0.172-0.223l-10.197-2.967
			C51.773,92.477,51.7,92.588,51.737,92.612z"/>
		<path d="M66.841,66.846c1.019-0.714,2.478-1.573,6.152-4.149c0.583,0.677,1.157,1.034,2.119,1.553
			c6.363,3.895,16.356,9.637,17.527,10.228c0.088,0.047,0.135-0.041,0.145-0.102c-0.197-1.598-2.506-15.493-3.363-20.046
			c-0.207-0.993-0.375-1.852-0.787-2.595c3.166-2.218,4.107-3.041,5.599-4.087c0.16-0.003,0.44,0.397,0.407,0.583
			c-1.015,0.874-1.411,1.314-1.818,1.816c-0.841,0.969-0.454,1.674-0.02,2.293c1.482,2.269,10.263,14.179,12.296,16.769
			c0.915,1.15,1.566,1.614,2.8,1.131c0.549-0.223,1.146-0.532,1.961-0.996c0.123,0.023,0.379,0.385,0.408,0.583
			c-0.728,0.51-2.513,1.599-4.514,3c-1.928,1.351-3.405,2.494-4.216,3.117c-0.099,0.014-0.466-0.432-0.407-0.583
			c0.759-0.696,1.109-1.049,1.444-1.501c0.647-0.778,0.446-1.453-0.242-2.434c-1.595-2.353-9.134-12.801-11.297-15.733
			c-0.062-0.011-0.135,0.041-0.145,0.102c0.551,3.031,3.443,20.314,4.65,24.513c-0.083,0.113-0.556,0.444-0.655,0.459
			c-3.129-2.527-18.66-11.765-21.29-13.504c-0.073,0.051-0.083,0.113-0.057,0.149c1.81,3.125,8.338,13.522,9.995,15.886
			c1.096,1.564,1.839,2.237,3.036,1.778c0.611-0.211,1.037-0.455,2.157-1.023c0.16-0.004,0.42,0.52,0.373,0.608
			c-0.837,0.586-2.077,1.292-3.751,2.466c-1.783,1.249-3.306,2.48-3.961,2.938c-0.16,0.004-0.43-0.458-0.407-0.583
			c0.421-0.404,0.904-0.798,1.266-1.212c0.974-1.009,0.92-1.785-0.267-4.097c-1.329-2.595-7.958-13.678-9.981-16.872
			c-0.408-0.583-1.052-1.269-2.156-0.986c-0.735,0.19-1.455,0.477-2.648,1.096C67.027,67.421,66.757,66.96,66.841,66.846z"/>
		<path d="M109.076,42.425c0.976-0.301,3.053-0.804,5.174-1.459c2.206-0.682,3.483-1.216,4.417-1.501
			c0.123,0.102,0.285,0.469,0.239,0.623l-1.69,0.848c-0.842,0.585-0.799,1.177-0.438,2.646c0.415,1.638,1.683,5.895,2.811,9.545
			c1.416,4.584,2.718,8.644,3.193,10.032c0.464,1.205,0.799,1.984,2.036,1.927c0.604-0.001,1.394-0.153,2.184-0.304
			c0.167,0.089,0.226,0.58,0.168,0.692c-1.188,0.368-2.713,0.698-4.622,1.29c-2.461,0.759-3.27,1.15-5.35,1.793
			c-0.168-0.089-0.256-0.525-0.21-0.679c0.623-0.239,1.348-0.603,1.774-0.874c0.996-0.539,0.982-1.187,0.712-2.359
			c-0.296-1.258-2.234-7.677-3.428-11.539c-1.062-3.437-2.059-6.662-2.747-8.588c-0.429-0.937-0.691-1.786-1.704-1.751
			c-0.506,0.017-1.267,0.112-2.325,0.3C109.118,43.021,109.016,42.541,109.076,42.425z"/>
		<path d="M133.427,36.073c1.065-0.045,3.332-0.004,4.575-0.056c2.751-0.113,4.788-0.287,6.874-0.373
			c5.058-0.209,7.665,2.618,7.819,6.344c0.155,3.773-2.33,6.007-4.86,7.179c-0.085,0.093-0.08,0.225-0.033,0.268
			c1.612,2.423,5.666,8.032,7.881,10.029c2.08,1.914,2.752,2.064,4.8,2.157c0.05,0.131-0.019,0.623-0.104,0.716
			c-1.769,0.206-5.06,0.164-6.549-0.396c-0.679-0.282-1.411-0.787-2.109-1.558c-1.764-1.793-4.95-6.862-6.736-9.188
			c-0.332-0.52-0.742-0.725-1.096-0.711c-0.623-0.019-2.216,0.136-2.794,0.16c-0.089,0.004-0.169,0.186-0.167,0.273
			c0.103,2.484,0.285,6.877,0.449,8.692c0.121,1.861,0.444,2.16,1.297,2.347c0.673,0.15,1.386,0.209,2.279,0.305
			c0.139,0.128,0.113,0.574-0.015,0.711c-0.71,0.029-3.067-0.006-5.242,0.083c-2.973,0.122-4.519,0.319-5.141,0.346
			c-0.179-0.037-0.204-0.614-0.028-0.665c0.881-0.17,1.587-0.287,2.027-0.439c1.009-0.309,1.252-0.895,1.272-2.541
			c-0.008-1.244-0.233-7.768-0.333-10.207c-0.121-2.929-0.368-8.873-0.529-10.647c-0.093-1.152-0.431-1.805-1.502-1.937
			c-0.538-0.112-1.342-0.212-2.054-0.226C133.317,36.655,133.339,36.12,133.427,36.073z M140.71,37.016
			c-0.132,0.05-0.207,0.364-0.2,0.542c-0.08,1.292,0.165,7.237,0.341,11.497c0.003,0.089,0.142,0.216,0.186,0.214
			c1.605,0.112,4.227,0.093,5.317-0.397c1.353-0.589,3.068-2.127,2.918-5.766c-0.169-4.083-2.581-6.516-7.24-6.324
			C141.635,36.8,141.06,36.868,140.71,37.016z"/>
		<path d="M172.008,36.678c0.637,0.192,2.682,0.949,4.85,1.603c2.169,0.655,3.696,0.977,4.631,1.264
			c0.059,0.111-0.081,0.579-0.192,0.637c-0.902-0.086-1.339-0.173-1.9-0.156c-0.831-0.019-1.213,0.329-1.812,2.005
			c-1.129,3.278-3.346,10.775-3.942,13.053c-0.716,2.985-0.757,4.503-0.277,5.993c0.701,2.438,2.932,4.272,5.824,5.145
			c3.826,1.155,7.506,0.642,9.798-5.717c1.133-3.138,2.887-8.639,4.026-13.026c0.728-2.564,0.108-3.123-0.921-3.711
			c-0.556-0.308-0.939-0.422-1.708-0.795c-0.06-0.111,0.126-0.566,0.234-0.631c0.68,0.206,2.058,0.715,4.439,1.433
			c1.785,0.539,3.129,0.852,3.895,1.088c0.059,0.111-0.083,0.579-0.192,0.637c-0.663-0.108-1.243-0.19-1.664-0.177
			c-1.166,0.019-1.643,0.524-2.446,2.88c-2.929,9.089-3.699,11.641-5.003,14.262c-2.754,5.895-7.668,6.5-12.344,5.088
			c-6.25-1.888-8.563-5.6-7.681-10.669c0.455-2.738,3.56-12.564,4.503-15.991c0.346-1.147,0.463-1.996-0.383-2.574
			c-0.416-0.312-1.356-0.734-1.926-0.998C171.713,37.196,171.898,36.741,172.008,36.678z"/>
		<path d="M229.081,66.205c-0.754-1.576-2.01-2.863-3.815-4.232c-5.201-3.947-11.231-2.613-16.036,3.719
			c-4.995,6.581-4.696,13.61,1.318,18.173c1.061,0.805,2.974,2.033,5.285,1.779c1.618-0.223,2.945-0.721,4.77-1.51
			c0.132,0.046,0.388,0.518,0.314,0.686c-1.774,1.385-5.088,2.885-6.224,2.693c-1.268-0.46-3.465-1.459-5.659-3.123
			c-7.607-5.772-8.896-13.331-3.231-20.796c2.927-3.856,7.418-6.248,12.796-5.399c2.653,0.397,5.444,1.568,8.488,3.877
			c2.583,1.96,4.481,4.236,6.035,5.64c-0.998,0.803-3.34,3.153-4.503,4.611c-0.212,0.062-0.833-0.298-0.726-0.439
			C229.615,68.953,229.828,67.72,229.081,66.205z"/>
		<path d="M227.375,94.978c6.604-1.295,18.522-4.305,21.418-5.003c0.813-0.221,1.603-0.478,2.095-0.698
			c0.099,0.148,0.308,0.543,0.652,1.061c0.393,0.593,0.626,0.864,0.701,0.973l-1.333,1.526
			c-1.703,2.251-11.652,14.726-13.764,17.728c-1.668,2.548-1.693,2.831-0.366,5.469c-0.062,0.148-0.494,0.382-0.642,0.321
			c-0.577-0.95-1.856-3.034-2.616-4.181c-0.983-1.479-2.348-3.453-3.011-4.293c0.048-0.086,0.431-0.394,0.593-0.394
			c0.577,0.63,1.07,1.208,1.575,1.567c0.627,0.383,0.923,0.186,1.269-0.257c1.32-1.464,4.171-5.277,5.689-7.246
			c-0.024-0.037,0.038-0.346-0.011-0.418c-0.209-0.394-0.749-1.208-2.077-3.205c-1.5-2.258-1.769-2.665-2.077-3.048
			c-0.074-0.111-0.319-0.16-0.455-0.123c-2.354,0.551-7.258,1.675-8.33,2.228c-0.679,0.343-1.295,0.7-0.768,2.055
			c0.186,0.518,0.319,0.962,0.762,1.787c-0.025,0.123-0.518,0.345-0.642,0.319c-0.541-0.814-1.609-2.663-2.69-4.291
			c-1.131-1.702-1.954-2.7-2.42-3.404c-0.037-0.136,0.444-0.455,0.593-0.394C223.519,95.354,224.049,95.59,227.375,94.978z
			 M247.521,91.513c-2.119,0.502-8.317,2.167-10.314,2.693c-0.148,0.099-0.16,0.16-0.123,0.296c0.184,0.357,0.749,1.208,1.93,2.984
			c0.589,0.888,1.5,2.256,1.708,2.49c0.024,0.037,0.186,0.037,0.271-0.074l6.664-8.268
			C247.631,91.599,247.558,91.488,247.521,91.513z"/>
	</g>
	<g>
		<path d="M60.59,185.94c0.566,1.198,0.935,2.078,1.624,3.442c0.827,1.637,1.254,2.334,2.264,4.335
			c0.903,1.79,2.118,5.324-1.521,7.161c-1.727,0.873-3.811,0.516-5.624-1.118c-0.046-0.014-0.076,0.001-0.092,0.046
			c0.74,2.822,0.204,5.453-2.434,6.784c-2.395,1.21-4.857,0.778-6.975-1.006c-1.264-1.072-2.198-2.619-2.932-4.074
			c-0.689-1.364-2.054-4.442-3.109-6.383c0.029-0.09,0.424-0.29,0.501-0.214c0.368,0.575,0.703,1.168,1.114,1.606
			c0.443,0.499,0.913,0.529,2.066,0.022c0.969-0.413,2.774-1.287,7.11-3.476c4.304-2.174,6.063-3.062,7.216-3.719
			c0.787-0.474,0.969-0.87,0.906-1.37c-0.062-0.502-0.369-1.26-0.569-1.807C60.119,186.064,60.512,185.865,60.59,185.94z
			 M52.794,204.334c3.123-1.576,3.689-4.524,2.05-7.769c-0.413-0.819-0.627-1.168-0.72-1.273c-0.046-0.015-0.121-0.09-0.182-0.06
			c-1.941,0.981-6.306,3.184-7.517,3.948c-0.287,0.184-0.529,0.534-0.589,0.867c-0.149,0.759,0.296,2.02,0.572,2.565
			C47.8,205.371,49.914,205.788,52.794,204.334z M62.297,191.432c-0.137-0.121-0.455-0.074-0.608,0.003
			c-0.682,0.307-4.351,2.083-6.656,3.246c-0.061,0.031-0.151,0.153-0.121,0.212c0.108,0.287,0.276,0.698,0.72,1.576
			c0.888,1.758,1.361,2.242,1.802,2.515c1.126,0.647,2.371,0.477,3.614-0.15c2.607-1.316,3.388-3.462,1.858-6.493
			C62.678,191.886,62.419,191.522,62.297,191.432z"/>
		<path d="M60.554,221.514c0.273-2.969,1.856-5.616,3.933-7.521c1.802-1.651,3.862-2.572,5.918-2.89
			c3.312-0.457,7.044,1.051,9.384,3.606c4.566,4.982,3.249,10.934-0.883,14.719c-2.053,1.882-4.115,2.849-6.436,3.181
			c-3.484,0.52-6.904-0.95-9.199-3.453C61.231,226.926,60.324,224.026,60.554,221.514z M68.396,231.276
			c2.749,0.336,5.454-1.082,7.784-3.218c2.554-2.339,4.552-5.738,4.171-9.12c-0.126-1.544-0.733-3.012-1.973-4.364
			c-0.848-0.926-1.834-1.497-2.827-1.829c-2.801-0.795-5.889,0.561-8.467,2.924c-2.503,2.293-4.682,5.948-4.191,9.598
			c0.179,1.402,0.815,2.801,2.008,4.101C65.908,230.471,67.176,231.152,68.396,231.276z"/>
		<path d="M92.005,251.613c-0.895-0.553-2.401-1.606-3.528-2.303c-1.848-1.145-3.317-1.935-4.154-2.451
			c-0.014-0.169,0.146-0.43,0.268-0.434c0.89,0.432,1.58,0.739,2.01,0.884c0.926,0.375,1.399-0.132,2.279-1.423
			c0.845-1.236,5.862-9.277,8.723-13.897c0.053-0.086,0.009-0.275-0.048-0.309c-0.53-0.369-3.391-2.138-4.032-2.456
			c-0.538-0.293-1.044-0.248-1.619,0.036c-0.733,0.345-1.753,1.152-2.624,1.851c-0.094,0.022-0.432-0.267-0.438-0.39
			c0.964-1.04,2.484-2.978,3.237-4.068c0,0,0.14-0.033,0.181,0.031c0.388,0.6,1.262,1.381,1.984,1.829l10.63,6.58
			c1.039,0.644,1.683,0.962,2.756,1.227c0.029,0.018,0.098,0.099,0.08,0.128c-0.798,0.706-2.197,2.516-3.259,3.975
			c-0.083,0.069-0.546-0.218-0.52-0.322c0.407-0.787,0.889-1.888,1.015-2.609c0.108-0.691-0.067-1.119-0.608-1.534
			c-1.034-0.72-3.603-2.311-4.229-2.657c-0.104-0.024-0.251,0.084-0.304,0.17c-2.539,4.101-7.648,12.484-8.521,14.022
			c-0.915,1.671-0.722,2.069-0.223,2.619c0.363,0.383,0.632,0.59,1.272,1.107C92.354,251.309,92.111,251.638,92.005,251.613z"/>
		<path d="M107.538,255.458c3.373-3.89,9.143-11.314,10.561-13.097c0.387-0.515,0.742-1.042,0.935-1.404
			c0.128,0.043,0.44,0.182,0.892,0.333c0.515,0.172,0.785,0.226,0.881,0.254l-0.086,1.548c0.033,2.16-0.097,14.364,0.043,17.169
			c0.193,2.32,0.312,2.504,2.352,3.471c0.033,0.117-0.118,0.462-0.235,0.494c-0.795-0.301-2.546-0.957-3.545-1.29
			c-1.29-0.429-3.041-0.977-3.836-1.171c-0.011-0.075,0.075-0.44,0.172-0.515c0.644,0.107,1.213,0.226,1.687,0.204
			c0.558-0.064,0.645-0.322,0.645-0.752c0.107-1.505,0.032-5.146,0.02-7.049c-0.032-0.011-0.14-0.226-0.204-0.244
			c-0.312-0.14-1.02-0.376-2.76-0.956c-1.966-0.656-2.321-0.773-2.686-0.861c-0.097-0.032-0.268,0.053-0.333,0.139
			c-1.16,1.441-3.588,4.428-3.975,5.266c-0.247,0.527-0.452,1.033,0.505,1.601c0.355,0.226,0.645,0.43,1.3,0.72
			c0.043,0.086-0.15,0.452-0.237,0.495c-0.708-0.238-2.223-0.85-3.643-1.322c-1.482-0.495-2.45-0.71-3.062-0.913
			c-0.086-0.065,0.053-0.483,0.172-0.515C105.388,257.5,105.818,257.392,107.538,255.458z M118.055,243.886
			c-1.042,1.3-3.996,5.221-4.953,6.479c-0.043,0.128-0.022,0.172,0.065,0.239c0.28,0.128,1.02,0.375,2.568,0.892
			c0.773,0.258,1.966,0.654,2.203,0.696c0.032,0.01,0.128-0.065,0.128-0.172l0.128-8.123
			C118.162,243.886,118.066,243.855,118.055,243.886z"/>
		<path d="M133.908,245.316c0.644,0.031,2.269,0.212,3.456,0.271c0.747,0.037,1.222,0.06,1.528,0.041
			c0.09,0.243,0.37,0.766,1.202,1.861c3.345,4.618,10.362,14.141,11.769,15.978l0.106-0.062c0.217-4.478,0.664-12.244,0.569-14.459
			c-0.02-0.987-0.196-1.575-1.131-1.926c-0.569-0.197-1.211-0.298-2.02-0.438c-0.065-0.071-0.013-0.443,0.059-0.508
			c0.883,0.042,2.335,0.216,3.93,0.293c1.018,0.05,2.752,0.032,3.161,0.052c0.065,0.071,0.047,0.444-0.024,0.509
			c-0.616,0.071-0.925,0.126-1.337,0.207c-0.895,0.228-1.133,0.932-1.208,1.777c-0.335,2.67-0.63,9.389-0.913,13.831
			c-0.074,1.526-0.132,3.428-0.153,4.514c-0.371-0.052-1.524-0.108-1.968-0.095c-1.51-2.521-11.297-15.922-12.696-17.893
			c-0.032-0.036-0.135-0.006-0.137,0.027c-0.234,3.424-0.631,12.245-0.653,14.082c-0.011,1.632,0.443,2.062,1.213,2.303
			c0.502,0.159,1.143,0.259,1.785,0.359c0.099,0.073,0.043,0.513-0.06,0.541c-0.645-0.031-2.132-0.206-3.794-0.287
			c-1.695-0.083-2.787-0.033-3.466-0.067c-0.065-0.071-0.045-0.478,0.027-0.543c0.682-0.034,1.057-0.05,1.505-0.164
			c0.757-0.168,1.249-0.516,1.432-2.174c0.179-1.59,0.618-7.792,1.029-14.81c0.022-0.441-0.214-1.201-0.701-1.666
			c-0.679-0.715-1.388-0.817-2.601-1.046C133.784,245.752,133.836,245.381,133.908,245.316z"/>
		<path d="M163.067,245.179c0.77-0.137,2.393-0.323,4.065-0.621c1.739-0.309,2.758-0.594,3.494-0.722
			c0.084,0.089,0.17,0.383,0.122,0.495l-1.362,0.485c-0.696,0.365-0.717,0.818-0.583,1.968c0.159,1.283,0.722,4.632,1.235,7.511
			c0.642,3.612,1.249,6.818,1.479,7.915c0.239,0.959,0.421,1.581,1.365,1.655c0.459,0.056,1.072,0.015,1.687-0.024
			c0.118,0.081,0.117,0.462,0.062,0.541c-0.937,0.168-2.125,0.276-3.63,0.543c-1.941,0.346-2.591,0.566-4.229,0.857
			c-0.117-0.083-0.144-0.424-0.094-0.535c0.495-0.122,1.079-0.331,1.431-0.497c0.806-0.317,0.856-0.808,0.762-1.723
			c-0.106-0.981-0.972-6.038-1.514-9.082c-0.482-2.709-0.935-5.251-1.277-6.778c-0.238-0.752-0.356-1.421-1.128-1.491
			c-0.387-0.034-0.972-0.033-1.793,0.009C163.044,245.635,163.012,245.26,163.067,245.179z"/>
		<path d="M193.22,237.163c-1.333-0.103-2.665,0.234-4.261,0.906c-4.603,1.935-6.026,6.437-3.671,12.043
			c2.446,5.824,7.214,8.316,12.537,6.079c0.94-0.394,2.484-1.189,3.2-2.817c0.472-1.156,0.649-2.225,0.825-3.736
			c0.08-0.071,0.491-0.06,0.574,0.052c0.239,1.706-0.036,4.473-0.599,5.151c-0.79,0.663-2.291,1.737-4.233,2.553
			c-6.732,2.827-12.231,0.791-15.007-5.815c-1.433-3.414-1.299-7.302,1.32-10.539c1.278-1.605,3.121-3.006,5.814-4.138
			c2.286-0.96,4.519-1.346,6.043-1.839c0.149,0.969,0.808,3.418,1.33,4.746c-0.041,0.164-0.516,0.438-0.569,0.313
			C195.244,237.859,194.509,237.248,193.22,237.163z"/>
		<path d="M214.484,243.603c-1.381-4.958-4.391-13.86-5.095-16.026c-0.217-0.607-0.46-1.193-0.658-1.55
			c0.107-0.084,0.394-0.266,0.77-0.561c0.427-0.336,0.621-0.529,0.701-0.595l1.243,0.925c1.818,1.163,11.924,7.999,14.338,9.43
			c2.041,1.119,2.258,1.121,4.191-0.048c0.116,0.038,0.319,0.354,0.282,0.469c-0.691,0.497-2.202,1.596-3.03,2.245
			c-1.071,0.838-2.493,1.996-3.092,2.553c-0.069-0.032-0.324-0.307-0.335-0.427c0.444-0.478,0.857-0.888,1.099-1.294
			c0.254-0.502,0.086-0.716-0.271-0.953c-1.194-0.918-4.272-2.864-5.865-3.904c-0.027,0.02-0.266-0.008-0.319,0.036
			c-0.287,0.182-0.876,0.642-2.319,1.774c-1.629,1.278-1.926,1.507-2.198,1.764c-0.08,0.062-0.103,0.254-0.066,0.355
			c0.561,1.76,1.712,5.432,2.197,6.216c0.303,0.497,0.611,0.945,1.614,0.462c0.383-0.17,0.712-0.3,1.316-0.686
			c0.095,0.011,0.293,0.373,0.282,0.469c-0.588,0.46-1.935,1.386-3.11,2.307c-1.23,0.964-1.941,1.651-2.45,2.049
			c-0.102,0.036-0.374-0.312-0.336-0.427C215.002,246.519,215.15,246.102,214.484,243.603z M210.637,228.453
			c0.509,1.586,2.15,6.211,2.672,7.702c0.083,0.107,0.131,0.112,0.233,0.078c0.261-0.163,0.876-0.642,2.16-1.65
			c0.641-0.502,1.629-1.277,1.796-1.453c0.027-0.02,0.018-0.142-0.073-0.201l-6.701-4.587
			C210.698,228.362,210.616,228.426,210.637,228.453z"/>
		<path d="M220.779,215.304c0.482-0.616,1.234-1.407,2.511-3.037c1.11-1.416,1.847-2.521,2.245-3.031
			c0.09-0.059,0.458,0.187,0.402,0.314c-0.313,0.619-0.474,0.88-0.646,1.263c-0.341,0.768-0.017,1.066,0.631,1.618
			c0.754,0.636,3.748,2.981,5.972,4.767c2.386,1.912,5.641,4.42,6.938,5.351c0.449,0.309,0.862,0.332,1.131,0.153
			c0.659-0.346,2.901-3.205,3.686-4.317c0.413-0.583,0.534-1.178,0.351-2.099c-0.148-0.805-0.757-2.447-1.581-3.872
			c0.009-0.122,0.341-0.38,0.468-0.323c0.815,0.941,2.644,3.452,3.051,4.419c0.083,0.281,0.006,0.652-0.516,1.32
			c-1.174,1.497-4.8,5.904-5.847,7.241c-0.901,1.15-1.973,2.682-2.475,3.322c-0.095,0.011-0.39-0.217-0.429-0.335
			c0.424-0.706,0.691-1.099,0.903-1.538c0.307-0.666,0.281-1.074-0.511-1.824c-0.679-0.621-1.568-1.358-7.288-5.841
			c-2.833-2.221-4.383-3.435-5.072-3.933c-1.189-0.847-1.528-1.024-2.343-0.368c-0.332,0.258-0.894,0.81-1.199,1.088
			C221.091,215.676,220.764,215.377,220.779,215.304z"/>
		<path d="M253.356,202.288c0.913-0.507,1.576-1.36,2.183-2.651c0.865-1.844,0.435-3.884-1.839-4.953
			c-2.09-0.981-3.817-0.179-6.717,1.685c-2.75,1.783-5.155,2.831-7.768,1.603c-3.166-1.486-3.905-4.945-2.376-8.204
			c0.866-1.844,1.767-2.885,2.468-4.057c0.927,0.661,2.209,1.526,3.719,2.384c0.064,0.104-0.123,0.505-0.214,0.537
			c-2.132-0.813-3.028-0.822-3.85-0.27c-0.717,0.488-1.203,1.124-1.665,2.108c-1.01,2.151-0.052,4.026,1.716,4.894
			c1.646,0.81,3.125,0.454,4.579-0.324c1.408-0.764,2.661-1.751,3.767-2.433c1.721-1.029,3.765-1.946,6.039-0.878
			c3.073,1.442,4.377,5.056,2.473,9.113c-0.808,1.721-2.137,3.273-2.855,3.686c-0.574,0.106-3.622-0.913-4.573-1.285
			c-0.094-0.118,0.018-0.516,0.122-0.58C250.778,203.066,252.202,202.986,253.356,202.288z"/>
	</g>
	<g>
		
			<linearGradient id="SVGID_1_" gradientUnits="userSpaceOnUse" x1="73.1691" y1="134.5635" x2="239.5039" y2="380.1469" gradientTransform="matrix(1 0 0 1 0 -98)">
			<stop  offset="0" style="stop-color:#D6B43B"/>
			<stop  offset="1" style="stop-color:#B99533"/>
		</linearGradient>
		<path style="fill:url(#SVGID_1_);" d="M150.001,294.999C70.048,294.999,5,229.952,5,150C5,70.047,70.048,5,150.001,5
			C229.954,5.001,295,70.048,295,150S229.954,294.999,150.001,294.999z M150.001,10.226c-77.073,0-139.776,62.702-139.776,139.775
			c0,77.071,62.702,139.774,139.776,139.774c77.071,0,139.774-62.702,139.774-139.774C289.775,72.928,227.073,10.226,150.001,10.226
			z"/>
		
			<linearGradient id="SVGID_2_" gradientUnits="userSpaceOnUse" x1="73.1695" y1="134.5637" x2="239.5038" y2="380.146" gradientTransform="matrix(1 0 0 1 0 -98)">
			<stop  offset="0" style="stop-color:#D6B43B"/>
			<stop  offset="1" style="stop-color:#B99533"/>
		</linearGradient>
		<path style="fill:url(#SVGID_2_);" d="M150.001,283.896C76.17,283.896,16.104,223.832,16.104,150S76.17,16.103,150.001,16.103
			c73.829,0,133.896,60.066,133.896,133.897S223.83,283.896,150.001,283.896z M150.001,17.41C76.891,17.41,17.409,76.89,17.409,150
			S76.889,282.59,150,282.59c73.109,0,132.59-59.479,132.59-132.59S223.111,17.41,150.001,17.41z"/>
		<g>
			<g>
				
					<linearGradient id="SVGID_3_" gradientUnits="userSpaceOnUse" x1="97.528" y1="118.058" x2="263.8732" y2="363.6567" gradientTransform="matrix(1 0 0 1 0 -98)">
					<stop  offset="0" style="stop-color:#D6B43B"/>
					<stop  offset="1" style="stop-color:#B99533"/>
				</linearGradient>
				<path style="fill:url(#SVGID_3_);" d="M152.517,101.437c0,0,3.021,1.272,4.401,3.222c1.379,1.949,1.288,4.817,1.288,4.817
					s-2.733-0.869-4.115-2.819C152.714,104.708,152.517,101.437,152.517,101.437z"/>
				
					<linearGradient id="SVGID_4_" gradientUnits="userSpaceOnUse" x1="106.4063" y1="112.0414" x2="272.7504" y2="357.6384" gradientTransform="matrix(1 0 0 1 0 -98)">
					<stop  offset="0" style="stop-color:#D6B43B"/>
					<stop  offset="1" style="stop-color:#B99533"/>
				</linearGradient>
				<path style="fill:url(#SVGID_4_);" d="M199.764,148.681c0,0-1.272-3.02-3.222-4.4c-1.947-1.379-4.817-1.288-4.817-1.288
					s0.87,2.735,2.819,4.115C196.492,148.485,199.764,148.681,199.764,148.681z"/>
			</g>
			<g>
				
					<linearGradient id="SVGID_5_" gradientUnits="userSpaceOnUse" x1="122.5821" y1="101.0706" x2="288.9416" y2="346.6902" gradientTransform="matrix(1 0 0 1 0 -98)">
					<stop  offset="0" style="stop-color:#D6B43B"/>
					<stop  offset="1" style="stop-color:#B99533"/>
				</linearGradient>
				<path style="fill:url(#SVGID_5_);" d="M209.506,121.346c0,0-3.832-1.879-6.927-1.568c-3.095,0.312-5.834,2.852-5.834,2.852
					s3.193,1.944,6.286,1.632C206.124,123.951,209.506,121.346,209.506,121.346z"/>
				
					<linearGradient id="SVGID_6_" gradientUnits="userSpaceOnUse" x1="117.311" y1="104.6793" x2="283.6292" y2="350.238" gradientTransform="matrix(1 0 0 1 0 -98)">
					<stop  offset="0" style="stop-color:#D6B43B"/>
					<stop  offset="1" style="stop-color:#B99533"/>
				</linearGradient>
				<path style="fill:url(#SVGID_6_);" d="M179.855,91.694c0,0,1.879,3.832,1.568,6.927c-0.312,3.095-2.85,5.836-2.85,5.836
					s-1.945-3.193-1.633-6.287C177.25,95.074,179.855,91.694,179.855,91.694z"/>
			</g>
			
				<linearGradient id="SVGID_7_" gradientUnits="userSpaceOnUse" x1="118.6418" y1="103.7626" x2="284.9787" y2="349.349" gradientTransform="matrix(1 0 0 1 0 -98)">
				<stop  offset="0" style="stop-color:#D6B43B"/>
				<stop  offset="1" style="stop-color:#B99533"/>
			</linearGradient>
			<path style="fill:url(#SVGID_7_);" d="M181.462,118.208c7.221-7.219,16.4-14.87,16.4-14.87s-7.651,9.181-14.87,16.4
				c-3.187,3.189-6.468,6.17-9.136,8.504c3.466-0.24,15.61-1.57,22.591-8.552c8.205-8.204,10.298-25.236,10.298-25.236
				s-17.032,2.095-25.235,10.299c-6.982,6.982-8.311,19.126-8.552,22.591C175.292,124.676,178.272,121.396,181.462,118.208z"/>
			<g>
				
					<linearGradient id="SVGID_8_" gradientUnits="userSpaceOnUse" x1="112.8278" y1="107.7005" x2="279.1642" y2="353.2859" gradientTransform="matrix(1 0 0 1 0 -98)">
					<stop  offset="0" style="stop-color:#D6B43B"/>
					<stop  offset="1" style="stop-color:#B99533"/>
				</linearGradient>
				<path style="fill:url(#SVGID_8_);" d="M188.56,132.491c7.812,0.382,16.879,1.655,16.879,1.655s-9.145,0.383-16.959,0.001
					c-3.451-0.168-6.83-0.495-9.529-0.808c1.921,1.843,8.923,8.051,16.48,8.419c8.878,0.434,19.621-7.143,19.621-7.143
					s-9.954-8.588-18.831-9.022c-7.555-0.369-15.132,5.126-17.222,6.773C181.714,132.318,185.109,132.323,188.56,132.491z"/>
				
					<linearGradient id="SVGID_9_" gradientUnits="userSpaceOnUse" x1="106.1187" y1="112.2435" x2="272.4579" y2="357.8331" gradientTransform="matrix(1 0 0 1 0 -98)">
					<stop  offset="0" style="stop-color:#D6B43B"/>
					<stop  offset="1" style="stop-color:#B99533"/>
				</linearGradient>
				<path style="fill:url(#SVGID_9_);" d="M168.709,112.641c-0.382-7.812-1.655-16.879-1.655-16.879s-0.383,9.146-0.001,16.96
					c0.169,3.451,0.497,6.83,0.809,9.529c-1.842-1.921-8.051-8.924-8.419-16.479c-0.434-8.878,7.142-19.621,7.142-19.621
					s8.588,9.954,9.022,18.831c0.37,7.555-5.126,15.131-6.773,17.222C168.881,119.487,168.879,116.09,168.709,112.641z"/>
			</g>
			
				<linearGradient id="SVGID_10_" gradientUnits="userSpaceOnUse" x1="90.5157" y1="122.8132" x2="256.8518" y2="368.398" gradientTransform="matrix(1 0 0 1 0 -98)">
				<stop  offset="0" style="stop-color:#D6B43B"/>
				<stop  offset="1" style="stop-color:#B99533"/>
			</linearGradient>
			<path style="fill:url(#SVGID_10_);" d="M172.424,130.138c-4.174,4.173-8.214,6.852-8.214,6.852s2.679-4.041,6.853-8.214
				c0.163-0.164,0.327-0.324,0.49-0.483c-1.829-1.699-4.239-4.012-5.786-4.012c-1.544,0-3.367,1.229-4.571,2.433
				c-4.743,4.743-2.873,16.162-2.873,16.162s11.421,1.87,16.162-2.873c1.205-1.205,2.433-2.602,2.433-4.571
				s-2.312-3.958-4.012-5.786C172.746,129.812,172.587,129.976,172.424,130.138z"/>
			<g>
				
					<linearGradient id="SVGID_11_" gradientUnits="userSpaceOnUse" x1="101.4951" y1="115.3027" x2="267.8917" y2="360.9769" gradientTransform="matrix(1 0 0 1 0 -98)">
					<stop  offset="0" style="stop-color:#D6B43B"/>
					<stop  offset="1" style="stop-color:#B99533"/>
				</linearGradient>
				<path style="fill:url(#SVGID_11_);" d="M199.856,153.747c0,0-1.272,3.02-3.222,4.4c-1.947,1.379-4.817,1.29-4.817,1.29
					s0.87-2.736,2.819-4.115C196.584,153.942,199.856,153.747,199.856,153.747z"/>
				
					<linearGradient id="SVGID_12_" gradientUnits="userSpaceOnUse" x1="55.1049" y1="146.8128" x2="221.4283" y2="392.3792" gradientTransform="matrix(1 0 0 1 0 -98)">
					<stop  offset="0" style="stop-color:#D6B43B"/>
					<stop  offset="1" style="stop-color:#B99533"/>
				</linearGradient>
				<path style="fill:url(#SVGID_12_);" d="M152.61,200.992c0,0,3.021-1.272,4.401-3.219c1.379-1.949,1.288-4.818,1.288-4.818
					s-2.733,0.869-4.115,2.819C152.806,197.723,152.61,200.992,152.61,200.992z"/>
			</g>
			<g>
				
					<linearGradient id="SVGID_13_" gradientUnits="userSpaceOnUse" x1="68.0456" y1="138.0082" x2="234.3981" y2="383.6173" gradientTransform="matrix(1 0 0 1 0 -98)">
					<stop  offset="0" style="stop-color:#D6B43B"/>
					<stop  offset="1" style="stop-color:#B99533"/>
				</linearGradient>
				<path style="fill:url(#SVGID_13_);" d="M179.946,210.736c0,0,1.879-3.831,1.568-6.927c-0.312-3.093-2.85-5.836-2.85-5.836
					s-1.945,3.193-1.633,6.287C177.341,207.354,179.946,210.736,179.946,210.736z"/>
				
					<linearGradient id="SVGID_14_" gradientUnits="userSpaceOnUse" x1="95.5312" y1="119.4494" x2="261.8439" y2="364.9998" gradientTransform="matrix(1 0 0 1 0 -98)">
					<stop  offset="0" style="stop-color:#D6B43B"/>
					<stop  offset="1" style="stop-color:#B99533"/>
				</linearGradient>
				<path style="fill:url(#SVGID_14_);" d="M209.598,181.082c0,0-3.831,1.879-6.927,1.57c-3.095-0.312-5.834-2.853-5.834-2.853
					s3.193-1.942,6.286-1.632C206.217,178.479,209.598,181.082,209.598,181.082z"/>
			</g>
			
				<linearGradient id="SVGID_15_" gradientUnits="userSpaceOnUse" x1="81.2921" y1="129.0615" x2="247.6271" y2="374.6449" gradientTransform="matrix(1 0 0 1 0 -98)">
				<stop  offset="0" style="stop-color:#D6B43B"/>
				<stop  offset="1" style="stop-color:#B99533"/>
			</linearGradient>
			<path style="fill:url(#SVGID_15_);" d="M183.084,182.691c7.221,7.219,14.87,16.399,14.87,16.399s-9.181-7.651-16.4-14.87
				c-3.187-3.187-6.169-6.468-8.504-9.135c0.24,3.465,1.571,15.609,8.552,22.591c8.204,8.204,25.238,10.298,25.238,10.298
				s-2.095-17.032-10.3-25.235c-6.98-6.982-19.125-8.312-22.591-8.552C176.615,176.521,179.895,179.501,183.084,182.691z"/>
			<g>
				
					<linearGradient id="SVGID_16_" gradientUnits="userSpaceOnUse" x1="63.002" y1="141.4427" x2="229.3428" y2="387.0348" gradientTransform="matrix(1 0 0 1 0 -98)">
					<stop  offset="0" style="stop-color:#D6B43B"/>
					<stop  offset="1" style="stop-color:#B99533"/>
				</linearGradient>
				<path style="fill:url(#SVGID_16_);" d="M168.802,189.789c-0.383,7.812-1.656,16.879-1.656,16.879s-0.383-9.146-0.001-16.96
					c0.169-3.449,0.497-6.83,0.809-9.528c-1.842,1.919-8.051,8.923-8.419,16.479c-0.434,8.878,7.144,19.621,7.144,19.621
					s8.587-9.953,9.021-18.831c0.37-7.554-5.126-15.132-6.773-17.222C168.975,182.943,168.971,186.337,168.802,189.789z"/>
				
					<linearGradient id="SVGID_17_" gradientUnits="userSpaceOnUse" x1="96.6706" y1="118.6341" x2="263.0148" y2="364.231" gradientTransform="matrix(1 0 0 1 0 -98)">
					<stop  offset="0" style="stop-color:#D6B43B"/>
					<stop  offset="1" style="stop-color:#B99533"/>
				</linearGradient>
				<path style="fill:url(#SVGID_17_);" d="M188.651,169.938c7.812-0.382,16.879-1.655,16.879-1.655s-9.146-0.383-16.959,0
					c-3.451,0.167-6.83,0.495-9.529,0.806c1.921-1.842,8.923-8.049,16.48-8.419c8.878-0.432,19.621,7.144,19.621,7.144
					s-9.953,8.587-18.831,9.022c-7.554,0.368-15.131-5.127-17.219-6.774C181.806,170.109,185.201,170.107,188.651,169.938z"/>
			</g>
			
				<linearGradient id="SVGID_18_" gradientUnits="userSpaceOnUse" x1="76.6387" y1="132.2256" x2="242.9628" y2="377.7928" gradientTransform="matrix(1 0 0 1 0 -98)">
				<stop  offset="0" style="stop-color:#D6B43B"/>
				<stop  offset="1" style="stop-color:#B99533"/>
			</linearGradient>
			<path style="fill:url(#SVGID_18_);" d="M171.155,173.653c-4.173-4.174-6.853-8.214-6.853-8.214s4.041,2.679,8.214,6.852
				c0.164,0.164,0.323,0.327,0.482,0.49c1.699-1.826,4.012-4.239,4.012-5.786c0-1.547-1.229-3.368-2.433-4.571
				c-4.743-4.743-16.162-2.875-16.162-2.875s-1.868,11.421,2.873,16.164c1.205,1.203,2.604,2.434,4.571,2.434
				c1.968,0,3.958-2.314,5.786-4.012C171.48,173.976,171.316,173.814,171.155,173.653z"/>
			<g>
				
					<linearGradient id="SVGID_19_" gradientUnits="userSpaceOnUse" x1="93.6094" y1="120.7244" x2="259.9398" y2="366.3009" gradientTransform="matrix(1 0 0 1 0 -98)">
					<stop  offset="0" style="stop-color:#D6B43B"/>
					<stop  offset="1" style="stop-color:#B99533"/>
				</linearGradient>
				<path style="fill:url(#SVGID_19_);" d="M185.665,160.394c0.36-0.407,0.865-1.107,1.332-2.194
					c0.524-1.104,0.902-2.328,1.039-3.687c0.07-0.696,0.113-1.355,0.14-1.983c0.065-1.311,0.037-2.805-0.134-4.512
					c-0.15-1.514-0.6-2.861-1.22-4.057c-0.368-0.778-0.749-1.328-1.051-1.693c-2.234-3.064-5.412-4.857-6.404-5.646
					c0.81,2.027,1.129,4.481,3.972,9.478c0.005,0.008,0.009,0.014,0.013,0.023c0.847,1.487,1.355,2.76,1.655,3.822
					c0.134,0.474,0.225,0.908,0.286,1.296c-0.059,0.392-0.15,0.831-0.286,1.315c-0.298,1.066-0.808,2.349-1.662,3.851
					c-0.001,0.003-0.003,0.004-0.005,0.008c-2.849,5.008-3.171,7.462-3.982,9.491C180.337,165.128,183.436,163.377,185.665,160.394z
					"/>
				
					<linearGradient id="SVGID_20_" gradientUnits="userSpaceOnUse" x1="92.3359" y1="121.5774" x2="258.6744" y2="367.1661" gradientTransform="matrix(1 0 0 1 0 -98)">
					<stop  offset="0" style="stop-color:#D6B43B"/>
					<stop  offset="1" style="stop-color:#B99533"/>
				</linearGradient>
				<path style="fill:url(#SVGID_20_);" d="M182.831,155.416c0.89-1.517,1.46-2.992,1.821-4.166
					c-0.361-1.171-0.934-2.642-1.823-4.152c-0.128-0.219-0.265-0.439-0.406-0.658c-2.371-3.659-2.993-7.531-3.602-9.632
					c0.023,2.903-4.696,5.696,0.303,12.639c0.444,0.617,0.859,1.222,1.246,1.809c-0.389,0.593-0.806,1.201-1.254,1.821
					c-4.999,6.945-0.28,9.737-0.303,12.639c0.609-2.101,1.231-5.972,3.602-9.632C182.561,155.864,182.699,155.639,182.831,155.416z"
					/>
			</g>
			<g>
				
					<linearGradient id="SVGID_21_" gradientUnits="userSpaceOnUse" x1="47.594" y1="151.8865" x2="213.9282" y2="397.4689" gradientTransform="matrix(1 0 0 1 0 -98)">
					<stop  offset="0" style="stop-color:#D6B43B"/>
					<stop  offset="1" style="stop-color:#B99533"/>
				</linearGradient>
				<path style="fill:url(#SVGID_21_);" d="M147.482,201.176c0,0-3.02-1.272-4.398-3.221c-1.38-1.949-1.291-4.818-1.291-4.818
					s2.736,0.87,4.116,2.819C147.286,197.905,147.482,201.176,147.482,201.176z"/>
				
					<linearGradient id="SVGID_22_" gradientUnits="userSpaceOnUse" x1="38.7157" y1="157.9022" x2="205.0464" y2="403.4792" gradientTransform="matrix(1 0 0 1 0 -98)">
					<stop  offset="0" style="stop-color:#D6B43B"/>
					<stop  offset="1" style="stop-color:#B99533"/>
				</linearGradient>
				<path style="fill:url(#SVGID_22_);" d="M100.236,153.93c0,0,1.272,3.02,3.221,4.398c1.951,1.38,4.818,1.291,4.818,1.291
					s-0.87-2.736-2.817-4.116C103.507,154.126,100.236,153.93,100.236,153.93z"/>
			</g>
			<g>
				
					<linearGradient id="SVGID_23_" gradientUnits="userSpaceOnUse" x1="22.5313" y1="168.8632" x2="188.8638" y2="414.4429" gradientTransform="matrix(1 0 0 1 0 -98)">
					<stop  offset="0" style="stop-color:#D6B43B"/>
					<stop  offset="1" style="stop-color:#B99533"/>
				</linearGradient>
				<path style="fill:url(#SVGID_23_);" d="M90.493,181.267c0,0,3.832,1.879,6.927,1.568c3.095-0.312,5.836-2.85,5.836-2.85
					s-3.193-1.942-6.287-1.633C93.875,178.661,90.493,181.267,90.493,181.267z"/>
				
					<linearGradient id="SVGID_24_" gradientUnits="userSpaceOnUse" x1="27.8156" y1="165.2693" x2="194.1614" y2="410.8686" gradientTransform="matrix(1 0 0 1 0 -98)">
					<stop  offset="0" style="stop-color:#D6B43B"/>
					<stop  offset="1" style="stop-color:#B99533"/>
				</linearGradient>
				<path style="fill:url(#SVGID_24_);" d="M120.147,210.919c0,0-1.879-3.834-1.568-6.927c0.312-3.096,2.85-5.838,2.85-5.838
					s1.942,3.193,1.632,6.287C122.751,207.537,120.147,210.919,120.147,210.919z"/>
			</g>
			
				<linearGradient id="SVGID_25_" gradientUnits="userSpaceOnUse" x1="26.486" y1="166.1912" x2="192.8127" y2="411.7622" gradientTransform="matrix(1 0 0 1 0 -98)">
				<stop  offset="0" style="stop-color:#D6B43B"/>
				<stop  offset="1" style="stop-color:#B99533"/>
			</linearGradient>
			<path style="fill:url(#SVGID_25_);" d="M118.538,184.405c-7.219,7.219-16.4,14.869-16.4,14.869s7.651-9.181,14.87-16.399
				c3.189-3.189,6.468-6.17,9.136-8.504c-3.465,0.239-15.609,1.571-22.591,8.551c-8.204,8.205-10.298,25.238-10.298,25.238
				s17.031-2.095,25.235-10.3c6.98-6.98,8.311-19.126,8.551-22.591C124.706,177.936,121.728,181.215,118.538,184.405z"/>
			<g>
				
					<linearGradient id="SVGID_26_" gradientUnits="userSpaceOnUse" x1="32.2938" y1="162.2455" x2="198.632" y2="407.8337" gradientTransform="matrix(1 0 0 1 0 -98)">
					<stop  offset="0" style="stop-color:#D6B43B"/>
					<stop  offset="1" style="stop-color:#B99533"/>
				</linearGradient>
				<path style="fill:url(#SVGID_26_);" d="M111.439,170.122c-7.812-0.383-16.879-1.655-16.879-1.655s9.146-0.383,16.96-0.001
					c3.449,0.167,6.83,0.495,9.528,0.808c-1.919-1.842-8.924-8.051-16.479-8.419c-8.879-0.432-19.621,7.144-19.621,7.144
					s9.953,8.587,18.831,9.019c7.558,0.37,15.132-5.126,17.223-6.773C118.286,170.294,114.891,170.29,111.439,170.122z"/>
				
					<linearGradient id="SVGID_27_" gradientUnits="userSpaceOnUse" x1="39.0058" y1="157.7079" x2="205.336" y2="403.2844" gradientTransform="matrix(1 0 0 1 0 -98)">
					<stop  offset="0" style="stop-color:#D6B43B"/>
					<stop  offset="1" style="stop-color:#B99533"/>
				</linearGradient>
				<path style="fill:url(#SVGID_27_);" d="M131.291,189.972c0.382,7.813,1.655,16.88,1.655,16.88s0.383-9.149,0.001-16.96
					c-0.169-3.451-0.495-6.83-0.809-9.528c1.843,1.919,8.051,8.923,8.42,16.479c0.432,8.878-7.144,19.621-7.144,19.621
					s-8.588-9.952-9.021-18.831c-0.37-7.554,5.125-15.131,6.773-17.219C131.118,183.126,131.122,186.521,131.291,189.972z"/>
			</g>
			
				<linearGradient id="SVGID_28_" gradientUnits="userSpaceOnUse" x1="54.6109" y1="147.1353" x2="220.9441" y2="392.7158" gradientTransform="matrix(1 0 0 1 0 -98)">
				<stop  offset="0" style="stop-color:#D6B43B"/>
				<stop  offset="1" style="stop-color:#B99533"/>
			</linearGradient>
			<path style="fill:url(#SVGID_28_);" d="M127.577,172.474c4.173-4.174,8.213-6.852,8.213-6.852s-2.677,4.038-6.852,8.213
				c-0.163,0.164-0.327,0.323-0.49,0.483c1.829,1.699,4.239,4.014,5.786,4.014c1.545-0.001,3.367-1.231,4.571-2.434
				c4.743-4.743,2.873-16.162,2.873-16.162s-11.421-1.871-16.162,2.873c-1.203,1.203-2.433,2.602-2.434,4.571
				c0.001,1.968,2.314,3.957,4.014,5.786C127.254,172.799,127.414,172.637,127.577,172.474z"/>
			<g>
				
					<linearGradient id="SVGID_29_" gradientUnits="userSpaceOnUse" x1="43.6067" y1="154.6105" x2="209.9106" y2="400.1482" gradientTransform="matrix(1 0 0 1 0 -98)">
					<stop  offset="0" style="stop-color:#D6B43B"/>
					<stop  offset="1" style="stop-color:#B99533"/>
				</linearGradient>
				<path style="fill:url(#SVGID_29_);" d="M100.144,148.864c0,0,1.272-3.02,3.221-4.401c1.949-1.38,4.818-1.29,4.818-1.29
					s-0.87,2.736-2.817,4.115C103.416,148.668,100.144,148.864,100.144,148.864z"/>
				
					<linearGradient id="SVGID_30_" gradientUnits="userSpaceOnUse" x1="90.0317" y1="123.154" x2="256.3496" y2="368.7121" gradientTransform="matrix(1 0 0 1 0 -98)">
					<stop  offset="0" style="stop-color:#D6B43B"/>
					<stop  offset="1" style="stop-color:#B99533"/>
				</linearGradient>
				<path style="fill:url(#SVGID_30_);" d="M147.39,101.62c0,0-3.02,1.272-4.401,3.221c-1.379,1.949-1.29,4.818-1.29,4.818
					s2.736-0.87,4.116-2.819C147.194,104.891,147.39,101.62,147.39,101.62z"/>
			</g>
			<g>
				
					<linearGradient id="SVGID_31_" gradientUnits="userSpaceOnUse" x1="77.0674" y1="131.9236" x2="243.4009" y2="377.5047" gradientTransform="matrix(1 0 0 1 0 -98)">
					<stop  offset="0" style="stop-color:#D6B43B"/>
					<stop  offset="1" style="stop-color:#B99533"/>
				</linearGradient>
				<path style="fill:url(#SVGID_31_);" d="M120.054,91.877c0,0-1.879,3.832-1.568,6.927c0.312,3.095,2.85,5.836,2.85,5.836
					s1.942-3.193,1.633-6.287S120.054,91.877,120.054,91.877z"/>
				
					<linearGradient id="SVGID_32_" gradientUnits="userSpaceOnUse" x1="49.601" y1="150.5098" x2="215.9614" y2="396.1308" gradientTransform="matrix(1 0 0 1 0 -98)">
					<stop  offset="0" style="stop-color:#D6B43B"/>
					<stop  offset="1" style="stop-color:#B99533"/>
				</linearGradient>
				<path style="fill:url(#SVGID_32_);" d="M90.401,121.528c0,0,3.832-1.879,6.927-1.568c3.093,0.312,5.836,2.853,5.836,2.853
					s-3.193,1.944-6.287,1.632C93.783,124.134,90.401,121.528,90.401,121.528z"/>
			</g>
			
				<linearGradient id="SVGID_33_" gradientUnits="userSpaceOnUse" x1="63.8327" y1="140.887" x2="230.1679" y2="386.4705" gradientTransform="matrix(1 0 0 1 0 -98)">
				<stop  offset="0" style="stop-color:#D6B43B"/>
				<stop  offset="1" style="stop-color:#B99533"/>
			</linearGradient>
			<path style="fill:url(#SVGID_33_);" d="M116.916,119.922c-7.221-7.219-14.87-16.4-14.87-16.4s9.181,7.651,16.4,14.87
				c3.189,3.187,6.169,6.468,8.504,9.136c-0.24-3.466-1.571-15.609-8.552-22.591c-8.204-8.204-25.235-10.298-25.235-10.298
				s2.095,17.032,10.298,25.235c6.982,6.983,19.126,8.311,22.591,8.552C123.384,126.09,120.105,123.11,116.916,119.922z"/>
			<g>
				
					<linearGradient id="SVGID_34_" gradientUnits="userSpaceOnUse" x1="82.1178" y1="128.4963" x2="248.4614" y2="374.0924" gradientTransform="matrix(1 0 0 1 0 -98)">
					<stop  offset="0" style="stop-color:#D6B43B"/>
					<stop  offset="1" style="stop-color:#B99533"/>
				</linearGradient>
				<path style="fill:url(#SVGID_34_);" d="M131.198,112.823c0.382-7.812,1.655-16.879,1.655-16.879s0.383,9.146,0.001,16.96
					c-0.169,3.451-0.495,6.83-0.808,9.529c1.843-1.919,8.053-8.924,8.42-16.479c0.432-8.878-7.144-19.621-7.144-19.621
					s-8.588,9.954-9.019,18.831c-0.37,7.555,5.125,15.131,6.773,17.222C131.027,119.67,131.03,116.275,131.198,112.823z"/>
				
					<linearGradient id="SVGID_35_" gradientUnits="userSpaceOnUse" x1="48.4496" y1="151.3069" x2="214.7831" y2="396.8882" gradientTransform="matrix(1 0 0 1 0 -98)">
					<stop  offset="0" style="stop-color:#D6B43B"/>
					<stop  offset="1" style="stop-color:#B99533"/>
				</linearGradient>
				<path style="fill:url(#SVGID_35_);" d="M111.347,132.674c-7.812,0.383-16.879,1.655-16.879,1.655s9.149,0.383,16.96,0.001
					c3.451-0.169,6.83-0.496,9.528-0.808c-1.919,1.843-8.923,8.051-16.479,8.419c-8.879,0.434-19.621-7.142-19.621-7.142
					s9.953-8.589,18.831-9.022c7.555-0.369,15.131,5.126,17.222,6.773C118.194,132.502,114.799,132.506,111.347,132.674z"/>
			</g>
			
				<linearGradient id="SVGID_36_" gradientUnits="userSpaceOnUse" x1="68.49" y1="137.7301" x2="234.8275" y2="383.3171" gradientTransform="matrix(1 0 0 1 0 -98)">
				<stop  offset="0" style="stop-color:#D6B43B"/>
				<stop  offset="1" style="stop-color:#B99533"/>
			</linearGradient>
			<path style="fill:url(#SVGID_36_);" d="M128.847,128.96c4.174,4.174,6.852,8.214,6.852,8.214s-4.041-2.679-8.214-6.852
				c-0.163-0.163-0.323-0.326-0.482-0.49c-1.699,1.828-4.014,4.239-4.014,5.786c0.001,1.544,1.23,3.367,2.434,4.571
				c4.743,4.743,16.162,2.873,16.162,2.873s1.871-11.421-2.873-16.162c-1.205-1.203-2.602-2.433-4.571-2.433
				c-1.968,0.001-3.957,2.314-5.786,4.013C128.52,128.637,128.682,128.797,128.847,128.96z"/>
			<g>
				
					<linearGradient id="SVGID_37_" gradientUnits="userSpaceOnUse" x1="51.5213" y1="149.2349" x2="217.845" y2="394.8018" gradientTransform="matrix(1 0 0 1 0 -98)">
					<stop  offset="0" style="stop-color:#D6B43B"/>
					<stop  offset="1" style="stop-color:#B99533"/>
				</linearGradient>
				<path style="fill:url(#SVGID_37_);" d="M114.334,142.217c-0.359,0.408-0.864,1.108-1.332,2.197
					c-0.524,1.103-0.902,2.328-1.038,3.687c-0.07,0.698-0.116,1.355-0.14,1.984c-0.067,1.309-0.038,2.802,0.132,4.509
					c0.15,1.512,0.599,2.862,1.22,4.057c0.368,0.778,0.749,1.327,1.051,1.692c2.235,3.064,5.411,4.857,6.407,5.647
					c-0.811-2.03-1.131-4.481-3.974-9.478c-0.004-0.008-0.008-0.015-0.013-0.023c-0.846-1.486-1.353-2.76-1.654-3.821
					c-0.134-0.477-0.226-0.909-0.287-1.299c0.06-0.392,0.153-0.829,0.287-1.314c0.298-1.066,0.808-2.351,1.661-3.85
					c0.003-0.003,0.004-0.005,0.004-0.008c2.853-5.008,3.171-7.462,3.982-9.492C119.663,137.484,116.562,139.235,114.334,142.217z"
					/>
				
					<linearGradient id="SVGID_38_" gradientUnits="userSpaceOnUse" x1="52.7847" y1="148.3638" x2="219.1263" y2="393.9569" gradientTransform="matrix(1 0 0 1 0 -98)">
					<stop  offset="0" style="stop-color:#D6B43B"/>
					<stop  offset="1" style="stop-color:#B99533"/>
				</linearGradient>
				<path style="fill:url(#SVGID_38_);" d="M117.17,147.196c-0.892,1.516-1.463,2.99-1.823,4.164
					c0.363,1.174,0.934,2.643,1.823,4.154c0.128,0.217,0.263,0.438,0.406,0.658c2.372,3.661,2.993,7.531,3.602,9.632
					c-0.024-2.903,4.696-5.696-0.301-12.639c-0.444-0.617-0.86-1.221-1.246-1.809c0.389-0.593,0.806-1.201,1.254-1.823
					c4.997-6.942,0.277-9.734,0.303-12.639c-0.609,2.102-1.231,5.972-3.603,9.632C117.437,146.748,117.3,146.972,117.17,147.196z"/>
			</g>
			<g>
				
					<linearGradient id="SVGID_39_" gradientUnits="userSpaceOnUse" x1="58.9614" y1="144.1896" x2="225.2938" y2="389.7691" gradientTransform="matrix(1 0 0 1 0 -98)">
					<stop  offset="0" style="stop-color:#D6B43B"/>
					<stop  offset="1" style="stop-color:#B99533"/>
				</linearGradient>
				<path style="fill:url(#SVGID_39_);" d="M140.911,186.971c0.408,0.357,1.108,0.864,2.195,1.33
					c1.103,0.524,2.328,0.902,3.687,1.039c0.696,0.069,1.355,0.113,1.983,0.139c1.31,0.067,2.805,0.039,4.513-0.132
					c1.512-0.153,2.859-0.6,4.056-1.221c0.78-0.37,1.328-0.749,1.693-1.051c3.065-2.235,4.858-5.412,5.646-6.407
					c-2.027,0.81-4.481,1.129-9.477,3.974c-0.008,0.004-0.015,0.006-0.023,0.011c-1.486,0.847-2.76,1.355-3.821,1.654
					c-0.476,0.134-0.909,0.228-1.297,0.287c-0.393-0.059-0.832-0.15-1.315-0.286c-1.066-0.298-2.351-0.808-3.851-1.662
					c-0.003-0.001-0.005-0.003-0.008-0.004c-5.008-2.853-7.462-3.171-9.492-3.982C136.178,181.643,137.928,184.743,140.911,186.971z
					"/>
				
					<linearGradient id="SVGID_40_" gradientUnits="userSpaceOnUse" x1="59.2143" y1="144.022" x2="225.5433" y2="389.5963" gradientTransform="matrix(1 0 0 1 0 -98)">
					<stop  offset="0" style="stop-color:#D6B43B"/>
					<stop  offset="1" style="stop-color:#B99533"/>
				</linearGradient>
				<path style="fill:url(#SVGID_40_);" d="M145.889,184.135c1.517,0.892,2.992,1.464,4.164,1.823
					c1.174-0.363,2.643-0.934,4.154-1.823c0.217-0.127,0.438-0.263,0.658-0.404c3.661-2.372,7.532-2.994,9.632-3.603
					c-2.903,0.024-5.696-4.696-12.64,0.303c-0.617,0.444-1.221,0.86-1.809,1.246c-0.593-0.389-1.201-0.806-1.821-1.255
					c-6.945-4.997-9.735-0.276-12.64-0.301c2.101,0.609,5.972,1.231,9.632,3.603C145.441,183.868,145.668,184.005,145.889,184.135z"
					/>
			</g>
			<g>
				
					<linearGradient id="SVGID_41_" gradientUnits="userSpaceOnUse" x1="86.1683" y1="125.7613" x2="252.4999" y2="371.3397" gradientTransform="matrix(1 0 0 1 0 -98)">
					<stop  offset="0" style="stop-color:#D6B43B"/>
					<stop  offset="1" style="stop-color:#B99533"/>
				</linearGradient>
				<path style="fill:url(#SVGID_41_);" d="M159.089,115.64c-0.408-0.359-1.108-0.864-2.197-1.33
					c-1.103-0.524-2.328-0.902-3.687-1.038c-0.696-0.07-1.353-0.114-1.98-0.14c-1.31-0.067-2.805-0.038-4.513,0.131
					c-1.512,0.153-2.862,0.6-4.057,1.221c-0.778,0.369-1.327,0.749-1.693,1.051c-3.064,2.235-4.857,5.412-5.646,6.405
					c2.03-0.81,4.481-1.131,9.478-3.974c0.008-0.004,0.015-0.008,0.023-0.013c1.486-0.847,2.76-1.355,3.821-1.654
					c0.476-0.134,0.908-0.226,1.297-0.287c0.392,0.059,0.832,0.15,1.315,0.286c1.066,0.298,2.351,0.808,3.851,1.662
					c0.001,0.001,0.005,0.003,0.006,0.004c5.008,2.852,7.462,3.171,9.494,3.982C163.823,120.97,162.071,117.87,159.089,115.64z"/>
				
					<linearGradient id="SVGID_42_" gradientUnits="userSpaceOnUse" x1="85.9119" y1="125.9322" x2="252.248" y2="371.5173" gradientTransform="matrix(1 0 0 1 0 -98)">
					<stop  offset="0" style="stop-color:#D6B43B"/>
					<stop  offset="1" style="stop-color:#B99533"/>
				</linearGradient>
				<path style="fill:url(#SVGID_42_);" d="M154.11,118.475c-1.516-0.89-2.99-1.463-4.164-1.821
					c-1.174,0.363-2.644,0.932-4.154,1.823c-0.218,0.128-0.438,0.263-0.658,0.406c-3.661,2.372-7.532,2.994-9.632,3.603
					c2.905-0.024,5.696,4.696,12.64-0.303c0.617-0.444,1.221-0.859,1.809-1.246c0.59,0.389,1.199,0.806,1.821,1.254
					c6.943,4.999,9.737,0.279,12.639,0.303c-2.101-0.609-5.972-1.23-9.632-3.603C154.557,118.744,154.333,118.606,154.11,118.475z"
					/>
			</g>
		</g>
		<g>
			
				<linearGradient id="SVGID_43_" gradientUnits="userSpaceOnUse" x1="1.6259" y1="183.0096" x2="167.9786" y2="428.6193" gradientTransform="matrix(1 0 0 1 0 -98)">
				<stop  offset="0" style="stop-color:#D6B43B"/>
				<stop  offset="1" style="stop-color:#B99533"/>
			</linearGradient>
			<circle style="fill:url(#SVGID_43_);" cx="44.875" cy="148.864" r="5.715"/>
			
				<linearGradient id="SVGID_44_" gradientUnits="userSpaceOnUse" x1="145.7652" y1="85.4012" x2="312.0941" y2="330.9758" gradientTransform="matrix(1 0 0 1 0 -98)">
				<stop  offset="0" style="stop-color:#D6B43B"/>
				<stop  offset="1" style="stop-color:#B99533"/>
			</linearGradient>
			<circle style="fill:url(#SVGID_44_);" cx="255.125" cy="148.864" r="5.715"/>
		</g>
	</g>
</g>
</svg>
