<?xml version="1.0" encoding="iso-8859-1"?>
<!-- Generator: Adobe Illustrator 22.1.0, SVG Export Plug-In . SVG Version: 6.00 Build 0)  -->
<svg version="1.1" id="Layer_1" xmlns="http://www.w3.org/2000/svg" xmlns:xlink="http://www.w3.org/1999/xlink" x="0px" y="0px"
	 viewBox="0 0 300 144" style="enable-background:new 0 0 300 144;" xml:space="preserve">
<path style="fill:#130C0E;" d="M38.387,67.413c1.775,0,3.199,1.424,3.199,3.197c0,1.779-1.424,3.198-3.199,3.198
	c-1.777,0-3.193-1.419-3.193-3.198C35.195,68.837,36.611,67.413,38.387,67.413 M36.251,83.613h4.27v32.82h-4.27V83.613z"/>
<path style="fill:#130C0E;" d="M48.333,92.846c0-2.414-0.356-7.531-0.356-9.233h4.263c0.065,2.418,0.137,5.12,0.28,5.754h0.218
	c1.696-3.623,5.896-6.605,11.221-6.605c10.231,0,12.498,6.963,12.498,14.132v19.54h-4.261V97.107c0-5.326-1.488-10.508-8.237-10.508
	c-6.322,0-11.367,4.401-11.367,13.42v16.414h-4.259V92.846"/>
<path style="fill:#130C0E;" d="M99.617,87.45h-9.373v21.376c0,2.912,1.699,4.617,4.544,4.617c1.631,0,3.337-0.495,4.829-1.135
	l0.352,3.837c-1.561,0.567-3.902,1.135-5.535,1.135c-6.112,0-8.459-3.765-8.459-8.454V87.45h-7.099v-3.837h7.099v-9.449h4.269v9.449
	h9.373V87.45"/>
<path style="fill:#130C0E;" d="M131.932,110.249c-3.332,4.97-8.378,7.031-14.201,7.031c-10.016,0-16.624-7.173-16.624-17.327
	c0-9.805,6.817-17.191,16.407-17.191c10.094,0,15.418,7.738,15.418,15.341v2.982h-27.564c0,3.555,2.49,12.359,12.433,12.359
	c4.334,0,8.878-2.266,11.008-5.822L131.932,110.249 M128.672,97.255c0-5.826-5.047-10.656-11.367-10.656
	c-9.309,0-11.937,8.949-11.937,10.656H128.672z"/>
<path style="fill:#130C0E;" d="M171.148,114.3c0,16.336-10.804,19.174-17.475,19.174c-6.607,0-12.927-2.55-16.271-6.885l3.345-3.122
	c2.98,4.187,7.811,6.174,12.927,6.174c13.001,0,13.21-11.364,13.21-15.059v-4.545h-0.144c-2.482,3.903-6.815,6.395-12.423,6.395
	c-9.662,0-17.553-7.606-17.553-16.84c0-9.233,7.891-16.832,17.553-16.832c5.608,0,9.941,2.486,12.423,6.395h0.144v-5.544h4.265
	V114.3 M154.025,86.599c-7.168,0-12.99,5.824-12.99,12.995c0,7.177,5.822,13,12.99,13c7.181,0,13.003-5.824,13.003-13
	C167.027,92.422,161.205,86.599,154.025,86.599z"/>
<path style="fill:#130C0E;" d="M177.33,92.846c0-2.414-0.362-7.531-0.362-9.233h4.265c0.072,2.418,0.144,5.12,0.288,5.754
	c2.131-3.831,5.536-6.605,10.441-6.605c0.855,0,1.631,0.14,2.486,0.356l-0.495,4.185c-0.64-0.204-1.211-0.28-1.635-0.28
	c-7.391,0-10.724,5.112-10.724,11.508v17.903h-4.263V92.846"/>
<path style="fill:#130C0E;" d="M210.867,82.761c10.085,0,17.259,7.247,17.259,17.257c0,10.019-7.175,17.261-17.259,17.261
	c-10.085,0-17.267-7.243-17.267-17.261C193.6,90.008,200.783,82.761,210.867,82.761 M210.867,113.443
	c8.03,0,12.998-6.028,12.998-13.424c0-7.387-4.968-13.42-12.998-13.42c-8.028,0-13.003,6.034-13.003,13.42
	C197.865,107.415,202.839,113.443,210.867,113.443z"/>
<path style="fill:#130C0E;" d="M261.159,107.196c0,2.418,0.352,7.529,0.352,9.237h-4.259c-0.07-2.418-0.146-5.122-0.284-5.76h-0.214
	c-1.707,3.627-5.896,6.607-11.22,6.607c-10.233,0-12.499-6.963-12.499-14.13V83.613h4.259v19.322c0,5.328,1.489,10.508,8.24,10.508
	c6.316,0,11.366-4.401,11.366-13.424V83.613h4.259V107.196"/>
<path style="fill:#130C0E;" d="M268.689,108.047c1.779,3.484,5.684,5.396,9.517,5.396c3.697,0,7.531-2.266,7.531-6.028
	c0-9.033-19.464-2.704-19.464-15.211c0-6.391,5.83-9.443,11.222-9.443c5.326,0,9.453,1.987,11.584,6.175l-3.837,2.278
	c-1.631-2.986-3.905-4.617-7.746-4.617c-3.052,0-6.957,1.845-6.957,5.256c0,8.876,19.462,1.987,19.462,15.267
	c0,6.747-5.606,10.158-11.861,10.158c-5.612,0-10.656-2.128-13.216-6.671L268.689,108.047"/>
<linearGradient id="SVGID_1_" gradientUnits="userSpaceOnUse" x1="59.869" y1="16.7304" x2="60.8922" y2="69.1717">
	<stop  offset="0" style="stop-color:#0071BB;stop-opacity:0.0379"/>
	<stop  offset="0.3495" style="stop-color:#0071BB;stop-opacity:0.5"/>
	<stop  offset="0.6022" style="stop-color:#0071BB;stop-opacity:0.5"/>
	<stop  offset="0.9624" style="stop-color:#0071BB;stop-opacity:0"/>
</linearGradient>
<path style="fill:url(#SVGID_1_);" d="M66.296,65.354c-2.175-0.438-3.858-1.315-5.153-2.543c-3.167-2.997-4.02-8.069-4.106-13.829
	c-0.006-0.346-0.008-0.694-0.008-1.043c0.002-1.744,0.062-3.54,0.142-5.356c0.063-1.438,0.139-2.89,0.204-4.33
	c0.086-1.851,0.158-3.688,0.172-5.473c0.002-0.215,0.004-0.428,0.004-0.641c0-7.165-1.02-13.41-5.924-16.167
	c0,0,3.409,3.909,3.407,11.939c-0.002,1.293-0.09,2.693-0.297,4.202c-0.051,0.381-0.149,0.924-0.225,1.291
	c-0.002,0.01-0.004,0.016-0.006,0.025c-0.471,2.195-0.85,4.252-1.142,6.177c-0.252,1.665-0.44,3.234-0.571,4.71
	c-0.16,1.783-0.234,3.434-0.234,4.96c0,0.349,0.005,0.686,0.013,1.021c0.348,15.079,8.282,17.418,13.067,17.428h0.076
	c1.459-0.004,2.613-0.223,3.158-0.354c0.086-0.021,0.156-0.039,0.209-0.056v-0.122L66.296,65.354z"/>
<linearGradient id="SVGID_2_" gradientUnits="userSpaceOnUse" x1="38.8336" y1="26.5404" x2="40.8801" y2="62.995">
	<stop  offset="0" style="stop-color:#0071BB"/>
	<stop  offset="1" style="stop-color:#0071BB;stop-opacity:0"/>
</linearGradient>
<path style="fill:url(#SVGID_2_);" d="M47.038,35.535l0.002-0.012c0.618-3.113,0.761-5.643,0.761-7.323
	c0-1.459-0.109-2.277-0.109-2.277c-0.325-6.537-4.931-9.695-9.672-9.695c-2.986,0-6.025,1.255-8.079,3.706l-0.002,0.004
	l-5.675-4.771l0.073-0.147C28.128,10.933,32.968,10,36.603,10c2.849,0,4.956,0.574,5.233,0.653c2.814,0.81,6.786,3.06,9.143,7.555
	c1.316,2.509,1.785,5.925,1.783,9.27c-0.002,2.345-0.233,4.656-0.569,6.596C51.323,34.341,48.344,35.154,47.038,35.535
	 M46.657,46.246c-0.029-0.598-0.045-1.215-0.045-1.858c0-0.719,0.018-1.466,0.059-2.245c0.523-0.174,1.12-0.367,1.589-0.545
	c0.885-0.323,1.901-0.737,3.02-1.18c-0.288,1.375-0.532,2.963-0.677,4.676C49.35,45.515,48.038,45.908,46.657,46.246 M53.227,60.839
	c0,0-4.171-1.907-5.888-9.423c1.136-0.175,2.2-0.386,3.211-0.615C50.79,54.232,51.567,57.763,53.227,60.839"/>
<linearGradient id="SVGID_3_" gradientUnits="userSpaceOnUse" x1="20.4833" y1="22.6029" x2="10.8902" y2="17.7423">
	<stop  offset="0" style="stop-color:#0071BB"/>
	<stop  offset="1" style="stop-color:#0071BB;stop-opacity:0"/>
</linearGradient>
<path style="fill:url(#SVGID_3_);" d="M79.293,40.008c-4.508-5.937-10.518-7.731-16.238-7.731c-1.89,0-3.745,0.196-5.508,0.503
	c-1.051,0.183-2.068,0.406-3.041,0.65c-0.805,0.202-1.578,0.422-2.308,0.643c-0.002,0-0.002,0.002-0.004,0.002
	c-0.87,0.268-3.849,1.08-5.155,1.461c-0.049,0.016-0.098,0.029-0.143,0.043c-2.716,0.824-5.088,1.359-7.396,1.359
	c-2.053,0-4.056-0.422-6.214-1.437c-3.91-2.156-5.761-6.086-5.757-9.281c0-0.489,0.045-0.961,0.131-1.407
	c0.375-1.947,1.195-3.567,2.282-4.872l-0.002-0.002l-5.675-4.771l-0.029-0.024c-1.809,1.998-3.371,4.713-4.437,8.427
	c-0.635-0.577-1.25-1.059-1.84-1.463c0,0-1.523-1-2.398-1.283c-1.185-0.389-2.22-0.532-3.089-0.532c-1.004,0-1.789,0.19-2.324,0.405
	C10.045,20.738,10,20.808,10,20.875c0,0.086,0.072,0.172,0.187,0.197c1.68,0.297,3.414,1.011,4.989,2.193
	c0,0,1.809,1.632,2.006,1.873c0.873,1.101,1.285,1.683,1.819,2.699c1.261,2.43,1.84,8.281,8.559,12.822
	c3.385,2.284,6.743,3.087,9.938,3.111h0.301c3.099-0.022,6.034-0.761,8.686-1.563c0.061-0.021,0.123-0.042,0.188-0.064
	c0.523-0.174,1.12-0.367,1.589-0.545c0.885-0.323,1.901-0.737,3.02-1.18c0.66-0.263,1.357-0.537,2.084-0.811
	c1.251-0.468,2.597-0.941,4.011-1.354c2.689-0.79,5.634-1.378,8.676-1.378c4.101,0,8.376,1.069,12.437,4.153
	c1.256,0.951,2.609,2.5,2.854,2.5c0.007,0,0.011,0,0.017-0.002c0.018-0.008,0.029-0.028,0.029-0.061
	C81.391,43.115,80.376,41.432,79.293,40.008z"/>
<linearGradient id="SVGID_4_" gradientUnits="userSpaceOnUse" x1="43.2884" y1="36.8904" x2="32.5443" y2="27.4253">
	<stop  offset="0" style="stop-color:#0071BB"/>
	<stop  offset="1" style="stop-color:#0071BB;stop-opacity:0"/>
</linearGradient>
<path style="fill:url(#SVGID_4_);" d="M81.047,48.276c-1.765-3.449-4.435-6.232-8.526-7.376c-1.945-0.547-3.507-0.767-5.123-0.767
	c-0.967,0-1.954,0.08-3.055,0.213c-2.165,0.27-4.519,1.168-7.173,2.236c-1.374,0.553-2.829,1.152-4.378,1.734
	c-0.711,0.264-1.439,0.526-2.19,0.777c-1.253,0.422-2.565,0.814-3.946,1.152c-2.771,0.677-5.814,1.13-9.184,1.13
	c-0.25,0-0.504-0.002-0.759-0.006c-7.771-0.16-13.349-6.696-14.46-8.08c-0.095-0.133-0.162-0.16-0.201-0.16
	c-0.025,0-0.037,0.013-0.037,0.013l0.035,0.288c4.828,7.793,9.043,10.359,13.849,11.623c2.089,0.549,4.451,0.711,6.456,0.711
	c2.052,0,3.731-0.168,4.37-0.256c0.206-0.031,0.411-0.06,0.614-0.092c1.136-0.175,2.2-0.386,3.211-0.615
	c0.698-0.16,1.369-0.33,2.022-0.504c1.58-0.424,3.043-0.881,4.465-1.316c3.3-1.006,6.379-1.881,10.202-1.881c0.051,0,0.1,0,0.151,0
	c4.187,0.029,7.233,2.01,8.88,4.817c0.857,1.466,1.238,2.947,1.233,4.366c-0.006,4.95-4.66,9.125-9.792,9.125
	c-1.082,0-2.184-0.193-3.269-0.595c-1.305-0.485-2.403-1.153-3.301-2.005c-0.324-0.287-0.641-0.599-0.952-0.937l-0.448-0.387
	l0.084,0.559c0.875,2.136,3.521,5.059,9.045,5.327c0.223,0.01,0.453,0.016,0.686,0.018h0.221c5.79-0.049,12.283-4.044,12.705-12.779
	c0.008-0.18,0.013-0.358,0.013-0.532v-0.133C82.485,51.71,81.876,49.899,81.047,48.276z M64.443,64.815
	c0.579,0.215,1.184,0.404,1.853,0.539C65.629,65.22,65.022,65.03,64.443,64.815z"/>
</svg>
