<?xml version="1.0" encoding="iso-8859-1"?>
<!-- Generator: Adobe Illustrator 22.1.0, SVG Export Plug-In . SVG Version: 6.00 Build 0)  -->
<svg version="1.1" id="Layer_1" xmlns="http://www.w3.org/2000/svg" xmlns:xlink="http://www.w3.org/1999/xlink" x="0px" y="0px"
	 viewBox="0 0 300 176" style="enable-background:new 0 0 300 176;" xml:space="preserve">
<g>
	<g>
		<path style="fill:#262626;" d="M5.463,112.536c0-1.198,0-2.396,0-3.595c1.065-0.102,2.131-0.203,3.196-0.302
			c1.503-0.141,1.987-0.662,1.987-1.903c0.003-7.055,0.006-14.109,0.009-21.164c0.001-1.241-0.484-1.711-1.99-1.69
			c-1.068,0.015-2.135,0.031-3.203,0.047c0-1.198,0-2.396,0-3.595c5.893-0.018,11.785-0.036,17.678-0.052
			c-0.002,1.134-0.003,2.268-0.005,3.402c-1.23,0.016-2.46,0.032-3.69,0.048c-1.506,0.019-1.991,0.493-1.992,1.709
			c-0.003,2.76-0.005,5.52-0.008,8.28c4.739-0.209,9.479-0.407,14.22-0.594c0.005-2.646,0.01-5.292,0.015-7.938
			c0.002-1.165-0.484-1.607-1.988-1.589c-1.23,0.015-2.46,0.03-3.691,0.046c0.002-1.124,0.003-2.249,0.005-3.373
			c5.893-0.016,11.786-0.031,17.679-0.044c-0.003,1.07-0.005,2.14-0.008,3.21c-1.069,0.012-2.138,0.023-3.206,0.035
			c-1.504,0.016-1.992,0.461-1.994,1.605c-0.014,6.496-0.029,12.992-0.043,19.488c-0.003,1.144,0.483,1.547,1.986,1.438
			c1.068-0.077,2.136-0.153,3.204-0.228c-0.003,1.07-0.005,2.14-0.008,3.21c-5.888,0.464-11.773,0.966-17.656,1.506
			c0.002-1.124,0.003-2.249,0.005-3.373c1.229-0.101,2.457-0.2,3.686-0.297c1.502-0.12,1.989-0.604,1.991-1.77
			c0.005-2.869,0.011-5.738,0.016-8.608c-4.74,0.232-9.479,0.477-14.217,0.737c-0.003,2.993-0.006,5.986-0.009,8.979
			c-0.001,1.217,0.482,1.641,1.986,1.51c1.228-0.106,2.456-0.21,3.685-0.313c-0.002,1.134-0.003,2.268-0.005,3.402
			C17.218,111.314,11.339,111.905,5.463,112.536z"/>
		<path style="fill:#262626;" d="M47.103,108.719c0.003-1.06,0.005-2.121,0.008-3.181c0.907-0.062,1.813-0.122,2.72-0.182
			c1.65-0.11,2.573-0.592,2.579-3.135c0.015-5.499,0.03-10.998,0.045-16.497c0.005-1.822-0.575-2.368-3.101-2.343
			c-0.729,0.007-1.458,0.015-2.187,0.023c0.003-1.06,0.005-2.121,0.008-3.181c10.686-0.024,21.371-0.044,32.057-0.06
			c-0.01,3.517-0.02,7.034-0.031,10.551c-1.198,0.026-2.397,0.053-3.595,0.08c-0.712-5.456-1.288-7.633-7.796-7.584
			c-2.85,0.024-5.699,0.049-8.549,0.075c-0.008,2.892-0.016,5.784-0.025,8.676c0.858-0.025,1.715-0.051,2.573-0.075
			c2.916-0.087,4.229-1.354,4.239-4.678c0.001-0.178,0.001-0.356,0.002-0.534c1.198-0.019,2.396-0.038,3.595-0.057
			c-0.013,4.537-0.027,9.074-0.04,13.611c-1.198,0.053-2.396,0.108-3.595,0.164c0.001-0.329,0.002-0.657,0.003-0.986
			c0.01-3.322-1.297-4.553-4.212-4.451c-0.858,0.031-1.715,0.062-2.573,0.094c-0.009,3.239-0.018,6.479-0.028,9.718
			c3.237-0.194,6.475-0.377,9.714-0.55c4.468-0.243,6.225-2.623,6.678-8.632c1.198-0.039,2.397-0.077,3.595-0.114
			c-0.011,3.73-0.022,7.461-0.032,11.191C68.466,107.22,57.781,107.906,47.103,108.719z"/>
		<path style="fill:#262626;" d="M82.3,106.499c0.003-0.98,0.006-1.96,0.008-2.94c0.81-0.036,1.62-0.072,2.43-0.106
			c1.995-0.086,2.772-0.51,2.775-1.533c0.016-5.695,0.032-11.39,0.047-17.085c0.003-0.983-0.577-1.767-2.471-1.755
			c-0.907,0.006-1.815,0.012-2.722,0.018c0.003-0.98,0.006-1.96,0.008-2.94c5.732-0.008,11.463-0.016,17.195-0.022
			c-0.002,0.953-0.005,1.906-0.007,2.859c-0.712,0.004-1.424,0.007-2.136,0.011c-1.556,0.008-3.061,0.405-3.065,1.886
			c-0.014,5.424-0.028,10.849-0.043,16.273c-0.003,1.246,0.724,1.88,2.376,1.821c0.94-0.033,1.879-0.065,2.819-0.096
			c-0.002,0.953-0.005,1.906-0.007,2.859C93.77,105.962,88.034,106.212,82.3,106.499z"/>
		<path style="fill:#262626;" d="M103.055,105.621c0.002-0.948,0.004-1.897,0.007-2.845c1.135-0.035,2.269-0.069,3.404-0.101
			c1.505-0.043,1.994-0.437,1.996-1.43c0.012-5.639,0.024-11.279,0.036-16.918c0.002-0.993-0.484-1.372-1.989-1.365
			c-1.134,0.005-2.267,0.01-3.401,0.016c0.002-0.948,0.004-1.897,0.007-2.845c7.043-0.007,14.085-0.013,21.128-0.017
			c7.042-0.001,10.344,2.129,10.341,6.2c-0.003,3.85-4.234,5.74-9.142,6.126c0,0.025,0,0.05,0,0.075
			c5.101,0.443,6.266,2.16,6.263,5.078c-0.004,3.969,1.163,4.552,1.989,4.543c1.167-0.013,1.656-0.801,1.658-3.006
			c0-0.386,0.001-0.771,0.001-1.157c1.069-0.008,2.138-0.016,3.208-0.023c0,0.385-0.001,0.77-0.001,1.156
			c-0.003,4.777-2.678,6.514-6.716,6.571c-4.815,0.071-6.273-1.924-6.269-5.009c0.008-6.009-1.739-7.313-7.426-7.243
			c-0.956,0.012-1.912,0.025-2.868,0.038c-0.005,2.54-0.009,5.079-0.014,7.619c-0.002,0.986,0.483,1.352,1.991,1.32
			c1.184-0.026,2.368-0.05,3.551-0.072c-0.001,0.93-0.003,1.861-0.004,2.791C114.888,105.25,108.971,105.416,103.055,105.621z
			 M115.287,90.659c1.912-0.021,3.824-0.041,5.735-0.059c5.248-0.049,6.757-1.369,6.761-4.146c0.003-2.324-1.987-3.634-6.263-3.623
			c-2.073,0.006-4.145,0.012-6.218,0.02C115.296,85.453,115.291,88.056,115.287,90.659z"/>
		<path style="fill:#262626;" d="M140.829,104.839c0-0.92,0.001-1.84,0.001-2.761c1.038-0.006,2.076-0.011,3.114-0.016
			c1.362-0.005,2.285-0.379,2.285-1.646c0.001-5.316,0.002-10.633,0.003-15.949c0-1.117-0.631-1.602-2.575-1.601
			c-0.939,0.001-1.878,0.001-2.817,0.002c0-0.92,0.001-1.84,0.001-2.761c5.926-0.001,11.851-0.001,17.777,0
			c0,0.92,0.001,1.84,0.001,2.76c-0.907-0.001-1.813-0.001-2.72-0.002c-2.138-0.001-2.867,0.371-2.867,1.675
			c0.001,5.85,0.002,11.7,0.003,17.55c2.643,0.005,5.285,0.017,7.928,0.037c5.01,0.04,6.223-2.072,6.655-7.871
			c1.199,0.009,2.398,0.019,3.598,0.03c0.004,3.562,0.008,7.124,0.013,10.686C161.097,104.815,150.962,104.77,140.829,104.839z"/>
		<path style="fill:#262626;" d="M210.138,93.165c0.022,7.845-6.961,13.457-17.514,13.078c-10.553-0.36-17.564-6.176-17.573-13.647
			c-0.009-7.466,6.975-13.214,17.514-13.234C203.104,79.327,210.116,85.325,210.138,93.165z M182.68,92.68
			c0.009,5.41,2.255,10.354,10.084,10.585c7.682,0.242,9.758-4.71,9.744-10.263c-0.014-5.548-2.115-10.643-9.936-10.657
			C184.897,82.328,182.671,87.276,182.68,92.68z"/>
		<path style="fill:#262626;" d="M249.381,94.358c0.022,8.544-6.95,14.463-17.491,13.743c-10.541-0.7-17.559-7.012-17.58-14.837
			c-0.022-7.82,6.956-13.856,17.496-13.902C242.347,79.301,249.359,85.819,249.381,94.358z M221.939,93.462
			c0.016,5.721,2.268,11.009,10.089,11.459c7.674,0.457,9.745-4.843,9.729-10.84c-0.017-5.992-2.12-11.501-9.941-11.53
			C224.142,82.52,221.922,87.746,221.939,93.462z"/>
		<path style="fill:#262626;" d="M260.642,104.593c0.002,1.052,1.168,1.575,2.186,1.652c1.003,0.075,2.006,0.15,3.009,0.227
			c0.002,1.098,0.004,2.196,0.007,3.294c-5.061-0.434-10.124-0.84-15.188-1.217c-0.003-1.054-0.005-2.108-0.008-3.163
			c0.955,0.063,1.91,0.128,2.864,0.193c1.552,0.107,2.086-0.287,2.083-1.327c-0.016-6.45-0.032-12.9-0.047-19.35
			c-0.003-1.04-0.781-1.48-1.898-1.491c-1.02-0.011-2.04-0.021-3.06-0.032c-0.003-1.054-0.005-2.108-0.008-3.163
			c5.083,0.011,10.167,0.023,15.25,0.036c2.199,6.431,4.395,12.981,6.59,19.661c0.032,0.002,0.065,0.004,0.097,0.006
			c2.448-6.402,4.897-12.941,7.35-19.629c4.889,0.014,9.779,0.028,14.668,0.044c0,1.198,0,2.396,0,3.595
			c-1.084-0.016-2.168-0.032-3.253-0.047c-1.118-0.015-1.894,0.451-1.893,1.597c0.003,6.897,0.006,13.793,0.009,20.69
			c0.001,1.527,0.728,2.357,2.084,2.485c1.018,0.095,2.035,0.191,3.052,0.289c0,1.198,0,2.396,0,3.595
			c-5.601-0.601-11.206-1.166-16.813-1.697c-0.002-1.137-0.003-2.274-0.004-3.411c1.066,0.09,2.132,0.181,3.198,0.273
			c1.31,0.114,2.086-0.471,2.085-1.409c-0.007-7.103-0.013-14.206-0.02-21.309c-0.032-0.001-0.065-0.001-0.097-0.002
			c-3.083,8.733-6.16,17.217-9.234,25.478c-1.342-0.123-2.683-0.244-4.025-0.363c-2.974-8.707-5.952-17.188-8.933-25.467
			c-0.032,0-0.065-0.001-0.097-0.001C260.612,91.283,260.627,97.938,260.642,104.593z"/>
	</g>
	<g>
		<path style="fill:#262626;" d="M84.003,117.865h8.723v2.175h-6.319v3.552h5.956v2.175h-5.956v5.613h-2.404V117.865z"/>
		<path style="fill:#262626;" d="M100.631,117.865h2.404v13.516h-2.404V117.865z"/>
		<path style="fill:#262626;" d="M111.723,117.865h4.696c2.595,0,5.039,0.84,5.039,3.876c0,1.946-1.126,3.378-3.13,3.664l3.59,5.976
			h-2.903l-3.13-5.727h-1.757v5.727h-2.404V117.865z M115.999,123.593c1.355,0,2.941-0.117,2.941-1.872
			c0-1.603-1.489-1.795-2.729-1.795h-2.083v3.667H115.999z"/>
		<path style="fill:#262626;" d="M129.477,117.865h8.954v2.175h-6.548v3.321h6.205v2.178h-6.205v3.664h6.891v2.178h-9.297V117.865z"
			/>
		<path style="fill:#262626;" d="M151.24,117.865h2.081l5.824,13.516h-2.749l-1.26-3.092h-5.862l-1.221,3.092h-2.692L151.24,117.865
			z M154.296,126.225l-2.081-5.496l-2.12,5.496H154.296z"/>
		<path style="fill:#262626;" d="M166.379,117.865h4.698c2.595,0,5.039,0.84,5.039,3.876c0,1.946-1.126,3.378-3.132,3.664
			l3.59,5.976h-2.901l-3.132-5.727h-1.755v5.727h-2.406V117.865z M170.657,123.593c1.355,0,2.938-0.117,2.938-1.872
			c0-1.603-1.489-1.795-2.73-1.795h-2.081v3.667H170.657z"/>
		<path style="fill:#262626;" d="M184.193,117.865h3.664l3.61,9.469l3.647-9.469h3.627v13.516h-2.292v-11.226h-0.037l-4.104,11.226
			h-1.68l-4.104-11.226h-0.04v11.226h-2.29V117.865z"/>
		<path style="fill:#262626;" d="M214.165,120.766c-0.515-0.726-1.432-1.069-2.367-1.069c-1.109,0-2.215,0.497-2.215,1.738
			c0,2.71,6.413,1.163,6.413,5.974c0,2.903-2.289,4.315-4.944,4.315c-1.678,0-3.321-0.515-4.427-1.832l1.812-1.758
			c0.592,0.897,1.603,1.414,2.672,1.414c1.109,0,2.369-0.611,2.369-1.852c0-2.961-6.416-1.26-6.416-6.09
			c0-2.787,2.483-4.087,4.984-4.087c1.412,0,2.824,0.403,3.875,1.395L214.165,120.766z"/>
	</g>
	<g>
		<path style="fill:#262626;" d="M165.904,50.284c0,8.786-7.122,15.906-15.907,15.906c-8.782,0-15.904-7.12-15.904-15.906
			c0-8.784,7.122-15.906,15.904-15.906C158.782,34.378,165.904,41.5,165.904,50.284z"/>
		<g>
			<path style="fill:#FFFFFF;" d="M141.725,57.254v-1.555h1.387c0.651,0,0.86-0.211,0.86-0.757v-9.314
				c0-0.546-0.209-0.759-0.86-0.759h-1.387v-1.555h7.654v1.555h-1.601c-0.651,0-0.86,0.214-0.86,0.759v3.723h6.16v-3.723
				c0-0.546-0.209-0.759-0.863-0.759h-1.598v-1.555h7.656v1.555h-1.387c-0.654,0-0.865,0.214-0.865,0.759v9.314
				c0,0.546,0.211,0.757,0.865,0.757h1.387v1.555h-7.656v-1.555h1.598c0.654,0,0.863-0.211,0.863-0.757v-4.036h-6.16v4.036
				c0,0.546,0.209,0.757,0.86,0.757h1.601v1.555H141.725z"/>
		</g>
	</g>
	<g>
		<path style="fill:#262626;" d="M93.522,46.136h6.568v1.596h-4.804v2.436h4.552v1.597h-4.552v2.688h5.055v1.596h-6.819V46.136z"/>
		<path style="fill:#262626;" d="M109.035,48.264c-0.378-0.532-1.05-0.784-1.736-0.784c-0.812,0-1.624,0.364-1.624,1.275
			c0,1.987,4.706,0.854,4.706,4.383c0,2.128-1.68,3.164-3.627,3.164c-1.233,0-2.436-0.378-3.249-1.345l1.33-1.288
			c0.435,0.658,1.177,1.035,1.961,1.035c0.812,0,1.736-0.447,1.736-1.357c0-2.17-4.706-0.925-4.706-4.467
			c0-2.045,1.821-2.997,3.655-2.997c1.035,0,2.072,0.295,2.843,1.023L109.035,48.264z"/>
		<path style="fill:#262626;" d="M116.342,47.732h-3.038v-1.596h7.842v1.596h-3.039v8.318h-1.765V47.732z"/>
		<path style="fill:#262626;" d="M123.862,53.978c0.603,0,1.121,0.461,1.121,1.064c0,0.602-0.505,1.093-1.121,1.093
			c-0.588,0-1.12-0.462-1.12-1.065C122.742,54.468,123.247,53.978,123.862,53.978z"/>
		<path style="fill:#262626;" d="M172.456,54.271l3.851-3.724c0.461-0.449,1.022-0.994,1.022-1.68c0-0.813-0.672-1.303-1.442-1.303
			c-0.827,0-1.414,0.532-1.526,1.345l-1.765-0.14c0.169-1.835,1.499-2.8,3.291-2.8c1.777,0,3.207,0.91,3.207,2.814
			c0,1.247-0.645,2.101-1.526,2.912l-3.068,2.843h4.594v1.513h-6.637V54.271z"/>
		<path style="fill:#262626;" d="M184.764,45.969c1.106,0,3.585,0.434,3.585,5.125s-2.478,5.125-3.585,5.125
			s-3.585-0.434-3.585-5.125S183.658,45.969,184.764,45.969z M184.764,54.622c1.679,0,1.904-2.297,1.904-3.529
			c0-1.232-0.225-3.529-1.904-3.529c-1.68,0-1.905,2.297-1.905,3.529C182.858,52.325,183.083,54.622,184.764,54.622z"/>
		<path style="fill:#262626;" d="M193.359,48.069l-1.862,1.721l-0.981-1.162l2.997-2.492h1.526v9.914h-1.68V48.069z"/>
		<path style="fill:#262626;" d="M205.665,47.649h-3.991l-0.041,1.974c0.266-0.085,0.713-0.126,1.064-0.126
			c1.946,0,3.305,1.288,3.305,3.29c0,2.128-1.555,3.43-3.585,3.43c-1.569,0-2.746-0.742-3.207-2.268l1.764-0.476
			c0.224,0.715,0.771,1.148,1.624,1.148c1.008,0,1.723-0.728,1.723-1.694c0-1.387-1.093-1.919-2.324-1.919
			c-0.728,0-1.485,0.183-2.073,0.476l0.098-5.348h5.643V47.649z"/>
	</g>
	<path style="fill:#262626;" d="M150.641,155.991c-0.172-0.346-0.333-0.686-0.497-1.027c-0.055-0.122-0.117-0.244-0.177-0.368
		c-0.067-0.142-0.139-0.283-0.206-0.423c0,0.002,0,0.005,0,0.005s-0.003-0.003-0.005-0.005c-0.065,0.139-0.134,0.281-0.204,0.423
		c-0.062,0.124-0.122,0.246-0.179,0.368c-0.164,0.341-0.323,0.681-0.495,1.027c-0.303,0.736-0.48,1.449-0.542,2.15
		c-0.017,0.181-0.03,0.365-0.03,0.544c0,0.487,0.199,1.173,0.577,2.058c0.286,0.646,0.569,1.29,0.85,1.936
		c0.01-0.02,0.017-0.04,0.027-0.057c0.008,0.017,0.017,0.037,0.027,0.057c0.281-0.646,0.562-1.29,0.85-1.936
		c0.378-0.885,0.574-1.571,0.574-2.058c0-0.179-0.01-0.363-0.027-0.544C151.119,157.44,150.945,156.726,150.641,155.991z
		 M149.761,163.62L149.761,163.62h-0.005c-0.383,0-0.649,0.171-0.79,0.51c-0.142,0.348-0.206,0.825-0.206,1.427
		c0,0.467,0.087,0.853,0.268,1.166c0.01,0.015,0.02,0.025,0.027,0.04c0.169,0.283,0.395,0.43,0.679,0.43l0.027-0.005l0.027,0.005
		c0.281,0,0.507-0.147,0.674-0.43c0.01-0.015,0.022-0.025,0.03-0.04c0.179-0.313,0.269-0.699,0.269-1.166
		c0-0.602-0.062-1.079-0.209-1.427C150.41,163.791,150.144,163.62,149.761,163.62z M155.812,161.107
		c-0.808,0-1.442,0.147-1.904,0.452c-0.162,0.104-0.313,0.236-0.457,0.398c-0.122-0.288-0.241-0.475-0.36-0.574
		c-0.204-0.186-0.457-0.276-0.761-0.276c-0.38,0-0.694,0.161-0.935,0.487c0.303,0.062,0.529,0.181,0.681,0.38
		c0.149,0.189,0.226,0.383,0.226,0.589c0,0.281-0.082,0.532-0.244,0.753c-0.239,0.224-0.492,0.447-0.756,0.666
		c0.057,0.04,0.134,0.072,0.226,0.089c0.089,0.02,0.216,0.035,0.378,0.035c0.281,0,0.602-0.052,0.955-0.157
		c0.353-0.097,0.681-0.221,0.98-0.36c0.05-0.022,0.686-0.408,1.909-1.148c0.666-0.408,1.335-0.607,2.001-0.607
		c-0.462-0.343-0.81-0.549-1.041-0.619C156.471,161.139,156.175,161.107,155.812,161.107z M147.218,162.563
		c0-0.206,0.08-0.4,0.226-0.589c0.149-0.199,0.38-0.318,0.684-0.38c-0.241-0.326-0.554-0.487-0.937-0.487
		c-0.303,0-0.559,0.089-0.758,0.276c-0.122,0.099-0.244,0.286-0.36,0.574c-0.147-0.162-0.298-0.293-0.457-0.398
		c-0.462-0.306-1.101-0.452-1.907-0.452c-0.36,0-0.654,0.032-0.897,0.109c-0.231,0.07-0.577,0.276-1.042,0.619
		c0.666,0,1.337,0.199,1.999,0.607c1.228,0.741,1.864,1.126,1.912,1.148c0.296,0.139,0.626,0.264,0.982,0.36
		c0.35,0.104,0.671,0.157,0.952,0.157c0.162,0,0.288-0.015,0.38-0.035c0.089-0.017,0.167-0.05,0.226-0.089
		c-0.266-0.219-0.52-0.442-0.756-0.666C147.3,163.095,147.218,162.844,147.218,162.563z M147.758,157.253
		c0.303-0.984,0.43-1.892,0.385-2.734l0.01-0.012c0-1.981-0.549-3.838-1.638-5.581c-0.915-1.464-1.964-2.521-3.167-3.172
		c-0.778-0.415-2.081-0.922-3.9-1.514c-1.124-0.373-1.974-0.89-2.546-1.569c-0.333,0.229-0.502,0.522-0.502,0.863
		c0,0.465,0.244,0.868,0.738,1.208c-0.47-0.082-0.907-0.119-1.327-0.119c-1.82,0-2.99,0.786-3.513,2.347
		c2.053-0.654,3.157-0.992,3.316-1.014c0.728-0.134,1.718-0.201,2.968-0.201c3.212,0,5.625,0.979,7.269,2.931
		c0.892,1.074,1.482,2.344,1.777,3.806c-0.507-1.041-1.377-1.949-2.622-2.737c0.122-0.256-0.743-1.136-2.225-1.69
		c-4.139-1.586-8.591-0.206-12.191,2.227c-1.437,0.977-2.829,2.178-4.097,3.488c-0.788,0.761-1.492,1.554-2.071,2.394
		c-0.448,0.582-0.87,1.166-1.248,1.753c0,0.002,0.003,0.005,0.003,0.007c-0.415,0.393-0.84,0.758-1.283,1.094
		c-4.31,3.271-10.088,5.752-15.102,2.762c-1.166-0.694-2.018-1.576-2.436-2.275c-0.805-1.352-0.321-2.292,0.075-2.68
		c0.298-0.291,0.691-0.39,1.061-0.306c-1.27-1.787-1.293-3.823,0.423-5.265c1.233-1.034,2.543-1.047,3.592-0.271
		c1.007,0.798,1.638,2.145,1.397,3.433c-0.06,0.303-0.174,0.562-0.336,0.741c0.221,0.214,0.457,0.346,0.709,0.413
		c0.659,0.147,1.28-0.112,1.77-0.544c2.202-1.934,1.285-5.084-0.44-7.07c-2.928-3.373-8.186-3.612-11.507-0.512
		c-4.251,3.965-3.92,10.155,0.286,13.841c2.695,2.359,6.155,3.719,9.752,3.582c2.553-0.094,5.148-0.781,7.378-2.001
		c1.581-0.86,3.025-2.046,4.385-3.438c-0.276,0.992-0.425,2.021-0.435,3.038c-0.025,2.471,0.972,4.825,2.64,6.63
		c2.615,2.821,6.871,2.926,9.513-0.067c2.063-2.339,1.805-5.944-0.572-7.89c-1.397-1.146-3.575-1.715-4.86-0.167
		c-0.288,0.343-0.452,0.776-0.34,1.223c0.05,0.171,0.144,0.333,0.296,0.48c0.122-0.117,0.296-0.196,0.502-0.244
		c0.88-0.191,1.817,0.216,2.384,0.895c0.552,0.703,0.567,1.603-0.119,2.468c-0.955,1.206-2.354,1.228-3.604,0.39
		c0.065,0.251,0.002,0.525-0.191,0.736c-0.256,0.278-0.892,0.629-1.837,0.102c-0.49-0.274-1.109-0.843-1.611-1.631
		c-1.666-2.63-1.074-5.64,0.286-8.268c0.465-0.582,0.885-1.151,1.265-1.713c1.38-1.529,2.926-2.946,4.442-4
		c3.401-2.359,7.664-3.423,11.678-2.135c1.902,0.609,3.629,1.72,4.345,3.739c0.813,2.396-0.365,4.191-0.743,4.447
		c0.062,0.326,0.823,0.482,1.243-0.154c-0.793,1.158-1.658,2.247-3.532,2.108c-1.859-0.174-2.65-1.444-2.163-1.882
		c0.241-0.226,0.375,0.162,0.51-0.142c0.099-0.306-0.346-0.368-0.532-0.34c-0.4,0.042-1.486,1.7,1.253,2.747
		c-0.912-0.204-2.066-0.612-2.807-1.235c-0.773-0.636-1.168-1.661-0.858-2.62c0.261-0.815,1.129-1.387,1.929-0.962
		c0.177,0.097,0.36,0.206,0.557,0.388c0.323,0.321,0.094,0.634-0.047,0.664c-0.177,0.035-0.455,0.497,0.005,0.517
		c0.45,0.067,0.761-0.644,0.626-0.994c0.316,0.06,1.738-0.124,1.564-1.584c0.574,0.095,0.925-0.604,1.064-1.191
		c0.164-0.631-0.425-1.72-1.039-1.531c-0.191-0.445-1.263-0.443-1.163,0.052c0.539,0.045,0.805,0.258,0.631,0.676
		c-0.06,0.189-0.321,0.323-0.52,0.298c-1.787-0.276-3.724,0.716-4.395,2.376c-1.029,2.553,0.286,4.581,2.215,5.456
		C143.196,161.372,146.778,160.428,147.758,157.253z M198.897,147.452c-3.321-3.1-8.581-2.861-11.505,0.512
		c-1.728,1.986-2.645,5.136-0.442,7.07c0.492,0.432,1.114,0.691,1.77,0.544c0.254-0.067,0.49-0.199,0.708-0.413
		c-0.162-0.179-0.273-0.438-0.331-0.741c-0.246-1.288,0.385-2.635,1.395-3.433c1.049-0.776,2.359-0.763,3.59,0.271
		c1.715,1.442,1.695,3.478,0.425,5.265c0.368-0.085,0.763,0.015,1.061,0.306c0.393,0.388,0.878,1.327,0.072,2.68
		c-0.418,0.698-1.268,1.581-2.434,2.275c-5.016,2.99-10.794,0.51-15.102-2.762c-0.442-0.336-0.87-0.701-1.28-1.094
		c0-0.002,0-0.005,0.002-0.007c-0.383-0.587-0.8-1.171-1.25-1.753c-0.579-0.838-1.283-1.633-2.073-2.394
		c-1.265-1.31-2.66-2.511-4.092-3.488c-3.6-2.434-8.057-3.813-12.193-2.227c-1.484,0.554-2.347,1.434-2.227,1.69
		c-1.245,0.788-2.115,1.695-2.62,2.737c0.293-1.462,0.882-2.732,1.777-3.806c1.641-1.951,4.057-2.931,7.269-2.931
		c1.248,0,2.24,0.067,2.968,0.201c0.157,0.022,1.263,0.36,3.314,1.014c-0.52-1.561-1.69-2.347-3.513-2.347
		c-0.42,0-0.855,0.037-1.325,0.119c0.492-0.34,0.738-0.743,0.738-1.208c0-0.341-0.166-0.634-0.5-0.863
		c-0.574,0.679-1.424,1.196-2.546,1.569c-1.825,0.592-3.127,1.099-3.9,1.514c-1.206,0.651-2.257,1.708-3.172,3.172
		c-1.089,1.743-1.638,3.6-1.638,5.581l0.012,0.01c-0.047,0.845,0.082,1.753,0.383,2.737c0.979,3.174,4.564,4.119,7.276,2.864
		c1.934-0.875,3.246-2.903,2.215-5.456c-0.669-1.661-2.605-2.652-4.395-2.376c-0.199,0.025-0.46-0.109-0.52-0.298
		c-0.174-0.418,0.094-0.631,0.634-0.676c0.097-0.495-0.969-0.497-1.163-0.052c-0.614-0.189-1.203,0.9-1.042,1.531
		c0.139,0.587,0.492,1.285,1.066,1.191c-0.177,1.459,1.248,1.643,1.561,1.584c-0.129,0.351,0.177,1.061,0.629,0.994
		c0.46-0.02,0.182-0.482,0.002-0.517c-0.142-0.03-0.368-0.343-0.047-0.664c0.199-0.181,0.38-0.291,0.559-0.388
		c0.8-0.425,1.666,0.147,1.929,0.962c0.308,0.96-0.085,1.984-0.858,2.62c-0.738,0.624-1.892,1.032-2.807,1.235
		c2.737-1.047,1.651-2.705,1.255-2.747c-0.191-0.027-0.634,0.035-0.534,0.34c0.134,0.303,0.268-0.085,0.507,0.142
		c0.49,0.437-0.298,1.708-2.163,1.882c-1.872,0.139-2.734-0.95-3.532-2.108c0.423,0.636,1.181,0.48,1.246,0.154
		c-0.378-0.256-1.559-2.051-0.746-4.447c0.718-2.018,2.446-3.13,4.345-3.739c4.017-1.288,8.28-0.224,11.678,2.135
		c1.516,1.054,3.065,2.471,4.442,4c0.38,0.562,0.8,1.131,1.268,1.713c1.362,2.628,1.954,5.638,0.283,8.268
		c-0.497,0.788-1.121,1.357-1.608,1.631c-0.942,0.527-1.579,0.176-1.84-0.102c-0.194-0.211-0.256-0.485-0.191-0.736
		c-1.25,0.838-2.65,0.815-3.605-0.39c-0.686-0.865-0.671-1.765-0.117-2.468c0.567-0.679,1.504-1.086,2.384-0.895
		c0.206,0.047,0.38,0.127,0.5,0.244c0.152-0.147,0.249-0.308,0.298-0.48c0.112-0.447-0.052-0.88-0.34-1.223
		c-1.288-1.549-3.465-0.979-4.862,0.167c-2.372,1.946-2.635,5.551-0.569,7.89c2.642,2.993,6.896,2.889,9.508,0.067
		c1.673-1.805,2.67-4.159,2.645-6.63c-0.01-1.017-0.159-2.046-0.435-3.035c1.36,1.39,2.802,2.575,4.383,3.435
		c2.23,1.221,4.825,1.907,7.378,2.001c3.597,0.137,7.057-1.223,9.752-3.582C202.822,157.606,203.15,151.417,198.897,147.452z"/>
	<g>
		<path d="M55.089,58.515c-1.038,0.214-1.57,0.676-1.93,1.259c-1.075,1.738-0.456,3.717,1.223,4.755
			c1.797,1.111,3.844,0.781,4.919-0.957c0.42-0.679,0.515-1.524,0.147-2.526l1.647-0.694c0.575,1.409,0.322,2.832-0.444,4.07
			c-1.605,2.595-4.514,3.363-7.146,1.736c-2.702-1.67-3.316-4.617-1.711-7.212c0.706-1.143,1.679-1.891,3.158-2.129L55.089,58.515z"
			/>
		<path d="M58.624,49.275c1.866-2.468,4.844-2.907,7.343-0.945c2.434,1.91,2.715,4.907,0.849,7.375
			c-1.884,2.401-4.862,2.839-7.296,0.929C57.02,54.673,56.739,51.675,58.624,49.275z M65.569,54.709
			c1.27-1.619,0.875-3.655-0.787-4.96c-1.554-1.218-3.624-1.118-4.895,0.5c-1.263,1.608-0.868,3.644,0.685,4.862
			C62.236,56.417,64.307,56.317,65.569,54.709z"/>
		<path d="M64.703,42.458l1.222-1.273l5.998,5.757l2.917-3.04l1.151,1.105l-4.138,4.312L64.703,42.458z"/>
		<path d="M71.247,35.874l1.32-1.172l5.525,6.218l3.151-2.8l1.06,1.193l-4.47,3.972L71.247,35.874z"/>
		<path d="M78.31,29.812l5.264-3.926l0.955,1.28l-3.851,2.871l1.457,1.953l3.648-2.721l0.955,1.28l-3.648,2.721l1.607,2.155
			l4.052-3.022l0.955,1.28l-5.468,4.076L78.31,29.812z"/>
		<path d="M94.008,22.045c-1.022-0.283-1.705-0.114-2.292,0.241c-1.75,1.058-2.101,3.102-1.079,4.791
			c1.094,1.81,3.066,2.449,4.816,1.391c0.684-0.413,1.153-1.123,1.283-2.183l1.782,0.134c-0.131,1.518-1.006,2.669-2.251,3.422
			c-2.613,1.579-5.553,0.936-7.154-1.713c-1.644-2.72-0.848-5.623,1.765-7.203c1.15-0.695,2.357-0.918,3.782-0.454L94.008,22.045z"
			/>
		<path d="M99.652,18.281l-2.734,1.319l-0.694-1.437l7.059-3.404l0.694,1.437l-2.736,1.319l3.611,7.487l-1.588,0.766L99.652,18.281z
			"/>
		<path d="M110.739,11.574c2.89-1.099,5.645,0.11,6.722,3.099c1.047,2.91-0.306,5.598-3.197,6.698
			c-2.87,1.033-5.625-0.176-6.673-3.086C106.516,15.295,107.868,12.607,110.739,11.574z M113.737,19.865
			c1.935-0.697,2.682-2.631,1.966-4.619c-0.667-1.856-2.476-2.872-4.411-2.175c-1.923,0.692-2.67,2.626-2.001,4.483
			C110.007,19.542,111.814,20.556,113.737,19.865z"/>
		<path d="M119.593,8.997l3.348-0.807c1.852-0.446,3.739-0.267,4.261,1.897c0.334,1.388-0.222,2.603-1.602,3.152l3.586,3.644
			l-2.069,0.498l-3.217-3.545l-1.253,0.301l0.984,4.084l-1.715,0.414L119.593,8.997z M123.626,12.346
			c0.967-0.233,2.077-0.587,1.775-1.84c-0.275-1.143-1.37-1.024-2.255-0.81l-1.484,0.358l0.63,2.614L123.626,12.346z"/>
		<path d="M135.374,8.061c-0.45-0.472-1.151-0.624-1.83-0.525c-0.803,0.117-1.554,0.595-1.422,1.495
			c0.286,1.966,4.775,0.166,5.284,3.655c0.307,2.105-1.204,3.372-3.13,3.652c-1.218,0.178-2.463-0.022-3.406-0.861l1.129-1.465
			c0.525,0.588,1.314,0.855,2.088,0.742c0.804-0.117,1.653-0.694,1.521-1.594c-0.313-2.146-4.785-0.235-5.296-3.738
			c-0.296-2.022,1.367-3.226,3.182-3.491c1.024-0.149,2.091-0.008,2.958,0.601L135.374,8.061z"/>
		<path d="M153.189,12.637l2.103,2.374l-2.17-0.036l-1.032-1.152c-0.813,0.925-1.689,1.359-2.949,1.338
			c-1.75-0.029-3.343-1.078-3.312-2.969c0.022-1.33,0.992-2.309,2.189-2.751c-0.618-0.711-1.112-1.321-1.096-2.301
			c0.027-1.624,1.386-2.414,2.884-2.39c1.484,0.025,2.788,0.775,2.762,2.399c-0.021,1.218-1.029,2.041-2.017,2.529l1.567,1.749
			l1.134-1.662l1.975,0.033L153.189,12.637z M149.065,10.453c-0.665,0.381-1.372,0.817-1.386,1.672
			c-0.015,0.868,0.702,1.51,1.542,1.524c0.771,0.012,1.325-0.469,1.837-0.95L149.065,10.453z M148.6,7.237
			c-0.009,0.518,0.487,1.045,0.915,1.458c0.579-0.298,1.357-0.762,1.37-1.49c0.009-0.532-0.475-0.932-1.078-0.942
			C149.163,6.252,148.61,6.649,148.6,7.237z"/>
		<path d="M166.203,6.093l3.286,0.555c1.892,0.319,3.493,1.271,3.126,3.439c-0.414,2.458-2.326,2.59-4.396,2.24l-1.243-0.209
			l-0.684,4.046l-1.739-0.294L166.203,6.093z M168.278,10.803c0.993,0.168,2.287,0.329,2.511-0.996
			c0.203-1.201-0.915-1.56-1.854-1.719l-1.243-0.209l-0.464,2.747L168.278,10.803z"/>
		<path d="M183.412,16.399c-0.644,2.304-2.705,3.283-4.888,2.673c-2.184-0.61-3.438-2.516-2.794-4.821l1.688-6.038l1.699,0.475
			l-1.673,5.984c-0.264,0.943-0.098,2.327,1.533,2.782c1.631,0.456,2.49-0.641,2.753-1.584l1.673-5.984l1.698,0.475L183.412,16.399z
			"/>
		<path d="M189.928,12.036l3.196,1.28c1.767,0.708,3.201,1.946,2.374,4.012c-0.532,1.326-1.688,1.993-3.131,1.641l0.814,5.045
			l-1.975-0.791l-0.569-4.751l-1.196-0.479l-1.561,3.898l-1.637-0.656L189.928,12.036z M191.277,17.1
			c0.922,0.369,2.032,0.723,2.511-0.472c0.438-1.091-0.525-1.628-1.368-1.966l-1.417-0.567l-0.999,2.495L191.277,17.1z"/>
		<path d="M199.438,15.962l1.8,0.94l-1.075,7.891l5.94-5.348l1.687,0.882l-8.141,6.931l-1.352-0.707L199.438,15.962z"/>
		<path d="M211.165,22.419l5.473,3.626l-0.88,1.331l-4.004-2.651l-1.345,2.031l3.793,2.512l-0.881,1.331l-3.793-2.512l-1.484,2.241
			l4.214,2.79l-0.881,1.331l-5.684-3.764L211.165,22.419z"/>
		<path d="M218.82,34.826l0.691-6.747l1.715,1.396l-0.602,4.599l4.402-1.506l1.628,1.326l-6.466,2.046l-2.677,3.289l-1.37-1.114
			L218.82,34.826z"/>
		<path d="M232.997,39.694c2.202,2.176,2.247,5.188-0.027,7.41c-2.215,2.163-5.225,2.048-7.428-0.127
			c-2.135-2.184-2.178-5.196,0.037-7.359C227.854,37.395,230.864,37.509,232.997,39.694z M226.693,45.87
			c1.439,1.473,3.512,1.349,5.024-0.129c1.414-1.38,1.586-3.448,0.147-4.921c-1.427-1.463-3.5-1.339-4.912,0.041
			C225.438,42.339,225.264,44.407,226.693,45.87z"/>
		<path d="M239.46,47.219l2.11,2.719c1.168,1.503,1.78,3.295,0.025,4.66c-1.129,0.876-2.463,0.868-3.53-0.164l-1.844,4.764
			l-1.305-1.68l1.907-4.388l-0.79-1.017l-3.314,2.575l-1.081-1.392L239.46,47.219z M238.068,52.27
			c0.609,0.785,1.387,1.651,2.404,0.861c0.93-0.721,0.37-1.669-0.189-2.387l-0.935-1.204l-2.123,1.648L238.068,52.27z"/>
		<path d="M247.211,61.835c0.249-0.604,0.102-1.307-0.264-1.887c-0.435-0.687-1.176-1.18-1.946-0.694
			c-1.683,1.062,1.79,4.437-1.196,6.321c-1.8,1.137-3.575,0.268-4.614-1.378c-0.659-1.042-0.982-2.263-0.597-3.466l1.8,0.438
			c-0.326,0.718-0.249,1.548,0.169,2.212c0.435,0.687,1.308,1.229,2.078,0.743c1.835-1.159-1.733-4.474,1.265-6.366
			c1.73-1.091,3.508-0.06,4.487,1.492c0.554,0.877,0.858,1.91,0.654,2.951L247.211,61.835z"/>
	</g>
</g>
<g>
</g>
<g>
</g>
<g>
</g>
<g>
</g>
<g>
</g>
<g>
</g>
<g>
</g>
<g>
</g>
<g>
</g>
<g>
</g>
<g>
</g>
<g>
</g>
<g>
</g>
<g>
</g>
<g>
</g>
</svg>
