<?xml version="1.0" encoding="UTF-8"?>
<svg width="280px" height="60px" viewBox="0 0 280 60" version="1.1" xmlns="http://www.w3.org/2000/svg" xmlns:xlink="http://www.w3.org/1999/xlink">
    <!-- Generator: Sketch 52.2 (67145) - http://www.bohemiancoding.com/sketch -->
    <title>logo/poets/main</title>
    <desc>Created with Sketch.</desc>
    <g id="logo/poets/main" stroke="none" stroke-width="1" fill="none" fill-rule="evenodd">
        <g id="Group-17" transform="translate(1.000000, 5.000000)">
            <path d="M9.34985551,25.034505 C9.34985551,27.1152824 10.003733,28.7970801 11.3095125,30.078109 C12.6152921,31.3627162 14.2865318,32.0032307 16.3212563,32.0032307 C18.5278459,32.0032307 20.2543986,31.3036744 21.4949879,29.9045618 C22.7375527,28.5036601 23.3598228,26.6966221 23.3598228,24.4798695 C23.3598228,22.2649061 22.7375527,20.456079 21.4949879,19.0569664 C20.2543986,17.6578538 18.5278459,16.9582976 16.3212563,16.9582976 C14.2865318,16.9582976 12.6152921,17.598812 11.3095125,18.8834192 C10.003733,20.1644481 9.34985551,21.8569807 9.34985551,23.9556496 L9.34985551,25.034505 Z M0,47.3684211 L0,11.2544984 L9.54345066,11.2544984 L9.54345066,16.1424467 C10.3356104,14.4159203 11.5564451,13.0490124 13.2059548,12.0399338 C14.8554645,11.0308551 16.9000663,10.5263158 19.3437112,10.5263158 C22.1271353,10.5263158 24.5688048,11.1525171 26.6687195,12.4049196 C28.7686342,13.6591114 30.3529537,15.3337525 31.4256289,17.4306322 C32.4963286,19.527512 33.029703,21.8784505 33.029703,24.4798695 C33.029703,27.0973909 32.4963286,29.4519077 31.4256289,31.5452092 C30.3529537,33.6385106 28.7686342,35.3095735 26.6687195,36.5601869 C24.5688048,37.8090112 22.1271353,38.4352124 19.3437112,38.4352124 C16.9000663,38.4352124 14.8554645,37.9324623 13.2059548,36.9269619 C11.5564451,35.9232507 10.3356104,34.5617102 9.54345066,32.8441296 L9.54345066,47.3684211 L0,47.3684211 Z" id="Fill-1" fill="#0093D6"></path>
            <path d="M47.3478659,19.1888144 C46.1537566,20.6381313 45.5586987,22.5699353 45.5586987,24.9842264 C45.5586987,27.3985174 46.1537566,29.3358886 47.3478659,30.7944841 C48.5419752,32.2549354 50.1913637,32.9842331 52.2980281,32.9842331 C54.4006989,32.9842331 56.0520842,32.2549354 57.2461935,30.7944841 C58.4403029,29.3358886 59.0373575,27.3985174 59.0373575,24.9842264 C59.0373575,22.5699353 58.4403029,20.6381313 57.2461935,19.1888144 C56.0520842,17.7413532 54.4006989,17.0157669 52.2980281,17.0157669 C50.1913637,17.0157669 48.5419752,17.7413532 47.3478659,19.1888144 M35.7821782,24.9842264 C35.7821782,20.779166 37.3457026,17.3182491 40.4767452,14.6014758 C43.6077877,11.8847025 47.5475497,10.5263158 52.2980281,10.5263158 C57.042516,10.5263158 60.9822781,11.880991 64.1133206,14.58663 C67.2463599,17.2941248 68.8118812,20.7587531 68.8118812,24.9842264 C68.8118812,29.2301126 67.2543473,32.7077309 64.1352858,35.41337 C61.0182211,38.119009 57.0704718,39.4736842 52.2980281,39.4736842 C47.5255845,39.4736842 43.5778351,38.119009 40.4587736,35.41337 C37.3397121,32.7077309 35.7821782,29.2301126 35.7821782,24.9842264" id="Fill-3" fill="#0093D6"></path>
            <path d="M81.1602262,22.20807 L93.3556263,22.20807 C93.2894211,20.6492656 92.7305707,19.3391277 91.6751808,18.2776561 C90.6197909,17.2161846 89.1846943,16.6835931 87.3679438,16.6835931 C85.6154514,16.6835931 84.2115102,17.1994831 83.1561203,18.2312631 C82.0987832,19.2648989 81.4347833,20.5880269 81.1602262,22.20807 M71.5643564,25.4370219 C71.5643564,21.1317527 73.0520278,17.5687713 76.0293177,14.7517891 C79.0085549,11.9348069 82.743311,10.5263158 87.2413749,10.5263158 C89.6072397,10.5263158 91.7297028,10.8881811 93.6087641,11.6137674 C95.4858782,12.337498 97.0183355,13.3340194 98.2002943,14.6014758 C99.3822531,15.8689322 100.283813,17.3182491 100.908869,18.9475709 C101.53003,20.5787483 101.841584,22.3286918 101.841584,24.199257 L101.841584,26.4038518 L80.9693992,26.4038518 C81.0122379,28.3560687 81.6626073,29.9408532 82.9185602,31.1563494 C84.1745131,32.3755571 85.8588531,32.9842331 87.9696329,32.9842331 C91.1591691,32.9842331 93.3653624,31.7650254 94.5882127,29.3303214 L101.841584,31.4142944 C100.893291,34.069829 99.1875317,36.0777175 96.7282007,37.4361042 C94.2669224,38.7944909 91.2117439,39.4736842 87.5587708,39.4736842 C82.8679327,39.4736842 79.028027,38.1802477 76.0429482,35.5933747 C73.0559222,33.0083575 71.5643564,29.6235251 71.5643564,25.4370219" id="Fill-5" fill="#0093D6"></path>
            <path d="M102.373858,16.4327068 L102.373858,10.1958647 L107.627966,10.1958647 L107.627966,3.3481203 L117.379252,1.6037594 L117.379252,10.1958647 L128.048947,10.1958647 L128.048947,16.4327068 L117.379252,16.4327068 L117.379252,27.5473684 C117.379252,28.8556391 117.732486,29.8819549 118.44501,30.6300752 C119.155516,31.3763158 120.136498,31.7503759 121.38392,31.7503759 C122.762543,31.7503759 123.834357,31.4496241 124.60138,30.8481203 C125.368403,30.2466165 126.230295,29.1883459 127.195129,27.6714286 L131.890118,32.9571429 C130.620493,34.6244361 128.961301,36.0078947 126.91456,37.1056391 C124.869838,38.2033835 122.465826,38.7522556 119.70858,38.7522556 C116.162107,38.7522556 113.261549,37.85 111.006905,36.0473684 C108.754279,34.2428571 107.627966,31.5680451 107.627966,28.0210526 L107.627966,16.4327068 L102.373858,16.4327068 Z" id="Fill-7" fill="#0093D6"></path>
            <path d="M138.089854,29.3414558 C138.992773,30.5773649 140.382483,31.549762 142.255058,32.2567911 C144.129597,32.9619645 146.061058,33.3145512 148.043554,33.3145512 C151.292099,33.3145512 152.915391,32.6038106 152.915391,31.1823295 C152.915391,30.5476734 152.573852,30.0726092 151.8947,29.7552812 C151.215548,29.4379532 150.198782,29.1837196 148.840478,28.9907248 L142.765404,27.8531687 C136.313459,26.633961 133.086505,23.8336803 133.086505,19.4504708 C133.086505,16.8747322 134.321149,14.7443662 136.792399,13.0575172 C139.263649,11.3706682 142.482751,10.5263158 146.453632,10.5263158 C152.885948,10.5263158 157.771524,12.4024482 161.112324,16.1528573 L155.414121,19.8624406 C153.198044,17.7432089 150.212522,16.6854488 146.453632,16.6854488 C145.370129,16.6854488 144.45347,16.8747322 143.699729,17.253299 C142.947951,17.6318657 142.569117,18.1885816 142.569117,18.9253022 C142.569117,19.9997638 142.949914,20.6938029 143.70758,21.0092752 L151.661118,22.6757113 C157.730304,23.9487349 161.308611,26.4242647 162.39604,30.1060122 C162.39604,32.9638202 161.098584,35.2389323 158.503674,36.9332042 C155.910726,38.6274761 152.424674,39.4736842 148.043554,39.4736842 C144.757714,39.4736842 141.634792,38.926247 138.670863,37.8350839 C135.706933,36.7420651 133.524225,35.1962508 132.118812,33.1976409 L138.089854,29.3414558 Z" id="Fill-10" fill="#0093D6"></path>
            <polygon id="Fill-12" fill="#231F20" points="165.148515 39.4736842 176.158416 39.4736842 176.158416 28.9473684 165.148515 28.9473684"></polygon>
            <path d="M190.476579,19.1888144 C189.282469,20.6381313 188.687412,22.5699353 188.687412,24.9842264 C188.687412,27.3985174 189.282469,29.3358886 190.476579,30.7944841 C191.670688,32.2549354 193.320077,32.9842331 195.426741,32.9842331 C197.529412,32.9842331 199.180797,32.2549354 200.374906,30.7944841 C201.569016,29.3358886 202.16607,27.3985174 202.16607,24.9842264 C202.16607,22.5699353 201.569016,20.6381313 200.374906,19.1888144 C199.180797,17.7413532 197.529412,17.0157669 195.426741,17.0157669 C193.320077,17.0157669 191.670688,17.7413532 190.476579,19.1888144 M178.910891,24.9842264 C178.910891,20.779166 180.474416,17.3182491 183.605458,14.6014758 C186.736501,11.8847025 190.676263,10.5263158 195.426741,10.5263158 C200.171229,10.5263158 204.110991,11.880991 207.242033,14.58663 C210.375073,17.2941248 211.940594,20.7587531 211.940594,24.9842264 C211.940594,29.2301126 210.38306,32.7077309 207.263999,35.41337 C204.146934,38.119009 200.199185,39.4736842 195.426741,39.4736842 C190.654297,39.4736842 186.706548,38.119009 183.587486,35.41337 C180.468425,32.7077309 178.910891,29.2301126 178.910891,24.9842264" id="Fill-14" fill="#231F20"></path>
            <path d="M214.693069,39.4736842 L214.693069,11.3018278 L223.98337,11.3018278 L223.98337,17.4716263 C224.835286,15.5299881 226.056429,13.8875031 227.646799,12.542266 C229.237169,11.1989343 231.146767,10.5263158 233.371747,10.5263158 C236.185184,10.5263158 238.36401,11.4561681 239.904381,13.3139672 C241.448598,15.1736717 242.217822,17.6431155 242.217822,20.7261093 C242.217822,20.9719104 242.198591,21.1338724 242.156284,21.2158061 L234.587121,24.1558923 C234.671736,23.8719825 234.71212,23.3708531 234.71212,22.6544095 C234.71212,21.307267 234.354431,20.2402234 233.63713,19.4551842 C232.919828,18.6682395 231.85253,18.2757199 230.439082,18.2757199 C228.379485,18.2757199 226.791037,19.1369765 225.667971,20.8633006 C224.544904,22.5896247 223.98337,24.780875 223.98337,27.4351459 L223.98337,39.4736842 L214.693069,39.4736842 Z" id="Fill-15" fill="#231F20"></path>
            <path d="M254.040714,20.0373274 C254.040714,21.3736469 254.438468,22.4356103 255.230057,23.225084 C256.025565,24.0145577 257.079711,24.4083613 258.392495,24.4083613 C259.724873,24.4083613 260.782937,24.0145577 261.566689,23.225084 C262.348481,22.4356103 262.740357,21.3736469 262.740357,20.0373274 C262.740357,18.7215379 262.348481,17.6801045 261.566689,16.9111609 C260.782937,16.1422172 259.724873,15.7577454 258.392495,15.7577454 C257.079711,15.7577454 256.025565,16.1478163 255.230057,16.9260918 C254.438468,17.7043673 254.040714,18.7439343 254.040714,20.0373274 M250.247357,42.2284434 C250.247357,44.4344905 252.939543,45.537514 258.327835,45.537514 C261.135625,45.537514 263.430058,45.233296 265.207215,44.6267264 C266.982412,44.0201568 267.87393,43.1597611 267.87393,42.0455394 C267.87393,40.608436 266.663033,39.8917507 264.24516,39.8917507 L253.2021,39.8917507 C252.324298,39.8917507 251.613044,40.0933184 251.066377,40.4983203 C250.52167,40.9033221 250.247357,41.4800299 250.247357,42.2284434 M242.217822,43.0496454 C242.217822,41.7655842 242.752732,40.6662934 243.826472,39.751773 C244.900212,38.8353863 246.275696,38.3072042 247.954883,38.1634938 C246.636221,37.7528929 245.589913,37.058604 244.813999,36.0824935 C244.040044,35.1045166 243.650128,34.0089586 243.650128,32.7958193 C243.650128,31.506159 244.122338,30.3770063 245.070678,29.4046286 C246.013139,28.4322508 247.325923,27.6763718 249.00511,27.1407242 C247.604154,26.3512505 246.51278,25.3452781 245.738826,24.1209406 C244.962912,22.8966032 244.574955,21.5360209 244.574955,20.0373274 C244.574955,17.2247107 245.842673,14.9888018 248.382028,13.3296006 C250.921383,11.6703994 254.236652,10.8398656 258.327835,10.8398656 C261.989915,10.8398656 265.085733,11.5677492 267.61921,13.0253826 C268.410799,11.4464352 269.67068,10.141844 271.400812,9.10974244 C272.739068,8.29973871 274.247789,7.89473684 275.926977,7.89473684 C276.393309,7.89473684 276.871398,7.9264651 277.359283,7.98618888 L278,14.8170959 C277.339689,14.675252 276.681338,14.60433 276.022987,14.60433 L274.173333,14.7779022 C272.899737,15.0111982 271.804444,15.3975364 270.891373,15.9387831 C271.769175,17.1332587 272.206116,18.4994401 272.206116,20.0373274 C272.206116,22.8312803 270.916845,25.0522583 268.338302,26.7002613 C265.755841,28.351997 262.420978,29.1750653 258.327835,29.1750653 C256.307716,29.1750653 254.414956,28.9529675 252.651515,28.5069056 C251.387715,29.0406868 250.758755,29.7013811 250.758755,30.4908548 C250.758755,31.6983949 251.765875,32.3012318 253.782076,32.3012318 L266.945184,32.3012318 C270.240859,32.3012318 272.79589,33.0011198 274.612234,34.3990295 C276.430537,35.7969392 277.33773,37.6894364 277.33773,40.0727884 C277.33773,41.7133259 276.804779,43.1840239 275.740836,44.4904815 C274.674934,45.7950728 273.23675,46.8383725 271.426284,47.616648 C269.613858,48.3967898 267.581982,48.9884285 265.332615,49.3934304 C263.081289,49.7984323 260.702603,50 258.200476,50 C255.955028,50 253.905517,49.8786861 252.053904,49.6360582 C250.202291,49.3934304 248.525063,49.0126913 247.014381,48.4975737 C245.507619,47.9824561 244.330032,47.256439 243.483581,46.3269877 C242.641048,45.39567 242.217822,44.3019784 242.217822,43.0496454" id="Fill-16" fill="#231F20"></path>
        </g>
    </g>
</svg>