<?xml version="1.0" encoding="iso-8859-1"?>
<!-- Generator: Adobe Illustrator 22.1.0, SVG Export Plug-In . SVG Version: 6.00 Build 0)  -->
<svg version="1.1" id="Layer_1" xmlns="http://www.w3.org/2000/svg" xmlns:xlink="http://www.w3.org/1999/xlink" x="0px" y="0px"
	 viewBox="0 0 300 160" style="enable-background:new 0 0 300 160;" xml:space="preserve">
<g>
	<path style="fill:#383838;" d="M43.848,99.262H24.075l-4.051,11.122H10l18.674-48.678h10.985l18.538,48.678H47.899L43.848,99.262z
		 M27.233,90.611h13.456l-6.728-18.4L27.233,90.611z"/>
	<path style="fill:#383838;" d="M63.623,110.384V76.605h8.72v4.119c1.854-3.295,6.179-5.081,9.886-5.081
		c4.6,0,8.308,1.992,10.024,5.63c2.677-4.12,6.248-5.63,10.71-5.63c6.248,0,12.221,3.776,12.221,12.839v21.902h-8.857V90.336
		c0-3.638-1.785-6.385-5.973-6.385c-3.914,0-6.248,3.021-6.248,6.66v19.773h-9.063V90.336c0-3.638-1.854-6.385-5.973-6.385
		c-3.983,0-6.317,2.953-6.317,6.66v19.773C72.753,110.384,63.623,110.384,63.623,110.384z"/>
	<rect x="124.456" y="76.605" style="fill:#383838;" width="9.131" height="33.779"/>
	<path style="fill:#383838;" d="M163.935,85.668c-1.03-0.206-1.922-0.274-2.746-0.274c-4.669,0-8.72,2.265-8.72,9.543v15.448h-9.131
		v-33.78h8.857v5.012c2.06-4.463,6.728-5.287,9.612-5.287c0.755,0,1.441,0.069,2.128,0.137V85.668z"/>
	<path style="fill:#383838;" d="M192.154,106.745c-1.854,3.159-5.767,4.531-9.338,4.531c-8.17,0-12.839-5.973-12.839-13.319V76.605
		h9.131v19.498c0,3.776,1.923,6.797,6.18,6.797c4.051,0,6.385-2.746,6.385-6.66V76.605h9.131v27.668
		c0,2.608,0.206,4.944,0.343,6.111h-8.72C192.291,109.698,192.154,108.118,192.154,106.745z"/>
	<path style="fill:#383838;" d="M217.01,93.495c0,6.111,3.983,9.543,8.651,9.543s7.003-3.089,7.758-5.698l8.033,2.677
		c-1.511,5.63-6.797,11.397-15.791,11.397c-9.955,0-17.782-7.553-17.782-17.919c0-10.437,7.69-17.919,17.508-17.919
		c9.199,0,14.417,5.698,15.86,11.397l-8.17,2.746c-0.824-2.815-2.952-5.698-7.484-5.698C220.923,84.02,217.01,87.384,217.01,93.495z
		"/>
	<path style="fill:#383838;" d="M256.078,90.955l8.307-1.236c1.923-0.274,2.54-1.236,2.54-2.403c0-2.403-1.854-4.394-5.698-4.394
		c-3.982,0-6.179,2.54-6.454,5.493l-8.101-1.717c0.549-5.287,5.424-11.122,14.487-11.122c10.71,0,14.693,6.042,14.693,12.839v16.614
		c0,1.786,0.205,4.189,0.411,5.356h-8.376c-0.206-0.893-0.343-2.746-0.343-4.051c-1.717,2.677-4.944,5.012-9.955,5.012
		c-7.21,0-11.604-4.874-11.604-10.161C245.985,95.142,250.448,91.778,256.078,90.955z M266.925,96.722v-1.51l-7.62,1.167
		c-2.335,0.343-4.189,1.648-4.189,4.256c0,1.992,1.442,3.914,4.394,3.914C263.356,104.548,266.925,102.694,266.925,96.722z"/>
	
		<radialGradient id="SVGID_1_" cx="134.6408" cy="44.88" r="42.7741" gradientTransform="matrix(0.9442 0 0 -0.9442 -0.5494 106.4994)" gradientUnits="userSpaceOnUse">
		<stop  offset="0.0017" style="stop-color:#E2DCE5"/>
		<stop  offset="1" style="stop-color:#6F577E"/>
	</radialGradient>
	<path style="fill:url(#SVGID_1_);" d="M129.022,58.799c0,0-5.68-13.526-5.68-24.803s5.68-30.411,5.68-30.411
		s5.68,19.134,5.68,30.411S129.022,58.799,129.022,58.799z"/>
	
		<radialGradient id="SVGID_2_" cx="134.6408" cy="44.88" r="42.7741" gradientTransform="matrix(0.9442 0 0 -0.9442 -0.5494 106.4994)" gradientUnits="userSpaceOnUse">
		<stop  offset="0.0017" style="stop-color:#E2DCE5"/>
		<stop  offset="1" style="stop-color:#6F577E"/>
	</radialGradient>
	<path style="fill:url(#SVGID_2_);" d="M132.224,62.098c0,0,3.236-11.904,9.073-19.378c5.837-7.473,19.505-17.214,19.505-17.214
		s-6.139,15.621-11.976,23.094C142.989,56.074,132.224,62.098,132.224,62.098z"/>
	
		<radialGradient id="SVGID_3_" cx="134.6408" cy="44.88" r="42.7741" gradientTransform="matrix(0.9442 0 0 -0.9442 -0.5494 106.4994)" gradientUnits="userSpaceOnUse">
		<stop  offset="0.0017" style="stop-color:#E2DCE5"/>
		<stop  offset="1" style="stop-color:#6F577E"/>
	</radialGradient>
	<path style="fill:url(#SVGID_3_);" d="M125.82,62.098c0,0-3.236-11.904-9.073-19.378c-5.837-7.473-19.505-17.214-19.505-17.214
		s6.139,15.621,11.976,23.094C115.055,56.074,125.82,62.098,125.82,62.098z"/>
	
		<radialGradient id="SVGID_4_" cx="134.6408" cy="44.88" r="42.7741" gradientTransform="matrix(0.9442 0 0 -0.9442 -0.5494 106.4994)" gradientUnits="userSpaceOnUse">
		<stop  offset="0.0017" style="stop-color:#E2DCE5"/>
		<stop  offset="1" style="stop-color:#6F577E"/>
	</radialGradient>
	<path style="fill:url(#SVGID_4_);" d="M135.768,65.181c0,0,6.558-5.248,12.767-7.015s17.635-1.639,17.635-1.639
		s-9.645,6.127-15.855,7.894C144.106,66.188,135.768,65.181,135.768,65.181z"/>
	
		<radialGradient id="SVGID_5_" cx="134.6408" cy="44.88" r="42.7741" gradientTransform="matrix(0.9442 0 0 -0.9442 -0.5494 106.4994)" gradientUnits="userSpaceOnUse">
		<stop  offset="0.0017" style="stop-color:#E2DCE5"/>
		<stop  offset="1" style="stop-color:#6F577E"/>
	</radialGradient>
	<path style="fill:url(#SVGID_5_);" d="M122.276,65.181c0,0-6.558-5.248-12.767-7.015s-17.635-1.639-17.635-1.639
		s9.645,6.127,15.855,7.894C113.938,66.188,122.276,65.181,122.276,65.181z"/>
	<path style="fill:#383838;" d="M282.691,105.786v4.598h-1.373v-4.598h-1.708v-1.23h4.79v1.23H282.691z M290.691,110.384v-3.623
		l-1.517,3.623h-1.022l-1.485-3.577v3.577h-1.34v-5.828h1.836l1.548,3.705l1.517-3.705H292v5.828H290.691z"/>
</g>
</svg>
