<?xml version="1.0" encoding="iso-8859-1"?>
<!-- Generator: Adobe Illustrator 22.1.0, SVG Export Plug-In . SVG Version: 6.00 Build 0)  -->
<svg version="1.1" id="Layer_1" xmlns="http://www.w3.org/2000/svg" xmlns:xlink="http://www.w3.org/1999/xlink" x="0px" y="0px"
	 viewBox="0 0 300 115" style="enable-background:new 0 0 300 115;" xml:space="preserve">
<g>
	<g>
		<path style="fill:#4D4E4E;" d="M45.883,109.186h-3.166l-0.665-8.03l-3.849,8.03h-0.455l-3.796-8.065l-0.7,8.065h-3.096l1.4-12.351
			h3.236l3.201,6.858l3.236-6.858h3.201L45.883,109.186z"/>
		<path style="fill:#4D4E4E;" d="M59.094,109.186h-7.54V96.836h8.012v2.432h-4.793v2.362h4.111v2.414h-4.111v2.694h5.72
			L59.094,109.186z"/>
		<path style="fill:#4D4E4E;" d="M74.49,109.169c-0.455,0.122-1.225,0.332-2.589,0.332c-4.426,0-7.033-2.781-7.033-6.35
			c0-3.481,2.467-6.63,7.26-6.63c1.4,0,2.467,0.262,3.306,0.507v2.746c-0.437-0.28-1.452-0.927-2.921-0.927
			c-2.729,0-4.286,1.907-4.286,4.164c0,2.379,1.679,4.233,4.548,4.233c1.102,0,2.204-0.245,3.219-0.665L74.49,109.169z"/>
		<path style="fill:#4D4E4E;" d="M92.056,109.186H88.82v-5.266h-4.811v5.266H80.79V96.836h3.219v4.636h4.811v-4.636h3.236V109.186z"
			/>
		<path style="fill:#4D4E4E;" d="M109.237,109.186h-3.411l-0.84-2.467h-4.408l-0.892,2.467h-3.201l4.863-12.351h3.131
			L109.237,109.186z M104.339,104.813l-1.312-3.901c-0.087-0.28-0.122-0.367-0.175-0.682c-0.122,0.385-0.122,0.42-0.192,0.612
			l-1.417,3.971H104.339z"/>
		<path style="fill:#4D4E4E;" d="M125.649,109.186h-2.082l-6.77-7.505v7.505h-3.131V96.836h2.834l6.035,6.7v-6.7h3.114V109.186z"/>
		<path style="fill:#4D4E4E;" d="M134.993,109.186h-3.236V96.836h3.236V109.186z"/>
		<path style="fill:#4D4E4E;" d="M149.969,109.169c-0.455,0.122-1.225,0.332-2.589,0.332c-4.426,0-7.033-2.781-7.033-6.35
			c0-3.481,2.467-6.63,7.26-6.63c1.4,0,2.467,0.262,3.306,0.507v2.746c-0.437-0.28-1.452-0.927-2.922-0.927
			c-2.729,0-4.286,1.907-4.286,4.164c0,2.379,1.679,4.233,4.548,4.233c1.102,0,2.204-0.245,3.219-0.665L149.969,109.169z"/>
		<path style="fill:#4D4E4E;" d="M167.728,109.186h-3.411l-0.84-2.467h-4.408l-0.892,2.467h-3.201l4.863-12.351h3.131
			L167.728,109.186z M162.829,104.813l-1.312-3.901c-0.087-0.28-0.122-0.367-0.175-0.682c-0.122,0.385-0.122,0.42-0.192,0.612
			l-1.417,3.971H162.829z"/>
		<path style="fill:#4D4E4E;" d="M179.643,109.186h-7.488V96.836h3.236v9.884h5.686L179.643,109.186z"/>
		<path style="fill:#4D4E4E;" d="M194.096,96.836h5.528c3.429,0,6.123,2.204,6.123,6.07c0,1.767-0.63,3.394-1.732,4.513
			c-1.679,1.697-3.674,1.767-5.056,1.767h-4.863V96.836z M197.298,106.807h0.91c0.682,0,1.4-0.017,2.134-0.35
			c1.574-0.717,1.994-2.257,1.994-3.464c0-2.327-1.487-3.726-3.726-3.761h-1.312V106.807z"/>
		<path style="fill:#4D4E4E;" d="M218.625,109.186h-7.54V96.836h8.012v2.432h-4.793v2.362h4.111v2.414h-4.111v2.694h5.721
			L218.625,109.186z"/>
		<path style="fill:#4D4E4E;" d="M224.609,105.985c0.245,0.192,0.56,0.437,1.155,0.717c0.665,0.298,1.417,0.507,2.064,0.507
			c0.612,0,1.067-0.175,1.347-0.402c0.28-0.245,0.472-0.647,0.472-1.067c0-0.91-0.752-1.242-1.417-1.539l-0.7-0.28
			c-0.91-0.385-2.887-1.26-2.887-3.551c0-1.784,1.329-3.849,4.478-3.849c1.155,0,2.117,0.228,3.149,0.717v2.642
			c-0.822-0.7-1.714-1.102-2.799-1.102c-1.312,0-1.644,0.822-1.644,1.33c0,0.857,0.752,1.189,1.504,1.539l0.892,0.367
			c0.875,0.402,2.659,1.225,2.659,3.551c0,2.099-1.679,3.936-4.636,3.936c-0.455,0-1.959-0.052-3.639-0.752V105.985z"/>
		<path style="fill:#4D4E4E;" d="M241.738,109.186h-3.236V96.836h3.236V109.186z"/>
		<path style="fill:#4D4E4E;" d="M259.565,108.312c-1.697,0.735-3.499,1.189-5.336,1.189c-4.391,0-7.155-2.589-7.155-6.42
			c0-3.429,2.589-6.56,7.61-6.56c1.435,0,2.677,0.21,4.059,0.647v2.764c-0.542-0.332-1.819-1.102-3.674-1.102
			c-2.799,0-4.671,1.767-4.671,4.216c0,2.222,1.487,4.251,4.286,4.251c0.892,0,1.452-0.21,1.872-0.367l0.035-2.344h-2.921
			l1.259-2.222h4.671L259.565,108.312z"/>
		<path style="fill:#4D4E4E;" d="M277.184,109.186h-2.082l-6.77-7.505v7.505H265.2V96.836h2.834l6.035,6.7v-6.7h3.114V109.186z"/>
	</g>
	<path style="fill:#2E95A3;" d="M142.187,56.939c1.807-1.053,6.118-3.671,8.471-8.939c1.128-2.353,1.693-4.989,1.693-7.718
		c0-13.083-10.917-18.541-21.269-18.541h-30.117v66.445h16.94V60.234c1.47,0,2.938-0.029,4.184-0.064l16.864,28.017h18.918
		l-18.433-30.147C140.711,57.638,141.661,57.246,142.187,56.939z M117.906,33.975h5.46c3.67,0,6.869,0,9.034,1.601
		c1.411,0.942,2.917,2.916,2.917,5.931c0,3.857-2.446,6.68-5.928,7.528c-1.507,0.376-2.824,0.376-4.895,0.469l-6.588,9.318V33.975z"
		/>
	<path style="fill:#2E95A3;" d="M206.915,56.187c-1.977-1.411-4.14-2.165-5.741-2.824c6.4-2.824,10.071-7.433,10.071-14.211
		c0-12.988-11.389-17.411-20.8-17.411h-28.234v66.445h27.482c4.799,0,11.013-0.188,16.564-4.516
		c4.799-3.672,7.342-9.039,7.342-14.495C213.598,63.717,210.962,58.916,206.915,56.187z M178.869,34.07h6.4
		c4.516,0,9.976,0.847,9.976,6.964c0,3.105-1.882,6.024-6.024,7.059c-1.506,0.376-3.01,0.376-4.33,0.376l-6.022,8.846V34.07z
		 M185.739,76.045h-6.869V58.729h4.328c6.588,0,13.177,1.222,13.177,8.657C196.375,73.41,192.138,76.045,185.739,76.045z"/>
	<rect x="218.454" y="21.741" style="fill:#2E95A3;" width="17.412" height="66.445"/>
	<polygon style="fill:#2E95A3;" points="240.85,21.741 240.85,34.917 259.862,34.917 259.862,88.186 277.176,88.186 277.176,34.917 
		296,34.917 296,21.741 	"/>
	<g>
		<path style="fill:#2E95A3;" d="M83.174,29.265C92.925,16.68,98.901,6.478,96.783,4.456C94.648,2.42,83.834,8.282,71.176,18.355
			c0.691,0.203,1.363,0.429,2.029,0.663c5.352-3.063,9.33-4.172,10.669-2.896c1.406,1.341-0.016,5.313-3.524,10.861
			c-5.844-4.213-13.447-6.742-22.592-6.742c-22.682,0-36.422,15.435-36.422,34.916c0,9.248,2.937,17.42,8.388,23.532
			c-6.448,4.423-11.141,6.391-12.69,4.914c-1.467-1.4-0.085-5.971,3.601-12.1c-0.228-0.538-0.434-1.09-0.638-1.642
			C9.482,83.064,3.259,94.448,5.46,96.548c2.218,2.115,13.331-4.697,26.688-15.426c6.256,5.616,15.061,8.95,25.987,8.95
			c23.151,0,35.857-16.94,35.857-35.292C93.992,44.827,90.203,35.653,83.174,29.265z M57.713,77.242
			c-11.335,0-18.137-9.636-18.137-21.916c0-12.659,7.179-22.107,18.137-22.107c11.148,0,17.95,9.543,17.95,22.39
			C75.664,65.717,70.09,77.242,57.713,77.242z"/>
		<path style="fill:#2E95A3;" d="M59.259,48.352v-3.609h-2.539v3.609c-2.778,0.518-4.965,2.706-5.484,5.484h-3.61v2.539h3.61
			c0.519,2.778,2.706,4.965,5.484,5.484v3.61h2.539v-3.61c2.778-0.519,4.965-2.706,5.484-5.484h3.61v-2.539h-3.61
			C64.224,51.057,62.037,48.869,59.259,48.352z"/>
	</g>
</g>
</svg>
