<?xml version="1.0" encoding="iso-8859-1"?>
<!-- Generator: Adobe Illustrator 22.1.0, SVG Export Plug-In . SVG Version: 6.00 Build 0)  -->
<svg version="1.1" id="Layer_1" xmlns="http://www.w3.org/2000/svg" xmlns:xlink="http://www.w3.org/1999/xlink" x="0px" y="0px"
	 viewBox="0 0 300 83" style="enable-background:new 0 0 300 83;" xml:space="preserve">
<g>
	<g>
		<path style="fill:#00ADEE;" d="M38.118,64.195L18.933,53.166c-0.374-0.298-0.905-1.215-0.977-1.69l0.049-19.626
			c0.073-0.486,0.617-1.429,1.004-1.735l19.108-11.032V10c-0.358,0.141-0.7,0.3-1.016,0.484L14.982,23.254
			c-2.708,1.563-4.927,5.4-4.934,8.525L10,51.52c-0.007,3.126,2.206,6.958,4.916,8.516l22.043,12.67
			c0.358,0.206,0.748,0.384,1.158,0.535V64.195z"/>
		<path style="fill:#00ADEE;" d="M68.992,23.145L46.951,10.473c-0.274-0.158-0.571-0.296-0.875-0.421v9.08l18.907,10.877
			c0.377,0.299,0.901,1.219,0.973,1.694l-0.049,19.625c-0.071,0.488-0.619,1.431-1.004,1.737L46.075,63.933v9.126
			c0.254-0.11,0.502-0.23,0.733-0.363l22.122-12.77c2.705-1.564,4.926-5.399,4.933-8.526l0.047-19.741
			C73.914,28.534,71.703,24.702,68.992,23.145z"/>
	</g>
	<polygon style="fill:#83D3F3;" points="46.075,54.678 42.127,56.989 38.118,54.678 38.118,28.534 42.097,26.328 46.075,28.534 	"/>
	<g>
		<path style="fill:#262626;" d="M102.845,38.78v-0.961c0-2.04-0.797-2.181-3.752-2.181c-3.401,0-3.986,0.563-3.986,4.01v3.893
			c0.023,3.517,0.446,4.197,3.986,4.197c2.72,0,3.94-0.094,3.94-2.603v-0.961h3.376v1.149c0.07,5.299-2.955,5.112-7.316,5.299
			c-6.191,0.235-7.292-1.805-7.364-6.941v-4.034c0-5.628,2.181-6.894,7.364-6.894c4.384,0,6.893,0.023,7.128,5.065v0.961H102.845z"
			/>
		<path style="fill:#262626;" d="M113.277,47.597h8.206v2.884h-11.583V32.895h3.377V47.597z"/>
		<path style="fill:#262626;" d="M138.622,39.179v4.736c0,5.628-2.18,6.707-7.504,6.707c-5.439,0-7.432-0.938-7.432-6.707v-4.736
			c0-5.464,1.852-6.425,7.432-6.425C136.184,32.754,138.622,33.528,138.622,39.179z M127.062,39.179v4.736
			c0,3.494,0.68,3.823,4.056,3.823c3.073,0,4.128-0.422,4.128-3.823v-4.736c0.07-3.307-1.126-3.541-4.128-3.541
			C127.484,35.638,127.132,36.388,127.062,39.179z"/>
		<path style="fill:#262626;" d="M156.862,32.895v12.498c0,4.901-3.073,5.229-7.34,5.229c-4.126,0-7.292-0.305-7.292-5.229V32.895
			h3.377v12.498c0,1.806,0.656,2.345,3.915,2.345c3.119,0,3.963-0.445,3.963-2.345V32.895H156.862z"/>
		<path style="fill:#262626;" d="M161.008,32.895h8.394c4.855,0,6.918,1.759,6.918,6.543v4.15c0,3.658-1.032,6.894-6.354,6.894
			h-8.958V32.895z M169.966,47.597c2.275,0,2.978-2.04,2.978-4.01v-4.15c0-2.931-0.962-3.659-3.542-3.659h-5.018v11.819H169.966z"/>
		<path style="fill:#00ADEE;" d="M180.888,32.895h7.785c4.714,0,6.261,1.126,6.261,6.05c0,4.971-1.664,5.838-6.261,5.838h-4.408
			v5.698h-3.377V32.895z M188.673,41.899c2.416-0.047,2.885-0.492,2.885-2.954c0-2.486-0.353-3.189-2.885-3.166h-4.408v6.12H188.673
			z"/>
		<path style="fill:#00ADEE;" d="M213.316,50.481h-3.377v-7.504h-8.183v7.504h-3.377V32.895h3.377v7.199h8.183v-7.199h3.377V50.481z
			"/>
		<path style="fill:#00ADEE;" d="M225.505,43.728v6.753h-3.377v-6.753l-6.354-10.834h3.845l4.174,7.504h0.07l4.244-7.504h3.893
			L225.505,43.728z"/>
		<path style="fill:#00ADEE;" d="M237.061,44.877v0.821c0,2.017,0.867,2.157,3.986,2.157c3.071,0,3.493-0.562,3.493-2.603
			c0-2.509-1.336-2.18-3.962-2.321c-3.8-0.235-6.801-0.094-6.801-5.206c0-4.831,3.049-4.971,7.271-4.971
			c3.587,0,6.519,0.117,6.519,4.737v0.563h-3.377v-0.563c0-1.899-0.774-1.97-3.141-1.97c-3.354,0-3.893,0.329-3.893,2.204
			c0,2.157,0.446,2.228,3.868,2.438c5.417,0.329,6.895,0.61,6.895,5.089c0,4.948-2.344,5.37-6.87,5.37
			c-3.893,0-7.364,0.117-7.364-4.924v-0.821H237.061z"/>
		<path style="fill:#00ADEE;" d="M254.786,50.481h-3.377V32.895h3.377V50.481z"/>
		<path style="fill:#00ADEE;" d="M269.486,38.78v-0.961c0-2.04-0.797-2.181-3.752-2.181c-3.401,0-3.986,0.563-3.986,4.01v3.893
			c0.023,3.517,0.446,4.197,3.986,4.197c2.72,0,3.94-0.094,3.94-2.603v-0.961h3.376v1.149c0.07,5.299-2.955,5.112-7.316,5.299
			c-6.191,0.235-7.292-1.805-7.364-6.941v-4.034c0-5.628,2.181-6.894,7.364-6.894c4.384,0,6.893,0.023,7.128,5.065v0.961H269.486z"
			/>
		<path style="fill:#00ADEE;" d="M279.144,44.877v0.821c0,2.017,0.867,2.157,3.986,2.157c3.071,0,3.494-0.562,3.494-2.603
			c0-2.509-1.338-2.18-3.963-2.321c-3.8-0.235-6.801-0.094-6.801-5.206c0-4.831,3.049-4.971,7.271-4.971
			c3.587,0,6.519,0.117,6.519,4.737v0.563h-3.377v-0.563c0-1.899-0.774-1.97-3.141-1.97c-3.354,0-3.893,0.329-3.893,2.204
			c0,2.157,0.446,2.228,3.868,2.438c5.417,0.329,6.895,0.61,6.895,5.089c0,4.948-2.344,5.37-6.87,5.37
			c-3.893,0-7.364,0.117-7.364-4.924v-0.821H279.144z"/>
	</g>
</g>
</svg>
