<?xml version="1.0" encoding="iso-8859-1"?>
<!-- Generator: Adobe Illustrator 22.1.0, SVG Export Plug-In . SVG Version: 6.00 Build 0)  -->
<svg version="1.1" id="Layer_1" xmlns="http://www.w3.org/2000/svg" xmlns:xlink="http://www.w3.org/1999/xlink" x="0px" y="0px"
	 viewBox="0 0 300 70" style="enable-background:new 0 0 300 70;" xml:space="preserve">
<g>
	<polygon points="293.341,26.337 286.209,12.484 164.839,12.484 164.839,57.504 286.209,57.504 293.5,43.272 293.5,26.716 	"/>
	<g>
		<g>
			<path d="M28.887,36.66h-7.599v-9.625h-7.194v9.625H6.53V12.816h7.564v8.511h7.194v-8.511h7.599V36.66z"/>
			<path d="M46.587,36.66H31.592V12.783h16.279v5.707h-8.747v3.242h7.464v5.608h-7.464v3.614h10.673L46.587,36.66z"/>
			<path d="M75.095,36.66h-8.207l-5.877-9.895h-1.993v9.895h-7.362V12.816h11.111c1.486,0,2.533,0.033,3.648,0.271
				c4.389,0.913,5.403,4.493,5.403,6.485c0,0.946-0.202,1.893-0.573,2.737c-0.913,1.991-2.365,2.87-2.973,3.207L75.095,36.66z
				 M59.018,26.191l2.702-3.883c0.472,0,0.945,0,1.385-0.171c0.877-0.338,1.385-1.149,1.385-2.025c0-0.777-0.406-1.352-0.845-1.622
				c-0.607-0.438-1.586-0.438-2.33-0.438h-2.297v8.139H59.018z"/>
			<path d="M99.72,36.66h-8.209l-5.875-9.895h-1.994v9.895h-7.363V12.816h11.113c1.484,0,2.532,0.033,3.646,0.271
				c4.39,0.913,5.404,4.493,5.404,6.485c0,0.946-0.202,1.893-0.574,2.737c-0.912,1.991-2.364,2.87-2.972,3.207L99.72,36.66z
				 M83.642,26.191l2.702-3.883c0.472,0,0.946,0,1.385-0.171c0.877-0.338,1.384-1.149,1.384-2.025c0-0.777-0.406-1.352-0.844-1.622
				c-0.609-0.438-1.588-0.438-2.332-0.438h-2.297v8.139H83.642z"/>
			<path d="M115.9,36.66h-14.996V12.783h16.281v5.707h-8.749v3.242h7.464v5.608h-7.464v3.614h10.673L115.9,36.66z"/>
			<path d="M132.459,36.66h-7.568V18.524h-6.483v-5.708h20.467v5.708h-6.416V36.66z"/>
			<path d="M153.57,36.66h-7.565V18.524h-6.486v-5.708h20.467v5.708h-6.416V36.66z"/>
		</g>
		<g>
			<path d="M17.37,57.354H6.4V39.886h11.908v4.174H11.91v2.374h5.459v4.101H11.91v2.643h7.806L17.37,57.354z"/>
			<path d="M37.237,57.354h-6.226l-2.817-4.449l-2.965,4.449h-6.003l6.003-9.117l-5.485-8.327h6.152l2.446,3.755l2.347-3.755h6.202
				l-5.559,8.327L37.237,57.354z"/>
			<path d="M49.212,57.354c-0.618,0.173-1.606,0.443-3.459,0.443c-6.078,0-9.931-3.779-9.931-8.919
				c0-4.867,3.408-9.437,10.475-9.437c1.952,0,3.509,0.344,4.621,0.594v4.594c-0.668-0.47-1.755-1.235-3.829-1.235
				c-3.657,0-5.56,2.519-5.56,5.288c0,2.964,2.149,5.335,5.83,5.335c2.101,0,3.731-0.691,4.349-0.964L49.212,57.354z"/>
			<path d="M70.289,57.354h-5.855l-0.914-2.866h-5.757l-1.014,2.866h-5.51l6.844-17.443h5.436L70.289,57.354z M62.481,51.399
				l-1.581-4.918c-0.074-0.223-0.124-0.542-0.198-0.84c-0.073,0.324-0.148,0.692-0.222,0.866l-1.656,4.892
				C58.826,51.399,62.481,51.399,62.481,51.399z"/>
			<path d="M78.328,57.354h-4.867L66.42,39.911h6.053l3.633,10.773l3.706-10.773h5.658L78.328,57.354z"/>
			<path d="M100.484,57.354h-5.856l-0.913-2.866h-5.758l-1.015,2.866h-5.51l6.844-17.443h5.437L100.484,57.354z M92.676,51.399
				l-1.581-4.918c-0.075-0.223-0.124-0.542-0.199-0.84c-0.073,0.324-0.148,0.692-0.223,0.866l-1.655,4.892
				C89.019,51.399,92.676,51.399,92.676,51.399z"/>
			<path d="M108.193,57.354h-5.534V44.086h-4.744V39.91h14.972v4.176h-4.694V57.354z"/>
			<path d="M119.506,57.354h-5.558V39.91h5.558V57.354z"/>
			<path d="M139.614,57.354h-3.781l-8.178-8.597v8.597h-5.436V39.91h4.47l7.487,8.203V39.91h5.437v17.444H139.614z"/>
			<path d="M159.794,56.067c-1.531,0.62-4.374,1.729-7.881,1.729c-6.45,0-10.13-3.729-10.13-9.041c0-4.82,3.558-9.289,10.748-9.289
				c0.888,0,3.358,0.097,5.929,0.863v4.596c-0.495-0.323-1.26-0.816-2.396-1.187c-0.938-0.296-1.853-0.393-2.618-0.393
				c-3.731,0-6.003,2.37-6.003,5.361c0,2.793,1.729,5.409,5.287,5.409c0.891,0,1.506-0.173,1.952-0.296v-2.793h-3.804l2.001-3.682
				h6.918v8.722H159.794z"/>
		</g>
	</g>
	<g>
		<rect x="257.622" y="43.975" style="fill:#F6DE19;" width="11.282" height="8.813"/>
		<rect x="228.236" y="43.975" style="fill:#F6DE19;" width="20.428" height="8.813"/>
		<g>
			<rect x="257.622" y="17.202" style="fill:#F6DE19;" width="11.282" height="8.811"/>
			<rect x="228.236" y="17.202" style="fill:#F6DE19;" width="20.428" height="8.811"/>
		</g>
		<polygon style="fill:#F6DE19;" points="223.262,33.596 223.262,36.107 226.513,41.963 268.904,41.963 268.904,27.739 
			226.513,27.739 		"/>
		<polygon style="fill:#F6DE19;" points="284.547,39.756 284.547,29.946 279.943,29.946 279.943,26.061 288.018,26.061 
			283.069,17.202 271.518,17.202 271.518,52.786 283.069,52.786 288.018,43.928 279.943,43.928 279.943,39.756 		"/>
		<g>
			<g>
				<polygon style="fill:#F6DE19;" points="227.732,33.596 221.871,33.596 221.871,33.194 220.026,33.194 220.026,33.596 
					218.685,33.596 218.685,30.348 210.754,30.348 210.754,32.113 211.973,32.113 211.973,34.112 210.754,34.112 210.754,35.877 
					211.973,35.877 211.973,37.876 210.754,37.876 210.754,39.64 218.685,39.64 218.685,36.392 220.026,36.392 220.026,36.793 
					221.871,36.793 221.871,36.392 227.732,36.392 				"/>
			</g>
		</g>
	</g>
</g>
</svg>
