<?xml version="1.0" encoding="iso-8859-1"?>
<!-- Generator: Adobe Illustrator 22.1.0, SVG Export Plug-In . SVG Version: 6.00 Build 0)  -->
<svg version="1.1" id="Layer_1" xmlns="http://www.w3.org/2000/svg" xmlns:xlink="http://www.w3.org/1999/xlink" x="0px" y="0px"
	 viewBox="0 0 300 118" style="enable-background:new 0 0 300 118;" xml:space="preserve">
<g>
	<polygon style="fill:#D31145;" points="110.419,45.406 110.419,77.949 103.566,77.949 103.566,45.406 96.657,45.406 96.657,40.82 
		117.381,40.82 117.381,45.406 	"/>
	<path style="fill:#D31145;" d="M131.552,53.179c-2.212-0.758-4.64-0.647-6.152,0.216v24.555h-6.586V50.425
		c3.024-1.456,6.694-2.265,14.032-2.048L131.552,53.179z"/>
	<path style="fill:#D31145;" d="M178.594,77.949V57.333c0-2.373-1.079-4.856-5.235-4.856c-2.158,0-3.293,0.324-4.534,0.81v24.662
		h-6.583V50.425c2.752-1.293,6.474-2.103,11.384-2.103c8.69,0,11.551,4.211,11.551,8.907v20.721H178.594z"/>
	<path style="fill:#D31145;" d="M197.455,78.435c-3.399,0-6.315-0.917-8.04-2.104l1.726-4.209c1.081,0.864,3.078,1.674,5.45,1.674
		c2.702,0,4.481-1.727,4.481-4.102c0-2.481-1.294-3.672-4.263-4.804c-5.504-2.104-6.639-5.128-6.639-8.149
		c0-4.641,3.673-8.42,9.232-8.42c3.235,0,5.665,0.81,7.554,2.052l-1.618,3.831c-0.864-0.703-2.593-1.62-4.641-1.62
		c-2.7,0-4.158,1.781-4.158,3.832c0,2.376,1.781,3.562,4.32,4.588c5.666,2.267,6.963,5.181,6.963,8.582
		C207.821,74.335,203.825,78.435,197.455,78.435"/>
	<polygon style="fill:#D31145;" points="282.605,77.949 272.891,63.109 272.784,63.109 272.784,77.949 266.254,77.949 
		266.254,35.586 272.784,35.586 272.784,62.028 272.891,62.028 282.12,48.86 288.813,48.86 278.775,62.191 290,77.949 	"/>
	<path style="fill:#D31145;" d="M219.894,44.812c0.649-0.269,1.836-0.592,3.456-0.592c5.071,0,7.067,2.535,7.067,7.555
		c0,4.704-2.054,7.583-7.563,7.61v4.06c9.974,0.21,14.149-5.187,14.149-11.615c0-6.585-3.994-11.55-13.547-11.55
		c-4.263,0-7.88,0.864-10.252,2.105v35.565h6.691V44.812z"/>
	<path style="fill:#D31145;" d="M149.909,74.011c-0.973,0.486-2.431,0.808-3.943,0.808c-3.831,0-6.098-1.62-6.098-5.397
		c0-4.386,2.64-6.057,7.077-6.934v-3.235c-7.477,1.085-13.282,3.596-13.282,10.385c0,5.613,3.938,8.849,11.872,8.849
		c4.533,0,8.204-0.861,10.524-2.102V58.361c0-7.503-4.75-10.04-10.74-10.04c-4.588,0-8.096,1.296-9.983,2.213l1.508,3.776
		c1.783-0.861,4.481-1.779,7.287-1.779c3.401,0,5.777,1.024,5.777,4.801V74.011z"/>
	<path style="fill:#D31145;" d="M254.14,74.011c-0.971,0.486-2.432,0.808-3.942,0.808c-3.832,0-6.097-1.62-6.097-5.397
		c0-4.387,2.639-6.059,7.076-6.936v-3.233c-7.477,1.084-13.281,3.595-13.281,10.385c0,5.613,3.938,8.849,11.871,8.849
		c4.534,0,8.204-0.861,10.525-2.102V58.361c0-7.503-4.75-10.04-10.74-10.04c-4.586,0-8.097,1.296-9.986,2.213l1.514,3.776
		c1.777-0.861,4.478-1.779,7.284-1.779c3.399,0,5.776,1.024,5.776,4.801V74.011z"/>
	<path style="fill:#6A737B;" d="M39.217,95.55c-0.275,0.631-0.778,1.712-0.982,2.155c1.02,1.96,2.11,3.759,3.246,5.345
		c0.996,1.387,2.087,2.68,3.238,3.843c0.646,0.649,1.19,1.162,1.71,1.596c-0.012-0.011-0.018-0.018-0.003-0.007
		c0.018,0.008,0.043,0.022,0.046,0.024c0.006,0.003,0.015,0.008,0.023,0.012c0.005,0.001,0.005,0.001,0.008,0.001
		c0.014,0.007,0.026,0.016,0.042,0.024c0.045,0.031,0.1,0.066,0.144,0.083c0.04,0.015,0.1,0.028,0.157,0.039
		c0.063,0.011,0.118,0.021,0.162,0.021c0.042,0,0.102-0.01,0.158-0.021c0.064-0.012,0.122-0.024,0.166-0.041
		c0.034-0.014,0.089-0.047,0.141-0.083c0.01-0.006,0.019-0.005,0.028-0.008c0.002-0.003,0.006-0.003,0.011-0.008
		c-0.01,0.005-0.018,0.005-0.025,0.008c0.012-0.008,0.048-0.025,0.057-0.03c0.013-0.009,0.03-0.015,0.047-0.024
		c0.523-0.437,1.067-0.943,1.704-1.588c2.428-2.448,4.644-5.602,6.587-9.379l0.028-0.059c0.241-0.47,0.492-0.956,0.725-1.454
		c0.045-0.09,0.088-0.188,0.13-0.29c0.039-0.094,0.083-0.188,0.127-0.282c0.112-0.249,0.226-0.51,0.338-0.763l0.133-0.304
		c0.336-0.773,0.632-1.488,0.906-2.187l0.083-0.206c0.235-0.592,0.476-1.203,0.695-1.824c0.022-0.063,0.044-0.13,0.066-0.201
		c0.022-0.07,0.045-0.144,0.072-0.217c0.206-0.596,0.405-1.222,0.605-1.855c2.584-8.13,4.012-17.53,4.132-27.214l0.015-0.572
		c0.006-0.244,0.012-0.496,0.012-0.743c0-0.246-0.006-0.499-0.012-0.743c0,0-0.015-0.572-0.015-0.599
		c-0.111-9.052-1.389-17.868-3.678-25.639c-0.079,0.313-0.158,0.61-0.235,0.924c-0.448,1.872-0.844,3.791-1.175,5.697l-0.021,0.114
		c0,0-0.018,0.1-0.018,0.099c-0.224,1.309-0.432,2.693-0.633,4.227c0.598,4.676,0.929,9.577,0.981,14.571l0.005,0.382l0.008,0.968
		l-0.008,0.966c0,0-0.005,0.384-0.005,0.382c-0.049,4.505-0.321,8.957-0.819,13.23l-0.047,0.403c0,0-0.08,0.682-0.08,0.678
		c-0.002,0.026-0.006,0.051-0.008,0.075c-0.003,0.018-0.005,0.036-0.01,0.054c-0.186,1.502-0.413,3.023-0.667,4.51l-0.015,0.106
		l-0.018,0.118c0.002-0.023,0.006-0.05,0.006-0.072c0,0.033-0.012,0.069-0.022,0.099c0.005-0.009,0.011-0.014,0.013-0.024
		c-0.008,0.056-0.019,0.112-0.028,0.161c0,0-0.012,0.08-0.012,0.075l-0.214,1.146l-0.053,0.269
		c-0.112,0.614-0.238,1.241-0.377,1.919c-0.363,1.726-0.731,3.275-1.127,4.737c-0.233,0.883-0.435,1.593-0.631,2.243v0.003
		c-0.027,0.091-0.055,0.179-0.083,0.265c0,0-0.055,0.164-0.052,0.16c-0.166,0.536-0.34,1.082-0.52,1.629
		c-1.52,4.555-3.335,8.399-5.403,11.429c-0.206,0.304-0.48,0.698-0.766,1.076c-0.287,0.381-0.57,0.755-0.868,1.106
		c-0.083,0.099-0.208,0.157-0.336,0.157c-0.132,0-0.255-0.058-0.34-0.157c-0.309-0.366-0.62-0.777-0.867-1.106
		c-0.377-0.501-0.755-1.036-1.12-1.595c-1.744-2.675-3.3-5.955-4.648-9.75c-0.323,0.759-0.7,1.648-0.7,1.648
		C39.304,95.357,39.265,95.45,39.217,95.55"/>
	<path style="fill:#6A737B;" d="M35.178,79.704c0.009-0.041,0.014-0.08,0.02-0.115c0.008-0.036,0.018-0.066,0.019-0.096
		c0.227-1.313,0.434-2.695,0.633-4.229c-0.595-4.663-0.925-9.566-0.979-14.57l-0.006-0.384l-0.006-0.968l0.006-0.967l0.006-0.382
		c0.067-6.599,0.614-12.974,1.631-18.952c0-0.004,0.077-0.463,0.077-0.463c0.187-1.059,0.397-2.15,0.646-3.335
		c0.365-1.729,0.733-3.278,1.125-4.735c0.23-0.871,0.431-1.583,0.628-2.243c-0.012,0.041-0.018,0.085-0.018,0.129
		c0-0.048,0.015-0.094,0.027-0.141c-0.003,0.008-0.006,0.009-0.009,0.015c0.027-0.09,0.055-0.171,0.08-0.253
		c0.021-0.061,0.041-0.119,0.058-0.181c0.202-0.655,0.37-1.179,0.528-1.657c1.532-4.586,3.368-8.457,5.463-11.497
		c0.188-0.271,0.434-0.626,0.697-0.976c0.263-0.349,0.561-0.746,0.867-1.106c-0.013,0.015-0.021,0.036-0.03,0.05
		c0.036-0.055,0.078-0.106,0.136-0.141c0.13-0.08,0.296-0.09,0.435-0.017c0.052,0.024,0.097,0.061,0.138,0.108
		c0.31,0.366,0.619,0.777,0.865,1.106c0.323,0.426,0.649,0.89,0.967,1.369c1.807,2.715,3.413,6.065,4.791,9.956
		c0.271-0.652,0.597-1.422,0.782-1.819l1.03-2.227c-1.332-2.559-2.792-4.848-4.353-6.8c-0.653-0.819-1.371-1.622-2.132-2.387
		c-0.649-0.655-1.195-1.166-1.722-1.605c0.018,0.015,0.03,0.021,0.011,0.015c-0.013-0.009-0.03-0.018-0.05-0.027
		c-0.006-0.005-0.012-0.006-0.023-0.011c-0.013-0.008-0.028-0.018-0.04-0.025v0.002c-0.051-0.036-0.106-0.069-0.141-0.083
		c-0.044-0.018-0.1-0.028-0.166-0.041C47.109,10.011,47.049,10,47.007,10c-0.044,0-0.1,0.011-0.16,0.023
		c-0.061,0.012-0.119,0.022-0.158,0.036c-0.042,0.018-0.1,0.055-0.145,0.086c-0.002,0-0.005,0-0.006,0
		c-0.005,0.005-0.008,0.006-0.01,0.008c-0.011,0.008-0.05,0.025-0.059,0.031c-0.015,0.007-0.031,0.014-0.052,0.027
		c-0.522,0.438-1.064,0.943-1.698,1.586c-2.428,2.444-4.643,5.6-6.588,9.378c-0.23,0.448-0.498,0.971-0.752,1.507
		c-0.047,0.094-0.088,0.196-0.133,0.299c-0.039,0.093-0.082,0.184-0.122,0.276c-0.135,0.294-0.269,0.601-0.401,0.9
		c0,0-0.07,0.166-0.073,0.166c-0.315,0.732-0.623,1.463-0.906,2.188l-0.09,0.222c-0.232,0.589-0.468,1.194-0.689,1.814
		c-0.024,0.067-0.048,0.139-0.069,0.213c-0.022,0.066-0.044,0.13-0.066,0.201c-0.191,0.546-0.375,1.121-0.55,1.682l-0.058,0.171
		c-2.582,8.134-4.013,17.535-4.132,27.216l-0.013,0.572c-0.008,0.244-0.014,0.496-0.014,0.743c0,0.247,0.006,0.499,0.014,0.743
		c0,0,0.013,0.572,0.013,0.597c0.112,9.055,1.391,17.877,3.682,25.651c0.077-0.311,0.155-0.619,0.231-0.934
		C34.454,83.518,34.848,81.601,35.178,79.704"/>
	<path style="fill:#6A737B;" d="M21.8,98.213c-0.034-0.077-0.073-0.151-0.107-0.233c0,0.002,0,0.002,0,0.002
		c0-0.002,0-0.003,0-0.003c-0.811-1.802-1.566-3.769-2.247-5.851c-0.454-1.391-0.883-2.848-1.274-4.341
		c-0.202-0.767-0.39-1.538-0.565-2.288c-1.839-7.892-2.812-16.935-2.812-26.155c0-0.151,0.002-0.3,0.005-0.444l0.005-0.357
		c0.008-1.205,0.03-2.376,0.069-3.481c0.565-17.327,4.523-32.654,10.59-40.994c0.388-0.537,0.77-1.03,1.142-1.469
		c0.083-0.099,0.208-0.157,0.336-0.157c0.13,0,0.255,0.058,0.342,0.157c1.123,1.33,2.207,2.923,3.219,4.737
		c0.006,0.011,0.014,0.019,0.021,0.033c0.012,0.025,0.033,0.052,0.044,0.073c0.034,0.063,0.067,0.125,0.096,0.184
		c0.024,0.047,0.044,0.089,0.067,0.128c1.164,2.152,2.228,4.617,3.182,7.306c0.323-0.749,0.717-1.673,0.849-1.947l0.958-2.126
		c-2.389-4.598-5.141-8.222-8.189-10.777c-0.025-0.014-0.06-0.031-0.096-0.054c-0.003,0-0.006,0-0.006-0.003
		c-0.009-0.002-0.055-0.03-0.064-0.034c-0.017-0.011-0.034-0.018-0.047-0.028c-0.021-0.012-0.044-0.026-0.054-0.029
		c-0.042-0.016-0.099-0.027-0.16-0.04C27.043,10.011,26.985,10,26.941,10c-0.044,0-0.1,0.011-0.157,0.021
		c-0.066,0.013-0.127,0.024-0.156,0.033c-0.044,0.022-0.101,0.055-0.157,0.091c-0.039,0.025-0.077,0.042-0.115,0.061
		C16.419,18.534,10,37.818,10,59.345c0,18.797,4.796,35.824,12.804,45.52c0.008,0.008,0.019,0.021,0.025,0.028
		c0.003,0.004,0.006,0.004,0.008,0.005c0.239,0.289,0.496,0.587,0.793,0.921c0,0,0.066,0.078,0.06,0.073
		c0.02,0.022,0.045,0.044,0.069,0.07c0.018,0.022,0.039,0.039,0.063,0.066c0.831,0.913,1.688,1.742,2.55,2.463
		c-0.016-0.012-0.028-0.021-0.011-0.012c0.027,0.012,0.067,0.031,0.118,0.061c0.055,0.036,0.105,0.067,0.149,0.085
		c0.039,0.015,0.096,0.028,0.151,0.039c0.057,0.009,0.119,0.021,0.163,0.021c0.044,0,0.103-0.01,0.161-0.021
		c0.061-0.012,0.119-0.024,0.164-0.041c0.039-0.016,0.099-0.052,0.143-0.083c0.002-0.002,0.006,0,0.008-0.003
		c0.003-0.002,0.005-0.005,0.006-0.008c0.012-0.006,0.052-0.025,0.066-0.034c0.011-0.005,0.025-0.011,0.041-0.019
		c0.508-0.423,1.046-0.925,1.703-1.585c2.432-2.453,4.647-5.608,6.597-9.406c0.23-0.441,0.496-0.96,0.742-1.482v-0.002
		c0.046-0.091,0.088-0.19,0.128-0.291c0.043-0.093,0.083-0.19,0.128-0.287c0.127-0.277,0.255-0.57,0.379-0.854
		c0,0,0.089-0.209,0.093-0.211c0.33-0.756,0.628-1.471,0.905-2.185c0,0.001,0.01-0.03,0.021-0.046l0.025-0.061
		c0.19-0.495,0.392-1.002,0.573-1.51c0.028-0.078,0.057-0.15,0.085-0.221c0.027-0.069,0.051-0.132,0.076-0.2
		c0.022-0.06,0.043-0.127,0.063-0.196c0.024-0.072,0.049-0.144,0.072-0.214c0.168-0.481,0.327-0.985,0.483-1.472
		c0,0,0.106-0.331,0.1-0.31c0.006-0.024,0.015-0.041,0.022-0.073c2.583-8.134,4.015-17.534,4.134-27.18
		c0-0.03,0.006-0.086,0.012-0.116c-0.006,0.027-0.009,0.057-0.009,0.083l0.012-0.562c0.003-0.248,0.009-0.503,0.009-0.753
		c0-0.251-0.006-0.509-0.012-0.757l-0.012-0.584c-0.058-4.882-0.447-9.694-1.153-14.301c-0.606-3.941-1.459-7.728-2.516-11.312
		c-0.556,2.217-1.059,4.487-1.46,6.804c-0.22,1.306-0.429,2.689-0.63,4.23c0.6,4.68,0.928,9.585,0.979,14.572l0.003,0.382
		l0.01,0.967c0,5.451-0.336,10.828-1.001,15.986c-0.19,1.477-0.406,2.929-0.638,4.311l-0.014,0.078
		c-0.008,0.047-0.018,0.097-0.025,0.15v0.002c-0.008,0.054-0.018,0.105-0.028,0.154c0,0-0.015,0.082-0.015,0.08
		c-0.173,0.988-0.323,1.797-0.472,2.544c-0.039,0.191-0.083,0.376-0.12,0.556c0,0-0.054,0.239-0.052,0.235
		c-0.348,1.656-0.717,3.222-1.098,4.647c-0.005,0.022-0.011,0.041-0.023,0.091c-0.151,0.562-0.318,1.154-0.513,1.819
		c-0.021,0.063-0.039,0.13-0.057,0.201c-0.02,0.072-0.041,0.149-0.066,0.224c-0.028,0.094-0.056,0.181-0.084,0.266
		c0,0-0.052,0.163-0.05,0.16c-0.163,0.532-0.337,1.079-0.525,1.643l-0.014,0.052c-1.928,5.765-4.289,10.321-7.015,13.547
		c-0.086,0.099-0.212,0.157-0.342,0.157c-0.128,0-0.254-0.057-0.336-0.157c-0.329-0.382-0.639-0.791-0.873-1.101
		c-0.003-0.005-0.003-0.008-0.006-0.009c-1.377-1.83-2.671-4.046-3.843-6.59C21.856,98.332,21.828,98.276,21.8,98.213"/>
	<path style="fill:#6A737B;" d="M72.318,20.7c0,0.002,0.005,0.008,0.006,0.009c4.384,9.749,6.897,23.83,6.897,38.634
		c0,20.224-4.526,38.136-11.809,46.746c-0.084,0.099-0.208,0.157-0.34,0.157c-0.13,0-0.254-0.058-0.34-0.157
		c-1.423-1.684-2.783-3.8-4.036-6.291c-0.94-1.869-1.808-3.946-2.596-6.17l-0.677,1.574c-0.305,0.732-0.897,2.016-1.126,2.503
		c2.395,4.604,5.152,8.235,8.21,10.792c-0.019-0.016-0.035-0.025-0.019-0.016c0.024,0.01,0.066,0.028,0.122,0.063
		c0.005,0.003,0.018,0.01,0.025,0.015c0.02,0.011,0.044,0.023,0.06,0.034c0.005,0.002,0.041,0.024,0.044,0.025
		c0.009,0.005,0.017,0.011,0.011,0.009c-0.05-0.021-0.105-0.031-0.163-0.031c0.061,0,0.113,0.014,0.163,0.033
		c0,0,0-0.002-0.002-0.002c0.041,0.015,0.096,0.027,0.16,0.039c0.064,0.011,0.119,0.021,0.163,0.021c0.044,0,0.109-0.011,0.16-0.021
		c0.063-0.012,0.122-0.024,0.157-0.037c0.041-0.018,0.1-0.054,0.159-0.093c0.037-0.022,0.071-0.039,0.109-0.055
		c9.937-8.327,16.358-27.612,16.358-49.136v-0.002c0-15.585-3.395-30.329-9.314-40.454c-2.115-3.622-4.491-6.548-7.059-8.695
		c0.016,0.015,0.03,0.02,0.015,0.012c-0.027-0.012-0.067-0.031-0.119-0.061c-0.048-0.034-0.103-0.067-0.142-0.083
		c-0.044-0.018-0.1-0.028-0.167-0.041C67.172,10.011,67.114,10,67.071,10c-0.044,0-0.1,0.011-0.158,0.021
		c-0.064,0.013-0.122,0.024-0.161,0.037c-0.041,0.019-0.096,0.052-0.145,0.086c-0.004,0-0.005,0-0.005,0
		c-0.003,0-0.005,0.006-0.006,0.006c-0.006,0.005-0.017,0.011-0.028,0.015c-0.003,0-0.003,0.003-0.003,0.003v-0.003
		c-0.021,0.012-0.047,0.027-0.063,0.033c0.016-0.005,0.028-0.013,0.043-0.019c-0.021,0.008-0.038,0.018-0.058,0.03
		c-0.517,0.431-1.058,0.936-1.703,1.587c-2.431,2.45-4.647,5.606-6.578,9.356c-0.006,0.013-0.012,0.036-0.018,0.049
		c-0.243,0.462-0.497,0.961-0.743,1.482c-0.046,0.096-0.091,0.197-0.135,0.304c-0.04,0.089-0.079,0.178-0.122,0.272
		c-0.128,0.28-0.257,0.575-0.381,0.861c0,0-0.089,0.203-0.09,0.203c-0.33,0.759-0.627,1.473-0.899,2.164
		c-0.006,0.021-0.014,0.037-0.027,0.07l-0.025,0.064c-0.193,0.49-0.392,0.997-0.576,1.51c-0.028,0.076-0.055,0.148-0.085,0.218
		c-0.027,0.067-0.05,0.127-0.072,0.19v0.002c-0.022,0.063-0.042,0.127-0.066,0.197c-0.024,0.073-0.046,0.147-0.069,0.221
		c-0.196,0.561-0.384,1.15-0.568,1.719c0,0-0.021,0.08-0.018,0.064c-0.006,0.022-0.011,0.039-0.022,0.073
		c-2.584,8.131-4.013,17.535-4.134,27.185c0,0.028-0.002,0.058-0.008,0.083c0.006-0.025,0.006-0.028,0.006-0.057l-0.012,0.572
		c-0.005,0.244-0.012,0.496-0.012,0.744c0,0.252,0.008,0.507,0.012,0.759l0.012,0.58c0.079,6.211,0.685,12.262,1.799,17.992
		c0.513,2.626,1.144,5.184,1.867,7.643c0.559-2.22,1.063-4.497,1.465-6.825c0.223-1.308,0.431-2.693,0.633-4.228
		c-0.6-4.678-0.927-9.579-0.984-14.573l-0.005-0.536l-0.008-0.814c0-5.442,0.339-10.82,1.001-15.984
		c0.191-1.463,0.408-2.914,0.644-4.324c0.006-0.04,0.012-0.086,0.021-0.133l0.012-0.084c-0.005,0.021-0.005,0.05-0.005,0.073
		c0-0.006,0-0.007,0.003-0.016c0-0.017,0.001-0.041,0.003-0.057c0.009-0.06,0.021-0.113,0.031-0.163c0,0,0.012-0.076,0.012-0.072
		c0.157-0.91,0.332-1.835,0.517-2.748l0.066-0.302c0,0,0.061-0.284,0.061-0.285c0.356-1.69,0.716-3.214,1.101-4.647
		c0.005-0.024,0.008-0.044,0.024-0.091c0.148-0.562,0.317-1.156,0.51-1.82c0.021-0.061,0.036-0.127,0.058-0.199
		c0.019-0.07,0.039-0.148,0.063-0.224v-0.001c0.022-0.075,0.047-0.148,0.072-0.221c0.021-0.069,0.041-0.135,0.063-0.206
		c0.205-0.656,0.363-1.159,0.525-1.643l0.016-0.049c1.928-5.764,4.287-10.321,7.014-13.547c0.086-0.099,0.21-0.157,0.34-0.157
		c0.131,0,0.255,0.058,0.34,0.157c0.268,0.317,0.544,0.663,0.871,1.101c0.002,0,0.002,0.003,0.002,0.005
		c1.197,1.589,2.334,3.473,3.378,5.604C71.863,19.715,72.094,20.199,72.318,20.7"/>
</g>
</svg>
