<?xml version="1.0" encoding="iso-8859-1"?>
<!-- Generator: Adobe Illustrator 22.1.0, SVG Export Plug-In . SVG Version: 6.00 Build 0)  -->
<svg version="1.1" id="Layer_1" xmlns="http://www.w3.org/2000/svg" xmlns:xlink="http://www.w3.org/1999/xlink" x="0px" y="0px"
	 viewBox="0 0 300 136" style="enable-background:new 0 0 300 136;" xml:space="preserve">
<g>
	<rect x="10" y="10" style="fill:#B42925;" width="280" height="116.098"/>
	<g>
		<g>
			<g>
				<g>
					<g>
						<path style="fill:#FFFFFF;" d="M162.761,35.195c0-1.025,0.342-1.879,1.025-2.562c0.683-0.683,1.537-1.025,2.391-1.025
							c1.025,0,1.879,0.342,2.562,1.025c0.683,0.683,1.025,1.537,1.025,2.562v37.576c0,1.025-0.342,1.879-1.025,2.562
							c-0.683,0.683-1.537,1.025-2.562,1.025s-1.708-0.342-2.391-1.025c-0.683-0.683-1.025-1.537-1.025-2.562V35.195z"/>
						<path style="fill:#FFFFFF;" d="M176.425,71.747c-2.904-3.074-4.27-6.832-4.27-11.273s1.366-8.198,4.27-11.273
							c2.904-3.074,6.49-4.612,10.76-4.612c3.074,0,5.807,0.854,8.369,2.733c0.171-0.854,0.683-1.537,1.196-2.05
							c0.512-0.512,1.366-0.854,2.22-0.854c0.854,0,1.708,0.342,2.22,1.025c0.854,0.854,1.196,1.537,1.196,2.562v25.108
							c0,0.854-0.342,1.708-1.025,2.391s-1.366,1.025-2.22,1.025s-1.537-0.342-2.22-0.854c-0.512-0.512-1.025-1.196-1.196-2.05
							c-2.562,1.879-5.466,2.733-8.369,2.733C182.915,76.358,179.329,74.821,176.425,71.747 M178.987,60.474
							c0,2.562,0.854,4.782,2.391,6.49c1.537,1.708,3.587,2.562,5.978,2.562s4.441-0.854,5.978-2.562
							c1.537-1.708,2.391-3.928,2.391-6.49s-0.854-4.782-2.391-6.49c-1.537-1.708-3.587-2.733-5.978-2.733s-4.441,0.854-5.978,2.733
							C179.67,55.691,178.987,57.912,178.987,60.474"/>
					</g>
					<g>
						<path style="fill:#FFFFFF;" d="M205.29,72.942V35.195c0-0.854,0.342-1.708,1.025-2.391c0.683-0.683,1.537-1.025,2.391-1.025
							c1.025,0,1.708,0.342,2.391,1.025s1.025,1.537,1.025,2.391v11.956c2.562-1.708,5.295-2.733,8.54-2.733
							c4.27,0,7.857,1.537,10.931,4.782c3.074,3.074,4.441,6.832,4.441,11.273s-1.537,8.028-4.441,11.273
							c-3.074,3.074-6.661,4.612-10.931,4.612c-3.074,0-5.978-0.854-8.711-2.733c-0.171,0.683-0.512,1.366-1.196,1.879
							s-1.366,0.854-2.22,0.854c-0.854,0-1.708-0.342-2.391-1.025C205.632,74.65,205.29,73.967,205.29,72.942 M226.64,54.154
							c-1.708-1.708-3.587-2.733-5.978-2.733s-4.441,0.854-5.978,2.733c-1.708,1.708-2.562,3.928-2.562,6.32s0.854,4.612,2.562,6.32
							c1.708,1.708,3.587,2.733,5.978,2.733s4.27-0.854,5.978-2.733c1.708-1.708,2.562-3.928,2.562-6.32
							C229.202,58.083,228.348,55.862,226.64,54.154"/>
						<path style="fill:#FFFFFF;" d="M258.409,48.005c0.683,0.512,1.196,1.196,1.366,2.05s0,1.708-0.342,2.562
							c-0.512,0.683-1.196,1.196-2.05,1.366c-0.854,0.171-1.708,0-2.562-0.512c-2.391-1.537-4.27-2.391-5.807-2.391
							s-2.733,0.342-3.758,1.196c-0.683,0.512-1.025,0.854-1.025,1.196s0,0.683,0.171,0.854c0.171,0.171,0.342,0.342,0.683,0.512
							c0.854,0.683,2.391,1.196,4.612,1.537l0,0l0,0c2.22,0.342,4.27,1.025,6.149,1.879c1.879,0.854,3.245,2.05,4.099,3.587
							c0.854,1.537,1.366,2.904,1.366,4.441c0,2.904-1.366,5.466-3.928,7.344c-2.391,1.708-5.124,2.562-8.198,2.562
							c-3.928,0-7.686-1.537-11.273-4.441c-0.683-0.512-1.025-1.366-1.196-2.22c-0.171-1.025,0.171-1.708,0.683-2.391
							s1.366-1.196,2.22-1.196c1.025-0.171,1.708,0.171,2.391,0.683c2.22,1.879,4.612,2.904,7.003,2.733
							c1.537,0,3.074-0.342,4.27-1.196c0.683-0.683,1.196-1.196,1.196-1.708s0-0.683-0.171-0.854s-0.342-0.512-0.854-0.683
							c-1.025-0.683-2.733-1.366-5.124-1.708l0,0c-2.22-0.342-4.27-1.025-5.807-1.879c-1.708-0.854-3.074-2.05-4.099-3.587
							c-0.683-1.196-1.025-2.562-1.025-3.928c0-2.733,1.196-5.124,3.758-7.003c2.22-1.537,4.953-2.391,7.857-2.391
							C251.918,44.589,255.163,45.785,258.409,48.005"/>
					</g>
					<g>
						<path style="fill:#FFFFFF;" d="M47.813,48.518c1.025-1.196,2.391-2.05,3.928-2.733c1.708-0.683,3.245-1.025,4.612-1.025
							c1.366,0,2.391,0.342,3.074,1.025c0.683,0.683,1.025,1.366,1.025,2.391c0,0.854-0.342,1.708-1.025,2.391
							c-0.683,0.683-1.366,1.025-2.391,1.025c-3.928,0.342-9.394,4.27-9.394,9.565v12.127c0,0.854-0.342,1.708-1.025,2.391
							c-0.683,0.683-1.537,1.025-2.391,1.025c-1.025,0-1.708-0.342-2.391-1.025c-0.683-0.683-1.025-1.537-1.025-2.391V48.005
							c0-0.854,0.342-1.708,1.025-2.391c0.854-0.512,1.537-0.854,2.562-0.854c1.025,0,1.708,0.342,2.391,1.025
							c0.683,0.683,1.025,1.366,1.025,2.391V48.518z"/>
						<path style="fill:#FFFFFF;" d="M90.171,59.62c0,0.854-0.342,1.708-0.854,2.22c-0.683,0.512-1.366,1.025-2.391,1.025H66.772
							c0.342,1.879,1.025,3.074,2.22,4.099c1.366,1.537,3.245,2.562,5.978,2.904c2.562,0.342,4.782-0.171,6.661-1.537
							c0.683-0.683,1.537-1.025,2.562-1.025c1.025,0,1.708,0.342,2.22,0.854c1.196,1.366,1.196,2.733,0,4.099
							c-3.074,2.733-6.832,4.27-11.102,4.099c-4.441,0-8.028-1.537-11.102-4.782c-2.904-3.074-4.441-6.832-4.612-11.273
							c0-4.441,1.537-8.198,4.612-11.273c2.904-3.074,6.49-4.612,10.76-4.612s7.857,1.366,10.59,4.27
							c2.904,2.733,4.441,6.32,4.782,10.59v0.342H90.171z M74.97,50.567c-2.391,0.171-4.441,0.854-5.807,2.22
							c-1.537,1.366-2.391,2.904-2.733,4.441h17.934c-0.342-1.537-1.366-2.904-3.074-4.27C79.582,51.592,77.532,50.738,74.97,50.567
							"/>
						<path style="fill:#FFFFFF;" d="M123.306,72.942c0,0.854-0.342,1.708-1.025,2.391c-0.683,0.683-1.537,1.025-2.391,1.025
							s-1.708-0.342-2.22-0.854c-0.683-0.512-1.025-1.196-1.196-1.879c-2.733,1.879-5.466,2.733-8.711,2.733
							c-4.27,0-7.857-1.537-10.931-4.612c-3.074-3.074-4.441-6.832-4.441-11.273s1.537-8.028,4.441-11.273
							c3.074-3.074,6.661-4.782,10.931-4.782c3.074,0,5.978,0.854,8.54,2.733V35.195c0-1.025,0.342-1.708,1.025-2.391
							c0.683-0.683,1.537-1.025,2.391-1.025c1.025,0,1.708,0.342,2.391,1.025c0.683,0.683,1.025,1.537,1.025,2.391v37.747H123.306z
							 M107.934,69.526c2.391,0,4.27-0.854,5.978-2.733c1.708-1.708,2.562-3.928,2.562-6.32c0-2.391-0.854-4.612-2.562-6.32
							c-1.708-1.708-3.587-2.733-5.978-2.733c-2.391,0-4.441,0.854-5.978,2.733c-1.708,1.708-2.562,3.928-2.562,6.32
							c0,2.391,0.854,4.612,2.562,6.32C103.494,68.501,105.543,69.526,107.934,69.526"/>
						<path style="fill:#FFFFFF;" d="M133.383,35.195v1.366c0,1.025-0.342,1.879-1.025,2.562c-0.683,0.683-1.366,0.854-2.391,0.854
							s-1.708-0.342-2.391-1.025c-0.683-0.683-1.025-1.537-1.025-2.562v-1.196c0-0.854,0.342-1.708,1.025-2.391
							c0.683-0.683,1.537-1.025,2.391-1.025c1.025,0,1.708,0.342,2.391,1.025S133.383,34.171,133.383,35.195 M127.576,45.614
							c0.683-0.683,1.537-1.025,2.391-1.025c1.025,0,1.708,0.342,2.391,1.025c0.683,0.683,1.025,1.537,1.025,2.562v24.937
							c0,1.025-0.342,1.879-1.025,2.391c-0.683,0.683-1.537,1.025-2.391,1.025c-1.025,0-1.708-0.342-2.391-1.025
							c-0.683-0.683-1.025-1.537-1.025-2.391V48.176C126.551,47.151,126.893,46.297,127.576,45.614"/>
						<path style="fill:#FFFFFF;" d="M157.637,48.005c0.683,0.512,1.196,1.196,1.366,2.05s0,1.708-0.342,2.562
							c-0.512,0.683-1.196,1.196-2.05,1.366c-0.854,0.171-1.708,0-2.562-0.512c-2.391-1.537-4.27-2.391-5.807-2.391
							s-2.733,0.342-3.758,1.196c-0.683,0.512-1.025,0.854-1.025,1.196s0,0.683,0.171,0.854c0.171,0.171,0.342,0.342,0.683,0.512
							c0.854,0.683,2.391,1.196,4.612,1.537l0,0l0,0c2.22,0.342,4.27,1.025,6.149,1.879c1.879,0.854,3.245,2.05,4.099,3.587
							c0.854,1.537,1.366,2.904,1.366,4.441c0,2.904-1.366,5.466-3.928,7.344c-2.391,1.708-5.124,2.562-8.198,2.562
							c-3.928,0-7.686-1.537-11.273-4.441c-0.683-0.512-1.025-1.366-1.196-2.22c-0.171-1.025,0.171-1.708,0.683-2.391
							c0.512-0.683,1.366-1.196,2.22-1.196c1.025-0.171,1.708,0.171,2.391,0.683c2.22,1.879,4.612,2.904,7.003,2.733
							c1.537,0,3.074-0.342,4.27-1.196c0.683-0.683,1.196-1.196,1.196-1.708s0-0.683-0.171-0.854c0-0.171-0.342-0.512-0.854-0.683
							c-1.025-0.683-2.733-1.366-5.124-1.708l0,0c-2.22-0.342-4.27-1.025-5.807-1.879c-1.708-0.854-3.074-2.05-4.099-3.587
							c-0.683-1.196-1.025-2.562-1.025-3.928c0-2.733,1.196-5.124,3.758-7.003c2.22-1.537,4.953-2.391,7.857-2.391
							C151.147,44.589,154.221,45.785,157.637,48.005"/>
						<path style="fill:#FFFFFF;" d="M189.406,104.54c-0.512,0-1.025-0.512-1.025-1.025V92.584c0-0.512,0.512-1.025,1.025-1.025
							c0.512,0,1.025,0.512,1.025,1.025v1.196c0.854-1.025,2.391-2.22,4.612-2.22c0.512,0,1.025,0.512,1.025,1.025
							s-0.512,1.025-1.025,1.025c-1.196,0-4.612,1.879-4.612,4.441v5.295C190.43,104.028,189.918,104.54,189.406,104.54"/>
						<path style="fill:#FFFFFF;" d="M207.852,104.54c-3.416,0-6.32-2.904-6.32-6.49c0-3.587,2.904-6.49,6.32-6.49
							c3.245,0,5.978,2.562,6.32,5.978v0.171c0,0.512-0.512,1.025-1.025,1.025h-9.394c0.342,2.22,2.05,3.758,4.27,3.758
							c1.366,0,2.733-0.683,3.587-2.05c0.171-0.171,0.342-0.342,0.683-0.512c0.342,0,0.512,0,0.854,0.171
							c0.512,0.342,0.683,1.025,0.342,1.366C211.78,103.344,209.902,104.54,207.852,104.54 M203.753,96.683h8.028
							c-0.512-1.708-2.05-3.074-3.928-3.074C205.973,93.609,204.265,94.804,203.753,96.683"/>
						<path style="fill:#FFFFFF;" d="M231.764,104.54c-0.512,0-1.025-0.512-1.025-1.025v-0.683c-1.196,1.025-2.562,1.708-4.27,1.708
							c-3.416,0-6.32-2.904-6.32-6.49c0-3.587,2.733-6.49,6.32-6.49c1.537,0,3.074,0.512,4.27,1.708V87.46
							c0-0.512,0.512-1.025,1.025-1.025c0.512,0,1.025,0.512,1.025,1.025v16.055C232.789,104.028,232.276,104.54,231.764,104.54
							 M226.469,93.609c-2.391,0-4.27,2.05-4.27,4.441c0,2.391,1.879,4.441,4.27,4.441c2.22,0,4.099-1.879,4.27-4.099V98.05
							C230.568,95.488,228.69,93.609,226.469,93.609"/>
						<path style="fill:#FFFFFF;" d="M241.67,104.54c-0.512,0-1.025-0.512-1.025-1.025V92.584c0-0.512,0.512-1.025,1.025-1.025
							c0.512,0,1.025,0.512,1.025,1.025v10.931C242.695,104.028,242.183,104.54,241.67,104.54 M241.67,90.364
							c-0.512,0-1.025-0.512-1.025-1.025v-0.512c0-0.512,0.512-1.025,1.025-1.025c0.512,0,1.025,0.512,1.025,1.025v0.512
							C242.695,89.851,242.183,90.364,241.67,90.364"/>
						<path style="fill:#FFFFFF;" d="M147.56,104.54c-3.416,0-6.149-2.904-6.149-6.49c0-3.587,2.733-6.49,6.149-6.49
							c3.416,0,6.149,2.904,6.149,6.49C153.538,101.636,150.805,104.54,147.56,104.54 M147.56,93.609
							c-2.22,0-4.099,2.05-4.099,4.441c0,2.391,1.879,4.441,4.099,4.441s4.099-2.05,4.099-4.441
							C151.488,95.658,149.609,93.609,147.56,93.609"/>
						<path style="fill:#FFFFFF;" d="M160.882,104.54c-0.512,0-1.025-0.512-1.025-1.025V93.438h-1.196
							c-0.512,0-1.025-0.512-1.025-1.025c0-0.512,0.512-1.025,1.025-1.025h1.196v-0.854c0-1.537,0.342-2.391,0.854-3.074
							c0.683-0.683,1.537-1.025,2.733-1.025c0.512,0,1.025,0.512,1.025,1.025s-0.512,1.025-1.025,1.025
							c-0.683,0-1.025,0.171-1.196,0.342c-0.171,0.171-0.342,0.512-0.342,1.708v0.854h1.196c0.512,0,1.025,0.512,1.025,1.025
							c0,0.512-0.512,1.025-1.025,1.025h-1.196v10.077C161.907,104.028,161.565,104.54,160.882,104.54"/>
						<path style="fill:#FFFFFF;" d="M50.887,104.54c-0.512,0-1.025-0.512-1.025-1.025v-6.661c0-1.879-1.366-3.074-3.416-3.074
							c-1.879,0-3.416,1.366-3.416,3.074v6.661c0,0,0,1.025-1.025,1.025c-1.025,0-1.025-1.025-1.025-1.025V87.46
							c0-0.512,0.512-1.025,1.025-1.025c0.512,0,1.025,0.512,1.025,1.025v5.295c1.025-0.683,2.05-1.196,3.416-1.196
							c3.074,0,5.466,2.22,5.466,5.124v6.661C52.083,104.028,51.57,104.54,50.887,104.54"/>
						<path style="fill:#FFFFFF;" d="M64.893,104.54c-3.416,0-6.149-2.904-6.149-6.49c0-3.587,2.733-6.49,6.149-6.49
							c3.416,0,6.149,2.904,6.149,6.49C71.042,101.636,68.309,104.54,64.893,104.54 M64.893,93.609c-2.22,0-4.099,2.05-4.099,4.441
							c0,2.391,1.879,4.441,4.099,4.441c2.22,0,4.099-2.05,4.099-4.441S67.113,93.609,64.893,93.609"/>
						<path style="fill:#FFFFFF;" d="M96.491,104.54c-0.512,0-1.025-0.512-1.025-1.025v-6.49c0-1.879-1.537-3.245-3.245-3.245
							c-1.879,0-3.245,1.537-3.245,3.245v6.49c0,0.171,0,0.171,0,0.171s0,0,0,0.171c-0.171,0.342-0.342,0.512-0.512,0.512
							c-0.171,0.171-0.342,0.171-0.512,0.171H87.78h-0.171c-0.171,0-0.171,0-0.171-0.171c-0.171,0-0.171-0.171-0.171-0.171l0,0
							l-0.171-0.171l0,0c0,0,0,0,0-0.171v-0.171v-6.661c0-1.879-1.537-3.245-3.245-3.245c-1.879,0-3.245,1.537-3.245,3.245v6.49
							c0,0.342-0.171,0.683-0.512,0.854c0,0-0.171,0.171-0.342,0.171h-0.171h-0.171c-0.512,0-0.854-0.342-0.854-0.683v-0.171V92.584
							c0-0.512,0.512-1.025,1.025-1.025s1.025,0.512,1.025,1.025v0.171c0.854-0.683,2.05-1.196,3.245-1.196
							c1.708,0,3.245,0.854,4.27,2.22c1.025-1.366,2.562-2.22,4.27-2.22c2.904,0,5.295,2.391,5.295,5.295v6.49
							C97.516,104.028,97.003,104.54,96.491,104.54"/>
						<path style="fill:#FFFFFF;" d="M111.009,104.54c-3.416,0-6.32-2.904-6.32-6.49c0-3.587,2.904-6.49,6.32-6.49
							c3.245,0,5.978,2.562,6.32,5.978v0.171c0,0.512-0.512,1.025-1.025,1.025h-9.394c0.342,2.22,2.05,3.758,4.27,3.758
							c1.366,0,2.733-0.683,3.587-2.05c0.171-0.171,0.342-0.342,0.683-0.512c0.342,0,0.512,0,0.854,0.171
							c0.512,0.342,0.683,1.025,0.342,1.366C115.108,103.344,113.229,104.54,111.009,104.54 M106.91,96.683h8.028
							c-0.512-1.708-2.05-3.074-3.928-3.074S107.593,94.804,106.91,96.683"/>
						<path style="fill:#FFFFFF;" d="M254.993,104.54c-1.708,0-3.245-0.683-4.782-1.879c-0.512-0.342-0.512-1.025-0.171-1.366
							c0.171-0.171,0.342-0.342,0.683-0.342c0.342,0,0.512,0,0.854,0.171c1.196,0.854,2.391,1.366,3.416,1.366
							c0.854,0,1.537-0.171,2.05-0.683c0.512-0.342,0.683-0.683,0.683-1.196c0-0.342-0.171-0.683-0.683-1.196
							c-0.512-0.342-1.196-0.683-2.391-0.854c0,0,0,0-0.171,0c-1.025-0.171-2.05-0.512-2.904-1.025
							c-0.854-0.512-1.537-1.537-1.537-2.562s0.512-2.05,1.537-2.733c0.854-0.512,1.879-0.854,3.245-0.854
							c1.708,0,2.904,0.683,3.758,1.366c0.512,0.342,0.683,1.025,0.342,1.537c-0.342,0.512-0.854,0.683-1.366,0.342
							c-0.854-0.683-1.708-1.196-2.733-1.196c-0.854,0-1.537,0.171-2.05,0.512c-0.342,0.342-0.683,0.683-0.683,1.025
							c0,0.342,0,0.512,0.512,0.854c0.512,0.342,1.196,0.512,2.22,0.683c1.196,0.171,2.22,0.512,3.074,1.025
							c1.025,0.683,1.687,1.901,1.687,3.096c0,1.025-0.624,2.01-1.26,2.605S256.359,104.54,254.993,104.54"/>
					</g>
				</g>
			</g>
		</g>
	</g>
</g>
</svg>
