<?xml version="1.0" encoding="iso-8859-1"?>
<!-- Generator: Adobe Illustrator 22.1.0, SVG Export Plug-In . SVG Version: 6.00 Build 0)  -->
<svg version="1.1" id="Layer_1" xmlns="http://www.w3.org/2000/svg" xmlns:xlink="http://www.w3.org/1999/xlink" x="0px" y="0px"
	 viewBox="0 0 300 48" style="enable-background:new 0 0 300 48;" xml:space="preserve">
<g>
	<g>
		<path style="fill:#212222;" d="M14.869,25.46c-3.435-1.209-7.684-3.498-7.684-8.665c0-6.24,4.693-10.086,10.106-9.952
			c2.958,0.09,6.141,1.312,8.855,4.02l-3.734,4.19c-1.884-1.696-3.683-2.366-5.121-2.272c-2.237,0.095-3.707,1.827-3.707,3.785
			c0,2.176,1.448,3.07,4.159,4.004l2.701,0.896c3.399,0.996,7.687,4.129,7.687,9.723c0,6.049-4.879,10.007-10.81,9.926
			c-3.629-0.083-7.623-1.639-11.129-5.116l3.733-4.419c2.677,2.737,5.285,3.738,7.39,3.685c2.85-0.011,4.783-1.945,4.783-4.076
			c0-2.607-2.268-3.982-4.545-4.746L14.869,25.46z"/>
		<path style="fill:#212222;" d="M66.529,24.003c0,9.601-7.832,17.158-17.296,17.158s-17.295-7.557-17.295-17.158
			S39.769,6.844,49.233,6.844S66.529,14.401,66.529,24.003z M38.197,24.002c0,6.151,4.885,11.082,11.035,11.082
			s11.082-4.931,11.082-11.082S55.384,12.92,49.233,12.92S38.197,17.851,38.197,24.002z"/>
		<path style="fill:#212222;" d="M93.642,7.274h6.262v20.638c0,6.882-5.59,13.249-14.21,13.249c-8.574,0-14.164-6.367-14.164-13.249
			V7.274h6.262v19.815c0,4.526,3.512,8.039,7.902,8.039c4.435,0,7.948-3.513,7.948-8.039V7.274z"/>
		<path style="fill:#212222;" d="M127.833,7.274v5.756h-8.581v27.701h-6.212V13.076h-8.627V7.274H127.833z"/>
		<path style="fill:#212222;" d="M152.691,7.228h6.214v33.502h-6.214V26.409h-13.873v14.322h-6.214V7.274h6.214v13.104h13.873V7.228
			z"/>
		<path style="fill:#212222;" d="M197.681,7.274v5.756h-13.082v8.396h12.26v5.756h-12.26v13.549h-6.212V7.274H197.681z"/>
		<path style="fill:#212222;" d="M268.665,37.428c-2.928,2.351-6.646,3.733-10.707,3.733c-9.464,0-17.296-7.557-17.296-17.158
			c0-9.601,7.832-17.158,17.296-17.158c4.063,0,7.791,1.387,10.707,3.775l-4.281,4.281c-1.856-1.284-4.111-1.98-6.425-1.98
			c-6.151,0-11.037,4.931-11.037,11.083c0,6.15,4.886,11.128,11.037,11.128c2.312,0,4.564-0.741,6.42-2.022L268.665,37.428z"/>
		<path style="fill:#212222;" d="M293.042,7.274v5.756h-13.356v7.76h12.9v5.756h-12.9v8.429H293.5v5.757h-20.026V7.274H293.042z"/>
	</g>
	<polygon style="fill:#212222;" points="215.292,7.324 202.38,29.438 210.188,29.473 218.837,14.681 227.428,29.456 235.236,29.421 
		222.372,7.324 	"/>
	<linearGradient id="SVGID_1_" gradientUnits="userSpaceOnUse" x1="195.7417" y1="37.9398" x2="241.8478" y2="37.9398">
		<stop  offset="0" style="stop-color:#ECC35A"/>
		<stop  offset="1" style="stop-color:#F0634F"/>
	</linearGradient>
	<polygon style="fill:url(#SVGID_1_);" points="238.625,35.149 198.965,35.149 195.742,40.731 241.848,40.731 	"/>
</g>
</svg>
