<?xml version="1.0" encoding="iso-8859-1"?>
<!-- Generator: Adobe Illustrator 22.1.0, SVG Export Plug-In . SVG Version: 6.00 Build 0)  -->
<svg version="1.1" id="Layer_1" xmlns="http://www.w3.org/2000/svg" xmlns:xlink="http://www.w3.org/1999/xlink" x="0px" y="0px"
	 viewBox="0 0 300 178" style="enable-background:new 0 0 300 178;" xml:space="preserve">
<g>
	<path style="fill:#DC4301;" d="M69.677,31.679c0,0,19.051-3.481,27.854,2.374c5.983-6.183,6.929-12.077,0-14.861
		c-15.629-6.285-53.097,2.113-67.596-2.032c-2.247-0.641-3.381-1.598-3.381-1.598s-6.362,8.199-1.111,13.371
		c5.841,5.746,27.147,2.746,27.147,2.746c-1.019,12.173-3.022,27.252-3.022,27.252C44.864,92.455,49,96.393,49,96.393
		s9.05,4.474,22.091-1.087C69.407,91.051,60.758,84.474,69.677,31.679z"/>
	<path style="fill:#DC4301;" d="M220.05,89.144c3.373,5.605,11.014,9.523,19.284,8.885c11.764-0.905,19.713-9.434,21.455-19.936
		c0.536-3.224,4.119-36.946-26.554-28.426c-0.515,0.143-2.789,1.259-3.351,1.556c-10.192,5.342-17.332,19.241-12.784,33.805
		C218.098,85.028,219.576,88.644,220.05,89.144z M241.9,56.279c8.987-2.033,9.9,32.632-2.169,33.877
		c-4.357,0.45-6.399-6.215-6.718-10.967C232.467,71.02,236.061,57.873,241.9,56.279z"/>
	<path style="fill:#DC4301;" d="M275.563,93.47c-2.03-2.628-5.907-3.873-8.402,0.05c-2.587,4.069-3.133,7.078-8.995,10.966
		c-6.762,4.054-23.805,10.933-55.813,6.722c6.766-12.204,10.344-33.22,10.769-38.288c1.112-8.566,2.317-20.109,1.454-24.493
		c-2.861-1.927-7.195-4.309-11.703-3.683c-4.222,0.583-5.814,2.151-6.499,6.479c-7.577-1.95-14.976,1.229-19.288,6.5
		c-6.241,7.634-10.484,21.522-3.963,31.94c-4.379,1.794-6.97-0.879-8.242-2.575c-2.152-2.869-1.664-7.187-1.427-13.515
		c0.208-5.552,1.837-10.46,1.714-15.2c-0.162-6.259-4.193-9.844-10.836-9.102c-4.744,0.531-9.229,3.313-11.918,6.285
		c-3.052,3.376-4.97,7.768-6.718,11.703c-0.396-5.448,3.2-11.617,3.033-16.927c-0.045-1.432-0.641-3.316-1.732-4.333
		c-2.219-2.062-8.13-1.471-11.268-0.217c-2.505,6.225-3.087,13.169-3.034,21.694c0.047,7.494,0.524,15.297,1.085,22.103
		c-3.815,1.725-6.777-0.587-8.018-2.817c-2.825-5.081-1.572-15.675-0.651-22.104c0.877-6.115,2.457-15.843-1.515-18.874
		c-3.918-2.989-9.491,0.668-12.788,2.166c-0.711,0.444-0.867,1.695-1.047,3.029c-9.298-3.074-17.722,3.689-21.706,9.779
		c-6.41,9.803-6.571,27.632,2.169,34.456c4.644,3.628,13.091,3.672,18.202-0.65c1.444-1.222,2.309-2.652,3.466-4.335
		c2.084,4.236,7.31,7.885,13.436,7.801c3.622-0.048,6.518-1.63,9.318-3.033c1.815,3.747,11.036,4.128,13.003,0.217
		c-2.189-8.013-1.356-21.447,2.6-28.822c0.733-1.366,3.218-4.647,4.985-4.333c2.105,0.372,2.398,5.237,2.6,8.018
		c0.856,11.842-0.5,18.479,6.885,23.887c6.696,4.902,15.789,5.034,22.41,1.242c1.891,2.286,7.573,3.15,11.665,2.645
		c3.367-0.415,6.705-2.138,8.226-4.611c-1.625,5.906-3.806,11.422-6.612,16.528c-55.926-5.987-134.946-4.936-129.025,34.919
		c1.97,13.277,19.533,18.895,40.998,18.89c24.801-0.006,49.249-7.181,67.989-18.555c2.265-1.138,10.701-5.768,19.447-15.523
		c3.029-3.25,5.653-6.655,7.802-10.183c0.756-1.154,1.509-2.357,2.255-3.62c50.026,5.469,68.836-8.536,72.07-11.182
		C277.079,101.155,277.511,96,275.563,93.47z M97.99,84.378c-0.67,2.667-1.548,5.799-3.901,6.068
		c-4.352,0.494-6.4-6.734-6.719-11.486c-0.546-8.17,3.164-20.808,8.887-23.188c0.585-0.244,2.229-0.391,3.033,0
		C98.443,64.608,100.072,76.071,97.99,84.378z M195.235,84.378c-0.67,2.667-1.548,5.799-3.901,6.068
		c-4.351,0.494-6.4-6.734-6.719-11.486c-0.546-8.17,3.164-20.808,8.887-23.188c0.585-0.244,2.229-0.391,3.033,0
		C196.544,59.826,197.317,76.071,195.235,84.378z M107.065,149.444c-8.788-1.135-21.662-6.916-22.161-15.23
		c-1.681-27.877,78.354-22.155,102.707-19.811c-0.546,0.828-1.111,1.643-1.695,2.446c-5.21,6.775-11.784,12.719-19.19,17.639
		C153.482,143.162,126.444,151.953,107.065,149.444z"/>
</g>
</svg>
