<?xml version="1.0" encoding="iso-8859-1"?>
<!-- Generator: Adobe Illustrator 22.1.0, SVG Export Plug-In . SVG Version: 6.00 Build 0)  -->
<svg version="1.1" id="Layer_1" xmlns="http://www.w3.org/2000/svg" xmlns:xlink="http://www.w3.org/1999/xlink" x="0px" y="0px"
	 viewBox="0 0 300 110" style="enable-background:new 0 0 300 110;" xml:space="preserve">
<g>
	<g>
		<path style="fill:#414042;" d="M8.142,51.924h4.3v18.579h9.69v3.883H8.142V51.924z"/>
		<path style="fill:#414042;" d="M26.143,51.924h4.3v22.462h-4.3V51.924z"/>
		<path style="fill:#414042;" d="M52.247,53.432c1.38,1.006,2.069,2.375,2.069,4.107c0,1.241-0.348,2.305-1.042,3.192
			c-0.696,0.888-1.653,1.482-2.872,1.781c1.497,0.278,2.668,0.92,3.514,1.925c0.845,1.006,1.268,2.257,1.268,3.754
			c0,1.925-0.744,3.439-2.23,4.541c-1.487,1.102-3.514,1.652-6.081,1.652H36.604V51.924h9.979
			C48.979,51.924,50.867,52.427,52.247,53.432z M48.974,60.363c0.63-0.492,0.946-1.176,0.946-2.054c0-0.855-0.316-1.519-0.946-1.99
			c-0.631-0.47-1.503-0.695-2.615-0.674h-5.455v5.455h5.455C47.471,61.101,48.343,60.855,48.974,60.363z M49.567,69.894
			c0.771-0.535,1.155-1.284,1.155-2.247c0-0.919-0.385-1.641-1.155-2.166c-0.77-0.524-1.84-0.775-3.208-0.754h-5.455v5.937h5.455
			C47.728,70.685,48.797,70.428,49.567,69.894z"/>
		<path style="fill:#414042;" d="M59.997,51.924h16.461v3.754H64.296v5.551h10.91v3.754h-10.91v5.647h12.546v3.754H59.997V51.924z"
			/>
		<path style="fill:#414042;" d="M95.903,74.386l-3.883-6.642c-0.171,0.021-0.439,0.032-0.802,0.032h-5.07v6.61h-4.3V51.924h9.37
			c2.909,0,5.155,0.674,6.739,2.021c1.583,1.348,2.375,3.252,2.375,5.712c0,1.754-0.38,3.252-1.139,4.492
			c-0.76,1.241-1.867,2.171-3.321,2.792l4.941,7.444H95.903z M86.148,63.989h5.07c1.625,0,2.866-0.353,3.722-1.059
			c0.855-0.706,1.284-1.754,1.284-3.145c0-1.369-0.428-2.396-1.284-3.081c-0.856-0.685-2.097-1.027-3.722-1.027h-5.07V63.989z"/>
		<path style="fill:#414042;" d="M103.187,51.924h18.322v3.818h-6.995v18.644h-4.332V55.742h-6.995V51.924z"/>
		<path style="fill:#414042;" d="M143.265,51.924l-8.182,15.114v7.348h-4.3v-7.188l-8.375-15.274h4.364l6.129,10.557l6.033-10.557
			H143.265z"/>
		<path style="fill:#414042;" d="M189.183,51.924h4.3v18.579h9.69v3.883h-13.99V51.924z"/>
		<path style="fill:#414042;" d="M207.184,51.924h16.461v3.754h-12.161v5.551h10.91v3.754h-10.91v5.647h12.547v3.754h-16.847V51.924
			z"/>
		<path style="fill:#414042;" d="M244.278,63.219h3.754v8.536c-1.177,0.877-2.567,1.588-4.172,2.134
			c-1.604,0.546-3.177,0.818-4.717,0.818c-2.203,0-4.209-0.513-6.017-1.54s-3.235-2.423-4.283-4.188
			c-1.049-1.765-1.572-3.717-1.572-5.856c0-2.139,0.534-4.08,1.604-5.824c1.069-1.744,2.529-3.123,4.38-4.14
			c1.85-1.016,3.898-1.524,6.145-1.524c1.604,0,3.188,0.289,4.749,0.866s2.909,1.369,4.043,2.375l-2.438,3.177
			c-0.855-0.812-1.845-1.444-2.968-1.893s-2.252-0.674-3.386-0.674c-1.412,0-2.711,0.337-3.898,1.011s-2.123,1.599-2.808,2.775
			c-0.686,1.177-1.027,2.46-1.027,3.851c0,1.412,0.348,2.707,1.043,3.883c0.695,1.177,1.631,2.107,2.808,2.792
			c1.177,0.685,2.481,1.027,3.915,1.027c0.771,0,1.577-0.123,2.423-0.369c0.845-0.246,1.652-0.594,2.423-1.043V63.219z"/>
		<path style="fill:#414042;" d="M270.27,74.386l-1.99-4.749h-10.974l-1.99,4.749h-4.46l9.852-22.462h4.46l9.723,22.462H270.27z
			 M258.846,65.946h7.894l-3.915-9.434L258.846,65.946z"/>
		<path style="fill:#414042;" d="M278.259,51.924h4.3v18.579h9.69v3.883h-13.99V51.924z"/>
	</g>
	<g>
		<g>
			<path style="fill:#DD562C;" d="M159.533,58.239h3.471v13.012h6.954v3.134h-10.424V58.239z"/>
		</g>
		<g>
			<path style="fill:#DD562C;" d="M169.957,68.08h-3.471V55.068h-6.954v-3.134h10.424V68.08z"/>
		</g>
		<path style="fill:#DD562C;" d="M181.476,22.954c-0.561,2.114-1.586,3.886-2.865,5.726c-1.494,2.146-4.606,4.82-6.535,5.466
			c1.656-1.237,2.43-3.658,1.431-5.491c-1.048,1.396-2.771,1.76-4.096,1.361c3.377-2.619,2.907-6.248,0.457-8.179
			c-0.652,1.594-3.102,4.403-4.722,5.097c-3.453,1.691-2.789-1.335-1.568-2.761c-3.881,0.561-10.063,5.249-5.597,9.95
			c-3.247-0.895-4.631-5.613-3.535-8.493c1.747-4.473,6.883-7.273,9.856-10.893c-0.88,2.574-2.407,5.397,1.614,2.26
			c3.649-2.846,8.067-8.156,8.81-12.986c2.077,2.603,2.921,7.875,1.099,11.937c1.598-0.824,2.792-2.951,3.016-5.07
			C180.862,12.798,182.634,18.185,181.476,22.954z"/>
		<path style="fill:#DD562C;" d="M179.923,36.106c0,2.549-1.766,4.817-4.519,6.277h-21.329c-2.753-1.456-4.523-3.727-4.523-6.277
			H179.923z"/>
		<path style="fill:#DD562C;" d="M173.837,45.566c0,1.273-0.882,2.405-2.256,3.134h-13.668c-1.375-0.727-2.258-1.861-2.258-3.134
			H173.837z"/>
	</g>
</g>
</svg>
