<?xml version="1.0" encoding="utf-8"?>
<!-- Generator: Adobe Illustrator 22.1.0, SVG Export Plug-In . SVG Version: 6.00 Build 0)  -->
<svg version="1.1" id="Layer_1" xmlns="http://www.w3.org/2000/svg" xmlns:xlink="http://www.w3.org/1999/xlink" x="0px" y="0px"
	 viewBox="0 0 284.9 153.4" style="enable-background:new 0 0 284.9 153.4;" xml:space="preserve">
<style type="text/css">
	.st0{fill:#383838;}
	.st1{fill:#883C27;}
</style>
<g>
	<path class="st0" d="M61.7,66.4c0-10.2-8.9-14.8-16.5-17.9c-6.4-2.6-9.3-5.1-9.3-8.9c0-2.5,2.5-5.5,7-5.5c4.3,0,10.4,4,11,4.3
		c0.9,0.6,2.1,0,2.8-0.9l3-4.5c0.6-0.8,0.3-2.1-0.5-2.6c-1.6-1.2-7.7-5.3-15.8-5.3c-12.6,0-17.8,8.1-17.8,15.2
		c0,9.3,7.4,14.1,14.9,17.1c6.6,2.7,10,5.5,10,9.5c0,3.4-3.1,6.1-7.2,6.1c-5.1,0-11.5-4.7-11.9-4.9c-0.7-0.6-2.1-0.6-2.7,0.6
		l-2.8,4.9c-0.7,1.3-0.3,1.7,0.4,2.4c1.6,1.5,7.4,6.2,17.4,6.2C54.7,82,61.7,74.5,61.7,66.4z"/>
	<path class="st0" d="M80,80.1l4.6-30c0.1,0,0.2,0,0.2,0l14,31.1c0.2,0.5,0.6,0.9,1.3,0.9h1.4c0.7,0,1.2-0.4,1.3-0.9l13.8-31.1
		c0,0,0.2,0,0.2,0l4.7,30c0.2,0.6,0.8,1.2,1.5,1.2h7.2c1,0,1.7-0.7,1.4-1.8l-9.3-53.1c-0.1-0.6-0.6-1.2-1.4-1.2h-1.3
		c-0.7,0-1.1,0.3-1.3,0.8L101,63.2c-0.1,0-0.1,0-0.2,0L83.4,25.9c-0.2-0.5-0.7-0.8-1.3-0.8h-1.3c-0.9,0-1.3,0.6-1.4,1.2l-9.4,53.1
		c-0.2,1.1,0.5,1.8,1.5,1.8h7.1C79.3,81.2,79.9,80.6,80,80.1z"/>
	<path class="st0" d="M145.9,81.2h7.3c0.8,0,1.5-0.7,1.5-1.5V27.4c0-0.8-0.7-1.5-1.5-1.5h-7.3c-0.8,0-1.5,0.7-1.5,1.5v52.3
		C144.4,80.5,145.1,81.2,145.9,81.2z"/>
	<path class="st0" d="M201.9,33.9v-6.5c0-0.8-0.6-1.5-1.5-1.5h-34.5c-0.9,0-1.5,0.7-1.5,1.5v6.5c0,0.8,0.6,1.5,1.5,1.5H178v44.3
		c0,0.8,0.7,1.5,1.5,1.5h7.3c0.8,0,1.5-0.7,1.5-1.5V35.4h12.1C201.3,35.4,201.9,34.7,201.9,33.9z"/>
	<path class="st0" d="M256.5,25.9h-7.3c-0.9,0-1.5,0.7-1.5,1.5v20.9H222V27.4c0-0.8-0.6-1.5-1.5-1.5h-7.3c-0.8,0-1.5,0.7-1.5,1.5
		v52.3c0,0.8,0.7,1.5,1.5,1.5h7.3c0.9,0,1.5-0.7,1.5-1.5V57.9h25.8v21.8c0,0.8,0.6,1.5,1.5,1.5h7.3c0.8,0,1.5-0.7,1.5-1.5V27.4
		C258,26.6,257.3,25.9,256.5,25.9z"/>
	<path class="st0" d="M40.9,111.2c0-0.2-0.1-0.3-0.4-0.3h-0.3c-0.2,0-0.3,0.1-0.3,0.2l-4.5,9.6c0,0,0,0-0.1,0l-4.5-9.6
		c-0.1-0.1-0.2-0.2-0.3-0.2h-0.3c-0.2,0-0.3,0.1-0.4,0.3l-2.4,13.7c0,0.3,0.1,0.5,0.4,0.5h1.8c0.2,0,0.3-0.2,0.4-0.3l1.2-7.7
		c0,0,0.1,0,0.1,0l3.6,8c0.1,0.1,0.2,0.2,0.3,0.2h0.4c0.2,0,0.3-0.1,0.3-0.2l3.6-8c0,0,0,0,0.1,0l1.2,7.7c0,0.1,0.2,0.3,0.4,0.3h1.9
		c0.3,0,0.4-0.2,0.4-0.5L40.9,111.2z"/>
	<path class="st0" d="M52.9,111.1c-0.1-0.1-0.1-0.2-0.3-0.2h-0.2c-0.2,0-0.3,0.1-0.3,0.2l-6.3,13.7c-0.1,0.3,0,0.5,0.3,0.5h1.8
		c0.3,0,0.5-0.2,0.6-0.4l1-2.2h6.1l1,2.2c0.1,0.3,0.3,0.4,0.6,0.4h1.8c0.3,0,0.5-0.3,0.3-0.5L52.9,111.1z M50.3,120.5l2-4.5h0.1
		l2,4.5H50.3z"/>
	<path class="st0" d="M70.4,111.1h-2.1c-0.2,0-0.3,0.1-0.3,0.2l-3.3,4.7l-3.3-4.7c-0.1-0.1-0.2-0.2-0.3-0.2H59
		c-0.3,0-0.5,0.3-0.3,0.6l4.7,6.8v6.5c0,0.2,0.2,0.4,0.4,0.4h1.9c0.2,0,0.4-0.2,0.4-0.4v-6.5l4.7-6.8
		C70.9,111.4,70.7,111.1,70.4,111.1z"/>
	<path class="st0" d="M90.7,123.6l-1.8-1.7c0.3-0.5,0.9-1.8,1.3-3.2c0-0.2,0.2-0.7-0.3-0.8l-1.1-0.3c-0.5-0.1-0.6,0.1-0.7,0.5
		c-0.1,0.8-0.4,1.6-0.7,2.3l-2.3-2.4c0.4-0.4,2.5-1.6,2.5-3.7c0-1.8-1.6-3.3-3.9-3.3c-2.6,0-3.9,1.8-3.9,3.3c0,1.2,0.6,2.1,1.4,2.9
		l0.4,0.5v0c-0.4,0.2-2.8,1.4-2.8,4.1c0,2.1,1.7,3.8,4.3,3.8c2.7,0,4.1-1.3,4.4-1.7l1.5,1.5c0.3,0.3,0.7,0.3,0.9,0.1l0.8-0.9
		C91.2,124.1,90.9,123.9,90.7,123.6z M83.5,112.8c1.1,0,1.7,0.8,1.7,1.5c0,1.3-1.4,2-1.7,2.1l-0.4-0.4c-0.6-0.7-1.1-1.1-1.1-1.8
		C82,113.5,82.5,112.8,83.5,112.8z M83.3,123.4c-1.2,0-2.1-0.8-2.1-1.9c0-1.6,1.4-2.3,1.7-2.5l3,3.2
		C85.6,122.6,84.8,123.4,83.3,123.4z"/>
	<path class="st0" d="M103.3,123.3c-1.3,0-3-1.2-3.1-1.3c-0.2-0.1-0.5-0.1-0.7,0.1l-0.7,1.3c-0.2,0.3-0.1,0.4,0.1,0.6
		c0.4,0.4,1.9,1.6,4.5,1.6c2.9,0,4.7-1.9,4.7-4c0-2.6-2.3-3.8-4.3-4.6c-1.7-0.7-2.4-1.3-2.4-2.3c0-0.7,0.6-1.4,1.8-1.4
		c1.1,0,2.7,1,2.8,1.1c0.2,0.2,0.6,0,0.7-0.2l0.8-1.2c0.1-0.2,0.1-0.6-0.1-0.7c-0.4-0.3-2-1.4-4.1-1.4c-3.2,0-4.6,2.1-4.6,3.9
		c0,2.4,1.9,3.6,3.8,4.4c1.7,0.7,2.6,1.4,2.6,2.4C105.2,122.6,104.4,123.3,103.3,123.3z"/>
	<path class="st0" d="M119.9,113.2v-1.7c0-0.2-0.2-0.4-0.4-0.4h-8.9c-0.2,0-0.4,0.2-0.4,0.4v1.7c0,0.2,0.2,0.4,0.4,0.4h3.1V125
		c0,0.2,0.2,0.4,0.4,0.4h1.9c0.2,0,0.4-0.2,0.4-0.4v-11.4h3.1C119.7,113.6,119.9,113.4,119.9,113.2z"/>
	<path class="st0" d="M126.9,110.9h-0.2c-0.2,0-0.3,0.1-0.3,0.2l-6.3,13.7c-0.1,0.3,0,0.5,0.3,0.5h1.8c0.3,0,0.5-0.2,0.6-0.4l1-2.2
		h6.1l1,2.2c0.1,0.3,0.3,0.4,0.6,0.4h1.8c0.3,0,0.5-0.3,0.3-0.5l-6.3-13.7C127.2,111,127.1,110.9,126.9,110.9z M124.7,120.5l2-4.5
		h0.1l2,4.5H124.7z"/>
	<path class="st0" d="M138.9,125v-8.8h0l8.5,9.4h0.5c0.2,0,0.4-0.2,0.4-0.4v-13.7c0-0.2-0.2-0.4-0.4-0.4h-1.9
		c-0.2,0-0.4,0.2-0.4,0.4v8.4h0l-8.5-9h-0.5c-0.2,0-0.4,0.2-0.4,0.4V125c0,0.2,0.2,0.4,0.4,0.4h1.9
		C138.7,125.4,138.9,125.2,138.9,125z"/>
	<path class="st0" d="M161.1,125v-1.7c0-0.2-0.2-0.4-0.4-0.4h-5.2v-11.4c0-0.2-0.2-0.4-0.4-0.4h-1.9c-0.2,0-0.4,0.2-0.4,0.4V125
		c0,0.2,0.2,0.4,0.4,0.4h7.5C160.9,125.4,161.1,125.2,161.1,125z"/>
	<path class="st0" d="M173,125v-1.7c0-0.2-0.2-0.4-0.4-0.4h-6v-3.6h5c0.2,0,0.4-0.2,0.4-0.4v-1.7c0-0.2-0.2-0.4-0.4-0.4h-5v-3.3h6
		c0.2,0,0.4-0.2,0.4-0.4v-1.7c0-0.2-0.2-0.4-0.4-0.4h-8.3c-0.2,0-0.4,0.2-0.4,0.4V125c0,0.2,0.2,0.4,0.4,0.4h8.3
		C172.8,125.4,173,125.2,173,125z"/>
	<path class="st0" d="M187,111.1h-2.1c-0.2,0-0.3,0.1-0.3,0.2l-3.3,4.7l-3.3-4.7c-0.1-0.1-0.2-0.2-0.3-0.2h-2.1
		c-0.3,0-0.5,0.3-0.3,0.6l4.7,6.8v6.5c0,0.2,0.2,0.4,0.4,0.4h1.9c0.2,0,0.4-0.2,0.4-0.4v-6.5l4.7-6.8
		C187.5,111.4,187.3,111.1,187,111.1z"/>
	<path class="st0" d="M204.1,121.6c0-2.6-2.3-3.8-4.3-4.6c-1.7-0.7-2.4-1.3-2.4-2.3c0-0.7,0.6-1.4,1.8-1.4c1.1,0,2.7,1,2.8,1.1
		c0.2,0.2,0.6,0,0.7-0.2l0.8-1.2c0.1-0.2,0.1-0.6-0.1-0.7c-0.4-0.3-2-1.4-4.1-1.4c-3.2,0-4.6,2.1-4.6,3.9c0,2.4,1.9,3.6,3.8,4.4
		c1.7,0.7,2.6,1.4,2.6,2.4c0,0.9-0.8,1.6-1.9,1.6c-1.3,0-3-1.2-3.1-1.3c-0.2-0.1-0.5-0.1-0.7,0.1l-0.7,1.3c-0.2,0.3-0.1,0.4,0.1,0.6
		c0.4,0.4,1.9,1.6,4.5,1.6C202.3,125.6,204.1,123.7,204.1,121.6z"/>
	<path class="st0" d="M220.1,111.2c0-0.2-0.1-0.3-0.4-0.3h-0.3c-0.2,0-0.3,0.1-0.3,0.2l-4.5,9.6c0,0,0,0-0.1,0l-4.5-9.6
		c-0.1-0.1-0.2-0.2-0.3-0.2h-0.3c-0.2,0-0.3,0.1-0.4,0.3l-2.4,13.7c0,0.3,0.1,0.5,0.4,0.5h1.8c0.2,0,0.3-0.2,0.4-0.3l1.2-7.7
		c0,0,0.1,0,0.1,0l3.6,8c0.1,0.1,0.2,0.2,0.3,0.2h0.4c0.2,0,0.3-0.1,0.3-0.2l3.6-8c0,0,0,0,0.1,0l1.2,7.7c0,0.1,0.2,0.3,0.4,0.3h1.9
		c0.3,0,0.4-0.2,0.4-0.5L220.1,111.2z"/>
	<path class="st0" d="M228.4,111.1h-1.9c-0.2,0-0.4,0.2-0.4,0.4V125c0,0.2,0.2,0.4,0.4,0.4h1.9c0.2,0,0.4-0.2,0.4-0.4v-13.5
		C228.7,111.3,228.6,111.1,228.4,111.1z"/>
	<path class="st0" d="M240.9,111.1h-8.9c-0.2,0-0.4,0.2-0.4,0.4v1.7c0,0.2,0.2,0.4,0.4,0.4h3.1V125c0,0.2,0.2,0.4,0.4,0.4h1.9
		c0.2,0,0.4-0.2,0.4-0.4v-11.4h3.1c0.2,0,0.4-0.2,0.4-0.4v-1.7C241.2,111.3,241.1,111.1,240.9,111.1z"/>
	<path class="st0" d="M255.7,111.1h-1.9c-0.2,0-0.4,0.2-0.4,0.4v5.4h-6.7v-5.4c0-0.2-0.2-0.4-0.4-0.4h-1.9c-0.2,0-0.4,0.2-0.4,0.4
		V125c0,0.2,0.2,0.4,0.4,0.4h1.9c0.2,0,0.4-0.2,0.4-0.4v-5.6h6.7v5.6c0,0.2,0.2,0.4,0.4,0.4h1.9c0.2,0,0.4-0.2,0.4-0.4v-13.5
		C256.1,111.3,255.9,111.1,255.7,111.1z"/>
	<path class="st0" d="M73.7,136.1c0.6,0,1.2,0.2,1.6,0.6c0.1,0.1,0.2,0.1,0.3,0l0.9-1c0.1-0.1,0.1-0.2,0-0.3
		c-0.8-0.8-1.7-1.1-2.9-1.1c-2.4,0-4.4,1.9-4.4,4.4s1.9,4.3,4.4,4.3c1.1,0,2.1-0.4,2.9-1.2c0.1-0.1,0.1-0.2,0-0.3l-0.9-1
		c-0.1-0.1-0.2-0.1-0.3,0c-0.4,0.4-1.1,0.6-1.6,0.6c-1.4,0-2.4-1.1-2.4-2.5C71.4,137.2,72.4,136.1,73.7,136.1z"/>
	<path class="st0" d="M87.4,134.4h-1.4c-0.1,0-0.2,0.1-0.2,0.2v3h-3.5v-3c0-0.1-0.1-0.2-0.2-0.2h-1.4c-0.1,0-0.2,0.1-0.2,0.2v8
		c0,0.1,0.1,0.2,0.2,0.2H82c0.1,0,0.2-0.1,0.2-0.2v-3.2h3.5v3.2c0,0.1,0.1,0.2,0.2,0.2h1.4c0.1,0,0.2-0.1,0.2-0.2v-8
		C87.6,134.5,87.5,134.4,87.4,134.4z"/>
	<path class="st0" d="M95.3,134.4c0-0.1-0.1-0.1-0.2-0.1h-0.1c-0.1,0-0.2,0.1-0.2,0.1l-3.8,8.1c-0.1,0.2,0,0.3,0.2,0.3h1.3
		c0.2,0,0.4-0.1,0.4-0.3l0.4-1h3.3l0.4,1c0.1,0.2,0.2,0.3,0.4,0.3h1.3c0.2,0,0.3-0.2,0.2-0.3L95.3,134.4z M94.1,139.9l0.9-2h0l0.9,2
		H94.1z"/>
	<path class="st0" d="M108.9,137c0-1.4-1.2-2.6-2.6-2.6h-3.6c-0.1,0-0.2,0.1-0.2,0.2v8c0,0.1,0.1,0.2,0.2,0.2h1.4
		c0.1,0,0.2-0.1,0.2-0.2v-3.1h0.8l1.6,3.2c0,0,0.1,0.1,0.2,0.1h1.6c0.2,0,0.3-0.2,0.2-0.4l-1.7-3.1C108.2,139,108.9,138.1,108.9,137
		z M106.1,138h-1.8v-1.9h1.8c0.5,0,0.9,0.4,0.9,0.9C107,137.5,106.6,138,106.1,138z"/>
	<path class="st0" d="M114.5,134.4h-1.5c-0.1,0-0.2,0.1-0.2,0.2v8c0,0.1,0.1,0.2,0.2,0.2h1.5c0.1,0,0.2-0.1,0.2-0.2v-8
		C114.7,134.5,114.6,134.4,114.5,134.4z"/>
	<path class="st0" d="M123.8,134.4h-5.4c-0.1,0-0.2,0.1-0.2,0.2v1.3c0,0.1,0.1,0.2,0.2,0.2h1.7v6.5c0,0.1,0.1,0.2,0.2,0.2h1.5
		c0.1,0,0.2-0.1,0.2-0.2v-6.5h1.7c0.1,0,0.2-0.1,0.2-0.2v-1.3C124,134.5,123.9,134.4,123.8,134.4z"/>
	<path class="st0" d="M130.2,134.4c0-0.1-0.1-0.1-0.2-0.1h-0.1c-0.1,0-0.2,0.1-0.2,0.1l-3.8,8.1c-0.1,0.2,0,0.3,0.2,0.3h1.3
		c0.2,0,0.4-0.1,0.4-0.3l0.4-1h3.3l0.4,1c0.1,0.2,0.2,0.3,0.4,0.3h1.3c0.2,0,0.3-0.2,0.2-0.3L130.2,134.4z M129.1,139.9l0.9-2h0
		l0.9,2H129.1z"/>
	<path class="st0" d="M141.6,138.5c0.6-0.3,1.4-1,1.4-1.9c0-1.3-1.2-2.2-2.6-2.2h-2.8c-0.1,0-0.2,0.1-0.2,0.2v8
		c0,0.1,0.1,0.2,0.2,0.2h3c1.4,0,2.6-1,2.6-2.3C143.3,139.4,142.3,138.8,141.6,138.5z M139.3,136.1h0.9c0.5,0,0.8,0.3,0.8,0.8
		c0,0.5-0.4,0.9-0.8,0.9h-0.9V136.1z M140.4,141.1h-1.1v-1.7h1c0.5,0,1,0.4,1,0.8C141.2,140.7,140.8,141.1,140.4,141.1z"/>
	<path class="st0" d="M152,141.1h-2.9v-6.5c0-0.1-0.1-0.2-0.2-0.2h-1.4c-0.1,0-0.2,0.1-0.2,0.2v8c0,0.1,0.1,0.2,0.2,0.2h4.5
		c0.1,0,0.2-0.1,0.2-0.2v-1.3C152.2,141.2,152.1,141.1,152,141.1z"/>
	<path class="st0" d="M160.8,134.4h-5c-0.1,0-0.2,0.1-0.2,0.2v8c0,0.1,0.1,0.2,0.2,0.2h5c0.1,0,0.2-0.1,0.2-0.2v-1.3
		c0-0.1-0.1-0.2-0.2-0.2h-3.4v-1.6h2.8c0.1,0,0.2-0.1,0.2-0.2v-1.3c0-0.1-0.1-0.2-0.2-0.2h-2.8v-1.5h3.4c0.1,0,0.2-0.1,0.2-0.2v-1.3
		C161.1,134.5,161,134.4,160.8,134.4z"/>
	<path class="st0" d="M174.9,134.4h-5.4c-0.1,0-0.2,0.1-0.2,0.2v1.3c0,0.1,0.1,0.2,0.2,0.2h1.7v6.5c0,0.1,0.1,0.2,0.2,0.2h1.5
		c0.1,0,0.2-0.1,0.2-0.2v-6.5h1.7c0.1,0,0.2-0.1,0.2-0.2v-1.3C175.2,134.5,175.1,134.4,174.9,134.4z"/>
	<path class="st0" d="M185.1,137c0-1.4-1.2-2.6-2.6-2.6h-3.6c-0.1,0-0.2,0.1-0.2,0.2v8c0,0.1,0.1,0.2,0.2,0.2h1.4
		c0.1,0,0.2-0.1,0.2-0.2v-3.1h0.8l1.6,3.2c0,0,0.1,0.1,0.2,0.1h1.6c0.2,0,0.3-0.2,0.2-0.4l-1.7-3.1C184.4,139,185.1,138.1,185.1,137
		z M182.3,138h-1.8v-1.9h1.8c0.5,0,0.9,0.4,0.9,0.9C183.2,137.5,182.8,138,182.3,138z"/>
	<path class="st0" d="M195.5,134.4h-1.5c-0.1,0-0.2,0.1-0.2,0.2v4.9c0,0.8-0.6,1.5-1.5,1.5c-0.9,0-1.5-0.7-1.5-1.5v-4.9
		c0-0.1-0.1-0.2-0.2-0.2h-1.5c-0.1,0-0.2,0.1-0.2,0.2v5c0,1.8,1.5,3.4,3.4,3.4c1.9,0,3.5-1.5,3.5-3.4v-5
		C195.8,134.5,195.7,134.4,195.5,134.4z"/>
	<path class="st0" d="M202.8,137.7c-1-0.4-1.3-0.7-1.3-1.2c0-0.3,0.3-0.6,0.8-0.6c0.7,0,1.6,0.7,1.7,0.7c0.1,0.1,0.3,0,0.4-0.2
		l0.6-0.9c0-0.1,0.1-0.3-0.1-0.4c-0.4-0.3-1.3-0.9-2.6-0.9c-1.9,0-2.8,1.2-2.8,2.4c0,1.5,1.3,2.3,2.3,2.7c0.8,0.3,1.2,0.7,1.2,1.2
		c0,0.4-0.4,0.7-0.8,0.7c-0.8,0-1.7-0.6-1.7-0.7c-0.1-0.1-0.3-0.1-0.4,0.1l-0.6,1c-0.1,0.2-0.1,0.2,0.1,0.3c0.3,0.3,1.1,0.9,2.7,0.9
		c1.8,0,2.9-1.3,2.9-2.5C205.2,138.8,203.7,138.1,202.8,137.7z"/>
	<path class="st0" d="M213.9,134.4h-5.4c-0.1,0-0.2,0.1-0.2,0.2v1.3c0,0.1,0.1,0.2,0.2,0.2h1.7v6.5c0,0.1,0.1,0.2,0.2,0.2h1.5
		c0.1,0,0.2-0.1,0.2-0.2v-6.5h1.7c0.1,0,0.2-0.1,0.2-0.2v-1.3C214.1,134.5,214,134.4,213.9,134.4z"/>
</g>
<g>
	<path class="st1" d="M275.4,7.3H8c-1.4,0-2.5,1.1-2.5,2.5V97c0,1.4,1.1,2.5,2.5,2.5h267.5c1.4,0,2.5-1.1,2.5-2.5V9.8
		C277.9,8.4,276.8,7.3,275.4,7.3z M272.9,94.5H10.5V12.3h262.5V94.5z"/>
	<path class="st1" d="M247.2,137.4h-21.3c-0.3,0-0.5,0.2-0.5,0.5s0.2,0.5,0.5,0.5h21.3c0.3,0,0.5-0.2,0.5-0.5
		S247.4,137.4,247.2,137.4z"/>
	<path class="st1" d="M57.6,137.4H36.2c-0.3,0-0.5,0.2-0.5,0.5s0.2,0.5,0.5,0.5h21.3c0.3,0,0.5-0.2,0.5-0.5S57.8,137.4,57.6,137.4z"
		/>
</g>
</svg>
