<?xml version="1.0" encoding="iso-8859-1"?>
<!-- Generator: Adobe Illustrator 22.1.0, SVG Export Plug-In . SVG Version: 6.00 Build 0)  -->
<svg version="1.1" id="Layer_1" xmlns="http://www.w3.org/2000/svg" xmlns:xlink="http://www.w3.org/1999/xlink" x="0px" y="0px"
	 viewBox="0 0 300 300" style="enable-background:new 0 0 300 300;" xml:space="preserve">
<g>
	<g>
		<path style="fill:#80A843;" d="M35.14,169.676c0.995-0.199,1.921-0.013,2.775,0.557c0.855,0.571,1.382,1.354,1.581,2.349
			c0.199,0.995,0.013,1.921-0.557,2.775c-0.571,0.855-1.354,1.382-2.349,1.58c-0.985,0.197-1.903,0.01-2.748-0.562
			c-0.846-0.572-1.369-1.356-1.568-2.351c-0.198-0.995-0.018-1.919,0.544-2.773C33.38,170.399,34.155,169.873,35.14,169.676z"/>
		<path style="fill:#80A843;" d="M35.343,135.756c0.228,0.007,0.35,0.084,0.363,0.23c0.094,1.105,0.276,1.859,0.547,2.263
			c0.271,0.404,0.831,0.62,1.681,0.647l1.617,0.05c1.407,0.044,2.38-0.026,2.916-0.211c0.446,1.231,0.801,2.556,1.062,3.974
			c0.263,1.418,0.376,2.666,0.342,3.745c-0.066,2.085-0.533,3.902-1.405,5.449c-0.872,1.547-2.086,2.736-3.645,3.565
			c-1.559,0.83-3.274,1.214-5.148,1.157c-1.864-0.058-3.559-0.587-5.088-1.587c-1.529-0.999-2.696-2.35-3.502-4.05
			c-0.806-1.7-1.177-3.612-1.11-5.733c0.026-0.822,0.207-1.925,0.542-3.306c0.294-1.217,0.452-2.15,0.472-2.801
			c1.283-0.079,2.842-0.241,4.68-0.486c0.146,0.005,0.215,0.153,0.206,0.445c-0.006,0.192-0.083,0.305-0.23,0.336
			c-3.095,0.709-4.698,2.802-4.806,6.277c-0.067,2.15,0.762,3.981,2.49,5.496c1.728,1.514,3.874,2.311,6.441,2.392
			c2.495,0.078,4.64-0.578,6.435-1.966c1.795-1.389,2.725-3.125,2.791-5.209c0.095-3.061-0.616-4.614-2.136-4.664l-3.627-0.113
			c-0.504-0.016-0.87,0.215-1.101,0.693c-0.23,0.478-0.466,1.63-0.706,3.462c-0.005,0.146-0.141,0.215-0.411,0.206
			c-0.251-0.008-0.374-0.085-0.37-0.231c0.019-0.611,0.07-1.517,0.153-2.712c0.082-1.15,0.131-2.003,0.147-2.561
			c0.018-0.548,0.017-1.276,0-2.181c-0.016-0.97-0.013-1.762,0.005-2.373C34.955,135.818,35.086,135.749,35.343,135.756z"/>
		<path style="fill:#80A843;" d="M46.045,124.376c0.251,0.052,0.362,0.149,0.332,0.293c-0.123,0.599-0.295,1.306-0.517,2.12
			c-0.215,0.777-0.379,1.439-0.49,1.985c-0.111,0.547-0.221,1.219-0.328,2.019c-0.117,0.844-0.237,1.57-0.362,2.18
			c-0.03,0.143-0.17,0.189-0.42,0.138c-0.224-0.046-0.33-0.141-0.319-0.289c0.096-1.109,0.046-1.888-0.153-2.334
			c-0.198-0.446-0.715-0.755-1.547-0.926l-12.653-2.588c-0.627-0.128-1.085-0.14-1.373-0.036c-0.287,0.105-0.545,0.339-0.774,0.703
			c-0.229,0.364-0.466,0.917-0.711,1.66c-0.029,0.143-0.167,0.189-0.412,0.139c-0.246-0.052-0.355-0.147-0.326-0.291
			c0.125-0.609,0.299-1.324,0.523-2.147c0.216-0.777,0.378-1.437,0.49-1.985c0.111-0.545,0.221-1.219,0.328-2.018
			c0.115-0.834,0.234-1.553,0.357-2.153c0.029-0.144,0.167-0.189,0.412-0.14c0.246,0.049,0.355,0.147,0.325,0.29
			c-0.065,0.771-0.062,1.369,0.004,1.793c0.068,0.426,0.211,0.738,0.432,0.941c0.221,0.204,0.649,0.37,1.284,0.501l12.655,2.59
			c0.619,0.127,1.071,0.14,1.358,0.04c0.287-0.099,0.544-0.33,0.771-0.689c0.228-0.358,0.463-0.906,0.707-1.64
			C45.685,124.382,45.822,124.331,46.045,124.376z"/>
		<path style="fill:#80A843;" d="M36.74,95.395c0.269,0.103,0.364,0.248,0.293,0.436c-0.221,0.778-0.255,1.418-0.104,1.922
			c0.15,0.504,0.669,1.19,1.555,2.06l12.234,12.083c0.113,0.113,0.135,0.258,0.067,0.438c-0.066,0.171-0.181,0.254-0.346,0.249
			l-16.899,0.082c-0.953-0.005-1.605,0.046-1.957,0.151c-0.35,0.105-0.659,0.307-0.926,0.605c-0.269,0.299-0.599,0.822-0.996,1.57
			c-0.023,0.06-0.082,0.104-0.173,0.132c-0.094,0.028-0.185,0.025-0.277-0.011c-0.235-0.09-0.328-0.195-0.283-0.315
			c0.221-0.574,0.49-1.196,0.808-1.87c0.305-0.64,0.557-1.22,0.758-1.742c0.2-0.521,0.423-1.178,0.668-1.967
			c0.258-0.822,0.498-1.519,0.717-2.09c0.052-0.137,0.195-0.159,0.43-0.07c0.235,0.09,0.336,0.179,0.303,0.263
			c-0.254,0.764-0.364,1.343-0.33,1.74c0.034,0.396,0.222,0.659,0.565,0.791c0.215,0.083,0.626,0.123,1.235,0.122l13.344,0.06
			l-9.533-8.934c-0.444-0.346-0.785-0.566-1.027-0.659c-0.848-0.326-1.599,0.237-2.257,1.689c-0.04,0.102-0.176,0.108-0.411,0.018
			c-0.234-0.09-0.322-0.212-0.263-0.366c0.153-0.4,0.381-0.916,0.683-1.545c0.327-0.697,0.581-1.28,0.762-1.75
			c0.147-0.382,0.311-0.884,0.489-1.501c0.185-0.634,0.355-1.151,0.51-1.553C36.418,95.331,36.539,95.319,36.74,95.395z"/>
		<path style="fill:#80A843;" d="M60.284,84.05c0.949,1.467,1.909,2.778,2.878,3.933c-1.921,2.864-3.268,4.917-4.044,6.156
			c-0.766,1.225-2.018,3.332-3.757,6.32c-0.077,0.123-0.225,0.117-0.442-0.018c-0.194-0.121-0.26-0.249-0.197-0.382
			c0.324-0.692,0.529-1.248,0.615-1.669c0.085-0.421,0.061-0.767-0.071-1.039c-0.132-0.272-0.47-0.577-1.013-0.917l-10.952-6.845
			c-0.535-0.334-0.953-0.508-1.254-0.518c-0.301-0.01-0.623,0.114-0.97,0.372c-0.345,0.259-0.762,0.693-1.252,1.304
			c-0.078,0.123-0.223,0.119-0.436-0.014c-0.213-0.133-0.281-0.263-0.204-0.386c1.315-1.895,2.612-3.866,3.891-5.913
			c1.289-2.062,2.495-4.095,3.619-6.099c1.313,0.573,2.661,1.055,4.045,1.446c0.156,0.097,0.147,0.281-0.022,0.551
			c-0.083,0.132-0.188,0.18-0.316,0.141c-2.188-0.569-3.868,0.083-5.041,1.959l-1.469,2.349c-0.562,0.899-0.378,1.64,0.551,2.221
			l5.174,3.235l1.832-2.93c0.487-0.779,0.639-1.419,0.456-1.918s-0.695-1.087-1.535-1.764c-0.123-0.078-0.119-0.223,0.014-0.438
			c0.133-0.213,0.263-0.281,0.386-0.203c0.388,0.242,0.861,0.571,1.422,0.985c0.537,0.4,0.983,0.713,1.34,0.936
			c0.364,0.228,0.844,0.495,1.439,0.802c0.634,0.332,1.144,0.619,1.532,0.861c0.123,0.078,0.119,0.223-0.014,0.438
			c-0.133,0.213-0.261,0.281-0.386,0.203c-1.019-0.474-1.81-0.685-2.373-0.629c-0.563,0.054-1.077,0.452-1.538,1.193l-1.833,2.93
			l5.722,3.577c0.915,0.572,1.653,0.409,2.215-0.492l1.585-2.536c0.577-0.922,0.848-2.024,0.815-3.306
			c-0.034-1.282-0.367-2.418-1-3.407c-0.05-0.074-0.044-0.162,0.019-0.263c0.068-0.108,0.157-0.187,0.269-0.236
			C60.099,83.994,60.199,83.997,60.284,84.05z"/>
		<path style="fill:#80A843;" d="M72.76,56.313c0.12,0.125,0.064,0.301-0.173,0.531c-0.105,0.102-0.216,0.119-0.331,0.053
			c-1.178-0.652-2.218-0.916-3.115-0.791c-0.898,0.125-1.862,0.686-2.893,1.686l-0.926,0.897c-0.322,0.313-0.492,0.578-0.507,0.797
			c-0.017,0.221,0.115,0.474,0.396,0.762l9.684,9.998c0.439,0.453,0.806,0.718,1.102,0.794s0.643,0.028,1.039-0.147
			c0.397-0.175,0.9-0.493,1.509-0.955c0.117-0.088,0.257-0.052,0.416,0.113c0.177,0.183,0.213,0.327,0.109,0.429
			c-0.44,0.427-0.985,0.915-1.634,1.467c-0.617,0.521-1.121,0.971-1.511,1.348c-0.403,0.39-0.878,0.888-1.425,1.495
			c-0.573,0.631-1.079,1.159-1.519,1.585c-0.105,0.102-0.246,0.061-0.426-0.123c-0.159-0.164-0.193-0.305-0.1-0.42
			c0.706-0.862,1.103-1.533,1.19-2.013c0.089-0.481-0.163-1.026-0.754-1.636l-9.686-9.998c-0.281-0.289-0.53-0.429-0.75-0.42
			s-0.494,0.174-0.822,0.492l-0.768,0.744c-0.926,0.897-1.539,1.947-1.839,3.147c-0.301,1.201-0.203,2.287,0.293,3.258
			c0.062,0.131,0.038,0.251-0.074,0.358c-0.223,0.216-0.405,0.252-0.545,0.107c-0.593-1.348-1.333-2.807-2.22-4.379
			c1.072-0.682,3.205-2.57,6.399-5.663c3.278-3.177,5.276-5.291,5.992-6.34C69.797,54.25,71.09,55.193,72.76,56.313z"/>
		<path style="fill:#80A843;" d="M102.818,53.46c0.137,0.216,0.141,0.364,0.018,0.442c-0.527,0.33-1.166,0.697-1.915,1.101
			c-0.712,0.38-1.304,0.719-1.776,1.014c-0.474,0.297-1.005,0.661-1.596,1.095c-0.622,0.454-1.193,0.844-1.712,1.169
			c-0.123,0.078-0.253,0.008-0.388-0.209c-0.122-0.194-0.121-0.339,0.001-0.438c0.603-0.486,1.021-0.894,1.253-1.23
			c0.233-0.334,0.324-0.64,0.275-0.917c-0.049-0.276-0.236-0.675-0.562-1.195l-3.244-5.183l-8.87,5.551l3.244,5.183
			c0.325,0.52,0.602,0.862,0.828,1.027c0.228,0.165,0.543,0.217,0.946,0.153c0.403-0.062,0.957-0.263,1.665-0.597
			c0.133-0.062,0.261,0.004,0.382,0.197c0.135,0.217,0.141,0.364,0.017,0.442c-0.519,0.325-1.119,0.668-1.798,1.029
			c-0.65,0.34-1.21,0.661-1.683,0.955c-0.474,0.297-1.039,0.683-1.7,1.162c-0.692,0.498-1.298,0.909-1.817,1.234
			c-0.123,0.077-0.254,0.007-0.388-0.209c-0.122-0.194-0.125-0.337-0.011-0.43c0.869-0.695,1.398-1.27,1.585-1.72
			c0.186-0.451,0.053-1.038-0.398-1.759l-6.851-10.947c-0.34-0.543-0.647-0.884-0.92-1.019c-0.275-0.137-0.622-0.162-1.043-0.076
			c-0.421,0.086-0.985,0.296-1.692,0.629c-0.123,0.078-0.253,0.01-0.386-0.203c-0.133-0.213-0.138-0.358-0.014-0.436
			c0.519-0.325,1.155-0.691,1.904-1.095c0.718-0.385,1.315-0.725,1.787-1.021c0.474-0.295,1.003-0.661,1.596-1.095
			c0.622-0.454,1.193-0.843,1.712-1.169c0.123-0.077,0.252-0.01,0.386,0.203c0.133,0.213,0.138,0.358,0.014,0.436
			c-0.562,0.448-0.961,0.828-1.196,1.138c-0.237,0.311-0.356,0.604-0.356,0.879c-0.001,0.275,0.194,0.723,0.581,1.343l3.141,5.02
			l8.872-5.552l-3.142-5.02c-0.325-0.52-0.603-0.866-0.833-1.033c-0.229-0.169-0.543-0.223-0.942-0.163
			c-0.4,0.061-0.955,0.261-1.671,0.599c-0.123,0.078-0.253,0.01-0.386-0.203c-0.133-0.212-0.138-0.358-0.014-0.436
			c0.519-0.325,1.119-0.668,1.799-1.029c0.649-0.34,1.21-0.661,1.683-0.955c0.474-0.295,1.036-0.681,1.689-1.155
			c0.691-0.498,1.3-0.911,1.828-1.241c0.123-0.078,0.253-0.01,0.385,0.203c0.133,0.213,0.139,0.358,0.016,0.436
			c-0.611,0.49-1.045,0.905-1.307,1.247c-0.261,0.34-0.39,0.665-0.387,0.971s0.174,0.731,0.513,1.274l6.851,10.947
			c0.451,0.721,0.921,1.097,1.407,1.126c0.487,0.029,1.232-0.195,2.239-0.673C102.57,53.2,102.697,53.266,102.818,53.46z"/>
		<path style="fill:#80A843;" d="M123.462,45.957c0.086,0.241,0.061,0.386-0.077,0.435c-0.595,0.215-1.276,0.428-2.044,0.645
			c-0.665,0.18-1.225,0.352-1.682,0.516c-0.525,0.189-1.166,0.447-1.922,0.777c-0.798,0.345-1.487,0.621-2.064,0.828
			c-0.138,0.05-0.249-0.044-0.334-0.281c-0.084-0.237-0.076-0.373,0.028-0.411c0.753-0.309,1.268-0.608,1.543-0.898
			c0.275-0.288,0.349-0.611,0.222-0.966c-0.082-0.225-0.295-0.554-0.645-0.985l-3.021-3.798l-5.301,1.901l-0.042,4.53
			c0.004,0.604,0.058,1.053,0.163,1.348c0.273,0.762,1.119,0.927,2.538,0.496c0.102-0.037,0.197,0.064,0.283,0.299
			c0.084,0.237,0.058,0.38-0.08,0.429c-0.516,0.185-1.098,0.364-1.746,0.538c-0.611,0.161-1.15,0.325-1.614,0.492
			c-0.369,0.133-0.825,0.325-1.364,0.577c-0.566,0.261-1.056,0.466-1.469,0.614c-0.129,0.046-0.233-0.038-0.309-0.253
			c-0.086-0.241-0.034-0.406,0.158-0.494c0.691-0.325,1.184-0.725,1.485-1.202c0.3-0.477,0.494-1.3,0.58-2.466l0.723-16.999
			c0.002-0.156,0.098-0.269,0.288-0.336c0.206-0.074,0.358-0.056,0.456,0.055l10.655,12.934c0.601,0.727,1.228,1.196,1.882,1.407
			c0.655,0.212,1.429,0.216,2.328,0.011C123.257,45.657,123.385,45.742,123.462,45.957z M112.887,41.097l-4.626-5.767l-0.083,7.454
			L112.887,41.097z"/>
		<path style="fill:#80A843;" d="M145.448,24.313c0.03,0.227-0.026,0.358-0.169,0.394c-1.119,0.276-1.867,0.586-2.251,0.932
			c-0.384,0.346-0.531,0.933-0.439,1.762l1.796,16.067c0.023,0.181-0.076,0.287-0.29,0.314c-0.109,0.014-0.265-0.04-0.465-0.161
			l-16.09-14.007l1.454,12.604c0.001,0.074,0.005,0.141,0.014,0.206c0.09,0.689,0.37,1.149,0.844,1.377
			c0.474,0.229,1.284,0.337,2.436,0.324c0.147-0.001,0.235,0.113,0.265,0.339c0.034,0.254-0.023,0.391-0.169,0.41
			c-0.469,0.061-1.122,0.119-1.954,0.171c-0.778,0.046-1.376,0.097-1.792,0.152c-0.453,0.059-1.062,0.167-1.825,0.322
			c-0.737,0.151-1.309,0.254-1.717,0.307c-0.145,0.019-0.234-0.1-0.267-0.352c-0.03-0.227,0.036-0.36,0.195-0.399
			c1.107-0.283,1.85-0.595,2.229-0.935c0.38-0.34,0.529-0.926,0.448-1.755l-1.199-12.869l-0.016-0.122
			c-0.095-0.735-0.376-1.22-0.84-1.454c-0.464-0.235-1.286-0.348-2.465-0.342c-0.127,0.017-0.207-0.1-0.24-0.349
			c-0.032-0.251,0.023-0.384,0.17-0.403c0.316-0.042,0.765-0.073,1.343-0.094c0.515-0.012,0.899-0.034,1.153-0.068
			c0.317-0.042,0.694-0.117,1.132-0.231c0.446-0.114,0.832-0.192,1.158-0.235l15.011,12.933l-1.517-11.595
			c-0.1-0.771-0.393-1.286-0.873-1.541c-0.48-0.257-1.325-0.374-2.53-0.356c-0.147,0.001-0.235-0.111-0.264-0.339
			c-0.034-0.253,0.022-0.39,0.168-0.409c0.489-0.064,1.146-0.122,1.969-0.174c0.768-0.046,1.359-0.095,1.777-0.149
			c0.454-0.059,1.062-0.167,1.826-0.322c0.736-0.152,1.308-0.254,1.716-0.308C145.326,23.941,145.416,24.06,145.448,24.313z"/>
		<path style="fill:#80A843;" d="M170.517,44.437c-0.023,0.255-0.107,0.376-0.252,0.363c-0.611-0.054-1.338-0.146-2.18-0.275
			c-0.806-0.126-1.485-0.213-2.042-0.263c-0.538-0.047-1.282-0.085-2.233-0.114c-0.997-0.034-1.801-0.076-2.411-0.129
			c-0.147-0.013-0.209-0.147-0.186-0.402c0.019-0.228,0.094-0.345,0.224-0.352c1.242-0.037,1.882-0.281,1.922-0.727
			c0.023-0.254-0.149-0.601-0.514-1.036l-4.939-5.995c-0.267-0.316-0.501-0.53-0.709-0.64c-0.205-0.11-0.495-0.181-0.868-0.215
			l-0.51,5.792c-0.055,0.629-0.016,1.079,0.122,1.354c0.137,0.275,0.4,0.504,0.794,0.691c0.391,0.186,0.961,0.358,1.71,0.516
			c0.153,0.031,0.221,0.161,0.201,0.388c-0.022,0.255-0.107,0.376-0.252,0.363c-0.61-0.054-1.338-0.145-2.178-0.275
			c-0.809-0.126-1.491-0.213-2.05-0.263c-0.548-0.048-1.226-0.082-2.034-0.096c-0.851-0.02-1.583-0.058-2.193-0.11
			c-0.145-0.013-0.207-0.147-0.186-0.402c0.022-0.228,0.105-0.345,0.252-0.35c1.114-0.03,1.879-0.17,2.302-0.418
			c0.42-0.248,0.668-0.795,0.742-1.642l1.133-12.865c0.055-0.638,0.016-1.093-0.12-1.367c-0.139-0.275-0.399-0.504-0.786-0.689
			c-0.388-0.186-0.964-0.358-1.73-0.517c-0.145-0.013-0.207-0.145-0.186-0.394c0.022-0.251,0.105-0.37,0.252-0.357
			c0.61,0.053,1.336,0.145,2.178,0.275c0.798,0.125,1.472,0.212,2.022,0.26c0.557,0.05,1.244,0.083,2.061,0.1
			c0.854,0.02,1.583,0.058,2.193,0.11c0.147,0.013,0.209,0.145,0.188,0.394c-0.023,0.251-0.107,0.369-0.252,0.356
			c-0.783,0.023-1.382,0.094-1.796,0.207c-0.414,0.116-0.71,0.295-0.894,0.542c-0.181,0.246-0.301,0.688-0.356,1.327l-0.545,6.198
			c0.354,0.031,0.646,0.011,0.873-0.061c0.227-0.072,0.504-0.24,0.83-0.505l6.517-5.388c0.534-0.424,0.809-0.742,0.828-0.953
			c0.022-0.248-0.079-0.444-0.301-0.587c-0.221-0.145-0.679-0.293-1.37-0.447c-0.147-0.013-0.209-0.145-0.188-0.394
			c0.023-0.251,0.117-0.369,0.281-0.354c0.429,0.038,0.99,0.115,1.687,0.231c0.742,0.121,1.36,0.201,1.85,0.246
			c0.493,0.043,1.041,0.059,1.648,0.049c0.504-0.002,0.934,0.013,1.291,0.046c0.126,0.011,0.179,0.141,0.158,0.392
			c-0.023,0.251-0.107,0.37-0.252,0.356c-0.884,0.034-1.587,0.152-2.11,0.356c-0.523,0.203-1.163,0.609-1.924,1.217l-6.765,5.38
			l7.05,8.563c0.492,0.608,0.988,1.059,1.491,1.355c0.504,0.295,1.27,0.551,2.299,0.77
			C170.463,44.078,170.537,44.209,170.517,44.437z"/>
		<path style="fill:#80A843;" d="M185.336,43.37c-0.474,1.758-1.371,3.013-2.694,3.769c-1.324,0.756-2.871,0.894-4.646,0.415
			c-0.786-0.212-1.69-0.608-2.711-1.186c-0.926-0.533-1.71-0.887-2.345-1.059c0.352-1.515,0.651-3.044,0.896-4.588
			c0.038-0.141,0.189-0.176,0.454-0.106c0.188,0.05,0.282,0.152,0.288,0.305c0.034,1.771,0.333,3.091,0.894,3.962
			c0.563,0.872,1.513,1.488,2.852,1.85c1.069,0.289,1.978,0.203,2.733-0.257c0.75-0.46,1.278-1.244,1.579-2.358
			c0.192-0.715,0.115-1.448-0.23-2.2c-0.348-0.75-1.222-1.838-2.628-3.258c-1.617-1.62-2.619-2.894-3.004-3.821
			c-0.384-0.927-0.45-1.859-0.195-2.795c0.388-1.439,1.248-2.51,2.581-3.217c1.331-0.706,2.816-0.838,4.45-0.396
			c0.619,0.167,1.308,0.444,2.067,0.827c0.71,0.352,1.34,0.603,1.888,0.75c-0.314,1.582-0.539,2.989-0.683,4.219
			c-0.038,0.141-0.173,0.181-0.403,0.119c-0.245-0.067-0.363-0.174-0.352-0.322c0.066-1.403-0.12-2.474-0.555-3.218
			c-0.435-0.742-1.175-1.255-2.223-1.537c-0.994-0.269-1.859-0.189-2.603,0.235c-0.742,0.426-1.246,1.131-1.513,2.12
			c-0.169,0.627-0.085,1.292,0.252,1.992c0.339,0.703,1.196,1.752,2.578,3.146c1.634,1.653,2.649,2.94,3.046,3.862
			C185.505,41.545,185.583,42.46,185.336,43.37z"/>
		<path style="fill:#80A843;" d="M216.617,55.425c-0.113,0.199-0.239,0.27-0.373,0.215c-1.021-0.433-1.776-0.625-2.257-0.573
			c-0.486,0.05-0.938,0.445-1.357,1.184l-0.8,1.407c-0.698,1.224-1.089,2.116-1.176,2.676c-1.297-0.179-2.635-0.486-4.011-0.915
			c-1.376-0.432-2.532-0.914-3.471-1.446c-1.815-1.031-3.202-2.293-4.164-3.786c-0.96-1.493-1.443-3.122-1.451-4.888
			c-0.006-1.765,0.452-3.463,1.377-5.092c0.922-1.622,2.182-2.875,3.78-3.76c1.596-0.885,3.336-1.288,5.216-1.206
			c1.882,0.08,3.744,0.645,5.589,1.694c0.715,0.406,1.606,1.081,2.669,2.022c0.939,0.828,1.692,1.403,2.257,1.724
			c-0.531,1.171-1.116,2.627-1.756,4.366c-0.073,0.127-0.235,0.117-0.489-0.028c-0.169-0.095-0.23-0.215-0.189-0.36
			c0.816-3.069-0.287-5.462-3.309-7.181c-1.869-1.063-3.876-1.184-6.023-0.364c-2.146,0.821-3.853,2.349-5.122,4.581
			c-1.232,2.17-1.656,4.373-1.265,6.609c0.39,2.235,1.491,3.868,3.304,4.899c2.661,1.514,4.369,1.61,5.12,0.287l1.793-3.153
			c0.248-0.438,0.215-0.87-0.099-1.297c-0.317-0.427-1.226-1.174-2.733-2.242c-0.128-0.072-0.123-0.225,0.01-0.46
			c0.126-0.219,0.251-0.293,0.378-0.221c0.534,0.303,1.308,0.77,2.327,1.401c0.979,0.61,1.711,1.053,2.195,1.327
			c0.476,0.27,1.12,0.61,1.929,1.017c0.866,0.439,1.566,0.81,2.097,1.114C216.741,55.055,216.741,55.204,216.617,55.425z"/>
		<path style="fill:#80A843;" d="M228.807,76.638c-0.171,0.191-0.312,0.239-0.42,0.141c-0.474-0.418-0.988-0.912-1.549-1.481
			c-0.478-0.496-0.898-0.905-1.261-1.226c-0.418-0.37-0.954-0.808-1.606-1.313c-0.687-0.533-1.261-1.005-1.719-1.411
			c-0.109-0.097-0.082-0.239,0.088-0.428c0.165-0.188,0.29-0.245,0.37-0.173c0.634,0.511,1.146,0.818,1.532,0.92
			c0.384,0.102,0.703,0.012,0.954-0.27c0.158-0.179,0.34-0.525,0.553-1.039l1.875-4.475l-4.218-3.733l-3.992,2.144
			c-0.529,0.294-0.896,0.557-1.103,0.791c-0.535,0.605-0.275,1.427,0.785,2.464c0.083,0.073,0.041,0.203-0.126,0.391
			c-0.165,0.188-0.305,0.234-0.414,0.137c-0.412-0.363-0.849-0.786-1.312-1.27c-0.435-0.459-0.836-0.852-1.205-1.178
			c-0.294-0.26-0.683-0.567-1.163-0.92c-0.501-0.37-0.917-0.701-1.246-0.991c-0.102-0.091-0.077-0.221,0.076-0.393
			c0.169-0.191,0.339-0.224,0.508-0.1c0.617,0.448,1.208,0.691,1.77,0.723c0.563,0.034,1.376-0.193,2.441-0.679l15.249-7.546
			c0.139-0.073,0.284-0.043,0.433,0.09c0.164,0.146,0.222,0.288,0.173,0.427l-6.212,15.564c-0.348,0.876-0.459,1.652-0.328,2.327
			c0.128,0.676,0.499,1.357,1.109,2.046C228.971,76.314,228.956,76.467,228.807,76.638z M227.979,65.028l2.829-6.829l-6.575,3.514
			L227.979,65.028z"/>
		<path style="fill:#80A843;" d="M241.581,93.236c-0.203,0.155-0.35,0.174-0.438,0.058c-0.205-0.269-0.516-0.729-0.93-1.379
			c-0.301-0.471-0.508-0.78-0.619-0.926c-0.159-0.211-0.433-0.525-0.821-0.944c-0.386-0.418-0.661-0.733-0.821-0.944l2.865-7.404
			c0.39-1.033,0.581-1.773,0.575-2.221s-0.339-1.107-1.001-1.972l-4.689,3.573c-0.504,0.382-0.81,0.716-0.92,1.001
			c-0.111,0.285-0.102,0.635,0.023,1.05c0.128,0.415,0.384,0.952,0.77,1.611c0.079,0.135,0.028,0.272-0.153,0.41
			c-0.203,0.155-0.35,0.174-0.438,0.058c-0.37-0.487-0.794-1.085-1.265-1.795c-0.448-0.68-0.843-1.243-1.18-1.686
			c-0.339-0.444-0.772-0.969-1.304-1.576c-0.555-0.637-1.015-1.196-1.387-1.686c-0.09-0.116-0.032-0.252,0.173-0.406
			c0.181-0.138,0.324-0.155,0.427-0.05c0.534,0.548,0.981,0.938,1.346,1.165c0.363,0.229,0.695,0.328,0.996,0.301
			s0.706-0.236,1.214-0.623l10.275-7.825c0.501-0.382,0.81-0.712,0.928-0.99c0.115-0.278,0.113-0.623-0.006-1.038
			c-0.119-0.414-0.378-0.958-0.777-1.632c-0.09-0.117-0.034-0.251,0.165-0.404c0.201-0.152,0.346-0.17,0.433-0.053
			c0.37,0.487,0.789,1.083,1.258,1.785c0.444,0.673,0.834,1.232,1.171,1.675c0.337,0.444,0.777,0.972,1.312,1.587
			c0.559,0.643,1.024,1.208,1.395,1.696c1.235,1.621,1.852,3.135,1.847,4.539c-0.002,1.405-0.619,2.574-1.847,3.509
			c-0.774,0.591-1.717,0.845-2.829,0.765c-1.109-0.08-2.227-0.484-3.345-1.208l-2.914,7.526c-0.257,0.655-0.322,1.3-0.201,1.933
			c0.122,0.634,0.416,1.348,0.885,2.142C241.822,92.972,241.762,93.098,241.581,93.236z M248.288,79.339
			c2.132-1.622,2.49-3.362,1.077-5.216c-0.465-0.611-0.868-1.037-1.207-1.278c-0.339-0.242-0.655-0.334-0.947-0.279
			c-0.293,0.056-0.704,0.287-1.237,0.692l-4.87,3.709c0.263,0.466,0.638,1.019,1.126,1.66c0.892,1.171,1.82,1.814,2.784,1.931
			C245.978,80.673,247.07,80.267,248.288,79.339z"/>
		<path style="fill:#80A843;" d="M259.702,109.744c-2.545,1.204-5,1.325-7.366,0.362c-2.368-0.963-4.239-2.894-5.613-5.795
			c-0.173-0.364-0.501-1.107-0.994-2.23c-0.506-1.156-0.849-1.924-1.03-2.304c-0.727-1.537-1.469-3.018-2.223-4.441
			c-0.062-0.132,0.022-0.253,0.254-0.363c0.207-0.098,0.35-0.084,0.429,0.04c0.408,0.647,0.764,1.12,1.073,1.419
			c0.309,0.299,0.611,0.466,0.914,0.501c0.301,0.035,0.74-0.085,1.318-0.358l11.623-5.502c0.572-0.27,0.944-0.529,1.114-0.777
			c0.171-0.248,0.239-0.587,0.209-1.017c-0.032-0.43-0.173-1.015-0.422-1.758c-0.062-0.132,0.019-0.252,0.247-0.358
			c0.228-0.108,0.37-0.096,0.435,0.037c0.39,0.997,1.065,2.509,2.025,4.533c0.179,0.38,0.553,1.135,1.116,2.263
			c0.55,1.095,0.909,1.825,1.083,2.189c1.338,2.826,1.611,5.491,0.819,7.996C263.917,106.685,262.247,108.54,259.702,109.744z
			 M258.41,107.017c2.251-1.065,3.821-2.594,4.706-4.586c0.885-1.993,0.87-3.955-0.046-5.889l-0.034-0.074l-1.154-2.307
			c-0.493-0.96-1.205-1.22-2.132-0.78l-12.576,5.954c-0.943,0.446-1.184,1.157-0.723,2.133l1.027,2.365
			c0.911,1.925,2.413,3.197,4.504,3.816C254.075,108.266,256.218,108.056,258.41,107.017z"/>
		<path style="fill:#80A843;" d="M260.447,131.861c-1.713-0.34-3.322-0.563-4.828-0.671c-0.721-3.374-1.256-5.769-1.608-7.19
			c-0.346-1.401-0.988-3.767-1.922-7.096c-0.034-0.141,0.073-0.243,0.32-0.305c0.222-0.054,0.358-0.014,0.41,0.123
			c0.273,0.715,0.529,1.249,0.772,1.604c0.243,0.354,0.51,0.578,0.796,0.673c0.288,0.094,0.742,0.064,1.363-0.09l12.538-3.1
			c0.611-0.152,1.027-0.332,1.244-0.541c0.218-0.209,0.354-0.528,0.406-0.955c0.053-0.428,0.034-1.03-0.064-1.805
			c-0.036-0.141,0.068-0.243,0.312-0.303c0.245-0.061,0.384-0.02,0.42,0.122c0.446,2.262,0.96,4.566,1.538,6.909
			c0.585,2.361,1.205,4.642,1.862,6.843c-1.325,0.545-2.609,1.178-3.853,1.899c-0.177,0.044-0.305-0.089-0.382-0.4
			c-0.038-0.15,0.002-0.259,0.117-0.326c1.933-1.174,2.633-2.836,2.102-4.982l-0.667-2.689c-0.254-1.03-0.914-1.413-1.978-1.15
			l-5.924,1.466l0.828,3.356c0.222,0.892,0.574,1.446,1.062,1.662c0.487,0.215,1.262,0.257,2.334,0.126
			c0.141-0.035,0.243,0.07,0.303,0.313c0.06,0.245,0.019,0.384-0.122,0.42c-0.444,0.11-1.011,0.221-1.698,0.334
			c-0.661,0.107-1.196,0.211-1.604,0.312c-0.418,0.103-0.944,0.261-1.579,0.475c-0.679,0.225-1.238,0.391-1.683,0.501
			c-0.143,0.035-0.243-0.07-0.303-0.314c-0.062-0.245-0.019-0.384,0.122-0.418c1.05-0.402,1.752-0.822,2.104-1.266
			c0.352-0.442,0.422-1.086,0.213-1.934l-0.83-3.354l-6.549,1.62c-1.048,0.259-1.443,0.903-1.188,1.933l0.717,2.902
			c0.26,1.057,0.864,2.018,1.809,2.887c0.945,0.868,1.99,1.419,3.142,1.653c0.088,0.016,0.147,0.082,0.175,0.195
			c0.03,0.125,0.023,0.245-0.017,0.357C260.615,131.767,260.544,131.837,260.447,131.861z"/>
		<path style="fill:#80A843;" d="M276.167,156.967c-0.227,0.01-0.354-0.059-0.378-0.204c-0.173-1.137-0.416-1.911-0.725-2.325
			c-0.309-0.412-0.881-0.611-1.716-0.597l-16.162,0.344c-0.183,0.007-0.281-0.1-0.288-0.318c-0.004-0.11,0.062-0.259,0.201-0.447
			l15.401-14.766l-12.685,0.317c-0.073-0.006-0.141-0.01-0.205-0.006c-0.695,0.028-1.178,0.267-1.446,0.716
			c-0.271,0.451-0.452,1.249-0.544,2.397c-0.013,0.147-0.132,0.225-0.361,0.234c-0.257,0.01-0.386-0.058-0.393-0.204
			c-0.019-0.475-0.017-1.129,0.004-1.963c0.023-0.779,0.026-1.379,0.011-1.799c-0.019-0.457-0.07-1.072-0.156-1.846
			c-0.085-0.747-0.137-1.326-0.153-1.737c-0.004-0.147,0.12-0.225,0.375-0.235c0.228-0.01,0.354,0.068,0.38,0.231
			c0.183,1.128,0.427,1.895,0.732,2.304c0.303,0.409,0.873,0.61,1.707,0.604l12.924-0.036l0.123-0.005
			c0.74-0.03,1.248-0.266,1.523-0.706c0.275-0.441,0.463-1.249,0.561-2.425c-0.004-0.128,0.12-0.197,0.37-0.207
			c0.252-0.01,0.38,0.058,0.384,0.204c0.013,0.32,0.004,0.768-0.028,1.346c-0.034,0.514-0.047,0.899-0.036,1.154
			c0.013,0.319,0.055,0.703,0.128,1.148c0.073,0.454,0.115,0.846,0.129,1.175l-14.232,13.786l11.686-0.468
			c0.776-0.031,1.314-0.275,1.612-0.73c0.296-0.456,0.492-1.285,0.581-2.486c0.011-0.147,0.132-0.225,0.36-0.234
			c0.257-0.01,0.386,0.058,0.39,0.204c0.022,0.494,0.019,1.153-0.002,1.977c-0.023,0.77-0.028,1.365-0.011,1.785
			c0.017,0.456,0.07,1.072,0.156,1.846c0.085,0.747,0.134,1.326,0.153,1.737C276.549,156.879,276.423,156.957,276.167,156.967z"/>
		<path style="fill:#80A843;" d="M263.973,176.557c-0.996-0.195-1.781-0.721-2.353-1.574c-0.574-0.854-0.764-1.778-0.567-2.773
			c0.195-0.996,0.719-1.78,1.574-2.355c0.854-0.573,1.777-0.762,2.773-0.566c0.985,0.193,1.762,0.716,2.325,1.568
			c0.565,0.852,0.749,1.776,0.555,2.771c-0.195,0.996-0.717,1.781-1.561,2.356C265.874,176.559,264.957,176.75,263.973,176.557z"/>
	</g>
	<g>
		<path style="fill:#80A843;" d="M41.416,203.041c-1.674,0.712-3.217,0.78-4.628,0.207c-1.411-0.574-2.477-1.707-3.197-3.4
			c-0.319-0.75-0.566-1.704-0.741-2.863c-0.153-1.059-0.358-1.891-0.615-2.498c1.409-0.659,2.796-1.369,4.162-2.129
			c0.134-0.058,0.255,0.04,0.363,0.293c0.076,0.177,0.054,0.315-0.062,0.414c-1.371,1.121-2.226,2.171-2.564,3.149
			c-0.339,0.979-0.236,2.108,0.308,3.386c0.433,1.015,1.062,1.68,1.889,1.988c0.827,0.309,1.77,0.237,2.831-0.213
			c0.682-0.29,1.211-0.803,1.588-1.541c0.376-0.737,0.691-2.097,0.94-4.081c0.275-2.273,0.659-3.846,1.151-4.722
			c0.492-0.875,1.184-1.502,2.076-1.882c1.371-0.583,2.747-0.569,4.125,0.044c1.377,0.613,2.398,1.698,3.061,3.257
			c0.251,0.589,0.459,1.302,0.625,2.136c0.162,0.777,0.352,1.427,0.575,1.949c-1.437,0.731-2.685,1.419-3.74,2.068
			c-0.134,0.058-0.248-0.023-0.34-0.242c-0.1-0.235-0.088-0.394,0.035-0.477c1.144-0.815,1.873-1.622,2.188-2.423
			c0.315-0.801,0.26-1.7-0.164-2.697c-0.403-0.947-1-1.581-1.793-1.903c-0.792-0.322-1.66-0.282-2.602,0.119
			c-0.597,0.254-1.068,0.731-1.411,1.43c-0.344,0.699-0.637,2.022-0.882,3.969c-0.291,2.305-0.676,3.899-1.156,4.781
			C42.955,202.048,42.283,202.673,41.416,203.041z"/>
		<path style="fill:#80A843;" d="M48.107,224.591c-0.218,0.132-0.364,0.137-0.442,0.013c-0.33-0.538-0.68-1.161-1.049-1.869
			c-0.312-0.613-0.595-1.126-0.848-1.541c-0.293-0.476-0.677-1.05-1.155-1.724c-0.501-0.711-0.911-1.33-1.232-1.852
			c-0.076-0.123-0.007-0.252,0.207-0.384c0.215-0.131,0.35-0.149,0.406-0.058c0.457,0.674,0.854,1.117,1.194,1.327
			c0.339,0.21,0.669,0.216,0.991,0.02c0.204-0.126,0.482-0.403,0.833-0.834l3.099-3.732l-2.944-4.801l-4.444,0.885
			c-0.591,0.127-1.02,0.272-1.286,0.435c-0.689,0.422-0.679,1.284,0.034,2.586c0.058,0.094-0.022,0.207-0.236,0.338
			c-0.215,0.131-0.36,0.133-0.436,0.01c-0.287-0.468-0.581-1.001-0.884-1.598c-0.283-0.565-0.554-1.059-0.81-1.478
			c-0.206-0.334-0.486-0.742-0.843-1.218c-0.372-0.501-0.673-0.939-0.902-1.313c-0.072-0.116-0.01-0.235,0.185-0.354
			c0.218-0.133,0.388-0.116,0.516,0.053c0.46,0.609,0.953,1.012,1.481,1.208c0.527,0.195,1.371,0.217,2.533,0.064l16.786-2.768
			c0.153-0.029,0.282,0.043,0.388,0.213c0.115,0.187,0.127,0.339,0.04,0.459l-10.482,13.074c-0.589,0.736-0.921,1.446-0.994,2.129
			c-0.076,0.685,0.082,1.443,0.465,2.281C48.359,224.328,48.301,224.47,48.107,224.591z M50.704,213.243l4.7-5.707l-7.314,1.442
			L50.704,213.243z"/>
		<path style="fill:#80A843;" d="M78.325,231.163c-0.169,0.153-0.311,0.182-0.421,0.086c-0.862-0.762-1.544-1.201-2.046-1.321
			c-0.504-0.117-1.069,0.095-1.699,0.641L61.97,241.193c-0.135,0.122-0.277,0.103-0.424-0.06c-0.074-0.082-0.117-0.239-0.132-0.472
			l2.358-21.204l-9.535,8.37c-0.06,0.043-0.115,0.085-0.162,0.128c-0.516,0.468-0.733,0.958-0.651,1.476
			c0.082,0.519,0.454,1.248,1.119,2.188c0.085,0.121,0.042,0.257-0.127,0.412c-0.189,0.171-0.334,0.204-0.432,0.095
			c-0.319-0.354-0.737-0.857-1.255-1.509c-0.481-0.613-0.862-1.077-1.144-1.388c-0.307-0.339-0.742-0.779-1.303-1.318
			c-0.544-0.52-0.954-0.932-1.229-1.236c-0.098-0.109-0.052-0.251,0.138-0.42c0.17-0.153,0.315-0.175,0.439-0.065
			c0.862,0.748,1.542,1.182,2.038,1.3c0.495,0.117,1.061-0.092,1.698-0.629l9.898-8.31l0.092-0.083
			c0.549-0.498,0.788-1.003,0.717-1.518c-0.072-0.516-0.445-1.255-1.122-2.221c-0.085-0.095-0.035-0.227,0.151-0.394
			c0.186-0.169,0.328-0.198,0.427-0.091c0.213,0.237,0.495,0.587,0.84,1.053c0.303,0.416,0.539,0.719,0.712,0.91
			c0.213,0.237,0.492,0.504,0.834,0.798c0.346,0.303,0.631,0.575,0.852,0.819l-2.088,19.704l8.669-7.847
			c0.577-0.523,0.834-1.054,0.771-1.596c-0.064-0.539-0.446-1.301-1.149-2.281c-0.084-0.121-0.042-0.257,0.128-0.411
			c0.189-0.173,0.333-0.203,0.432-0.096c0.331,0.367,0.752,0.874,1.264,1.52c0.475,0.605,0.854,1.066,1.135,1.377
			c0.307,0.339,0.741,0.779,1.303,1.318c0.544,0.519,0.954,0.932,1.23,1.236C78.561,230.852,78.516,230.992,78.325,231.163z"/>
		<path style="fill:#80A843;" d="M94.033,246.813c-0.102,0.151-0.287,0.138-0.551-0.044c-0.128-0.088-0.171-0.194-0.129-0.32
			c0.332-1.057,0.332-2.031-0.002-2.92c-0.333-0.892-0.964-1.653-1.893-2.287l-2.04-1.389c-0.892-0.608-1.646-0.459-2.263,0.448
			l-3.436,5.044l2.584,1.76c0.755,0.514,1.386,0.691,1.891,0.526c0.505-0.165,1.115-0.652,1.831-1.458
			c0.082-0.121,0.227-0.113,0.429,0.028c0.211,0.144,0.276,0.277,0.194,0.398c-0.257,0.378-0.604,0.838-1.041,1.383
			c-0.421,0.52-0.75,0.954-0.987,1.301c-0.242,0.356-0.528,0.824-0.86,1.407c-0.356,0.619-0.663,1.119-0.921,1.496
			c-0.082,0.122-0.229,0.109-0.441-0.034c-0.204-0.139-0.265-0.269-0.182-0.39c0.508-1.005,0.744-1.788,0.715-2.351
			c-0.031-0.563-0.406-1.089-1.125-1.579l-2.584-1.76l-3.567,5.235c-0.355,0.523-0.539,0.935-0.554,1.242
			c-0.016,0.305,0.104,0.635,0.355,0.988c0.251,0.354,0.664,0.783,1.24,1.284c0.117,0.105,0.113,0.251-0.016,0.438
			c-0.145,0.211-0.277,0.276-0.398,0.194c-0.506-0.346-1.095-0.78-1.767-1.306c-0.643-0.504-1.193-0.911-1.654-1.225
			c-0.462-0.315-1.039-0.676-1.735-1.084c-0.727-0.429-1.342-0.815-1.847-1.161c-0.122-0.082-0.109-0.229,0.035-0.441
			c0.129-0.189,0.258-0.251,0.39-0.182c0.679,0.351,1.226,0.577,1.644,0.68c0.417,0.102,0.764,0.092,1.039-0.03
			c0.277-0.122,0.596-0.446,0.955-0.977l7.272-10.672c0.355-0.521,0.544-0.932,0.566-1.232s-0.09-0.629-0.333-0.985
			c-0.245-0.355-0.664-0.788-1.254-1.301c-0.12-0.082-0.11-0.227,0.031-0.436c0.141-0.207,0.273-0.271,0.394-0.188
			c1.841,1.388,3.761,2.761,5.755,4.12c1.889,1.288,3.812,2.53,5.771,3.731C94.905,244.243,94.401,245.592,94.033,246.813z"/>
		<path style="fill:#80A843;" d="M105.551,268.444c-0.109,0.231-0.23,0.315-0.363,0.254c-0.305-0.145-0.792-0.41-1.459-0.795
			c-0.486-0.279-0.81-0.456-0.976-0.535c-0.24-0.113-0.627-0.265-1.164-0.459c-0.537-0.191-0.926-0.344-1.164-0.457l-0.876-7.891
			c-0.129-1.097-0.302-1.841-0.516-2.237c-0.213-0.396-0.812-0.825-1.796-1.288l-2.513,5.333c-0.269,0.572-0.386,1.009-0.352,1.312
			c0.034,0.305,0.203,0.611,0.507,0.922c0.305,0.309,0.779,0.668,1.427,1.073c0.132,0.083,0.149,0.228,0.052,0.435
			c-0.109,0.233-0.23,0.317-0.362,0.254c-0.555-0.26-1.204-0.597-1.951-1.009c-0.715-0.396-1.322-0.715-1.826-0.951
			c-0.505-0.239-1.133-0.504-1.883-0.797c-0.785-0.309-1.453-0.593-2.007-0.854c-0.133-0.064-0.145-0.211-0.035-0.442
			c0.098-0.207,0.216-0.287,0.356-0.241c0.725,0.241,1.302,0.378,1.731,0.414c0.428,0.034,0.768-0.03,1.023-0.194
			s0.517-0.535,0.79-1.114l5.505-11.684c0.269-0.569,0.39-1.007,0.366-1.306c-0.026-0.301-0.187-0.607-0.484-0.92
			c-0.299-0.312-0.779-0.674-1.443-1.09c-0.132-0.062-0.144-0.206-0.037-0.433c0.108-0.228,0.227-0.311,0.358-0.249
			c0.554,0.261,1.2,0.596,1.937,1.003c0.704,0.392,1.309,0.709,1.813,0.946c0.505,0.237,1.137,0.505,1.897,0.803
			c0.791,0.312,1.465,0.598,2.019,0.86c1.844,0.868,3.089,1.927,3.734,3.175c0.645,1.247,0.639,2.568-0.019,3.965
			c-0.415,0.882-1.135,1.543-2.157,1.985c-1.023,0.442-2.198,0.598-3.526,0.472l0.89,8.022c0.076,0.7,0.312,1.302,0.713,1.807
			c0.4,0.506,0.991,1.003,1.774,1.493C105.644,268.099,105.648,268.238,105.551,268.444z M105.087,253.02
			c1.141-2.424,0.658-4.131-1.451-5.124c-0.694-0.327-1.248-0.521-1.66-0.578c-0.412-0.058-0.735,0.006-0.969,0.189
			c-0.234,0.185-0.493,0.579-0.778,1.184l-2.61,5.539c0.448,0.293,1.036,0.61,1.764,0.952c1.331,0.627,2.45,0.77,3.36,0.428
			C103.653,255.27,104.434,254.407,105.087,253.02z"/>
		<path style="fill:#80A843;" d="M126.596,274.389c-0.067,0.246-0.171,0.35-0.314,0.313c-0.608-0.167-1.29-0.382-2.043-0.645
			c-0.649-0.235-1.205-0.415-1.674-0.544c-0.538-0.146-1.212-0.303-2.02-0.468c-0.852-0.176-1.573-0.346-2.164-0.508
			c-0.141-0.038-0.177-0.179-0.111-0.421c0.066-0.242,0.153-0.349,0.258-0.32c0.795,0.179,1.388,0.229,1.779,0.15
			c0.39-0.079,0.637-0.3,0.735-0.663c0.064-0.23,0.077-0.623,0.038-1.177l-0.293-4.843l-5.431-1.488l-2.636,3.686
			c-0.345,0.496-0.557,0.896-0.641,1.196c-0.213,0.78,0.385,1.401,1.793,1.863c0.105,0.03,0.125,0.164,0.059,0.408
			c-0.066,0.243-0.171,0.343-0.311,0.305c-0.53-0.145-1.109-0.332-1.738-0.561c-0.593-0.221-1.129-0.394-1.604-0.524
			c-0.379-0.105-0.862-0.209-1.449-0.311c-0.614-0.111-1.132-0.227-1.554-0.34c-0.133-0.036-0.169-0.164-0.108-0.384
			c0.067-0.248,0.205-0.352,0.412-0.315c0.75,0.131,1.386,0.086,1.905-0.131c0.519-0.219,1.15-0.78,1.891-1.688l10.351-13.503
			c0.092-0.127,0.235-0.163,0.428-0.11c0.212,0.058,0.326,0.159,0.342,0.307l1.3,16.706c0.074,0.941,0.318,1.686,0.732,2.233
			c0.412,0.549,1.045,0.997,1.9,1.346C126.6,274.027,126.656,274.169,126.596,274.389z M120.728,264.337l-0.477-7.377l-4.348,6.055
			L120.728,264.337z"/>
		<path style="fill:#80A843;" d="M153.111,258.478c-0.017,0.227-0.099,0.345-0.248,0.351c-1.15,0.036-1.948,0.182-2.396,0.44
			c-0.446,0.258-0.713,0.802-0.798,1.63l-1.604,16.089c-0.016,0.181-0.129,0.265-0.35,0.245c-0.109-0.01-0.251-0.094-0.42-0.254
			l-12.805-17.063l-1.214,12.629c-0.016,0.073-0.026,0.14-0.03,0.204c-0.055,0.693,0.123,1.201,0.538,1.523
			c0.414,0.323,1.184,0.597,2.313,0.826c0.145,0.032,0.207,0.159,0.189,0.387c-0.022,0.254-0.105,0.376-0.251,0.364
			c-0.474-0.04-1.125-0.117-1.951-0.24c-0.768-0.117-1.363-0.192-1.783-0.227c-0.454-0.036-1.073-0.06-1.852-0.066
			c-0.75-0.008-1.333-0.026-1.742-0.06c-0.146-0.012-0.207-0.145-0.188-0.399c0.018-0.229,0.11-0.346,0.276-0.351
			c1.14-0.044,1.933-0.194,2.375-0.447c0.442-0.254,0.71-0.795,0.804-1.621l1.519-12.836l0.011-0.122
			c0.06-0.738-0.113-1.272-0.518-1.598c-0.403-0.326-1.184-0.61-2.338-0.851c-0.128-0.011-0.181-0.14-0.159-0.39
			c0.019-0.252,0.102-0.37,0.247-0.358c0.32,0.026,0.764,0.09,1.333,0.189c0.506,0.096,0.887,0.153,1.141,0.175
			c0.32,0.026,0.704,0.03,1.156,0.011c0.459-0.018,0.854-0.013,1.182,0.013l11.973,15.787l0.944-11.656
			c0.062-0.776-0.115-1.34-0.531-1.692c-0.416-0.35-1.216-0.643-2.4-0.876c-0.143-0.03-0.207-0.159-0.188-0.387
			c0.022-0.255,0.105-0.378,0.251-0.364c0.493,0.041,1.146,0.119,1.963,0.241c0.759,0.116,1.35,0.192,1.77,0.225
			c0.457,0.037,1.073,0.06,1.853,0.068c0.751,0.005,1.331,0.025,1.741,0.058C153.07,258.089,153.132,258.223,153.111,258.478z"/>
		<path style="fill:#80A843;" d="M172.157,269.891c-0.175,1.49-0.334,3.069-0.474,4.737c-0.518,0.054-1.446,0.275-2.786,0.661
			c-1.713,0.498-2.989,0.79-3.823,0.878c-2.074,0.216-3.936-0.006-5.585-0.662c-1.647-0.655-2.989-1.699-4.017-3.133
			c-1.033-1.433-1.642-3.081-1.837-4.945c-0.189-1.837,0.096-3.579,0.858-5.226c0.764-1.646,1.909-2.985,3.437-4.016
			c1.53-1.031,3.309-1.651,5.339-1.862c0.854-0.087,2.01-0.116,3.465-0.083c1.133,0.03,1.954,0.019,2.464-0.034
			c0.251,1.261,0.621,2.784,1.109,4.572c0.013,0.145-0.123,0.234-0.414,0.263c-0.183,0.019-0.299-0.043-0.352-0.183
			c-0.454-1.202-1.265-2.15-2.43-2.836c-1.165-0.689-2.453-0.96-3.862-0.813c-2.138,0.221-3.84,1.289-5.107,3.202
			c-1.27,1.916-1.771,4.15-1.506,6.706c0.258,2.482,1.195,4.521,2.812,6.113c1.617,1.593,3.462,2.281,5.536,2.067
			c3.246-0.337,5.389-2.112,6.426-5.327c0.049-0.151,0.164-0.237,0.346-0.257C172.01,269.688,172.145,269.746,172.157,269.891z"/>
		<path style="fill:#80A843;" d="M185.056,271.4c0.062,0.249,0.022,0.388-0.12,0.426c-0.595,0.147-1.306,0.297-2.136,0.446
			c-0.794,0.141-1.461,0.279-2.003,0.414c-0.539,0.134-1.195,0.326-1.963,0.574c-0.81,0.258-1.519,0.463-2.123,0.613
			c-0.141,0.035-0.243-0.071-0.305-0.319c-0.055-0.222-0.016-0.361,0.123-0.414c1.041-0.391,1.722-0.772,2.04-1.144
			c0.318-0.37,0.373-0.971,0.169-1.795l-3.121-12.533c-0.153-0.623-0.34-1.039-0.559-1.254c-0.218-0.216-0.539-0.346-0.969-0.396
			c-0.427-0.05-1.027-0.025-1.803,0.074c-0.143,0.036-0.245-0.068-0.305-0.312c-0.06-0.245-0.022-0.384,0.122-0.42
			c0.604-0.149,1.325-0.301,2.163-0.452c0.794-0.141,1.461-0.281,2.003-0.415c0.539-0.134,1.195-0.325,1.963-0.573
			c0.802-0.257,1.502-0.459,2.094-0.605c0.143-0.036,0.243,0.068,0.305,0.312c0.06,0.245,0.019,0.384-0.122,0.42
			c-0.723,0.275-1.262,0.534-1.617,0.778c-0.354,0.243-0.574,0.508-0.664,0.795c-0.09,0.287-0.055,0.743,0.102,1.374l3.119,12.533
			c0.153,0.614,0.334,1.027,0.55,1.244c0.213,0.216,0.531,0.348,0.954,0.398c0.42,0.052,1.015,0.028,1.783-0.07
			C184.896,271.077,185,271.177,185.056,271.4z"/>
		<path style="fill:#80A843;" d="M198.423,261.232c0.643,1.701,0.649,3.246,0.017,4.634c-0.634,1.386-1.809,2.404-3.531,3.053
			c-0.762,0.287-1.726,0.494-2.89,0.622c-1.065,0.107-1.905,0.277-2.522,0.51c-0.599-1.434-1.252-2.85-1.954-4.246
			c-0.052-0.135,0.052-0.253,0.307-0.351c0.179-0.067,0.318-0.041,0.412,0.082c1.062,1.415,2.076,2.315,3.042,2.691
			c0.964,0.38,2.094,0.322,3.396-0.165c1.033-0.39,1.722-0.991,2.064-1.805c0.34-0.812,0.309-1.759-0.096-2.837
			c-0.263-0.692-0.753-1.244-1.475-1.65c-0.721-0.409-2.067-0.777-4.037-1.108c-2.261-0.369-3.82-0.818-4.672-1.345
			c-0.854-0.527-1.451-1.246-1.794-2.154c-0.525-1.393-0.454-2.767,0.215-4.12c0.67-1.35,1.796-2.325,3.381-2.923
			c0.599-0.227,1.318-0.405,2.159-0.535c0.783-0.129,1.44-0.295,1.973-0.495c0.67,1.467,1.306,2.741,1.911,3.823
			c0.052,0.137-0.036,0.247-0.258,0.331c-0.239,0.09-0.397,0.073-0.474-0.055c-0.768-1.176-1.545-1.939-2.332-2.287
			c-0.786-0.348-1.687-0.331-2.701,0.052c-0.964,0.362-1.621,0.933-1.975,1.712c-0.356,0.779-0.352,1.647,0.01,2.605
			c0.23,0.608,0.687,1.097,1.371,1.47c0.685,0.372,1.995,0.721,3.93,1.045c2.293,0.386,3.87,0.838,4.73,1.354
			C197.495,259.653,198.093,260.35,198.423,261.232z"/>
		<path style="fill:#80A843;" d="M217.35,251.671c0.426,1.437,0.902,2.952,1.431,4.54c-0.454,0.253-1.22,0.822-2.298,1.707
			c-1.376,1.135-2.432,1.907-3.166,2.317c-1.82,1.015-3.618,1.548-5.391,1.596c-1.776,0.047-3.418-0.382-4.93-1.294
			c-1.515-0.909-2.726-2.182-3.64-3.82c-0.9-1.612-1.325-3.326-1.276-5.139c0.052-1.813,0.575-3.497,1.574-5.048
			c0.997-1.551,2.387-2.825,4.168-3.82c0.749-0.417,1.801-0.898,3.151-1.443c1.053-0.42,1.803-0.755,2.251-1.003
			c0.727,1.059,1.668,2.315,2.822,3.763c0.073,0.128-0.022,0.263-0.275,0.405c-0.162,0.09-0.293,0.079-0.397-0.031
			c-0.892-0.926-2.01-1.475-3.351-1.647c-1.342-0.171-2.633,0.086-3.87,0.778c-1.875,1.047-3.019,2.7-3.428,4.958
			c-0.41,2.26,0.013,4.511,1.265,6.756c1.216,2.178,2.88,3.682,4.996,4.507c2.114,0.825,4.081,0.729,5.901-0.287
			c2.852-1.589,4.117-4.067,3.802-7.428c-0.016-0.159,0.058-0.284,0.215-0.37C217.131,251.542,217.278,251.544,217.35,251.671z"/>
		<path style="fill:#80A843;" d="M232.418,233.954c1.847,2.233,2.641,4.653,2.377,7.26c-0.263,2.609-1.551,4.873-3.87,6.789
			c-2.317,1.917-4.781,2.76-7.389,2.525c-2.608-0.233-4.836-1.466-6.682-3.698c-1.853-2.239-2.661-4.688-2.428-7.344
			c0.235-2.655,1.5-4.934,3.794-6.833c2.304-1.905,4.783-2.724,7.437-2.458C228.312,230.46,230.567,231.714,232.418,233.954z
			 M230.095,235.876c-1.72-2.078-3.627-3.36-5.72-3.848c-2.094-0.486-3.96-0.054-5.591,1.298c-1.641,1.36-2.414,3.107-2.323,5.25
			c0.094,2.142,1.001,4.252,2.718,6.329c1.71,2.064,3.586,3.327,5.632,3.786c2.048,0.462,3.9,0.005,5.556-1.364
			c1.648-1.364,2.441-3.098,2.381-5.199C232.687,240.024,231.802,237.941,230.095,235.876z"/>
		<path style="fill:#80A843;" d="M242.432,236.243c0.625,0.602,1.075,1.274,1.348,2.012c0.271,0.738,0.37,1.555,0.301,2.452
			c-0.07,0.897-0.173,1.415-0.305,1.553c-0.083,0.086-0.195,0.118-0.337,0.094c-0.145-0.023-0.252-0.07-0.324-0.139l-0.049-0.107
			c0.354-1.74,0.046-3.076-0.93-4.016c-0.301-0.291-0.504-0.385-0.605-0.281l-0.083,0.147c-0.046,0.111-0.09,0.193-0.141,0.245
			c-0.299,0.311-0.661,0.459-1.09,0.447c-0.427-0.012-0.8-0.173-1.122-0.483c-0.318-0.305-0.48-0.676-0.486-1.116
			c-0.01-0.439,0.141-0.818,0.444-1.134c0.424-0.441,0.958-0.628,1.6-0.562C241.291,235.422,241.885,235.716,242.432,236.243z"/>
		<path style="fill:#80A843;" d="M256.709,208.979c1.043,1.078,2.165,2.199,3.371,3.362c-0.287,0.435-0.704,1.294-1.25,2.576
			c-0.695,1.642-1.276,2.815-1.737,3.519c-1.146,1.741-2.494,3.044-4.045,3.906c-1.551,0.862-3.206,1.238-4.969,1.133
			c-1.762-0.109-3.426-0.676-4.992-1.707c-1.545-1.013-2.711-2.337-3.505-3.968c-0.794-1.63-1.105-3.365-0.939-5.202
			c0.169-1.837,0.813-3.606,1.931-5.311c0.474-0.719,1.182-1.63,2.129-2.737c0.738-0.86,1.248-1.505,1.53-1.933
			c1.137,0.604,2.549,1.282,4.243,2.034c0.123,0.079,0.105,0.242-0.058,0.486c-0.1,0.153-0.222,0.205-0.363,0.155
			c-1.22-0.409-2.466-0.378-3.736,0.09c-1.27,0.468-2.293,1.294-3.071,2.478c-1.18,1.795-1.429,3.79-0.747,5.982
			c0.68,2.193,2.094,3.995,4.243,5.404c2.084,1.371,4.256,1.934,6.513,1.688c2.255-0.246,3.955-1.24,5.101-2.982
			c1.792-2.729,1.771-5.509-0.064-8.345c-0.088-0.133-0.082-0.276,0.022-0.43C256.455,208.965,256.587,208.898,256.709,208.979z"/>
		<path style="fill:#80A843;" d="M269.776,191.098c0.235,0.101,0.324,0.221,0.267,0.354c-0.252,0.579-0.561,1.223-0.928,1.933
			c-0.322,0.608-0.58,1.134-0.772,1.579c-0.222,0.512-0.472,1.157-0.749,1.934c-0.296,0.819-0.563,1.509-0.809,2.072
			c-0.058,0.134-0.203,0.152-0.433,0.052c-0.23-0.1-0.324-0.2-0.279-0.301c0.288-0.762,0.422-1.342,0.399-1.74
			c-0.023-0.398-0.207-0.673-0.553-0.822c-0.221-0.095-0.605-0.163-1.16-0.203l-4.836-0.392l-2.238,5.169l3.279,3.128
			c0.442,0.412,0.806,0.679,1.095,0.803c0.742,0.321,1.44-0.182,2.094-1.512c0.046-0.1,0.183-0.101,0.412-0.001
			c0.23,0.099,0.318,0.217,0.26,0.352c-0.218,0.502-0.486,1.05-0.8,1.641c-0.301,0.557-0.55,1.06-0.745,1.513
			c-0.158,0.362-0.328,0.826-0.514,1.391c-0.195,0.593-0.382,1.09-0.557,1.491c-0.053,0.126-0.186,0.143-0.394,0.053
			c-0.235-0.102-0.32-0.253-0.252-0.454c0.233-0.724,0.279-1.359,0.137-1.905c-0.143-0.544-0.61-1.248-1.401-2.109l-11.909-12.15
			c-0.111-0.109-0.128-0.255-0.047-0.44c0.088-0.201,0.203-0.3,0.352-0.295l16.72,1.069c0.941,0.059,1.713-0.077,2.315-0.41
			c0.602-0.332,1.135-0.896,1.6-1.692C269.417,191.043,269.567,191.007,269.776,191.098z M258.995,195.49l-7.369-0.568l5.38,5.159
			L258.995,195.49z"/>
	</g>
	<path style="fill:#80A843;" d="M8.457,150.257c0-78.3,63.474-141.773,141.771-141.773l0,0C228.525,8.484,292,71.958,292,150.257
		l0,0c0,78.295-63.474,141.769-141.772,141.769l0,0C71.931,292.026,8.457,228.552,8.457,150.257L8.457,150.257z M50.769,50.795
		C25.313,76.253,9.572,111.414,9.572,150.259l0,0c0,38.842,15.742,74.003,41.198,99.457l0,0
		c25.457,25.455,60.615,41.198,99.46,41.199l0,0c38.844-0.002,74.005-15.743,99.46-41.199l0,0
		c25.454-25.454,41.196-60.615,41.196-99.457l0,0c0-38.845-15.742-74.005-41.196-99.463l0,0
		c-25.455-25.455-60.615-41.198-99.46-41.198l0,0C111.385,9.599,76.226,25.34,50.769,50.795L50.769,50.795z"/>
	<path style="fill:#80A843;" d="M13.738,150.257c0-75.385,61.109-136.49,136.49-136.492l0,0
		c75.381,0.004,136.49,61.107,136.492,136.492l0,0c-0.002,75.381-61.111,136.488-136.492,136.49l0,0
		C74.849,286.746,13.738,225.639,13.738,150.257L13.738,150.257z M56.805,56.832c-23.911,23.916-38.694,56.935-38.697,93.427l0,0
		c0.004,36.49,14.786,69.506,38.697,93.422l0,0c23.918,23.914,56.935,38.697,93.425,38.697l0,0c36.49,0,69.506-14.783,93.425-38.697
		l0,0c23.912-23.916,38.697-56.933,38.697-93.422l0,0c0-36.492-14.784-69.511-38.697-93.427l0,0
		c-23.918-23.912-56.935-38.696-93.425-38.697l0,0C113.737,18.136,80.722,32.919,56.805,56.832L56.805,56.832z"/>
	<path style="fill:#80A843;" d="M217.908,82.577c-17.328-17.326-41.244-28.033-67.679-28.035
		c-26.438,0.002-50.352,10.709-67.679,28.035c-17.325,17.328-28.035,41.241-28.035,67.681c0,26.436,10.711,50.352,28.035,67.678
		c17.328,17.322,41.242,28.03,67.679,28.03c26.435,0,50.351-10.709,67.679-28.03c17.323-17.327,28.032-41.243,28.032-67.678
		C245.941,123.818,235.23,99.904,217.908,82.577z M232.099,135.351l-0.221,0.147l-1.577,1.137c-1.387,1.148-3.137,1.821-4.52,2.953
		c-2.63,2.12-5.557,4.128-8.697,5.605l-0.45,0.199l-0.227,0.099l-0.91,0.391l-0.144,0.062c-0.364,0.144-0.731,0.284-1.101,0.411
		l-0.004,0.002c-0.218,0.076-0.44,0.139-0.658,0.207c-2.334,0.699-4.626,0.92-7.217,1.018c-0.012,0-0.022,0-0.034,0
		c-0.005,0-0.013,0.002-0.018,0.004c-0.05,0.002-0.1,0.005-0.149,0.006c-1.205,0.062-2.62,0.614-4.043,1.148
		c-0.39,0.147-0.676,0.326-0.872,0.512c-0.084,0.079-0.147,0.158-0.198,0.237c-1.354,0.167-2.801,0.331-4.291,0.476l-0.138-0.029
		l-0.207,0.028l-0.412,0.072c0,0.001,0,0.001,0,0.001c-0.071,0.006-0.141,0.012-0.213,0.019c-0.04-0.082-0.086-0.128-0.17,0.016
		c-0.129,0.012-0.26,0.024-0.391,0.035c2.287-1.254,4.57-2.582,6.768-3.969c-0.605,0.483-1.184,0.952-1.686,1.389
		c1.344-0.87,2.591-1.734,3.792-2.598c2.446-1.686,5.006-3.604,7.187-5.695c0.393-0.356,0.791-0.712,1.158-1.072
		c2.383-2.389,4.538-5.133,6.471-8.001l0.339-0.45l1.168-1.547c0.159-0.159,0.332-0.257,0.526-0.278
		c0.391,0.157,1.127,0.516,1.525,0.676c0.109,0.042,0.211,0.095,0.318,0.14c0.291,0.129,0.585,0.253,0.869,0.393
		c0.265,0.132,0.527,0.269,0.786,0.412c0.198,0.105,0.394,0.218,0.589,0.33c0.301,0.171,0.602,0.34,0.902,0.513
		C228.264,131.63,230.372,133.308,232.099,135.351z M220.885,106.678c0.086-0.236,0.14-0.43,0.175-0.602
		c0.085-0.107,0.176-0.229,0.255-0.321c2.653-3.095,6.352-2.305,6.352-2.305s-0.006,0.022-0.012,0.037
		c-2.2-0.394-4.23,0.524-5.517,1.791c1.586-1.421,4.622-2.16,5.163-1.355c-0.629,1.982-1.324,3.891-2.034,5.763
		c-1.181,3.015-2.514,6.061-3.997,9.048c-2.702,5.479-5.948,10.76-9.689,15.09c-0.061,0.068-0.122,0.137-0.183,0.204
		c-0.149,0.171-0.305,0.333-0.457,0.501c-0.316,0.337-0.637,0.668-0.96,0.989c-3.088,3.055-7.437,6.091-12.111,8.888
		c-1.921,1.104-3.859,2.156-5.805,3.157c-1.871,0.433-3.924,0.352-6.055,0.094c-1.333-0.3-2.699-0.445-4.041-0.715
		c-0.704-0.089-1.41-0.163-2.116-0.234c-2.285-0.339-4.559-0.547-6.724-0.285c-0.534,0.011-1.069,0.013-1.604,0.044
		c-0.173,0.114-0.406,0.109-0.656,0.073l0.779-0.481c1.475-1.003,2.865-2.233,4.033-3.665c2.219-3.053,3.119-6.68,3.863-10.287
		l0.197-1.074c0.217-0.511,0.451-0.989,0.707-1.431c0.361-0.207,0.789-0.46,0.988-0.563l4.221-2.349
		c3.739-2.603,8.269-2.72,12.661-3.122c2.182-0.177,4.411-0.243,6.662-0.339l1.425-0.068l-0.041,0.434
		c-0.007,1.071-0.409,2.108-0.677,3.163c-1.345,3.481-3.475,6.951-6.316,9.452c-0.261,0.168-0.522,0.322-0.84,0.484l-0.778,0.422
		l-0.195,0.105l-0.097,0.053l-0.023,0.013l-0.019,0.01c0.03,0.052,0.048,0.084,0.062,0.108l-0.001,0.001
		c-0.074-0.125-0.293-0.504-0.004,0.002l-0.001,0.001v0.001c0.014,0.025,0.022,0.038,0.031,0.055l-0.001,0.001
		c0.001,0.002,0.002,0.004,0.004,0.005c0.016,0.029,0.037,0.066,0.06,0.104l-0.001,0.001c0.048,0.085,0.088,0.156,0.129,0.229
		l-0.004,0.002c0.001,0.001,0.002,0,0.004,0.001c0.068,0.12,0.116,0.205,0.17,0.299c0.114,0.201,0.209,0.363,0.266,0.453
		c0.046,0.079,0.085,0.149,0.135,0.237l0.002-0.002c0.023,0.038,0.038,0.068,0.062,0.108l0.052-0.032l0.406-0.259
		c0.334-0.213,0.659-0.456,0.976-0.712c0.06-0.046,0.11-0.097,0.17-0.144c0.043-0.035,0.091-0.065,0.133-0.1
		c0.507-0.275,1.023-0.699,1.525-1.145c0.028-0.017,0.05-0.035,0.077-0.052c0.607-0.47,1.202-0.972,1.787-1.493
		c0.023-0.014,0.049-0.034,0.073-0.046c0.082-0.073,0.156-0.153,0.236-0.227c0.265-0.243,0.52-0.495,0.777-0.748
		c0.103-0.103,0.21-0.201,0.312-0.307c1.186-1.219,2.247-2.569,3.089-4.068c0.029-0.048,0.062-0.092,0.09-0.14
		c0.114-0.213,0.221-0.43,0.325-0.649c0.147-0.299,0.278-0.605,0.406-0.915c0.017-0.043,0.035-0.085,0.052-0.127
		c0.092-0.23,0.195-0.452,0.278-0.688c0.318-0.507,0.451-1.371,0.532-2.235c0.116-0.683,0.181-1.376,0.193-2.073
		c0.022-0.134,0.05-0.246,0.083-0.339c0.082-0.028,0.198-0.095,0.348-0.199c0.004,0.002,0.006,0.002,0.01,0.004
		c0.041-0.029,0.074-0.064,0.114-0.094c0.207-0.153,0.453-0.354,0.727-0.591c0.319-0.272,0.623-0.551,0.912-0.838
		c0.863-0.832,1.754-1.793,2.223-2.491c0.016-0.019,0.031-0.041,0.046-0.06l0.227-0.272c1.943-2.409,3.649-5.775,5.378-9.057
		C220.371,107.901,220.676,107.192,220.885,106.678z M172.554,132.894c0.288-0.022,0.27,0.082,0.233,0.129
		c0.026,0.026,0.07,0.083,0.082,0.126c0.011,0.071-0.046,0.213-0.197,0.374l0.046,0.04c-0.019-0.004-0.037,0.002-0.055-0.004
		c-0.147-0.038-0.266-0.135-0.336-0.259c0.041,0.028,0.09,0.046,0.157,0.046l0.195,0.147
		C172.418,133.33,172.347,133.015,172.554,132.894z M179.904,130.147l0.052-0.276c0.049-0.023,0.12-0.06,0.203-0.107
		C180.071,129.888,179.985,130.012,179.904,130.147z M209.484,99.536c0.921-0.263,1.871-0.526,2.819-0.808
		c0.951-0.255,1.885-0.601,2.789-0.942c0.189-0.084,0.438-0.241,0.682-0.397c0.234-0.123,0.452-0.255,0.662-0.393
		c0.117-0.053,0.199-0.067,0.222-0.013c-0.397,0.836-1.187,2.205-2.586,3.624c-0.601,0.47-1.092,1.053-1.79,1.358
		c-1.888,1.172-3.896,1.94-6.013,2.657c-0.013,0.01-0.018,0.022-0.03,0.034c-1.61,0.556-3.255,1.096-4.891,1.795
		c-0.827,0.213-1.658,0.599-2.486,0.983c-1.11,0.623-2.479,0.664-3.585,1.304l-0.492,0.258l1.128-2.896l0.251-0.605
		c0.199-0.328,0.49-0.613,0.828-0.87c1.104-0.683,2.4-1.183,3.755-1.545c0.492-0.123,0.972-0.233,1.431-0.334
		c0.126-0.026,0.251-0.059,0.376-0.083c0.804-0.183,1.692-0.796,2.588-1.427c0.246-0.173,0.412-0.37,0.515-0.566
		c0.046-0.083,0.049-0.161,0.07-0.242c0.047-0.013,0.094-0.028,0.141-0.04c0.549-0.156,1.093-0.305,1.633-0.451
		c-0.563,0.241-1.095,0.486-1.553,0.738C207.18,100.269,208.351,99.896,209.484,99.536z M197.546,137.526
		c-0.006-0.01-0.017-0.029-0.031-0.052c0.001,0.001,0.001,0.001,0.002,0.002C197.532,137.5,197.542,137.517,197.546,137.526z
		 M218.409,104.19c0.308-0.091,0.617-0.187,0.928-0.257c-0.149,0.217-0.293,0.4-0.442,0.462c-0.574,0.556-1.017,1.268-1.422,1.979
		c-0.507,1.033-1.514,1.734-1.992,2.769c-0.878,1.731-1.953,3.568-3.187,5.241l-0.442,0.563l-0.097,0.122l-0.394,0.486
		c-0.002,0.012-0.011,0.02-0.016,0.031c-0.044,0.053-0.088,0.105-0.132,0.158c-0.007,0.005-0.012,0.011-0.02,0.016
		c-0.186,0.223-0.381,0.445-0.579,0.665c-1.059,1.134-2.204,2.094-3.43,2.738c-0.042,0.018-0.083,0.042-0.125,0.059
		c0.346,0.001-1.383,0.366-2.048,0.786c-0.251,0.113-0.434,0.266-0.56,0.433c-0.044,0.058-0.056,0.12-0.086,0.18
		c-1.044,0.062-2.098,0.137-3.157,0.235c0.99-1.126,1.976-2.281,2.938-3.426c-0.281,0.466-0.537,0.92-0.742,1.339
		c0.701-0.914,1.356-1.783,1.988-2.625c1.395-1.746,2.934-3.579,4.252-5.321c1.278-1.521,2.383-2.795,3.217-3.627
		c0.016-0.014,0.029-0.025,0.044-0.04c0.388-0.299,0.816-0.55,1.199-0.837c0.738-0.555,1.535-1.018,2.361-1.403
		c0.293-0.133,0.591-0.253,0.89-0.367c0.08-0.03,0.159-0.064,0.239-0.094C217.864,104.36,218.137,104.275,218.409,104.19z
		 M217.451,90.527c0.424,0.363,0.502,0.987,0.316,1.7c-0.515,1.206-1.559,2.76-3.651,3.637c-1.495,0.628-4.535,1.371-7.82,2.267
		c-1.898,0.489-3.78,1.002-5.63,1.608c-0.778,0.076-1.509,0.397-2.218,0.791c-0.182,0.078-0.362,0.157-0.541,0.239
		c-0.599,0.258-1.189,0.539-1.759,0.866c-0.486,0.257-0.932,0.502-1.327,0.727c-0.013,0.002-0.025,0.004-0.037,0.005
		c-0.47-0.096-1.029-0.239-1.641-0.385c-0.376-0.096-0.756-0.177-1.14-0.245c-0.765-0.145-1.553-0.237-2.302-0.204
		c-0.617,0.001-1.235,0.046-1.85,0.149c-0.058,0.014-0.116,0.029-0.173,0.043c-1.514,0.233-2.982,0.67-4.393,1.26
		c-1.658,0.591-3.245,1.366-4.508,2.466c-0.224,0.11-0.452,0.204-0.673,0.322c-0.575,0.331-1.218,0.741-1.704,1.123l-0.77,0.635
		l-0.048,0.043l-0.026,0.022l-0.011,0.011l-0.006,0.006l-0.004,0.004c0.01,0.01,0.012,0.013,0.02,0.022l-0.001,0.001
		c-0.105-0.114-0.23-0.249-0.001,0.001h-0.001c-0.028-0.03-0.054-0.059-0.076-0.082c0.067,0.073,0.259,0.283,0.669,0.729
		c0.159,0.174,0.346,0.378,0.581,0.634c0.004,0.005,0.006,0.008,0.011,0.013h0.001c0.276,0.301,0.39,0.424,0.022,0.02l0.245-0.245
		l0.324-0.325c0.34-0.357,0.649-0.658,0.958-0.941c0.229-0.134,0.453-0.281,0.691-0.398c1.74-0.908,3.673-1.488,5.593-2.01
		c1.946-0.399,3.947-0.789,5.926-0.633c0.223-0.01,0.441,0.002,0.657,0.022c0.715,0.201,1.244,0.569,1.519,1.14
		c-0.129,0.472-0.258,0.97-0.405,1.166c-1.24,3.253-2.317,6.827-3.935,10.116c-1.575,4.18-6.477,7.245-8.937,10.176
		c-0.165,0.153-0.334,0.306-0.499,0.462c0.135-0.123,0.284-0.255,0.442-0.393c-0.082,0.098-0.158,0.195-0.233,0.293
		c-0.186,0.165-0.322,0.313-0.373,0.428c-4.544-0.534-9.597-1.255-14.137,0.665c-0.095,0.037-0.189,0.074-0.285,0.11
		c-0.013,0.01-0.028,0.019-0.041,0.028c-0.364,0.165-0.724,0.342-1.079,0.543c-3.63,2.078-6.622,5.004-8.924,8.489
		c-0.137,0.171-0.271,0.34-0.403,0.492c-0.275,0.358-0.525,0.766-0.756,1.189c0.433-1.638,0.926-3.269,1.47-4.889
		c0.209-0.604,0.42-1.207,0.634-1.807c1.346-3.706,2.953-7.325,4.765-10.755c0.198-0.352,0.399-0.715,0.602-1.089
		c1.591-2.817,3.3-6.272,5.538-9.458c0.679-0.944,1.126-1.717,1.455-2.263c0.133-0.243,0.227-0.45,0.3-0.629
		c0.113-0.117,0.235-0.243,0.337-0.345c1.852-1.695,3.746-3.33,5.638-4.839c-2.037,1.74-3.86,3.483-5.437,5.059
		c1.202-1.202,2.432-2.337,3.68-3.411c-0.247,0.242-0.5,0.477-0.742,0.725c0.246-0.263,0.521-0.501,0.778-0.755
		c3.423-2.944,7.009-5.4,10.697-7.35c6.401-3.071,13.725-4.934,20.847-5.969C210.114,90.689,215.493,90.547,217.451,90.527z
		 M168.479,137.063c-0.127,0.09-0.34,0.257-0.611,0.433l0.135,0.044c-0.049-0.006-0.096,0.005-0.145-0.008
		c-0.314-0.082-0.551-0.294-0.689-0.562c0.062,0.088,0.141,0.158,0.287,0.181l0.133,0.099c-0.35-0.337-0.465-0.822-0.144-1.165
		c0.816-0.671,1.443,0.315,1.027,0.7C168.435,136.818,168.491,136.968,168.479,137.063z M162.37,142.183
		c-0.065-0.01-0.129-0.013-0.195-0.029c-0.448-0.115-0.803-0.406-1.014-0.78c0.091,0.116,0.199,0.219,0.336,0.299
		c0.041,0.047,0.098,0.068,0.147,0.103c-0.541-0.483-0.674-1.322-0.257-1.895c1.183-1.461,3.05,0.367,1.987,1.401
		c-0.104,0.06-0.105,0.23-0.163,0.343c-0.237,0.257-0.623,0.418-1.026,0.493L162.37,142.183z M154.495,144.355
		c1.536-2.148,4.465,0.409,2.853,2.028c-0.147,0.099-0.189,0.307-0.284,0.451c-0.367,0.326-0.914,0.5-1.44,0.553l0.301,0.083
		c-0.103-0.011-0.207-0.02-0.311-0.047c-0.62-0.159-1.103-0.573-1.38-1.097c0.12,0.18,0.265,0.344,0.462,0.47
		c0.094,0.117,0.217,0.195,0.346,0.263C154.182,146.447,153.905,145.22,154.495,144.355z M154.758,154.718
		c0.111-0.141,0.088-0.351,0.133-0.517c0.252-0.421,0.721-0.752,1.206-0.961l-0.315,0.012c0.102-0.022,0.205-0.043,0.312-0.05
		c0.634-0.036,1.216,0.207,1.64,0.617c-0.167-0.131-0.352-0.24-0.574-0.299c-0.125-0.084-0.266-0.12-0.41-0.146
		c1.007,0.324,1.64,1.41,1.34,2.413C157.28,158.301,153.711,156.744,154.758,154.718z M167.895,101.879
		c0.064-0.11,0.122-0.223,0.186-0.333c0.668-1.187,1.101-2.842,1.521-4.518c0.115-0.46,0.141-0.834,0.107-1.126
		c-0.012-0.129-0.041-0.235-0.076-0.325c0.026-0.053,0.059-0.122,0.083-0.171c0.3-0.723,0.662-1.421,1.053-2.108
		c-0.352,0.761-0.62,1.507-0.777,2.221c0.924-2.087,2.033-3.912,3.256-5.547c2.467-3.083,5.796-5.848,8.756-8.29
		c2.398-1.856,4.84-3.631,7.089-5.386c0.076-0.048,0.157-0.111,0.228-0.145c0.305-0.132,0.573-0.126,0.78,0.139
		c0.105,0.152,0.192,0.381,0.257,0.716c0.65,1.137,1.115,2.338,1.46,3.574c0.044,0.164,0.085,0.328,0.126,0.493
		c0.046,0.177,0.088,0.357,0.128,0.536c0.151,0.685,0.275,1.376,0.382,2.069c0.152,1.043,0.26,2.093,0.349,3.137
		c0.058,1.006,0.201,2.403,0.066,2.784l-0.18,0.052c-0.018-0.016-0.034-0.026-0.055-0.052l-4.756,1.328
		c-1.383,0.211-2.707,0.973-4.076,1.561c-1.829,0.93-4.004,1.296-5.661,2.608c-3.087,2.034-5.97,4.425-8.892,6.801
		c-0.017,0.01-0.035,0.02-0.052,0.029l-1.025,0.828l-0.225,0.179l-0.872,0.75c-0.023,0.037-0.058,0.067-0.088,0.1l-0.176,0.149
		c-0.028,0.018-0.05,0.037-0.079,0.053C167.113,103.275,167.497,102.572,167.895,101.879z M150.938,75.81
		c0.192-0.111,0.386-0.402,0.58-0.685c0.179-0.211,0.367-0.412,0.555-0.613c0.008-0.004,0.016-0.01,0.023-0.013
		c0.164-0.195,0.348-0.372,0.525-0.555c0.533-0.523,1.086-1.019,1.648-1.499c0.505-0.414,1.009-0.821,1.493-1.24
		c0.108-0.066,0.215-0.133,0.32-0.211c1.007-0.661,1.877-1.933,3.064-2.803c0.35-0.269,0.589-0.537,0.74-0.783
		c0.089-0.144,0.137-0.276,0.165-0.4c0.423-0.185,0.848-0.37,1.282-0.51c0.337,1.219,0.71,2.467,1.097,3.734
		c-0.356-0.879-0.705-1.714-1.033-2.45c0.591,1.793,1.172,3.511,1.726,5.174c1.339,4.224,2.606,8.89,3.219,13.11
		c0.234,2.157,0.258,4.273-0.026,6.31l-0.03,0.157l-0.761,3.597c-0.627,2.827-1.288,5.614-1.994,8.405l-0.052-0.291
		c-0.277-1.557-0.59-3.125-1.019-4.702c-0.258-1.325-0.583-2.743-1.101-4.107c-0.821-1.846-0.849-3.992-1.883-5.78
		c-1.449-3.285-3.458-6.376-5.561-9.379c-0.019-0.042-0.043-0.085-0.06-0.126l-0.753-1.051l-0.164-0.23l-0.661-0.918l-0.294-0.379
		l-1.19-1.568C150.842,75.955,150.888,75.886,150.938,75.81z M129.263,61.721c0,0,0.022,0.016,0.061,0.044
		c-0.028,0.054-0.049,0.109-0.077,0.163l-0.066-0.047C129.231,61.778,129.263,61.721,129.263,61.721z M129.18,61.882
		c0.026,0.018,0.047,0.038,0.061,0.06c-0.978,1.846-0.735,4.02,0.047,5.595c-0.86-1.958-0.62-5.128,0.345-5.299
		c1.702,1.223,3.315,2.485,4.885,3.752c2.507,2.064,4.996,4.285,7.381,6.63c4.649,4.552,8.89,9.615,11.867,14.875
		c0.174,0.322,0.349,0.647,0.512,0.972c1.992,3.969,3.556,9.187,4.779,14.627c0.444,2.158,0.84,4.316,1.178,6.465
		c-0.235,1.921-0.969,3.856-1.874,5.812c-0.687,1.194-1.244,2.46-1.905,3.671c-0.246,0.539-0.48,1.087-0.716,1.633
		c-1.039,2.138-1.965,4.311-2.401,6.534c-0.167,0.566-0.34,1.131-0.486,1.704c0.052,0.194-0.011,0.399-0.108,0.609l-0.181-0.801
		c-0.342-1.771-1.273-3.407-2.063-5.064c-2.151-3.142-5.297-5.22-8.51-7.056l-1.592-0.885c-0.295-0.235-0.575-0.472-0.843-0.707
		l-0.197-0.973l-0.938-4.759c-1.31-4.419-0.245-8.744,0.79-13.084c0.492-2.141,1.128-4.292,1.74-6.468l0.001-0.005
		c0.417-0.519,0.858-0.965,1.319-1.326c0.737,0.351,1.428,0.814,2.115,1.291c3.01,2.331,5.704,5.518,7.248,9.06
		c0.094,0.367,0.171,0.731,0.248,1.172l0.159,0.875l0.022,0.109l0.01,0.054l0.001,0.007c-0.668,0.139-0.4,0.085,0.109-0.02v0.001
		l0.001,0.002c0.326-0.068,0.575-0.119,0.792-0.164c0.077-0.016,0.162-0.034,0.228-0.047c0.171-0.029,0.288-0.054,0.36-0.076
		c0.911-0.189-0.348,0.072,0.204-0.043l-0.001-0.002c0.117-0.025,0.173-0.036,0.109-0.024l-0.004-0.016l-0.006-0.03l-0.06-0.241
		l-0.127-0.456c-0.105-0.362-0.231-0.722-0.372-1.079l-0.008-0.026c-0.019-0.055-0.046-0.103-0.066-0.157
		c-0.028-0.07-0.048-0.146-0.077-0.215l-0.004-0.014c-0.034-0.082-0.065-0.165-0.099-0.248c-0.02-0.07-0.035-0.138-0.058-0.209
		c-0.128-0.297-0.228-0.677-0.336-1.065c-0.07-0.201-0.15-0.402-0.225-0.604c-0.004-0.011-0.007-0.022-0.011-0.034
		c-0.182-0.492-0.378-0.981-0.586-1.469c-0.022-0.052-0.04-0.102-0.061-0.153c-0.014-0.031-0.031-0.061-0.046-0.094
		c-0.892-2.034-2.031-3.99-3.522-5.684c-0.076-0.088-0.141-0.183-0.218-0.271c-0.189-0.195-0.386-0.386-0.584-0.574
		c-0.426-0.42-0.866-0.825-1.342-1.201c-0.38-0.429-1.105-0.821-1.858-1.168c-0.637-0.351-1.301-0.649-1.997-0.885
		c-0.139-0.07-0.251-0.133-0.339-0.194c-0.046-0.177-0.204-0.604-0.433-1.151c-0.254-0.661-0.539-1.29-0.862-1.883
		c-0.457-0.92-0.966-1.822-1.412-2.367c-0.017-0.028-0.038-0.055-0.055-0.083c-0.06-0.094-0.118-0.187-0.177-0.281
		c-1.693-2.61-4.379-5.289-6.976-7.963c-0.713-0.738-1.295-1.252-1.722-1.611c-0.197-0.156-0.367-0.269-0.518-0.356
		c-0.077-0.115-0.164-0.24-0.228-0.344C127.644,65.444,128.838,62.577,129.18,61.882z M143.439,165.751
		c0.035-0.346,0.248-0.709,0.526-1.009l-0.189,0.059c0.056-0.034,0.111-0.068,0.174-0.094c0.427-0.177,0.886-0.157,1.28,0.016
		c-0.143-0.038-0.293-0.055-0.45-0.037c-0.109-0.024-0.216-0.014-0.324,0.004c0.784-0.012,1.476,0.607,1.488,1.364
		c-0.067,1.879-2.659,1.537-2.429,0.072C143.562,166.013,143.46,165.877,143.439,165.751z M141.217,178.344
		c-0.219,0.189-0.265,0.098-0.263,0.037c-0.035-0.005-0.105-0.023-0.141-0.052c-0.052-0.052-0.094-0.198-0.066-0.418l-0.061-0.004
		c0.017-0.01,0.028-0.023,0.046-0.031c0.141-0.059,0.293-0.052,0.423,0.004c-0.049,0.002-0.1,0.017-0.153,0.058
		c-0.032,0.018-0.064,0.016-0.094,0.014C141.137,177.995,141.294,178.162,141.217,178.344z M140.452,152.572
		c0.212,0.007,0.426-0.013,0.638-0.096c0.152-0.005,0.287-0.059,0.42-0.123c-1.007,0.331-2.156-0.176-2.504-1.164
		c-0.82-2.51,2.98-3.35,3.326-1.095c-0.007,0.179,0.134,0.334,0.194,0.498c0.046,0.489-0.141,1.032-0.41,1.487l0.247-0.195
		c-0.071,0.077-0.141,0.156-0.224,0.224C141.65,152.509,141.037,152.655,140.452,152.572z M139.59,115.17
		c0.07,0.077,0.147,0.151,0.222,0.227l-0.211-0.105c-0.017-0.061-0.028-0.105-0.004-0.09L139.59,115.17z M140.659,122.595
		c0.077-0.277,0.167-0.227,0.201-0.174c0.034-0.016,0.099-0.037,0.146-0.034c0.07,0.013,0.187,0.113,0.285,0.312l0.052-0.03
		c-0.01,0.017-0.011,0.035-0.022,0.052c-0.086,0.127-0.216,0.205-0.356,0.23c0.041-0.028,0.074-0.068,0.096-0.132l0.205-0.135
		C141.023,122.873,140.707,122.832,140.659,122.595z M141.945,128.483c-0.358-0.995,0.78-1.25,1.003-0.731
		c0.019,0.046,0.179,0.043,0.263,0.085c0.043,0.15,0.127,0.406,0.201,0.722l0.086-0.113c-0.022,0.044-0.028,0.092-0.055,0.134
		c-0.176,0.26-0.446,0.414-0.732,0.46c0.092-0.031,0.174-0.091,0.239-0.207l0.438-0.289C142.91,128.969,142.211,129,141.945,128.483
		z M142.062,171.897c0.043-0.025,0.076-0.062,0.122-0.082c0.29-0.12,0.599-0.099,0.866,0.02c-0.095-0.024-0.195-0.02-0.315,0.042
		c-0.034,0.01-0.067,0.004-0.101,0.007c0.451,0.079,0.798,0.392,0.75,0.838c-0.248,1.026-1.343,0.617-1.24,0.058
		c0.01-0.048-0.126-0.134-0.173-0.217c0.047-0.149,0.117-0.41,0.229-0.715L142.062,171.897z M143.316,134.803
		c-0.163-0.309-0.183-0.728-0.117-1.132l-0.125,0.152c0.03-0.058,0.058-0.117,0.094-0.173c0.259-0.384,0.655-0.62,1.077-0.694
		c-0.14,0.047-0.273,0.115-0.394,0.217c-0.058,0.022-0.097,0.07-0.146,0.104c0.637-0.346,1.471-0.191,1.87,0.396
		c0.979,1.606-1.37,2.747-1.988,1.4C143.563,134.955,143.403,134.896,143.316,134.803z M148.281,140.972
		c1.506,2.171-1.891,4.063-2.872,2.002c-0.044-0.173-0.225-0.283-0.328-0.42c-0.183-0.456-0.162-1.029-0.034-1.542l-0.181,0.257
		c0.046-0.094,0.09-0.189,0.15-0.278c0.357-0.527,0.906-0.844,1.49-0.93c-0.207,0.053-0.409,0.134-0.591,0.276
		c-0.143,0.048-0.257,0.138-0.364,0.237C146.419,139.969,147.666,140.123,148.281,140.972z M145.266,158.425
		c0.058-0.169-0.034-0.36-0.046-0.532c0.097-0.481,0.43-0.948,0.819-1.307l-0.293,0.116c0.09-0.054,0.179-0.109,0.278-0.15
		c0.59-0.245,1.222-0.205,1.758,0.046c-0.203-0.07-0.416-0.114-0.646-0.096c-0.145-0.037-0.29-0.026-0.434-0.002
		c1.059-0.026,2.013,0.788,2.061,1.833C148.826,160.97,144.952,160.69,145.266,158.425z M131.653,75.59l0.406,0.524l0.107,0.14
		l0.284,0.378c0.129,0.173,0.259,0.346,0.386,0.52c0.26,0.358,0.514,0.721,0.764,1.085c0.068,0.1,0.137,0.199,0.203,0.299
		c0.245,0.364,0.482,0.733,0.712,1.102c0.082,0.133,0.161,0.269,0.242,0.403c0.205,0.339,0.405,0.68,0.593,1.023
		c0.135,0.247,0.26,0.499,0.388,0.75c0.129,0.258,0.27,0.514,0.39,0.773c0.312,0.755,1.199,1.395,1.858,2.166
		c0.198,0.21,0.415,0.349,0.625,0.435c0.094,0.037,0.175,0.04,0.263,0.056c0.014,0.042,0.037,0.09,0.05,0.131
		c0.126,0.388,0.197,0.732,0.216,0.989c-0.044,0.156-0.085,0.318-0.128,0.475c0.022-0.521-0.058-0.993-0.37-1.371
		c0.221,0.391,0.24,0.845,0.176,1.322c-0.048,0.241-0.094,0.478-0.149,0.735c-0.153,0.602-0.35,1.207-0.404,1.75
		c-0.201,0.834-0.415,1.689-0.622,2.521c-0.363-0.044-1.554-2.257-2.462-3.537c-0.934-1.499-1.859-2.959-2.729-4.33l-0.723-1.342
		c-0.938-1.765-1.88-3.516-2.724-5.291c-0.772-1.738-1.376-3.529-1.602-5.451c-0.061-0.451-0.053-0.922-0.052-1.401
		C128.8,72.135,130.274,73.835,131.653,75.59z M137.645,92.172c-0.004,0.017-0.01,0.034-0.013,0.052
		c-0.013-0.011-0.023-0.023-0.036-0.034C137.61,92.184,137.628,92.178,137.645,92.172z M122.916,75.002
		c-0.289-0.488-0.607-0.92-0.961-1.25c0.598,1.051,1.05,2.098,1.395,3.135c0.508,1.805,0.727,3.812,0.946,5.657
		c0.114,1.484,0.222,3.17,0.338,4.961l-0.022,1.271c-0.026,1.606-0.042,3.197-0.017,4.801l-0.001,0.187l0.004,0.098
		c0.004,0.174,0,0.346,0.004,0.521c0.004,0.01,0.011,0.013,0.016,0.022l0.014,0.418c-0.348-0.185-0.732-0.356-0.804-0.646
		c-0.483-0.537-1.109-0.993-1.732-1.447c-1.125-0.647-0.917-1.131-1.252-2.257c-0.575-1.71-0.766-3.591-0.736-5.52
		c0.004-0.013,0.007-0.028,0.013-0.04l0.011-0.674l0.01-0.147l0.041-0.591c-0.01-0.016-0.005-0.031-0.01-0.046
		c0.004-0.052,0.007-0.101,0.011-0.152c0.006-0.018,0.007-0.034,0.016-0.052c0.062-0.89,0.164-1.78,0.294-2.667
		c0.018-0.122,0.038-0.242,0.058-0.364c0.049-0.316,0.1-0.632,0.155-0.947c0.064-0.352,0.129-0.703,0.197-1.05
		c0.028-0.141,0.052-0.284,0.082-0.426c0.141-0.709-0.147-1.6-0.472-2.504c-0.088-0.247-0.222-0.434-0.375-0.567
		c-0.064-0.054-0.132-0.076-0.199-0.114c0.036-1.063,0.043-1.996-0.014-2.723c-0.058-0.674-0.186-1.286-0.364-1.85
		C120.343,70.758,121.855,72.39,122.916,75.002z M110.033,83.726c0.37-2.168,0.815-4.312,1.312-6.429
		c0.518-2.217,1.095-4.412,1.74-6.581l0.01-0.028l1.003-3.219c0-0.002,0-0.004-0.001-0.004l0.125-0.376
		c0.113,0.076,0.287,0.171,0.439,0.267c0.476,0.364,1.053,0.924,1.22,1.139c1.03,1.238,1.445,2.684,1.567,4.23
		c0.077,1.278-0.026,2.626-0.128,3.949c-0.156,1.603-0.352,3.223-0.306,4.768c0.001,0.046,0.004,0.083,0.005,0.126
		c-0.163,2.989-0.239,6.016,0.191,9.116l0.415,1.578c0.034-0.016,0.061,0.173,0.09,0.337l-0.307,0.445
		c-0.637,0.879-1.247,1.778-1.59,2.822c-0.909,1.993-1.115,4.218-1.119,6.382c0.016,1.797,0.258,3.658,0.738,5.481
		c0.235,0.898,0.518,1.829,0.869,2.726c0.03,0.077,0.059,0.141,0.089,0.212c0.038,0.152,0.062,0.305,0.103,0.456l0.282,0.816
		l0.155,0.415l0.088,0.213l0.005,0.013l0.002,0.006c0.006-0.004,0.01-0.004,0.016-0.007v0.002h0.001
		c-0.144,0.067-0.299,0.137-0.004,0.005c-0.104,0.048,0.349-0.157,0.863-0.388l0.006,0.013c0,0-0.004-0.012-0.005-0.013
		c0.107-0.049,0.213-0.098,0.322-0.146c0.004,0.004,0.01,0.01,0.014,0.013c-0.001-0.006-0.004-0.012-0.005-0.018
		c0.709-0.32,1.318-0.597,0.539-0.246l-0.01-0.022l-0.022-0.046l-0.046-0.094l-0.593-1.25c-0.049-0.107-0.094-0.216-0.139-0.324
		c-1.075-4.341-0.273-9.274,1.125-13.349c0.183-0.513,0.477-0.961,0.727-1.439l0.251,0.183l3.133,2.29
		c2.063,1.541,4.173,3.057,6.03,4.833c3.23,2.695,5.006,6.549,6.786,10.452c0.001,0.004,0.002,0.006,0.004,0.01l0.271,0.593
		c0.053,0.116,0.108,0.233,0.161,0.35l0.814,1.776c-0.283,0.87-0.703,1.862-1.162,2.94l-0.054,0.108
		c-0.032,0.105-0.083,0.213-0.127,0.319c-0.046,0.105-0.091,0.21-0.135,0.316c-0.079,0.163-0.162,0.328-0.251,0.507
		c-1.24,2.178-1.903,4.499-2.098,6.853c-0.188,1.277-0.227,2.569-0.019,3.846c0.153,0.908,0.367,1.787,0.608,2.655
		c0.095,0.37,0.209,0.736,0.322,1.102c0.031,0.094,0.055,0.191,0.086,0.285c1.037,3.185,2.774,6.189,4.957,8.731
		c0.079,0.094,0.163,0.187,0.243,0.281c0.022,0.026,0.046,0.053,0.068,0.078c-0.629-0.254-1.148-0.471-1.564-0.623
		c-0.281-0.111-0.496-0.161-0.681-0.183c-0.09-0.064-0.177-0.117-0.267-0.183c-0.052-0.014-0.097-0.032-0.146-0.048
		c-2.241-1.496-4.26-3.007-6.105-4.507c2.182,1.677,4.322,3.123,6.27,4.26c-2.048-1.294-3.979-2.664-5.804-4.093
		c0.836,0.625,1.678,1.238,2.532,1.831c-4.192-2.976-8.432-6.722-12.147-11.097c-1.636-1.951-3.113-3.965-4.436-6.027
		c-3.794-6.524-6.531-13.78-7.833-20.611C108.617,96.501,109.099,89.746,110.033,83.726z M131.595,149.304
		c0.046-0.048,0.088-0.098,0.14-0.14c0.358-0.294,0.804-0.408,1.232-0.357c-0.149,0.005-0.299,0.031-0.444,0.094
		c-0.11,0.01-0.209,0.049-0.306,0.096c0.747-0.236,1.587,0.155,1.816,0.874c0.475,1.816-2.099,2.245-2.305,0.774
		c0.012-0.117-0.125-0.221-0.18-0.334c-0.068-0.342,0.031-0.75,0.209-1.119L131.595,149.304z M92.933,89.501l0.205-0.036
		c0.826-0.133,1.659-0.209,2.496-0.222c3.064,0.083,6.105,0.661,8.933,1.749l0.041,0.637l0.361,2.534
		c0.077,0.469,0.204,0.82,0.351,1.069c0.062,0.105,0.128,0.187,0.195,0.257c0,0.065-0.004,0.131-0.004,0.195
		c0,0.91,0.029,1.821,0.073,2.729c-0.146-0.97-0.272-1.898-0.37-2.729c0.062,2.675,0.348,5.146,0.779,7.468
		c0.563,3.25,1.457,6.576,2.584,9.579c1.105,3.131,2.444,6.31,3.883,9.418l0.104,0.259c0.08,0.129,0.129,0.326,0.195,0.487
		l-0.115-0.07l-0.34-0.333c-0.127-0.122-0.245-0.249-0.372-0.372c-1.324-1.392-2.703-2.741-4.085-4.096
		c-1.021-1.051-2.037-2.105-3.07-3.164c-0.046-0.034-0.088-0.046-0.131-0.07c-1.871-1.965-3.64-4.027-5.11-6.349
		c-0.542-1.237-1.363-2.42-1.958-3.754c-1.023-1.747-1.295-3.845-2.168-5.665c-0.783-1.84-1.537-3.73-2.236-5.667l-1.06-2.918
		c-0.139-0.061-0.165-0.462-0.229-0.75L92.933,89.501z M73.583,113.924c0.004-0.022,0.016-0.038,0.02-0.059
		c0.056-0.195,0.164-0.339,0.355-0.403c0.037-0.011,0.088-0.007,0.131-0.012c0.105,0.004,0.212,0.008,0.316,0.012
		c0.135,0.022,0.277,0.05,0.458,0.114c3.611,0.285,7.181,0.418,10.771,0.743c0.012-0.001,0.019-0.006,0.031-0.007
		c2.757,0.245,5.522,0.595,8.309,1.214c1.315,0.324,2.643,0.864,4.049,1.226c1.798,0.71,3.452,2.09,5.345,2.947
		c1.841,0.837,3.67,1.76,5.496,2.729l1.201,0.685l-0.845-0.105c-0.044,0.008-0.09,0.002-0.134,0.001
		c-0.067-0.01-0.134-0.016-0.201-0.024c-0.052-0.012-0.1-0.02-0.153-0.038c-3.128-0.468-6.289-0.71-9.443-0.979
		c-0.358-0.031-0.721-0.071-1.079-0.101c-0.023-0.001-0.05,0.004-0.074,0.002c-0.041-0.004-0.082-0.007-0.122-0.011
		c-1.406-0.078-3.134,0.321-4.806,0.896c-0.459,0.146-0.794,0.322-1.02,0.506c-0.095,0.076-0.167,0.153-0.227,0.231
		c-0.064,0.01-0.132,0.016-0.195,0.025h-0.004c-0.831,0.131-1.664,0.296-2.496,0.476c0.867-0.273,1.702-0.531,2.449-0.771
		c-2.538,0.489-4.873,1.149-7.06,1.895c-1.107,0.356-2.218,0.732-3.329,1.138l-2.108,0.826c-0.364-0.297-0.706-0.627-1.03-0.983
		c-0.134-0.227-0.269-0.445-0.402-0.599c-0.845-1.159-1.461-2.412-2.105-3.594c-0.917-1.925-1.618-3.935-1.964-5.931
		c-0.006-0.06-0.008-0.121-0.016-0.18c0.014-0.061,0.016-0.123,0.012-0.186c0-0.086-0.02-0.176-0.05-0.267
		c-0.052-0.474-0.119-0.934-0.088-1.29C73.575,114.009,73.574,113.962,73.583,113.924z M61.813,141.475l4.028-2.679
		c3.74-2.503,7.957-4.278,11.939-6.288c1.16-0.611,2.349-1.171,3.558-1.687c1.013-0.406,2.042-0.807,3.098-1.199
		c4.833-1.682,9.964-2.598,15.193-2.604c0.53,0.023,1.147,0.07,1.658,0.135l2.878,0.094l0.291,0.028
		c1.19,0.134,2.483,0.243,3.79,0.362c0.043,0.008,0.082,0.011,0.126,0.02c1.867,0.145,3.718,0.474,5.571,0.749
		c1.053,0.233,1.989,0.526,2.727,0.916l0.258,0.312c1.027,1.332,2.14,2.584,3.311,3.774c0.153,0.158,0.314,0.309,0.469,0.466
		c0.303,0.301,0.608,0.601,0.917,0.894c1.3,1.25,2.645,2.444,4.031,3.592c0.313,0.266,0.626,0.531,0.939,0.795
		c0.047,0.035,0.099,0.07,0.149,0.104c0.064,0.052,0.126,0.105,0.189,0.157c0.677,0.477,1.423,0.955,2.208,1.434
		c-0.235,0.018-0.47,0.047-0.706,0.098c-1.053,0.209-1.822,0.436-2.347,0.652c-0.199,0.08-0.358,0.159-0.489,0.239
		c-0.156,0.03-0.317,0.042-0.47,0.077c-1.556,0.356-3.184,1.193-4.72,2.204c1.478-1.147,2.98-2.088,4.653-2.494
		c-2.691,0.679-4.889,2.245-6.865,3.893c-0.625,0.505-1.241,1.035-1.847,1.586c-0.991,0.861-1.946,1.669-2.901,2.307
		c-0.64,0.15-1.338,0.198-2.076,0.169c-0.8-0.092-1.596-0.175-2.387-0.257c-1.626-0.263-3.3-0.628-4.825-0.743
		c-3.167-0.78-6.501-2.317-9.449-4.123c-0.973-0.629-1.936-1.286-2.886-1.948c-1.786-1.324-3.303-2.694-4.359-3.96
		c0.07-0.082,0.129-0.167,0.201-0.248c0.037-0.043,0.077-0.082,0.115-0.123c2.486-2.688,6.489-4.484,9.817-5.436
		c0.068-0.008,0.137-0.017,0.205-0.022c0.084-0.006,0.17-0.01,0.254-0.016c0.643-0.043,1.294-0.062,1.952-0.064
		c0.084,0.001,0.165-0.004,0.251-0.004c0.821,0.013,1.612,0.089,2.609,0.245l0.352,0.048l0.177,0.024l0.09,0.012l0.046,0.006
		l0.022,0.004l0.004,0.001c0.001-0.004,0.001-0.006,0.001-0.01h0.001c-0.01,0.09-0.019,0.179-0.02,0.189
		c-0.077,0.701,0.031-0.275,0.127-1.148c0.001-0.011,0.004-0.026,0.004-0.037c0.001,0,0.014,0.001,0.014,0.001l-0.014-0.002
		c0.03-0.276,0.065-0.596,0.11-1.005c0.001-0.016,0-0.016-0.001,0l-0.005-0.001l-0.013-0.001l-0.788-0.043
		c-0.51-0.035-1.021-0.006-1.608,0.036c-0.324,0.05-0.614,0.11-0.885,0.177c-0.693,0.129-1.401,0.301-2.104,0.502
		c-0.676,0.038-1.354,0.107-2.025,0.198c-0.186,0.025-0.372,0.046-0.557,0.076c-0.288,0.046-0.574,0.103-0.861,0.159
		c-0.158,0.031-0.316,0.061-0.474,0.096c-0.334,0.074-0.663,0.159-0.993,0.251c-0.088,0.024-0.174,0.047-0.26,0.073
		c-1.622,0.468-3.188,1.131-4.632,2.064c-0.619,0.287-1.193,0.866-1.729,1.475c-0.441,0.433-0.86,0.888-1.226,1.386
		c-0.421,0.423-0.818,0.706-1.192,0.661c-0.572-0.007-1.132,0.038-1.684,0.11c-0.643,0.022-1.265,0.084-1.714,0.317
		c-0.868,0.199-1.725,0.438-2.58,0.667c-0.041,0.014-0.073,0.03-0.111,0.044c-2.516,0.741-4.975,1.665-7.446,2.579
		c-3.317,1.148-6.78,3.07-9.793,1.218c-0.181,0.06-0.471-0.264-0.728-0.536L61.813,141.475z M125.095,149.711
		c0.034-0.036,0.053-0.082,0.094-0.113c0.243-0.199,0.545-0.27,0.834-0.231c-0.098,0.004-0.193,0.037-0.289,0.131
		c-0.04,0.025-0.084,0.034-0.125,0.048c0.466-0.068,0.906,0.123,0.99,0.573c0.058,1.057-1.101,0.979-1.171,0.412
		c-0.005-0.048-0.159-0.091-0.228-0.156c-0.001-0.155-0.006-0.424,0.013-0.748L125.095,149.711z M120.333,150.34
		c-0.151,0.245-0.222,0.17-0.24,0.11c-0.03,0.006-0.109,0.01-0.152-0.007c-0.065-0.032-0.147-0.161-0.183-0.379l-0.059,0.013
		c0.013-0.013,0.02-0.03,0.035-0.043c0.117-0.099,0.265-0.137,0.406-0.121c-0.046,0.016-0.089,0.046-0.128,0.1
		c-0.026,0.028-0.055,0.034-0.085,0.041C120.155,150.027,120.352,150.144,120.333,150.34z M114.303,149.056
		c-0.058,0.058-0.114,0.111-0.171,0.169c-0.047,0.019-0.101,0.023-0.149,0.04C114.09,149.195,114.199,149.128,114.303,149.056z
		 M113.68,149.879c-0.023,0.025-0.054,0.056-0.076,0.079c-0.028-0.004-0.055-0.006-0.083-0.01
		C113.574,149.925,113.629,149.904,113.68,149.879z M80.745,159.466c-2.35-0.562-4.789-1.489-7.032-2.215
		c-1.922-0.73-3.722-1.449-5.245-2.002c-0.438-0.2-0.874-0.394-1.325-0.553c-0.078-0.079-0.206-0.137-0.364-0.182
		c-0.091-0.029-0.192-0.053-0.305-0.071c-0.1-0.034-0.199-0.064-0.3-0.094c-0.281-0.099-0.563-0.189-0.827-0.249
		c0.126-0.048,0.253-0.1,0.381-0.159c0.386-0.117,0.774-0.223,1.165-0.324c1.822-0.442,3.713-0.478,5.644-0.273
		c0.795,0.1,1.67,0.288,2.561,0.416c1.256,0.107,2.38,0.884,3.637,1.029c2.223,0.328,4.475,0.832,6.72,1.424
		c0.011,0.007,0.024,0.013,0.034,0.02l0.786,0.207l0.171,0.047l0.647,0.182l0.747,0.219l0.67,0.203l-0.521,0.254l-0.555,0.269
		c-0.661,0.299-1.571,1.249-1.927,1.865c-0.035,0.043-0.071,0.086-0.105,0.129c-0.198,0.111-0.36,0.257-0.484,0.414
		c-0.06,0.076-0.088,0.153-0.127,0.231c-0.048,0.001-0.088,0.006-0.137,0.006c-0.495,0.004-1.079-0.06-1.714-0.165
		c0.614,0.013,1.196-0.019,1.711-0.134C83.277,159.885,81.981,159.706,80.745,159.466z M86.431,144.972
		c0.501-0.212,0.976-0.427,1.389-0.644c-1.109,0.326-2.156,0.644-3.169,0.954c-2.151,0.587-4.467,1.16-6.554,1.789
		c-1.933,0.477-3.579,0.854-4.744,1.035c-0.019,0.004-0.036,0.004-0.055,0.006c-0.492,0.011-0.984-0.036-1.464-0.03
		c-0.926,0.012-1.844-0.082-2.741-0.258c-0.306-0.064-0.609-0.139-0.909-0.221c-0.091-0.024-0.183-0.046-0.275-0.073
		c-0.275-0.08-0.545-0.171-0.814-0.263c-0.303-0.108-0.608-0.212-0.902-0.339c0.249-0.088,0.475-0.153,0.631-0.114
		c0.791-0.111,1.569-0.426,2.315-0.761c1.019-0.536,2.245-0.507,3.243-1.061c1.729-0.881,3.685-1.731,5.668-2.357l0.687-0.195
		l0.151-0.041l0.605-0.161c0.008-0.008,0.02-0.01,0.029-0.016c0.068-0.017,0.135-0.035,0.204-0.052
		c0.01,0.001,0.016-0.002,0.023-0.001c0.337-0.085,0.686-0.153,1.035-0.223c0.37-0.068,0.741-0.135,1.107-0.179
		c0.031-0.004,0.064-0.01,0.095-0.013c1.003-0.11,1.976-0.107,2.896,0.022c0.076,0.016,0.165,0.014,0.237,0.034
		c-0.253-0.189,1.339,0.523,2.13,0.578c0.269,0.056,0.507,0.042,0.707-0.019c0.071-0.022,0.117-0.065,0.18-0.097
		c0.878,0.563,1.768,1.123,2.677,1.668C89.357,144.263,87.883,144.616,86.431,144.972z M67.579,163.739l-3.722-2.398
		c-0.363-0.245-0.733-0.48-1.093-0.728l-2.766-1.961c-0.002,0-0.004,0-0.005,0l-0.37-0.271c0.111-0.095,0.257-0.227,0.39-0.334
		c0.492-0.332,1.176-0.691,1.406-0.786c1.477-0.611,2.961-0.578,4.45-0.233c1.196,0.299,2.403,0.782,3.588,1.273
		c1.532,0.665,3.069,1.394,4.608,1.845c0.043,0.013,0.078,0.022,0.119,0.034c2.789,1.083,5.639,2.094,8.716,2.655
		c0.521,0.085,1.083,0.072,1.623,0.108c0.002-0.059,0.277,0.016,0.448,0.04l0.261,0.342c0.649,0.866,1.286,1.75,2.175,2.398
		c1.597,1.501,3.653,2.379,5.699,3.076c1.713,0.535,3.552,0.912,5.434,1.012c0.928,0.062,1.895,0.082,2.86,0.034
		c0.094-0.004,0.207-0.014,0.328-0.026c0.191,0.013,0.376,0.042,0.569,0.049l0.858-0.022l0.452-0.025l0.116-0.01l0.029-0.002
		c0-0.007,0-0.01-0.001-0.016l0.002-0.001c0.018,0.159,0.04,0.327,0.002-0.001c0.026,0.225,0.052,0.446-0.098-0.872
		c-0.002-0.026-0.004-0.041-0.006-0.064c-0.047-0.555-0.076-0.772-0.094-0.813c-0.005-0.049-0.01-0.088-0.016-0.14l-0.006,0.001
		l-0.013,0.001l-0.052,0.006l-0.205,0.028c-0.492,0.066-1.2,0.147-1.506,0.201c-4.466-0.297-8.927-2.564-12.384-5.151
		c-0.486-0.331-0.813-0.798-1.225-1.2l0.165-0.118l3.148-2.266c2.102-1.485,4.194-3.021,6.455-4.242
		c3.546-2.26,7.741-2.771,11.991-3.253c0.012-0.001,0.025-0.001,0.036-0.002l2.97-0.342c0.78,0.505,1.627,1.207,2.543,1.993
		l0.004,0.005c0.013,0.01,0.026,0.022,0.038,0.032c0.162,0.139,0.33,0.283,0.496,0.427c0.127,0.123,0.254,0.249,0.388,0.388
		c1.66,1.841,3.631,3.193,5.777,4.12c1.166,0.602,2.398,1.062,3.698,1.268c1.481,0.242,2.943,0.336,4.393,0.314
		c3.466-0.004,6.98-0.771,10.163-2.126c-0.417,0.498-0.768,0.914-1.036,1.244c-0.198,0.245-0.326,0.444-0.41,0.61
		c-0.101,0.076-0.193,0.152-0.299,0.227c-0.014,0.02-0.03,0.037-0.043,0.058c-2.12,1.669-4.186,3.122-6.187,4.412
		c2.275-1.557,4.316-3.143,6.001-4.646c-1.874,1.554-3.784,2.971-5.719,4.268c0.864-0.608,1.718-1.226,2.556-1.859
		c-4.16,3.088-9.079,5.978-14.439,8.161c-2.31,0.923-4.63,1.683-6.949,2.29c-7.377,1.594-15.127,1.94-22.025,1.071
		c-5.506-0.91-11.252-3.137-16.37-5.63c-2.405-1.214-4.751-2.512-7.023-3.889C68.179,164.12,67.882,163.926,67.579,163.739z
		 M137.513,184.913c-0.022,0.061-0.041,0.102-0.049,0.077l-0.013,0.029c-0.013-0.103-0.031-0.209-0.048-0.314L137.513,184.913z
		 M79.033,186.562c-0.012-0.002-0.026-0.004-0.037-0.006l-1.282,0.004h-0.281l-1.123-0.002c-0.028,0.01-0.059,0.008-0.088,0.013
		h-0.305c-0.028-0.005-0.054-0.004-0.084-0.011c-0.007,0.004-0.018,0.006-0.026,0.01l-0.825-0.001
		c-0.288-0.041-0.581-0.086-0.794-0.068l0.306-1.723c0.07-0.38,0.171-0.754,0.289-1.125c0.043-0.129,0.091-0.257,0.137-0.384
		c0.053-0.147,0.109-0.294,0.165-0.442c0.122-0.308,0.251-0.614,0.382-0.917c0.259-0.577,0.53-1.148,0.788-1.706
		c0.721-1.077,0.945-2.729,1.604-4.244c0.158-0.426,0.222-0.786,0.219-1.075c-0.002-0.139-0.022-0.257-0.052-0.361
		c0.209-0.313,0.416-0.631,0.629-0.93c1.065,0.441,2.148,0.861,3.242,1.255c-0.876-0.225-1.716-0.444-2.462-0.633
		c1.928,0.738,3.79,1.336,5.6,1.82c0.017,0.004,0.034,0.01,0.05,0.014c0.287,0.076,0.572,0.153,0.855,0.224
		c3.622,0.963,7.534,1.645,11.134,1.647c0.691,0.023,1.391,0.036,2.1,0.036c2.226-0.004,4.539-0.117,6.877-0.301
		c0.687-0.031,1.371-0.073,2.052-0.109l1.875-0.108c0.349-0.004,0.691-0.01,0.989-0.029l-4.206,2.177
		c-0.006,0.005-0.01,0.011-0.016,0.017c-2.41,1.222-4.861,2.473-7.372,3.716c-1.166,0.551-2.474,1.019-3.809,1.467
		c-1.835,0.687-3.869,0.617-5.789,0.961C86.341,186.404,82.7,186.544,79.033,186.562z M106.242,193.777
		c-0.735,3.513-0.982,7.176-1.061,10.842c-0.016,0.083-0.032,0.165-0.053,0.243l0.012,1.306l0.008,0.284l0.023,1.141
		c0.004,0.013,0.002,0.03,0.006,0.046l0.006,0.394c-0.002,0.016-0.001,0.028-0.004,0.043c0.004,0.006,0.004,0.016,0.006,0.022
		l0.016,0.826c-0.031,0.367-0.068,0.744-0.019,0.964c-0.005,0.052-0.01,0.098-0.011,0.141l-2.034,0.442
		c-0.269,0.064-0.538,0.102-0.809,0.147c-0.736,0.111-1.473,0.186-2.209,0.245c-0.667,0.043-1.33,0.076-1.983,0.126
		c-0.046-0.002-0.092-0.004-0.139-0.006c-1.249-0.132-2.793,0.462-4.354,0.452c-0.446,0.011-0.798,0.085-1.069,0.195
		c-0.158,0.064-0.276,0.143-0.373,0.227c-0.452-0.099-0.905-0.201-1.337-0.343c0.45-1.19,0.885-2.426,1.324-3.684
		c-0.234,0.928-0.447,1.816-0.617,2.609c0.585-1.817,1.131-3.553,1.67-5.24c1.407-4.203,3.134-8.717,5.135-12.497
		c1.098-1.9,2.339-3.643,3.793-5.129l0.189-0.176l2.761-2.477c2.208-1.94,4.419-3.823,6.669-5.684l-0.129,0.272
		c-0.694,1.437-1.377,2.899-1.963,4.441c-0.578,1.232-1.141,2.588-1.547,4.001C107.736,189.948,106.459,191.704,106.242,193.777z
		 M114.594,234.426c0,0-0.01-0.028-0.025-0.073c0.053-0.028,0.105-0.06,0.158-0.085l0.028,0.077
		C114.653,234.398,114.594,234.426,114.594,234.426z M125.289,209.668c-0.05-0.538-0.111-1.053-0.193-1.508
		c-0.024,1.144-0.038,2.227-0.049,3.275c-0.092,2.202-0.248,4.55-0.285,6.703c-0.127,1.85-0.261,3.418-0.433,4.523
		c-0.005,0.03-0.013,0.055-0.018,0.085c-0.157,0.544-0.361,1.071-0.529,1.596c-0.128,0.454-0.294,0.89-0.486,1.314
		c-0.054,0.119-0.121,0.233-0.179,0.35c-0.146,0.297-0.295,0.589-0.464,0.87c-0.076,0.126-0.157,0.245-0.235,0.369
		c-0.18,0.282-0.364,0.559-0.56,0.828c-0.059,0.082-0.117,0.158-0.177,0.237c-0.241,0.322-0.489,0.638-0.742,0.941
		c0.02-0.153,0.032-0.299,0.019-0.414c0.123-0.77,0.101-1.617,0.004-2.419c-0.198-1.12,0.215-2.274-0.013-3.38
		c-0.281-1.612-0.445-3.339-0.465-5.065c0.01-0.066,0.018-0.137,0.028-0.195l-0.019-0.129c-0.002-0.002-0.002-0.011-0.002-0.016
		c0-0.132,0.004-0.265,0.005-0.397c0.016-0.085,0.036-0.171,0.067-0.245v-0.71l0.002-0.156l0.029-0.619
		c-0.014-0.026-0.013-0.055-0.016-0.083c0.004-0.03,0.005-0.062,0.008-0.094c0.007-0.028,0.012-0.055,0.024-0.085
		c0.018-0.331,0.053-0.664,0.085-0.994c0.179-1.419,0.48-2.778,0.924-4.019c0.046-0.111,0.082-0.235,0.129-0.34l0.169-0.414
		c0.022-0.194,0.082-0.397,0.12-0.531l0.548-0.894c0.135-0.237,0.192-0.468,0.195-0.676c0.001-0.077-0.026-0.137-0.038-0.207
		c0.941-0.768,1.882-1.553,2.813-2.37c0,0.019,0,0.038-0.004,0.055c0.04-0.032,0.077-0.064,0.115-0.098
		C125.519,206.385,125.398,208.042,125.289,209.668z M121.473,204.871l-0.002,0.002c-0.643,0.177-1.261,0.282-1.847,0.303
		c-0.393-0.715-0.683-1.495-0.961-2.284c-1.078-3.646-1.403-7.806-0.589-11.577c0.141-0.362,0.293-0.705,0.487-1.103l0.382-0.803
		l0.048-0.1l0.023-0.05l0.002-0.006c-0.046-0.02-0.076-0.035-0.1-0.046l0.001-0.001c0.143,0.064,0.498,0.221,0.001-0.004v-0.001
		c0.047,0.022,0.077,0.035,0.111,0.05c-0.207-0.094-0.538-0.243-0.848-0.384l0.004-0.008l-0.004,0.008
		c-0.457-0.207-0.863-0.39-0.737-0.333l-0.001,0.004c-0.036-0.016-0.064-0.029-0.101-0.046l-0.005,0.014l-0.013,0.029l-0.095,0.23
		l-0.164,0.445c-0.224,0.608-0.391,1.222-0.524,1.84c-0.017,0.05-0.043,0.096-0.06,0.147c-0.068,0.317-0.21,0.683-0.35,1.059
		c-0.062,0.207-0.114,0.42-0.173,0.629c0,0.004-0.002,0.007-0.002,0.011c-0.144,0.515-0.275,1.039-0.393,1.567
		c-0.011,0.047-0.023,0.094-0.034,0.141c-0.006,0.03-0.011,0.06-0.017,0.089c-0.465,2.176-0.686,4.433-0.465,6.684
		c0.01,0.116,0.007,0.231,0.018,0.348c0.04,0.269,0.086,0.537,0.139,0.804c0.1,0.59,0.221,1.178,0.387,1.761
		c0.058,0.572,0.418,1.314,0.828,2.037c0.309,0.655,0.675,1.284,1.101,1.879c0.073,0.139,0.126,0.257,0.163,0.358
		c-0.068,0.171-0.188,0.608-0.32,1.184c-0.182,0.693-0.321,1.377-0.405,2.057c-0.164,1.005-0.277,2.027-0.233,2.721
		c-0.002,0.03-0.001,0.062-0.002,0.094c-0.008,0.111-0.016,0.224-0.022,0.337c-0.152,3.107,0.463,6.851,1.008,10.539
		c0.147,1.015,0.319,1.773,0.454,2.313c0.07,0.243,0.141,0.432,0.213,0.593c-0.005,0.137-0.007,0.29-0.016,0.412
		c-0.272,3.535-2.92,5.165-3.603,5.528c-0.01-0.028-0.014-0.055-0.014-0.083c1.875-0.928,2.948-2.835,3.233-4.57
		c-0.266,1.248-1.103,2.613-1.923,3.426c-0.079,0.076-0.159,0.152-0.242,0.224c-0.466,0.399-0.909,0.597-1.213,0.45
		c-0.668-1.992-1.242-3.963-1.776-5.914c-0.827-3.137-1.548-6.388-2.111-9.68c-1.129-6.533-1.62-13.25-0.886-19.346
		c0.034-0.248,0.065-0.5,0.105-0.747c0.661-4.125,2.275-8.924,4.284-13.745c1.008-2.335,2.074-4.623,3.231-6.847
		c1.349-1.47,3.146-2.64,5.1-3.73c1.186-0.541,2.357-1.116,3.499-1.746c0.756-0.417,1.506-0.852,2.244-1.306
		c1.704-0.947,3.33-1.982,4.725-3.223c0.587-0.442,1.172-0.886,1.747-1.348c0.06-0.171,0.203-0.295,0.37-0.404l-0.288,0.682
		c-0.758,1.636-0.959,3.51-1.284,5.315c-0.094,3.808,1.244,7.33,2.78,10.697c0.233,0.569,0.506,1.132,0.786,1.698
		c0.097,0.348,0.182,0.687,0.257,1.019l-0.41,0.906l-2.019,4.411c-1.518,4.351-4.912,7.239-8.288,10.156
		C125.015,202.089,123.242,203.462,121.473,204.871z M127.335,233.348c-0.221-1.041-0.493-3.249,0.171-5.986
		c-0.052,0.565-0.046,1.101,0.05,1.577c0.128-1.202,0.373-2.317,0.699-3.36c0.643-1.762,1.634-3.516,2.534-5.141
		c0.777-1.272,1.677-2.705,2.63-4.23l0.758-1.018l0.984-1.36l1.948-2.677l0.147-0.221l0.207-0.288c0.002-0.01,0-0.016,0.001-0.023
		l0.234-0.35c0.175,0.352,0.386,0.717,0.275,0.994c0.079,0.719,0.32,1.455,0.561,2.187c0.538,1.182,0.079,1.451-0.307,2.564
		c-0.53,1.724-1.477,3.362-2.628,4.911c-0.011,0.006-0.022,0.017-0.034,0.023l-0.402,0.539l-0.094,0.115l-0.378,0.457
		c-0.002,0.017-0.016,0.028-0.022,0.043c-0.032,0.038-0.064,0.077-0.096,0.117c-0.016,0.011-0.026,0.023-0.046,0.032
		c-0.572,0.689-1.181,1.357-1.808,2.004l-0.133,0.134c-0.611,0.627-1.242,1.238-1.882,1.829c-0.529,0.493-0.815,1.385-1.083,2.308
		c-0.073,0.252-0.073,0.482-0.026,0.681c0.018,0.079,0.062,0.139,0.095,0.209c-0.65,0.838-1.2,1.591-1.579,2.212
		C127.771,232.215,127.52,232.783,127.335,233.348z M144.051,226.788c-1.898,1.927-3.856,3.776-5.871,5.523
		c-1.716,1.491-3.462,2.932-5.25,4.314l-0.079,0.062l-2.658,1.993c0,0,0,0.002-0.001,0.004l-0.15,0.109
		c-0.052-0.022-0.102-0.041-0.15-0.07c-0.041-0.102-0.095-0.221-0.149-0.339c-0.18-0.578-0.338-1.407-0.334-1.724
		c-0.082-1.621,0.456-3.046,1.286-4.382c0.738-1.135,1.678-2.217,2.575-3.282c1.009-1.144,2.044-2.285,2.863-3.499
		c0.026-0.036,0.046-0.068,0.068-0.105c1.882-2.334,3.71-4.749,5.162-7.531l0.571-1.538l0.074-0.203l0.637-0.227
		c1.041-0.322,2.037-0.745,2.93-1.387c1.883-1.116,3.359-2.793,4.598-4.57c1.051-1.463,1.898-3.137,2.587-4.893
		c0.327-0.868,0.643-1.79,0.869-2.739c0.006-0.028,0.01-0.048,0.016-0.076c0.038-0.097,0.088-0.188,0.125-0.287l0.264-0.83
		l0.121-0.418l0.055-0.223l0.028-0.111l0.014-0.058l0.002-0.006c-0.01-0.001-0.011-0.002-0.017-0.004v-0.004
		c0.152,0.03,0.314,0.062,0.041,0.005c0.92,0.183-0.096-0.02-0.961-0.195c-0.239-0.048-0.465-0.094-0.637-0.129
		c-0.019-0.004-0.034-0.01-0.052-0.014l-0.002,0.004h-0.002c-0.083-0.017-0.153-0.032-0.245-0.05v0.001l-0.002,0.012l-0.004,0.026
		l-0.295,1.612c-0.016,0.082-0.048,0.165-0.066,0.248c-1.683,4.194-5.262,7.754-8.83,10.245l-1.306,0.649l-0.143-0.448l-1.208-3.691
		c-0.782-2.455-1.578-4.926-2.054-7.454c-1.135-4.628,0.088-9.38,1.009-14.176l0.245-1.231c0.695-0.434,1.518-0.899,2.399-1.407
		l0.507-0.269c0.143-0.105,0.301-0.203,0.469-0.299c0.022-0.014,0.046-0.028,0.067-0.04c0.171-0.097,0.352-0.193,0.545-0.297
		c2.245-1.053,4.117-2.556,5.632-4.355c0.89-0.955,1.66-2.012,2.212-3.201c0.098-0.209,0.177-0.423,0.271-0.635
		c1.97-3.987,2.691-8.686,2.226-13.153c-0.01-0.099-0.018-0.199-0.029-0.3c0.358,0.579,0.641,1.067,0.905,1.427
		c0.15,0.239,0.299,0.405,0.436,0.525c0.012,0.035,0.026,0.066,0.037,0.101c0.079,0.107,0.149,0.21,0.231,0.32
		c0.944,2.525,1.7,4.933,2.32,7.232c-0.79-2.639-1.681-5.065-2.6-7.126c0.908,2.251,1.675,4.495,2.32,6.724
		c-0.314-0.997-0.639-1.991-0.985-2.974c1.662,4.86,2.908,10.369,3.369,16.085c0.188,2.557,0.211,5.072,0.077,7.536
		c-0.742,7.514-2.756,15.007-5.709,21.308C151.866,217.877,147.986,222.674,144.051,226.788z M166.11,213.295
		c-0.187,3.878-1.229,7.998-2.178,11.652c-0.727,2.483-1.519,4.94-2.237,7.317c-0.105,0.239-0.18,0.531-0.246,0.826
		c-0.083,0.281-0.162,0.553-0.241,0.83c-0.141,0.324-0.333,0.516-0.661,0.388c-0.128-0.064-0.273-0.171-0.447-0.339
		c-1.206-0.512-2.293-1.201-3.303-1.99c-0.077-0.062-0.153-0.126-0.23-0.188c-0.218-0.177-0.433-0.358-0.645-0.544
		c-0.157-0.137-0.312-0.277-0.464-0.418c-0.141-0.129-0.281-0.26-0.418-0.393c-0.138-0.132-0.275-0.265-0.41-0.397
		c-0.878-0.875-1.71-1.796-2.525-2.709c-0.814-0.99-1.791-2.223-1.445-1.999c1.045-1.22,2.097-2.46,3.059-3.812
		c0.926-1.018,1.677-2.302,2.44-3.565c0.902-1.817,2.413-3.399,3.008-5.395c1.338-3.405,2.261-6.993,3.232-10.59
		c0.011-0.022,0.02-0.047,0.032-0.068l0.34-1.26l0.076-0.275l0.279-1.105c-0.004-0.054,0.006-0.111,0.014-0.165l0.038-0.15
		c0.017-0.05,0.032-0.1,0.055-0.153l0.022-0.088l0.218,1.794c0.016,0.156,0.038,0.312,0.053,0.466
		c0.153,1.34,0.768,2.919,1.406,4.507c0.175,0.438,0.373,0.753,0.572,0.966c0.085,0.098,0.169,0.164,0.251,0.218
		c0.011,0.055,0.023,0.129,0.034,0.186c0.201,0.843,0.322,1.707,0.409,2.579c-0.163-0.915-0.381-1.776-0.699-2.51
		C165.969,209.134,166.142,211.256,166.11,213.295z M192.327,213.371c-0.022,0.275-0.07,0.545-0.11,0.816
		c-0.125,0.732-0.282,1.455-0.453,2.172c-0.167,0.651-0.342,1.295-0.498,1.933c-0.569,1.15-0.458,2.865-0.965,4.395
		c-0.127,0.427-0.164,0.786-0.143,1.075c0.012,0.171,0.05,0.307,0.1,0.427c-0.236,0.399-0.47,0.798-0.738,1.165
		c-0.991-0.796-2.032-1.592-3.092-2.398c0.809,0.51,1.586,0.985,2.287,1.395c-1.553-1.125-3.042-2.186-4.483-3.224
		c-3.553-2.637-7.302-5.669-10.269-8.736c-1.465-1.63-2.736-3.35-3.698-5.191l-0.105-0.227l-1.499-3.39
		c-1.161-2.695-2.266-5.379-3.34-8.091l0.221,0.21c1.15,1.104,2.329,2.206,3.613,3.237c0.991,0.93,2.106,1.885,3.324,2.705
		c1.771,1.009,3.044,2.765,4.947,3.611c0.943,0.533,1.918,1.024,2.91,1.487c0.053,0.03,0.1,0.06,0.153,0.088
		c0.085,0.038,0.192,0.076,0.293,0.109c1.773,0.809,3.6,1.535,5.451,2.202c0.019,0.011,0.038,0.019,0.058,0.03l0.227,0.079
		c0.204,0.064,0.747,0.235,1.115,0.45l1.247,0.382l0.271,0.085l1.087,0.344c0.016,0,0.03,0.006,0.046,0.006l0.379,0.122
		c0.013,0.006,0.026,0.011,0.038,0.017c0.01,0,0.023,0.006,0.034,0.006l0.765,0.243c0.337,0.145,0.674,0.293,0.9,0.32
		c0.052,0.023,0.1,0.046,0.146,0.062L192.327,213.371z M216.94,209.931c-2.37-0.038-7.26-0.213-12.99-0.955
		c-2.158-0.328-4.3-0.689-6.404-1.15c-3.704-0.796-7.337-1.856-10.797-3.281c-2.926-1.265-5.758-2.795-8.416-4.556
		c-0.736-0.517-1.461-1.054-2.165-1.628c-0.207-0.125-0.388-0.224-0.549-0.305c-0.399-0.302-0.792-0.609-1.181-0.921
		c-1.099-1.125-2.334-2.153-3.582-3.165c-2.673-2.594-5.005-5.427-6.837-8.43c-0.163-3.059-0.742-6.354-1.726-9.499
		c-0.551-2.012-1.196-3.998-1.899-5.974c0.294,0.233,0.596,0.456,0.92,0.652c3.851,2.889,9.045,2.896,13.487,2.42
		c1.148-0.131,2.292-0.285,3.434-0.492c0.201-0.634,1.515,1.138,2.21,1.602c0.07,0.066,0.144,0.135,0.213,0.201
		c0.04,0.038,0.08,0.076,0.12,0.113c0.855,0.81,1.747,1.651,2.619,2.496c0.046,0.052,0.097,0.108,0.14,0.158
		c0.685,0.641,1.318,1.313,1.927,1.933c0.258,0.284,0.499,0.58,0.735,0.881l1.174,1.665c0.018,0.023,0.032,0.053,0.049,0.078
		c0.117,0.192,0.224,0.393,0.336,0.589c0.041,0.084,0.082,0.163,0.122,0.254c0.905,1.633,1.642,3.356,2.302,5.123
		c0.283,0.771,0.553,1.547,0.818,2.319c0.378,1.119,0.74,2.245,1.104,3.372l0.242,0.736l0.061,0.189l0.149,0.452l0.24,0.727
		c-0.121,0.034-0.248,0.073-0.376,0.113c-0.375,0.067-0.754,0.117-1.137,0.141c-1.127,0.022-2.261-0.037-3.388-0.198
		c-0.336-0.052-0.671-0.111-1.003-0.175c-0.285-0.059-0.571-0.111-0.854-0.183c-0.019-0.002-0.037-0.008-0.058-0.01
		c-0.804-0.188-1.672-0.382-2.575-0.605c-1.301-0.426-2.649-0.958-4.206-1.342c-0.258-0.11-0.513-0.231-0.767-0.354
		c-0.207-0.287-0.5-0.635-0.866-1.002l-0.156-0.153l-0.201-0.206l-0.058-0.056l-0.029-0.029l-0.014-0.016l-0.002-0.001
		c-0.002,0.004-0.004,0.004-0.006,0.006c0.129-0.144,0.258-0.288-0.002-0.001c-0.322,0.358-0.575,0.638-0.795,0.879
		c-0.001-0.001-0.014-0.012-0.014-0.012l0.013,0.013c-0.036,0.041-0.082,0.091-0.116,0.129c-0.01,0-0.016-0.001-0.023-0.001
		c0.004,0.004,0.01,0.01,0.014,0.013c-1.033,1.14-0.86,0.949-0.674,0.746l0.004,0.004l0.01,0.008l0.141,0.123
		c0.709,0.605,1.701,1.253,2.811,1.717c0.539,0.237,1.101,0.45,1.671,0.641c0.754,0.458,1.529,0.876,2.316,1.25
		c0.096,0.048,0.193,0.092,0.29,0.137c0.139,0.064,0.278,0.126,0.418,0.187c0.11,0.047,0.221,0.097,0.331,0.14
		c3.053,1.273,6.275,1.823,9.346,1.133c0.094-0.061,0.186-0.107,0.277-0.155c0.017-0.004,0.034-0.007,0.052-0.012
		c0.463-0.028,0.926-0.058,1.385-0.084c-0.259-0.044-0.524-0.052-0.788-0.059c0.065-0.019,0.129-0.048,0.195-0.068
		c0.287,0.031,0.573,0.064,0.858,0.111c-0.089,0.005-0.176,0.011-0.265,0.016c0.878,0.149,1.725,0.481,2.591,0.878
		c0.571,0.345,1.162,0.673,1.805,0.844c0.593,0.269,1.21,0.523,1.864,0.73c3.338,1.139,6.776,1.969,10.11,2.853
		c2.275,0.42,4.604,1.354,6.079,2.991c0.916,1.139,1.274,2.34,1.401,2.936C217.962,209.738,217.469,209.857,216.94,209.931z
		 M162.398,158.462c0.065-0.012,0.128-0.028,0.195-0.031c0.463-0.028,0.891,0.143,1.205,0.435c-0.123-0.084-0.257-0.149-0.412-0.183
		c-0.094-0.058-0.198-0.084-0.305-0.103c0.744,0.247,1.193,1.059,0.954,1.776c-0.685,1.752-3.018,0.575-2.32-0.731
		c0.082-0.089,0.03-0.251,0.052-0.376c0.147-0.317,0.468-0.587,0.828-0.78L162.398,158.462z M168.068,163.054
		c0.048-0.01,0.091-0.034,0.141-0.037c0.322-0.018,0.613,0.113,0.826,0.324c-0.085-0.064-0.183-0.105-0.326-0.084
		c-0.035-0.004-0.065-0.019-0.098-0.028c0.399,0.223,0.623,0.632,0.428,1.039c-0.569,0.89-1.469,0.131-1.188-0.357
		c0.024-0.042-0.074-0.168-0.092-0.263c0.095-0.123,0.247-0.346,0.453-0.597L168.068,163.054z M172.883,166.979
		c0.018-0.004,0.034-0.013,0.053-0.014c0.152-0.008,0.293,0.048,0.399,0.144c-0.047-0.016-0.099-0.017-0.163,0.004
		c-0.036,0.006-0.065-0.006-0.094-0.018c0.201,0.114,0.293,0.322,0.162,0.474c-0.261,0.105-0.282,0.004-0.263-0.054
		c-0.034-0.018-0.09-0.058-0.114-0.095c-0.032-0.065-0.022-0.219,0.076-0.417L172.883,166.979z M183.804,197.343
		c-1.178-0.438-2.292-0.96-3.309-1.507c0.235,0.076,0.471,0.138,0.706,0.207C181.974,196.487,182.848,196.935,183.804,197.343z
		 M199.478,192.685c2.099,0.786,4.325,1.683,6.398,2.399c1.843,0.744,3.396,1.401,4.447,1.936c0.018,0.01,0.032,0.019,0.049,0.029
		c0.404,0.277,0.776,0.605,1.167,0.881c0.756,0.532,1.443,1.146,2.066,1.811c0.215,0.235,0.421,0.48,0.62,0.727
		c0.055,0.067,0.113,0.133,0.167,0.203c0.177,0.228,0.345,0.463,0.511,0.698c0.18,0.263,0.366,0.524,0.527,0.797
		c-0.253-0.076-0.472-0.155-0.575-0.277c-0.707-0.373-1.521-0.574-2.321-0.738c-1.139-0.162-2.117-0.903-3.251-1.038
		c-1.919-0.299-3.998-0.752-5.969-1.405c-0.001,0-0.002-0.001-0.002-0.001l-0.674-0.245l-0.146-0.055l-0.585-0.224
		c-0.013,0.002-0.023-0.004-0.036-0.004c-0.064-0.026-0.127-0.05-0.189-0.076c-0.008-0.006-0.016-0.01-0.022-0.016
		c-0.272-0.109-0.544-0.227-0.816-0.348c-1.407-0.655-2.678-1.447-3.674-2.42c-0.029-0.034-0.064-0.064-0.092-0.097
		c0.125,0.346-0.77-1.198-1.373-1.696c-0.185-0.204-0.387-0.332-0.585-0.4c-0.07-0.023-0.132-0.017-0.198-0.028
		c-0.382-0.972-0.779-1.949-1.198-2.924c1.376,0.592,2.779,1.171,4.164,1.732c-0.53-0.122-1.039-0.227-1.505-0.293
		C197.463,191.994,198.487,192.346,199.478,192.685z M195.576,198.262c-0.055,0.004-0.11,0.005-0.165,0.01
		c-0.362-0.134-0.734-0.206-1.121-0.191c0.239-0.082,0.476-0.152,0.715-0.251C195.172,197.978,195.376,198.119,195.576,198.262z
		 M221.084,197.237c-0.336-0.293-0.927-0.575-1.276-0.826c0.223,0.118,0.581,0.502,0.879,0.772c-0.034-0.005-0.067-0.01-0.101-0.014
		c-0.272-0.101-0.593-0.188-0.875-0.17c-0.101-0.023-0.204-0.044-0.303-0.073c-0.828-0.246-1.676-0.504-2.442-0.966
		c-1.66-0.718-3.019-1.957-4.303-3.036c-0.874-0.908-1.981-2.187-3.247-3.69l-0.928-1.274c-1.131-1.562-2.245-3.109-3.408-4.647
		l-0.097-0.133l-0.046-0.058c-0.134-0.176-0.261-0.355-0.397-0.531c-0.01-0.006-0.019-0.006-0.029-0.013l-1.358-1.738l-0.297-0.358
		c0.661,0.07,1.346,0.098,2.04,0.105c1.517,0.02,2.319,0.171,3.106,0.851c1.756,1.243,3.238,2.949,4.556,4.851
		c0.001,0.001,0.001,0.001,0.001,0.002l0.444,0.673l0.096,0.147l0.379,0.593l0.161,0.252c0.531,0.851,1.025,1.725,1.505,2.608
		c0.163,0.305,0.324,0.609,0.483,0.914c0.345,0.657,0.686,1.315,1.015,1.98c0.028,0.054,0.056,0.11,0.083,0.164
		c0.001,0.002,0.002,0.004,0.004,0.004c0.017,0.035,0.035,0.068,0.052,0.102c0.408,0.768,1.243,1.473,2.204,2.115
		c0.257,0.176,0.499,0.263,0.715,0.285c0.091,0.01,0.176,0.005,0.257-0.007c0.024,0.03,0.052,0.067,0.076,0.095
		c0.34,0.398,0.704,0.727,1.074,1.023C221.1,197.239,221.092,197.238,221.084,197.237z M221.281,197.474
		c-0.028-0.046-0.053-0.091-0.096-0.137c0.002-0.011,0.002-0.022,0.004-0.032c0.079,0.061,0.153,0.132,0.233,0.189
		C221.381,197.491,221.324,197.48,221.281,197.474z M226.811,196.769c-0.143-0.001-0.287-0.004-0.427-0.016
		c-0.054-0.004-0.109-0.006-0.164-0.011c-0.122-0.006-0.237-0.023-0.355-0.036c-0.339-0.042-0.651-0.103-0.842-0.189
		c-1.508-0.48-2.661-1.443-3.651-2.64c-0.872-1.102-1.623-2.383-2.387-3.606c-0.748-1.277-1.491-2.566-2.363-3.691
		c-0.03-0.041-0.059-0.073-0.088-0.11c-1.622-2.497-3.336-4.972-5.539-7.185l-1.276-1.015l-0.103-0.082l-0.02-0.75
		c0.029-1.085-0.086-2.156-0.416-3.199c-0.486-2.122-1.609-4.038-2.912-5.756c-1.059-1.447-2.381-2.765-3.827-3.96
		c-0.706-0.569-1.523-1.181-2.285-1.652c-0.044-0.028-0.079-0.046-0.121-0.07c-0.088-0.076-0.167-0.156-0.258-0.229
		c-0.239-0.21-0.451-0.322-0.703-0.504l-0.361-0.245l-0.195-0.122l-0.098-0.06l-0.025-0.016l-0.006-0.004
		c0.219-0.388,0.243-0.433,0.165-0.299c0.089-0.157-0.068,0.12-0.294,0.517l-0.016-0.008c-0.037,0.078-0.066,0.14-0.1,0.21
		c-0.076,0.134-0.156,0.275-0.233,0.411l-0.012-0.006c0,0,0.011,0.006,0.012,0.007c-0.288,0.508-0.543,0.959-0.463,0.819h0.001
		c-0.022,0.041-0.03,0.054-0.007,0.016l0.012,0.006l0.046,0.025l1.434,0.778c0.049,0.028,0.098,0.062,0.147,0.091
		c3.461,2.881,5.733,7.375,7.005,11.522c0.135,0.51,0.173,1.027,0.245,1.547l-0.343-0.002l-3.866-0.004
		c-2.564-0.03-5.151-0.012-7.688-0.352c-4.182-0.269-7.873-2.323-11.597-4.417c-0.004-0.002-0.007-0.005-0.011-0.007l-0.614-0.345
		c-0.118-0.066-0.236-0.132-0.352-0.197l-1.63-0.914c-0.276-0.85-0.514-1.875-0.768-2.994l-0.03-0.177
		c-0.046-0.135-0.077-0.285-0.109-0.435c-0.016-0.066-0.03-0.132-0.046-0.199c-0.034-0.187-0.065-0.381-0.099-0.587
		c-0.271-2.561-1.137-4.866-2.41-6.911c-0.581-1.072-1.282-2.07-2.16-2.923c-0.647-0.657-1.334-1.25-2.037-1.816
		c-0.171-0.141-0.349-0.273-0.524-0.409c-0.245-0.186-0.486-0.378-0.736-0.554c-2.896-2.073-6.305-3.535-9.746-4.316
		c0.471-0.132,0.875-0.255,1.207-0.328c0.291-0.083,0.508-0.169,0.689-0.254c0.34-0.007,0.687-0.01,1.045-0.002l-0.007,0.01
		c2.988-0.14,5.77-0.105,8.358,0.047c-2.821-0.086-5.463,0.005-7.754,0.245c1.987-0.132,3.933-0.17,5.85-0.134
		c-0.629,0.001-1.261,0.007-1.889,0.022c4.278-0.035,8.898,0.339,13.539,1.264c0.454,0.094,0.909,0.188,1.358,0.293
		c0.05,0.011,0.099,0.024,0.15,0.035c2.946,0.689,5.76,1.588,8.444,2.667c6.738,3.147,13.162,7.258,18.085,12.049
		c3.891,4.003,7.212,9.18,9.865,14.176c1.236,2.415,2.386,4.855,3.413,7.325c0.86,2.076,1.681,4.16,2.422,6.268l0.082,0.239
		l0.649,1.933C227.108,196.073,227.033,196.494,226.811,196.769z M230.771,166.774c-0.213,0.204-0.448,0.382-0.682,0.565
		c-0.227,0.17-0.45,0.34-0.687,0.498c-0.07,0.047-0.139,0.094-0.209,0.139c-0.335,0.216-0.676,0.421-1.02,0.622
		c-0.51,0.291-1.021,0.573-1.519,0.851c-1.216,0.452-2.367,1.659-3.792,2.501c-0.379,0.252-0.641,0.507-0.809,0.743
		c-0.08,0.113-0.131,0.221-0.17,0.322c-0.352,0.131-0.707,0.269-1.055,0.385c-0.545-0.885-1.119-1.764-1.706-2.634
		c0.499,0.595,0.981,1.17,1.419,1.686c-1.425-2.19-2.902-4.134-4.417-5.892c-1.008-1.205-2.09-2.391-3.218-3.513
		c-0.138-0.141-0.266-0.297-0.405-0.435c-3.119-3.039-7.17-5.912-11.497-8.551c-0.577-0.404-1.157-0.8-1.756-1.159l-1.583-0.997
		c-0.285-0.199-0.565-0.391-0.819-0.548l4.697,0.699c0.005,0,0.008-0.002,0.014-0.002c2.675,0.423,5.395,0.85,8.171,1.313
		c1.27,0.237,2.608,0.617,3.951,1.039c1.893,0.515,3.503,1.765,5.263,2.612c3.176,1.487,6.212,3.508,9.199,5.644
		c0.01,0.01,0.019,0.018,0.028,0.028l1.042,0.749l0.227,0.164l0.91,0.661c0.028,0.01,0.052,0.029,0.079,0.042l0.251,0.181
		c0.02,0.019,0.041,0.034,0.061,0.055c0.01,0.001,0.017,0.005,0.026,0.007l0.674,0.489c0.207,0.199,0.415,0.403,0.596,0.514
		L230.771,166.774z M140.86,122.421c-0.011,0.005-0.034,0.013-0.03,0.014C140.879,122.489,140.882,122.453,140.86,122.421z
		 M172.787,133.023c-0.01-0.01-0.023-0.028-0.023-0.023C172.729,133.063,172.762,133.055,172.787,133.023z M197.508,137.461
		C197.318,137.128,197.438,137.337,197.508,137.461L197.508,137.461z M120.093,150.45c0.008-0.002,0.03-0.004,0.026-0.004
		C120.092,150.377,120.081,150.41,120.093,150.45z M150.23,48.862c-55.999,0-101.397,45.396-101.397,101.396
		c0,55.999,45.397,101.397,101.397,101.397c55.999,0,101.395-45.398,101.395-101.397S206.228,48.862,150.23,48.862z M150.23,250.338
		C94.956,250.336,50.147,205.53,50.147,150.257c0-55.276,44.81-100.083,100.083-100.085c55.271,0.004,100.079,44.81,100.082,100.085
		C250.31,205.53,205.501,250.336,150.23,250.338z M145.07,141.029c0.176-0.132,0.319-0.306,0.48-0.454
		C145.374,140.697,145.208,140.84,145.07,141.029z M140.954,178.381c0.012,0.002,0.034,0.007,0.032,0.004
		C140.976,178.315,140.956,178.341,140.954,178.381z M143.223,133.688c0.17-0.127,0.311-0.29,0.48-0.411
		C143.523,133.375,143.356,133.506,143.223,133.688z M141.511,152.353c0.204-0.067,0.404-0.156,0.589-0.297
		C141.893,152.132,141.706,152.258,141.511,152.353z M146.703,156.497c-0.216,0.005-0.434,0.034-0.652,0.115
		C146.27,156.599,146.487,156.533,146.703,156.497z M155.043,147.061c0.176,0.125,0.367,0.234,0.589,0.299
		C155.449,147.237,155.238,147.162,155.043,147.061z M156.751,153.374c-0.205-0.066-0.42-0.111-0.652-0.105
		C156.311,153.328,156.536,153.337,156.751,153.374z M172.977,167.514c0.012,0.006,0.031,0.02,0.03,0.016
		C173.019,167.455,172.989,167.474,172.977,167.514z M161.643,141.775c0.152,0.137,0.332,0.251,0.547,0.314
		C162.015,141.971,161.815,141.894,161.643,141.775z"/>
</g>
</svg>
