<?xml version="1.0" encoding="iso-8859-1"?>
<!-- Generator: Adobe Illustrator 22.1.0, SVG Export Plug-In . SVG Version: 6.00 Build 0)  -->
<svg version="1.1" id="Layer_1" xmlns="http://www.w3.org/2000/svg" xmlns:xlink="http://www.w3.org/1999/xlink" x="0px" y="0px"
	 viewBox="0 0 300 231" style="enable-background:new 0 0 300 231;" xml:space="preserve">
<g>
	<g>
		<path style="fill:#B89753;" d="M62.952,189.635h0.128c0.87-2.962,3.832-12.303,4.96-16.424c0.322-1.191,0.354-1.642,0.354-2.061
			c0-0.579-0.354-0.966-1.835-0.966c-0.161,0-0.289-0.097-0.289-0.225c0-0.161,0.161-0.225,0.547-0.225
			c1.643,0,2.996,0.096,3.286,0.096c0.225,0,1.61-0.096,2.608-0.096c0.289,0,0.451,0.064,0.451,0.193
			c0,0.16-0.095,0.257-0.289,0.257c-0.128,0-0.74,0.032-1.095,0.16c-0.967,0.355-1.482,1.707-2.094,3.478
			c-1.415,4.091-4.668,14.33-5.925,17.937c-0.838,2.383-0.998,2.77-1.354,2.77c-0.322,0-0.515-0.419-0.967-1.674l-6.312-17.938
			h-0.064c-1.159,3.092-5.571,14.911-6.73,17.906c-0.517,1.352-0.676,1.706-1.063,1.706c-0.323,0-0.484-0.354-1.128-2.545
			l-5.733-19.097c-0.515-1.706-0.934-2.19-1.771-2.512c-0.418-0.16-1.223-0.192-1.449-0.192c-0.161,0-0.289-0.032-0.289-0.225
			c0-0.161,0.192-0.225,0.515-0.225c1.674,0,3.445,0.096,3.8,0.096c0.289,0,1.707-0.096,3.317-0.096
			c0.451,0,0.579,0.096,0.579,0.225c0,0.193-0.161,0.225-0.322,0.225c-0.259,0-0.871,0-1.256,0.192
			c-0.195,0.097-0.42,0.355-0.42,0.772c0,0.419,0.289,1.546,0.612,2.964c0.484,2.061,3.832,13.881,4.315,15.587h0.065l6.826-18.389
			c0.483-1.32,0.612-1.482,0.806-1.482c0.225,0,0.418,0.419,0.806,1.514L62.952,189.635z"/>
		<path style="fill:#B89753;" d="M80.255,186.125c0,2.641,0,4.798,0.128,5.925c0.097,0.806,0.195,1.322,1.031,1.45
			c0.42,0.064,1.031,0.129,1.288,0.129c0.161,0,0.225,0.128,0.225,0.225c0,0.128-0.128,0.224-0.451,0.224
			c-1.579,0-3.414-0.096-3.543-0.096c-0.161,0-1.933,0.096-2.802,0.096c-0.289,0-0.451-0.064-0.451-0.224
			c0-0.097,0.064-0.225,0.225-0.225c0.259,0,0.612-0.065,0.87-0.129c0.548-0.128,0.645-0.644,0.74-1.45
			c0.13-1.127,0.161-3.284,0.161-5.925v-4.831c0-4.251,0-5.024-0.064-5.894c-0.064-0.934-0.289-1.352-0.902-1.482
			c-0.322-0.064-0.675-0.096-0.87-0.096c-0.128,0-0.225-0.129-0.225-0.225c0-0.161,0.128-0.225,0.451-0.225
			c0.934,0,2.705,0.064,2.866,0.064c0.128,0,1.964-0.064,2.834-0.064c0.322,0,0.451,0.064,0.451,0.225
			c0,0.096-0.13,0.225-0.225,0.225c-0.195,0-0.387,0-0.709,0.064c-0.772,0.161-0.934,0.547-0.998,1.514
			c-0.033,0.87-0.033,1.642-0.033,5.894v4.831H80.255z"/>
		<path style="fill:#B89753;" d="M90.756,190.343c0.064,2.254,0.323,2.93,1.095,3.124c0.515,0.128,1.159,0.161,1.418,0.161
			c0.128,0,0.225,0.096,0.225,0.225c0,0.16-0.195,0.224-0.515,0.224c-1.61,0-2.738-0.096-2.996-0.096
			c-0.256,0-1.449,0.096-2.736,0.096c-0.289,0-0.451-0.032-0.451-0.224c0-0.129,0.095-0.225,0.225-0.225
			c0.225,0,0.74-0.033,1.159-0.161c0.708-0.193,0.806-0.934,0.806-3.413V174.37c0-1.095,0.161-1.386,0.387-1.386
			c0.322,0,0.806,0.548,1.095,0.838c0.451,0.451,4.573,4.83,8.952,9.339c2.802,2.898,5.83,6.151,6.698,7.053l-0.289-13.719
			c-0.031-1.771-0.192-2.383-1.062-2.545c-0.515-0.096-1.16-0.128-1.386-0.128c-0.192,0-0.224-0.161-0.224-0.257
			c0-0.161,0.224-0.193,0.547-0.193c1.288,0,2.641,0.064,2.964,0.064c0.323,0,1.256-0.064,2.415-0.064
			c0.289,0,0.515,0.032,0.515,0.193c0,0.096-0.128,0.257-0.323,0.257c-0.128,0-0.354,0-0.675,0.064
			c-0.935,0.193-0.999,0.74-0.999,2.383l-0.064,16.039c0,1.802-0.033,1.964-0.225,1.964c-0.289,0-0.579-0.225-2.158-1.674
			c-0.289-0.257-4.379-4.284-7.373-7.408c-3.286-3.446-6.473-6.794-7.344-7.761L90.756,190.343z"/>
		<path style="fill:#B89753;" d="M115.754,181.295c0-4.251,0-5.024-0.064-5.894c-0.064-0.934-0.225-1.386-1.159-1.514
			c-0.225-0.032-0.709-0.064-0.967-0.064c-0.097,0-0.225-0.129-0.225-0.225c0-0.161,0.128-0.225,0.451-0.225
			c1.287,0,3.123,0.064,3.284,0.064c0.323,0,2.125-0.064,3.801-0.064c2.833,0,8.019-0.257,11.367,3.124
			c1.418,1.418,2.77,3.703,2.77,6.956c0,3.445-1.482,6.087-3.061,7.697c-1.223,1.256-3.768,3.156-8.598,3.156
			c-1.223,0-2.738-0.096-3.961-0.16c-1.224-0.097-2.191-0.161-2.319-0.161c-0.064,0-0.579,0.032-1.159,0.032
			c-0.579,0.032-1.256,0.064-1.707,0.064c-0.289,0-0.451-0.064-0.451-0.224c0-0.097,0.064-0.225,0.225-0.225
			c0.259,0,0.612-0.065,0.87-0.129c0.548-0.128,0.612-0.644,0.74-1.45c0.161-1.127,0.161-3.284,0.161-5.925v-4.831H115.754z
			 M118.331,184.257c0,2.899,0,5.442,0.033,5.958c0.031,0.676,0.095,1.675,0.322,1.965c0.356,0.515,1.354,1.095,4.702,1.095
			c2.609,0,4.928-0.87,6.634-2.48c1.482-1.386,2.222-3.993,2.222-6.506c0-3.477-1.513-5.701-2.673-6.859
			c-2.672-2.706-5.797-3.06-9.178-3.06c-0.547,0-1.449,0.096-1.707,0.193c-0.256,0.096-0.354,0.225-0.354,0.547v9.146H118.331z"/>
		<path style="fill:#B89753;" d="M145.035,186.962c0-1.482-0.192-2.029-0.611-2.802c-0.225-0.419-4.057-6.505-5.024-7.955
			c-0.676-1.031-1.354-1.642-1.869-1.997c-0.418-0.257-0.965-0.386-1.19-0.386c-0.161,0-0.292-0.129-0.292-0.257
			c0-0.129,0.097-0.193,0.356-0.193c0.547,0,2.672,0.064,2.802,0.064c0.192,0,1.351-0.064,2.446-0.064
			c0.323,0,0.387,0.064,0.387,0.193c0,0.096-0.192,0.193-0.451,0.29c-0.225,0.096-0.354,0.225-0.354,0.451
			c0,0.386,0.192,0.708,0.387,1.063l5.152,8.534c0.579-1.16,4.123-7.02,4.638-7.923c0.354-0.612,0.483-1.063,0.483-1.417
			c0-0.387-0.128-0.612-0.451-0.708c-0.256-0.064-0.418-0.193-0.418-0.322c0-0.097,0.161-0.161,0.451-0.161
			c0.74,0,1.738,0.064,1.964,0.064c0.195,0,2.222-0.064,2.77-0.064c0.192,0,0.354,0.064,0.354,0.161
			c0,0.128-0.128,0.289-0.354,0.289c-0.323,0-0.871,0.096-1.32,0.354c-0.548,0.322-0.806,0.612-1.418,1.352
			c-0.935,1.095-4.927,7.536-5.507,8.695c-0.484,0.967-0.356,1.835-0.356,2.738v2.351c0,0.451,0,1.61,0.097,2.737
			c0.064,0.806,0.259,1.322,1.095,1.45c0.387,0.064,1.031,0.129,1.288,0.129c0.161,0,0.225,0.128,0.225,0.225
			c0,0.128-0.161,0.224-0.451,0.224c-1.579,0-3.414-0.096-3.576-0.096c-0.128,0-1.931,0.096-2.769,0.096
			c-0.323,0-0.451-0.064-0.451-0.224c0-0.097,0.064-0.225,0.225-0.225c0.259,0,0.579-0.065,0.838-0.129
			c0.579-0.128,0.772-0.644,0.836-1.45c0.064-1.127,0.064-2.286,0.064-2.737v-2.351H145.035z"/>
		<path style="fill:#B89753;" d="M171.579,179.072c0-5.023,0-5.926-0.064-6.956c-0.064-1.095-0.323-1.61-1.385-1.835
			c-0.259-0.064-0.806-0.096-1.095-0.096c-0.13,0-0.259-0.065-0.259-0.193c0-0.193,0.161-0.257,0.515-0.257
			c1.449,0,3.478,0.096,3.64,0.096c0.354,0,2.802-0.096,3.8-0.096c2.03,0,4.187,0.193,5.894,1.417
			c0.806,0.58,2.222,2.158,2.222,4.38c0,2.383-0.999,4.767-3.896,7.44c2.641,3.381,4.83,6.249,6.698,8.244
			c1.738,1.835,3.123,2.19,3.928,2.318c0.612,0.097,1.063,0.097,1.256,0.097c0.161,0,0.29,0.096,0.29,0.192
			c0,0.193-0.192,0.257-0.772,0.257h-2.286c-1.804,0-2.609-0.16-3.445-0.612c-1.385-0.74-2.512-2.318-4.348-4.734
			c-1.354-1.771-2.866-3.929-3.509-4.767c-0.13-0.128-0.225-0.193-0.42-0.193l-3.961-0.064c-0.161,0-0.225,0.096-0.225,0.257v0.772
			c0,3.092,0,5.635,0.161,6.988c0.097,0.934,0.289,1.643,1.256,1.771c0.451,0.064,1.159,0.129,1.449,0.129
			c0.195,0,0.259,0.096,0.259,0.192c0,0.161-0.161,0.257-0.515,0.257c-1.771,0-3.801-0.096-3.962-0.096
			c-0.031,0-2.061,0.096-3.025,0.096c-0.356,0-0.515-0.064-0.515-0.257c0-0.096,0.064-0.192,0.256-0.192
			c0.289,0,0.676-0.065,0.967-0.129c0.644-0.128,0.806-0.838,0.934-1.771c0.161-1.352,0.161-3.896,0.161-6.988v-5.667H171.579z
			 M174.156,181.873c0,0.161,0.064,0.29,0.225,0.386c0.483,0.291,1.964,0.515,3.381,0.515c0.773,0,1.674-0.096,2.415-0.612
			c1.128-0.772,1.966-2.512,1.966-4.959c0-4.025-2.127-6.441-5.572-6.441c-0.967,0-1.835,0.096-2.157,0.193
			c-0.161,0.064-0.259,0.192-0.259,0.386L174.156,181.873L174.156,181.873z"/>
		<path style="fill:#B89753;" d="M197.703,186.125c0,2.641,0,4.798,0.128,5.925c0.097,0.806,0.195,1.322,1.031,1.45
			c0.42,0.064,1.031,0.129,1.288,0.129c0.161,0,0.225,0.128,0.225,0.225c0,0.128-0.128,0.224-0.451,0.224
			c-1.579,0-3.414-0.096-3.543-0.096c-0.161,0-1.933,0.096-2.802,0.096c-0.289,0-0.451-0.064-0.451-0.224
			c0-0.097,0.064-0.225,0.225-0.225c0.259,0,0.612-0.065,0.87-0.129c0.548-0.128,0.645-0.644,0.74-1.45
			c0.13-1.127,0.161-3.284,0.161-5.925v-4.831c0-4.251,0-5.024-0.064-5.894c-0.064-0.934-0.289-1.352-0.902-1.482
			c-0.322-0.064-0.675-0.096-0.87-0.096c-0.128,0-0.225-0.129-0.225-0.225c0-0.161,0.128-0.225,0.451-0.225
			c0.934,0,2.705,0.064,2.866,0.064c0.128,0,1.964-0.064,2.834-0.064c0.322,0,0.451,0.064,0.451,0.225
			c0,0.096-0.13,0.225-0.225,0.225c-0.195,0-0.387,0-0.709,0.064c-0.772,0.161-0.934,0.547-0.998,1.514
			c-0.033,0.87-0.033,1.642-0.033,5.894v4.831H197.703z"/>
		<path style="fill:#B89753;" d="M207.014,181.295c0-4.251,0-5.024-0.064-5.894c-0.064-0.934-0.225-1.386-1.159-1.514
			c-0.225-0.032-0.709-0.064-0.967-0.064c-0.097,0-0.225-0.129-0.225-0.225c0-0.161,0.128-0.225,0.451-0.225
			c1.287,0,3.123,0.064,3.284,0.064c0.323,0,2.125-0.064,3.801-0.064c2.833,0,8.019-0.257,11.367,3.124
			c1.418,1.418,2.77,3.703,2.77,6.956c0,3.445-1.482,6.087-3.061,7.697c-1.223,1.256-3.768,3.156-8.598,3.156
			c-1.223,0-2.738-0.096-3.961-0.16c-1.224-0.097-2.19-0.161-2.319-0.161c-0.064,0-0.579,0.032-1.159,0.032
			c-0.579,0.032-1.256,0.064-1.707,0.064c-0.29,0-0.451-0.064-0.451-0.224c0-0.097,0.064-0.225,0.225-0.225
			c0.259,0,0.612-0.065,0.87-0.129c0.548-0.128,0.612-0.644,0.74-1.45c0.161-1.127,0.161-3.284,0.161-5.925v-4.831H207.014z
			 M209.59,184.257c0,2.899,0,5.442,0.033,5.958c0.031,0.676,0.095,1.675,0.322,1.965c0.356,0.515,1.354,1.095,4.703,1.095
			c2.608,0,4.927-0.87,6.633-2.48c1.482-1.386,2.222-3.993,2.222-6.506c0-3.477-1.513-5.701-2.672-6.859
			c-2.673-2.706-5.798-3.06-9.179-3.06c-0.547,0-1.449,0.096-1.707,0.193c-0.256,0.096-0.354,0.225-0.354,0.547v9.146H209.59z"/>
		<path style="fill:#B89753;" d="M246.406,187.091c0-2.222-0.064-2.545-1.223-2.77c-0.225-0.032-0.709-0.064-0.967-0.064
			c-0.097,0-0.225-0.128-0.225-0.225c0-0.192,0.128-0.225,0.451-0.225c1.287,0,3.187,0.065,3.348,0.065
			c0.128,0,1.899-0.065,2.77-0.065c0.322,0,0.45,0.033,0.45,0.225c0,0.097-0.128,0.225-0.224,0.225c-0.195,0-0.387,0-0.709,0.064
			c-0.772,0.129-0.998,0.548-1.062,1.514c-0.033,0.87-0.033,1.675-0.033,2.834v3.06c0,1.256-0.033,1.288-0.387,1.482
			c-1.802,0.934-4.379,1.224-6.022,1.224c-2.158,0-6.183-0.257-9.339-2.932c-1.738-1.449-3.381-4.38-3.381-7.793
			c0-4.38,2.222-7.472,4.735-8.986c2.544-1.546,5.378-1.739,7.535-1.739c1.804,0,3.801,0.323,4.348,0.451
			c0.579,0.129,1.579,0.29,2.286,0.29c0.29,0,0.354,0.129,0.354,0.257c0,0.387-0.161,1.128-0.161,3.864
			c0,0.451-0.128,0.58-0.322,0.58c-0.161,0-0.192-0.161-0.192-0.419c-0.033-0.354-0.195-1.159-0.645-1.803
			c-0.708-1.031-2.866-2.125-6.537-2.125c-1.707,0-3.768,0.128-5.925,1.771c-1.643,1.255-2.802,3.703-2.802,6.892
			c0,3.864,1.996,6.634,2.994,7.569c2.254,2.093,4.638,2.866,7.245,2.866c0.999,0,2.319-0.097,3.061-0.515
			c0.354-0.193,0.579-0.322,0.579-0.838v-4.735H246.406z"/>
		<path style="fill:#B89753;" d="M257.523,181.295c0-4.251,0-5.024-0.064-5.894c-0.064-0.934-0.225-1.386-1.159-1.514
			c-0.225-0.032-0.709-0.064-0.967-0.064c-0.097,0-0.225-0.129-0.225-0.225c0-0.161,0.128-0.225,0.451-0.225
			c1.287,0,3.123,0.064,3.284,0.064c0.195,0,6.119,0.032,6.762,0c0.548-0.032,1.063-0.128,1.288-0.16
			c0.128-0.032,0.256-0.129,0.387-0.129c0.095,0,0.128,0.129,0.128,0.257c0,0.193-0.161,0.515-0.225,1.288
			c-0.033,0.257-0.097,1.482-0.161,1.803c-0.031,0.129-0.128,0.29-0.256,0.29c-0.161,0-0.225-0.128-0.225-0.354
			c0-0.193-0.033-0.644-0.161-0.967c-0.192-0.451-0.484-0.644-2.03-0.838c-0.483-0.064-3.767-0.097-4.089-0.097
			c-0.128,0-0.161,0.097-0.161,0.291v7.439c0,0.193,0,0.291,0.161,0.291c0.354,0,4.089,0,4.735-0.065
			c0.675-0.064,1.095-0.096,1.385-0.386c0.192-0.193,0.322-0.355,0.418-0.355c0.097,0,0.161,0.065,0.161,0.225
			c0,0.161-0.161,0.612-0.225,1.514c-0.064,0.547-0.128,1.578-0.128,1.771c0,0.225-0.064,0.515-0.259,0.515
			c-0.128,0-0.192-0.096-0.192-0.257c0-0.257,0-0.547-0.128-0.902c-0.097-0.387-0.356-0.708-1.45-0.838
			c-0.772-0.096-3.8-0.128-4.282-0.128c-0.161,0-0.195,0.096-0.195,0.193v2.286c0,0.934-0.031,4.123,0,4.67
			c0.064,1.835,0.579,2.19,3.381,2.19c0.74,0,2.094,0,2.834-0.29c0.74-0.322,1.126-0.806,1.287-1.899
			c0.064-0.323,0.128-0.419,0.289-0.419s0.195,0.225,0.195,0.419c0,0.192-0.225,2.061-0.387,2.641
			c-0.192,0.708-0.483,0.708-1.579,0.708c-2.125,0-3.767-0.065-4.927-0.097c-1.19-0.064-1.931-0.064-2.351-0.064
			c-0.064,0-0.611,0-1.223,0.032c-0.548,0.032-1.192,0.064-1.643,0.064c-0.29,0-0.451-0.064-0.451-0.224
			c0-0.097,0.064-0.225,0.225-0.225c0.259,0,0.612-0.097,0.87-0.129c0.548-0.096,0.612-0.644,0.74-1.45
			c0.161-1.127,0.161-3.284,0.161-5.925v-4.831H257.523z"/>
	</g>
	<g>
		<path style="fill:#B89753;" d="M100.188,221.206v-5.76l-2.484,3.768h-0.05l-2.458-3.73v5.722h-1.903v-8.822h2.093l2.318,3.73
			l2.319-3.73h2.093v8.822L100.188,221.206L100.188,221.206z"/>
		<path style="fill:#B89753;" d="M112.34,221.345c-2.37,0-3.819-1.324-3.819-3.919v-5.042h1.942v4.991
			c0,1.436,0.717,2.18,1.903,2.18c1.184,0,1.903-0.719,1.903-2.118v-5.054h1.941v4.979
			C116.208,220.034,114.708,221.345,112.34,221.345z"/>
		<path style="fill:#B89753;" d="M125.751,221.332c-1.336,0-2.684-0.467-3.743-1.412l1.147-1.373
			c0.794,0.656,1.626,1.071,2.634,1.071c0.794,0,1.271-0.315,1.271-0.832v-0.025c0-0.492-0.302-0.744-1.776-1.122
			c-1.778-0.453-2.924-0.945-2.924-2.697v-0.025c0-1.601,1.286-2.659,3.087-2.659c1.286,0,2.382,0.403,3.278,1.122l-1.008,1.462
			c-0.782-0.542-1.55-0.87-2.294-0.87c-0.743,0-1.134,0.341-1.134,0.769v0.025c0,0.579,0.379,0.769,1.903,1.16
			c1.79,0.466,2.799,1.109,2.799,2.647v0.026C128.989,220.349,127.654,221.332,125.751,221.332z"/>
		<path style="fill:#B89753;" d="M140.624,221.206v-3.541h-3.579v3.541h-1.941v-8.822h1.941v3.491h3.579v-3.491h1.942v8.822H140.624
			z"/>
		<path style="fill:#B89753;" d="M154.466,221.206l-1.89-2.823h-1.525v2.823h-1.941v-8.822h4.033c2.08,0,3.326,1.097,3.326,2.912
			v0.025c0,1.425-0.769,2.318-1.89,2.736l2.155,3.15h-2.268V221.206z M154.502,215.396c0-0.832-0.579-1.261-1.525-1.261h-1.928
			v2.533h1.966c0.946,0,1.488-0.505,1.488-1.247L154.502,215.396L154.502,215.396z"/>
		<path style="fill:#B89753;" d="M166.932,221.358c-2.722,0-4.676-2.029-4.676-4.537v-0.025c0-2.507,1.98-4.562,4.702-4.562
			c2.722,0,4.675,2.029,4.675,4.537v0.025C171.633,219.304,169.654,221.358,166.932,221.358z M169.604,216.794
			c0-1.513-1.109-2.772-2.672-2.772c-1.563,0-2.647,1.235-2.647,2.747v0.025c0,1.513,1.109,2.772,2.672,2.772
			c1.563,0,2.647-1.235,2.647-2.747V216.794z"/>
		<path style="fill:#B89753;" d="M182.07,221.358c-2.722,0-4.676-2.029-4.676-4.537v-0.025c0-2.507,1.98-4.562,4.702-4.562
			s4.675,2.029,4.675,4.537v0.025C186.771,219.304,184.793,221.358,182.07,221.358z M184.742,216.794
			c0-1.513-1.109-2.772-2.672-2.772c-1.563,0-2.647,1.235-2.647,2.747v0.025c0,1.513,1.109,2.772,2.672,2.772
			c1.563,0,2.647-1.235,2.647-2.747V216.794z"/>
		<path style="fill:#B89753;" d="M199.819,221.206v-5.76l-2.484,3.768h-0.05l-2.458-3.73v5.722h-1.903v-8.822h2.093l2.318,3.73
			l2.319-3.73h2.093v8.822L199.819,221.206L199.819,221.206z"/>
		<path style="fill:#B89753;" d="M211.429,221.332c-1.336,0-2.684-0.467-3.743-1.412l1.147-1.373
			c0.794,0.656,1.626,1.071,2.634,1.071c0.794,0,1.271-0.315,1.271-0.832v-0.025c0-0.492-0.302-0.744-1.776-1.122
			c-1.778-0.453-2.924-0.945-2.924-2.697v-0.025c0-1.601,1.286-2.659,3.087-2.659c1.286,0,2.382,0.403,3.278,1.122l-1.008,1.462
			c-0.782-0.542-1.55-0.87-2.294-0.87c-0.743,0-1.134,0.341-1.134,0.769v0.025c0,0.579,0.379,0.769,1.903,1.16
			c1.79,0.466,2.799,1.109,2.799,2.647v0.026C214.667,220.349,213.332,221.332,211.429,221.332z"/>
	</g>
	<g>
		<path style="fill:#B89753;" d="M115.057,60.375c-2.205-2.43-3.267-6.005-2.794-9.474c0.225-1.734,0.802-3.448,1.695-5.004
			c0.88-1.552,2.127-2.989,3.533-4.069c1.438-1.137,3.016-2.03,4.747-2.679c1.728-0.626,3.576-0.991,5.452-1.041
			c3.753-0.118,7.638,1.101,10.725,3.521c0.777,0.6,1.5,1.271,2.149,2.006c0.328,0.375,0.636,0.73,0.946,1.156l0.366,0.487
			l0.421,0.625c1.095,1.644,1.887,3.359,2.492,5.202c1.147,3.675,1.3,7.663,0.454,11.439c-0.836,3.781-2.659,7.351-5.228,10.299
			c-0.649,0.731-1.33,1.443-2.063,2.086c-0.359,0.334-0.751,0.628-1.126,0.944l-1.062,0.799l-1.253,0.846l-1.224,0.743l-1.26,0.683
			l-1.296,0.614c-3.496,1.572-7.346,2.399-11.228,2.409c-3.877,0.009-7.798-0.77-11.369-2.442c-3.577-1.647-6.809-4.115-9.331-7.156
			c-0.318-0.378-0.614-0.773-0.918-1.16l-0.055-0.073l-0.14-0.197l-0.085-0.127l-0.166-0.252l-0.344-0.506l-0.175-0.252
			c-0.056-0.088-0.136-0.222-0.204-0.332l-0.413-0.7l-0.407-0.704L95.565,67.4c-0.888-1.78-1.594-3.657-2.055-5.582
			c-0.919-3.848-1.02-7.809-0.413-11.549c0.59-3.747,1.763-7.308,3.355-10.609c0.786-1.66,1.698-3.247,2.697-4.766
			c0.997-1.522,2.064-2.989,3.242-4.37c2.324-2.778,4.977-5.281,7.922-7.417l-0.281,0.232l0.395-0.326l0.336-0.267l0.653-0.492
			c0.433-0.316,0.866-0.624,1.3-0.918c0.867-0.592,1.742-1.145,2.625-1.676c1.763-1.056,3.559-2.025,5.408-2.885
			c1.838-0.867,3.711-1.651,5.611-2.348c1.898-0.697,3.815-1.331,5.769-1.853c3.887-1.049,7.849-1.801,11.829-2.195
			c3.983-0.399,7.98-0.487,11.945-0.254c1.983,0.12,3.95,0.311,5.911,0.56c1.957,0.279,3.9,0.606,5.826,1.007
			c1.92,0.403,3.832,0.858,5.713,1.403c1.882,0.527,3.743,1.12,5.577,1.768c1.825,0.671,3.648,1.35,5.424,2.127
			c1.779,0.761,3.53,1.589,5.262,2.446c1.73,0.854,3.428,1.76,5.091,2.722l2.484,1.469c0.815,0.501,1.623,1.028,2.425,1.541
			l-2.679-1.033l-2.684-0.99c-1.801-0.624-3.593-1.253-5.402-1.822s-3.619-1.108-5.452-1.569c-1.82-0.487-3.652-0.919-5.485-1.314
			c-1.839-0.368-3.666-0.743-5.513-1.014c-1.842-0.292-3.69-0.506-5.535-0.698c-3.69-0.349-7.381-0.471-11.044-0.352
			c-3.665,0.154-7.305,0.489-10.878,1.15c-3.567,0.649-7.089,1.522-10.486,2.697c-3.403,1.169-6.724,2.562-9.859,4.251
			c-1.572,0.842-3.104,1.737-4.575,2.694c-0.733,0.479-1.455,0.974-2.144,1.485c-0.348,0.254-0.681,0.514-1.012,0.77l-0.471,0.386
			l-0.224,0.184c-0.056,0.051-0.15,0.137-0.144,0.135l0.016-0.006l-0.303,0.239c-2.255,1.787-4.34,3.818-6.153,6.079
			c-1.807,2.255-3.346,4.726-4.548,7.304c-1.222,2.57-2.07,5.275-2.475,7.968c-0.4,2.694-0.34,5.365,0.235,7.862
			c0.285,1.25,0.731,2.443,1.287,3.579l0.207,0.429l0.204,0.359l0.2,0.357c0.034,0.063,0.05,0.106,0.11,0.191l0.169,0.254
			l0.578,0.864c0.196,0.254,0.378,0.519,0.581,0.77c1.594,2.008,3.627,3.643,5.949,4.779c2.31,1.131,4.896,1.792,7.529,1.877
			c2.637,0.09,5.31-0.371,7.82-1.325l0.93-0.383l0.918-0.434l0.889-0.479l0.808-0.475l0.925-0.619
			c0.255-0.199,0.532-0.376,0.782-0.589c0.506-0.403,0.993-0.836,1.455-1.295c0.927-0.92,1.729-1.966,2.412-3.088
			c0.661-1.133,1.215-2.345,1.592-3.615c0.791-2.531,0.909-5.279,0.339-7.889c-0.285-1.288-0.752-2.609-1.359-3.746l-0.216-0.418
			l-0.323-0.518c-0.141-0.251-0.343-0.537-0.53-0.795c-0.374-0.526-0.816-1.008-1.282-1.466c-1.851-1.843-4.441-2.991-7.198-3.27
			c-2.753-0.271-5.691,0.383-8.189,1.861c-1.288,0.748-2.386,1.664-3.318,2.819c-0.921,1.147-1.632,2.493-2.064,3.95
			c-0.42,1.455-0.592,3.016-0.429,4.579C113.741,57.402,114.246,58.954,115.057,60.375z"/>
		<path style="fill:#B89753;" d="M105.635,82.745c0,0,0.18,0.103,0.526,0.303c0.344,0.204,0.863,0.483,1.563,0.81
			c1.377,0.658,3.49,1.491,6.272,1.984c1.39,0.24,2.944,0.403,4.635,0.437c1.726,0.016,3.521-0.088,5.453-0.344
			c3.84-0.523,8.045-1.817,12.1-4.17c4.069-2.326,7.943-5.718,11.446-9.844c3.503-4.14,6.667-8.986,9.578-14.266
			c1.466-2.634,2.875-5.374,4.289-8.197c1.413-2.829,2.819-5.707,4.475-8.705c0.421-0.751,0.859-1.509,1.36-2.288
			c0.116-0.19,0.254-0.391,0.386-0.587l0.426-0.621c0.244-0.344,0.422-0.638,0.79-1.088c0.664-0.865,1.294-1.56,2.005-2.262
			c0.357-0.348,0.711-0.692,1.093-1.012c0.371-0.332,0.757-0.649,1.156-0.946c1.592-1.212,3.339-2.242,5.202-3.01
			c1.859-0.77,3.808-1.287,5.781-1.584c7.934-1.189,16,1.407,21.929,6.338l0.285,0.23l0.135,0.114l0.216,0.188l0.451,0.407
			l0.237,0.22l0.302,0.294l0.59,0.595c0.689,0.751,1.342,1.53,1.921,2.363c1.184,1.648,2.111,3.46,2.819,5.33
			c1.394,3.759,1.729,7.816,1.09,11.628c-0.609,3.824-2.284,7.381-4.567,10.261c-0.279,0.368-0.589,0.706-0.887,1.054l-0.11,0.127
			l-0.173,0.185l-0.188,0.2c-0.132,0.13-0.245,0.247-0.46,0.454l-0.577,0.545l-0.539,0.458c-0.368,0.299-0.743,0.586-1.128,0.855
			c-1.534,1.08-3.211,1.911-4.931,2.475c-3.452,1.143-7.076,1.163-10.304,0.332c-3.25-0.848-6.068-2.556-8.204-4.711
			c-2.22-2.262-3.569-5.087-4.005-7.831c-0.445-2.756-0.065-5.417,0.859-7.627c0.466-1.105,1.045-2.11,1.706-2.986
			c0.68-0.883,1.38-1.607,2.205-2.274c1.618-1.287,3.411-1.946,5.017-2.183c1.618-0.238,3.061-0.061,4.226,0.268
			c1.163,0.344,2.064,0.833,2.728,1.279c0.674,0.454,1.121,0.871,1.397,1.169c0.285,0.294,0.413,0.451,0.413,0.451
			s-0.175-0.113-0.526-0.304c-0.348-0.195-0.88-0.454-1.588-0.701c-0.711-0.238-1.617-0.442-2.659-0.458
			c-1.04-0.033-2.224,0.135-3.408,0.602c-1.184,0.454-2.345,1.254-3.267,2.35c-0.899,1.117-1.66,2.595-1.993,4.182
			c-0.318,1.597-0.28,3.348,0.293,4.995c0.548,1.639,1.581,3.157,3.023,4.229c1.5,1.184,3.38,1.98,5.347,2.261
			c1.97,0.304,4.056,0.013,5.933-0.777c0.939-0.4,1.826-0.937,2.612-1.596c0.199-0.165,0.391-0.336,0.574-0.518l0.275-0.271
			c0.069-0.08,0.141-0.158,0.209-0.23c0.05-0.047,0.182-0.204,0.303-0.344l0.182-0.209l0.047-0.051
			c-0.018,0.021,0.103-0.118-0.034,0.031l0.069-0.085c0.166-0.229,0.354-0.442,0.506-0.681c1.311-1.848,2.132-4.035,2.442-6.321
			c0.317-2.293-0.018-4.681-0.83-6.881c-0.859-2.208-2.254-4.144-4.159-5.733c-1.996-1.698-4.37-2.978-6.877-3.832
			c-2.517-0.852-5.202-1.134-7.785-0.913c-2.594,0.235-5.068,1.09-7.227,2.475c-0.276,0.17-0.536,0.354-0.793,0.552
			c-0.267,0.184-0.513,0.394-0.759,0.602c-0.495,0.405-0.99,0.901-1.372,1.287c-0.188,0.157-0.476,0.526-0.733,0.827l-0.197,0.235
			l-0.047,0.058c-0.085,0.103,0.047-0.073,0.022-0.035l-0.076,0.103c-0.101,0.141-0.204,0.269-0.307,0.417
			c-0.411,0.573-0.818,1.203-1.223,1.848c-1.621,2.6-3.168,5.437-4.782,8.197c-1.604,2.774-3.232,5.525-4.94,8.189
			c-3.443,5.308-7.161,10.295-11.367,14.464c-4.162,4.194-8.817,7.552-13.561,9.704c-4.762,2.149-9.523,3.075-13.677,3.143
			c-2.07,0.055-4.04-0.098-5.783-0.328c-1.771-0.23-3.377-0.6-4.783-1.037c-2.823-0.883-4.858-1.997-6.158-2.851
			c-0.651-0.428-1.131-0.783-1.441-1.032C105.798,82.873,105.635,82.745,105.635,82.745z"/>
		<path style="fill:#B89753;" d="M178.149,44.814c0,0-0.103,0.128-0.314,0.379c-0.209,0.249-0.523,0.625-0.878,1.14
			c-0.717,1.024-1.698,2.596-2.468,4.787c-0.802,2.179-1.426,4.929-1.895,8.155c-0.116,0.802-0.256,1.66-0.354,2.493
			c-0.11,0.867-0.22,1.761-0.294,2.647c-0.175,1.783-0.263,3.696-0.269,5.673c-0.022,3.966,0.351,8.252,1.044,12.736
			c0.73,4.48,1.804,9.156,3.202,13.926c1.365,4.79,3.095,9.62,4.825,14.675c0.212,0.642,0.421,1.283,0.634,1.927l0.331,1.04
			c0.097,0.332,0.196,0.598,0.286,1.024c0.209,0.802,0.352,1.526,0.451,2.293c0.06,0.379,0.097,0.761,0.128,1.147
			c0.034,0.382,0.05,0.765,0.06,1.152c0.102,3.086-0.51,6.213-1.755,9.071c-1.223,2.87-3.118,5.459-5.455,7.539
			c-2.332,2.093-5.147,3.618-8.1,4.52c-3.045,0.952-6.367,1.018-9.417,0.288c-3.075-0.708-5.862-2.277-8.094-4.338
			c-2.238-2.061-3.851-4.693-4.76-7.442c-0.061-0.169-0.11-0.346-0.16-0.517l-0.166-0.582c-0.072-0.294-0.141-0.552-0.224-0.999
			c-0.149-0.795-0.217-1.486-0.237-2.237c-0.054-1.469,0.126-2.922,0.498-4.291c0.736-2.747,2.28-5.135,4.206-6.913
			c1.945-1.77,4.301-2.905,6.609-3.39c2.477-0.506,4.88-0.183,6.892,0.693c2.014,0.88,3.627,2.264,4.698,3.827
			c1.087,1.574,1.664,3.239,1.861,4.855c0.188,1.626-0.135,3.117-0.664,4.298c-0.53,1.195-1.244,2.105-1.964,2.762
			c-0.733,0.654-1.447,1.063-2.038,1.334c-0.597,0.268-1.073,0.4-1.402,0.47c-0.319,0.072-0.487,0.097-0.487,0.097
			s0.158-0.065,0.45-0.213c0.288-0.145,0.716-0.382,1.206-0.746c0.492-0.373,1.053-0.888,1.554-1.593
			c0.509-0.691,0.965-1.58,1.203-2.617c0.247-1.036,0.238-2.22-0.072-3.395c-0.332-1.167-0.997-2.41-1.958-3.405
			c-0.971-0.993-2.224-1.82-3.671-2.224c-1.426-0.412-3.054-0.419-4.501,0.069c-1.601,0.51-3.07,1.441-4.242,2.721
			c-1.175,1.27-2.008,2.909-2.357,4.659c-0.18,0.878-0.23,1.784-0.14,2.684c0.039,0.438,0.125,0.934,0.225,1.312
			c0.026,0.144,0.128,0.465,0.207,0.755l0.225,0.632c0.354,0.917,0.816,1.788,1.378,2.602c0.58,0.802,1.237,1.555,1.989,2.221
			c1.507,1.324,3.38,2.274,5.374,2.728c0.999,0.235,2.033,0.319,3.065,0.292c0.513-0.031,1.029-0.068,1.542-0.162
			c0.275-0.034,0.46-0.089,0.691-0.128l0.468-0.118l0.243-0.061l0.058-0.016c-0.135,0.038-0.009,0-0.025,0.006l0.101-0.031
			c4.238-1.235,7.949-4.337,9.911-8.439c0.993-2.036,1.541-4.291,1.628-6.569c0.013-0.286,0.016-0.572,0.009-0.858
			c0-0.285-0.018-0.569-0.043-0.855c-0.034-0.564-0.12-1.159-0.199-1.657c-0.023-0.232-0.118-0.604-0.183-0.918l-0.056-0.245
			c-0.008-0.034,0.025,0.084,0.005,0.006l-0.014-0.06l-0.033-0.116l-0.127-0.463c-0.182-0.628-0.36-1.253-0.54-1.88
			c-1.517-5.032-3.033-10.121-4.196-15.106c-1.156-4.995-2.014-9.903-2.437-14.605c-0.438-4.698-0.458-9.184-0.106-13.285
			c0.174-2.056,0.42-4.001,0.752-5.864c0.15-0.939,0.351-1.814,0.545-2.663c0.188-0.883,0.398-1.683,0.587-2.493
			c0.786-3.208,1.656-6.014,2.732-8.16c1.04-2.167,2.205-3.665,3.048-4.614c0.422-0.479,0.777-0.811,1.012-1.033
			C178.027,44.928,178.149,44.814,178.149,44.814z"/>
		<path style="fill:#B89753;" d="M144.574,136.541c0,0-0.085-0.047-0.257-0.141c-0.173-0.089-0.415-0.235-0.739-0.433
			c-0.633-0.405-1.525-1.071-2.53-2.086c-1.01-1.007-2.065-2.412-3.033-4.166c-0.974-1.751-1.83-3.865-2.464-6.252
			c-0.632-2.383-1.07-5.038-1.228-7.865c-0.161-2.829-0.055-5.826,0.36-8.907c0.424-3.078,1.164-6.238,2.332-9.36
			c0.577-1.56,1.306-3.096,2.099-4.616c0.476-0.88,0.955-1.594,1.509-2.346c0.555-0.735,1.152-1.441,1.82-2.097
			c1.328-1.3,2.85-2.45,4.576-3.299c1.732-0.84,3.649-1.441,5.67-1.555c2.008-0.12,4.116,0.207,5.967,1.04l0.352,0.157l0.167,0.082
			l0.207,0.108c0.178,0.097,0.301,0.152,0.582,0.323l0.366,0.22l0.318,0.212c0.215,0.14,0.415,0.293,0.616,0.443
			c0.804,0.611,1.522,1.325,2.128,2.108c2.476,3.126,3.163,7.266,2.179,10.678c-0.241,0.855-0.564,1.666-0.961,2.417l-0.073,0.141
			l-0.069,0.13l-0.03,0.054l-0.132,0.209c-0.097,0.144-0.26,0.411-0.386,0.589c-0.263,0.356-0.53,0.7-0.83,1.014
			c-1.163,1.274-2.619,2.144-4.088,2.62c-1.47,0.492-2.969,0.562-4.316,0.362c-0.676-0.101-1.322-0.288-1.907-0.518
			c-0.299-0.116-0.582-0.245-0.855-0.386c-0.135-0.069-0.269-0.137-0.398-0.216l-0.188-0.114l-0.05-0.03l-0.09-0.05l-0.022-0.014
			l-0.072-0.055c-0.204-0.16-0.354-0.254-0.629-0.49c-0.257-0.207-0.483-0.415-0.661-0.619c-0.386-0.398-0.696-0.842-0.943-1.278
			c-0.507-0.875-0.761-1.76-0.842-2.553c-0.178-1.594,0.22-2.767,0.579-3.461c0.09-0.169,0.173-0.322,0.245-0.451
			c0.078-0.125,0.16-0.225,0.216-0.306c0.116-0.158,0.177-0.24,0.177-0.24s-0.017,0.101-0.058,0.294
			c-0.043,0.188-0.081,0.471-0.116,0.833c-0.041,0.721,0.029,1.796,0.561,2.897c0.557,1.098,1.52,2.149,3.007,2.629l0.085,0.033
			l0.022,0.009c-0.137-0.072-0.029-0.016-0.054-0.033l0.034,0.009l0.144,0.041c0.09,0.03,0.188,0.051,0.284,0.073
			c0.19,0.047,0.387,0.08,0.587,0.103c0.391,0.051,0.795,0.054,1.199,0.025c0.812-0.05,1.623-0.314,2.356-0.711
			c0.733-0.413,1.372-1.002,1.835-1.704c0.122-0.173,0.22-0.362,0.319-0.548l0.103-0.257l0.11-0.225l0.022-0.058
			c-0.056,0.114-0.016,0.021-0.022,0.039l0.006-0.022l0.029-0.082c0.173-0.443,0.292-0.907,0.364-1.377
			c0.294-1.88-0.251-3.946-1.554-5.444c-1.278-1.504-3.299-2.412-5.48-2.315c-2.2,0.073-4.631,1.127-6.633,2.809
			c-0.5,0.42-0.991,0.87-1.441,1.356c-0.447,0.473-0.892,1.046-1.24,1.509c-0.833,1.188-1.482,2.488-2.093,3.808
			c-1.219,2.645-2.111,5.441-2.744,8.209c-0.633,2.766-0.993,5.513-1.134,8.132c-0.119,2.619-0.041,5.114,0.275,7.385
			c0.299,2.276,0.816,4.324,1.452,6.083c0.636,1.762,1.441,3.199,2.199,4.321c0.769,1.122,1.516,1.911,2.052,2.418
			c0.267,0.254,0.479,0.445,0.629,0.568C144.498,136.477,144.574,136.541,144.574,136.541z"/>
	</g>
</g>
</svg>
