<?xml version="1.0" encoding="iso-8859-1"?>
<!-- Generator: Adobe Illustrator 22.1.0, SVG Export Plug-In . SVG Version: 6.00 Build 0)  -->
<svg version="1.1" id="Layer_1" xmlns="http://www.w3.org/2000/svg" xmlns:xlink="http://www.w3.org/1999/xlink" x="0px" y="0px"
	 viewBox="0 0 300 250" style="enable-background:new 0 0 300 250;" xml:space="preserve">
<g>
	<g>
		<path style="fill:#3D3F3F;" d="M209.118,179.223c0.2,0.965,0.288,1.572,0.128,2.346c-0.16,0.774-0.795,1.95-1.873,2.798
			c-4.433,3.834-11.034,7.279-20.045,10.177c-7.177,2.412-17.075,3.868-29.502,4.49c-7.71-0.104-16.079-0.862-25.358-2.088
			c-5.822-0.891-12.488-2.545-25.298-4.924c-10.885-2.148-19.075-3.387-24.774-3.678c1.988-3.541,3.573-7.001,5.042-10.017
			c3.172-6.919,8.504-22.632,15.836-46.904c9.943-1.418,18.872-4.715,27.146-10.175c15.073-9.991,21.83-21.822,20.189-35.895
			c-1.593-12.83-10.813-19.079-22.913-15.966c-2.965,0.819-6.407,2.362-10.286,4.831c-7.957,4.977-15.198,16.491-21.519,34.497
			l-4.814,15.191c-7.872-1.723-16.598-5.568-24.924-9.496c-5.227-2.058-9.688-3.439-13.1-3.78c-6.18-0.61-11.591,0.502-16.23,3.337
			c-6.076,3.963-8.825,7.87-8.043,11.677c0.123,0.601,0.448,1.162,0.972,1.68c1.669-3.058,4.988-5.202,10.038-6.032
			c3.247-0.459,7.219-0.44,11.756,0.298c4.095,0.621,10.283,2.272,18.521,4.755c8.239,2.483,14.425,4.136,18.721,4.714
			c-7.137,23.189-12.032,37.977-14.644,44.571c-1.941,4.785-4.005,8.968-5.95,12.711c-7.262,0.239-14.197,1.038-20.451,2.115
			c-7.455,1.324-12.978,3.922-16.167,7.71c-2.553,2.821-2.978,5.833-1.517,8.874c2.598,5.523,9.828,7.169,21.331,5.222
			c2.848-0.377,5.41-1.112,7.575-1.766c6.488-1.96,12.401-6.727,17.818-13.897c5.982,0.651,11.203,1.665,15.422,2.886
			c11.289,3.11,22.116,6.19,32.503,8.772c16.637,4.135,30.624,5.395,51.777-0.414c6.889-2.043,13.613-4.888,20.375-8.575
			c7.039-3.954,11.579-7.864,13.74-11.964C213.696,180.723,209.118,179.223,209.118,179.223z M105.64,123.627l9.001-27.329
			c3.956-10.212,8.897-16.657,14.338-19.655c6.961-3.729,13.602,0.128,13.404,8.313c-0.208,6.1-2.78,12.894-8.114,20.465
			c-8.838,12.887-18.551,19.478-29.142,19.775L105.64,123.627z M56.363,203.931c-3.92,2.267-7.845,3.491-11.734,3.873
			c-4.491,0.505-7.066-0.844-7.726-4.051c-0.659-3.206,1.576-5.544,6.903-7.057c3.966-1.024,10.986-1.423,21.099-0.997
			C63.877,198.834,61.084,201.498,56.363,203.931z"/>
		<path style="fill:#3D3F3F;" d="M266.738,135.644l-7.268,6.298c-3.714,3.271-6.353,4.647-7.88,4.336
			c-0.201,0.041,1.062-3.979,3.988-12.098c5.691-15.999,8.694-24.761,8.606-26.203c-0.047-1.244-1.013-1.881-2.859-1.71
			c-2.928-0.025-5.128,1.472-6.678,4.087c-0.637,0.966-1.587,3.46-3.007,7.72c-1.447-8.056-5.477-11.405-12.09-10.045
			c-5.41,1.112-10.562,5.512-15.297,12.959c-4.829,7.502-7.37,14.441-7.664,20.767l-0.013-0.015c-0.33,4.286-0.942,4.678-1.9,5.645
			l-5.699,4.938c-3.714,3.271-6.353,4.647-8.08,4.377c-0.2,0.041,1.062-3.979,3.988-12.098c6.288-17.164,9.248-26.128,9.243-27.17
			c-0.006-1.044-0.972-1.68-3.059-1.669c-2.687,0.134-4.609,0.948-5.562,2.397c-3.172,6.918-5.468,13.028-7.084,18.372l-3.019,9.15
			l0,0l0,0l-0.441,1.338c-0.84,2.386-1.511,3.275-2.298,4.082c-7.756,7.069-14.331,11.065-20.14,11.848
			c-6.493,0.919-10.317-1.429-11.511-7.239c-0.948-4.609,0.268-9.871,3.363-16.147c2.86-5.391,5.972-8.537,9.378-9.237
			c4.209-0.866,6.264,1.008,6.169,5.623c-0.023,2.928-1.693,5.988-4.563,9.292c4.686-1.59,9.872-6.833,10.729-11.812
			c1.245-7.147-4.847-13.413-12.661-11.807c-5.81,1.194-10.963,5.595-15.497,13c-4.645,7.57-7.132,14.513-7.497,20.779
			c-0.022,0.148-0.037,0.336-0.042,0.595c-0.001,0.048-0.003,0.086-0.003,0.133c-0.002,0.053-0.003,0.105-0.003,0.157
			c-0.05,2.778-0.155,4.09-1.887,5.693c-0.158,0.132-0.345,0.291-0.509,0.429c-0.142,0.117-0.263,0.229-0.424,0.351
			c-0.245,0.188-0.382,0.31-0.471,0.403c-0.874,0.742-1.803,1.54-2.839,2.464c-3.714,3.271-6.353,4.647-7.88,4.336
			c-0.401,0.082,0.861-3.937,3.988-12.098l6.134-15.881c2.294-6.109,3.557-10.13,3.468-11.572c-0.006-1.044-1.171-1.64-3.058-1.669
			c-2.728-0.066-4.65,0.747-5.764,2.438c-3.567,8.042-5.98,14.596-7.678,19.539c-2.448,7.394-4.989,12.302-7.983,15.007
			c-7.187,6.699-11.783,9.731-13.952,9.344c-0.401,0.082,0.861-3.937,3.988-12.098l6.134-15.881
			c2.294-6.109,3.555-10.129,3.468-11.572c-0.006-1.044-1.173-1.639-3.058-1.669c-2.73-0.065-4.65,0.747-5.564,2.397
			c-2.187,3.582-4.84,9.975-7.878,19.581l-3.038,9.605c-2.642,8.479-3.981,13.14-4.016,13.983c0.058,3.329,1.231,4.968,3.917,4.834
			c4.733-0.346,9.335-2.337,14.008-6.014l5.595-4.282l2.551-2.236c-1.101,3.2-1.153,5.321-0.242,6.356
			c0.808,0.878,1.69,1.115,2.734,1.11c5.735-0.552,12.017-3.515,18.567-9.247c1.47-1.257,2.68-2.402,3.687-3.456
			c2.847,5.708,8.346,7.624,16.784,5.514c8.134-2.09,15.136-5.618,21.006-10.584c0.276-0.233,0.56-0.494,0.84-0.744
			c-0.039,0.169-0.069,0.308-0.077,0.379c0.099,3.53,1.272,5.169,3.917,4.834c5.735-0.552,11.817-3.474,18.366-9.206
			c2.199-1.878,3.841-3.519,5.008-4.941c2.424,5.982,6.222,8.481,11.773,7.339c4.007-0.824,7.804-3.693,11.63-8.448
			c0.099,3.53,1.272,5.169,3.717,4.875c5.936-0.593,12.218-3.557,18.765-9.288c4.952-4.359,7.221-7.542,6.851-9.344
			C270.546,134.861,269.221,134.507,266.738,135.644z M245.642,136.64l-1.22,4.218c-2.584,4.708-5.578,7.413-8.783,8.072
			c-4.408,0.906-7.19-1.447-8.302-6.856c-0.865-4.208-0.049-9.388,2.527-15.139c2.736-5.993,6.008-9.38,10.215-10.245
			c3.007-0.618,5.139,0.613,6.399,3.697c1.137,2.48,1.714,5.285,1.488,8.257c-0.159,0.242-0.077,0.643-0.195,1.083L245.642,136.64z"
			/>
	</g>
	<g>
		<g>
			<path style="fill:#5FA2A3;" d="M214.226,94.081c0,0-7.957-18.582-6.958-34.785c1.6-15.872,5.406-43.528,5.406-43.528
				s9.079,22.978,8.629,39.481C221.455,72.084,214.226,94.081,214.226,94.081z"/>
			<path style="fill:#5FA2A3;" d="M219.167,98.38c0,0,3.224-19.257,10.584-32.355c7.347-13.078,15.573-30.362,15.573-30.362
				s0.461,22.974-5.26,36.969C233.662,86.254,219.167,98.38,219.167,98.38z"/>
			<path style="fill:#5FA2A3;" d="M209.639,99.775c0,0-4.686-16.905-12.141-26.061c-6.569-8.669-19.575-18.433-19.575-18.433
				s3.502,18.212,10.29,27.002C195.888,91.558,209.639,99.775,209.639,99.775z"/>
			<path style="fill:#5FA2A3;" d="M224.779,102.372c0,0,8.627-9.842,16.856-14.373c7.864-4.731,19.741-13.446,19.741-13.446
				s-8.221,17.855-16.301,22.468C236.63,101.434,224.779,102.372,224.779,102.372z"/>
			<path style="fill:#5FA2A3;" d="M205.023,104.206c0,0-9.995-6.497-19.383-7.851c-9.358-1.338-24.381-3.101-24.381-3.101
				s11.05,10.717,20.833,12.288C191.905,107.129,205.023,104.206,205.023,104.206z"/>
		</g>
	</g>
</g>
</svg>
