<?xml version="1.0" encoding="utf-8"?>
<!-- Generator: Adobe Illustrator 22.1.0, SVG Export Plug-In . SVG Version: 6.00 Build 0)  -->
<svg version="1.1" id="Layer_1" xmlns="http://www.w3.org/2000/svg" xmlns:xlink="http://www.w3.org/1999/xlink" x="0px" y="0px"
	 viewBox="0 0 201.7 176.1" style="enable-background:new 0 0 201.7 176.1;" xml:space="preserve">
<style type="text/css">
	.st0{fill:url(#SVGID_1_);}
	.st1{fill:url(#SVGID_2_);}
	.st2{fill:url(#SVGID_3_);}
	.st3{fill:url(#SVGID_4_);}
	.st4{fill:url(#SVGID_5_);}
	.st5{fill:url(#SVGID_6_);}
	.st6{fill:url(#SVGID_7_);}
	.st7{fill:url(#SVGID_8_);}
	.st8{fill:url(#SVGID_9_);}
	.st9{fill:url(#SVGID_10_);}
	.st10{fill:url(#SVGID_11_);}
	.st11{fill:url(#SVGID_12_);}
	.st12{fill:url(#SVGID_13_);}
	.st13{fill:url(#SVGID_14_);}
	.st14{fill:url(#SVGID_15_);}
	.st15{fill:url(#SVGID_16_);}
	.st16{fill:url(#SVGID_17_);}
	.st17{fill:url(#SVGID_18_);}
	.st18{fill:url(#SVGID_19_);}
	.st19{fill:url(#SVGID_20_);}
	.st20{fill:url(#SVGID_21_);}
	.st21{fill:url(#SVGID_22_);}
	.st22{fill:url(#SVGID_23_);}
	.st23{fill:url(#SVGID_24_);}
	.st24{fill:url(#SVGID_25_);}
	.st25{fill:url(#SVGID_26_);}
	.st26{fill:url(#SVGID_27_);}
	.st27{fill:url(#SVGID_28_);}
</style>
<g>
	<g>
		<g>
			<linearGradient id="SVGID_1_" gradientUnits="userSpaceOnUse" x1="13.295" y1="137.2868" x2="20.0811" y2="137.2868">
				<stop  offset="2.554798e-03" style="stop-color:#67B37F"/>
				<stop  offset="0.9956" style="stop-color:#72B190"/>
			</linearGradient>
			<path class="st0" d="M20.1,133.4v1.3h-1.6v-1.4c0-1.4-0.5-2.2-1.8-2.2c-1.2,0-1.8,0.8-1.8,2.2v8c0,1.4,0.6,2.2,1.8,2.2
				c1.2,0,1.8-0.8,1.8-2.2v-3h-1.6v-1.5h3.1v4.4c0,2.3-1.1,3.8-3.4,3.8c-2.3,0-3.4-1.5-3.4-3.8v-7.8c0-2.3,1.1-3.8,3.4-3.8
				C19,129.6,20.1,131.1,20.1,133.4z"/>
			<linearGradient id="SVGID_2_" gradientUnits="userSpaceOnUse" x1="24.2649" y1="137.2868" x2="31.309" y2="137.2868">
				<stop  offset="2.554798e-03" style="stop-color:#67B37F"/>
				<stop  offset="0.9956" style="stop-color:#72B190"/>
			</linearGradient>
			<path class="st1" d="M27.6,129.7c2.4,0,3.4,1.2,3.4,3.4v1.2c0,1.7-0.6,2.7-1.9,3.1c1.4,0.4,1.9,1.5,1.9,3.1v2.3
				c0,0.7,0,1.3,0.3,1.8h-1.7c-0.2-0.4-0.3-0.8-0.3-1.8v-2.4c0-1.7-0.8-2.2-2.2-2.2h-1.2v6.4h-1.7v-15.1H27.6z M27.2,136.9
				c1.3,0,2.1-0.4,2.1-2.1v-1.4c0-1.4-0.5-2.1-1.7-2.1h-1.6v5.6H27.2z"/>
			<linearGradient id="SVGID_3_" gradientUnits="userSpaceOnUse" x1="35.3421" y1="137.2868" x2="41.5462" y2="137.2868">
				<stop  offset="2.554798e-03" style="stop-color:#67B37F"/>
				<stop  offset="0.9956" style="stop-color:#72B190"/>
			</linearGradient>
			<path class="st2" d="M40.7,136.4v1.5H37v5.4h4.5v1.5h-6.2v-15.1h6.2v1.5H37v5.1H40.7z"/>
			<linearGradient id="SVGID_4_" gradientUnits="userSpaceOnUse" x1="45.6853" y1="137.2868" x2="51.8894" y2="137.2868">
				<stop  offset="2.554798e-03" style="stop-color:#67B37F"/>
				<stop  offset="0.9956" style="stop-color:#72B190"/>
			</linearGradient>
			<path class="st3" d="M51,136.4v1.5h-3.7v5.4h4.5v1.5h-6.2v-15.1h6.2v1.5h-4.5v5.1H51z"/>
			<linearGradient id="SVGID_5_" gradientUnits="userSpaceOnUse" x1="56.0075" y1="137.2868" x2="63.1158" y2="137.2868">
				<stop  offset="2.554798e-03" style="stop-color:#67B37F"/>
				<stop  offset="0.9956" style="stop-color:#72B190"/>
			</linearGradient>
			<path class="st4" d="M57.5,144.8H56v-15.1h2.1l3.5,10.9v-10.9h1.5v15.1h-1.7l-3.9-12.2V144.8z"/>
			<linearGradient id="SVGID_6_" gradientUnits="userSpaceOnUse" x1="73.3575" y1="137.2868" x2="80.4226" y2="137.2868">
				<stop  offset="2.554798e-03" style="stop-color:#67B37F"/>
				<stop  offset="0.9956" style="stop-color:#72B190"/>
			</linearGradient>
			<path class="st5" d="M75,138v6.8h-1.7v-15.1H75v6.8h3.7v-6.8h1.7v15.1h-1.7V138H75z"/>
			<linearGradient id="SVGID_7_" gradientUnits="userSpaceOnUse" x1="84.669" y1="137.3733" x2="91.4118" y2="137.3733">
				<stop  offset="2.554798e-03" style="stop-color:#67B37F"/>
				<stop  offset="0.9956" style="stop-color:#72B190"/>
			</linearGradient>
			<path class="st6" d="M86.3,141.3c0,1.4,0.5,2.2,1.8,2.2c1.2,0,1.7-0.8,1.7-2.2v-11.5h1.6v11.4c0,2.3-1.1,3.8-3.4,3.8
				c-2.3,0-3.4-1.5-3.4-3.8v-11.4h1.7V141.3z"/>
			<linearGradient id="SVGID_8_" gradientUnits="userSpaceOnUse" x1="95.6389" y1="137.2868" x2="105.2032" y2="137.2868">
				<stop  offset="2.554798e-03" style="stop-color:#67B37F"/>
				<stop  offset="0.9956" style="stop-color:#72B190"/>
			</linearGradient>
			<path class="st7" d="M101.2,144.8h-1.6l-2.5-12v12h-1.5v-15.1H98l2.5,12l2.4-12h2.3v15.1h-1.6v-12.1L101.2,144.8z"/>
			<linearGradient id="SVGID_9_" gradientUnits="userSpaceOnUse" x1="109.4959" y1="137.2868" x2="119.0602" y2="137.2868">
				<stop  offset="2.554798e-03" style="stop-color:#67B37F"/>
				<stop  offset="0.9956" style="stop-color:#72B190"/>
			</linearGradient>
			<path class="st8" d="M115.1,144.8h-1.6l-2.5-12v12h-1.5v-15.1h2.3l2.5,12l2.4-12h2.3v15.1h-1.6v-12.1L115.1,144.8z"/>
			<linearGradient id="SVGID_10_" gradientUnits="userSpaceOnUse" x1="123.3753" y1="137.2868" x2="125.0554" y2="137.2868">
				<stop  offset="2.554798e-03" style="stop-color:#67B37F"/>
				<stop  offset="0.9956" style="stop-color:#72B190"/>
			</linearGradient>
			<path class="st9" d="M125.1,129.7v15.1h-1.7v-15.1H125.1z"/>
			<linearGradient id="SVGID_11_" gradientUnits="userSpaceOnUse" x1="129.3436" y1="137.2868" x2="136.452" y2="137.2868">
				<stop  offset="2.554798e-03" style="stop-color:#67B37F"/>
				<stop  offset="0.9956" style="stop-color:#72B190"/>
			</linearGradient>
			<path class="st10" d="M130.9,144.8h-1.5v-15.1h2.1l3.5,10.9v-10.9h1.5v15.1h-1.7l-3.9-12.2V144.8z"/>
			<linearGradient id="SVGID_12_" gradientUnits="userSpaceOnUse" x1="140.6373" y1="137.2868" x2="147.4233" y2="137.2868">
				<stop  offset="2.554798e-03" style="stop-color:#67B37F"/>
				<stop  offset="0.9956" style="stop-color:#72B190"/>
			</linearGradient>
			<path class="st11" d="M147.4,133.4v1.3h-1.6v-1.4c0-1.4-0.5-2.2-1.8-2.2c-1.2,0-1.8,0.8-1.8,2.2v8c0,1.4,0.6,2.2,1.8,2.2
				c1.2,0,1.8-0.8,1.8-2.2v-3h-1.6v-1.5h3.1v4.4c0,2.3-1.1,3.8-3.4,3.8c-2.3,0-3.4-1.5-3.4-3.8v-7.8c0-2.3,1.1-3.8,3.4-3.8
				C146.3,129.6,147.4,131.1,147.4,133.4z"/>
			<linearGradient id="SVGID_13_" gradientUnits="userSpaceOnUse" x1="151.6056" y1="137.2868" x2="158.5214" y2="137.2868">
				<stop  offset="2.554798e-03" style="stop-color:#67B37F"/>
				<stop  offset="0.9956" style="stop-color:#72B190"/>
			</linearGradient>
			<path class="st12" d="M155,129.7c2.3,0,3.3,1.1,3.3,3.3v0.7c0,1.6-0.5,2.6-1.8,3c1.5,0.4,2,1.6,2,3.2v1.3c0,2.3-1.1,3.5-3.4,3.5
				h-3.5v-15.1H155z M154.6,136.1c1.3,0,2-0.4,2-2v-0.9c0-1.3-0.5-2-1.7-2h-1.7v4.9H154.6z M155.1,143.3c1.2,0,1.8-0.6,1.8-2v-1.3
				c0-1.7-0.7-2.2-2.1-2.2h-1.5v5.6H155.1z"/>
			<linearGradient id="SVGID_14_" gradientUnits="userSpaceOnUse" x1="162.6411" y1="137.2868" x2="164.3212" y2="137.2868">
				<stop  offset="2.554798e-03" style="stop-color:#67B37F"/>
				<stop  offset="0.9956" style="stop-color:#72B190"/>
			</linearGradient>
			<path class="st13" d="M164.3,129.7v15.1h-1.7v-15.1H164.3z"/>
			<linearGradient id="SVGID_15_" gradientUnits="userSpaceOnUse" x1="168.6303" y1="137.2868" x2="175.6759" y2="137.2868">
				<stop  offset="2.554798e-03" style="stop-color:#67B37F"/>
				<stop  offset="0.9956" style="stop-color:#72B190"/>
			</linearGradient>
			<path class="st14" d="M172,129.7c2.4,0,3.4,1.2,3.4,3.4v1.2c0,1.7-0.6,2.7-1.9,3.1c1.4,0.4,1.9,1.5,1.9,3.1v2.3
				c0,0.7,0,1.3,0.3,1.8H174c-0.2-0.4-0.3-0.8-0.3-1.8v-2.4c0-1.7-0.8-2.2-2.2-2.2h-1.2v6.4h-1.7v-15.1H172z M171.6,136.9
				c1.3,0,2.1-0.4,2.1-2.1v-1.4c0-1.4-0.5-2.1-1.7-2.1h-1.6v5.6H171.6z"/>
			<linearGradient id="SVGID_16_" gradientUnits="userSpaceOnUse" x1="179.7076" y1="137.2868" x2="186.6667" y2="137.2868">
				<stop  offset="2.554798e-03" style="stop-color:#67B37F"/>
				<stop  offset="0.9956" style="stop-color:#72B190"/>
			</linearGradient>
			<path class="st15" d="M183.2,129.7c2.3,0,3.4,1.4,3.4,3.7v7.6c0,2.3-1.1,3.7-3.4,3.7h-3.5v-15.1H183.2z M183.2,143.3
				c1.2,0,1.8-0.8,1.8-2.1v-7.8c0-1.4-0.6-2.1-1.8-2.1h-1.8v12H183.2z"/>
		</g>
		<g>
			<linearGradient id="SVGID_17_" gradientUnits="userSpaceOnUse" x1="77.9054" y1="155.3701" x2="82.2802" y2="155.3701">
				<stop  offset="2.554798e-03" style="stop-color:#67B37F"/>
				<stop  offset="0.9956" style="stop-color:#72B190"/>
			</linearGradient>
			<path class="st16" d="M81.7,155v1.1h-2.5v4.8h-1.2v-11h4.4v1.1h-3.1v4H81.7z"/>
			<linearGradient id="SVGID_18_" gradientUnits="userSpaceOnUse" x1="86.1925" y1="155.3701" x2="92.1877" y2="155.3701">
				<stop  offset="2.554798e-03" style="stop-color:#67B37F"/>
				<stop  offset="0.9956" style="stop-color:#72B190"/>
			</linearGradient>
			<path class="st17" d="M87.8,158.7l-0.4,2.2h-1.1l2.1-11h1.8l2.1,11H91l-0.4-2.2H87.8z M87.9,157.6h2.5l-1.2-6.4L87.9,157.6z"/>
			<linearGradient id="SVGID_19_" gradientUnits="userSpaceOnUse" x1="96.6043" y1="155.3701" x2="101.7505" y2="155.3701">
				<stop  offset="2.554798e-03" style="stop-color:#67B37F"/>
				<stop  offset="0.9956" style="stop-color:#72B190"/>
			</linearGradient>
			<path class="st18" d="M99.1,149.9c1.7,0,2.5,0.9,2.5,2.5v0.9c0,1.2-0.4,2-1.4,2.3c1,0.3,1.4,1.1,1.4,2.3v1.7c0,0.5,0,0.9,0.2,1.3
				h-1.2c-0.1-0.3-0.2-0.6-0.2-1.3v-1.7c0-1.2-0.6-1.6-1.6-1.6h-0.9v4.7h-1.2v-11H99.1z M98.7,155.1c1,0,1.6-0.3,1.6-1.5v-1.1
				c0-1-0.4-1.5-1.3-1.5h-1.2v4.1H98.7z"/>
			<linearGradient id="SVGID_20_" gradientUnits="userSpaceOnUse" x1="106.2431" y1="155.3701" x2="113.2306" y2="155.3701">
				<stop  offset="2.554798e-03" style="stop-color:#67B37F"/>
				<stop  offset="0.9956" style="stop-color:#72B190"/>
			</linearGradient>
			<path class="st19" d="M110.3,160.9h-1.2l-1.8-8.8v8.8h-1.1v-11h1.7l1.8,8.8l1.7-8.8h1.7v11h-1.2V152L110.3,160.9z"/>
			<linearGradient id="SVGID_21_" gradientUnits="userSpaceOnUse" x1="117.771" y1="155.3701" x2="122.7277" y2="155.3701">
				<stop  offset="2.554798e-03" style="stop-color:#67B37F"/>
				<stop  offset="0.9956" style="stop-color:#72B190"/>
			</linearGradient>
			<path class="st20" d="M122.7,152.5v0.3h-1.2v-0.4c0-1-0.4-1.6-1.3-1.6c-0.9,0-1.3,0.6-1.3,1.6c0,2.5,3.7,2.7,3.7,5.8
				c0,1.7-0.8,2.8-2.5,2.8c-1.7,0-2.5-1.1-2.5-2.8v-0.6h1.1v0.7c0,1,0.4,1.6,1.3,1.6c0.9,0,1.3-0.6,1.3-1.6c0-2.5-3.7-2.7-3.7-5.8
				c0-1.7,0.8-2.8,2.4-2.8C121.9,149.8,122.7,150.8,122.7,152.5z"/>
		</g>
	</g>
	<g>
		<linearGradient id="SVGID_22_" gradientUnits="userSpaceOnUse" x1="23.3789" y1="81.4905" x2="169.5383" y2="81.4905">
			<stop  offset="2.554798e-03" style="stop-color:#67B37F"/>
			<stop  offset="0.9956" style="stop-color:#72B190"/>
		</linearGradient>
		<path class="st21" d="M135.9,117.2c-11.3-0.9-22.6-1.3-33.9-1.3c0,0-0.1,0-0.1,0c-11.3,0-22.6,0.4-33.8,1.3c-0.2,0-0.5,0-0.7,0.1
			c2.8-4.4,7.2-12.4,7.2-12.4c-0.1,1.3-0.7,6.5-1.6,8.7c8.4-5.8,15.3-11.2,15.5-10.6c30.7-4.1,33.1-33.9,33-35.1
			c1.3-5.8,2.7-9.7,6.4-13.4c5.2-5.4,21.4-6.3,26-6.6c-17-1.5-23.9,0.5-26,0.7c-1.4-0.9-7.8-5.3-13.7-4.5
			c-9.8,1.4-11.2,8.9-11.8,12.6C90.6,46.2,73.7,41.8,73.7,41.8s4.9,10.3,8.3,11c2,0.6,6,1.3,7.4,2c-0.9-0.1-3.4,0.5-4.5,0.4
			c3.5,1.2,8.6,4.5,10.4,5.9c1-0.8,3.1-2,5.8-2.7c-2.9,1.6-6.1,5.5-6.1,5.5C67.3,47.1,30.5,44.7,23.4,45.6
			c5,6.9,22.6,16.6,28.3,17.8c2.5-0.5,12.5-1.4,16.2-1.4c-4.1,0.6-10,2.9-12.4,4.3c3.5,6.8,16.7,9.5,16.7,9.5l9.3-4.8
			c0,0-5.4,5.3-6.3,6.4c0,1.7,3.4,4.4,4.6,4.4c-1.5,1.7-3.9,8.1-4.2,10.4c-1.3,3.1-13,20.8-16.1,25.5c-8.4,0.8-16.7,1.9-25,3.3
			c0,0-0.1,0-0.1,0c0,0,0,0,0,0c0,0,0,0,0,0l33.8-0.9c11.3-0.2,22.5-0.4,33.7-0.4c11.2,0,22.5,0.1,33.7,0.4l33.6,0.9
			c0.1,0,0.2,0,0.2,0c0,0,0,0,0,0h0C158.4,119.3,147.2,118,135.9,117.2z"/>
		<linearGradient id="SVGID_23_" gradientUnits="userSpaceOnUse" x1="41.7209" y1="64.0771" x2="173.0618" y2="64.0771">
			<stop  offset="2.554798e-03" style="stop-color:#67B37F"/>
			<stop  offset="0.9956" style="stop-color:#72B190"/>
		</linearGradient>
		<path class="st22" d="M45.3,44.6c0.9-1.2,1.7-2.4,2.7-3.6c1.8-2.3,3.9-4.5,5.9-6.6c4.3-4.1,9-7.7,14.2-10.6
			c5.1-2.9,10.7-5.2,16.4-6.7C90.2,15.7,96.1,15,102,15c5.9,0,11.8,0.7,17.5,2.2c5.7,1.5,11.2,3.7,16.4,6.7
			c5.2,2.9,9.9,6.5,14.2,10.6c2.1,2.1,4.1,4.3,5.9,6.6c1,1.1,1.8,2.4,2.7,3.6c0.4,0.6,0.8,1.2,1.2,1.9l0.6,0.9
			c0.2,0.3,0.4,0.6,0.6,1l1.1,1.9l1,2l0.5,1l0.5,1l0.9,2l0.8,2.1l0.4,1l0.4,1.1l0.8,2.1l0.7,2.1c1.7,5.7,2.6,11.7,2.8,17.7
			c0.4,12-2.3,24.1-7.9,34.9c6.4-10.4,9.8-22.6,9.9-34.9c0.1-12.3-3-24.8-9.2-35.5c-6.1-10.8-15.2-19.9-26-26.2
			c-5.4-3.2-11.2-5.5-17.3-7.2c-6-1.6-12.3-2.4-18.5-2.5c-6.2,0.1-12.5,0.8-18.5,2.5c-6,1.7-11.9,4-17.3,7.2
			c-9.9,5.8-18.4,13.9-24.5,23.6C42.9,44.3,44.1,44.5,45.3,44.6C45.3,44.7,45.3,44.7,45.3,44.6z"/>
		<linearGradient id="SVGID_24_" gradientUnits="userSpaceOnUse" x1="30.9158" y1="87.6236" x2="40.8151" y2="87.6236">
			<stop  offset="2.554798e-03" style="stop-color:#67B37F"/>
			<stop  offset="0.9956" style="stop-color:#72B190"/>
		</linearGradient>
		<path class="st23" d="M35.7,64.7l0.7-2.1l0.7-2.1l0.3-1c-0.8-0.5-1.7-1-2.5-1.5c-2.8,7.8-4.1,16.1-4.1,24.3
			c0.1,12.3,3.5,24.6,9.9,34.9c-5.6-10.8-8.3-22.9-7.9-34.9C33.1,76.3,34,70.4,35.7,64.7z"/>
		<linearGradient id="SVGID_25_" gradientUnits="userSpaceOnUse" x1="34.4483" y1="154.4621" x2="72.8992" y2="154.4621">
			<stop  offset="2.554798e-03" style="stop-color:#67B37F"/>
			<stop  offset="0.9956" style="stop-color:#72B190"/>
		</linearGradient>
		<polygon class="st24" points="34.4,155 72.9,155 72.9,153.9 		"/>
		<linearGradient id="SVGID_26_" gradientUnits="userSpaceOnUse" x1="46.1014" y1="157.5689" x2="72.8907" y2="157.5689">
			<stop  offset="2.554798e-03" style="stop-color:#67B37F"/>
			<stop  offset="0.9956" style="stop-color:#72B190"/>
		</linearGradient>
		<polygon class="st25" points="72.9,158.2 72.9,157 46.1,157.4 		"/>
		<linearGradient id="SVGID_27_" gradientUnits="userSpaceOnUse" x1="127.244" y1="154.4621" x2="165.6949" y2="154.4621">
			<stop  offset="2.554798e-03" style="stop-color:#67B37F"/>
			<stop  offset="0.9956" style="stop-color:#72B190"/>
		</linearGradient>
		<polygon class="st26" points="127.2,155 165.7,155 127.3,153.9 		"/>
		<linearGradient id="SVGID_28_" gradientUnits="userSpaceOnUse" x1="127.2525" y1="157.5689" x2="154.0418" y2="157.5689">
			<stop  offset="2.554798e-03" style="stop-color:#67B37F"/>
			<stop  offset="0.9956" style="stop-color:#72B190"/>
		</linearGradient>
		<polygon class="st27" points="127.3,158.2 154,157.4 127.3,157 		"/>
	</g>
</g>
</svg>
