<?xml version="1.0" encoding="iso-8859-1"?>
<!-- Generator: Adobe Illustrator 22.1.0, SVG Export Plug-In . SVG Version: 6.00 Build 0)  -->
<svg version="1.1" id="Layer_1" xmlns="http://www.w3.org/2000/svg" xmlns:xlink="http://www.w3.org/1999/xlink" x="0px" y="0px"
	 viewBox="0 0 300 63" style="enable-background:new 0 0 300 63;" xml:space="preserve">
<g>
	<g>
		<linearGradient id="SVGID_1_" gradientUnits="userSpaceOnUse" x1="255.4279" y1="26.6445" x2="250.5052" y2="14.7265">
			<stop  offset="0" style="stop-color:#3AA8C3"/>
			<stop  offset="0.4791" style="stop-color:#3A82C3"/>
			<stop  offset="0.907" style="stop-color:#1F4569"/>
		</linearGradient>
		<path style="fill:url(#SVGID_1_);" d="M258.091,5.474l-1.533-0.005H256.4c-1.31,0.054-2.631,0.35-3.891,0.934
			c-3.586,1.659-5.713,5.149-5.873,8.846v16.09c0.159,3.696,2.287,7.187,5.873,8.846c1.26,0.585,2.58,0.88,3.891,0.933h0.159
			l1.533-0.005v-0.092V5.569V5.474z"/>
		<linearGradient id="SVGID_2_" gradientUnits="userSpaceOnUse" x1="237.0463" y1="39.5453" x2="291.464" y2="23.2571">
			<stop  offset="0" style="stop-color:#2B5D8C"/>
			<stop  offset="0.0482" style="stop-color:#2C6398"/>
			<stop  offset="0.1357" style="stop-color:#2F74B8"/>
			<stop  offset="0.2326" style="stop-color:#328BE3"/>
			<stop  offset="1" style="stop-color:#3468BF"/>
		</linearGradient>
		<path style="fill:url(#SVGID_2_);" d="M290.517,16.368c-4.695-6.549-12.361-10.854-21.006-10.894
			c-0.038,0-0.075-0.005-0.114-0.005h-12.849v0.026c-0.917,0.055-1.818,0.24-2.677,0.54c-2.378,0.827-4.429,2.555-5.571,5.022
			c-0.535,1.148-0.81,2.345-0.877,3.537l0.001,1.776h11.44l0.015,0.002h10.54c7.953,0.388,13.653,6.796,13.653,14.892
			c0,8.424-6.062,15.003-14.411,15.003h-28.873v10.941h29.61c14.264,0,25.944-11.606,25.944-25.944
			C295.341,25.721,293.54,20.585,290.517,16.368z"/>
		<linearGradient id="SVGID_3_" gradientUnits="userSpaceOnUse" x1="248.1225" y1="8.8586" x2="282.0494" y2="21.2986">
			<stop  offset="0" style="stop-color:#46A8F7"/>
			<stop  offset="0.8477" style="stop-color:#376ABC;stop-opacity:0"/>
		</linearGradient>
		<path style="fill:url(#SVGID_3_);" d="M295.341,31.265c0-5.544-1.801-10.68-4.823-14.896
			c-4.695-6.549-12.361-10.854-21.006-10.894c-0.038,0-0.075-0.005-0.114-0.005H255.77v0.026c-0.916,0.055-1.818,0.24-2.677,0.54
			c-2.377,0.827-4.43,2.555-5.571,5.022c-0.535,1.148-0.81,2.345-0.877,3.537l0.001,6.592c0,0,1.529-4.816,6.013-4.816
			c4.484,0,5.426,0,5.426,0l0.015,0.002h11.318c7.953,0.388,13.653,6.796,13.653,14.892"/>
		<linearGradient id="SVGID_4_" gradientUnits="userSpaceOnUse" x1="241.8255" y1="43.0972" x2="222.5899" y2="13.9115">
			<stop  offset="0.386" style="stop-color:#88B33D"/>
			<stop  offset="0.773" style="stop-color:#657D21"/>
			<stop  offset="1" style="stop-color:#313D10"/>
		</linearGradient>
		<path style="fill:url(#SVGID_4_);" d="M239.745,15.206c-0.093-2.204-0.897-4.433-2.308-6.166c-1.012-0.628-1.815-0.888-2.77-1.437
			l0.272-0.59l-6.632,14.34l0.025,26.074c0.158,3.697,2.285,7.189,5.872,8.846c1.261,0.584,2.581,0.881,3.89,0.935h0.159
			l4.983-0.005c0,0-3.451-1.432-3.451-5.955C239.787,48.016,239.745,15.206,239.745,15.206z"/>
		<linearGradient id="SVGID_5_" gradientUnits="userSpaceOnUse" x1="231.564" y1="6.7372" x2="207.4448" y2="51.6039">
			<stop  offset="0.0744" style="stop-color:#FFD812"/>
			<stop  offset="0.2047" style="stop-color:#FFD812"/>
			<stop  offset="0.7907" style="stop-color:#E27914"/>
			<stop  offset="1" style="stop-color:#A63810"/>
		</linearGradient>
		<path style="fill:url(#SVGID_5_);" d="M236.268,7.825c-0.544-0.474-1.288-0.92-1.288-0.92l-1.39-0.645l-0.144-0.067
			c-1.21-0.505-2.531-0.785-3.921-0.785c-3.952,0-7.34,2.274-9.035,5.561l-13.707,33.854l3.797,9.905
			c0.825-0.514,4.493-0.938,4.493-0.938l16.301-39.101c2.247-4.876,6.07-5.657,6.07-5.657S236.813,8.301,236.268,7.825z"/>
		<linearGradient id="SVGID_6_" gradientUnits="userSpaceOnUse" x1="258.1374" y1="104.8987" x2="176.0853" y2="9.1929">
			<stop  offset="0.0744" style="stop-color:#FFD812"/>
			<stop  offset="0.2047" style="stop-color:#FFD812"/>
			<stop  offset="1" style="stop-color:#C41616"/>
		</linearGradient>
		<path style="fill:url(#SVGID_6_);" d="M215.072,53.79c0,0-4.45-0.627-6.502-5.063c-2.051-4.437-15.609-37.975-15.609-37.975
			c-1.704-3.305-5.113-5.591-9.085-5.591c-1.397,0-2.726,0.285-3.94,0.79l-0.147,0.07l-1.396,0.646l0.04,0.089l19.158,45.647
			c1.704,3.305,5.112,5.59,9.085,5.59c1.396,0,2.725-0.283,3.939-0.79l0.147-0.068c0,0,0.978-0.387,1.397-0.646
			c0.419-0.26,1.538-1.136,1.976-1.549C214.572,54.524,215.072,53.79,215.072,53.79z"/>
	</g>
	<path style="fill:#434854;" d="M60.676,57.283c-1.035,0-2.395-0.674-3.022-1.497L34.964,26c-0.627-0.823-1.14-0.65-1.14,0.385
		v29.016c0,1.035-0.847,1.882-1.882,1.882h-7.434c-1.035,0-1.882-0.847-1.882-1.882V7.599c0-1.035,0.847-1.882,1.882-1.882h6.697
		c1.035,0,2.395,0.674,3.021,1.498L56.11,35.971c0.627,0.824,1.14,0.651,1.14-0.384V7.599c0-1.035,0.847-1.882,1.882-1.882h7.432
		c1.035,0,1.882,0.847,1.882,1.882v47.802c0,1.035-0.847,1.882-1.882,1.882H60.676z"/>
	<path style="fill:#434854;" d="M113.084,57.283c-1.035,0-2.395-0.674-3.022-1.497L87.37,26c-0.627-0.823-1.14-0.65-1.14,0.385
		v29.016c0,1.035-0.847,1.882-1.882,1.882h-7.434c-1.035,0-1.882-0.847-1.882-1.882V7.599c0-1.035,0.847-1.882,1.882-1.882h6.697
		c1.035,0,2.395,0.674,3.021,1.498l21.884,28.756c0.627,0.824,1.139,0.651,1.139-0.384V7.599c0-1.035,0.847-1.882,1.882-1.882h7.433
		c1.035,0,1.882,0.847,1.882,1.882v47.802c0,1.035-0.847,1.882-1.882,1.882H113.084z"/>
	<path style="fill:#434854;" d="M153.054,58.167c-15.911,0-27.33-11.859-27.33-26.52v-0.146c0-14.659,11.566-26.668,27.479-26.668
		c15.912,0,27.329,11.861,27.329,26.52v0.147C180.531,46.16,168.967,58.167,153.054,58.167z M168.673,31.501
		c0-8.84-6.484-16.207-15.619-16.207c-9.134,0-15.47,7.22-15.47,16.06v0.147c0,8.839,6.483,16.204,15.619,16.204
		c9.134,0,15.47-7.216,15.47-16.058V31.501z"/>
	<path style="fill:#434854;" d="M16.038,5.786h-2.353c-4.844,0-9.026,3.97-9.026,9.943v39.998c0,0.856,0.7,1.556,1.557,1.556h8.257
		c0.857,0,1.556-0.7,1.556-1.556L16.038,5.786z"/>
</g>
</svg>
