<?xml version="1.0" standalone="no"?>
<!DOCTYPE svg PUBLIC "-//W3C//DTD SVG 1.1//EN" "http://www.w3.org/Graphics/SVG/1.1/DTD/svg11.dtd">
<svg xmlns="http://www.w3.org/2000/svg"><metadata>This SVG WebFont was generated by YouWorkForThem.
Copyright (c) 2012 by Fontfabric LLC. All rights reserved.</metadata><defs><font horiz-adv-x="609" id="ywftsvg"><font-face ascent="750" bbox="-157 -294 1081.25 988" cap-height="700" descent="-250" font-family="" font-stretch="normal" font-weight="700" panose-1="2 0 0 0 0 0 0 0 0 0" underline-position="0" underline-thickness="0" unicode-range="U+0020-FB02" units-per-em="1000" x-height="493"/><missing-glyph d="M242 134q0 -31 23.5 -43.5t47 0t23.5 43.5t-23.5 44t-47 0t-23.5 -44zM127 445h77q-1 39 28.5 59.5t70.5 20.5q44 0 75 -18t32 -61q0 -14 -3 -24.5t-14 -19t-15 -11.5t-23 -11t-22 -9q-41 -20 -60.5 -49t-19.5 -95l77 -1q0 37 7.5 53.5t30.5 26.5q7 4 34 17.5t42 24 t29.5 36.5t13.5 62q0 76 -53 112t-131 36q-76 0 -126.5 -37.5t-49.5 -111.5zM37 0v700h538v-700h-538z" horiz-adv-x="645"/><glyph d="M242 134q0 -31 23.5 -43.5t47 0t23.5 43.5t-23.5 44t-47 0t-23.5 -44zM127 445h77q-1 39 28.5 59.5t70.5 20.5q44 0 75 -18t32 -61q0 -14 -3 -24.5t-14 -19t-15 -11.5t-23 -11t-22 -9q-41 -20 -60.5 -49t-19.5 -95l77 -1q0 37 7.5 53.5t30.5 26.5q7 4 34 17.5t42 24 t29.5 36.5t13.5 62q0 76 -53 112t-131 36q-76 0 -126.5 -37.5t-49.5 -111.5zM37 0v700h538v-700h-538z" glyph-name=".notdef" horiz-adv-x="645"/><glyph glyph-name="glyph1" horiz-adv-x="0"/><glyph glyph-name="glyph2" horiz-adv-x="333"/><glyph glyph-name="space" horiz-adv-x="249" unicode=" "/><glyph d="M82 702h108v-527h-108v527zM69 61q0 41 33 58t66 0t33 -58t-33 -58t-66 0t-33 58z" glyph-name="exclam" horiz-adv-x="272" unicode="!"/><glyph d="M70 699h95v-265h-95v265zM239 699h95v-265h-95v265z" glyph-name="quotedbl" horiz-adv-x="404" unicode="&quot;"/><glyph d="M252 700h112l-38 -155h132l39 155h111l-38 -155h76v-96h-100l-54 -207h83v-98h-105l-35 -144h-112l35 144h-133l-35 -144h-111l35 144h-77v98h101l53 208h-83v95h106zM442 456h-145l-56 -220h145z" glyph-name="numbersign" horiz-adv-x="683" unicode="#"/><glyph d="M609 594l-90 -48q-21 36 -69.5 57t-104.5 22q-70 0 -121.5 -28t-50.5 -82q0 -26 13 -43.5t41.5 -28.5t53 -16t68.5 -11q50 -7 86 -14.5t78.5 -23.5t68.5 -38t44 -57.5t18 -81.5q0 -95 -71 -150t-171 -62v-100h-106v96q-85 7 -157 45.5t-104 110.5l95 50 q22 -49 83.5 -77.5t128.5 -28.5q78 0 132 27t54 89q0 27 -15 47.5t-44 33t-59 19.5t-72 13q-42 5 -69.5 10t-63 14.5t-58.5 23.5t-44 34t-31.5 50t-10.5 68q0 47 20 84.5t54.5 61.5t75 37.5t85.5 18.5v90h107v-90q72 -9 122.5 -36t83.5 -86z" glyph-name="dollar" horiz-adv-x="680" unicode="$"/><glyph d="M193 709q60 0 101 -31.5t50.5 -76t0 -89t-50.5 -76t-101 -31.5q-43 0 -77 17t-51 43.5t-25.5 59t0 65t25.5 59t51 43.5t77 17zM550 702h99l-452 -702h-100zM192 635q-30 0 -50.5 -16t-25 -38.5t0.5 -45.5t26 -39t51 -16t50 16t24.5 39t-0.5 45.5t-25.5 38.5t-50.5 16z M550 297q60 0 101 -31.5t50.5 -76t0 -89t-50.5 -76t-101 -31.5q-50 0 -86.5 22.5t-53 56.5t-16.5 73t16.5 73t53 56.5t86.5 22.5zM549 223q-30 0 -50.5 -16t-25 -38.5t0.5 -45.5t26 -39t51 -16t50 16t24.5 39t-0.5 45.5t-25.5 38.5t-50.5 16z" glyph-name="percent" horiz-adv-x="743" unicode="%"/><glyph d="M320 313q-75 0 -116 -33t-41 -75q0 -56 45 -85t116 -29q33 0 66.5 9t62.5 35t29 64v114h-162zM587 313v-114q0 -93 69 -93v-108q-103 -4 -128 91q-65 -100 -209 -100q-115 0 -190.5 56.5t-75.5 160.5q0 49 33 92t83 60q-45 18 -71.5 59t-26.5 88q1 99 75.5 151.5 t182.5 52.5q66 0 118 -15.5t91 -60.5t39 -116h-105q0 97 -146 97q-76 0 -111.5 -32.5t-34.5 -76.5q0 -37 26 -61.5t57 -33t63 -8.5h320v-89h-59z" glyph-name="ampersand" horiz-adv-x="703" unicode="&amp;"/><glyph d="M69 700h94v-265h-94v265z" glyph-name="quotesingle" horiz-adv-x="232" unicode="'"/><glyph d="M272 763l52 -71q-85 -65 -130 -163t-46 -209q0 -239 176 -373l-56 -77q-108 72 -166.5 189t-60.5 247q-2 135 57.5 258t173.5 199z" glyph-name="parenleft" horiz-adv-x="346" unicode="("/><glyph d="M21 701l53 71q114 -76 173.5 -199t56.5 -257q-2 -131 -60 -248.5t-167 -188.5l-54 78q176 135 174 372q0 111 -45 209t-131 163z" glyph-name="parenright" horiz-adv-x="345" unicode=")"/><glyph d="M321 479l-65 -48l-57 84l-58 -84l-65 48l64 76l-91 20l24 79l89 -33l-4 91h81l-8 -92l95 34l22 -79l-93 -20z" glyph-name="asterisk" horiz-adv-x="398" unicode="*"/><glyph d="M44 394h154v154h103v-154h155v-96h-155v-156h-103v156h-154v96z" glyph-name="plus" horiz-adv-x="501" unicode="+"/><glyph d="M186 46q0 -3 -0.5 -6.5t-2 -8.5t-3.5 -11t-5.5 -17.5t-8 -23t-11.5 -32.5t-14 -43h-62l22 95q-42 8 -42 50q0 22 13 37t31.5 18.5t37.5 0t32 -19.5t13 -39z" glyph-name="comma" horiz-adv-x="246" unicode=","/><glyph d="M65 243v93h364v-93h-364z" glyph-name="hyphen" horiz-adv-x="494" unicode="-"/><glyph d="M58 55q0 40 32 56t63.5 0t31.5 -56t-31.5 -56.5t-63.5 0t-32 56.5z" glyph-name="period" horiz-adv-x="243" unicode="."/><glyph d="M368 764h102l-344 -846h-101z" glyph-name="slash" horiz-adv-x="495" unicode="/"/><glyph d="M169 411v-122q0 -64 27 -110.5t67 -67.5t87 -21t87 21t67 67.5t27 110.5v122q0 63 -27 109t-67 67t-87 21t-87 -20.5t-67 -67t-27 -109.5zM57 289v122q0 97 43.5 168t108.5 103t141 32t141 -32t108.5 -103t43.5 -168v-122q0 -97 -43.5 -168t-108.5 -103t-141 -32t-141 32 t-108.5 103t-43.5 168z" glyph-name="zero" horiz-adv-x="700" unicode="0"/><glyph d="M51 0v93h126v470l-120 -34v98l231 73v-607h122v-93h-359z" glyph-name="one" horiz-adv-x="435" unicode="1"/><glyph d="M173 501h-112q4 58 30 100t67.5 64.5t88 33t99.5 10.5q41 0 78.5 -6.5t73 -22.5t61.5 -39.5t42 -60.5t16 -84q0 -212 -277 -212q-30 0 -57 -4.5t-55 -15t-45 -33t-17 -54.5v-72h451v-105h-559v177q0 57 24 99t66 64.5t89 32.5t102 10q27 0 53.5 5t53.5 16t44 34.5 t17 55.5q0 112 -161 118q-44 0 -81 -10t-64 -36t-28 -65z" glyph-name="two" horiz-adv-x="675" unicode="2"/><glyph d="M338 313h-111v92h104q70 0 116 26t47 73q0 42 -39 74t-121 32q-39 0 -73 -8t-61.5 -32t-27.5 -60h-111q0 43 16.5 78t43.5 57.5t63.5 37.5t73.5 21t77 6q112 0 190.5 -54t79.5 -152q0 -51 -30 -91.5t-79 -53.5q61 -17 93 -57t32 -96q0 -74 -43 -124.5t-106 -71 t-140 -20.5q-71 0 -131.5 18t-106 67t-45.5 123h113q0 -30 17 -52t44.5 -33.5t55 -16.5t54.5 -5q70 0 120.5 30t50.5 84q0 45 -38.5 76.5t-127.5 31.5z" glyph-name="three" horiz-adv-x="674" unicode="3"/><glyph d="M406 699h129v-456h83v-104h-83v-139h-111v139h-388l-14 101zM147 243h277v326z" glyph-name="four" horiz-adv-x="662" unicode="4"/><glyph d="M572 699v-105h-393v-148h158q124 0 199 -57t75 -166q0 -107 -78 -168.5t-196 -61.5q-58 0 -106.5 11t-89 34.5t-64 66t-23.5 101.5h112q0 -31 16 -53.5t42.5 -33.5t53.5 -16t58 -5q69 0 116 32.5t47 92.5q1 58 -44 88.5t-118 30.5h-267v357h502z" glyph-name="five" horiz-adv-x="655" unicode="5"/><glyph d="M180 493v-127q27 39 76.5 59.5t101.5 20.5q55 0 103.5 -12.5t90.5 -38t66.5 -71t24.5 -106.5q0 -74 -43.5 -127.5t-106.5 -77t-136 -23.5q-74 0 -137.5 23.5t-107 77.5t-43.5 129v272q0 72 42.5 123t105 74t136.5 23q78 0 139 -20t100.5 -66t40.5 -113h-110q-1 48 -50 75 t-117 27q-72 0 -124 -31t-52 -91zM357 91q72 0 123 32t51 95q0 62 -50 96t-123 34q-74 0 -126 -34t-51 -96q0 -63 51 -95t125 -32z" glyph-name="six" horiz-adv-x="693" unicode="6"/><glyph d="M220 0h-129l309 593h-369v107h513l7 -64z" glyph-name="seven" horiz-adv-x="562" unicode="7"/><glyph d="M351 317q-70 0 -125.5 -29t-56.5 -85q0 -52 52.5 -84t129.5 -32q78 0 130 32t52 84q-1 56 -55 85t-127 29zM52 204q1 50 33.5 94t86.5 63q-102 47 -102 144q0 68 40.5 116.5t102.5 70t137 21.5q118 0 201.5 -54t83.5 -154q0 -45 -28 -83t-78 -57q54 -19 87 -65t34 -96 q1 -112 -84.5 -166t-215.5 -54q-127 0 -213 54t-85 166zM184 508q1 -51 51.5 -79.5t115.5 -28.5q67 0 116.5 28t50.5 80q1 51 -48.5 81t-119.5 30q-72 0 -119.5 -31.5t-46.5 -79.5z" glyph-name="eight" horiz-adv-x="703" unicode="8"/><glyph d="M515 209v127q-26 -39 -76.5 -60t-102.5 -21q-55 0 -103.5 12.5t-90.5 38t-66.5 71.5t-24.5 107q0 74 43.5 127.5t106.5 77t136 23.5t137 -24t107.5 -77.5t43.5 -128.5v-272q0 -72 -42 -123t-104.5 -74t-136.5 -23q-78 0 -140 20t-103 66t-42 113h113q1 -48 51.5 -75 t119.5 -27q62 0 118 33.5t56 88.5zM337 611q-73 0 -124 -32t-51 -95t50 -96.5t124 -33.5q73 0 125 34t52 96q-1 63 -52 95t-124 32z" glyph-name="nine" horiz-adv-x="694" unicode="9"/><glyph d="M65 55q0 39 31.5 55t63 0t31.5 -55t-31.5 -55t-63 0t-31.5 55zM65 347q0 40 31.5 56t63 0t31.5 -56q0 -39 -31.5 -55t-63 0t-31.5 55z" glyph-name="colon" horiz-adv-x="256" unicode=":"/><glyph d="M69 347q0 40 31.5 56t63 0t31.5 -56q0 -39 -31.5 -55t-63 0t-31.5 55zM193 46q0 -10 -44 -142h-63l22 95q-41 9 -41 50q0 21 13 36.5t31.5 19t37 0t31.5 -19t13 -39.5z" glyph-name="semicolon" horiz-adv-x="262" unicode=";"/><glyph d="M164 315l167 -156l-67 -72l-226 218v21l226 217l66 -71z" glyph-name="less" horiz-adv-x="388" unicode="&lt;"/><glyph d="M70 155v95h423v-95h-423zM70 374v96h423v-96h-423z" glyph-name="equal" horiz-adv-x="563" unicode="="/><glyph d="M56 154l168 161l-167 161l67 67l225 -217v-21l-225 -218z" glyph-name="greater" horiz-adv-x="388" unicode=">"/><glyph d="M206 65q0 44 35 62t70 0t35 -62q0 -43 -35 -61t-70 0t-35 61zM143 494h-109q0 105 77 158.5t190 53.5q115 0 192 -51.5t76 -158.5q0 -40 -12 -71t-35 -50.5t-42.5 -31t-49 -24.5t-40.5 -19q-34 -16 -46.5 -40t-12.5 -74l-111 1q0 65 17 107t40.5 60.5t64.5 35.5 q8 4 26.5 11.5t27 12t22 13t20 17.5t11.5 22.5t5 30.5q0 111 -155 111q-60 0 -107.5 -29.5t-48.5 -84.5z" glyph-name="question" horiz-adv-x="606" unicode="?"/><glyph d="M460 576q-135 0 -228.5 -86.5t-93.5 -230.5q0 -80 26.5 -141t72.5 -96t101 -52.5t118 -17.5q82 0 145 37l41 -70q-83 -50 -188 -50q-82 0 -154.5 24.5t-129 71.5t-90 123t-33.5 171q0 122 57 215t150 140.5t206 47.5q186 0 300 -102t114 -294q0 -117 -47.5 -184 t-138.5 -67q-30 0 -52.5 22.5t-22.5 64.5q-19 -43 -66.5 -67.5t-91.5 -24.5q-108 0 -181.5 70.5t-73.5 176.5q0 108 73.5 179t180.5 71q46 0 90.5 -24.5t64.5 -61.5l6 60l81 -10v-350q0 -24 16 -24q38 0 56 48.5t18 120.5q0 310 -326 310zM456 415q-71 0 -113.5 -45.5 t-42.5 -111.5q0 -64 42.5 -110t113.5 -46q73 0 113.5 46t40.5 114q0 65 -40 109t-114 44z" glyph-name="at" horiz-adv-x="914" unicode="@"/><glyph d="M640 0l-67 147h-379l-66 -147h-119l314 700h122l314 -700h-119zM532 249l-148 333l-148 -333h296z" glyph-name="A" horiz-adv-x="768" unicode="A"/><glyph d="M199 310v-206h210q58 0 103 22.5t45 74.5t-46 80.5t-101 28.5h-211zM199 599v-189h211q62 0 94 23t32 65q0 40 -34 70.5t-93 30.5h-210zM88 700h321q106 0 172 -50t66 -150q0 -99 -97 -139q58 -17 88.5 -65.5t30.5 -95.5q0 -73 -37.5 -119.5t-93 -63.5t-129.5 -17h-321 v700z" glyph-name="B" horiz-adv-x="716" unicode="B"/><glyph d="M600 167l77 -77q-105 -104 -263 -104q-92 0 -164 30t-116 81t-66.5 114t-22.5 134t23 135.5t67 117t116.5 83.5t162.5 31q150 0 256 -106l-75 -72q-73 72 -181 72q-125 0 -192 -77t-66 -183t66 -180.5t192 -74.5q50 0 100 20t86 56z" glyph-name="C" horiz-adv-x="703" unicode="C"/><glyph d="M88 700h265q86 0 154.5 -29t110 -78.5t63.5 -109.5t23 -127q2 -68 -19 -130.5t-62.5 -113.5t-111.5 -81.5t-158 -30.5h-265v700zM199 593v-485h154q120 0 181 73.5t59 175.5q-2 62 -26 114t-79.5 87t-134.5 35h-154z" glyph-name="D" horiz-adv-x="750" unicode="D"/><glyph d="M605 110v-110h-517v700h514v-109h-402v-189h386v-104h-386v-188h405z" glyph-name="E" horiz-adv-x="661" unicode="E"/><glyph d="M200 0h-112v699h495v-109h-383v-213h364v-104h-364v-273z" glyph-name="F" horiz-adv-x="626" unicode="F"/><glyph d="M672 611l-70 -72q-36 36 -87.5 55.5t-101.5 19.5q-119 0 -189 -78t-69 -193q0 -106 65 -179t193 -73q97 0 171 62v142h-195v100h299v-287q-111 -122 -275 -122q-93 0 -165.5 29.5t-115.5 80t-65 113t-22 134.5q0 159 98 266.5t270 107.5q152 0 259 -106z" glyph-name="G" horiz-adv-x="743" unicode="G"/><glyph d="M681 0h-111v291h-370v-291h-112v700h112v-305h370v305h111v-700z" glyph-name="H" horiz-adv-x="769" unicode="H"/><glyph d="M199 0h-111v700h111v-700z" glyph-name="I" horiz-adv-x="287" unicode="I"/><glyph d="M290 700h337v-410q0 -135 -81.5 -219t-218.5 -84q-133 0 -216 79t-83 218h110q0 -92 49 -142t140 -50q89 0 138.5 54.5t49.5 143.5v306h-225v104z" glyph-name="J" horiz-adv-x="705" unicode="J"/><glyph d="M624 700v-4l-321 -334l349 -355v-7h-140l-312 319v-319h-112v700h112v-302l285 302h139z" glyph-name="K" horiz-adv-x="648" unicode="K"/><glyph d="M88 700h112v-596h369v-104h-481v700z" glyph-name="L" horiz-adv-x="587" unicode="L"/><glyph d="M697 -1v537l-238 -331h-24l-235 331v-537h-112v700h130l231 -328l230 328h130v-700h-112z" glyph-name="M" horiz-adv-x="897" unicode="M"/><glyph d="M174 700l397 -498v498h112v-700h-85l-397 494v-494h-113v700h86z" glyph-name="N" horiz-adv-x="771" unicode="N"/><glyph d="M405 713q170 -1 263 -107.5t93 -258.5q0 -72 -22.5 -136.5t-65 -115.5t-112.5 -80.5t-158 -29.5t-158 30.5t-112.5 81.5t-65 114.5t-22.5 134.5q0 160 101 263.5t259 103.5zM156 345q1 -48 15.5 -92.5t43.5 -82t77.5 -60t110.5 -22.5q123 0 185 73.5t62 183.5 q0 68 -24.5 126t-82 98.5t-138.5 41.5q-118 0 -183.5 -74t-65.5 -192z" glyph-name="O" horiz-adv-x="806" unicode="O"/><glyph d="M200 598v-280h212q38 0 68 15.5t45 40t22.5 54.5t0 60t-23 54.5t-45 40t-67.5 15.5h-212zM412 215h-212v-215h-112v700q54 0 162 0.5t162 0.5t99 -16.5t74 -44.5t49.5 -64.5t25 -76.5t0 -80.5t-24.5 -77t-49.5 -64.5t-74.5 -45t-99 -17z" glyph-name="P" horiz-adv-x="691" unicode="P"/><glyph d="M403 715q88 0 157.5 -30t112 -81t64.5 -114t23 -133q2 -133 -69 -231l84 -83l-78 -79l-86 84q-84 -59 -208 -59q-89 0 -159.5 30.5t-113 82t-64.5 115.5t-22 135t22.5 135t65.5 115.5t113 82t158 30.5zM403 613q-81 0 -139 -39t-84 -97.5t-25 -126.5q1 -104 66 -180.5 t182 -76.5q119 0 184 80t62 187q-1 49 -15.5 93t-43 80.5t-77 58t-110.5 21.5z" glyph-name="Q" horiz-adv-x="806" unicode="Q"/><glyph d="M680 20l12 -20h-131l-213 242h-148v-242h-112v701q54 0 163 -0.5t163 -0.5q116 0 181.5 -67.5t65.5 -161.5q0 -83 -46.5 -143.5t-143.5 -74.5zM414 598h-214v-254h213q66 0 100 36t34 89q0 52 -34 90.5t-99 38.5z" glyph-name="R" horiz-adv-x="721" unicode="R"/><glyph d="M591 602l-85 -57q-25 36 -71.5 56.5t-101.5 21.5q-72 0 -117 -28.5t-45 -77.5q0 -46 43.5 -67t126.5 -33q62 -9 106 -21t87 -35.5t65.5 -64t22.5 -96.5q0 -75 -43.5 -125t-106 -70.5t-140.5 -20.5q-215 0 -301 159l84 56q68 -115 218 -115q46 0 84 10t65.5 37.5 t27.5 68.5q0 53 -47.5 78.5t-131.5 36.5q-48 6 -82.5 14t-72.5 23t-61.5 36t-39 54.5t-15.5 76.5q0 52 24 92t64 63t86 34.5t96 11.5q187 0 261 -118z" glyph-name="S" horiz-adv-x="660" unicode="S"/><glyph d="M247 0v599h-230v101h572v-101h-229v-599h-113z" glyph-name="T" horiz-adv-x="606" unicode="T"/><glyph d="M562 699h111v-409q0 -149 -86 -228.5t-219 -74.5q-124 3 -206.5 82t-82.5 221v409h111v-409q0 -93 49 -145t129 -55q86 -5 140 48.5t54 151.5v409z" glyph-name="U" horiz-adv-x="752" unicode="U"/><glyph d="M709 700l-290 -703h-117l-291 703h126l223 -569l224 569h125z" glyph-name="V" horiz-adv-x="721" unicode="V"/><glyph d="M1056 700l-250 -701h-99l-93 247l-77 235l-77 -236l-92 -246h-98l-254 701h125l178 -539l181 539h72l185 -539l174 539h125z" glyph-name="W" horiz-adv-x="1074" unicode="W"/><glyph d="M327 429l184 271h123v-5l-237 -340l247 -352v-3h-127l-190 277l-191 -277h-127v3l246 352l-236 340v5h123z" glyph-name="X" horiz-adv-x="653" unicode="X"/><glyph d="M149 700l193 -309l199 309h135v-5l-278 -408v-287h-112v287l-270 408v5h133z" glyph-name="Y" horiz-adv-x="686" unicode="Y"/><glyph d="M58 597v103h511v-51l-385 -542h385v-107h-543v63l378 534h-346z" glyph-name="Z" unicode="Z"/><glyph d="M306 -176h-226v886h226v-93h-121v-699h121v-94z" glyph-name="bracketleft" horiz-adv-x="341" unicode="["/><glyph d="M25 764h109l343 -846h-108z" glyph-name="backslash" horiz-adv-x="502" unicode="\"/><glyph d="M262 -175h-226v94h121v699h-121v93h226v-886z" glyph-name="bracketright" horiz-adv-x="342" unicode="]"/><glyph d="M42 345v5l231 351h70l237 -350l-1 -6h-113l-158 242l-158 -242h-108z" glyph-name="asciicircum" horiz-adv-x="623" unicode="^"/><glyph d="M65 -101v92h471v-92h-471z" glyph-name="underscore" horiz-adv-x="601" unicode="_"/><glyph d="M2 698v4h124l74 -135v-5h-93z" glyph-name="grave" horiz-adv-x="234" unicode="`"/><glyph d="M463 415l3 78h100v-493h-98l-5 80q-23 -45 -71.5 -69t-98.5 -24q-111 -1 -182 68t-71 192q0 120 72.5 188.5t182.5 68.5q53 0 99 -24t69 -65zM303 410q-68 0 -114 -44.5t-46 -118.5t46 -119t114 -45q44 0 78.5 18t52 47t26 63.5t0 69.5t-26 64t-52 47t-78.5 18z" glyph-name="a" horiz-adv-x="636" unicode="a"/><glyph d="M337 407q-66 0 -112 -45t-46 -115q0 -71 45.5 -116t112.5 -45q66 0 111 44.5t45 116.5q0 74 -44.5 117t-111.5 43zM70 699h103v-283q23 41 73.5 64.5t99.5 23.5q110 0 180 -67.5t70 -189.5q0 -119 -71 -188t-181 -69q-117 0 -171 88l-6 -78h-97v699z" glyph-name="b" horiz-adv-x="636" unicode="b"/><glyph d="M417 133l70 -69q-78 -77 -187 -77q-112 0 -186 68t-74 191t74 191t186 68q104 0 178 -73l-66 -69q-45 44 -111 44q-68 0 -113 -44.5t-45 -116.5q0 -75 45 -117t112 -42q72 0 117 46z" glyph-name="c" horiz-adv-x="509" unicode="c"/><glyph d="M299 407q-67 0 -111.5 -43t-44.5 -117q0 -73 44.5 -117t111.5 -44q66 0 111.5 45t45.5 116q0 70 -45.5 115t-111.5 45zM463 699h103v-699h-97l-6 78q-54 -88 -171 -88q-110 0 -181 69t-71 188q0 122 69.5 189.5t180.5 67.5q49 0 99.5 -23.5t73.5 -64.5v283z" glyph-name="d" horiz-adv-x="636" unicode="d"/><glyph d="M547 208h-400q7 -56 50.5 -90t110.5 -34q40 0 80.5 14.5t62.5 38.5l67 -65q-37 -40 -94.5 -62t-117.5 -22q-121 0 -193.5 71t-72.5 190q0 113 72 185t187 72q124 0 193 -76t55 -222zM149 295h299q-4 57 -43.5 88t-102.5 31q-58 0 -99.5 -31t-53.5 -88z" glyph-name="e" horiz-adv-x="582" unicode="e"/><glyph d="M226 0h-104v396h-94v91h94v36q0 89 49.5 138t128.5 49q63 0 121 -39l-40 -77q-40 26 -75 26q-37 0 -58.5 -24.5t-21.5 -72.5v-36h149v-91h-149v-396z" glyph-name="f" horiz-adv-x="390" unicode="f"/><glyph d="M440 474l54 66l75 -58l-59 -69q60 -70 60 -153q0 -67 -33 -117t-98 -75q130 -44 130 -161q0 -95 -78.5 -148t-185.5 -53q-122 0 -192.5 58.5t-67.5 160.5h103q-2 -55 44.5 -86.5t112.5 -32.5q63 0 110 26t47 75q0 51 -42.5 79t-112.5 28q-121 0 -194 66t-73 180 q0 117 79 182.5t188 65.5q83 0 133 -34zM307 412q-68 0 -115.5 -39.5t-47.5 -112.5q0 -71 46.5 -111t116.5 -40q69 0 114.5 42.5t45.5 108.5q0 70 -46.5 111t-113.5 41z" glyph-name="g" horiz-adv-x="614" unicode="g"/><glyph d="M70 700h103v-280q57 80 160 80q101 0 152 -62.5t51 -171.5v-266h-103v265q0 68 -33 103.5t-91 35.5q-59 0 -97.5 -42.5t-38.5 -104.5v-257h-103v700z" glyph-name="h" horiz-adv-x="599" unicode="h"/><glyph d="M173 495h-103v-495h103v495zM58 638q0 40 32 56t64 0t32 -56t-32 -56.5t-64 0t-32 56.5z" glyph-name="i" horiz-adv-x="243" unicode="i"/><glyph d="M173 495h-103v-553q0 -47 -11.5 -69t-45.5 -23q-29 -1 -63 15l-37 -81q48 -31 104 -31q82 0 119 47t37 142v553zM58 640q0 40 32 56t64 0t32 -56t-32 -56.5t-64 0t-32 56.5z" glyph-name="j" horiz-adv-x="243" unicode="j"/><glyph d="M70 699h104v-408l183 202h125v-6l-213 -226l242 -254v-7h-126l-211 228v-228h-104v699z" glyph-name="k" horiz-adv-x="514" unicode="k"/><glyph d="M74 699h103v-699h-103v699z" glyph-name="l" horiz-adv-x="251" unicode="l"/><glyph d="M511 0h-104v271q0 57 -31 95.5t-84 38.5t-86 -39t-33 -95v-271h-103v494h96l7 -66q20 38 57.5 56t80.5 18q117 0 155 -99q54 98 169 98q101 0 155 -60t54 -168v-273h-104v273q0 58 -28 94.5t-81 36.5q-54 0 -87 -38.5t-33 -94.5v-271z" glyph-name="m" horiz-adv-x="907" unicode="m"/><glyph d="M548 0h-104v264q0 65 -35 103.5t-98 38.5q-60 0 -99 -43t-39 -105v-258h-103v494h94l6 -72q70 79 166 79q93 0 152.5 -63t59.5 -173v-265z" glyph-name="n" horiz-adv-x="610" unicode="n"/><glyph d="M293 503q113 0 184.5 -73.5t71.5 -183.5q0 -111 -70.5 -183.5t-185.5 -72.5q-114 0 -184 72.5t-70 183.5t70.5 184t183.5 73zM293 408q-68 0 -109.5 -47t-41.5 -115t41 -114t110 -46t110.5 46t41.5 114q0 67 -43 114.5t-109 47.5z" glyph-name="o" horiz-adv-x="588" unicode="o"/><glyph d="M337 89q68 0 112 44t44 113q0 70 -43 113.5t-113 43.5t-112.5 -45t-42.5 -112t44 -112t111 -45zM173 -229h-103v722h97l6 -80q27 43 74.5 66.5t99.5 23.5q110 -1 179.5 -73t69.5 -184q0 -113 -68 -185t-181 -72q-51 0 -99.5 20.5t-74.5 62.5v-301z" glyph-name="p" horiz-adv-x="636" unicode="p"/><glyph d="M299 89q68 0 111.5 45t43.5 112t-42.5 112t-112.5 45t-112.5 -43.5t-42.5 -113.5q0 -69 43.5 -113t111.5 -44zM567 -229h-103v301q-26 -42 -74.5 -62.5t-99.5 -20.5q-114 0 -182 72t-68 185q0 112 69.5 184t180.5 73q52 0 98.5 -23.5t74.5 -66.5l6 80h98v-722z" glyph-name="q" horiz-adv-x="637" unicode="q"/><glyph d="M70 493h96l7 -65q43 76 145 76q75 0 122 -42l-47 -90q-37 30 -87 30q-57 0 -95 -35t-38 -100v-267h-103v493z" glyph-name="r" horiz-adv-x="440" unicode="r"/><glyph d="M443 440l-58 -68q-50 46 -130 46q-48 1 -76.5 -14.5t-28.5 -44.5q1 -53 107 -63q42 -4 72.5 -10.5t65 -22t53 -46.5t18.5 -76q-1 -70 -58 -113t-152 -43q-144 0 -225 91l54 73q64 -71 173 -73q42 0 73 16t32 48t-27.5 47t-86.5 21q-200 19 -201 148q0 75 62.5 112.5 t142.5 37.5q116 0 190 -66z" glyph-name="s" horiz-adv-x="499" unicode="s"/><glyph d="M125 624l104 11v-143h144v-89h-145v-235q0 -81 71 -81q29 0 63 17l30 -88q-50 -22 -99 -22q-81 -2 -124.5 42.5t-43.5 131.5v235h-95v89h95v132z" glyph-name="t" horiz-adv-x="407" unicode="t"/><glyph d="M62 493h103v-264q0 -64 35.5 -103t98.5 -39q60 0 98.5 43t38.5 106v257h103v-494h-93l-6 73q-70 -80 -170 -80q-93 0 -150.5 63t-57.5 173v265z" glyph-name="u" unicode="u"/><glyph d="M437 494h113l-209 -496h-113l-210 496h114l66 -159l87 -229l78 209z" glyph-name="v" horiz-adv-x="568" unicode="v"/><glyph d="M380 494h89l118 -388l122 388h115l-173 -496h-120l-58 164l-48 172l-49 -172l-58 -164h-120l-174 496h116l122 -388z" glyph-name="w" horiz-adv-x="848" unicode="w"/><glyph d="M257 317l109 176h125v-3l-166 -239l177 -248v-3h-124l-121 179l-121 -179h-124v3l177 248l-166 239v3h124z" glyph-name="x" horiz-adv-x="514" unicode="x"/><glyph d="M427 493h115l-311 -722h-114l102 236l-197 486h120l85 -233l49 -140l53 138z" glyph-name="y" horiz-adv-x="558" unicode="y"/><glyph d="M47 493h389v-48l-248 -344h250v-101h-408v42l255 357h-238v94z" glyph-name="z" horiz-adv-x="477" unicode="z"/><glyph d="M306 -63v-81q-107 -18 -154 24t-47 143v133q0 92 -72 92v78q72 0 72 93v138q0 195 201 158v-79q-52 12 -73 -7t-21 -76v-134v-29.5t-1.5 -25.5t-6 -26t-12 -19.5t-20 -19.5t-30.5 -12q18 -5 30.5 -12t20 -19t12 -19.5t6 -26.5t1.5 -25v-29v-138q0 -57 18.5 -72.5 t75.5 -8.5z" glyph-name="braceleft" horiz-adv-x="344" unicode="{"/><glyph d="M183 740v-833h-102v833h102z" glyph-name="bar" horiz-adv-x="264" unicode="|"/><glyph d="M38 -148v81q57 -7 75.5 9t18.5 73v137v29t1.5 25t6 26.5t12 19.5t20 19t30.5 12q-18 5 -30.5 12t-20 19.5t-12 19.5t-6 26t-1.5 25.5v29.5v134q0 57 -21 76t-73 7v80q201 36 201 -158v-139q0 -93 72 -93v-78q-72 0 -72 -92v-133q0 -101 -47 -143t-154 -24z" glyph-name="braceright" horiz-adv-x="344" unicode="}"/><glyph d="M481 367l77 -26q-24 -73 -74.5 -106.5t-119.5 -6.5q-17 6 -66 36t-73 32q-28 7 -52 -7.5t-39 -49.5l-71 28q22 67 68.5 96t101.5 19q38 -3 90.5 -34t66.5 -36q61 -24 91 55z" glyph-name="asciitilde" horiz-adv-x="619" unicode="~"/><glyph d="M74 -224h111v526h-111v-526zM198 432q0 -43 -35 -61t-69.5 0t-34.5 61t34.5 61t69.5 0t35 -61z" glyph-name="exclamdown" horiz-adv-x="258" unicode="¡"/><glyph d="M482 428l-57 -72q-48 42 -114 42q-68 0 -113 -43t-45 -120q0 -74 45.5 -118.5t112.5 -44.5q30 0 64 15.5t58 39.5l65 -75q-62 -59 -143 -71v-71h-97v72q-94 18 -150.5 82.5t-56.5 170.5q0 101 55.5 167t151.5 85v70h97v-69q72 -12 127 -60z" glyph-name="cent" horiz-adv-x="538" unicode="¢"/><glyph d="M223 487q0 -31 18 -117h220v-94h-200q6 -47 -12 -96.5t-63 -78.5h417v-101h-545v105q101 53 91 171h-91v94h73q-20 78 -20 115q0 107 68 166t183 59q107 0 170 -49.5t67 -154.5h-100q-4 55 -40 81.5t-97 26.5q-69 0 -104 -35t-35 -92z" glyph-name="sterling" horiz-adv-x="656" unicode="£"/><glyph d="M306 199q55 0 86 35.5t31 83.5q0 49 -31 84.5t-86 35.5q-53 0 -85 -36t-32 -84t32 -83.5t85 -35.5zM203 136l-59 -59l-78 77l59 58q-29 51 -28 106.5t31 104.5l-62 59l78 78l58 -59q46 24 105 24q56 0 103 -25l60 60l77 -78l-58 -58q28 -50 28 -107t-28 -105l58 -58 l-76 -76l-60 58q-45 -23 -105 -23q-57 0 -103 23z" glyph-name="currency" horiz-adv-x="613" unicode="¤"/><glyph d="M145 129v82h155v54h-155v83h114l-229 347v5h130l196 -309l205 309h129v-5l-236 -347h113v-83h-155v-54h155v-82h-155v-129h-112v129h-155z" glyph-name="yen" horiz-adv-x="719" unicode="¥"/><glyph d="M189 341h-107v368h107v-368zM82 277h107v-367h-107v367z" glyph-name="brokenbar" horiz-adv-x="271" unicode="¦"/><glyph d="M54 78l68 70q65 -75 176 -73q52 0 92.5 17.5t41.5 47.5q3 51 -133 56q-62 1 -113.5 15t-88.5 48.5t-35 85.5q1 31 25 61.5t65 43.5q-43 10 -64.5 40.5t-20.5 67.5q2 43 25.5 74.5t61.5 48t77.5 24t81.5 7.5q146 0 213 -75l-68 -59q-55 42 -148 44q-54 1 -93.5 -15.5 t-40.5 -45.5q-1 -30 37.5 -44t90.5 -17q46 -1 85 -8.5t77 -23.5t59 -47.5t17 -75.5q-2 -34 -27 -60t-63 -36q43 -13 67.5 -44.5t22.5 -66.5q-2 -43 -28 -75t-65 -49t-78 -25t-77 -8q-74 0 -138 24.5t-102 72.5zM435 348q1 26 -26 44t-66 23t-78.5 1t-67.5 -22t-28 -46 q-1 -25 26 -42t66 -21t78.5 0t67 21t28.5 42z" glyph-name="section" horiz-adv-x="598" unicode="§"/><glyph d="M53 661q0 29 19.5 45.5t42.5 16.5t42.5 -16.5t19.5 -45.5t-19.5 -45.5t-42.5 -16.5t-42.5 16.5t-19.5 45.5zM293 661q0 29 19.5 45.5t43 16.5t43 -16.5t19.5 -45.5t-19.5 -45.5t-43 -16.5t-43 16.5t-19.5 45.5z" glyph-name="dieresis" horiz-adv-x="455" unicode="¨"/><glyph d="M415 717q168 0 264.5 -104.5t96.5 -260.5q0 -155 -96.5 -260t-264.5 -105t-267 105.5t-99 259.5q0 155 99 260t267 105zM430 159q79 0 143 62l-57 55q-39 -37 -86 -37q-50 0 -84.5 31t-34.5 82q0 53 34.5 84.5t84.5 31.5q48 0 85 -35l57 53q-61 61 -142 61 q-86 0 -143.5 -53.5t-57.5 -141.5t57 -140.5t144 -52.5zM141 352q0 -121 74.5 -201.5t199.5 -80.5t197 80t72 202q0 123 -72 203t-197 80t-199.5 -80.5t-74.5 -202.5z" glyph-name="copyright" horiz-adv-x="825" unicode="©"/><glyph d="M338 652l1 48h80v-323h-79l-2 51q-16 -28 -47.5 -44t-63.5 -16q-73 0 -119.5 45t-46.5 126q0 80 47 124t121 44q34 0 64 -14.5t45 -40.5zM236 632q-39 0 -65 -25.5t-26 -67.5t26 -67.5t65 -25.5q43 0 67.5 29t24.5 64t-24.5 64t-67.5 29zM81 227v85h336v-85h-336z" glyph-name="ordfeminine" horiz-adv-x="493" unicode="ª"/><glyph d="M38 297l139 220h111v-1l-138 -219q69 -113 138 -222h-111zM208 297l139 220h110v-1l-137 -219l137 -222h-110z" glyph-name="guillemotleft" horiz-adv-x="499" unicode="«"/><glyph d="M453 377v-220h-89v129h-294v91h383z" glyph-name="logicalnot" horiz-adv-x="528" unicode="¬"/><glyph d="M411 715q168 0 265 -105t97 -260t-97 -260t-265 -105q-167 0 -264 105t-97 260t97 260t264 105zM142 350q1 -123 72.5 -202.5t196.5 -79.5t197 79.5t72 202.5t-72 203t-197 80q-124 0 -196 -80t-73 -203zM588 184l-98 118q40 8 64 34.5t26 60t-10 65.5t-46 53.5t-80 21.5 h-174v-371h84v122h47l96 -122h91v18zM354 461h90q33 0 46 -25.5t-0.5 -50.5t-46.5 -25h-89v101z" glyph-name="registered" horiz-adv-x="823" unicode="®"/><glyph d="M35 614v88h347v-88h-347z" glyph-name="macron" horiz-adv-x="426" unicode="¯"/><glyph d="M172 659q-28 0 -44 -17.5t-16 -39t16 -39t44 -17.5t43.5 17.5t15.5 39t-16 39t-43 17.5zM173 723q58 0 91.5 -37.5t33.5 -82.5t-33 -82.5t-92 -37.5q-48 0 -81 24.5t-40 60t1 71t40.5 60t79.5 24.5z" glyph-name="degree" horiz-adv-x="345" unicode="°"/><glyph d="M67 326v97h150v152h99v-152h151v-97h-151v-152h-99v152h-150zM69 26v95h396v-95h-396z" glyph-name="plusminus" horiz-adv-x="534" unicode="±"/><glyph d="M117 663h-77q1 56 42.5 84t97.5 28q67 0 107.5 -28t40.5 -87q0 -45 -21.5 -70t-53 -32.5t-62.5 -11.5t-52.5 -15t-21.5 -35v-16h207v-76h-286v92q0 41 22 65t53 32.5t62 13.5t53 17t22 36q0 47 -69 47q-63 0 -64 -44z" glyph-name="uni00B2" horiz-adv-x="366" unicode="²"/><glyph d="M184 561h-56v61h52q67 0 68 44q0 15 -16 29t-51 14q-65 0 -72 -43h-69q0 54 42 81.5t100 27.5t101 -28.5t43 -81.5q0 -25 -13.5 -46t-36.5 -28q27 -8 43 -30t16 -46q0 -62 -46 -90t-109 -28q-59 0 -102.5 28t-44.5 85h81q7 -42 69 -42q28 0 49 11t21 34q0 20 -16.5 34 t-52.5 14z" glyph-name="uni00B3" horiz-adv-x="372" unicode="³"/><glyph d="M205 699v-4l-105 -133h-93v5l74 132h124z" glyph-name="acute" horiz-adv-x="224" unicode="´"/><glyph d="M557 0h-100l-10 71q-27 -48 -82.5 -68t-109 -2t-75.5 69v-289h-103v714h109v-271q0 -86 65 -121.5t130 3t65 131.5v258h111v-495z" glyph-name="uni00B5" horiz-adv-x="612" unicode="µ"/><glyph d="M557 0h-100l-10 71q-27 -48 -82.5 -68t-109 -2t-75.5 69v-289h-103v714h109v-271q0 -86 65 -121.5t130 3t65 131.5v258h111v-495z" glyph-name="uni00B5" horiz-adv-x="612" unicode="μ"/><glyph d="M384 596v-810h-111v393q-114 9 -177 85t-63 175q1 106 71.5 183.5t195.5 77.5h497v-104h-96v-810h-111v810h-206z" glyph-name="paragraph" horiz-adv-x="834" unicode="¶"/><glyph d="M64 278q0 31 21 49t46 18t46 -18t21 -49t-21 -49t-46 -18t-46 18t-21 49z" glyph-name="periodcentered" horiz-adv-x="262" unicode="·"/><glyph d="M30 -165l47 40q22 -32 68 -34q46 0 56 31q8 29 -22.5 43.5t-65.5 -3.5l-23 19l29 92h76l-15 -52q61 -1 85 -35t15 -77t-46 -66.5t-83 -22.5q-83 2 -121 65z" glyph-name="cedilla" horiz-adv-x="296" unicode="¸"/><glyph d="M36 404v68h63v209l-54 -13v67l132 33v-296h64v-68h-205z" glyph-name="uni00B9" horiz-adv-x="266" unicode="¹"/><glyph d="M80 236v77h317v-77h-317zM237 368q-76 0 -125 45t-49 126q0 80 48.5 124t125.5 44t126 -44t49 -124q0 -81 -49 -126t-126 -45zM237 446q39 0 65 25.5t26 67.5t-26 67.5t-65 25.5t-64.5 -25.5t-25.5 -67.5t26 -67.5t64 -25.5z" glyph-name="ordmasculine" horiz-adv-x="475" unicode="º"/><glyph d="M320 519l139 -220l-139 -222h-110l137 222l-137 219v1h110zM153 519l139 -220l-139 -222h-111l138 222l-138 219v1h111z" glyph-name="guillemotright" horiz-adv-x="498" unicode="»"/><glyph d="M587 364h102v-227h49v-69h-49v-68h-77v68h-192l-4 66zM612 137v152l-113 -152h113zM229 -1h-92l383 707h93zM47 337v68h62v209l-53 -12v67l131 33v-297h65v-68h-205z" glyph-name="onequarter" horiz-adv-x="774" unicode="¼"/><glyph d="M556 256h-78q1 56 42.5 84t97.5 28q67 0 107.5 -27.5t40.5 -87.5q0 -44 -21.5 -69t-52 -32t-61.5 -11t-52.5 -15.5t-21.5 -36.5v-19h203v-73h-284v92q0 41 22 65t53 32.5t62 13.5t53 17t22 36q0 47 -68 47q-64 0 -64 -44zM227 -2h-92l382 708h93zM45 338v68h62v209 l-53 -13v67l131 33v-296h65v-68h-205z" glyph-name="onehalf" horiz-adv-x="804" unicode="½"/><glyph d="M622 364h102v-227h42v-69h-42v-68h-77v68h-192l-4 66zM647 137v152l-113 -152h113zM184 506h-55v59h51q32 0 48.5 8.5t17.5 32.5q0 15 -16 29t-50 14q-63 0 -69 -42h-67q0 52 41 79t96 27q56 0 98 -28t43 -79q0 -24 -13.5 -44t-36.5 -27q26 -8 41.5 -29.5t15.5 -44.5 q0 -60 -44.5 -87t-104.5 -27q-57 0 -99 27t-43 82h78q7 -41 66 -41q27 0 48 10.5t21 33.5q0 19 -16 33t-51 14zM274 -4h-92l383 710h93z" glyph-name="threequarters" horiz-adv-x="800" unicode="¾"/><glyph d="M397 443q0 -43 -34.5 -60.5t-69.5 0.5t-35 61t35 61t69.5 0t34.5 -62zM570 14q-19 0 -57 0.5t-57 0.5q-1 -55 -47 -84t-106 -29q-154 0 -154 109q0 16 5 30t11.5 22.5t20.5 18t22 13.5t27.5 13t26.5 12q62 26 91.5 68t29.5 138q-19 0 -56 0.5t-55 0.5v-23q-4 -64 -43 -89 q-12 -8 -41 -20.5t-52.5 -25t-48.5 -32t-39 -51.5t-14 -73q-1 -108 76 -159t192 -51q113 0 190 53t78 158z" glyph-name="questiondown" horiz-adv-x="601" unicode="¿"/><glyph d="M640 0l-67 147h-379l-66 -147h-119l314 700h122l314 -700h-119zM532 249l-148 333l-148 -333h296zM232 910v4h124l74 -135v-5h-93z" glyph-name="Agrave" horiz-adv-x="768" unicode="À"/><glyph d="M573 147l67 -147h119l-314 700h-122l-314 -700h119l66 147h379zM384 582l148 -333h-296zM528 914v-4l-105 -133h-93v5l74 132h124z" glyph-name="Aacute" horiz-adv-x="768" unicode="Á"/><glyph d="M573 147l67 -147h119l-314 700h-122l-314 -700h119l66 147h379zM384 582l148 -333h-296zM357 913h60l147 -136v-6h-107l-70 60l-70 -60h-107v6z" glyph-name="Acircumflex" horiz-adv-x="768" unicode="Â"/><glyph d="M640 0l-67 147h-379l-66 -147h-119l314 700h122l314 -700h-119zM532 249l-148 333l-148 -333h296zM288 769l-61 33q15 45 45.5 67.5t72.5 13.5q13 -3 36 -14.5t32 -14.5q49 -17 62 26l66 -25q-8 -54 -43.5 -74.5t-75.5 -10.5q-14 3 -37 14.5t-31 14.5q-45 16 -66 -30z " glyph-name="Atilde" horiz-adv-x="768" unicode="Ã"/><glyph d="M573 147l67 -147h119l-314 700h-122l-314 -700h119l66 147h379zM384 582l148 -333h-296zM201 832q0 29 19.5 45.5t42.5 16.5t42.5 -16.5t19.5 -45.5t-19.5 -45.5t-42.5 -16.5t-42.5 16.5t-19.5 45.5zM441 832q0 29 19.5 45.5t43 16.5t43 -16.5t19.5 -45.5t-19.5 -45.5 t-43 -16.5t-43 16.5t-19.5 45.5z" glyph-name="Adieresis" horiz-adv-x="768" unicode="Ä"/><glyph d="M258 795q0 54 37.5 84.5t88.5 30.5q50 0 88 -30.5t38 -84.5q0 -71 -63 -100l312 -695h-122l-66 147h-375l-66 -147h-121l311 695q-62 28 -62 100zM239 247h289l-76 174l-68 174l-70 -177zM383 849q-37 0 -52 -26.5t0.5 -53t51.5 -26.5q28 0 44 16.5t15.5 36.5t-16.5 36.5 t-43 16.5z" glyph-name="Aring" horiz-adv-x="768" unicode="Å"/><glyph d="M859 101v-101h-421v168h-231l-103 -168h-126l440 700h436v-98h-314v-200h300v-98h-300v-203h319zM270 268h168v139l7 160h-1z" glyph-name="AE" horiz-adv-x="913" unicode="Æ"/><glyph d="M267 -197l47 40q21 -32 67.5 -33t56.5 30q8 27 -21.5 42t-66.5 -1l-23 18l28 91q-102 12 -173.5 65.5t-103 127.5t-32.5 162q0 71 23 135.5t67 117t116.5 83.5t162.5 31q150 0 256 -106l-75 -72q-73 72 -181 72q-125 0 -192 -77t-66 -183t66 -180.5t192 -74.5 q50 0 100 20t86 56l77 -77q-101 -99 -248 -104l-13 -47q61 -1 85.5 -35t15.5 -77q-7 -33 -32.5 -55t-59.5 -29q-45 -10 -90 5.5t-69 54.5z" glyph-name="Ccedilla" horiz-adv-x="704" unicode="Ç"/><glyph d="M605 110v-110h-517v700h514v-109h-402v-189h386v-104h-386v-188h405zM228 907v4h124l74 -135v-5h-93z" glyph-name="Egrave" horiz-adv-x="661" unicode="È"/><glyph d="M605 0v110h-405v188h386v104h-386v189h402v109h-514v-700h517zM493 909v-4l-105 -133h-93v5l74 132h124z" glyph-name="Eacute" horiz-adv-x="661" unicode="É"/><glyph d="M605 0v110h-405v188h386v104h-386v189h402v109h-514v-700h517zM326 922h60l147 -136v-6h-107l-70 60l-70 -60h-107v6z" glyph-name="Ecircumflex" horiz-adv-x="661" unicode="Ê"/><glyph d="M605 0v110h-405v188h386v104h-386v189h402v109h-514v-700h517zM174 834q0 29 19.5 45.5t42.5 16.5t42.5 -16.5t19.5 -45.5t-19.5 -45.5t-42.5 -16.5t-42.5 16.5t-19.5 45.5zM414 834q0 29 19.5 45.5t43 16.5t43 -16.5t19.5 -45.5t-19.5 -45.5t-43 -16.5t-43 16.5 t-19.5 45.5z" glyph-name="Edieresis" horiz-adv-x="661" unicode="Ë"/><glyph d="M199 0h-111v700h111v-700zM-2 905v4h124l74 -135v-5h-93z" glyph-name="Igrave" horiz-adv-x="287" unicode="Ì"/><glyph d="M88 0h111v700h-111v-700zM288 902v-4l-105 -133h-93v5l74 132h124z" glyph-name="Iacute" horiz-adv-x="287" unicode="Í"/><glyph d="M88 0h111v700h-111v-700zM116 910h54l132 -135v-6h-96l-63 59l-62 -59h-97v6z" glyph-name="Icircumflex" horiz-adv-x="287" unicode="Î"/><glyph d="M-18 831q0 29 19.5 45.5t42.5 16.5t42.5 -16.5t19.5 -45.5t-19.5 -45.5t-42.5 -16.5t-42.5 16.5t-19.5 45.5zM187 831q0 29 19.5 45.5t43 16.5t43 -16.5t19.5 -45.5t-19.5 -45.5t-43 -16.5t-43 16.5t-19.5 45.5zM88 0h111v700h-111v-700z" glyph-name="Idieresis" horiz-adv-x="287" unicode="Ï"/><glyph d="M18 301v94h79v305h254q170 0 265 -97.5t96 -240.5q0 -73 -22 -137t-65 -115t-113.5 -80.5t-160.5 -29.5h-254v301h-79zM206 301v-197h145q123 0 186.5 71t63.5 184q-1 109 -65.5 174t-184.5 65h-145v-203h142v-94h-142z" glyph-name="Eth" horiz-adv-x="758" unicode="Ð"/><glyph d="M174 700l397 -498v498h112v-700h-85l-397 494v-494h-113v700h86zM290 773l-61 33q15 45 45.5 67.5t72.5 13.5q13 -3 36 -14.5t32 -14.5q49 -17 62 26l66 -25q-8 -54 -43.5 -74.5t-75.5 -10.5q-14 3 -37 14.5t-31 14.5q-45 16 -66 -30z" glyph-name="Ntilde" horiz-adv-x="771" unicode="Ñ"/><glyph d="M405 713q170 -1 263 -107.5t93 -258.5q0 -72 -22.5 -136.5t-65 -115.5t-112.5 -80.5t-158 -29.5t-158 30.5t-112.5 81.5t-65 114.5t-22.5 134.5q0 160 101 263.5t259 103.5zM156 345q1 -48 15.5 -92.5t43.5 -82t77.5 -60t110.5 -22.5q123 0 185 73.5t62 183.5 q0 68 -24.5 126t-82 98.5t-138.5 41.5q-118 0 -183.5 -74t-65.5 -192zM269 915v4h124l74 -135v-5h-93z" glyph-name="Ograve" horiz-adv-x="806" unicode="Ò"/><glyph d="M405 713q-158 0 -259 -103.5t-101 -263.5q0 -71 22.5 -134.5t65 -114.5t112.5 -81.5t158 -30.5t158 29.5t112.5 80.5t65 115.5t22.5 136.5q0 152 -93 258.5t-263 107.5zM156 345q0 118 65.5 192t183.5 74q81 -1 138.5 -41.5t82 -98.5t24.5 -126q0 -110 -62 -183.5 t-185 -73.5q-62 0 -110.5 22.5t-77.5 60t-43.5 82t-15.5 92.5zM545 916v-4l-105 -133h-93v5l74 132h124z" glyph-name="Oacute" horiz-adv-x="806" unicode="Ó"/><glyph d="M405 713q-158 0 -259 -103.5t-101 -263.5q0 -71 22.5 -134.5t65 -114.5t112.5 -81.5t158 -30.5t158 29.5t112.5 80.5t65 115.5t22.5 136.5q0 152 -93 258.5t-263 107.5zM156 345q0 118 65.5 192t183.5 74q81 -1 138.5 -41.5t82 -98.5t24.5 -126q0 -110 -62 -183.5 t-185 -73.5q-62 0 -110.5 22.5t-77.5 60t-43.5 82t-15.5 92.5zM375 922h60l147 -136v-6h-107l-70 60l-70 -60h-107v6z" glyph-name="Ocircumflex" horiz-adv-x="806" unicode="Ô"/><glyph d="M405 713q170 -1 263 -107.5t93 -258.5q0 -72 -22.5 -136.5t-65 -115.5t-112.5 -80.5t-158 -29.5t-158 30.5t-112.5 81.5t-65 114.5t-22.5 134.5q0 160 101 263.5t259 103.5zM156 345q1 -48 15.5 -92.5t43.5 -82t77.5 -60t110.5 -22.5q123 0 185 73.5t62 183.5 q0 68 -24.5 126t-82 98.5t-138.5 41.5q-118 0 -183.5 -74t-65.5 -192zM309 779l-61 33q15 45 45.5 67.5t72.5 13.5q13 -3 36 -14.5t32 -14.5q49 -17 62 26l66 -25q-8 -54 -43.5 -74.5t-75.5 -10.5q-14 3 -37 14.5t-31 14.5q-45 16 -66 -30z" glyph-name="Otilde" horiz-adv-x="806" unicode="Õ"/><glyph d="M405 713q-158 0 -259 -103.5t-101 -263.5q0 -71 22.5 -134.5t65 -114.5t112.5 -81.5t158 -30.5t158 29.5t112.5 80.5t65 115.5t22.5 136.5q0 152 -93 258.5t-263 107.5zM156 345q0 118 65.5 192t183.5 74q81 -1 138.5 -41.5t82 -98.5t24.5 -126q0 -110 -62 -183.5 t-185 -73.5q-62 0 -110.5 22.5t-77.5 60t-43.5 82t-15.5 92.5zM223 840q0 29 19.5 45.5t42.5 16.5t42.5 -16.5t19.5 -45.5t-19.5 -45.5t-42.5 -16.5t-42.5 16.5t-19.5 45.5zM463 840q0 29 19.5 45.5t43 16.5t43 -16.5t19.5 -45.5t-19.5 -45.5t-43 -16.5t-43 16.5t-19.5 45.5 z" glyph-name="Odieresis" horiz-adv-x="806" unicode="Ö"/><glyph d="M129 488l102 -106l104 105l60 -59l-106 -108l112 -112l-65 -62l-110 111l-104 -106l-62 62l105 104l-105 104z" glyph-name="multiply" horiz-adv-x="458" unicode="×"/><glyph d="M404 713q78 0 145 -27l46 79h109l-74 -126q64 -51 98 -128.5t34 -163.5q-1 -70 -23.5 -133.5t-65 -115.5t-112 -82.5t-157.5 -30.5q-83 0 -147 26l-50 -85h-109l78 131q-64 50 -97 126t-33 163q0 71 22.5 135.5t66 117t113 83.5t156.5 31zM404 88q121 0 183.5 76 t63.5 181q2 125 -77 201l-262 -444q42 -14 92 -14zM404 611q-122 0 -185.5 -79.5t-61.5 -186.5q0 -120 76 -192l261 442q-42 16 -90 16z" glyph-name="Oslash" horiz-adv-x="804" unicode="Ø"/><glyph d="M561 699h111v-409q0 -149 -86 -228.5t-219 -74.5q-124 3 -206.5 82t-82.5 221v409h111v-409q0 -93 49 -145t129 -55q86 -5 140 48.5t54 151.5v409zM247 910v4h124l74 -135v-5h-93z" glyph-name="Ugrave" horiz-adv-x="751" unicode="Ù"/><glyph d="M672 699h-111v-409q0 -98 -54 -151.5t-140 -48.5q-80 3 -129 55t-49 145v409h-111v-409q0 -142 82.5 -221t206.5 -82q133 -5 219 74.5t86 228.5v409zM516 915v-4l-105 -133h-93v5l74 132h124z" glyph-name="Uacute" horiz-adv-x="751" unicode="Ú"/><glyph d="M672 699h-111v-409q0 -98 -54 -151.5t-140 -48.5q-80 3 -129 55t-49 145v409h-111v-409q0 -142 82.5 -221t206.5 -82q133 -5 219 74.5t86 228.5v409zM343 922h60l147 -136v-6h-107l-70 60l-70 -60h-107v6z" glyph-name="Ucircumflex" horiz-adv-x="751" unicode="Û"/><glyph d="M672 699h-111v-409q0 -98 -54 -151.5t-140 -48.5q-80 3 -129 55t-49 145v409h-111v-409q0 -142 82.5 -221t206.5 -82q133 -5 219 74.5t86 228.5v409zM194 835q0 29 19.5 45.5t42.5 16.5t42.5 -16.5t19.5 -45.5t-19.5 -45.5t-42.5 -16.5t-42.5 16.5t-19.5 45.5zM434 835 q0 29 19.5 45.5t43 16.5t43 -16.5t19.5 -45.5t-19.5 -45.5t-43 -16.5t-43 16.5t-19.5 45.5z" glyph-name="Udieresis" horiz-adv-x="751" unicode="Ü"/><glyph d="M342 391l-193 309h-133v-5l270 -408v-287h112v287l278 408v5h-135zM477 912v-4l-105 -133h-93v5l74 132h124z" glyph-name="Yacute" horiz-adv-x="686" unicode="Ý"/><glyph d="M87 0l1 699h110v-116h214q60 0 108.5 -20t78.5 -53t46.5 -74.5t16.5 -85.5t-16.5 -85.5t-46 -74.5t-78.5 -53t-109 -20h-213v-117h-112zM199 480v-263h213q44 0 76.5 19.5t47 48.5t14.5 63.5t-14.5 63.5t-47 48.5t-76.5 19.5h-213z" glyph-name="Thorn" horiz-adv-x="690" unicode="Þ"/><glyph d="M241 4v95q103 -32 166.5 0.5t63.5 103.5q0 67 -51 101.5t-121 34.5h-57v98h53q50 0 88 19t39 63q1 51 -34.5 73.5t-85.5 22.5q-52 0 -84.5 -22.5t-35.5 -62.5q-3 -28 -3 -59v-187q0 -42 0.5 -143t0.5 -141h-110v515q0 93 68.5 144.5t161.5 51.5q97 0 164 -49.5t67 -142.5 q0 -46 -29 -82t-79 -47q81 -18 119 -70t38 -114q0 -69 -29 -118.5t-76.5 -71.5t-108.5 -27t-125 15z" glyph-name="germandbls" horiz-adv-x="619" unicode="ß"/><glyph d="M463 415l3 78h100v-493h-98l-5 80q-23 -45 -71.5 -69t-98.5 -24q-111 -1 -182 68t-71 192q0 120 72.5 188.5t182.5 68.5q53 0 99 -24t69 -65zM303 410q-68 0 -114 -44.5t-46 -118.5t46 -119t114 -45q44 0 78.5 18t52 47t26 63.5t0 69.5t-26 64t-52 47t-78.5 18zM186 705 v4h124l74 -135v-5h-93z" glyph-name="agrave" horiz-adv-x="636" unicode="à"/><glyph d="M463 415q-23 41 -69 65t-99 24q-110 0 -182.5 -68.5t-72.5 -188.5q0 -123 71 -192t182 -68q50 0 98.5 24t71.5 69l5 -80h98v493h-100zM303 410q51 0 88.5 -24t54 -60.5t16.5 -79t-16.5 -79t-54 -60.5t-88.5 -24q-68 0 -114 45t-46 119t46 118.5t114 44.5zM443 704v-4 l-105 -133h-93v5l74 132h124z" glyph-name="aacute" horiz-adv-x="636" unicode="á"/><glyph d="M463 415q-23 41 -69 65t-99 24q-110 0 -182.5 -68.5t-72.5 -188.5q0 -123 71 -192t182 -68q50 0 98.5 24t71.5 69l5 -80h98v493h-100zM303 410q51 0 88.5 -24t54 -60.5t16.5 -79t-16.5 -79t-54 -60.5t-88.5 -24q-68 0 -114 45t-46 119t46 118.5t114 44.5zM297 713h60 l147 -136v-6h-107l-70 60l-70 -60h-107v6z" glyph-name="acircumflex" horiz-adv-x="636" unicode="â"/><glyph d="M463 415l3 78h100v-493h-98l-5 80q-23 -45 -71.5 -69t-98.5 -24q-111 -1 -182 68t-71 192q0 120 72.5 188.5t182.5 68.5q53 0 99 -24t69 -65zM303 410q-68 0 -114 -44.5t-46 -118.5t46 -119t114 -45q44 0 78.5 18t52 47t26 63.5t0 69.5t-26 64t-52 47t-78.5 18zM229 597 l-61 33q15 45 45.5 67.5t72.5 13.5q13 -3 36 -14.5t32 -14.5q49 -17 62 26l66 -25q-8 -54 -43.5 -74.5t-75.5 -10.5q-14 3 -37 14.5t-31 14.5q-45 16 -66 -30z" glyph-name="atilde" horiz-adv-x="636" unicode="ã"/><glyph d="M463 415q-23 41 -69 65t-99 24q-110 0 -182.5 -68.5t-72.5 -188.5q0 -123 71 -192t182 -68q50 0 98.5 24t71.5 69l5 -80h98v493h-100zM303 410q51 0 88.5 -24t54 -60.5t16.5 -79t-16.5 -79t-54 -60.5t-88.5 -24q-68 0 -114 45t-46 119t46 118.5t114 44.5zM148 647 q0 29 19.5 45.5t42.5 16.5t42.5 -16.5t19.5 -45.5t-19.5 -45.5t-42.5 -16.5t-42.5 16.5t-19.5 45.5zM388 647q0 29 19.5 45.5t43 16.5t43 -16.5t19.5 -45.5t-19.5 -45.5t-43 -16.5t-43 16.5t-19.5 45.5z" glyph-name="adieresis" horiz-adv-x="636" unicode="ä"/><glyph d="M463 415l3 78h100v-493h-98l-5 80q-23 -45 -71.5 -69t-98.5 -24q-111 -1 -182 68t-71 192q0 120 72.5 188.5t182.5 68.5q53 0 99 -24t69 -65zM303 410q-68 0 -114 -44.5t-46 -118.5t46 -119t114 -45q44 0 78.5 18t52 47t26 63.5t0 69.5t-26 64t-52 47t-78.5 18zM191 656 q0 51 36 80t88 29t90 -29t38 -80q0 -52 -36.5 -81.5t-90.5 -29.5q-53 0 -89 30t-36 81zM315 707q-36 0 -51 -25t0 -50t51 -25q38 0 53 25t-1 50t-52 25z" glyph-name="aring" horiz-adv-x="636" unicode="å"/><glyph d="M973 208h-401q9 -59 54 -92.5t106 -33.5q98 0 150 53l62 -63q-79 -84 -212 -84q-119 0 -173 83l-3 -71h-91l-1 78q-23 -44 -73 -67.5t-98 -23.5q-112 0 -182.5 68t-70.5 192q0 120 72.5 188.5t183.5 68.5q53 0 99 -24t70 -65l3 78h92v-72q61 85 178 85q122 0 191 -81 t44 -217zM304 410q-69 0 -114.5 -44.5t-45.5 -118.5q0 -75 45.5 -119.5t114.5 -44.5q45 0 80.5 18t53.5 47t26.5 63.5t0 69.5t-26.5 64t-53.5 47t-80.5 18zM574 295h304q0 57 -39 88t-103 31q-59 0 -104.5 -31.5t-57.5 -87.5z" glyph-name="ae" horiz-adv-x="1012" unicode="æ"/><glyph d="M146 -186l46 40q23 -34 70 -37.5t60 32.5q9 28 -25.5 42t-67.5 -4l-23 18l27 90q-87 18 -140 83t-53 168q0 123 74 191t186 68q104 0 178 -73l-66 -69q-45 44 -111 44q-68 0 -113 -44.5t-45 -116.5q0 -75 45 -117t112 -42q72 0 117 46l70 -69q-77 -77 -180 -77l-11 -40 q61 -1 85 -33.5t15 -75.5q-12 -54 -60.5 -77.5t-103.5 -8.5t-86 62z" glyph-name="ccedilla" horiz-adv-x="512" unicode="ç"/><glyph d="M547 208h-400q7 -56 50.5 -90t110.5 -34q40 0 80.5 14.5t62.5 38.5l67 -65q-37 -40 -94.5 -62t-117.5 -22q-121 0 -193.5 71t-72.5 190q0 113 72 185t187 72q124 0 193 -76t55 -222zM149 295h299q-4 57 -43.5 88t-102.5 31q-58 0 -99.5 -31t-53.5 -88zM176 698v4h124 l74 -135v-5h-93z" glyph-name="egrave" horiz-adv-x="582" unicode="è"/><glyph d="M547 208q14 146 -55 222t-193 76q-115 0 -187 -72t-72 -185q0 -119 72.5 -190t193.5 -71q60 0 117.5 22t94.5 62l-67 65q-22 -24 -62.5 -38.5t-80.5 -14.5q-67 0 -110.5 34t-50.5 90h400zM149 295q12 57 53.5 88t99.5 31q63 0 102.5 -31t43.5 -88h-299zM440 703v-4 l-105 -133h-93v5l74 132h124z" glyph-name="eacute" horiz-adv-x="582" unicode="é"/><glyph d="M547 208q14 146 -55 222t-193 76q-115 0 -187 -72t-72 -185q0 -119 72.5 -190t193.5 -71q60 0 117.5 22t94.5 62l-67 65q-22 -24 -62.5 -38.5t-80.5 -14.5q-67 0 -110.5 34t-50.5 90h400zM149 295q12 57 53.5 88t99.5 31q63 0 102.5 -31t43.5 -88h-299zM276 705h60 l147 -136v-6h-107l-70 60l-70 -60h-107v6z" glyph-name="ecircumflex" horiz-adv-x="582" unicode="ê"/><glyph d="M132 644q0 29 19.5 45.5t42.5 16.5t42.5 -16.5t19.5 -45.5t-19.5 -45.5t-42.5 -16.5t-42.5 16.5t-19.5 45.5zM352 644q0 29 19.5 45.5t43 16.5t43 -16.5t19.5 -45.5t-19.5 -45.5t-43 -16.5t-43 16.5t-19.5 45.5zM547 208q14 146 -55 222t-193 76q-115 0 -187 -72 t-72 -185q0 -119 72.5 -190t193.5 -71q60 0 117.5 22t94.5 62l-67 65q-22 -24 -62.5 -38.5t-80.5 -14.5q-67 0 -110.5 34t-50.5 90h400zM149 295q12 57 53.5 88t99.5 31q63 0 102.5 -31t43.5 -88h-299z" glyph-name="edieresis" horiz-adv-x="582" unicode="ë"/><glyph d="M-7 697v4h109l66 -134v-5h-92zM178 0h-108v481h108v-481z" glyph-name="igrave" horiz-adv-x="248" unicode="ì"/><glyph d="M239 700v-4l-82 -134h-93v5l66 133h109zM70 0h108v481h-108v-481z" glyph-name="iacute" horiz-adv-x="248" unicode="í"/><glyph d="M95 711h53l128 -138v-6h-94l-61 58l-61 -58h-93v6zM70 0h108v481h-108v-481z" glyph-name="icircumflex" horiz-adv-x="248" unicode="î"/><glyph d="M-25 647q0 29 19.5 45.5t42.5 16.5t42.5 -16.5t19.5 -45.5t-19.5 -45.5t-42.5 -16.5t-42.5 16.5t-19.5 45.5zM158 647q0 29 19.5 45.5t43 16.5t43 -16.5t19.5 -45.5t-19.5 -45.5t-43 -16.5t-43 16.5t-19.5 45.5zM70 0h108v481h-108v-481z" glyph-name="idieresis" horiz-adv-x="248" unicode="ï"/><glyph d="M294 84q70 0 109 46t39 109t-39 108.5t-109 45.5t-109 -46t-39 -108q0 -63 39 -109t109 -46zM252 480q103 11 161 -42q-12 36 -47 69.5t-64 48.5l-34 -41l-52 34l29 38q-33 20 -87 28l20 85q72 -13 128 -39l44 55l53 -38l-39 -48q99 -76 141.5 -168.5t42.5 -210.5 q1 -116 -67.5 -188.5t-186.5 -72.5q-120 0 -187 73.5t-67 174.5q0 91 55.5 160t156.5 82z" glyph-name="eth" horiz-adv-x="591" unicode="ð"/><glyph d="M548 0h-104v264q0 65 -35 103.5t-98 38.5q-60 0 -99 -43t-39 -105v-258h-103v494h94l6 -72q70 79 166 79q93 0 152.5 -63t59.5 -173v-265zM220 596l-55 33q13 44 41 66t66 13q13 -3 34.5 -14t28.5 -14q44 -17 56 26l61 -25q-8 -54 -40.5 -74t-68.5 -10q-12 3 -33.5 14.5 t-28.5 14.5q-41 16 -61 -30z" glyph-name="ntilde" horiz-adv-x="610" unicode="ñ"/><glyph d="M293 503q113 0 184.5 -73.5t71.5 -183.5q0 -111 -70.5 -183.5t-185.5 -72.5q-114 0 -184 72.5t-70 183.5t70.5 184t183.5 73zM293 408q-68 0 -109.5 -47t-41.5 -115t41 -114t110 -46t110.5 46t41.5 114q0 67 -43 114.5t-109 47.5zM156 703v4h124l74 -130v-5h-93z" glyph-name="ograve" horiz-adv-x="588" unicode="ò"/><glyph d="M293 503q-113 0 -183.5 -73t-70.5 -184t70 -183.5t184 -72.5q115 0 185.5 72.5t70.5 183.5q0 110 -71.5 183.5t-184.5 73.5zM293 408q66 0 109 -47.5t43 -114.5q0 -68 -41.5 -114t-110.5 -46t-110 46t-41 114t41.5 115t109.5 47zM434 706v-4l-104 -132h-92v5l73 131h123z " glyph-name="oacute" horiz-adv-x="588" unicode="ó"/><glyph d="M293 503q-113 0 -183.5 -73t-70.5 -184t70 -183.5t184 -72.5q115 0 185.5 72.5t70.5 183.5q0 110 -71.5 183.5t-184.5 73.5zM293 408q66 0 109 -47.5t43 -114.5q0 -68 -41.5 -114t-110.5 -46t-110 46t-41 114t41.5 115t109.5 47zM265 721h60l147 -136v-6h-107l-70 60 l-70 -60h-107v6z" glyph-name="ocircumflex" horiz-adv-x="588" unicode="ô"/><glyph d="M293 503q113 0 184.5 -73.5t71.5 -183.5q0 -111 -70.5 -183.5t-185.5 -72.5q-114 0 -184 72.5t-70 183.5t70.5 184t183.5 73zM293 408q-68 0 -109.5 -47t-41.5 -115t41 -114t110 -46t110.5 46t41.5 114q0 67 -43 114.5t-109 47.5zM203 600l-57 32q14 44 42.5 66t67.5 13 q12 -3 33.5 -14t29.5 -14q44 -17 58 25l61 -24q-8 -53 -40.5 -72.5t-70.5 -10.5q-12 3 -33 14t-30 14q-41 16 -61 -29z" glyph-name="otilde" horiz-adv-x="588" unicode="õ"/><glyph d="M133 647q0 29 19.5 45.5t42.5 16.5t42.5 -16.5t19.5 -45.5t-19.5 -45.5t-42.5 -16.5t-42.5 16.5t-19.5 45.5zM345 647q0 29 19.5 45.5t43 16.5t43 -16.5t19.5 -45.5t-19.5 -45.5t-43 -16.5t-43 16.5t-19.5 45.5zM293 503q-113 0 -183.5 -73t-70.5 -184t70 -183.5 t184 -72.5q115 0 185.5 72.5t70.5 183.5q0 110 -71.5 183.5t-184.5 73.5zM293 408q66 0 109 -47.5t43 -114.5q0 -68 -41.5 -114t-110.5 -46t-110 46t-41 114t41.5 115t109.5 47z" glyph-name="odieresis" horiz-adv-x="588" unicode="ö"/><glyph d="M58 378v-94h436v94h-436zM215 147q0 39 31.5 55t62.5 0t31 -55q0 -29 -19.5 -45.5t-43 -16.5t-43 16.5t-19.5 45.5zM215 503q0 29 19.5 45.5t43 16.5t43 -16.5t19.5 -45.5t-19.5 -45.5t-43 -16.5t-43 16.5t-19.5 45.5z" glyph-name="divide" horiz-adv-x="552" unicode="÷"/><glyph d="M293 503q50 0 95 -17l37 63h99l-63 -106q88 -72 88 -197q0 -111 -70.5 -183.5t-185.5 -72.5q-48 0 -92 14l-39 -66h-99l64 108q-88 71 -88 200q0 111 70.5 184t183.5 73zM293 408q-68 0 -109.5 -47t-41.5 -115q0 -67 39 -109l156 264q-23 7 -44 7zM293 86q69 0 110.5 46 t41.5 114q0 61 -38 105l-154 -260q15 -5 40 -5z" glyph-name="oslash" horiz-adv-x="588" unicode="ø"/><glyph d="M62 493h103v-264q0 -64 35.5 -103t98.5 -39q60 0 98.5 43t38.5 106v257h103v-494h-93l-6 73q-70 -80 -170 -80q-93 0 -150.5 63t-57.5 173v265zM174 698v4h124l74 -135v-5h-93z" glyph-name="ugrave" unicode="ù"/><glyph d="M165 493h-103v-265q0 -110 57.5 -173t150.5 -63q100 0 170 80l6 -73h93v494h-103v-257q0 -63 -38.5 -106t-98.5 -43q-63 0 -98.5 39t-35.5 103v264zM441 699v-4l-105 -133h-93v5l74 132h124z" glyph-name="uacute" unicode="ú"/><glyph d="M165 493h-103v-265q0 -110 57.5 -173t150.5 -63q100 0 170 80l6 -73h93v494h-103v-257q0 -63 -38.5 -106t-98.5 -43q-63 0 -98.5 39t-35.5 103v264zM283 710h58l142 -131v-5h-103l-68 57l-67 -57h-104v5z" glyph-name="ucircumflex" unicode="û"/><glyph d="M165 493h-103v-265q0 -110 57.5 -173t150.5 -63q100 0 170 80l6 -73h93v494h-103v-257q0 -63 -38.5 -106t-98.5 -43q-63 0 -98.5 39t-35.5 103v264zM129 644q0 29 19.5 45.5t42.5 16.5t42.5 -16.5t19.5 -45.5t-19.5 -45.5t-42.5 -16.5t-42.5 16.5t-19.5 45.5zM369 644 q0 29 19.5 45.5t43 16.5t43 -16.5t19.5 -45.5t-19.5 -45.5t-43 -16.5t-43 16.5t-19.5 45.5z" glyph-name="udieresis" unicode="ü"/><glyph d="M542 493h-115l-98 -235l-53 -138l-49 140l-85 233h-120l197 -486l-102 -236h114zM411 700v-4l-99 -126h-87v5l69 125h117z" glyph-name="yacute" horiz-adv-x="558" unicode="ý"/><glyph d="M338 89q67 0 111 42t44 115q0 74 -44 115.5t-111 41.5q-65 0 -110 -45.5t-45 -111.5t45 -111.5t110 -45.5zM174 -206h-104v906h103l1 -286q25 41 73.5 65t100.5 24q110 -1 179.5 -68t69.5 -189q0 -123 -69.5 -190t-180.5 -67q-50 0 -98 22.5t-75 67.5v-285z" glyph-name="thorn" horiz-adv-x="637" unicode="þ"/><glyph d="M542 493h-115l-98 -235l-53 -138l-49 140l-85 233h-120l197 -486l-102 -236h114zM95 648q0 38 30.5 54t61.5 0t31 -54q0 -29 -19 -45.5t-42.5 -16.5t-42.5 16.5t-19 45.5zM333 648q0 38 31 54t62 0t31 -54q0 -29 -19.5 -45.5t-42.5 -16.5t-42.5 16.5t-19.5 45.5z" glyph-name="ydieresis" horiz-adv-x="558" unicode="ÿ"/><glyph d="M640 0l-67 147h-379l-66 -147h-119l314 700h122l314 -700h-119zM532 249l-148 333l-148 -333h296zM231 772v90h312v-90h-312z" glyph-name="Amacron" horiz-adv-x="768" unicode="Ā"/><glyph d="M463 415l3 78h100v-493h-98l-5 80q-23 -45 -71.5 -69t-98.5 -24q-111 -1 -182 68t-71 192q0 120 72.5 188.5t182.5 68.5q53 0 99 -24t69 -65zM303 410q-68 0 -114 -44.5t-46 -118.5t46 -119t114 -45q44 0 78.5 18t52 47t26 63.5t0 69.5t-26 64t-52 47t-78.5 18zM164 604 v87h311v-87h-311z" glyph-name="amacron" horiz-adv-x="636" unicode="ā"/><glyph d="M640 0l-67 147h-379l-66 -147h-119l314 700h122l314 -700h-119zM532 249l-148 333l-148 -333h296zM450 891h87q0 -65 -43 -102.5t-108 -37.5t-110 37.5t-41 102.5h87q0 -28 17.5 -45t46.5 -17t46.5 17t17.5 45z" glyph-name="Abreve" horiz-adv-x="768" unicode="Ă"/><glyph d="M463 415l3 78h100v-493h-98l-5 80q-23 -45 -71.5 -69t-98.5 -24q-111 -1 -182 68t-71 192q0 120 72.5 188.5t182.5 68.5q53 0 99 -24t69 -65zM303 410q-68 0 -114 -44.5t-46 -118.5t46 -119t114 -45q44 0 78.5 18t52 47t26 63.5t0 69.5t-26 64t-52 47t-78.5 18zM387 706 h84q0 -65 -41.5 -102t-103.5 -37q-63 0 -106.5 37t-39.5 102h84q0 -28 17 -45t45 -17t44.5 17t16.5 45z" glyph-name="abreve" horiz-adv-x="636" unicode="ă"/><glyph d="M528 247l-144 330l-145 -330h289zM727 -67l55 -40q-34 -55 -110 -64q-57 -7 -97 18t-49.5 62.5t13.5 76.5t78 57l-44 99h-379l-64 -142h-121l314 700h122l316 -702q-63 7 -95 0q-37 -8 -51.5 -32.5t0.5 -44.5t51 -18t61 30z" glyph-name="Aogonek" horiz-adv-x="769" unicode="Ą"/><glyph d="M574 -108l55 -39q-33 -58 -111 -65q-50 -5 -89 16t-50 63q-10 35 10.5 74.5t81.5 59.5l-8 79q-23 -45 -71.5 -69t-98.5 -24q-111 -2 -182 67.5t-71 192.5q0 121 72 189t183 68q53 0 99 -24t69 -65l3 78h100v-537q-31 4 -60.5 -6.5t-39 -28t6.5 -38.5q11 -17 42.5 -17 t58.5 26zM303 410q-68 0 -114 -44.5t-46 -118.5t46 -119t114 -45q44 0 78.5 18t52 47t26 63.5t0 69.5t-26 64t-52 47t-78.5 18z" glyph-name="aogonek" horiz-adv-x="636" unicode="ą"/><glyph d="M677 90l-77 77q-36 -36 -86 -56t-100 -20q-127 0 -192 74.5t-66 180.5t66 183t192 77q108 0 181 -72l75 72q-106 106 -256 106q-90 0 -162.5 -31t-116.5 -83.5t-67 -117t-23 -135.5t22.5 -134t66.5 -114t116 -81t164 -30q158 0 263 104zM546 899v-4l-104 -123h-92v5 l73 122h123z" glyph-name="Cacute" horiz-adv-x="703" unicode="Ć"/><glyph d="M487 64l-70 69q-45 -46 -117 -46q-67 0 -112 42t-45 117q0 72 45 116.5t113 44.5q66 0 111 -44l66 69q-74 73 -178 73q-112 0 -186 -68t-74 -191t74 -191t186 -68q109 0 187 77zM412 701v-3l-99 -116h-86v5l69 114h116z" glyph-name="cacute" horiz-adv-x="509" unicode="ć"/><glyph d="M677 90l-77 77q-36 -36 -86 -56t-100 -20q-127 0 -192 74.5t-66 180.5t66 183t192 77q108 0 181 -72l75 72q-106 106 -256 106q-90 0 -162.5 -31t-116.5 -83.5t-67 -117t-23 -135.5t22.5 -134t66.5 -114t116 -81t164 -30q158 0 263 104zM388 918h58l142 -131v-5h-103 l-68 57l-67 -57h-104v5z" glyph-name="Ccircumflex" horiz-adv-x="703" unicode="Ĉ"/><glyph d="M487 64l-70 69q-45 -46 -117 -46q-67 0 -112 42t-45 117q0 72 45 116.5t113 44.5q66 0 111 -44l66 69q-74 73 -178 73q-112 0 -186 -68t-74 -191t74 -191t186 -68q109 0 187 77zM273 716h56l136 -126v-6h-99l-65 56l-65 -56h-100v6z" glyph-name="ccircumflex" horiz-adv-x="509" unicode="ĉ"/><glyph d="M677 90l-77 77q-36 -36 -86 -56t-100 -20q-127 0 -192 74.5t-66 180.5t66 183t192 77q108 0 181 -72l75 72q-106 106 -256 106q-90 0 -162.5 -31t-116.5 -83.5t-67 -117t-23 -135.5t22.5 -134t66.5 -114t116 -81t164 -30q158 0 263 104zM341 844q0 41 34 58t68 0t34 -58 q0 -31 -21.5 -49t-46.5 -18t-46.5 18t-21.5 49z" glyph-name="Cdotaccent" horiz-adv-x="703" unicode="Ċ"/><glyph d="M487 64l-70 69q-45 -46 -117 -46q-67 0 -112 42t-45 117q0 72 45 116.5t113 44.5q66 0 111 -44l66 69q-74 73 -178 73q-112 0 -186 -68t-74 -191t74 -191t186 -68q109 0 187 77zM224 639q0 38 33.5 54t67 0t33.5 -54t-33.5 -54t-67 0t-33.5 54z" glyph-name="cdotaccent" horiz-adv-x="509" unicode="ċ"/><glyph d="M677 90l-77 77q-36 -36 -86 -56t-100 -20q-127 0 -192 74.5t-66 180.5t66 183t192 77q108 0 181 -72l75 72q-106 106 -256 106q-90 0 -162.5 -31t-116.5 -83.5t-67 -117t-23 -135.5t22.5 -134t66.5 -114t116 -81t164 -30q158 0 263 104zM226 900v6h104l70 -58l74 58h101 v-6l-146 -128h-60z" glyph-name="Ccaron" horiz-adv-x="703" unicode="Č"/><glyph d="M487 64l-70 69q-45 -46 -117 -46q-67 0 -112 42t-45 117q0 72 45 116.5t113 44.5q66 0 111 -44l66 69q-74 73 -178 73q-112 0 -186 -68t-74 -191t74 -191t186 -68q109 0 187 77zM122 694v6h97l66 -57l69 57h95v-6l-137 -126h-56z" glyph-name="ccaron" horiz-adv-x="509" unicode="č"/><glyph d="M353 700h-265v-700h265q88 0 158 30.5t111.5 81.5t62.5 113.5t19 130.5q-1 67 -23 127t-63.5 109.5t-110 78.5t-154.5 29zM199 108v485h154q79 0 134.5 -35t79.5 -87t26 -114q2 -102 -59 -175.5t-181 -73.5h-154zM155 900v6h102l68 -60l72 60h99v-6l-143 -131h-58z" glyph-name="Dcaron" horiz-adv-x="750" unicode="Ď"/><glyph d="M299 407q-67 0 -111.5 -43t-44.5 -117q0 -73 44.5 -117t111.5 -44q66 0 111.5 45t45.5 116q0 70 -45.5 115t-111.5 45zM463 699h103v-699h-97l-6 78q-54 -88 -171 -88q-110 0 -181 69t-71 188q0 122 69.5 189.5t180.5 67.5q49 0 99.5 -23.5t73.5 -64.5v283zM605 514 l42 186h96l-65 -186h-73z" glyph-name="dcaron" horiz-adv-x="636" unicode="ď"/><glyph d="M29 306v93h64v301h265q86 0 154.5 -29t110 -78.5t63.5 -109.5t23 -127q2 -68 -19 -130.5t-62.5 -113.5t-111.5 -81.5t-158 -30.5h-265v306h-64zM204 306v-198h154q120 0 181 73.5t59 175.5q-2 62 -26 114t-79.5 87t-134.5 35h-154v-194h119v-93h-119z" glyph-name="Dcroat" horiz-adv-x="755" unicode="Đ"/><glyph d="M463 699h103v-63h63v-73h-63v-563h-97l-6 78q-54 -88 -171 -88q-110 0 -181 69t-71 188q0 122 69.5 189.5t180.5 67.5q49 0 99.5 -23.5t73.5 -64.5v147h-104v73h104v63zM299 407q-67 0 -111.5 -43t-44.5 -117q0 -73 44.5 -117t111.5 -44q66 0 111.5 45t45.5 116 q0 70 -45.5 115t-111.5 45z" glyph-name="dcroat" horiz-adv-x="636" unicode="đ"/><glyph d="M605 110v-110h-517v700h514v-109h-402v-189h386v-104h-386v-188h405zM196 783v95h301v-95h-301z" glyph-name="Emacron" horiz-adv-x="661" unicode="Ē"/><glyph d="M547 208h-400q7 -56 50.5 -90t110.5 -34q40 0 80.5 14.5t62.5 38.5l67 -65q-37 -40 -94.5 -62t-117.5 -22q-121 0 -193.5 71t-72.5 190q0 113 72 185t187 72q124 0 193 -76t55 -222zM149 295h299q-4 57 -43.5 88t-102.5 31q-58 0 -99.5 -31t-53.5 -88zM152 600v84h295 v-84h-295z" glyph-name="emacron" horiz-adv-x="582" unicode="ē"/><glyph d="M605 110v-110h-517v700h514v-109h-402v-189h386v-104h-386v-188h405zM416 912h84q0 -65 -41.5 -102t-103.5 -37q-63 0 -106.5 37t-39.5 102h84q0 -28 17 -45t45 -17t44.5 17t16.5 45z" glyph-name="Ebreve" horiz-adv-x="661" unicode="Ĕ"/><glyph d="M547 208h-400q7 -56 50.5 -90t110.5 -34q40 0 80.5 14.5t62.5 38.5l67 -65q-37 -40 -94.5 -62t-117.5 -22q-121 0 -193.5 71t-72.5 190q0 113 72 185t187 72q124 0 193 -76t55 -222zM149 295h299q-4 57 -43.5 88t-102.5 31q-58 0 -99.5 -31t-53.5 -88zM368 709h84 q0 -65 -41.5 -102t-103.5 -37q-63 0 -106.5 37t-39.5 102h84q0 -28 17 -45t45 -17t44.5 17t16.5 45z" glyph-name="ebreve" horiz-adv-x="582" unicode="ĕ"/><glyph d="M605 0v110h-405v188h386v104h-386v189h402v109h-514v-700h517zM285 840q0 40 32 56t64 0t32 -56t-32 -56.5t-64 0t-32 56.5z" glyph-name="Edotaccent" horiz-adv-x="661" unicode="Ė"/><glyph d="M547 208q14 146 -55 222t-193 76q-115 0 -187 -72t-72 -185q0 -119 72.5 -190t193.5 -71q60 0 117.5 22t94.5 62l-67 65q-22 -24 -62.5 -38.5t-80.5 -14.5q-67 0 -110.5 34t-50.5 90h400zM149 295q12 57 53.5 88t99.5 31q63 0 102.5 -31t43.5 -88h-299zM240 659 q0 38 33 54t66.5 0t33.5 -54q0 -39 -33.5 -55t-66.5 0t-33 55z" glyph-name="edotaccent" horiz-adv-x="582" unicode="ė"/><glyph d="M605 110v-110q-31 2 -56 -2.5t-38 -12.5t-21.5 -18.5t-7.5 -21t4 -19.5q13 -23 46.5 -24.5t59.5 30.5l48 -51q-25 -40 -70.5 -55t-89.5 -1t-66 51q-18 25 -11.5 61.5t40.5 62.5h-355v700h514v-109h-402v-189h386v-104h-386v-188h405z" glyph-name="Eogonek" horiz-adv-x="661" unicode="Ę"/><glyph d="M546 208h-400q7 -56 50.5 -90t110.5 -34q40 0 80.5 14.5t62.5 38.5l67 -65q-38 -42 -104 -66q-43 -24 -30 -56q11 -27 46 -30t64 27l55 -40q-25 -39 -70 -56.5t-88 -9.5t-67 37q-38 46 -2 113q-33 0 -71 6q-97 17 -154 83.5t-57 168.5q0 113 72 185t187 72q124 0 193 -76 t55 -222zM148 295h299q-4 57 -43.5 88t-102.5 31q-58 0 -99.5 -31t-53.5 -88z" glyph-name="eogonek" horiz-adv-x="583" unicode="ę"/><glyph d="M605 0v110h-405v188h386v104h-386v189h402v109h-514v-700h517zM193 903v6h102l70 -60l72 60h99v-6l-143 -132h-59z" glyph-name="Ecaron" horiz-adv-x="661" unicode="Ě"/><glyph d="M547 208q14 146 -55 222t-193 76q-115 0 -187 -72t-72 -185q0 -119 72.5 -190t193.5 -71q60 0 117.5 22t94.5 62l-67 65q-22 -24 -62.5 -38.5t-80.5 -14.5q-67 0 -110.5 34t-50.5 90h400zM149 295q12 57 53.5 88t99.5 31q63 0 102.5 -31t43.5 -88h-299zM132 700v6h101 l68 -59l71 59h98v-6l-141 -130h-58z" glyph-name="ecaron" horiz-adv-x="582" unicode="ě"/><glyph d="M602 539l70 72q-107 106 -259 106q-172 0 -270 -107.5t-98 -266.5q0 -72 22 -134.5t65 -113t115.5 -80t165.5 -29.5q164 0 275 122v287h-299v-100h195v-142q-74 -62 -171 -62q-128 0 -193 73t-65 179q-1 115 69 193t189 78q50 0 101.5 -19.5t87.5 -55.5zM369 922h59 l146 -134v-6h-106l-69 59l-69 -59h-106v6z" glyph-name="Gcircumflex" horiz-adv-x="743" unicode="Ĝ"/><glyph d="M440 474l54 66l75 -58l-59 -69q60 -70 60 -153q0 -67 -33 -117t-98 -75q130 -44 130 -161q0 -95 -78.5 -148t-185.5 -53q-122 0 -192.5 58.5t-67.5 160.5h103q-2 -55 44.5 -86.5t112.5 -32.5q63 0 110 26t47 75q0 51 -42.5 79t-112.5 28q-121 0 -194 66t-73 180 q0 117 79 182.5t188 65.5q83 0 133 -34zM307 412q-68 0 -115.5 -39.5t-47.5 -112.5q0 -71 46.5 -111t116.5 -40q69 0 114.5 42.5t45.5 108.5q0 70 -46.5 111t-113.5 41zM288 720h57l139 -129v-6h-101l-67 57l-67 -57h-101v6z" glyph-name="gcircumflex" horiz-adv-x="614" unicode="ĝ"/><glyph d="M672 611l-70 -72q-36 36 -87.5 55.5t-101.5 19.5q-119 0 -189 -78t-69 -193q0 -106 65 -179t193 -73q97 0 171 62v142h-195v100h299v-287q-111 -122 -275 -122q-93 0 -165.5 29.5t-115.5 80t-65 113t-22 134.5q0 159 98 266.5t270 107.5q152 0 259 -106zM463 914h87 q0 -61 -42.5 -96t-107.5 -35t-109.5 35t-40.5 96h86q0 -26 17.5 -42.5t46.5 -16.5q28 0 45.5 16.5t17.5 42.5z" glyph-name="Gbreve" horiz-adv-x="743" unicode="Ğ"/><glyph d="M440 474l54 66l75 -58l-59 -69q60 -70 60 -153q0 -67 -33 -117t-98 -75q130 -44 130 -161q0 -95 -78.5 -148t-185.5 -53q-122 0 -192.5 58.5t-67.5 160.5h103q-2 -55 44.5 -86.5t112.5 -32.5q63 0 110 26t47 75q0 51 -42.5 79t-112.5 28q-121 0 -194 66t-73 180 q0 117 79 182.5t188 65.5q83 0 133 -34zM307 412q-68 0 -115.5 -39.5t-47.5 -112.5q0 -71 46.5 -111t116.5 -40q69 0 114.5 42.5t45.5 108.5q0 70 -46.5 111t-113.5 41zM379 706h85q0 -62 -42 -98t-105 -36q-64 0 -108.5 36t-40.5 98h86q0 -27 17 -43.5t46 -16.5 q28 0 45 16.5t17 43.5z" glyph-name="gbreve" horiz-adv-x="614" unicode="ğ"/><glyph d="M602 539l70 72q-107 106 -259 106q-172 0 -270 -107.5t-98 -266.5q0 -72 22 -134.5t65 -113t115.5 -80t165.5 -29.5q164 0 275 122v287h-299v-100h195v-142q-74 -62 -171 -62q-128 0 -193 73t-65 179q-1 115 69 193t189 78q50 0 101.5 -19.5t87.5 -55.5zM341 845 q0 38 32.5 54t65.5 0t33 -54q0 -29 -20.5 -45.5t-45 -16.5t-45 16.5t-20.5 45.5z" glyph-name="Gdotaccent" horiz-adv-x="743" unicode="Ġ"/><glyph d="M440 474l54 66l75 -58l-59 -69q60 -70 60 -153q0 -67 -33 -117t-98 -75q130 -44 130 -161q0 -95 -78.5 -148t-185.5 -53q-122 0 -192.5 58.5t-67.5 160.5h103q-2 -55 44.5 -86.5t112.5 -32.5q63 0 110 26t47 75q0 51 -42.5 79t-112.5 28q-121 0 -194 66t-73 180 q0 117 79 182.5t188 65.5q83 0 133 -34zM307 412q-68 0 -115.5 -39.5t-47.5 -112.5q0 -71 46.5 -111t116.5 -40q69 0 114.5 42.5t45.5 108.5q0 70 -46.5 111t-113.5 41zM244 647q0 38 33 54t65.5 0t32.5 -54q0 -29 -20.5 -45.5t-45 -16.5t-45 16.5t-20.5 45.5z" glyph-name="gdotaccent" horiz-adv-x="614" unicode="ġ"/><glyph d="M672 611l-70 -72q-36 36 -87.5 55.5t-101.5 19.5q-119 0 -189 -78t-69 -193q0 -106 65 -179t193 -73q97 0 171 62v142h-195v100h299v-287q-111 -122 -275 -122q-93 0 -165.5 29.5t-115.5 80t-65 113t-22 134.5q0 159 98 266.5t270 107.5q152 0 259 -106zM465 -135 q0 -5 -1 -9t-4 -14.5t-7 -21t-13.5 -36.5t-18.5 -54h-61l21 90q-41 9 -41 48q0 34 31 48.5t62.5 0t31.5 -51.5z" glyph-name="Gcommaaccent" horiz-adv-x="743" unicode="Ģ"/><glyph d="M254 642q0 5 1 9t4 14.5t7 21t13.5 36.5t18.5 54h61l-22 -90q42 -8 42 -48q0 -21 -13 -35t-31.5 -17.5t-36.5 0t-31 18.5t-13 37zM440 474l54 66l75 -58l-59 -69q60 -70 60 -153q0 -67 -33 -117t-98 -75q130 -44 130 -161q0 -95 -78.5 -148t-185.5 -53 q-122 0 -192.5 58.5t-67.5 160.5h103q-2 -55 44.5 -86.5t112.5 -32.5q63 0 110 26t47 75q0 51 -42.5 79t-112.5 28q-121 0 -194 66t-73 180q0 117 79 182.5t188 65.5q83 0 133 -34zM307 412q-68 0 -115.5 -39.5t-47.5 -112.5q0 -71 46.5 -111t116.5 -40q69 0 114.5 42.5 t45.5 108.5q0 70 -46.5 111t-113.5 41z" glyph-name="gcommaaccent" horiz-adv-x="614" unicode="ģ"/><glyph d="M570 0h111v700h-111v-305h-370v305h-112v-700h112v291h370v-291zM358 917h59l142 -133v-6h-104l-68 58l-68 -58h-104v6z" glyph-name="Hcircumflex" horiz-adv-x="769" unicode="Ĥ"/><glyph d="M173 700h-103v-700h103v257q0 62 38.5 104.5t97.5 42.5q58 0 91 -35.5t33 -103.5v-265h103v266q0 109 -51 171.5t-152 62.5q-103 0 -160 -80v280zM265 908h58l141 -131v-5h-103l-67 57l-67 -57h-103v5z" glyph-name="hcircumflex" horiz-adv-x="599" unicode="ĥ"/><glyph d="M686 -1h-111v292h-370v-292h-112v523h-68v72h68v105h112v-105h370v105h111v-105h69v-72h-69v-523zM205 395h370v127h-370v-127z" glyph-name="Hbar" horiz-adv-x="779" unicode="Ħ"/><glyph d="M8 561v72h62v67h103v-67h113v-72h-113v-141q57 80 160 80q101 0 152 -62.5t51 -171.5v-266h-103v265q0 68 -33 103.5t-91 35.5q-59 0 -97.5 -42.5t-38.5 -104.5v-257h-103v561h-62z" glyph-name="hbar" horiz-adv-x="599" unicode="ħ"/><glyph d="M199 0h-111v700h111v-700zM56 762l-60 32q15 44 44.5 66t70.5 13q13 -3 34.5 -14t32.5 -14q48 -17 60 25l65 -24q-8 -53 -43 -73t-73 -10q-14 3 -36.5 14t-30.5 14q-44 16 -64 -29z" glyph-name="Itilde" horiz-adv-x="287" unicode="Ĩ"/><glyph d="M178 0h-108v481h108v-481zM40 602l-47 31q12 41 35.5 62t56.5 12q11 -3 29 -13.5t24 -13.5q38 -15 48 24l52 -23q-7 -50 -34.5 -68.5t-58.5 -9.5q-11 3 -29.5 14t-23.5 13q-35 14 -52 -28z" glyph-name="itilde" horiz-adv-x="248" unicode="ĩ"/><glyph d="M199 0h-111v700h111v-700zM11 765v86h260v-86h-260z" glyph-name="Imacron" horiz-adv-x="287" unicode="Ī"/><glyph d="M178 0h-108v481h108v-481zM22 615v86h203v-86h-203z" glyph-name="imacron" horiz-adv-x="248" unicode="ī"/><glyph d="M199 0h-111v700h111v-700zM196 902h74q0 -61 -36.5 -96t-91.5 -35t-93.5 35t-34.5 96h74q0 -26 14.5 -42t39.5 -16t39.5 16t14.5 42z" glyph-name="Ibreve" horiz-adv-x="287" unicode="Ĭ"/><glyph d="M178 0h-108v481h108v-481zM175 698h74q0 -61 -36.5 -96t-91.5 -35t-93.5 35t-34.5 96h74q0 -26 14.5 -42t39.5 -16t39.5 16t14.5 42z" glyph-name="ibreve" horiz-adv-x="248" unicode="ĭ"/><glyph d="M229 -68l54 -40q-25 -46 -81.5 -62.5t-108 6.5t-61.5 76q-6 31 6.5 63.5t50.5 48.5v676h111v-700q-70 0 -81 -38q-9 -27 18 -46q36 -26 83 8q4 4 9 8z" glyph-name="Iogonek" horiz-adv-x="288" unicode="Į"/><glyph d="M176 495h-103v-470q-30 -12 -45.5 -36t-14 -47.5t7.5 -44.5q15 -38 60.5 -56.5t95.5 -7t74 52.5l-54 40q-31 -26 -61 -24t-42 24q-14 30 12 53t70 21v495zM61 638q0 40 32 56t64 0t32 -56t-32 -56.5t-64 0t-32 56.5z" glyph-name="iogonek" horiz-adv-x="246" unicode="į"/><glyph d="M88 0h111v700h-111v-700zM75 837q0 40 32 56t64 0t32 -56t-32 -56.5t-64 0t-32 56.5z" glyph-name="Idotaccent" horiz-adv-x="287" unicode="İ"/><glyph d="M178 0h-108v481h108v-481z" glyph-name="dotlessi" horiz-adv-x="248" unicode="ı"/><glyph d="M199 0h-111v700h111v-700zM577 700h337v-410q0 -135 -81.5 -219t-218.5 -84q-133 0 -216 79t-83 218h110q0 -92 49 -142t140 -50q89 0 138.5 54.5t49.5 143.5v306h-225v104z" glyph-name="IJ" horiz-adv-x="992" unicode="Ĳ"/><glyph d="M173 495h-103v-495h103v495zM58 638q0 40 32 56t64 0t32 -56t-32 -56.5t-64 0t-32 56.5zM416 495h-103v-553q0 -47 -11.5 -69t-45.5 -23q-29 -1 -63 15l-37 -81q48 -31 104 -31q82 0 119 47t37 142v553zM301 640q0 40 32 56t64 0t32 -56t-32 -56.5t-64 0t-32 56.5z" glyph-name="ij" horiz-adv-x="486" unicode="ĳ"/><glyph d="M627 700h-337v-104h225v-306q0 -89 -49.5 -143.5t-138.5 -54.5q-91 0 -140 50t-49 142h-110q0 -139 83 -218t216 -79q137 0 218.5 84t81.5 219v410zM402 917h59l146 -130v-6h-106l-70 57l-69 -57h-106v6z" glyph-name="Jcircumflex" horiz-adv-x="705" unicode="Ĵ"/><glyph d="M173 495h-103v-553q0 -47 -11.5 -69t-45.5 -23q-29 -1 -63 15l-37 -81q48 -31 104 -31q82 0 119 47t37 142v553zM97 710h47l115 -129v-6h-91l-48 51l-48 -51h-90v6z" glyph-name="jcircumflex" horiz-adv-x="243" unicode="ĵ"/><glyph d="M624 700v-4l-321 -334l349 -355v-7h-140l-312 319v-319h-112v700h112v-302l285 302h139zM408 -114q0 -5 -1 -9t-4 -14.5t-7 -21t-13.5 -36.5t-18.5 -54h-61l21 90q-41 9 -41 48q0 21 13 35t31.5 17.5t36.5 0t31 -18.5t13 -37z" glyph-name="Kcommaaccent" horiz-adv-x="648" unicode="Ķ"/><glyph d="M70 699h104v-408l183 202h125v-6l-213 -226l242 -254v-7h-126l-211 228v-228h-104v699zM341 -114q0 -7 -40 -126h-55l20 84q-38 9 -38 45q0 19 11.5 32.5t28 16.5t33.5 0t28.5 -17t11.5 -35z" glyph-name="kcommaaccent" horiz-adv-x="514" unicode="ķ"/><glyph d="M70 493h104v-202l183 202h125v-6l-213 -226l242 -254v-7h-126l-211 228v-228h-104v493z" glyph-name="kgreenlandic" horiz-adv-x="514" unicode="ĸ"/><glyph d="M200 700h-112v-700h481v104h-369v596zM285 898v-4l-103 -125h-91v5l72 124h122z" glyph-name="Lacute" horiz-adv-x="587" unicode="Ĺ"/><glyph d="M177 699h-103v-699h103v699zM260 888v-4l-100 -120h-88v4l70 120h118z" glyph-name="lacute" horiz-adv-x="251" unicode="ĺ"/><glyph d="M88 700h112v-596h369v-104h-481v700zM396 -124q0 -5 -1 -9t-4 -14.5t-7 -21t-13.5 -36.5t-18.5 -54h-61l21 90q-41 9 -41 48q0 21 13 35t31.5 17.5t36.5 0t31 -18.5t13 -37z" glyph-name="Lcommaaccent" horiz-adv-x="587" unicode="Ļ"/><glyph d="M74 699h103v-699h-103v699zM180 -108q0 -7 -40 -126h-54l19 84q-37 8 -37 44q0 19 11.5 32.5t28 16.5t33 0t28 -17t11.5 -34z" glyph-name="lcommaaccent" horiz-adv-x="251" unicode="ļ"/><glyph d="M88 700h112v-596h369v-104h-481v700zM346 510l44 191h99l-67 -191h-76z" glyph-name="Lcaron" horiz-adv-x="587" unicode="Ľ"/><glyph d="M74 699h103v-699h-103v699zM215 508l44 192h99l-67 -192h-76z" glyph-name="lcaron" horiz-adv-x="247" unicode="ľ"/><glyph d="M88 700h112v-596h369v-104h-481v700zM324 330q0 31 21 49t46 18t46 -18t21 -49t-21 -49t-46 -18t-46 18t-21 49z" glyph-name="Ldot" horiz-adv-x="587" unicode="Ŀ"/><glyph d="M74 699h103v-699h-103v699zM240 310q0 31 21 49t46 18t46 -18t21 -49t-21 -49t-46 -18t-46 18t-21 49z" glyph-name="ldot" horiz-adv-x="368" unicode="ŀ"/><glyph d="M207 402l109 51v-88l-109 -50v-211h369v-104h-481v261l-76 -35v86l76 36v352h112v-298z" glyph-name="Lslash" horiz-adv-x="594" unicode="Ł"/><glyph d="M265 431v-80l-73 -35v-316h-103v267l-66 -30v80l66 31v351h103v-303z" glyph-name="lslash" horiz-adv-x="284" unicode="ł"/><glyph d="M571 202l-397 498h-86v-700h113v494l397 -494h85v700h-112v-498zM520 899v-4l-107 -130h-95v5l76 129h126z" glyph-name="Nacute" horiz-adv-x="771" unicode="Ń"/><glyph d="M444 0h104v265q0 110 -59.5 173t-152.5 63q-96 0 -166 -79l-6 72h-94v-494h103v258q0 62 39 105t99 43q63 0 98 -38.5t35 -103.5v-264zM436 700v-4l-99 -126h-87v5l69 125h117z" glyph-name="nacute" horiz-adv-x="610" unicode="ń"/><glyph d="M174 700l397 -498v498h112v-700h-85l-397 494v-494h-113v700h86zM454 -124q0 -5 -1 -9t-4 -14.5t-7 -21t-13.5 -36.5t-18.5 -54h-61l21 90q-41 9 -41 48q0 21 13 35t31.5 17.5t36.5 0t31 -18.5t13 -37z" glyph-name="Ncommaaccent" horiz-adv-x="771" unicode="Ņ"/><glyph d="M548 0h-104v264q0 65 -35 103.5t-98 38.5q-60 0 -99 -43t-39 -105v-258h-103v494h94l6 -72q70 79 166 79q93 0 152.5 -63t59.5 -173v-265zM368 -112q0 -7 -40 -128h-56l19 86q-38 9 -38 45q0 20 12 33.5t28.5 16.5t33.5 0t29 -17.5t12 -35.5z" glyph-name="ncommaaccent" horiz-adv-x="610" unicode="ņ"/><glyph d="M571 202l-397 498h-86v-700h113v494l397 -494h85v700h-112v-498zM221 900v6h101l68 -59l71 59h98v-6l-141 -130h-58z" glyph-name="Ncaron" horiz-adv-x="771" unicode="Ň"/><glyph d="M444 0h104v265q0 110 -59.5 173t-152.5 63q-96 0 -166 -79l-6 72h-94v-494h103v258q0 62 39 105t99 43q63 0 98 -38.5t35 -103.5v-264zM147 699v6h99l67 -58l70 58h97v-6l-140 -128h-57z" glyph-name="ncaron" horiz-adv-x="610" unicode="ň"/><glyph d="M548 0h-104v264q0 65 -35 103.5t-98 38.5q-60 0 -99 -43t-39 -105v-258h-103v494h94l6 -72q70 79 166 79q93 0 152.5 -63t59.5 -173v-265z" glyph-name="napostrophe" horiz-adv-x="610" unicode="ŉ"/><glyph d="M174 700l397 -499v499h112v-723q1 -95 -36.5 -142t-119.5 -47q-55 0 -102 31l36 81q36 -16 62 -15q34 1 45.5 23t11.5 69v45l-379 472v-494h-113v700h86z" glyph-name="Eng" horiz-adv-x="771" unicode="Ŋ"/><glyph d="M444 -26v290q0 65 -35 103.5t-98 38.5q-60 0 -99 -43t-39 -105v-258h-103v494h94l6 -72q70 79 166 79q93 0 152.5 -63t59.5 -173v-291q0 -95 -37 -142t-119 -47q-52 0 -102 31l37 82q33 -17 61 -16q34 1 45 22.5t11 69.5z" glyph-name="eng" horiz-adv-x="610" unicode="ŋ"/><glyph d="M405 713q170 -1 263 -107.5t93 -258.5q0 -72 -22.5 -136.5t-65 -115.5t-112.5 -80.5t-158 -29.5t-158 30.5t-112.5 81.5t-65 114.5t-22.5 134.5q0 160 101 263.5t259 103.5zM156 345q1 -48 15.5 -92.5t43.5 -82t77.5 -60t110.5 -22.5q123 0 185 73.5t62 183.5 q0 68 -24.5 126t-82 98.5t-138.5 41.5q-118 0 -183.5 -74t-65.5 -192zM254 787v87h298v-87h-298z" glyph-name="Omacron" horiz-adv-x="806" unicode="Ō"/><glyph d="M293 503q113 0 184.5 -73.5t71.5 -183.5q0 -111 -70.5 -183.5t-185.5 -72.5q-114 0 -184 72.5t-70 183.5t70.5 184t183.5 73zM293 408q-68 0 -109.5 -47t-41.5 -115t41 -114t110 -46t110.5 46t41.5 114q0 67 -43 114.5t-109 47.5zM149 601v86h288v-86h-288z" glyph-name="omacron" horiz-adv-x="588" unicode="ō"/><glyph d="M405 713q170 -1 263 -107.5t93 -258.5q0 -72 -22.5 -136.5t-65 -115.5t-112.5 -80.5t-158 -29.5t-158 30.5t-112.5 81.5t-65 114.5t-22.5 134.5q0 160 101 263.5t259 103.5zM156 345q1 -48 15.5 -92.5t43.5 -82t77.5 -60t110.5 -22.5q123 0 185 73.5t62 183.5 q0 68 -24.5 126t-82 98.5t-138.5 41.5q-118 0 -183.5 -74t-65.5 -192zM473 909h85q0 -58 -42 -91.5t-105 -33.5q-65 0 -109.5 33.5t-39.5 91.5h85q0 -26 17.5 -41t46.5 -15q28 0 45 15.5t17 40.5z" glyph-name="Obreve" horiz-adv-x="806" unicode="Ŏ"/><glyph d="M293 503q113 0 184.5 -73.5t71.5 -183.5q0 -111 -70.5 -183.5t-185.5 -72.5q-114 0 -184 72.5t-70 183.5t70.5 184t183.5 73zM293 408q-68 0 -109.5 -47t-41.5 -115t41 -114t110 -46t110.5 46t41.5 114q0 67 -43 114.5t-109 47.5zM355 698h83q0 -62 -40.5 -98t-102.5 -36 t-105 35.5t-39 98.5h83q0 -27 16.5 -43.5t44.5 -16.5q27 0 43.5 16.5t16.5 43.5z" glyph-name="obreve" horiz-adv-x="588" unicode="ŏ"/><glyph d="M405 713q-158 0 -259 -103.5t-101 -263.5q0 -71 22.5 -134.5t65 -114.5t112.5 -81.5t158 -30.5t158 29.5t112.5 80.5t65 115.5t22.5 136.5q0 152 -93 258.5t-263 107.5zM156 345q0 118 65.5 192t183.5 74q81 -1 138.5 -41.5t82 -98.5t24.5 -126q0 -110 -62 -183.5 t-185 -73.5q-62 0 -110.5 22.5t-77.5 60t-43.5 82t-15.5 92.5zM613 910v-3l-97 -125h-84v1l81 127h100zM452 911v-4l-96 -124h-85v1l81 127h100z" glyph-name="Ohungarumlaut" horiz-adv-x="806" unicode="Ő"/><glyph d="M293 503q-113 0 -183.5 -73t-70.5 -184t70 -183.5t184 -72.5q115 0 185.5 72.5t70.5 183.5q0 110 -71.5 183.5t-184.5 73.5zM293 408q66 0 109 -47.5t43 -114.5q0 -68 -41.5 -114t-110.5 -46t-110 46t-41 114t41.5 115t109.5 47zM497 684v-2l-92 -109h-80l77 111h95z M343 685v-3l-92 -109h-80v1l77 111h95z" glyph-name="ohungarumlaut" horiz-adv-x="588" unicode="ő"/><glyph d="M954 101v-101h-449q-45 -13 -103 -13q-172 0 -264 103.5t-92 262.5t92 259t264 100q34 0 104 -12h444v-100h-342v-196h326v-100h-326v-203h346zM403 618q-118 0 -181.5 -75.5t-63.5 -191.5q0 -67 24 -124.5t76 -97.5t124 -44q66 -6 123 13v502q-43 18 -102 18z" glyph-name="OE" horiz-adv-x="1008" unicode="Œ"/><glyph d="M936 208h-396q6 -57 48 -90.5t109 -33.5q39 0 80 14.5t63 38.5l67 -65q-37 -41 -94 -62.5t-117 -21.5q-71 0 -125 29.5t-83 83.5q-65 -111 -195 -111q-114 0 -184 72.5t-70 183.5t70.5 184.5t183.5 73.5q65 0 118.5 -29.5t81.5 -82.5q24 50 76.5 81.5t119.5 31.5 q124 0 192.5 -76t54.5 -221zM293 408q-68 0 -109.5 -47t-41.5 -115t41 -114t110 -46t110 46t41 114q0 67 -42.5 114.5t-108.5 47.5zM539 295h298q-4 57 -43 88t-102 31q-58 0 -99.5 -31t-53.5 -88z" glyph-name="oe" horiz-adv-x="971" unicode="œ"/><glyph d="M692 0l-12 20l-209 233q97 14 143.5 74.5t46.5 143.5q0 94 -65.5 161.5t-181.5 67.5q-54 0 -163 0.5t-163 0.5v-701h112v242h148l213 -242h131zM200 598h214q65 0 99 -38.5t34 -90.5q0 -53 -34 -89t-100 -36h-213v254zM463 910v-4l-100 -128h-89v5l71 127h118z" glyph-name="Racute" horiz-adv-x="721" unicode="Ŕ"/><glyph d="M166 493h-96v-493h103v267q0 65 38 100t95 35q50 0 87 -30l47 90q-47 42 -122 42q-102 0 -145 -76zM346 699v-3l-93 -118h-83v4l66 117h110z" glyph-name="racute" horiz-adv-x="440" unicode="ŕ"/><glyph d="M680 20l12 -20h-131l-213 242h-148v-242h-112v701q54 0 163 -0.5t163 -0.5q116 0 181.5 -67.5t65.5 -161.5q0 -83 -46.5 -143.5t-143.5 -74.5zM414 598h-214v-254h213q66 0 100 36t34 89q0 52 -34 90.5t-99 38.5zM427 -124q0 -5 -1 -9t-4 -14.5t-7 -21t-13.5 -36.5 t-18.5 -54h-61l21 90q-41 9 -41 48q0 34 31 48.5t62.5 0t31.5 -51.5z" glyph-name="Rcommaaccent" horiz-adv-x="721" unicode="Ŗ"/><glyph d="M70 493h96l7 -65q43 76 145 76q75 0 122 -42l-47 -90q-37 30 -87 30q-57 0 -95 -35t-38 -100v-267h-103v493zM179 -118q0 -8 -41 -130h-57l20 87q-39 8 -39 46q0 20 12 33.5t29 17t34.5 0t29.5 -18t12 -35.5z" glyph-name="rcommaaccent" horiz-adv-x="440" unicode="ŗ"/><glyph d="M692 0l-12 20l-209 233q97 14 143.5 74.5t46.5 143.5q0 94 -65.5 161.5t-181.5 67.5q-54 0 -163 0.5t-163 0.5v-701h112v242h148l213 -242h131zM200 598h214q65 0 99 -38.5t34 -90.5q0 -53 -34 -89t-100 -36h-213v254zM169 900v6h101l68 -59l71 59h98v-6l-141 -130h-58z " glyph-name="Rcaron" horiz-adv-x="721" unicode="Ř"/><glyph d="M166 493h-96v-493h103v267q0 65 38 100t95 35q50 0 87 -30l47 90q-47 42 -122 42q-102 0 -145 -76zM83 697v6h94l64 -58l67 58h91v-6l-132 -128h-55z" glyph-name="rcaron" horiz-adv-x="440" unicode="ř"/><glyph d="M506 545l85 57q-74 118 -261 118q-50 0 -96 -11.5t-86 -34.5t-64 -63t-24 -92q0 -43 15.5 -76.5t39 -54.5t61.5 -36t72.5 -23t82.5 -14q84 -11 131.5 -36.5t47.5 -78.5q0 -41 -27.5 -68.5t-65.5 -37.5t-84 -10q-150 0 -218 115l-84 -56q86 -159 301 -159q78 0 140.5 20.5 t106 70.5t43.5 125q0 56 -22.5 96.5t-65.5 64t-87 35.5t-106 21q-83 12 -126.5 33t-43.5 67q0 49 45 77.5t117 28.5q55 -1 101.5 -21.5t71.5 -56.5zM467 912v-4l-105 -132h-92v5l73 131h124z" glyph-name="Sacute" horiz-adv-x="660" unicode="Ś"/><glyph d="M385 372l58 68q-74 66 -190 66q-80 0 -142.5 -37.5t-62.5 -112.5q1 -129 201 -148q58 -6 86.5 -21t27.5 -47t-32 -48t-73 -16q-109 2 -173 73l-54 -73q81 -91 225 -91q95 0 152 43t58 113q0 45 -18.5 76t-53 46.5t-65 22t-72.5 10.5q-106 10 -107 63q0 29 28.5 44.5 t76.5 14.5q80 0 130 -46zM372 700v-4l-97 -122h-86v4l69 122h114z" glyph-name="sacute" horiz-adv-x="499" unicode="ś"/><glyph d="M506 545l85 57q-74 118 -261 118q-50 0 -96 -11.5t-86 -34.5t-64 -63t-24 -92q0 -43 15.5 -76.5t39 -54.5t61.5 -36t72.5 -23t82.5 -14q84 -11 131.5 -36.5t47.5 -78.5q0 -41 -27.5 -68.5t-65.5 -37.5t-84 -10q-150 0 -218 115l-84 -56q86 -159 301 -159q78 0 140.5 20.5 t106 70.5t43.5 125q0 56 -22.5 96.5t-65.5 64t-87 35.5t-106 21q-83 12 -126.5 33t-43.5 67q0 49 45 77.5t117 28.5q55 -1 101.5 -21.5t71.5 -56.5zM311 932h60l147 -136v-6h-107l-70 60l-70 -60h-107v6z" glyph-name="Scircumflex" horiz-adv-x="660" unicode="Ŝ"/><glyph d="M385 372l58 68q-74 66 -190 66q-80 0 -142.5 -37.5t-62.5 -112.5q1 -129 201 -148q58 -6 86.5 -21t27.5 -47t-32 -48t-73 -16q-109 2 -173 73l-54 -73q81 -91 225 -91q95 0 152 43t58 113q0 45 -18.5 76t-53 46.5t-65 22t-72.5 10.5q-106 10 -107 63q0 29 28.5 44.5 t76.5 14.5q80 0 130 -46zM236 710h56l136 -126v-6h-99l-65 56l-65 -56h-100v6z" glyph-name="scircumflex" horiz-adv-x="499" unicode="ŝ"/><glyph d="M211 -189l48 40q21 -28 66.5 -33t59.5 30q8 27 -22.5 41.5t-66.5 -2.5l-24 18l26 80q-200 12 -265 166l95 48q24 -56 81.5 -85.5t125.5 -29.5q46 0 84 10t65.5 37.5t27.5 68.5q0 52 -47 77.5t-132 37.5q-47 6 -82 13.5t-72.5 23t-61.5 36t-39.5 54.5t-15.5 77q0 52 24 92 t64 63t86 34.5t96 11.5q199 0 270 -134l-90 -47q-23 38 -71 60t-106 23q-72 0 -117 -28.5t-45 -77.5q0 -24 12.5 -42t38.5 -28.5t52.5 -16.5t66.5 -12q50 -7 85.5 -14.5t75 -23.5t64 -38t40.5 -58t16 -83q-1 -99 -70.5 -152t-177.5 -63l-12 -42q62 -1 87 -33.5t16 -74.5 q-12 -53 -64.5 -73.5t-109 -5.5t-82.5 55z" glyph-name="Scedilla" horiz-adv-x="665" unicode="Ş"/><glyph d="M143 -174l41 39q19 -25 62 -30t56 27q8 25 -21.5 38t-62.5 -3l-22 17l25 73q-119 7 -190 89l54 73q63 -71 173 -73q42 0 73 16t32 48t-27.5 47t-86.5 21q-200 17 -201 148q0 75 62.5 112.5t142.5 37.5q116 0 190 -66l-58 -68q-50 46 -130 46q-48 1 -76.5 -14.5 t-28.5 -44.5q0 -26 24 -40.5t59 -18.5t76 -12t76 -20t58 -44.5t23 -82.5q-1 -63 -48.5 -105t-128.5 -49l-11 -38q52 1 77 -23t24 -56q-2 -59 -48 -85t-102 -13t-86 54z" glyph-name="scedilla" horiz-adv-x="500" unicode="ş"/><glyph d="M506 545l85 57q-74 118 -261 118q-50 0 -96 -11.5t-86 -34.5t-64 -63t-24 -92q0 -43 15.5 -76.5t39 -54.5t61.5 -36t72.5 -23t82.5 -14q84 -11 131.5 -36.5t47.5 -78.5q0 -41 -27.5 -68.5t-65.5 -37.5t-84 -10q-150 0 -218 115l-84 -56q86 -159 301 -159q78 0 140.5 20.5 t106 70.5t43.5 125q0 56 -22.5 96.5t-65.5 64t-87 35.5t-106 21q-83 12 -126.5 33t-43.5 67q0 49 45 77.5t117 28.5q55 -1 101.5 -21.5t71.5 -56.5zM159 910v6h106l72 -62l75 62h103v-6l-149 -137h-61z" glyph-name="Scaron" horiz-adv-x="660" unicode="Š"/><glyph d="M385 372l58 68q-74 66 -190 66q-80 0 -142.5 -37.5t-62.5 -112.5q1 -129 201 -148q58 -6 86.5 -21t27.5 -47t-32 -48t-73 -16q-109 2 -173 73l-54 -73q81 -91 225 -91q95 0 152 43t58 113q0 45 -18.5 76t-53 46.5t-65 22t-72.5 10.5q-106 10 -107 63q0 29 28.5 44.5 t76.5 14.5q80 0 130 -46zM96 690v6h96l65 -57l68 57h93v-6l-135 -124h-55z" glyph-name="scaron" horiz-adv-x="499" unicode="š"/><glyph d="M247 0v598h-230v102h572v-102h-229v-598h-37l-13 -45q64 -1 87.5 -32.5t14.5 -75.5q-11 -54 -62.5 -75t-107 -5.5t-81.5 56.5l47 40q21 -31 68.5 -31t55.5 28q8 29 -22 43.5t-65 -3.5l-24 19z" glyph-name="Tcommaaccent" horiz-adv-x="606" unicode="Ţ"/><glyph d="M125 624l104 11v-143h144v-89h-145v-224q0 -92 71 -92q29 0 63 17l30 -88q-50 -22 -99 -22h-12l-13 -42q61 0 85 -30.5t16 -70.5q-10 -51 -55 -75t-99 -11t-88 57l40 43q23 -30 68.5 -33.5t55.5 30.5q6 27 -23.5 39.5t-64.5 -3.5l-20 18l29 91q-87 36 -87 172v224h-95v89 h95v132z" glyph-name="tcommaaccent" horiz-adv-x="407" unicode="ţ"/><glyph d="M247 599v-599h113v599h229v101h-572v-101h230zM126 912v6h106l72 -62l75 62h103v-6l-149 -137h-61z" glyph-name="Tcaron" horiz-adv-x="606" unicode="Ť"/><glyph d="M122 624l104 11v-143h101v-89h-102v-235q0 -81 71 -81q35 0 63 14l30 -85q-50 -22 -99 -22q-81 -2 -124.5 42.5t-43.5 131.5v235h-92v89h92v132zM366 459l43 188h97l-66 -188h-74z" glyph-name="tcaron" horiz-adv-x="456" unicode="ť"/><glyph d="M138 297v82h112v219h-230v102h572v-102h-229v-219h116v-82h-116v-297h-113v297h-112z" glyph-name="Tbar" horiz-adv-x="613" unicode="Ŧ"/><glyph d="M51 231v74h74v98h-95v89h95v132l104 11v-143h144v-89h-145v-98h109v-74h-109v-63q0 -81 71 -81q29 0 63 17l30 -88q-50 -22 -99 -22q-81 -2 -124.5 42.5t-43.5 131.5v63h-74z" glyph-name="tbar" horiz-adv-x="407" unicode="ŧ"/><glyph d="M561 699h111v-409q0 -149 -86 -228.5t-219 -74.5q-124 3 -206.5 82t-82.5 221v409h111v-409q0 -93 49 -145t129 -55q86 -5 140 48.5t54 151.5v409zM286 769l-58 33q14 44 43 66t69 13q12 -3 34 -14t30 -14q46 -17 58 26l62 -25q-8 -54 -41 -74t-71 -10q-12 3 -34 14.5 t-30 14.5q-43 15 -62 -30z" glyph-name="Utilde" horiz-adv-x="751" unicode="Ũ"/><glyph d="M62 493h103v-264q0 -64 35.5 -103t98.5 -39q60 0 98.5 43t38.5 106v257h103v-494h-93l-6 73q-70 -80 -170 -80q-93 0 -150.5 63t-57.5 173v265zM225 600l-56 32q32 95 108 78q11 -3 31 -14t30 -14q45 -17 57 25l59 -24q-7 -52 -39.5 -72t-68.5 -10q-12 3 -33 14t-28 14 q-42 14 -60 -29z" glyph-name="utilde" unicode="ũ"/><glyph d="M561 699h111v-409q0 -149 -86 -228.5t-219 -74.5q-124 3 -206.5 82t-82.5 221v409h111v-409q0 -93 49 -145t129 -55q86 -5 140 48.5t54 151.5v409zM236 780v88h286v-88h-286z" glyph-name="Umacron" horiz-adv-x="751" unicode="Ū"/><glyph d="M62 493h103v-264q0 -64 35.5 -103t98.5 -39q60 0 98.5 43t38.5 106v257h103v-494h-93l-6 73q-70 -80 -170 -80q-93 0 -150.5 63t-57.5 173v265zM168 617v81h286v-81h-286z" glyph-name="umacron" unicode="ū"/><glyph d="M561 699h111v-409q0 -149 -86 -228.5t-219 -74.5q-124 3 -206.5 82t-82.5 221v409h111v-409q0 -93 49 -145t129 -55q86 -5 140 48.5t54 151.5v409zM443 904h84q0 -65 -41.5 -102t-103.5 -37q-63 0 -106.5 37t-39.5 102h84q0 -28 17 -45t45 -17t44.5 17t16.5 45z" glyph-name="Ubreve" horiz-adv-x="751" unicode="Ŭ"/><glyph d="M62 493h103v-264q0 -64 35.5 -103t98.5 -39q60 0 98.5 43t38.5 106v257h103v-494h-93l-6 73q-70 -80 -170 -80q-93 0 -150.5 63t-57.5 173v265zM369 700h82q0 -62 -40 -98t-101 -36t-104 36t-39 98h82q0 -27 16.5 -43.5t44.5 -16.5q27 0 43 16.5t16 43.5z" glyph-name="ubreve" unicode="ŭ"/><glyph d="M561 699h111v-409q0 -149 -86 -228.5t-219 -74.5q-124 3 -206.5 82t-82.5 221v409h111v-409q0 -93 49 -145t129 -55q86 -5 140 48.5t54 151.5v409zM271 840q0 49 34 76.5t83 27.5t84.5 -27.5t35.5 -76.5t-34.5 -77t-84.5 -28t-84 28t-34 77zM388 889q-34 0 -48 -23.5 t0 -47.5t48 -24q35 0 49 24t-0.5 47.5t-48.5 23.5z" glyph-name="Uring" horiz-adv-x="751" unicode="Ů"/><glyph d="M62 493h103v-264q0 -64 35.5 -103t98.5 -39q60 0 98.5 43t38.5 106v257h103v-494h-93l-6 73q-70 -80 -170 -80q-93 0 -150.5 63t-57.5 173v265zM194 624q0 48 33 74.5t81 26.5t82 -26.5t34 -74.5q0 -47 -33.5 -74.5t-81.5 -27.5q-49 0 -82 27t-33 75zM308 672 q-25 0 -39 -14.5t-14 -32t14 -32t39 -14.5q34 0 47.5 23.5t-0.5 46.5t-47 23z" glyph-name="uring" unicode="ů"/><glyph d="M672 699h-111v-409q0 -98 -54 -151.5t-140 -48.5q-80 3 -129 55t-49 145v409h-111v-409q0 -142 82.5 -221t206.5 -82q133 -5 219 74.5t86 228.5v409zM575 900v-3l-98 -127h-84v1l81 129h101zM412 901v-4l-97 -126h-85v1l82 129h100z" glyph-name="Uhungarumlaut" horiz-adv-x="751" unicode="Ű"/><glyph d="M165 493h-103v-265q0 -110 57.5 -173t150.5 -63q100 0 170 80l6 -73h93v494h-103v-257q0 -63 -38.5 -106t-98.5 -43q-63 0 -98.5 39t-35.5 103v264zM490 701v-3l-93 -120h-80v1l77 122h96zM335 702v-4l-92 -119h-81v1l77 122h96z" glyph-name="uhungarumlaut" unicode="ű"/><glyph d="M561 700h111v-392q0 -234 -173 -301h1q-28 -12 -38.5 -36t2.5 -43.5t46 -19.5q42 2 73 34l58 -44q-18 -31 -52 -51t-72 -24q-91 -8 -129.5 50t-4.5 115q-133 -2 -219 77t-86 225v410h111v-410q0 -99 56 -152t143 -49q80 3 126.5 56t46.5 145v410z" glyph-name="Uogonek" horiz-adv-x="751" unicode="Ų"/><glyph d="M555 -126l41 -52q-34 -32 -84 -41.5t-94.5 9.5t-58.5 64q-11 37 9 78.5t78 54.5l-6 85q-70 -80 -170 -80q-98 0 -153 66t-55 184v251h103v-250q0 -156 134 -156q60 0 98.5 43t38.5 106v257h103v-549q-41 4 -75.5 -13t-27.5 -48q4 -23 38.5 -30t80.5 21z" glyph-name="uogonek" unicode="ų"/><glyph d="M806 -1l250 701h-125l-174 -539l-185 539h-72l-181 -539l-178 539h-125l254 -701h98l92 246l77 236l77 -235l93 -247h99zM507 925h59l144 -133v-6h-105l-69 58l-68 -58h-105v6z" glyph-name="Wcircumflex" horiz-adv-x="1074" unicode="Ŵ"/><glyph d="M469 494h-89l-118 -388l-122 388h-116l174 -496h120l58 164l49 172l48 -172l58 -164h120l173 496h-115l-122 -388zM396 710h57l142 -131v-5h-103l-67 57l-68 -57h-103v5z" glyph-name="wcircumflex" horiz-adv-x="848" unicode="ŵ"/><glyph d="M342 391l-193 309h-133v-5l270 -408v-287h112v287l278 408v5h-135zM316 920h57l141 -130v-6h-103l-67 58l-67 -58h-102v6z" glyph-name="Ycircumflex" horiz-adv-x="686" unicode="Ŷ"/><glyph d="M542 493h-115l-98 -235l-53 -138l-49 140l-85 233h-120l197 -486l-102 -236h114zM251 710h56l137 -127v-6h-100l-65 56l-66 -56h-100v6z" glyph-name="ycircumflex" horiz-adv-x="558" unicode="ŷ"/><glyph d="M342 391l-193 309h-133v-5l270 -408v-287h112v287l278 408v5h-135zM166 831q0 37 30 52t59.5 0t29.5 -52t-29.5 -52t-59.5 0t-30 52zM395 831q0 37 29.5 52t59.5 0t30 -52t-30 -52t-59.5 0t-29.5 52z" glyph-name="Ydieresis" horiz-adv-x="686" unicode="Ÿ"/><glyph d="M58 700v-103h346l-378 -534v-63h543v107h-385l385 542v51h-511zM461 905v-4l-110 -126h-98v5l78 125h130z" glyph-name="Zacute" unicode="Ź"/><glyph d="M436 493h-389v-94h238l-255 -357v-42h408v101h-250l248 344v48zM362 699v-4l-98 -124h-87v4l69 124h116z" glyph-name="zacute" horiz-adv-x="477" unicode="ź"/><glyph d="M58 700v-103h346l-378 -534v-63h543v107h-385l385 542v51h-511zM247 834q0 29 21 45.5t46.5 16.5t46.5 -16.5t21 -45.5q0 -39 -34 -55t-67.5 0t-33.5 55z" glyph-name="Zdotaccent" unicode="Ż"/><glyph d="M436 493h-389v-94h238l-255 -357v-42h408v101h-250l248 344v48zM185 646q0 40 33.5 56t66.5 0t33 -56t-33 -56t-66.5 0t-33.5 56z" glyph-name="zdotaccent" horiz-adv-x="477" unicode="ż"/><glyph d="M58 700v-103h346l-378 -534v-63h543v107h-385l385 542v51h-511zM145 910v6h106l72 -62l75 62h103v-6l-149 -137h-61z" glyph-name="Zcaron" unicode="Ž"/><glyph d="M436 493h-389v-94h238l-255 -357v-42h408v101h-250l248 344v48zM89 694v6h95l65 -57l68 57h93v-6l-135 -124h-54z" glyph-name="zcaron" horiz-adv-x="477" unicode="ž"/><glyph d="M226 0h-104v396h-94v91h94v36q0 89 49.5 138t128.5 49q63 0 121 -39l-40 -77q-40 26 -75 26q-37 0 -58.5 -24.5t-21.5 -72.5v-523z" glyph-name="longs" horiz-adv-x="316" unicode="ſ"/><glyph d="M146 -2v398h-94v91h94v36q0 89 49.5 138t128.5 49q63 0 121 -39l-40 -77q-40 26 -75 26q-37 0 -58.5 -24.5t-21.5 -72.5v-36h149v-91h-149v-398q0 -90 -48 -138.5t-127 -48.5q-55 0 -108 36l39 76q34 -22 64 -22q76 0 76 97z" glyph-name="florin" horiz-adv-x="459" unicode="ƒ"/><glyph d="M383 873q-39 0 -69.5 -15t-43.5 -39t-14.5 -50.5t15.5 -52.5t48 -42l-311 -674h121l66 147h375l66 -147h122l-312 674q40 18 55 52.5t6 66.5t-42 56t-82 24zM527 247h-289l75 171l70 156l68 -153zM382 812q36 0 52 -22.5t1 -45t-53 -22.5q-36 0 -51.5 22.5t-0.5 45 t52 22.5zM531 988v-3l-110 -90h-97v3l77 90h130z" glyph-name="Aringacute" horiz-adv-x="766" unicode="Ǻ"/><glyph d="M463 415q-23 41 -69 65t-99 24q-110 0 -182.5 -68.5t-72.5 -188.5q0 -123 71 -192t182 -68q50 0 98.5 24t71.5 69l5 -80h98v493h-100zM303 410q51 0 88.5 -24t54 -60.5t16.5 -79t-16.5 -79t-54 -60.5t-88.5 -24q-68 0 -114 45t-46 119t46 118.5t114 44.5zM199 642 q0 -44 32 -69.5t79 -25.5t79.5 25t32.5 70q0 44 -33.5 69t-79.5 25t-78 -25t-32 -69zM309 686q32 0 46 -21.5t0.5 -43t-46.5 -21.5q-32 0 -45.5 21.5t-0.5 43t46 21.5zM446 877v-3l-98 -99h-87v4l69 98h116z" glyph-name="aringacute" horiz-adv-x="636" unicode="ǻ"/><glyph d="M859 0v101h-319v203h300v98h-300v200h314v98h-436l-440 -700h126l103 168h231v-168h421zM438 268h-168l174 299h1l-7 -160v-139zM651 905v-4l-105 -133h-93v5l74 132h124z" glyph-name="AEacute" horiz-adv-x="913" unicode="Ǽ"/><glyph d="M973 208q25 136 -44 217t-191 81q-117 0 -178 -85v72h-92l-3 -78q-24 41 -70 65t-99 24q-111 0 -183.5 -68.5t-72.5 -188.5q0 -124 70.5 -192t182.5 -68q48 0 98 23.5t73 67.5l1 -78h91l3 71q54 -83 173 -83q133 0 212 84l-62 63q-52 -53 -150 -53q-61 0 -106 33.5 t-54 92.5h401zM304 410q52 0 90.5 -24t56 -60.5t17.5 -79t-17.5 -79t-56 -60.5t-90.5 -24q-69 0 -114.5 44.5t-45.5 119.5q0 74 45.5 118.5t114.5 44.5zM574 295q12 56 57.5 87.5t104.5 31.5q64 0 103 -31t39 -88h-304zM653 701v-4l-97 -122h-86v4l69 122h114z" glyph-name="aeacute" horiz-adv-x="1012" unicode="ǽ"/><glyph d="M404 713q-87 0 -156.5 -31t-113 -83.5t-66 -117t-22.5 -135.5q0 -87 33 -163t97 -126l-78 -131h109l50 85q64 -26 147 -26q88 0 157.5 30.5t112 82.5t65 115.5t23.5 133.5q0 86 -34 163.5t-98 128.5l74 126h-109l-46 -79q-67 27 -145 27zM404 88q-50 0 -92 14l262 444 q79 -76 77 -201q-1 -105 -63.5 -181t-183.5 -76zM404 611q48 0 90 -16l-261 -442q-76 72 -76 192q-2 107 61.5 186.5t185.5 79.5zM558 911v-4l-105 -133h-93v5l74 132h124z" glyph-name="Oslashacute" horiz-adv-x="804" unicode="Ǿ"/><glyph d="M293 503q-113 0 -183.5 -73t-70.5 -184q0 -129 88 -200l-64 -108h99l39 66q44 -14 92 -14q115 0 185.5 72.5t70.5 183.5q0 125 -88 197l63 106h-99l-37 -63q-45 17 -95 17zM293 408q21 0 44 -7l-156 -264q-39 42 -39 109q0 68 41.5 115t109.5 47zM293 86q-25 0 -40 5 l154 260q38 -44 38 -105q0 -68 -41.5 -114t-110.5 -46zM431 699v-3l-94 -120h-84v4l67 119h111z" glyph-name="oslashacute" horiz-adv-x="588" unicode="ǿ"/><glyph d="M591 602l-85 -57q-25 36 -71.5 56.5t-101.5 21.5q-72 0 -117 -28.5t-45 -77.5q0 -46 43.5 -67t126.5 -33q62 -9 106 -21t87 -35.5t65.5 -64t22.5 -96.5q0 -75 -43.5 -125t-106 -70.5t-140.5 -20.5q-215 0 -301 159l84 56q68 -115 218 -115q46 0 84 10t65.5 37.5 t27.5 68.5q0 53 -47.5 78.5t-131.5 36.5q-48 6 -82.5 14t-72.5 23t-61.5 36t-39 54.5t-15.5 76.5q0 52 24 92t64 63t86 34.5t96 11.5q187 0 261 -118zM400 -130q0 -5 -1 -9t-4 -14.5t-7 -21t-13.5 -36.5t-18.5 -54h-61l21 90q-41 9 -41 48q0 21 13 35t31.5 17.5t36.5 0 t31 -18.5t13 -37z" glyph-name="Scommaaccent" horiz-adv-x="660" unicode="Ș"/><glyph d="M443 440l-58 -68q-50 46 -130 46q-48 1 -76.5 -14.5t-28.5 -44.5q1 -53 107 -63q42 -4 72.5 -10.5t65 -22t53 -46.5t18.5 -76q-1 -70 -58 -113t-152 -43q-144 0 -225 91l54 73q64 -71 173 -73q42 0 73 16t32 48t-27.5 47t-86.5 21q-200 19 -201 148q0 75 62.5 112.5 t142.5 37.5q116 0 190 -66zM307 -135q0 -7 -41 -124h-57l20 83q-39 7 -39 44q0 31 29 44.5t58.5 0t29.5 -47.5z" glyph-name="scommaaccent" horiz-adv-x="499" unicode="ș"/><glyph d="M247 0v599h-230v101h572v-101h-229v-599h-113zM364 -130q0 -5 -1 -9t-4 -14.5t-7 -21t-13.5 -36.5t-18.5 -54h-61l21 90q-41 9 -41 48q0 21 13 35t31.5 17.5t36.5 0t31 -18.5t13 -37z" glyph-name="uni021A" horiz-adv-x="606" unicode="Ț"/><glyph d="M125 624l104 11v-143h144v-89h-145v-235q0 -81 71 -81q29 0 63 17l30 -88q-50 -22 -99 -22q-81 -2 -124.5 42.5t-43.5 131.5v235h-95v89h95v132zM313 -130q0 -5 -1 -9t-4 -14.5t-7 -21t-13.5 -36.5t-18.5 -54h-61l21 90q-41 9 -41 48q0 34 31 48.5t62.5 0t31.5 -51.5z " glyph-name="uni021B" horiz-adv-x="407" unicode="ț"/><glyph d="M70 495h103v-553q0 -95 -37 -142t-119 -47q-56 0 -104 31l37 81q34 -16 63 -15q34 1 45.5 23t11.5 69v553z" glyph-name="uni0237" horiz-adv-x="243" unicode="ȷ"/><glyph d="M172 711h60l147 -136v-6h-107l-70 60l-70 -60h-107v6z" glyph-name="circumflex" horiz-adv-x="421" unicode="ˆ"/><glyph d="M21 694v6h106l72 -62l75 62h103v-6l-149 -137h-61z" glyph-name="caron" horiz-adv-x="404" unicode="ˇ"/><glyph d="M235 698h84q0 -65 -41.5 -102t-103.5 -37q-63 0 -106.5 37t-39.5 102h84q0 -28 17 -45t45 -17t44.5 17t16.5 45z" glyph-name="breve" horiz-adv-x="333" unicode="˘"/><glyph d="M22 647q0 40 32 56t64 0t32 -56t-32 -56.5t-64 0t-32 56.5z" glyph-name="dotaccent" horiz-adv-x="206" unicode="˙"/><glyph d="M35 600q0 54 36 84.5t89 30.5q52 0 90 -30.5t38 -84.5q0 -55 -36.5 -86t-90.5 -31q-53 0 -89.5 31.5t-36.5 85.5zM160 654q-37 0 -52 -26.5t0.5 -53t51.5 -26.5q28 0 44 16.5t15.5 36.5t-16.5 36.5t-43 16.5z" glyph-name="ring" horiz-adv-x="329" unicode="˚"/><glyph d="M255 -135l50 -39q-35 -61 -116 -64q-50 -2 -87 20t-48 65q-5 17 -3 36.5t12 40t31 34t55 20.5t83 -1l15 -47q-44 10 -85 -9.5t-28 -55.5q5 -15 21.5 -24t39.5 -6q35 4 60 30z" glyph-name="ogonek" horiz-adv-x="407" unicode="˛"/><glyph d="M89 607l-61 33q15 45 45.5 67.5t72.5 13.5q13 -3 36 -14.5t32 -14.5q49 -17 62 26l66 -25q-8 -54 -43.5 -74.5t-75.5 -10.5q-14 3 -37 14.5t-31 14.5q-45 16 -66 -30z" glyph-name="tilde" horiz-adv-x="363" unicode="˜"/><glyph d="M373 701v-3l-101 -131h-87v1l84 133h104zM205 702v-4l-100 -130h-88v1l84 133h104z" glyph-name="hungarumlaut" horiz-adv-x="396" unicode="˝"/><glyph d="M419 700l335 -700h-750l334 700h81zM379 547l-226 -458h446z" glyph-name="Delta" horiz-adv-x="765" unicode="Δ"/><glyph d="M382 611q-119 0 -184.5 -76t-65.5 -180q-1 -86 45 -158t129 -98v-99h-251v96h100q-68 42 -100 112t-32 154q0 149 99.5 250t259.5 101t260 -101t100 -250q0 -174 -132 -266h100v-96h-251v99q83 26 128.5 98t45.5 158q-1 104 -66.5 180t-184.5 76z" glyph-name="Omega" horiz-adv-x="801" unicode="Ω"/><glyph d="M237 0h-103v403h-108v90h622v-90h-109v-247q0 -45 20 -65.5t69 -10.5l9 -83q-99 -19 -150 22t-51 135v249h-199v-403z" glyph-name="pi" horiz-adv-x="682" unicode="π"/><glyph d="M1056 700l-250 -701h-99l-93 247l-77 235l-77 -236l-92 -246h-98l-254 701h125l178 -539l181 539h72l185 -539l174 539h125zM401 898v4h122l73 -123v-4h-92z" glyph-name="Wgrave" horiz-adv-x="1074" unicode="Ẁ"/><glyph d="M380 494h89l118 -388l122 388h115l-173 -496h-120l-58 164l-48 172l-49 -172l-58 -164h-120l-174 496h116l122 -388zM292 698v4h116l70 -118v-4h-87z" glyph-name="wgrave" horiz-adv-x="848" unicode="ẁ"/><glyph d="M806 -1l250 701h-125l-174 -539l-185 539h-72l-181 -539l-178 539h-125l254 -701h98l92 246l77 236l77 -235l93 -247h99zM673 902v-4l-105 -122h-92v4l74 122h123z" glyph-name="Wacute" horiz-adv-x="1074" unicode="Ẃ"/><glyph d="M469 494h-89l-118 -388l-122 388h-116l174 -496h120l58 164l49 172l48 -172l58 -164h120l173 496h-115l-122 -388zM560 699v-3l-100 -116h-87v5l69 114h118z" glyph-name="wacute" horiz-adv-x="848" unicode="ẃ"/><glyph d="M806 -1l250 701h-125l-174 -539l-185 539h-72l-181 -539l-178 539h-125l254 -701h98l92 246l77 236l77 -235l93 -247h99zM354 831q0 29 19.5 45.5t42.5 16.5t42.5 -16.5t19.5 -45.5t-19.5 -45.5t-42.5 -16.5t-42.5 16.5t-19.5 45.5zM594 831q0 29 19.5 45.5t43 16.5 t43 -16.5t19.5 -45.5t-19.5 -45.5t-43 -16.5t-43 16.5t-19.5 45.5z" glyph-name="Wdieresis" horiz-adv-x="1074" unicode="Ẅ"/><glyph d="M469 494h-89l-118 -388l-122 388h-116l174 -496h120l58 164l49 172l48 -172l58 -164h120l173 496h-115l-122 -388zM255 653q0 36 28.5 50.5t57.5 0t29 -50.5t-29 -51t-57.5 0t-28.5 51zM478 653q0 36 29 50.5t58 0t29 -50.5t-29 -51t-58 0t-29 51z" glyph-name="wdieresis" horiz-adv-x="848" unicode="ẅ"/><glyph d="M149 700l193 -309l199 309h135v-5l-278 -408v-287h-112v287l-270 408v5h133zM208 902v3h114l68 -124v-4h-85z" glyph-name="Ygrave" horiz-adv-x="686" unicode="Ỳ"/><glyph d="M427 493h115l-311 -722h-114l102 236l-197 486h120l85 -233l49 -140l53 138zM162 698v4h111l67 -122v-4h-84z" glyph-name="ygrave" horiz-adv-x="558" unicode="ỳ"/><glyph d="M65 241v91h466v-91h-466z" glyph-name="endash" horiz-adv-x="596" unicode="–"/><glyph d="M65 241v92h565v-92h-565z" glyph-name="emdash" horiz-adv-x="695" unicode="—"/><glyph d="M203 701l-47 -210h-109l73 210h83z" glyph-name="quoteleft" horiz-adv-x="246" unicode="‘"/><glyph d="M52 489l48 211h108l-73 -211h-83z" glyph-name="quoteright" horiz-adv-x="242" unicode="’"/><glyph d="M33 -122l47 211h109l-73 -211h-83z" glyph-name="quotesinglbase" horiz-adv-x="257" unicode="‚"/><glyph d="M365 699l-48 -211h-101l66 211h83zM207 699l-52 -211h-105l74 211h83z" glyph-name="quotedblleft" horiz-adv-x="409" unicode="“"/><glyph d="M52 491l48 209h101l-66 -209h-83zM211 491l47 209h102l-66 -209h-83z" glyph-name="quotedblright" horiz-adv-x="396" unicode="”"/><glyph d="M33 -122l47 211h109l-73 -211h-83zM196 -122l47 211h109l-73 -211h-83z" glyph-name="quotedblbase" horiz-adv-x="420" unicode="„"/><glyph d="M347 699v-189h200v-95h-200v-535h-113v535h-200v95h200v189h113z" glyph-name="dagger" horiz-adv-x="581" unicode="†"/><glyph d="M366 699v-188h201v-94h-201v-235h201v-94h-201v-215h-111v215h-201v94h201v235h-201v94h201v188h111z" glyph-name="daggerdbl" horiz-adv-x="621" unicode="‡"/><glyph d="M197 193q-50 0 -83 31t-33 81t33 82t83 32q49 0 81.5 -32t32.5 -82t-32.5 -81t-81.5 -31z" glyph-name="bullet" horiz-adv-x="393" unicode="•"/><glyph d="M58 55q0 40 32 56t63.5 0t31.5 -56t-31.5 -56.5t-63.5 0t-32 56.5zM272 55q0 40 32 56t64 0t32 -56t-32 -56.5t-64 0t-32 56.5zM486 55q0 40 32 56t63.5 0t31.5 -56t-31.5 -56.5t-63.5 0t-32 56.5z" glyph-name="ellipsis" horiz-adv-x="671" unicode="…"/><glyph d="M196 709q60 0 101 -31.5t50.5 -76t0 -89t-50.5 -76t-101 -31.5q-43 0 -77 17t-51 43.5t-25.5 59t0 65t25.5 59t51 43.5t77 17zM553 702h99l-452 -702h-100zM195 635q-30 0 -50.5 -16t-25 -38.5t0.5 -45.5t26 -39t51 -16t50 16t24.5 39t-0.5 45.5t-25.5 38.5t-50.5 16z M553 297q60 0 101 -31.5t50.5 -76t0 -89t-50.5 -76t-101 -31.5q-50 0 -86.5 22.5t-53 56.5t-16.5 73t16.5 73t53 56.5t86.5 22.5zM552 223q-30 0 -50.5 -16t-25 -38.5t0.5 -45.5t26 -39t51 -16t50 16t24.5 39t-0.5 45.5t-25.5 38.5t-50.5 16zM925 297q60 0 101 -31.5 t50.5 -76t0 -89t-50.5 -76t-101 -31.5q-50 0 -86.5 22.5t-53 56.5t-16.5 73t16.5 73t53 56.5t86.5 22.5zM924 223q-30 0 -50.5 -16t-25 -38.5t0.5 -45.5t26 -39t51 -16t50 16t24.5 39t-0.5 45.5t-25.5 38.5t-50.5 16z" glyph-name="perthousand" horiz-adv-x="1116" unicode="‰"/><glyph d="M38 297l139 220h111v-1l-138 -219q69 -113 138 -222h-111z" glyph-name="guilsinglleft" horiz-adv-x="330" unicode="‹"/><glyph d="M153 518l139 -220l-139 -222h-110l137 222l-137 219v1h110z" glyph-name="guilsinglright" horiz-adv-x="331" unicode="›"/><glyph d="M226 706h93l-384 -710h-92z" glyph-name="fraction" horiz-adv-x="160" unicode="⁄"/><glyph d="M115 667v-54q0 -41 25.5 -65t56 -24t56 23.5t25.5 65.5v54q0 43 -25.5 67t-56 24t-56 -24t-25.5 -67zM39 614v54q0 44 17.5 79t45.5 52.5t62 26t68 0t62 -26.5t45.5 -52.5t17.5 -78.5v-54q0 -44 -17.5 -79t-45.5 -53t-62 -26.5t-68 0t-62 26.5t-45.5 53t-17.5 79z" glyph-name="uni2070" horiz-adv-x="396" unicode="⁰"/><glyph d="M194 823h103v-227h45v-68h-45v-69h-77v69h-192l-4 65zM220 596v153l-114 -153h114z" glyph-name="uni2074" horiz-adv-x="378" unicode="⁴"/><glyph d="M310 823v-69h-190v-60h63q68 0 109 -30t40 -92q0 -60 -41.5 -91.5t-104.5 -31.5q-64 0 -106 27.5t-43 87.5h77q1 -44 69 -44q70 0 70 52q0 54 -70 54h-139v197h266z" glyph-name="uni2075" horiz-adv-x="364" unicode="⁵"/><glyph d="M191 520q30 0 51 12.5t21 37.5q0 26 -20.5 39.5t-50.5 13.5q-31 0 -52 -13.5t-20 -38.5q0 -26 20 -38.5t51 -12.5zM192 689q64 0 106.5 -27t42.5 -92q0 -59 -44.5 -88.5t-105.5 -29.5q-60 0 -104.5 31t-44.5 88v139q0 57 43 87.5t103 30.5q63 0 105 -26t43 -78h-78 q-4 36 -69 36q-69 0 -69 -50v-47q26 26 72 26z" glyph-name="uni2076" horiz-adv-x="377" unicode="⁶"/><glyph d="M140 458h-88l151 295h-175v70h273l4 -34z" glyph-name="uni2077" horiz-adv-x="320" unicode="⁷"/><glyph d="M116 560q0 -22 22.5 -35.5t55.5 -13.5q32 0 54.5 14t21.5 35q0 24 -22.5 37.5t-53.5 13.5q-32 0 -55 -13t-23 -38zM37 560q0 26 16.5 49.5t45.5 33.5q-53 21 -53 75t42.5 81.5t104.5 27.5t105.5 -27.5t43.5 -81.5q0 -52 -53 -73q28 -10 44.5 -34t16.5 -51 q1 -60 -44.5 -87.5t-112.5 -27.5q-66 0 -111.5 27.5t-44.5 87.5zM124 717q0 -22 19 -33.5t51 -11.5q30 0 49 11.5t19 33.5q1 23 -20 34.5t-49 11.5t-49 -12t-20 -34z" glyph-name="uni2078" horiz-adv-x="387" unicode="⁸"/><glyph d="M186 761q-29 0 -50 -12.5t-21 -37.5q0 -26 20 -39.5t50 -13.5q31 0 52 13.5t21 38.5q0 26 -20.5 38.5t-51.5 12.5zM185 592q-63 0 -106 27.5t-43 91.5q0 59 44.5 88.5t105.5 29.5t105 -31t44 -88v-139q0 -57 -43 -87.5t-103 -30.5q-63 0 -105 26t-43 78h78q4 -36 69 -36 q69 0 69 50v47q-26 -26 -72 -26z" glyph-name="uni2079" horiz-adv-x="378" unicode="⁹"/><glyph d="M115 124v-55q0 -41 25.5 -64.5t56 -23.5t56 23.5t25.5 64.5v55q0 43 -25.5 67t-56 24t-56 -24t-25.5 -67zM39 71v53q0 44 17.5 79t45.5 53t62 26t68 0t62 -26t45.5 -53t17.5 -79v-53q0 -44 -17.5 -79t-45.5 -53t-62 -26.5t-68 0t-62 26.5t-45.5 53t-17.5 79z" glyph-name="uni2080" horiz-adv-x="396" unicode="₀"/><glyph d="M36 -85v68h62v209l-53 -12v67l131 33v-297h65v-68h-205z" glyph-name="uni2081" horiz-adv-x="266" unicode="₁"/><glyph d="M118 174h-77q0 56 41.5 84t98.5 28q67 0 108 -28t41 -87q0 -45 -22 -70t-53 -32.5t-62.5 -11.5t-53.5 -15t-22 -35v-16h208q0 -13 -0.5 -38t-0.5 -38h-285v92q0 41 21.5 65t52.5 32.5t62.5 13.5t53 17t21.5 36q0 47 -68 47q-63 0 -64 -44z" glyph-name="uni2082" horiz-adv-x="368" unicode="₂"/><glyph d="M184 74h-57v61h53q67 0 68 43q0 15 -16.5 29.5t-51.5 14.5q-65 0 -72 -43h-69q0 54 42.5 81.5t99.5 27.5q58 0 101 -28.5t44 -81.5q0 -25 -13.5 -46t-37.5 -28q27 -8 43 -30t16 -47q0 -61 -46 -89t-108 -28q-60 0 -103 27.5t-44 85.5h81q7 -42 68 -42q29 0 50 10.5 t21 34.5q0 20 -16.5 34t-52.5 14z" glyph-name="uni2083" horiz-adv-x="371" unicode="₃"/><glyph d="M194 279h103v-227h42v-69h-42v-68h-77v68h-192l-4 66zM220 52v152l-114 -152h114z" glyph-name="uni2084" horiz-adv-x="376" unicode="₄"/><glyph d="M310 281v-68h-190v-60h63q68 0 109 -30t40 -93q0 -59 -41.5 -90.5t-104.5 -31.5q-64 0 -106 27.5t-43 86.5h77q1 -44 69 -44q33 0 51.5 13.5t18.5 38.5q0 54 -70 54h-139v197h266z" glyph-name="uni2085" horiz-adv-x="364" unicode="₅"/><glyph d="M194 -22q30 0 51 12.5t21 38.5q0 25 -20.5 38.5t-50.5 13.5q-31 0 -52 -13.5t-20 -38.5q0 -26 20 -38.5t51 -12.5zM195 147q149 0 149 -118q0 -59 -44.5 -89t-105.5 -30q-60 0 -104.5 31t-44.5 89v138q0 57 43 87.5t103 30.5q63 0 105 -26t43 -78h-78q-4 37 -69 37 q-30 0 -49.5 -12.5t-19.5 -38.5v-47q25 26 72 26z" glyph-name="uni2086" horiz-adv-x="380" unicode="₆"/><glyph d="M140 -85h-88l151 294h-175v70h273l4 -33z" glyph-name="uni2087" horiz-adv-x="321" unicode="₇"/><glyph d="M118 23q-1 -22 21.5 -36t55.5 -14q32 0 54.5 14t22.5 36q0 23 -23 37t-53 14q-33 0 -55.5 -13t-22.5 -38zM38 23q0 26 17 49.5t46 32.5q-25 10 -39.5 30.5t-14.5 45.5q0 54 42.5 81.5t104.5 27.5t105.5 -28t43.5 -81t-53 -74q28 -9 45 -33.5t17 -50.5q0 -60 -46 -88 t-112 -27q-66 0 -111.5 27.5t-44.5 87.5zM125 180q1 -45 70 -45q68 0 69 45q0 22 -21 34t-49 12t-49 -12t-20 -34z" glyph-name="uni2088" horiz-adv-x="388" unicode="₈"/><glyph d="M186 217q-29 0 -50 -12.5t-21 -37.5q0 -26 20 -39.5t50 -13.5q31 0 52 13.5t21 38.5q0 26 -20.5 38.5t-51.5 12.5zM185 48q-63 0 -106 27.5t-43 91.5q0 59 44.5 88.5t105.5 29.5t105 -31t44 -88v-139q0 -57 -43 -87.5t-103 -30.5q-63 0 -105 26t-43 78h78q4 -36 69 -36 q69 0 69 50v47q-26 -26 -72 -26z" glyph-name="uni2089" horiz-adv-x="379" unicode="₉"/><glyph d="M546 108l31 -104q-57 -18 -122 -18q-147 0 -232 67t-113 184h-67v84h55v24q0 20 1 30h-56v85h69q29 114 115 183t228 69q55 0 106 -15l-34 -100q-31 9 -72 9q-88 0 -145.5 -39t-83.5 -107h239l-19 -85h-244q-1 -9 -1 -29q0 -18 1 -25h228l-17 -84h-189q52 -146 231 -146 q45 0 91 17z" glyph-name="Euro" horiz-adv-x="613" unicode="€"/><glyph d="M201 242v-95q0 -44 37 -61.5t93 -4.5v-69q-101 -33 -166 2t-65 149l-49 -24l-14 46q34 14 62 30v333q0 91 34 129t122 38q135 0 110 -193q-17 -146 -164 -280zM198 548q0 -26 -0.5 -112.5t-0.5 -124.5q107 123 120 220q2 28 4 57t-14 52t-50 23q-28 0 -43.5 -34.5 t-15.5 -80.5z" glyph-name="afii61289" horiz-adv-x="396" unicode="ℓ"/><glyph d="M411 715q168 0 265 -105t97 -260t-97 -260t-265 -105q-167 0 -264 105t-97 260t97 260t264 105zM142 350q1 -123 72.5 -202.5t196.5 -79.5t197 79.5t72 202.5t-72 203t-197 80q-124 0 -196 -80t-73 -203zM366 270h89q52 0 87 27t43 65.5t-0.5 77t-44 65.5t-85.5 27h-174 v-371h85v109zM366 455h89q7 0 11 -3q21 -3 32 -20.5t10 -37t-15.5 -35t-38.5 -15.5h-88v111z" glyph-name="uni2117" horiz-adv-x="823" unicode="℗"/><glyph d="M395 700h75l94 -120l96 120h74v-290h-79l3 173q-9 -12 -40 -49.5t-46 -57.5h-17l-85 111l3 -177h-78v290zM162 633h-100v67h275v-67h-98v-222h-77v222z" glyph-name="trademark" horiz-adv-x="811" unicode="™"/><glyph d="M407 611q-119 0 -184.5 -76t-65.5 -180q-1 -86 45 -158t129 -98v-99h-251v96h100q-68 42 -100 112t-32 154q0 149 99.5 250t259.5 101t260 -101t100 -250q0 -174 -132 -266h100v-96h-251v99q83 26 128.5 98t45.5 158q-1 104 -66.5 180t-184.5 76z" glyph-name="uni2126" horiz-adv-x="815" unicode="Ω"/><glyph d="M326 -7q-116 0 -192 78t-76 218q0 142 75.5 219.5t191.5 77.5q58 0 106.5 -17t87 -53t57 -100.5t11.5 -152.5h-402v-170q58 -53 141 -53q125 0 190 93l37 -29q-43 -61 -98 -86t-129 -25zM325 539q-87 0 -140 -46v-183h283v186q-55 43 -143 43z" glyph-name="estimated" horiz-adv-x="635" unicode="℮"/><glyph d="M47 340v68h62v209l-54 -13v67l132 33v-296h64v-68h-204zM591 158h-56v61h52q67 0 68 43q0 15 -16 29.5t-51 14.5q-65 0 -72 -43h-69q0 54 42 81.5t100 27.5q57 0 100.5 -28.5t43.5 -81.5q0 -25 -13.5 -46t-36.5 -28q27 -8 43 -30t16 -47q0 -61 -46 -89t-109 -28 q-59 0 -102.5 28t-44.5 85h81q7 -42 69 -42q28 0 49 10.5t21 34.5q0 20 -16.5 34t-52.5 14zM508 706h90l-384 -710h-89z" glyph-name="onethird" horiz-adv-x="776" unicode="⅓"/><glyph d="M670 158h-57v61h53q67 0 68 43q0 16 -16 30t-51 14q-65 0 -72 -43h-70q0 54 42.5 81.5t99.5 27.5t101 -28.5t44 -81.5q0 -25 -13.5 -46t-36.5 -28q27 -8 43 -30.5t16 -46.5q0 -61 -46.5 -89t-108.5 -28q-60 0 -103 27.5t-44 85.5h81q7 -42 68 -42q29 0 50 10.5t21 34.5 q0 20 -16.5 34t-52.5 14zM586 706h91l-385 -710h-89zM127 597h-78q1 56 42.5 84t97.5 28q67 0 108 -28t41 -88q0 -45 -22 -70t-53 -32.5t-62 -11.5t-53 -15t-22 -35v-16h206q0 -13 -0.5 -38t-0.5 -38h-284v92q0 42 22 66t53 32t62 13.5t53 17.5t22 35q0 48 -68 48 q-64 0 -64 -44z" glyph-name="twothirds" horiz-adv-x="856" unicode="⅔"/><glyph d="M47 340v68h62v209l-54 -13v67l132 33v-296h64v-68h-204zM508 706h90l-384 -710h-89zM527 107q-1 -22 21.5 -36t55.5 -14q32 0 54.5 14t22.5 36q0 23 -22.5 37t-53.5 14q-33 0 -55.5 -13t-22.5 -38zM447 107q0 26 17 49t46 33q-25 10 -39.5 30.5t-14.5 45.5 q0 54 42.5 81.5t104.5 27.5t106 -28t44 -81t-54 -74q28 -9 45 -33.5t17 -50.5q1 -60 -45 -88t-113 -27q-66 0 -111.5 27.5t-44.5 87.5zM534 264q1 -45 70 -45q68 0 69 45q1 22 -20.5 34t-49.5 12q-27 0 -48.5 -12t-20.5 -34z" glyph-name="oneeighth" horiz-adv-x="796" unicode="⅛"/><glyph d="M574 706h91l-385 -710h-89zM591 107q-1 -21 21.5 -35.5t55.5 -14.5t55.5 14t21.5 36q0 23 -22.5 37t-53.5 14q-32 0 -55 -13t-23 -38zM512 107q0 26 17 49.5t45 32.5q-53 21 -53 76q0 54 42.5 81.5t104.5 27.5q61 0 105 -28t44 -81t-53 -74q28 -9 44.5 -33.5t16.5 -50.5 q1 -60 -45 -88t-112 -27q-66 0 -111.5 27.5t-44.5 87.5zM598 264q1 -45 70 -45q68 0 69 45q1 22 -20.5 34t-48.5 12q-28 0 -49 -12t-21 -34zM189 493h-56v61h52q68 0 68 44q0 15 -16 29t-51 14q-65 0 -72 -43h-69q0 54 42 81.5t100 27.5t101 -28.5t44 -81.5q0 -25 -13.5 -46 t-37.5 -28q27 -8 43 -30t16 -46q0 -62 -46 -90t-109 -28q-59 0 -102.5 28t-44.5 85h81q7 -42 69 -42q28 0 49.5 11t21.5 34q0 20 -16.5 34t-53.5 14z" glyph-name="threeeighths" horiz-adv-x="860" unicode="⅜"/><glyph d="M573 706h91l-385 -710h-89zM590 107q-1 -21 21.5 -35.5t55.5 -14.5t55.5 14t21.5 36q0 23 -22.5 37t-53.5 14q-32 0 -55 -13t-23 -38zM511 107q0 26 17 49.5t45 32.5q-53 21 -53 76q0 54 42.5 81.5t104.5 27.5q61 0 105 -28t44 -81t-53 -74q28 -9 44.5 -33.5t16.5 -50.5 q1 -60 -45 -88t-112 -27q-66 0 -111.5 27.5t-44.5 87.5zM597 264q1 -45 70 -45q68 0 69 45q1 22 -20.5 34t-48.5 12q-28 0 -49 -12t-21 -34zM314 700v-69h-190v-60h63q68 0 109 -30t40 -92q0 -59 -41 -91t-105 -32t-105.5 27.5t-42.5 87.5h77q0 -44 68 -44q71 0 71 52 q0 54 -71 54h-139v197h266z" glyph-name="fiveeighths" horiz-adv-x="859" unicode="⅝"/><glyph d="M483 706h90l-384 -710h-89zM507 107q-1 -21 21.5 -35.5t55.5 -14.5t55.5 14t21.5 36q0 23 -22.5 37t-53.5 14q-32 0 -55 -13t-23 -38zM428 107q0 26 17 49.5t45 32.5q-53 21 -53 76q0 54 42.5 81.5t104.5 27.5q61 0 105 -28t44 -81t-53 -74q28 -9 44.5 -33.5t16.5 -50.5 q1 -60 -45 -88t-112 -27q-66 0 -111.5 27.5t-44.5 87.5zM514 264q1 -45 70 -45q68 0 69 45q1 22 -20.5 34t-48.5 12q-28 0 -49 -12t-21 -34zM150 336h-88l150 294h-174v70h273l4 -33z" glyph-name="seveneighths" horiz-adv-x="776" unicode="⅞"/><glyph d="M262 121l-230 229l230 229l56 -53l-129 -130h383v-93h-384l127 -133z" glyph-name="arrowleft" horiz-adv-x="629" unicode="←"/><glyph d="M33 397l229 230l229 -231l-53 -55l-130 129v-383h-93v384l-133 -127z" glyph-name="arrowup" horiz-adv-x="523" unicode="↑"/><glyph d="M367 580l230 -229l-231 -229l-55 53l129 130h-383v93h383l-126 133z" glyph-name="arrowright" horiz-adv-x="630" unicode="→"/><glyph d="M490 303l-229 -230l-229 231l53 55l130 -129v383h93v-384l133 127z" glyph-name="arrowdown" horiz-adv-x="523" unicode="↓"/><glyph d="M62 215v324h325l2 -77l-184 -1l271 -271l-66 -66l-271 271l-4 -182z" glyph-name="uni2196" horiz-adv-x="508" unicode="↖"/><glyph d="M121 466l3 73h324q0 -55 -0.5 -163t-0.5 -162l-76 -2q0 30 -0.5 91t-0.5 92l-271 -271l-66 67l271 271z" glyph-name="uni2197" horiz-adv-x="509" unicode="↗"/><glyph d="M130 157l-2 72l183 5l-271 271l65 66l271 -271q0 30 0.5 91.5t0.5 92.5l77 -3v-324h-324z" glyph-name="uni2198" horiz-adv-x="550" unicode="↘"/><glyph d="M422 229l-3 -72h-324q0 54 0.5 162t0.5 162l76 3q0 -31 0.5 -92.5t0.5 -91.5l271 271l66 -66l-271 -271z" glyph-name="uni2199" horiz-adv-x="549" unicode="↙"/><glyph d="M294 84q70 0 109 46t39 109t-39 108.5t-109 45.5t-109 -46t-39 -108q0 -63 39 -109t109 -46zM252 480q102 11 161 -43q-16 43 -61 82.5t-96 63.5t-98 32l20 85q170 -31 270 -151.5t100 -297.5q1 -116 -67.5 -188.5t-186.5 -72.5q-120 0 -187 73.5t-67 174.5 q0 91 55.5 160t156.5 82z" glyph-name="partialdiff" horiz-adv-x="591" unicode="∂"/><glyph d="M441 700l335 -700h-750l334 700h81zM401 547l-226 -458h446z" glyph-name="uni2206" horiz-adv-x="802" unicode="∆"/><glyph d="M601 -190h-112v786h-290v-786h-113v890h515v-890z" glyph-name="product" horiz-adv-x="687" unicode="∏"/><glyph d="M370 364l-179 -258h347v-106h-500v63l211 303l-197 283v51h480v-99h-319z" glyph-name="summation" horiz-adv-x="590" unicode="∑"/><glyph d="M70 260v93h387v-93h-387z" glyph-name="minus" horiz-adv-x="527" unicode="−"/><glyph d="M376 706h93l-384 -710h-92z" glyph-name="uni2215" horiz-adv-x="457" unicode="∕"/><glyph d="M63 314q0 31 21 49t46 18t46 -18t21 -49t-21 -49t-46 -18t-46 18t-21 49z" glyph-name="uni2219" horiz-adv-x="260" unicode="∙"/><glyph d="M603 697l-233 -697h-79l-166 331l-83 -35l-27 67l173 78l149 -325l202 600z" glyph-name="radical" horiz-adv-x="613" unicode="√"/><glyph d="M216 163q-78 1 -121.5 48t-43.5 111q0 65 45.5 113.5t125.5 48.5q76 0 161 -102q90 102 162 102q80 0 125.5 -48.5t45.5 -113.5t-43 -111.5t-122 -47.5q-81 -1 -168 101q-87 -102 -167 -101zM218 245q20 0 41.5 11.5t32 21t32.5 31.5l13 13l-9 11q-21 23 -33.5 35 t-34 23.5t-42.5 11.5q-43 0 -66.5 -25t-21.5 -58q1 -30 24 -52t64 -23zM549 245q43 1 66 24.5t22 54.5q0 32 -23 55.5t-65 23.5q-21 0 -42.5 -12t-33 -23.5t-33.5 -35.5l-9 -10q4 -3 12 -11q20 -21 32 -32.5t33 -22.5t41 -11z" glyph-name="infinity" horiz-adv-x="768" unicode="∞"/><glyph d="M179 -2v525q0 89 49.5 138t128.5 49q63 0 121 -39l-40 -77q-40 26 -75 26q-37 0 -58.5 -24.5t-21.5 -72.5v-525q0 -90 -48 -138.5t-127 -48.5q-55 0 -108 36l39 76q34 -22 64 -22q76 0 76 97z" glyph-name="integral" horiz-adv-x="478" unicode="∫"/><glyph d="M138 340l-68 42q19 38 54 60t75 22q38 2 93.5 -19.5t70.5 -24.5q58 -13 78 36l68 -33q-20 -51 -60 -75t-98 -12q-16 4 -69 25t-76 19q-38 3 -68 -40zM138 133l-68 41q40 82 129 82q38 3 94 -19t70 -25q59 -13 78 37l68 -34q-20 -51 -60 -75t-98 -12q-16 4 -69 25t-76 19 q-39 3 -68 -39z" glyph-name="approxequal" horiz-adv-x="578" unicode="≈"/><glyph d="M64 155v95h152l73 124h-225v96h280l46 77l45 -26l-30 -51h83v-96h-138l-73 -124h211v-95h-266l-45 -78l-46 27l30 51h-97z" glyph-name="notequal" horiz-adv-x="554" unicode="≠"/><glyph d="M62 84v86h324v-86h-324zM70 418v19l240 193l59 -64l-177 -139l178 -141l-60 -64z" glyph-name="lessequal" horiz-adv-x="451" unicode="≤"/><glyph d="M388 170v-86h-323v86h323zM381 437v-19l-240 -196l-60 64l177 141l-176 139l58 64z" glyph-name="greaterequal" horiz-adv-x="451" unicode="≥"/><glyph d="M547 351l-215 -343h-86l-214 343l214 345h86zM145 351l144 -247l147 247l-147 247z" glyph-name="lozenge" horiz-adv-x="580" unicode="◊"/><glyph d="M362 603l33 81q-49 26 -98 26q-79 0 -128.5 -49t-49.5 -138v-36h-91v-90h91v-397h104v397h147v90h-147v36q0 48 21.5 72.5t58.5 24.5q28 0 59 -17zM545 495h-104v-495h104v495zM429 638q0 40 32 56t64 0t32 -56t-32 -56.5t-64 0t-32 56.5z" glyph-name="uniFB01" horiz-adv-x="613" unicode="ﬁ"/><glyph d="M364 698l-15 -89q-24 11 -47 11q-37 0 -58.5 -24.5t-21.5 -72.5v-36h129v-90h-129v-397h-104v397h-90v90h90v36q0 89 49.5 138t128.5 49q35 0 68 -12zM440 701h104v-701h-104v701z" glyph-name="uniFB02" horiz-adv-x="618" unicode="ﬂ"/><glyph glyph-name="glyph421" horiz-adv-x="322"/><glyph glyph-name="glyph422" horiz-adv-x="0"/><glyph d="M304 410q-69 0 -114.5 -44.5t-45.5 -118.5q0 -75 45.5 -119.5t114.5 -44.5q44 0 78.5 18t52 47t26 63.5t0 69.5t-26 64t-52 47t-78.5 18zM67 -63l101 -1q4 -47 44 -71t104 -24q63 0 106 37t43 113v89q-23 -44 -72 -68.5t-99 -24.5q-112 -1 -183 68t-71 192 q0 120 72.5 188.5t183.5 68.5q53 0 99 -24t70 -65l3 78h100v-504q0 -125 -73 -185t-179 -60q-116 0 -182 50t-67 143z" glyph-name="g.aalt" horiz-adv-x="638"/><glyph d="M300 720h60l146 -137v-6h-105l-72 56l-70 -56h-106v6zM304 410q51 0 88.5 -24t54 -60.5t16.5 -79t-16.5 -79t-54 -60.5t-88.5 -24q-69 0 -114.5 44.5t-45.5 119.5q0 74 45.5 118.5t114.5 44.5zM168 -64l-101 1q1 -93 67 -143t182 -50q106 0 179 60t73 185v504h-100 l-3 -78q-24 41 -70 65t-99 24q-111 0 -183.5 -68.5t-72.5 -188.5q0 -123 71 -192t183 -68q50 0 99 24.5t72 68.5v-89q0 -76 -43 -113t-106 -37q-64 0 -104 24t-44 71z" glyph-name="gcircumflex.aalt" horiz-adv-x="638"/><glyph d="M304 410q-69 0 -114.5 -44.5t-45.5 -118.5q0 -75 45.5 -119.5t114.5 -44.5q44 0 78.5 18t52 47t26 63.5t0 69.5t-26 64t-52 47t-78.5 18zM168 -64q4 -47 44 -71t104 -24q63 0 106 37t43 113v89q-23 -44 -72 -68.5t-99 -24.5q-111 -2 -182.5 67.5t-71.5 192.5 q0 121 72.5 189t183.5 68q53 0 99 -24t70 -65q0 12 0.5 25t1.5 28.5t1 24.5h100v-504q0 -125 -73 -185t-179 -60q-116 0 -182 50t-67 143q17 0 50.5 -0.5t50.5 -0.5zM383 709h84q0 -64 -41.5 -101.5t-103.5 -37.5q-63 0 -106.5 37t-39.5 102h84q0 -28 17 -45t45 -17t44.5 17 t16.5 45z" glyph-name="gbreve.aalt" horiz-adv-x="638"/><glyph d="M304 410q51 0 88.5 -24t54 -60.5t16.5 -79t-16.5 -79t-54 -60.5t-88.5 -24q-69 0 -114.5 44.5t-45.5 119.5q0 74 45.5 118.5t114.5 44.5zM168 -64l-101 1q1 -93 67 -143t182 -50q106 0 179 60t73 185v504h-100l-3 -78q-24 41 -70 65t-99 24q-111 0 -183.5 -68.5 t-72.5 -188.5q0 -123 71 -192t183 -68q50 0 99 24.5t72 68.5v-89q0 -76 -43 -113t-106 -37q-64 0 -104 24t-44 71zM251 656q0 40 32 56.5t64 0t32 -56.5t-32 -56t-64 0t-32 56z" glyph-name="gdotaccent.aalt" horiz-adv-x="638"/><glyph d="M304 410q51 0 88.5 -24t54 -60.5t16.5 -79t-16.5 -79t-54 -60.5t-88.5 -24q-69 0 -114.5 44.5t-45.5 119.5q0 74 45.5 118.5t114.5 44.5zM168 -64q-17 0 -50.5 0.5t-50.5 0.5q1 -93 67 -143t182 -50q106 0 179 60t73 185v504h-100q0 -9 -1 -24.5t-1.5 -28.5t-0.5 -25 q-24 41 -70 65t-99 24q-111 0 -183.5 -68t-72.5 -189q0 -123 71.5 -192.5t182.5 -67.5q50 0 99 24.5t72 68.5v-89q0 -76 -43 -113t-106 -37q-64 0 -104 24t-44 71zM248 635q0 6 2.5 12.5t14 36.5t26.5 75h62l-20 -77q41 -9 41 -49q0 -39 -31.5 -54t-63 1.5t-31.5 54.5z" glyph-name="gcommaaccent.aalt" horiz-adv-x="638"/><glyph d="M319 -133q0 -4 -0.5 -7t-2 -8.5t-3.5 -11.5t-5.5 -17t-7.5 -23t-11.5 -32.5t-14.5 -42.5h-62l22 95q-42 8 -42 49q0 12 6 26q11 27 40.5 33.5t55 -10.5t25.5 -51z" glyph-name="glyph428" horiz-adv-x="462"/><glyph d="M179 641q0 9 44 142h63l-22 -95q41 -9 41 -50q0 -14 -6 -25q-11 -27 -40 -33.5t-54.5 10.5t-25.5 51z" glyph-name="glyph429" horiz-adv-x="462"/><glyph d="M168 409v-117q0 -64 27 -110.5t67 -67.5t87 -21t87 21t67 67.5t27 110.5v117q0 63 -27 109t-67 67t-87 21t-87 -20.5t-67 -67t-27 -109.5zM57 292v117q0 97 43.5 168t108.5 103t140.5 31.5t140.5 -32.5t108.5 -102.5t43.5 -167.5v-117q0 -97 -43.5 -168t-108.5 -103 t-140.5 -32t-140.5 32t-108.5 103t-43.5 168z" glyph-name="zero.tnum" horiz-adv-x="700"/><glyph d="M123 0v95h181v464l-164 -45v101l276 85v-605h189v-95h-482z" glyph-name="one.tnum" horiz-adv-x="700"/><glyph d="M185 501h-111q3 60 28.5 102.5t67 64.5t86.5 31.5t99 9.5t101 -11.5t87 -35.5t63.5 -67t23.5 -101q0 -61 -23 -104t-64 -66t-87.5 -33t-103.5 -10q-30 0 -56.5 -4.5t-53.5 -15t-43 -32t-16 -52.5v-72h446v-105h-559v177q0 57 24.5 99t66 64.5t89 32.5t101.5 10 q38 0 72.5 7.5t65.5 33.5t31 68q0 59 -47 88.5t-117 31.5q-72 0 -121 -26.5t-50 -84.5z" glyph-name="two.tnum" horiz-adv-x="700"/><glyph d="M351 313h-111v92h104q70 0 116 26t47 73q0 42 -39 73t-121 31q-39 0 -73 -7.5t-61.5 -31t-27.5 -59.5h-112q0 43 16.5 78t43.5 57.5t63.5 37.5t73.5 21t77 6q113 0 191.5 -54t79.5 -152q0 -47 -30.5 -89.5t-79.5 -55.5q54 -15 90 -59t36 -94q0 -74 -43 -124.5t-106 -71 t-140 -20.5q-71 0 -131.5 18t-106 67t-45.5 123h113q0 -30 17 -52t44.5 -33.5t55 -16.5t54.5 -5q70 0 120.5 30t50.5 84q0 45 -38.5 76.5t-127.5 31.5z" glyph-name="three.tnum" horiz-adv-x="700"/><glyph d="M409 699h144v-452h84v-108h-84v-139h-111v139h-387l-12 110zM170 247h272v332z" glyph-name="four.tnum" horiz-adv-x="700"/><glyph d="M594 699v-105h-393v-148h158q124 0 199 -57t75 -166q0 -107 -78 -168.5t-196 -61.5q-58 0 -106.5 11t-89 34.5t-64 66t-23.5 101.5h112q0 -31 16 -53.5t42.5 -33.5t53.5 -16t58 -5q69 0 116 32.5t47 92.5q1 58 -44 88.5t-118 30.5h-267v357h502z" glyph-name="five.tnum" horiz-adv-x="700"/><glyph d="M184 493v-127q26 39 75.5 59.5t101.5 20.5q55 0 103.5 -12.5t90.5 -38t66.5 -71t24.5 -106.5q0 -74 -43.5 -127.5t-106.5 -77t-136 -23.5q-74 0 -137.5 23.5t-107 77.5t-43.5 129v272q0 72 40.5 123t103 74t139.5 23q120 0 200 -50t82 -149h-113q-1 48 -50 74.5 t-118 26.5q-66 0 -119 -32.5t-53 -88.5zM360 91q72 0 123.5 32t51.5 95q0 61 -50.5 95.5t-123.5 34.5q-74 0 -126 -34t-51 -96q0 -63 51.5 -95t124.5 -32z" glyph-name="six.tnum" horiz-adv-x="700"/><glyph d="M292 0h-129l309 593h-376v107h519l7 -64z" glyph-name="seven.tnum" horiz-adv-x="700"/><glyph d="M348 317q-71 0 -126.5 -29t-56.5 -85q-1 -51 52 -83.5t131 -32.5t130 32t52 84q-1 56 -55 85t-127 29zM51 204q1 50 33 94t87 63q-47 17 -75 56t-28 88q0 68 41 116.5t103 70t137 21.5q76 0 138 -20.5t104.5 -69t42.5 -118.5q0 -47 -27 -84.5t-79 -55.5q54 -19 87 -65 t33 -96q1 -58 -24 -101.5t-69 -68.5t-96 -37.5t-110 -12.5q-82 0 -147 20.5t-108.5 71.5t-42.5 128zM183 508q1 -52 49 -80t118 -28t118 28t49 80t-48.5 81.5t-119.5 29.5q-72 0 -119.5 -31.5t-46.5 -79.5z" glyph-name="eight.tnum" horiz-adv-x="700"/><glyph d="M516 209v127q-26 -40 -75.5 -60.5t-101.5 -20.5q-55 0 -103.5 12.5t-90.5 38t-66.5 71.5t-24.5 107q0 74 43.5 127.5t106.5 77t136 23.5t137 -24t107.5 -77.5t43.5 -128.5v-272q0 -72 -42 -123t-104.5 -74t-136.5 -23q-78 0 -140 20t-103 66t-42 113h113q1 -48 51.5 -75 t119.5 -27q62 0 117 33t55 89zM340 611q-73 0 -124 -32t-51 -95t50 -96.5t124 -33.5q73 0 125 34t52 96q-1 63 -52 95t-124 32z" glyph-name="nine.tnum" horiz-adv-x="700"/><glyph d="M594 108l31 -104q-57 -18 -122 -18q-147 0 -232.5 67t-112.5 184h-76v84h64q-1 8 -1 24q0 20 1 30h-64v85h78q28 114 114.5 183t228.5 69q55 0 106 -15l-34 -100q-31 9 -72 9q-88 0 -145.5 -39t-83.5 -107h239l-20 -85h-243q-1 -9 -1 -29q0 -18 1 -25h228l-18 -84h-188 q52 -146 231 -146q45 0 91 17z" glyph-name="Euro.aalt" horiz-adv-x="700"/><glyph d="M509 127l64 -75q-61 -59 -139 -71v-71h-97v72q-92 17 -150 86.5t-58 166.5q0 94 57 163.5t151 88.5v70h97v-69q80 -14 139 -71l-62 -67q-50 48 -121 48q-66 0 -112 -46t-46 -117q0 -72 46 -117.5t112 -45.5q29 0 62 15.5t57 39.5z" glyph-name="cent.aalt" horiz-adv-x="700"/><glyph d="M244 487q0 -37 19 -117h220v-94h-201q15 -121 -74 -171q68 0 208 0.5t208 0.5v-106h-545v105q102 52 92 171h-92v94h73q-20 78 -20 115q0 107 68 166t183 59q107 0 170 -49.5t67 -154.5h-102q-7 105 -134 105q-70 0 -105 -33.5t-35 -90.5z" glyph-name="sterling.aalt" horiz-adv-x="700"/><glyph d="M289 -2v398h-144v91h144v36q0 89 49.5 138t128.5 49q63 0 121 -39l-40 -77q-40 26 -75 26q-37 0 -58.5 -24.5t-21.5 -72.5v-36h163v-91h-163v-398q0 -90 -48.5 -138.5t-126.5 -48.5q-55 0 -108 36l39 76q34 -22 63 -22q77 0 77 97z" glyph-name="florin.aalt" horiz-adv-x="700"/><glyph d="M135 129v82h155v54h-155v83h115l-230 347v5h133l193 -309l200 309h134v-5l-236 -347h114v-83h-156v-54h156v-82h-156v-129h-112v129h-155z" glyph-name="yen.aalt" horiz-adv-x="700"/><glyph d="M622 580l-91 -43q-21 36 -72 58t-105 22q-45 0 -81.5 -9t-63 -33.5t-26.5 -61.5q0 -25 13 -42.5t41 -28t53 -16t67 -11.5q38 -5 61.5 -9t58 -12.5t55.5 -18t46 -25.5t38.5 -36t23 -48.5t9.5 -63.5q0 -94 -70.5 -148.5t-168.5 -61.5v-98h-105v95q-88 6 -158 46t-103 115 l100 42q22 -48 81.5 -76.5t125.5 -28.5q75 0 129.5 28.5t54.5 86.5q0 51 -50 75.5t-138 37.5q-50 6 -82.5 12t-72.5 20t-63 33.5t-39.5 53.5t-16.5 79q0 46 19.5 83.5t53.5 60.5t74 36.5t85 18.5v89h105v-89q157 -20 212 -132z" glyph-name="glyph445" horiz-adv-x="700"/><glyph d="M115 205v-54q0 -41 25.5 -65t56 -24t56 23.5t25.5 65.5v54q0 43 -25.5 67t-56 24t-56 -24t-25.5 -67zM39 152v54q0 44 17.5 79t45.5 52.5t62 26t67.5 0t61.5 -26.5t45.5 -52.5t17.5 -78.5v-54q0 -52 -23.5 -89.5t-58.5 -55t-76.5 -17.5t-76.5 17.5t-58.5 55t-23.5 89.5z " glyph-name="zero.dnom" horiz-adv-x="395"/><glyph d="M36 0v68h62v209l-54 -13v68l132 32v-296h64v-68h-204z" glyph-name="one.dnom" horiz-adv-x="265"/><glyph d="M117 259h-77q1 56 42.5 84t97.5 28q67 0 108 -28t41 -87q0 -45 -22 -70t-53 -32.5t-62 -11.5t-53 -15t-22 -35v-16h207v-76h-286v92q0 41 22 65t53 32.5t62 13.5t53 17t22 36q0 47 -69 47q-63 0 -64 -44z" glyph-name="two.dnom" horiz-adv-x="367"/><glyph d="M185 157h-57v61h53q67 0 68 43q0 15 -16 29t-51 14q-65 0 -72 -43h-70q0 54 42.5 82t99.5 28q58 0 101 -28.5t44 -81.5q0 -25 -13.5 -46.5t-36.5 -27.5q27 -8 43 -30.5t16 -46.5q0 -61 -46.5 -89.5t-108.5 -28.5q-59 0 -102.5 28t-44.5 85h81q7 -41 68 -41q29 0 50 10.5 t21 33.5q0 20 -16.5 34.5t-52.5 14.5z" glyph-name="three.dnom" horiz-adv-x="373"/><glyph d="M194 364h103v-227h42v-69h-42v-68h-77v68h-192l-4 66zM220 137v152l-114 -152h114z" glyph-name="four.dnom" horiz-adv-x="376"/><glyph d="M310 364v-68h-190v-61h63q68 0 109 -29.5t40 -92.5q0 -59 -41.5 -91t-104.5 -32q-64 0 -106 27.5t-43 87.5h77q1 -44 69 -44q70 0 70 52q0 54 -70 54h-139v197h266z" glyph-name="five.dnom" horiz-adv-x="364"/><glyph d="M194 62q30 0 51 12.5t21 37.5q0 26 -20.5 39.5t-50.5 13.5q-31 0 -52 -13.5t-20 -38.5q0 -26 20 -38.5t51 -12.5zM195 231q64 0 106.5 -27t42.5 -92q0 -59 -44.5 -88.5t-105.5 -29.5q-60 0 -104.5 31t-44.5 88v139q0 57 43 87.5t103 30.5q63 0 105 -26t43 -78h-78 q-4 36 -69 36q-69 0 -69 -50v-47q26 26 72 26z" glyph-name="six.dnom" horiz-adv-x="380"/><glyph d="M140 0h-88l151 294h-175v70h273l4 -33z" glyph-name="seven.dnom" horiz-adv-x="319"/><glyph d="M116 106q-1 -21 21.5 -35.5t55.5 -14.5t55.5 14t21.5 36q0 24 -22.5 37.5t-53.5 13.5q-32 0 -55 -13t-23 -38zM37 106q0 26 17 49.5t45 32.5q-25 10 -39 30.5t-14 45.5q0 54 42.5 81.5t104.5 27.5q61 0 105 -28t44 -81q0 -51 -53 -74q28 -9 44.5 -33.5t16.5 -50.5 q1 -60 -45 -88t-112 -27q-66 0 -111.5 27.5t-44.5 87.5zM123 263q1 -22 20 -33.5t50 -11.5q67 0 69 45q1 23 -20 34.5t-49 11.5t-49 -12t-21 -34z" glyph-name="eight.dnom" horiz-adv-x="387"/><glyph d="M186 301q-30 0 -50.5 -12t-20.5 -38t20 -39t50 -13q31 0 52 13.5t21 38.5t-20.5 37.5t-51.5 12.5zM185 132q-63 0 -106 27.5t-43 91.5q0 59 44.5 88.5t105.5 29.5t105 -30.5t44 -88.5v-138q0 -58 -43 -88.5t-103 -30.5q-63 0 -105 26.5t-43 78.5h78q4 -37 69 -37 q30 0 49.5 12.5t19.5 38.5v46q-26 -26 -72 -26z" glyph-name="nine.dnom" horiz-adv-x="380"/><glyph d="M115 549v-54q0 -41 25.5 -65t56 -24t56 23.5t25.5 65.5v54q0 43 -25.5 67t-56 24t-56 -24t-25.5 -67zM39 496v54q0 44 17.5 79t45.5 52.5t62 26t68 0t62 -26.5t45.5 -52.5t17.5 -78.5v-54q0 -44 -17.5 -79t-45.5 -53t-62 -26.5t-68 0t-62 26.5t-45.5 53t-17.5 79z" glyph-name="zero.numr" horiz-adv-x="396"/><glyph d="M37 347v68h62v209l-54 -12v67l132 33v-297h64v-68h-204z" glyph-name="one.numr" horiz-adv-x="267"/><glyph d="M118 598h-77q1 56 42.5 84t97.5 28q67 0 108 -28t41 -87q0 -45 -22 -70t-53 -32.5t-62 -11.5t-53 -15t-22 -35v-16h207v-76h-286v92q0 41 22 65t53 32.5t62 13.5t53 17t22 36q0 47 -69 47q-63 0 -64 -44z" glyph-name="two.numr" horiz-adv-x="368"/><glyph d="M184 498h-56v61h52q67 0 68 43q0 15 -16 29t-51 14q-65 0 -72 -43h-69q0 54 42.5 82t99.5 28t100.5 -28.5t43.5 -81.5q0 -25 -13.5 -46.5t-36.5 -27.5q27 -8 43 -30t16 -47q0 -61 -46.5 -89.5t-108.5 -28.5q-59 0 -102.5 28t-44.5 85h81q7 -41 69 -41q28 0 49 10.5 t21 33.5q0 20 -16.5 34.5t-52.5 14.5z" glyph-name="three.numr" horiz-adv-x="372"/><glyph d="M194 702h103v-227h42v-69h-42v-68h-77v68h-192l-4 66zM220 475v152l-114 -152h114z" glyph-name="four.numr" horiz-adv-x="374"/><glyph d="M310 701v-69h-190v-60h63q68 0 109 -30t40 -92q0 -59 -41 -91t-105 -32t-105.5 27.5t-42.5 87.5h77q0 -44 68 -44q71 0 71 52q0 54 -71 54h-139v197h266z" glyph-name="five.numr" horiz-adv-x="364"/><glyph d="M194 402q29 0 50 12.5t21 38.5q0 25 -20.5 38.5t-50.5 13.5t-51.5 -13.5t-20.5 -38.5q0 -26 20.5 -38.5t51.5 -12.5zM194 571q149 0 149 -118q0 -59 -44.5 -89t-104.5 -30q-61 0 -105.5 31t-44.5 89v138q0 57 43 87.5t104 30.5q63 0 104.5 -26t42.5 -78h-78q-4 37 -69 37 q-30 0 -49.5 -12.5t-19.5 -38.5v-47q26 26 72 26z" glyph-name="six.numr" horiz-adv-x="379"/><glyph d="M140 335h-88l151 295h-175v70h273l4 -34z" glyph-name="seven.numr" horiz-adv-x="321"/><glyph d="M116 445q0 -22 22.5 -36t55.5 -14q32 0 54.5 14t21.5 36q0 24 -22.5 37.5t-53.5 13.5q-32 0 -55 -13t-23 -38zM37 445q0 26 17 49.5t45 32.5q-25 10 -39 30.5t-14 45.5q0 54 42.5 81.5t104.5 27.5q61 0 105 -28t44 -81q0 -51 -53 -74q28 -9 44.5 -33.5t16.5 -50.5 q1 -60 -45 -88t-112 -27q-66 0 -111.5 27.5t-44.5 87.5zM124 602q0 -22 19 -33.5t51 -11.5q30 0 49 11.5t19 33.5q1 23 -20 34.5t-49 11.5t-49 -12t-20 -34z" glyph-name="eight.numr" horiz-adv-x="387"/><glyph d="M185 643q-29 0 -50 -12.5t-21 -38.5t20 -39t50 -13q31 0 52 13.5t21 38.5q0 26 -20.5 38.5t-51.5 12.5zM184 474q-64 0 -106.5 27t-42.5 91q0 59 44.5 89t105.5 30t105 -31t44 -89v-138q0 -57 -43 -87.5t-103 -30.5q-63 0 -105 26t-43 78h78q4 -37 69 -37q30 0 49.5 12.5 t19.5 38.5v47q-25 -26 -72 -26z" glyph-name="nine.numr" horiz-adv-x="379"/><glyph d="M276 800l52 -71q-85 -66 -130 -163.5t-46 -209.5q0 -237 176 -373l-56 -76q-108 71 -166.5 188.5t-60.5 247.5q-3 134 57 257.5t174 199.5z" glyph-name="parenleft.aalt" horiz-adv-x="357"/><glyph d="M28 733l53 71q114 -76 173.5 -199.5t56.5 -257.5q-2 -131 -60 -248t-167 -188l-54 78q176 134 174 371q0 112 -45 209.5t-131 163.5z" glyph-name="parenright.aalt" horiz-adv-x="356"/><glyph d="M70 295v92h364v-92h-364z" glyph-name="hyphen.aalt" horiz-adv-x="504"/><glyph d="M313 -96h-226v886h226v-93h-121v-699h121v-94z" glyph-name="bracketleft.aalt" horiz-adv-x="355"/><glyph d="M268 -96h-226v95h121v699h-121v93h226v-887z" glyph-name="bracketright.aalt" horiz-adv-x="355"/><glyph d="M311 -10v-81q-107 -18 -154 24t-47 143v132q0 93 -72 93v78q72 0 72 92v139q0 195 201 158v-80q-52 12 -73 -6.5t-21 -75.5v-135v-29t-1.5 -25t-6 -26.5t-12 -19.5t-20 -19t-30.5 -12q18 -5 30.5 -12t20 -19t12 -19.5t6 -26.5t1.5 -25.5v-29.5v-137q0 -57 18.5 -72.5 t75.5 -8.5z" glyph-name="braceleft.aalt" horiz-adv-x="354"/><glyph d="M190 754v-834h-102v834h102z" glyph-name="bar.aalt" horiz-adv-x="278"/><glyph d="M42 -91v81q57 -7 75.5 8.5t18.5 72.5v138v29t1.5 25t6 26.5t12 19.5t20 19t30.5 12q-18 5 -30.5 12t-20 19.5t-12 19.5t-6 26t-1.5 25.5v29.5v134q0 57 -21 76t-73 7v79q201 37 201 -158v-138q0 -93 72 -93v-78q-72 0 -72 -92v-133q0 -101 -47 -143t-154 -24z" glyph-name="braceright.aalt" horiz-adv-x="353"/><glyph d="M55 342l139 220h111v-1l-138 -219q74 -120 111 -179q19 -32 27 -43h-111z" glyph-name="guilsinglleft.aalt" horiz-adv-x="371"/><glyph d="M176 561l139 -220l-139 -222h-110l137 222l-137 219v1h110z" glyph-name="guilsinglright.aalt" horiz-adv-x="370"/><glyph d="M55 343l139 221h111v-1l-138 -220q23 -37 69 -110.5t69 -110.5h-111zM214 343l139 221h110v-1l-137 -220l137 -221h-110z" glyph-name="guillemotleft.aalt" horiz-adv-x="527"/><glyph d="M335 568l138 -221l-138 -221h-111l137 221l-137 219v2h111zM176 568l139 -221l-139 -221h-111l138 221l-138 219v2h111z" glyph-name="guillemotright.aalt" horiz-adv-x="529"/><glyph d="M71 287v92h466v-92h-466z" glyph-name="endash.aalt" horiz-adv-x="608"/><glyph d="M69 286v94h565v-94h-565z" glyph-name="emdash.aalt" horiz-adv-x="703"/><glyph d="M201 211q-53 0 -87.5 32.5t-34.5 85.5t34.5 86t87.5 33q52 0 86 -33t34 -86t-34 -85.5t-86 -32.5z" glyph-name="bullet.aalt" horiz-adv-x="400"/><glyph d="M70 333q0 31 21 49t45.5 18t45.5 -18t21 -49t-21 -49t-45.5 -18t-45.5 18t-21 49z" glyph-name="periodcentered.aalt" horiz-adv-x="273"/><glyph d="M244 504q246 0 246 -194v-310h-90l-6 61q-58 -69 -170 -69q-81 0 -137 41t-56 123q0 78 58.5 120t139.5 41q97 0 157 -37v30q0 54 -40.5 78.5t-101.5 24.5q-83 0 -159 -35l-16 83q91 43 175 43zM135 156q0 -38 33 -57.5t76 -19.5q55 0 98 31.5t44 82.5q-54 37 -137 39 q-49 0 -81.5 -19t-32.5 -57z" glyph-name="a.salt" horiz-adv-x="555"/><glyph d="M244 504q246 0 246 -194v-310h-94l-6 61q-28 -34 -73 -51.5t-93 -17.5q-81 0 -137 41t-56 123q0 78 58.5 120t139.5 41q97 0 157 -37v30q0 54 -40.5 78.5t-101.5 24.5q-83 0 -159 -35l-16 83q91 43 175 43zM135 156q0 -38 33 -57.5t76 -19.5q55 0 98 31.5t44 82.5 q-54 37 -137 39q-49 0 -81.5 -19t-32.5 -57zM146 703v4h124l67 -124v-6h-93z" glyph-name="agrave.aalt" horiz-adv-x="555"/><glyph d="M244 504q-84 0 -175 -43l16 -83q76 35 159 35q61 0 101.5 -24.5t40.5 -78.5v-30q-60 37 -157 37q-81 1 -139.5 -41t-58.5 -120q0 -82 56 -123t137 -41q48 0 93 17.5t73 51.5l6 -61h94v310q0 194 -246 194zM135 156q0 38 32.5 57t81.5 19q83 -2 137 -39q-1 -51 -44 -82.5 t-98 -31.5q-43 0 -76 19.5t-33 57.5zM398 707v-4l-98 -126h-92v6l67 124h123z" glyph-name="aacute.aalt" horiz-adv-x="555"/><glyph d="M239 710h60l143 -135v-6h-105l-68 62l-69 -62h-102v6zM244 504q-84 0 -175 -43l16 -83q76 35 159 35q61 0 101.5 -24.5t40.5 -78.5v-30q-60 37 -157 37q-81 1 -139.5 -41t-58.5 -120q0 -82 56 -123t137 -41q112 0 170 69l6 -61h90v310q0 194 -246 194zM135 156 q0 38 32.5 57t81.5 19q83 -2 137 -39q-1 -51 -44 -82.5t-98 -31.5q-43 0 -76 19.5t-33 57.5z" glyph-name="acircumflex.aalt" horiz-adv-x="555"/><glyph d="M244 504q246 0 246 -194v-310h-94q-1 10 -3 30.5t-3 30.5q-58 -69 -166 -69q-81 0 -137 41t-56 123q0 78 58.5 120t139.5 41q97 0 157 -37v30q0 54 -40.5 78.5t-101.5 24.5q-83 0 -159 -35l-16 83q91 43 175 43zM135 156q0 -38 33 -57.5t76 -19.5q55 0 98 31.5t44 82.5 q-54 37 -137 39q-49 0 -81.5 -19t-32.5 -57zM184 594l-65 34q15 44 49 67t78 13q12 -3 34 -14t32 -14q38 -14 56 27l69 -31q-17 -51 -47.5 -71.5t-66.5 -10.5q-14 3 -42 17t-42 17q-36 7 -55 -34z" glyph-name="atilde.aalt" horiz-adv-x="555"/><glyph d="M244 504q-84 0 -175 -43l16 -83q76 35 159 35q61 0 101.5 -24.5t40.5 -78.5v-30q-60 37 -157 37q-81 1 -139.5 -41t-58.5 -120q0 -82 56 -123t137 -41q48 0 93 17.5t73 51.5l6 -61h94v310q0 194 -246 194zM135 156q0 38 32.5 57t81.5 19q83 -2 137 -39q-1 -51 -44 -82.5 t-98 -31.5q-43 0 -76 19.5t-33 57.5zM106 651q0 39 31 55t62.5 0t31.5 -55q0 -29 -19.5 -45.5t-43 -16.5t-43 16.5t-19.5 45.5zM324 651q0 39 31 55t62 0t31 -55q0 -29 -19.5 -45.5t-42.5 -16.5t-42.5 16.5t-19.5 45.5z" glyph-name="adieresis.aalt" horiz-adv-x="555"/><glyph d="M244 504q246 0 246 -194v-310h-94l-6 61q-28 -34 -73 -51.5t-93 -17.5q-81 0 -137 41t-56 123q0 78 58.5 120t139.5 41q97 0 157 -37v30q0 54 -40.5 78.5t-101.5 24.5q-83 0 -159 -35l-16 83q91 43 175 43zM135 156q0 -38 33 -57.5t76 -19.5q55 0 98 31.5t44 82.5 q-54 37 -137 39q-49 0 -81.5 -19t-32.5 -57zM110 610v85h330v-85h-330z" glyph-name="amacron.aalt" horiz-adv-x="555"/><glyph d="M244 504q246 0 246 -194v-310h-94q-1 10 -3 30.5t-3 30.5q-58 -69 -166 -69q-81 0 -137 41t-56 123q0 78 58.5 120t139.5 41q97 0 157 -37v30q0 54 -40.5 78.5t-101.5 24.5q-83 0 -159 -35l-16 83q91 43 175 43zM135 156q0 -38 33 -57.5t76 -19.5q55 0 98 31.5t44 82.5 q-54 37 -137 39q-49 0 -81.5 -19t-32.5 -57zM330 707h84q4 -61 -32 -97.5t-93 -42.5q-68 -7 -119 31t-46 109h84q0 -28 16.5 -45.5t45.5 -17.5q27 0 43.5 17.5t16.5 45.5z" glyph-name="abreve.aalt" horiz-adv-x="555"/><glyph d="M244 504q246 0 246 -194v-310h-94l-6 61q-28 -34 -73 -51.5t-93 -17.5q-81 0 -137 41t-56 123q0 78 58.5 120t139.5 41q97 0 157 -37v30q0 54 -40.5 78.5t-101.5 24.5q-83 0 -159 -35l-16 83q91 43 175 43zM135 156q0 -38 33 -57.5t76 -19.5q55 0 98 31.5t44 82.5 q-54 37 -137 39q-49 0 -81.5 -19t-32.5 -57zM152 662q0 48 35.5 75.5t83.5 27.5t83.5 -27.5t35.5 -75.5t-35.5 -75.5t-83.5 -27.5q-50 0 -84.5 27t-34.5 76zM270 710q-35 0 -49 -24t0.5 -47.5t48.5 -23.5q35 0 49 23.5t-0.5 47.5t-48.5 24z" glyph-name="aring.aalt" horiz-adv-x="555"/><glyph d="M244 504q-84 0 -175 -43l16 -83q76 35 159 35q61 0 101.5 -24.5t40.5 -78.5v-30q-60 37 -157 37q-81 1 -139.5 -41t-58.5 -120q0 -82 56 -123t137 -41q48 0 93 17.5t73 51.5l6 -61h94v310q0 194 -246 194zM135 156q0 38 32.5 57t81.5 19q83 -2 137 -39q-1 -51 -44 -82.5 t-98 -31.5q-43 0 -76 19.5t-33 57.5zM159 632q0 -44 32.5 -68.5t78.5 -24.5q45 0 78 24.5t33 68.5t-33 69t-78 25t-78 -25t-33 -69zM269 672q29 0 41 -19.5t0.5 -39t-41.5 -19.5q-29 0 -41.5 19.5t-0.5 39t42 19.5zM416 850v-3l-103 -96h-87v4l72 95h118z" glyph-name="aringacute.aalt" horiz-adv-x="555"/><glyph d="M135 156q0 -38 33 -57.5t76 -19.5q55 0 98 31.5t44 82.5q-54 37 -137 39q-49 0 -81.5 -19t-32.5 -57zM244 504q246 0 246 -194v-355q-40 6 -77 -9.5t-32 -43.5q2 -16 19 -26.5t42 -7.5q34 4 57 29l54 -40q-19 -33 -57 -49.5t-79 -14.5q-46 2 -77 25t-37 60q-5 33 15 66.5 t78 52.5q-1 11 -3 32t-3 32q-28 -34 -73 -51.5t-93 -17.5q-81 0 -137 41t-56 123q0 78 58.5 120t139.5 41q97 0 157 -37v30q0 54 -40.5 78.5t-101.5 24.5q-83 0 -159 -35l-16 83q91 43 175 43z" glyph-name="aogonek.aalt" horiz-adv-x="555"/><glyph d="M62 493h103v-264q0 -64 35.5 -103t98.5 -39q60 0 98.5 43t38.5 106v257h103v-507q0 -118 -67 -180t-166 -62q-102 0 -164.5 48.5t-69.5 139.5h101q20 -93 131 -93q57 0 97 39t40 110v84q-59 -80 -171 -80q-93 0 -150.5 63t-57.5 173v265z" glyph-name="y.aalt"/><glyph d="M165 493h-103v-265q0 -110 57.5 -173t150.5 -63q112 0 171 80v-84q0 -71 -40 -110t-97 -39q-111 0 -131 93h-101q7 -91 69.5 -139.5t164.5 -48.5q99 0 166 62t67 180v507h-103v-257q0 -63 -38.5 -106t-98.5 -43q-63 0 -98.5 39t-35.5 103v264zM438 701v-4l-104 -132h-92 v6l73 130h123z" glyph-name="yacute.aalt"/><glyph d="M165 493h-103v-265q0 -110 57.5 -173t150.5 -63q112 0 171 80v-84q0 -71 -40 -110t-97 -39q-111 0 -131 93h-101q7 -91 69.5 -139.5t164.5 -48.5q99 0 166 62t67 180v507h-103v-257q0 -63 -38.5 -106t-98.5 -43q-63 0 -98.5 39t-35.5 103v264zM274 712h60l147 -136v-6 h-107l-70 60l-70 -60h-107v6z" glyph-name="ycircumflex.aalt"/><glyph d="M165 493h-103v-265q0 -110 57.5 -173t150.5 -63q112 0 171 80v-84q0 -71 -40 -110t-97 -39q-111 0 -131 93h-101q7 -91 69.5 -139.5t164.5 -48.5q99 0 166 62t67 180v507h-103v-257q0 -63 -38.5 -106t-98.5 -43q-63 0 -98.5 39t-35.5 103v264zM131 644q0 39 30.5 55 t61.5 0t31 -55q0 -38 -31 -54t-61.5 0t-30.5 54zM368 644q0 39 31 55t62 0t31 -55q0 -38 -31 -54t-62 0t-31 54z" glyph-name="ydieresis.aalt"/><glyph d="M62 493h103v-264q0 -64 35.5 -103t98.5 -39q60 0 98.5 43t38.5 106v257h103v-507q0 -118 -67 -180t-166 -62q-102 0 -164.5 48.5t-69.5 139.5h101q20 -93 131 -93q57 0 97 39t40 110v84q-59 -80 -171 -80q-93 0 -150.5 63t-57.5 173v265zM173 697v4h124l73 -130v-6h-92z " glyph-name="ygrave.aalt"/></font>
</defs>
</svg>
